<?xml version="1.0" standalone="no"?>
<svg width="1536px" height="1536px" version="1.1" xmlns="http://www.w3.org/2000/svg">
    <path transform="scale(1, -1) translate(0, -1536)" glyph-name="facebook_sign" unicode="&#xf082;"

d="M1248 1408q119 0 203.5 -84.5t84.5 -203.5v-960q0 -119 -84.5 -203.5t-203.5 -84.5h-188v595h199l30 232h-229v148q0 56 23.5 84t91.5 28l122 1v207q-63 9 -178 9q-136 0 -217.5 -80t-81.5 -226v-171h-200v-232h200v-595h-532q-119 0 -203.5 84.5t-84.5 203.5v960
q0 119 84.5 203.5t203.5 84.5h960z" />
</svg>