<?xml version="1.0" standalone="no"?>
<svg width="1536px" height="1536px" version="1.1" xmlns="http://www.w3.org/2000/svg">
    <path transform="scale(1, -1) translate(0, -1536)" glyph-name="coffee" unicode="&#xf0f4;" horiz-adv-x="1920"

d="M1664 896q0 80 -56 136t-136 56h-64v-384h64q80 0 136 56t56 136zM0 128h1792q0 -106 -75 -181t-181 -75h-1280q-106 0 -181 75t-75 181zM1856 896q0 -159 -112.5 -271.5t-271.5 -112.5h-64v-32q0 -92 -66 -158t-158 -66h-704q-92 0 -158 66t-66 158v736q0 26 19 45
t45 19h1152q159 0 271.5 -112.5t112.5 -271.5z" />
</svg>