<?xml version="1.0" standalone="no"?>
<svg width="1536px" height="1536px" version="1.1" xmlns="http://www.w3.org/2000/svg">
    <path transform="scale(1, -1) translate(0, -1536)" glyph-name="suitcase" unicode="&#xf0f2;" horiz-adv-x="1792"

d="M640 1152h512v128h-512v-128zM288 1152v-1280h-64q-92 0 -158 66t-66 158v832q0 92 66 158t158 66h64zM1408 1152v-1280h-1024v1280h128v160q0 40 28 68t68 28h576q40 0 68 -28t28 -68v-160h128zM1792 928v-832q0 -92 -66 -158t-158 -66h-64v1280h64q92 0 158 -66
t66 -158z" />
</svg>