<?xml version="1.0" standalone="no"?>
<svg width="1536px" height="1536px" version="1.1" xmlns="http://www.w3.org/2000/svg">
    <path transform="scale(1, -1) translate(0, -1536)" glyph-name="star" unicode="&#xf005;" horiz-adv-x="1664"

d="M1664 889q0 -22 -26 -48l-363 -354l86 -500q1 -7 1 -20q0 -21 -10.5 -35.5t-30.5 -14.5q-19 0 -40 12l-449 236l-449 -236q-22 -12 -40 -12q-21 0 -31.5 14.5t-10.5 35.5q0 6 2 20l86 500l-364 354q-25 27 -25 48q0 37 56 46l502 73l225 455q19 41 49 41t49 -41l225 -455
l502 -73q56 -9 56 -46z" />
</svg>