<?xml version="1.0" standalone="no"?>
<svg width="1536px" height="1536px" version="1.1" xmlns="http://www.w3.org/2000/svg">
    <path transform="scale(1, -1) translate(0, -1536)" glyph-name="remove" unicode="&#xf00d;" horiz-adv-x="1408"

d="M1298 214q0 -40 -28 -68l-136 -136q-28 -28 -68 -28t-68 28l-294 294l-294 -294q-28 -28 -68 -28t-68 28l-136 136q-28 28 -28 68t28 68l294 294l-294 294q-28 28 -28 68t28 68l136 136q28 28 68 28t68 -28l294 -294l294 294q28 28 68 28t68 -28l136 -136q28 -28 28 -68
t-28 -68l-294 -294l294 -294q28 -28 28 -68z" />
</svg>