<?xml version="1.0" standalone="no"?>
<svg width="1536px" height="1536px" version="1.1" xmlns="http://www.w3.org/2000/svg">
    <path transform="scale(1, -1) translate(0, -1536)" glyph-name="user" unicode="&#xf007;" horiz-adv-x="1280"

d="M1280 137q0 -109 -62.5 -187t-150.5 -78h-854q-88 0 -150.5 78t-62.5 187q0 85 8.5 160.5t31.5 152t58.5 131t94 89t134.5 34.5q131 -128 313 -128t313 128q76 0 134.5 -34.5t94 -89t58.5 -131t31.5 -152t8.5 -160.5zM1024 1024q0 -159 -112.5 -271.5t-271.5 -112.5
t-271.5 112.5t-112.5 271.5t112.5 271.5t271.5 112.5t271.5 -112.5t112.5 -271.5z" />
</svg>