<?xml version="1.0" standalone="no"?>
<svg width="1536px" height="1536px" version="1.1" xmlns="http://www.w3.org/2000/svg">
    <path transform="scale(1, -1) translate(0, -1536)" glyph-name="_422" unicode="&#xf1c2;"

d="M1468 1156q28 -28 48 -76t20 -88v-1152q0 -40 -28 -68t-68 -28h-1344q-40 0 -68 28t-28 68v1600q0 40 28 68t68 28h896q40 0 88 -20t76 -48zM1024 1400v-376h376q-10 29 -22 41l-313 313q-12 12 -41 22zM1408 -128v1024h-416q-40 0 -68 28t-28 68v416h-768v-1536h1280z
M233 768v-107h70l164 -661h159l128 485q7 20 10 46q2 16 2 24h4l3 -24q1 -3 3.5 -20t5.5 -26l128 -485h159l164 661h70v107h-300v-107h90l-99 -438q-5 -20 -7 -46l-2 -21h-4q0 3 -0.5 6.5t-1.5 8t-1 6.5q-1 5 -4 21t-5 25l-144 545h-114l-144 -545q-2 -9 -4.5 -24.5
t-3.5 -21.5l-4 -21h-4l-2 21q-2 26 -7 46l-99 438h90v107h-300z" />
</svg>