<?xml version="1.0" standalone="no"?>
<svg width="1536px" height="1536px" version="1.1" xmlns="http://www.w3.org/2000/svg">
    <path transform="scale(1, -1) translate(0, -1536)" glyph-name="chevron_sign_up" unicode="&#xf139;"

d="M1165 397l102 102q19 19 19 45t-19 45l-454 454q-19 19 -45 19t-45 -19l-454 -454q-19 -19 -19 -45t19 -45l102 -102q19 -19 45 -19t45 19l307 307l307 -307q19 -19 45 -19t45 19zM1536 640q0 -209 -103 -385.5t-279.5 -279.5t-385.5 -103t-385.5 103t-279.5 279.5
t-103 385.5t103 385.5t279.5 279.5t385.5 103t385.5 -103t279.5 -279.5t103 -385.5z" />
</svg>