<?xml version="1.0" standalone="no"?>
<svg width="1536px" height="1536px" version="1.1" xmlns="http://www.w3.org/2000/svg">
    <path transform="scale(1, -1) translate(0, -1536)" glyph-name="f1a4" unicode="&#xf1a4;" horiz-adv-x="1920"

d="M1062 824v118q0 42 -30 72t-72 30t-72 -30t-30 -72v-612q0 -175 -126 -299t-303 -124q-178 0 -303.5 125.5t-125.5 303.5v266h328v-262q0 -43 30 -72.5t72 -29.5t72 29.5t30 72.5v620q0 171 126.5 292t301.5 121q176 0 302 -122t126 -294v-136l-195 -58zM1592 602h328
v-266q0 -178 -125.5 -303.5t-303.5 -125.5q-177 0 -303 124.5t-126 300.5v268l131 -61l195 58v-270q0 -42 30 -71.5t72 -29.5t72 29.5t30 71.5v275z" />
</svg>