<?xml version="1.0" standalone="no"?>
<svg width="1536px" height="1536px" version="1.1" xmlns="http://www.w3.org/2000/svg">
    <path transform="scale(1, -1) translate(0, -1536)" glyph-name="_434" unicode="&#xf1ce;" horiz-adv-x="1792"

d="M1760 640q0 -176 -68.5 -336t-184 -275.5t-275.5 -184t-336 -68.5t-336 68.5t-275.5 184t-184 275.5t-68.5 336q0 213 97 398.5t265 305.5t374 151v-228q-221 -45 -366.5 -221t-145.5 -406q0 -130 51 -248.5t136.5 -204t204 -136.5t248.5 -51t248.5 51t204 136.5
t136.5 204t51 248.5q0 230 -145.5 406t-366.5 221v228q206 -31 374 -151t265 -305.5t97 -398.5z" />
</svg>