<?xml version="1.0" standalone="no"?>
<svg width="1536px" height="1536px" version="1.1" xmlns="http://www.w3.org/2000/svg">
    <path transform="scale(1, -1) translate(0, -1536)" glyph-name="_431" unicode="&#xf1cb;" horiz-adv-x="1792"

d="M216 367l603 -402v359l-334 223zM154 511l193 129l-193 129v-258zM973 -35l603 402l-269 180l-334 -223v-359zM896 458l272 182l-272 182l-272 -182zM485 733l334 223v359l-603 -402zM1445 640l193 -129v258zM1307 733l269 180l-603 402v-359zM1792 913v-546
q0 -41 -34 -64l-819 -546q-21 -13 -43 -13t-43 13l-819 546q-34 23 -34 64v546q0 41 34 64l819 546q21 13 43 13t43 -13l819 -546q34 -23 34 -64z" />
</svg>