<?xml version="1.0" standalone="no"?>
<svg width="1536px" height="1536px" version="1.1" xmlns="http://www.w3.org/2000/svg">
    <path transform="scale(1, -1) translate(0, -1536)" glyph-name="play_sign" unicode="&#xf144;"

d="M768 1408q209 0 385.5 -103t279.5 -279.5t103 -385.5t-103 -385.5t-279.5 -279.5t-385.5 -103t-385.5 103t-279.5 279.5t-103 385.5t103 385.5t279.5 279.5t385.5 103zM1152 585q32 18 32 55t-32 55l-544 320q-31 19 -64 1q-32 -19 -32 -56v-640q0 -37 32 -56
q16 -8 32 -8q17 0 32 9z" />
</svg>