<?xml version="1.0" standalone="no"?>
<svg width="1536px" height="1536px" version="1.1" xmlns="http://www.w3.org/2000/svg">
    <path transform="scale(1, -1) translate(0, -1536)" glyph-name="uniF1A0" unicode="&#xf1a0;"

d="M768 750h725q12 -67 12 -128q0 -217 -91 -387.5t-259.5 -266.5t-386.5 -96q-157 0 -299 60.5t-245 163.5t-163.5 245t-60.5 299t60.5 299t163.5 245t245 163.5t299 60.5q300 0 515 -201l-209 -201q-123 119 -306 119q-129 0 -238.5 -65t-173.5 -176.5t-64 -243.5
t64 -243.5t173.5 -176.5t238.5 -65q87 0 160 24t120 60t82 82t51.5 87t22.5 78h-436v264z" />
</svg>