<?xml version="1.0" standalone="no"?>
<svg width="1536px" height="1536px" version="1.1" xmlns="http://www.w3.org/2000/svg">
    <path transform="scale(1, -1) translate(0, -1536)" glyph-name="uniF1E0" unicode="&#xf1e0;"

d="M1216 512q133 0 226.5 -93.5t93.5 -226.5t-93.5 -226.5t-226.5 -93.5t-226.5 93.5t-93.5 226.5q0 12 2 34l-360 180q-92 -86 -218 -86q-133 0 -226.5 93.5t-93.5 226.5t93.5 226.5t226.5 93.5q126 0 218 -86l360 180q-2 22 -2 34q0 133 93.5 226.5t226.5 93.5
t226.5 -93.5t93.5 -226.5t-93.5 -226.5t-226.5 -93.5q-126 0 -218 86l-360 -180q2 -22 2 -34t-2 -34l360 -180q92 86 218 86z" />
</svg>