<?xml version="1.0" standalone="no"?>
<svg width="1536px" height="1536px" version="1.1" xmlns="http://www.w3.org/2000/svg">
    <path transform="scale(1, -1) translate(0, -1536)" glyph-name="_473" unicode="&#xf1f8;" horiz-adv-x="1408"

d="M512 160v704q0 14 -9 23t-23 9h-64q-14 0 -23 -9t-9 -23v-704q0 -14 9 -23t23 -9h64q14 0 23 9t9 23zM768 160v704q0 14 -9 23t-23 9h-64q-14 0 -23 -9t-9 -23v-704q0 -14 9 -23t23 -9h64q14 0 23 9t9 23zM1024 160v704q0 14 -9 23t-23 9h-64q-14 0 -23 -9t-9 -23v-704
q0 -14 9 -23t23 -9h64q14 0 23 9t9 23zM480 1152h448l-48 117q-7 9 -17 11h-317q-10 -2 -17 -11zM1408 1120v-64q0 -14 -9 -23t-23 -9h-96v-948q0 -83 -47 -143.5t-113 -60.5h-832q-66 0 -113 58.5t-47 141.5v952h-96q-14 0 -23 9t-9 23v64q0 14 9 23t23 9h309l70 167
q15 37 54 63t79 26h320q40 0 79 -26t54 -63l70 -167h309q14 0 23 -9t9 -23z" />
</svg>