<?xml version="1.0" standalone="no"?>
<svg width="1536px" height="1536px" version="1.1" xmlns="http://www.w3.org/2000/svg">
    <path transform="scale(1, -1) translate(0, -1536)" glyph-name="tumblr" unicode="&#xf173;" horiz-adv-x="1024"

d="M944 207l80 -237q-23 -35 -111 -66t-177 -32q-104 -2 -190.5 26t-142.5 74t-95 106t-55.5 120t-16.5 118v544h-168v215q72 26 129 69.5t91 90t58 102t34 99t15 88.5q1 5 4.5 8.5t7.5 3.5h244v-424h333v-252h-334v-518q0 -30 6.5 -56t22.5 -52.5t49.5 -41.5t81.5 -14
q78 2 134 29z" />
</svg>