<?xml version="1.0" standalone="no"?>
<svg width="1536px" height="1536px" version="1.1" xmlns="http://www.w3.org/2000/svg">
    <path transform="scale(1, -1) translate(0, -1536)" glyph-name="_404" unicode="&#xf1ae;" horiz-adv-x="1280"

d="M1188 988l-292 -292v-824q0 -46 -33 -79t-79 -33t-79 33t-33 79v384h-64v-384q0 -46 -33 -79t-79 -33t-79 33t-33 79v824l-292 292q-28 28 -28 68t28 68q29 28 68.5 28t67.5 -28l228 -228h368l228 228q28 28 68 28t68 -28q28 -29 28 -68.5t-28 -67.5zM864 1152
q0 -93 -65.5 -158.5t-158.5 -65.5t-158.5 65.5t-65.5 158.5t65.5 158.5t158.5 65.5t158.5 -65.5t65.5 -158.5z" />
</svg>