<?xml version="1.0" standalone="no"?>
<svg width="1536px" height="1536px" version="1.1" xmlns="http://www.w3.org/2000/svg">
    <path transform="scale(1, -1) translate(0, -1536)" glyph-name="terminal" unicode="&#xf120;" horiz-adv-x="1664"

d="M585 553l-466 -466q-10 -10 -23 -10t-23 10l-50 50q-10 10 -10 23t10 23l393 393l-393 393q-10 10 -10 23t10 23l50 50q10 10 23 10t23 -10l466 -466q10 -10 10 -23t-10 -23zM1664 96v-64q0 -14 -9 -23t-23 -9h-960q-14 0 -23 9t-9 23v64q0 14 9 23t23 9h960q14 0 23 -9
t9 -23z" />
</svg>