<?xml version="1.0" standalone="no"?>
<svg width="1536px" height="1536px" version="1.1" xmlns="http://www.w3.org/2000/svg">
    <path transform="scale(1, -1) translate(0, -1536)" glyph-name="_456" unicode="&#xf1e6;" horiz-adv-x="1792"

d="M1755 1083q37 -38 37 -90.5t-37 -90.5l-401 -400l150 -150l-160 -160q-163 -163 -389.5 -186.5t-411.5 100.5l-362 -362h-181v181l362 362q-124 185 -100.5 411.5t186.5 389.5l160 160l150 -150l400 401q38 37 91 37t90 -37t37 -90.5t-37 -90.5l-400 -401l234 -234
l401 400q38 37 91 37t90 -37z" />
</svg>