<?xml version="1.0" standalone="no"?>
<svg width="1536px" height="1536px" version="1.1" xmlns="http://www.w3.org/2000/svg">
    <path transform="scale(1, -1) translate(0, -1536)" glyph-name="trello" unicode="&#xf181;"

d="M704 192v1024q0 14 -9 23t-23 9h-480q-14 0 -23 -9t-9 -23v-1024q0 -14 9 -23t23 -9h480q14 0 23 9t9 23zM1376 576v640q0 14 -9 23t-23 9h-480q-14 0 -23 -9t-9 -23v-640q0 -14 9 -23t23 -9h480q14 0 23 9t9 23zM1536 1344v-1408q0 -26 -19 -45t-45 -19h-1408
q-26 0 -45 19t-19 45v1408q0 26 19 45t45 19h1408q26 0 45 -19t19 -45z" />
</svg>