<?xml version="1.0" standalone="no"?>
<svg width="1536px" height="1536px" version="1.1" xmlns="http://www.w3.org/2000/svg">
    <path transform="scale(1, -1) translate(0, -1536)" glyph-name="uniF1C0" unicode="&#xf1c0;"

d="M768 768q237 0 443 43t325 127v-170q0 -69 -103 -128t-280 -93.5t-385 -34.5t-385 34.5t-280 93.5t-103 128v170q119 -84 325 -127t443 -43zM768 0q237 0 443 43t325 127v-170q0 -69 -103 -128t-280 -93.5t-385 -34.5t-385 34.5t-280 93.5t-103 128v170q119 -84 325 -127
t443 -43zM768 384q237 0 443 43t325 127v-170q0 -69 -103 -128t-280 -93.5t-385 -34.5t-385 34.5t-280 93.5t-103 128v170q119 -84 325 -127t443 -43zM768 1536q208 0 385 -34.5t280 -93.5t103 -128v-128q0 -69 -103 -128t-280 -93.5t-385 -34.5t-385 34.5t-280 93.5
t-103 128v128q0 69 103 128t280 93.5t385 34.5z" />
</svg>