<?xml version="1.0" standalone="no"?>
<svg width="1536px" height="1536px" version="1.1" xmlns="http://www.w3.org/2000/svg">
    <path transform="scale(1, -1) translate(0, -1536)" glyph-name="double_angle_up" unicode="&#xf102;" horiz-adv-x="1152"

d="M1075 224q0 -13 -10 -23l-50 -50q-10 -10 -23 -10t-23 10l-393 393l-393 -393q-10 -10 -23 -10t-23 10l-50 50q-10 10 -10 23t10 23l466 466q10 10 23 10t23 -10l466 -466q10 -10 10 -23zM1075 608q0 -13 -10 -23l-50 -50q-10 -10 -23 -10t-23 10l-393 393l-393 -393
q-10 -10 -23 -10t-23 10l-50 50q-10 10 -10 23t10 23l466 466q10 10 23 10t23 -10l466 -466q10 -10 10 -23z" />
</svg>