<?xml version="1.0" standalone="no"?>
<svg width="1536px" height="1536px" version="1.1" xmlns="http://www.w3.org/2000/svg">
    <path transform="scale(1, -1) translate(0, -1536)" glyph-name="_416" unicode="&#xf1bb;"

d="M1504 64q0 -26 -19 -45t-45 -19h-462q1 -17 6 -87.5t5 -108.5q0 -25 -18 -42.5t-43 -17.5h-320q-25 0 -43 17.5t-18 42.5q0 38 5 108.5t6 87.5h-462q-26 0 -45 19t-19 45t19 45l402 403h-229q-26 0 -45 19t-19 45t19 45l402 403h-197q-26 0 -45 19t-19 45t19 45l384 384
q19 19 45 19t45 -19l384 -384q19 -19 19 -45t-19 -45t-45 -19h-197l402 -403q19 -19 19 -45t-19 -45t-45 -19h-229l402 -403q19 -19 19 -45z" />
</svg>