<?xml version="1.0" standalone="no"?>
<svg width="1536px" height="1536px" version="1.1" xmlns="http://www.w3.org/2000/svg">
    <path transform="scale(1, -1) translate(0, -1536)" glyph-name="_464" unicode="&#xf1ee;" horiz-adv-x="1792"

d="M441 864q33 0 52 -26q266 -364 362 -774h-446q-127 441 -367 749q-12 16 -3 33.5t29 17.5h373zM1000 507q-49 -199 -125 -393q-79 310 -256 594q40 221 44 449q211 -340 337 -650zM1099 1216q235 -324 384.5 -698.5t184.5 -773.5h-451q-41 665 -553 1472h435zM1792 640
q0 -424 -101 -812q-67 560 -359 1083q-25 301 -106 584q-4 16 5.5 28.5t25.5 12.5h359q21 0 38.5 -13t22.5 -33q115 -409 115 -850z" />
</svg>