<?xml version="1.0" standalone="no"?>
<svg width="1536px" height="1536px" version="1.1" xmlns="http://www.w3.org/2000/svg">
    <path transform="scale(1, -1) translate(0, -1536)" glyph-name="_541" unicode="&#xf241;" horiz-adv-x="2304"

d="M256 256v768h1280v-768h-1280zM2176 960q53 0 90.5 -37.5t37.5 -90.5v-384q0 -53 -37.5 -90.5t-90.5 -37.5v-160q0 -66 -47 -113t-113 -47h-1856q-66 0 -113 47t-47 113v960q0 66 47 113t113 47h1856q66 0 113 -47t47 -113v-160zM2176 448v384h-128v288q0 14 -9 23t-23 9
h-1856q-14 0 -23 -9t-9 -23v-960q0 -14 9 -23t23 -9h1856q14 0 23 9t9 23v288h128z" />
</svg>