<?xml version="1.0" standalone="no"?>
<svg width="1536px" height="1536px" version="1.1" xmlns="http://www.w3.org/2000/svg">
    <path transform="scale(1, -1) translate(0, -1536)" glyph-name="_589" unicode="&#xf274;" horiz-adv-x="1792"

d="M1303 572l-512 -512q-10 -9 -23 -9t-23 9l-288 288q-9 10 -9 23t9 22l46 46q9 9 22 9t23 -9l220 -220l444 444q10 9 23 9t22 -9l46 -46q9 -9 9 -22t-9 -23zM128 -128h1408v1024h-1408v-1024zM512 1088v288q0 14 -9 23t-23 9h-64q-14 0 -23 -9t-9 -23v-288q0 -14 9 -23
t23 -9h64q14 0 23 9t9 23zM1280 1088v288q0 14 -9 23t-23 9h-64q-14 0 -23 -9t-9 -23v-288q0 -14 9 -23t23 -9h64q14 0 23 9t9 23zM1664 1152v-1280q0 -52 -38 -90t-90 -38h-1408q-52 0 -90 38t-38 90v1280q0 52 38 90t90 38h128v96q0 66 47 113t113 47h64q66 0 113 -47
t47 -113v-96h384v96q0 66 47 113t113 47h64q66 0 113 -47t47 -113v-96h128q52 0 90 -38t38 -90z" />
</svg>