<?xml version="1.0" standalone="no"?>
<svg width="1536px" height="1536px" version="1.1" xmlns="http://www.w3.org/2000/svg">
    <path transform="scale(1, -1) translate(0, -1536)" glyph-name="mastodon" unicode="&#xf2e1;" horiz-adv-x="1792" d="M1636 462q-6 -32 -26 -64t-50.5 -62t-71 -57.5t-87 -49t-101 -37t-109.5 -22.5q-226 -27 -355 -21q-89 4 -179 16t-135 22l-46 10q0 -30 4 -56q4 -32 14 -59t22.5 -47t32 -36.5t38 -27t45

-19t47.5 -13t52 -7.5t53 -4t54 -2q46 -2 94.5 1.5t85 9.5t67 12.5t46.5 11.5 l16 5l6 -148l-13 -6.5t-39.5 -15.5t-65 -20t-88.5 -18t-111 -12q-199 -11 -413 45q-58 16 -107 42t-87 59t-69.5 76.5t-54 89.5t-40 102t-28.5 110.5t-18.5 119.5t-11.5 123t-5 126q-1 44 -1
309q0 62 8.5 119t23 101t34 82.5t40.5 66.5t42 51.5t40 38t34 25t23.5 14.5 l8.5 4q92 43 243.5 64t334.5 22h6q398 -3 578 -86q5 -2 14 -7t35.5 -24.5t50.5 -43.5t53.5 -66.5t51 -91t35.5 -119.5t14 -150q0 -6 0.5 -32t-1.5 -82t-5 -115t-10.5 -130.5t-18.5 -126.5zM1371
918q0 147 -74 229q-76 85 -199 85q-144 0 -216 -110l-46 -78l-47 78 q-71 110 -215 110q-123 0 -200 -85q-37 -43 -55.5 -100t-18.5 -129v-471h187v457q0 145 122 145q134 0 134 -173v-250h185v250q0 173 135 173q40 0 67.5 -16.5t41 -48.5t13.5 -80v-457h186v471z" />
</svg>