<?xml version="1.0" standalone="no"?>
<svg width="1536px" height="1536px" version="1.1" xmlns="http://www.w3.org/2000/svg">
    <path transform="scale(1, -1) translate(0, -1536)" glyph-name="_620" unicode="&#xf295;"

d="M1280 256q0 52 -38 90t-90 38t-90 -38t-38 -90t38 -90t90 -38t90 38t38 90zM512 1024q0 52 -38 90t-90 38t-90 -38t-38 -90t38 -90t90 -38t90 38t38 90zM1536 256q0 -159 -112.5 -271.5t-271.5 -112.5t-271.5 112.5t-112.5 271.5t112.5 271.5t271.5 112.5t271.5 -112.5
t112.5 -271.5zM1440 1344q0 -20 -13 -38l-1056 -1408q-19 -26 -51 -26h-160q-26 0 -45 19t-19 45q0 20 13 38l1056 1408q19 26 51 26h160q26 0 45 -19t19 -45zM768 1024q0 -159 -112.5 -271.5t-271.5 -112.5t-271.5 112.5t-112.5 271.5t112.5 271.5t271.5 112.5
t271.5 -112.5t112.5 -271.5z" />
</svg>