<?xml version="1.0" standalone="no"?>
<svg width="1536px" height="1536px" version="1.1" xmlns="http://www.w3.org/2000/svg">
    <path transform="scale(1, -1) translate(0, -1536)" glyph-name="_558" unicode="&#xf253;"

d="M1408 1408q0 -261 -106.5 -461.5t-266.5 -306.5q160 -106 266.5 -306.5t106.5 -461.5h96q14 0 23 -9t9 -23v-64q0 -14 -9 -23t-23 -9h-1472q-14 0 -23 9t-9 23v64q0 14 9 23t23 9h96q0 261 106.5 461.5t266.5 306.5q-160 106 -266.5 306.5t-106.5 461.5h-96q-14 0 -23 9
t-9 23v64q0 14 9 23t23 9h1472q14 0 23 -9t9 -23v-64q0 -14 -9 -23t-23 -9h-96zM874 700q77 29 149 92.5t129.5 152.5t92.5 210t35 253h-1024q0 -132 35 -253t92.5 -210t129.5 -152.5t149 -92.5q19 -7 30.5 -23.5t11.5 -36.5t-11.5 -36.5t-30.5 -23.5q-137 -51 -244 -196
h700q-107 145 -244 196q-19 7 -30.5 23.5t-11.5 36.5t11.5 36.5t30.5 23.5z" />
</svg>