<?xml version="1.0" standalone="no"?>
<svg width="1536px" height="1536px" version="1.1" xmlns="http://www.w3.org/2000/svg">
    <path transform="scale(1, -1) translate(0, -1536)" glyph-name="uniF2D4" unicode="&#xf2d4;" horiz-adv-x="1792"

d="M1257 425l-146 -146q-10 -10 -23 -10t-23 10l-169 169l-169 -169q-10 -10 -23 -10t-23 10l-146 146q-10 10 -10 23t10 23l169 169l-169 169q-10 10 -10 23t10 23l146 146q10 10 23 10t23 -10l169 -169l169 169q10 10 23 10t23 -10l146 -146q10 -10 10 -23t-10 -23
l-169 -169l169 -169q10 -10 10 -23t-10 -23zM256 128h1280v1024h-1280v-1024zM1792 1248v-1216q0 -66 -47 -113t-113 -47h-1472q-66 0 -113 47t-47 113v1216q0 66 47 113t113 47h1472q66 0 113 -47t47 -113z" />
</svg>