<?xml version="1.0" standalone="no"?>
<svg width="1536px" height="1536px" version="1.1" xmlns="http://www.w3.org/2000/svg">
    <path transform="scale(1, -1) translate(0, -1536)" glyph-name="mastodon-alt" unicode="&#xf2e2;" horiz-adv-x="1792" d="M833 1536h6q183 -1 334.5 -22t243.5 -64q5 -2 14 -7t35.5 -24.5t50.5 -43.5t53.5 -66.5t50.5 -91t35.5 -119.5t14.5 -150q1 -33 0.5 -86t-9.5 -182.5t-26 -217.5q-12 -63 -75 -125.5t-162 -108t-208 -58.5q-227 -27

-355 -21q-89 4 -179 16t-135 22l-46 10q0 -30 4 -56 q4 -32 14 -59t22.5 -47t32 -36.5t38 -27t45 -19t47.5 -13t52 -7.5t53 -4t54 -2q34 -2 69 0t64 5.5t57 7.5t49 9t37 9l24 6l9 3l6 -148l-13 -6.5t-39.5 -15.5t-65 -20t-88.5 -18t-111 -12q-199 -11 -413 45q-74 20
-133.5 57.5t-102 85t-75 111.5t-52 129.5t-32.5 147 t-18.5 155.5t-7.5 162q-1 44 -1 309q0 79 14 149.5t36.5 120t49.5 91t54 67t49.5 43t36.5 24.5l14 7q180 83 578 86zM381 917q-52 0 -89 -37t-37 -89t37 -89t89.5 -37t89 37t36.5 89q0 34 -16.5 63t-45.5 46t-64
17zM836 917q-52 0 -89 -37t-37 -89q0 -34 16.5 -63t46 -46 t63.5 -17q52 0 89 37t37 89t-37 89t-89 37zM1290 917q-25 0 -48.5 -10t-40.5 -27t-27 -40t-10 -49q0 -52 37 -89t89 -37q34 0 63.5 17t46 46t16.5 63q0 52 -37 89t-89 37z" />
</svg>