<?xml version="1.0" standalone="no"?>
<svg width="1536px" height="1536px" version="1.1" xmlns="http://www.w3.org/2000/svg">
    <path transform="scale(1, -1) translate(0, -1536)" glyph-name="_533" unicode="&#xf238;"

d="M1088 1536q185 0 316.5 -93.5t131.5 -226.5v-896q0 -130 -125.5 -222t-305.5 -97l213 -202q16 -15 8 -35t-30 -20h-1056q-22 0 -30 20t8 35l213 202q-180 5 -305.5 97t-125.5 222v896q0 133 131.5 226.5t316.5 93.5h640zM768 192q80 0 136 56t56 136t-56 136t-136 56
t-136 -56t-56 -136t56 -136t136 -56zM1344 768v512h-1152v-512h1152z" />
</svg>