<?xml version="1.0" standalone="no"?>
<svg width="1536px" height="1536px" version="1.1" xmlns="http://www.w3.org/2000/svg">
    <path transform="scale(1, -1) translate(0, -1536)" glyph-name="_608" unicode="&#xf288;" horiz-adv-x="1792"

d="M1150 774q0 -56 -39.5 -95t-95.5 -39h-253v269h253q56 0 95.5 -39.5t39.5 -95.5zM1329 774q0 130 -91.5 222t-222.5 92h-433v-896h180v269h253q130 0 222 91.5t92 221.5zM1792 640q0 -182 -71 -348t-191 -286t-286 -191t-348 -71t-348 71t-286 191t-191 286t-71 348
t71 348t191 286t286 191t348 71t348 -71t286 -191t191 -286t71 -348z" />
</svg>