<?xml version="1.0" standalone="no"?>
<svg width="1536px" height="1536px" version="1.1" xmlns="http://www.w3.org/2000/svg">
    <path transform="scale(1, -1) translate(0, -1536)" glyph-name="_593" unicode="&#xf278;" horiz-adv-x="2048"

d="M2020 1525q28 -20 28 -53v-1408q0 -20 -11 -36t-29 -23l-640 -256q-24 -11 -48 0l-616 246l-616 -246q-10 -5 -24 -5q-19 0 -36 11q-28 20 -28 53v1408q0 20 11 36t29 23l640 256q24 11 48 0l616 -246l616 246q32 13 60 -6zM736 1390v-1270l576 -230v1270zM128 1173
v-1270l544 217v1270zM1920 107v1270l-544 -217v-1270z" />
</svg>