<?xml version="1.0" standalone="no"?>
<svg width="1536px" height="1536px" version="1.1" xmlns="http://www.w3.org/2000/svg">
    <path transform="scale(1, -1) translate(0, -1536)" glyph-name="_611" unicode="&#xf28b;"

d="M704 352v576q0 14 -9 23t-23 9h-256q-14 0 -23 -9t-9 -23v-576q0 -14 9 -23t23 -9h256q14 0 23 9t9 23zM1152 352v576q0 14 -9 23t-23 9h-256q-14 0 -23 -9t-9 -23v-576q0 -14 9 -23t23 -9h256q14 0 23 9t9 23zM1536 640q0 -209 -103 -385.5t-279.5 -279.5t-385.5 -103
t-385.5 103t-279.5 279.5t-103 385.5t103 385.5t279.5 279.5t385.5 103t385.5 -103t279.5 -279.5t103 -385.5z" />
</svg>