<?xml version="1.0" standalone="no"?>
<svg width="1536px" height="1536px" version="1.1" xmlns="http://www.w3.org/2000/svg">
    <path transform="scale(1, -1) translate(0, -1536)" glyph-name="uniF2D2" unicode="&#xf2d2;" horiz-adv-x="2048"

d="M256 0h768v512h-768v-512zM1280 512h512v768h-768v-256h96q66 0 113 -47t47 -113v-352zM2048 1376v-960q0 -66 -47 -113t-113 -47h-608v-352q0 -66 -47 -113t-113 -47h-960q-66 0 -113 47t-47 113v960q0 66 47 113t113 47h608v352q0 66 47 113t113 47h960q66 0 113 -47
t47 -113z" />
</svg>