<?xml version="1.0" standalone="no"?>
<svg width="1536px" height="1536px" version="1.1" xmlns="http://www.w3.org/2000/svg">
    <path transform="scale(1, -1) translate(0, -1536)" glyph-name="_481" unicode="&#xf201;" horiz-adv-x="2048"

d="M2048 0v-128h-2048v1536h128v-1408h1920zM1920 1248v-435q0 -21 -19.5 -29.5t-35.5 7.5l-121 121l-633 -633q-10 -10 -23 -10t-23 10l-233 233l-416 -416l-192 192l585 585q10 10 23 10t23 -10l233 -233l464 464l-121 121q-16 16 -7.5 35.5t29.5 19.5h435q14 0 23 -9
t9 -23z" />
</svg>