<?xml version="1.0" standalone="no"?>
<svg width="1536px" height="1536px" version="1.1" xmlns="http://www.w3.org/2000/svg">
    <path transform="scale(1, -1) translate(0, -1536)" glyph-name="_591" unicode="&#xf276;" horiz-adv-x="1024"

d="M512 448q66 0 128 15v-655q0 -26 -19 -45t-45 -19h-128q-26 0 -45 19t-19 45v655q62 -15 128 -15zM512 1536q212 0 362 -150t150 -362t-150 -362t-362 -150t-362 150t-150 362t150 362t362 150zM512 1312q14 0 23 9t9 23t-9 23t-23 9q-146 0 -249 -103t-103 -249
q0 -14 9 -23t23 -9t23 9t9 23q0 119 84.5 203.5t203.5 84.5z" />
</svg>