<?xml version="1.0" standalone="no"?>
<svg width="1536px" height="1536px" version="1.1" xmlns="http://www.w3.org/2000/svg">
    <path transform="scale(1, -1) translate(0, -1536)" glyph-name="_531" unicode="&#xf236;" horiz-adv-x="2048"

d="M256 512h1728q26 0 45 -19t19 -45v-448h-256v256h-1536v-256h-256v1216q0 26 19 45t45 19h128q26 0 45 -19t19 -45v-704zM832 832q0 106 -75 181t-181 75t-181 -75t-75 -181t75 -181t181 -75t181 75t75 181zM2048 576v64q0 159 -112.5 271.5t-271.5 112.5h-704
q-26 0 -45 -19t-19 -45v-384h1152z" />
</svg>