<?xml version="1.0" standalone="no"?>
<svg width="1536px" height="1536px" version="1.1" xmlns="http://www.w3.org/2000/svg">
    <path transform="scale(1, -1) translate(0, -1536)" glyph-name="_623" unicode="&#xf298;"

d="M515 625v-128h-252v128h252zM515 880v-127h-252v127h252zM1273 369v-128h-341v128h341zM1273 625v-128h-672v128h672zM1273 880v-127h-672v127h672zM1408 20v1240q0 8 -6 14t-14 6h-32l-378 -256l-210 171l-210 -171l-378 256h-32q-8 0 -14 -6t-6 -14v-1240q0 -8 6 -14
t14 -6h1240q8 0 14 6t6 14zM553 1130l185 150h-406zM983 1130l221 150h-406zM1536 1260v-1240q0 -62 -43 -105t-105 -43h-1240q-62 0 -105 43t-43 105v1240q0 62 43 105t105 43h1240q62 0 105 -43t43 -105z" />
</svg>