<?xml version="1.0" standalone="no"?>
<svg width="1536px" height="1536px" version="1.1" xmlns="http://www.w3.org/2000/svg">
    <path transform="scale(1, -1) translate(0, -1536)" glyph-name="_500" unicode="&#xf215;" horiz-adv-x="2048"

d="M863 504q0 112 -79.5 191.5t-191.5 79.5t-191 -79.5t-79 -191.5t79 -191t191 -79t191.5 79t79.5 191zM1726 505q0 112 -79 191t-191 79t-191.5 -79t-79.5 -191q0 -113 79.5 -192t191.5 -79t191 79.5t79 191.5zM2048 1314v-1348q0 -44 -31.5 -75.5t-76.5 -31.5h-1832
q-45 0 -76.5 31.5t-31.5 75.5v1348q0 44 31.5 75.5t76.5 31.5h431q44 0 76 -31.5t32 -75.5v-161h754v161q0 44 32 75.5t76 31.5h431q45 0 76.5 -31.5t31.5 -75.5z" />
</svg>