<?xml version="1.0" standalone="no"?>
<svg width="1536px" height="1536px" version="1.1" xmlns="http://www.w3.org/2000/svg">
    <path transform="scale(1, -1) translate(0, -1536)" glyph-name="_492" unicode="&#xf20c;"

d="M1311 694v-114q0 -24 -13.5 -38t-37.5 -14h-202q-24 0 -38 14t-14 38v114q0 24 14 38t38 14h202q24 0 37.5 -14t13.5 -38zM821 464v250q0 53 -32.5 85.5t-85.5 32.5h-133q-68 0 -96 -52q-28 52 -96 52h-130q-53 0 -85.5 -32.5t-32.5 -85.5v-250q0 -22 21 -22h55
q22 0 22 22v230q0 24 13.5 38t38.5 14h94q24 0 38 -14t14 -38v-230q0 -22 21 -22h54q22 0 22 22v230q0 24 14 38t38 14h97q24 0 37.5 -14t13.5 -38v-230q0 -22 22 -22h55q21 0 21 22zM1410 560v154q0 53 -33 85.5t-86 32.5h-264q-53 0 -86 -32.5t-33 -85.5v-410
q0 -21 22 -21h55q21 0 21 21v180q31 -42 94 -42h191q53 0 86 32.5t33 85.5zM1536 1176v-1072q0 -96 -68 -164t-164 -68h-1072q-96 0 -164 68t-68 164v1072q0 96 68 164t164 68h1072q96 0 164 -68t68 -164z" />
</svg>