<?xml version="1.0" standalone="no"?>
<svg width="1536px" height="1536px" version="1.1" xmlns="http://www.w3.org/2000/svg">
    <path transform="scale(1, -1) translate(0, -1536)" glyph-name="_535" unicode="&#xf23a;" horiz-adv-x="1792"

d="M597 1115v-1173q0 -25 -12.5 -42.5t-36.5 -17.5q-17 0 -33 8l-465 233q-21 10 -35.5 33.5t-14.5 46.5v1140q0 20 10 34t29 14q14 0 44 -15l511 -256q3 -3 3 -5zM661 1014l534 -866l-534 266v600zM1792 996v-1054q0 -25 -14 -40.5t-38 -15.5t-47 13l-441 220zM1789 1116
q0 -3 -256.5 -419.5t-300.5 -487.5l-390 634l324 527q17 28 52 28q14 0 26 -6l541 -270q4 -2 4 -6z" />
</svg>