<?xml version="1.0" standalone="no"?>
<svg width="1536px" height="1536px" version="1.1" xmlns="http://www.w3.org/2000/svg">
    <path transform="scale(1, -1) translate(0, -1536)" glyph-name="_522" unicode="&#xf22d;" horiz-adv-x="1280"

d="M1024 576q0 185 -131.5 316.5t-316.5 131.5t-316.5 -131.5t-131.5 -316.5t131.5 -316.5t316.5 -131.5t316.5 131.5t131.5 316.5zM1152 576q0 -117 -45.5 -223.5t-123 -184t-184 -123t-223.5 -45.5t-223.5 45.5t-184 123t-123 184t-45.5 223.5t45.5 223.5t123 184t184 123
t223.5 45.5t223.5 -45.5t184 -123t123 -184t45.5 -223.5z" />
</svg>