<?xml version="1.0" standalone="no"?>
<svg width="1536px" height="1536px" version="1.1" xmlns="http://www.w3.org/2000/svg">
    <path transform="scale(1, -1) translate(0, -1536)" glyph-name="_485" unicode="&#xf205;" horiz-adv-x="2048"

d="M0 640q0 130 51 248.5t136.5 204t204 136.5t248.5 51h768q130 0 248.5 -51t204 -136.5t136.5 -204t51 -248.5t-51 -248.5t-136.5 -204t-204 -136.5t-248.5 -51h-768q-130 0 -248.5 51t-204 136.5t-136.5 204t-51 248.5zM1408 128q104 0 198.5 40.5t163.5 109.5
t109.5 163.5t40.5 198.5t-40.5 198.5t-109.5 163.5t-163.5 109.5t-198.5 40.5t-198.5 -40.5t-163.5 -109.5t-109.5 -163.5t-40.5 -198.5t40.5 -198.5t109.5 -163.5t163.5 -109.5t198.5 -40.5z" />
</svg>