<?xml version="1.0" standalone="no"?>
<svg width="1536px" height="1536px" version="1.1" xmlns="http://www.w3.org/2000/svg">
    <path transform="scale(1, -1) translate(0, -1536)" glyph-name="_586" unicode="&#xf271;" horiz-adv-x="1792"

d="M1536 1280q52 0 90 -38t38 -90v-1280q0 -52 -38 -90t-90 -38h-1408q-52 0 -90 38t-38 90v1280q0 52 38 90t90 38h128v96q0 66 47 113t113 47h64q66 0 113 -47t47 -113v-96h384v96q0 66 47 113t113 47h64q66 0 113 -47t47 -113v-96h128zM1152 1376v-288q0 -14 9 -23t23 -9
h64q14 0 23 9t9 23v288q0 14 -9 23t-23 9h-64q-14 0 -23 -9t-9 -23zM384 1376v-288q0 -14 9 -23t23 -9h64q14 0 23 9t9 23v288q0 14 -9 23t-23 9h-64q-14 0 -23 -9t-9 -23zM1536 -128v1024h-1408v-1024h1408zM896 448h224q14 0 23 -9t9 -23v-64q0 -14 -9 -23t-23 -9h-224
v-224q0 -14 -9 -23t-23 -9h-64q-14 0 -23 9t-9 23v224h-224q-14 0 -23 9t-9 23v64q0 14 9 23t23 9h224v224q0 14 9 23t23 9h64q14 0 23 -9t9 -23v-224z" />
</svg>