<?xml version="1.0" standalone="no"?>
<svg width="1536px" height="1536px" version="1.1" xmlns="http://www.w3.org/2000/svg">
    <path transform="scale(1, -1) translate(0, -1536)" glyph-name="_500px" unicode="&#xf26e;" 

d="M1401 -11l-6 -6c-75 -75 -162 -134 -259 -175c-101 -42 -207 -64 -317 -64s-217 22 -317 64c-97 41 -185 100 -259 175c-75 74 -134 161 -175 258c-25 61 -45 124 -54 189v0c-4 28 35 34 48 36c31 5 52 3 56 -20c1 -1 1 -2 1 -4c4 -20 14 -80 46 -159
c33 -82 84 -158 152 -226c65 -65 141 -116 226 -152c87 -37 180 -56 276 -56c95 0 188 19 276 56c84 36 160 87 225 152l6 6c7 7 15 9 25 6c9 -2 20 -10 33 -22v0c32 -33 25 -49 17 -58zM929 604l-66 -66l63 -63c7 -7 20 -22 -7 -49c-11 -11 -22 -17 -32 -17
c-7 0 -13 3 -19 10l-62 61l-66 -66c-2 -2 -7 -5 -15 -5c-9 0 -20 5 -31 16l-2 2c-7 6 -18 17 -18 29c0 6 3 11 8 17l66 65l-66 66c-11 11 -6 25 14 45c12 12 22 18 31 18c5 0 9 -2 13 -5l65 -66l65 65c11 11 29 6 48 -13c12 -12 25 -29 11 -44zM1400 547
c0 -79 -16 -156 -46 -228c-30 -70 -72 -132 -126 -186s-117 -96 -187 -126c-72 -31 -149 -46 -228 -46s-156 15 -228 46c-70 30 -133 72 -187 126s-96 116 -125 186c-6 13 -15 38 -15 40h-1c-9 28 31 40 43 44c29 9 51 13 60 -12c24 -64 61 -126 97 -167h1v339v2
c2 84 37 169 102 232c67 66 157 103 253 103c196 0 355 -158 355 -352c0 -196 -160 -355 -355 -355c-39 0 -68 3 -112 16c-5 2 -28 12 -13 61c4 13 16 51 44 43c2 0 51 -12 77 -12c139 0 248 108 248 246c0 65 -26 126 -72 171c-46 46 -108 71 -175 71
c-69 0 -132 -28 -178 -80c-40 -45 -64 -105 -64 -160v-413c72 -44 155 -67 242 -67c128 0 252 51 341 140c90 90 140 211 140 338c0 128 -50 248 -141 339c-90 90 -210 140 -339 140s-250 -50 -340 -140c-1 -1 -58 -60 -77 -87l-2 -2c-12 -17 -23 -33 -73 -22
c-25 6 -52 21 -52 43v680c0 18 14 38 38 38h877c30 0 30 -42 30 -55c0 -14 0 -55 -30 -55h-811v-483h1c56 59 153 121 210 145c71 30 151 46 231 46c79 0 156 -15 228 -46c70 -30 133 -72 187 -126s96 -116 126 -186c30 -73 46 -149 46 -229zM1369 1128
c19 -17 6 -35 -13 -57c-12 -12 -25 -26 -39 -26c-6 0 -11 2 -16 7c-72 62 -137 104 -207 133c-87 38 -180 56 -276 56c-85 0 -178 -17 -262 -49c-26 -10 -40 24 -45 37c-6 16 -9 29 -8 38c2 10 7 17 16 20c82 36 194 57 299 57c109 0 216 -22 316 -64
c92 -39 167 -87 235 -152z" />
</svg>