<svg width="1536" height="1536" xmlns="http://www.w3.org/2000/svg">
    <path d="M1024 1131c0-155-38-327-196-327-49 28-115 76-188 76s-139-48-188-76c-158 0-196 172-196 327 0 87 57 149 128 149h512c71 0 128-62 128-149zM867 611c0-125-102-227-227-227S413 486 413 611c0 126 102 227 227 227s227-101 227-227zm925 509v-64c0-18-14-32-32-32h-576c-18 0-32 14-32 32v64c0 18 14 32 32 32h576c18 0 32-14 32-32zm0-260v-56c0-20-16-36-36-36h-568c-20 0-36 16-36 36v56c0 20 16 36 36 36h568c20 0 36-16 36-36zm0-252v-64c0-18-14-32-32-32h-576c-18 0-32 14-32 32v64c0 18 14 32 32 32h576c18 0 32-14 32-32zm256-320v1216c0 88-72 160-160 160h-352v-96c0-18-14-32-32-32h-64c-18 0-32 14-32 32v96H640v-96c0-18-14-32-32-32h-64c-18 0-32 14-32 32v96H160c-88 0-160-72-160-160V288c0-88 72-160 160-160h1728c88 0 160 72 160 160z"/>
</svg>
