<svg width="1536" height="1536" xmlns="http://www.w3.org/2000/svg">
    <path d="M1024 1131c0 87-57 149-128 149H384c-71 0-128-62-128-149 0-155 38-327 196-327 49 28 115 76 188 76s139-48 188-76c158 0 196 172 196 327zM867 611c0 126-102 227-227 227S413 737 413 611c0-125 102-227 227-227s227 102 227 227zm925 445v64c0 18-14 32-32 32h-576c-18 0-32-14-32-32v-64c0-18 14-32 32-32h576c18 0 32 14 32 32zm0-252v56c0 20-16 36-36 36h-568c-20 0-36-16-36-36v-56c0-20 16-36 36-36h568c20 0 36 16 36 36zm0-260v64c0 18-14 32-32 32h-576c-18 0-32-14-32-32v-64c0-18 14-32 32-32h576c18 0 32 14 32 32zm128 960V288c0-17-15-32-32-32H160c-17 0-32 15-32 32v1216c0 17 15 32 32 32h352v-96c0-18 14-32 32-32h64c18 0 32 14 32 32v96h768v-96c0-18 14-32 32-32h64c18 0 32 14 32 32v96h352c17 0 32-15 32-32zm128-1216v1216c0 88-72 160-160 160H160c-88 0-160-72-160-160V288c0-88 72-160 160-160h1728c88 0 160 72 160 160z"/>
</svg>
