<?xml version="1.0" standalone="no"?>
<svg width="1536px" height="1536px" version="1.1" xmlns="http://www.w3.org/2000/svg">
    <path transform="scale(1, -1) translate(0, -1536)" glyph-name="address_book_o" unicode="&#xf2ba;" horiz-adv-x="1664" 

d="M1028 892c0 -143 -117 -259 -260 -259s-260 116 -260 259c0 144 117 260 260 260s260 -116 260 -260zM980 672c191 0 221 -227 221 -374c0 -84 -53 -170 -145 -170h-576c-92 0 -145 86 -145 170c0 141 30 374 216 374h5c66 -39 133 -87 212 -87s146 48 212 87zM1664 928
c0 -17 -15 -32 -32 -32h-96v-128h96c17 0 32 -15 32 -32v-192c0 -17 -15 -32 -32 -32h-96v-128h96c17 0 32 -15 32 -32v-192c0 -17 -15 -32 -32 -32h-96v-224c0 -88 -72 -160 -160 -160h-1216c-88 0 -160 72 -160 160v1472c0 88 72 160 160 160h1216c88 0 160 -72 160 -160
v-224h96c17 0 32 -15 32 -32v-192zM1408 -96v1472c0 17 -15 32 -32 32h-1216c-17 0 -32 -15 -32 -32v-1472c0 -17 15 -32 32 -32h1216c17 0 32 15 32 32z" />
</svg>