<svg width="1536" height="1536" xmlns="http://www.w3.org/2000/svg">
    <path d="M1028 644c0 143-117 259-260 259S508 787 508 644c0-144 117-260 260-260s260 116 260 260zm-48 220c191 0 221 227 221 374 0 84-53 170-145 170H480c-92 0-145-86-145-170 0-141 30-374 216-374h5c66 39 133 87 212 87s146-48 212-87zm684-256c0 17-15 32-32 32h-96v128h96c17 0 32 15 32 32v192c0 17-15 32-32 32h-96v128h96c17 0 32 15 32 32v192c0 17-15 32-32 32h-96v224c0 88-72 160-160 160H160c-88 0-160-72-160-160V160C0 72 72 0 160 0h1216c88 0 160 72 160 160v224h96c17 0 32 15 32 32v192zm-256 1024V160c0-17-15-32-32-32H160c-17 0-32 15-32 32v1472c0 17 15 32 32 32h1216c17 0 32-15 32-32z"/>
</svg>
