<?xml version="1.0" standalone="no"?>
<svg width="1536px" height="1536px" version="1.1" xmlns="http://www.w3.org/2000/svg">
    <path transform="scale(1, -1) translate(0, -1536)" glyph-name="address_book" unicode="&#xf2b9;" horiz-adv-x="1664" 

d="M1201 298c0 177 -43 374 -221 374c-55 -32 -130 -87 -212 -87s-157 55 -212 87c-178 0 -221 -197 -221 -374c0 -99 65 -170 145 -170h576c80 0 145 71 145 170zM1028 892c0 144 -117 260 -260 260s-260 -116 -260 -260c0 -143 117 -259 260 -259s260 116 260 259z
M1664 352v-192c0 -18 -14 -32 -32 -32h-96v-224c0 -88 -72 -160 -160 -160h-1216c-88 0 -160 72 -160 160v1472c0 88 72 160 160 160h1216c88 0 160 -72 160 -160v-224h96c18 0 32 -14 32 -32v-192c0 -18 -14 -32 -32 -32h-96v-128h96c18 0 32 -14 32 -32v-192
c0 -18 -14 -32 -32 -32h-96v-128h96c18 0 32 -14 32 -32z" />
</svg>