<?xml version="1.0" standalone="no"?>
<svg width="1536px" height="1536px" version="1.1" xmlns="http://www.w3.org/2000/svg">
    <path transform="scale(1, -1) translate(0, -1536)" glyph-name="address_card" unicode="&#xf2bb;" horiz-adv-x="2048" 

d="M1024 405c0 155 -38 327 -196 327c-49 -28 -115 -76 -188 -76s-139 48 -188 76c-158 0 -196 -172 -196 -327c0 -87 57 -149 128 -149h512c71 0 128 62 128 149zM867 925c0 125 -102 227 -227 227s-227 -102 -227 -227c0 -126 102 -227 227 -227s227 101 227 227z
M1792 416v64c0 18 -14 32 -32 32h-576c-18 0 -32 -14 -32 -32v-64c0 -18 14 -32 32 -32h576c18 0 32 14 32 32zM1792 676v56c0 20 -16 36 -36 36h-568c-20 0 -36 -16 -36 -36v-56c0 -20 16 -36 36 -36h568c20 0 36 16 36 36zM1792 928v64c0 18 -14 32 -32 32h-576
c-18 0 -32 -14 -32 -32v-64c0 -18 14 -32 32 -32h576c18 0 32 14 32 32zM2048 1248v-1216c0 -88 -72 -160 -160 -160h-352v96c0 18 -14 32 -32 32h-64c-18 0 -32 -14 -32 -32v-96h-768v96c0 18 -14 32 -32 32h-64c-18 0 -32 -14 -32 -32v-96h-352c-88 0 -160 72 -160 160
v1216c0 88 72 160 160 160h1728c88 0 160 -72 160 -160z" />
</svg>