<svg width="1536" height="1536" xmlns="http://www.w3.org/2000/svg">
    <path d="M1201 1238c0-177-43-374-221-374-55 32-130 87-212 87s-157-55-212-87c-178 0-221 197-221 374 0 99 65 170 145 170h576c80 0 145-71 145-170zm-173-594c0-144-117-260-260-260S508 500 508 644c0 143 117 259 260 259s260-116 260-259zm636 540v192c0 18-14 32-32 32h-96v224c0 88-72 160-160 160H160c-88 0-160-72-160-160V160C0 72 72 0 160 0h1216c88 0 160 72 160 160v224h96c18 0 32 14 32 32v192c0 18-14 32-32 32h-96v128h96c18 0 32 14 32 32v192c0 18-14 32-32 32h-96v128h96c18 0 32 14 32 32z"/>
</svg>
