<?xml version="1.0" standalone="no"?>
<svg width="1536px" height="1536px" version="1.1" xmlns="http://www.w3.org/2000/svg">
    <path transform="scale(1, -1) translate(0, -1536)" glyph-name="address_card_o" unicode="&#xf2bc;" horiz-adv-x="2048" 

d="M1024 405c0 -87 -57 -149 -128 -149h-512c-71 0 -128 62 -128 149c0 155 38 327 196 327c49 -28 115 -76 188 -76s139 48 188 76c158 0 196 -172 196 -327zM867 925c0 -126 -102 -227 -227 -227s-227 101 -227 227c0 125 102 227 227 227s227 -102 227 -227zM1792 480
v-64c0 -18 -14 -32 -32 -32h-576c-18 0 -32 14 -32 32v64c0 18 14 32 32 32h576c18 0 32 -14 32 -32zM1792 732v-56c0 -20 -16 -36 -36 -36h-568c-20 0 -36 16 -36 36v56c0 20 16 36 36 36h568c20 0 36 -16 36 -36zM1792 992v-64c0 -18 -14 -32 -32 -32h-576
c-18 0 -32 14 -32 32v64c0 18 14 32 32 32h576c18 0 32 -14 32 -32zM1920 32v1216c0 17 -15 32 -32 32h-1728c-17 0 -32 -15 -32 -32v-1216c0 -17 15 -32 32 -32h352v96c0 18 14 32 32 32h64c18 0 32 -14 32 -32v-96h768v96c0 18 14 32 32 32h64c18 0 32 -14 32 -32v-96h352
c17 0 32 15 32 32zM2048 1248v-1216c0 -88 -72 -160 -160 -160h-1728c-88 0 -160 72 -160 160v1216c0 88 72 160 160 160h1728c88 0 160 -72 160 -160z" />
</svg>