<?xml version="1.0" standalone="no"?>
<svg width="1536px" height="1536px" version="1.1" xmlns="http://www.w3.org/2000/svg">
    <path transform="scale(1, -1) translate(0, -1536)" glyph-name="align_center" unicode="&#xf037;" horiz-adv-x="1792" 

d="M1792 192v-128c0 -35 -29 -64 -64 -64h-1664c-35 0 -64 29 -64 64v128c0 35 29 64 64 64h1664c35 0 64 -29 64 -64zM1408 576v-128c0 -35 -29 -64 -64 -64h-896c-35 0 -64 29 -64 64v128c0 35 29 64 64 64h896c35 0 64 -29 64 -64zM1664 960v-128c0 -35 -29 -64 -64 -64
h-1408c-35 0 -64 29 -64 64v128c0 35 29 64 64 64h1408c35 0 64 -29 64 -64zM1280 1344v-128c0 -35 -29 -64 -64 -64h-640c-35 0 -64 29 -64 64v128c0 35 29 64 64 64h640c35 0 64 -29 64 -64z" />
</svg>