<?xml version="1.0" standalone="no"?>
<svg width="1536px" height="1536px" version="1.1" xmlns="http://www.w3.org/2000/svg">
    <path transform="scale(1, -1) translate(0, -1536)" glyph-name="amazon" unicode="&#xf270;" horiz-adv-x="1792" 

d="M1551 60c30 15 53 -8 22 -48s-280 -268 -698 -268s-738 286 -836 404c-27 31 4 45 22 33c293 -178 751 -471 1490 -121zM1758 175c15 -20 0 -108 -26 -172c-26 -63 -64 -107 -85 -124c-22 -18 -38 -11 -26 15s77 186 51 220c-26 33 -148 17 -192 13c-43 -4 -52 -8 -56 1
c-9 23 87 62 150 70c63 7 164 3 184 -23zM1364 618c0 -110 129 -211 129 -211l-227 -224c-89 84 -156 154 -156 154c-10 10 -18 22 -25 33c-181 -283 -734 -265 -734 173c0 408 483 463 678 470v127c0 27 10 150 -142 150c0 0 -152 0 -217 -198l-294 27
c0 197 187 417 539 417c351 0 449 -228 449 -329v-589zM692 597c0 -203 337 -251 337 69v162c-135 -4 -337 -42 -337 -231z" />
</svg>