<svg width="1536" height="1536" xmlns="http://www.w3.org/2000/svg">
    <path d="M1551 1476c30-15 53 8 22 48s-280 268-698 268-738-286-836-404c-27-31 4-45 22-33 293 178 751 471 1490 121zm207-115c15 20 0 108-26 172-26 63-64 107-85 124-22 18-38 11-26-15s77-186 51-220c-26-33-148-17-192-13-43 4-52 8-56-1-9-23 87-62 150-70 63-7 164-3 184 23zm-394-443c0 110 129 211 129 211l-227 224c-89-84-156-154-156-154-10-10-18-22-25-33-181 283-734 265-734-173 0-408 483-463 678-470V396c0-27 10-150-142-150 0 0-152 0-217 198l-294-27C376 220 563 0 915 0c351 0 449 228 449 329v589zm-672 21c0 203 337 251 337-69V708c-135 4-337 42-337 231z"/>
</svg>
