<?xml version="1.0" standalone="no"?>
<svg width="1536px" height="1536px" version="1.1" xmlns="http://www.w3.org/2000/svg">
    <path transform="scale(1, -1) translate(0, -1536)" glyph-name="ambulance" unicode="&#xf0f9;" horiz-adv-x="1920" 

d="M640 128c0 71 -57 128 -128 128s-128 -57 -128 -128s57 -128 128 -128s128 57 128 128zM256 640h384v256h-158c-6 -1 -17 -5 -22 -9l-195 -195c-3 -5 -8 -16 -9 -22v-30zM1536 128c0 71 -57 128 -128 128s-128 -57 -128 -128s57 -128 128 -128s128 57 128 128zM1664 800
v192c0 18 -14 32 -32 32h-224v224c0 18 -14 32 -32 32h-192c-18 0 -32 -14 -32 -32v-224h-224c-18 0 -32 -14 -32 -32v-192c0 -18 14 -32 32 -32h224v-224c0 -18 14 -32 32 -32h192c18 0 32 14 32 32v224h224c18 0 32 14 32 32zM1920 1344v-1152c0 -35 -29 -64 -64 -64h-192
c0 -141 -114 -256 -256 -256c-141 0 -256 115 -256 256h-384c0 -141 -114 -256 -256 -256s-256 115 -256 256h-128c-35 0 -64 29 -64 64s29 64 64 64v416c0 35 20 84 45 109l198 198c25 25 74 45 109 45h160v320c0 35 29 64 64 64h1152c35 0 64 -29 64 -64z" />
</svg>