<svg width="1536" height="1536" xmlns="http://www.w3.org/2000/svg">
    <path d="M640 1408c0-71-57-128-128-128s-128 57-128 128 57 128 128 128 128-57 128-128zM256 896h384V640H482c-6 1-17 5-22 9L265 844c-3 5-8 16-9 22v30zm1280 512c0-71-57-128-128-128s-128 57-128 128 57 128 128 128 128-57 128-128zm128-672V544c0-18-14-32-32-32h-224V288c0-18-14-32-32-32h-192c-18 0-32 14-32 32v224H928c-18 0-32 14-32 32v192c0 18 14 32 32 32h224v224c0 18 14 32 32 32h192c18 0 32-14 32-32V768h224c18 0 32-14 32-32zm256-544v1152c0 35-29 64-64 64h-192c0 141-114 256-256 256-141 0-256-115-256-256H768c0 141-114 256-256 256s-256-115-256-256H128c-35 0-64-29-64-64s29-64 64-64V864c0-35 20-84 45-109l198-198c25-25 74-45 109-45h160V192c0-35 29-64 64-64h1152c35 0 64 29 64 64z"/>
</svg>
