<svg width="1536" height="1536" xmlns="http://www.w3.org/2000/svg">
    <path d="M1032 960c-35-1-68-21-84-55-22-45-66-73-116-73-71 0-128 57-128 128 0 34 12 67 36 89l10 8c22 20 51 31 82 31 50 0 94-28 116-73 16-34 49-54 84-55zm568-128c0-34-12-67-36-89l-10-8c-22-20-51-31-82-31-50 0-94 28-116 73-16 34-49 54-84 55 35 1 68 21 84 55 22 45 66 73 116 73 71 0 128-57 128-128zm-426-221c-23 47-81 67-128 44-42-21-87-31-134-31-35 0-68 6-99 17 6 0 13-1 19-1 123 0 236 72 289 183 23 48 2 105-46 128-12 6-25 9-39 9 14 0 27 3 39 9 48 23 69 80 46 128-53 111-166 183-289 183h-6c-15-2-29-3-44-4l-290-27-239 120c-10 5-19 7-29 7-23 0-46-13-57-35L7 1021c-15-31-4-68 25-85l209-119 148-267c23-206 125-395 287-528 41-34 102-28 135 13 34 41 28 101-13 135-45 38-85 81-117 128 78-53 168-89 267-101 53-7 101 30 107 83 7 53-30 101-83 107-58 7-112 27-159 55 32-7 65-10 99-10 76 0 150 17 218 50 48 24 68 81 44 129zm963-160l160 320c15 31 4 68-25 85l-209 119-148 267c-23 206-125 395-287 528-18 15-40 22-61 22-28 0-55-12-74-35-34-41-28-101 13-135 45-38 85-81 117-128-78 53-168 89-267 101-4 1-8 1-12 1-48 0-89-36-95-84-7-53 30-101 83-107 58-7 112-27 159-55-32 7-65 10-99 10-76 0-150-17-218-50-48-24-68-81-44-129 23-47 81-67 128-44 42 21 87 31 134 31 35 0 68-6 99-17-6 0-13 1-19 1-123 0-236-72-289-183-23-48-2-105 46-128 12-6 25-9 39-9-14 0-27-3-39-9-48-23-69-80-46-128 53-111 166-183 289-183h7c14 2 28 3 42 4l291 27 239-120c10-5 19-7 29-7 23 0 46 13 57 35z"/>
</svg>
