<?xml version="1.0" standalone="no"?>
<svg width="1536px" height="1536px" version="1.1" xmlns="http://www.w3.org/2000/svg">
    <path transform="scale(1, -1) translate(0, -1536)" glyph-name="american_sign_language_interp" unicode="&#xf2a3;" horiz-adv-x="2304" 

d="M1032 576c-35 1 -68 21 -84 55c-22 45 -66 73 -116 73c-71 0 -128 -57 -128 -128c0 -34 12 -67 36 -89l10 -8c22 -20 51 -31 82 -31c50 0 94 28 116 73c16 34 49 54 84 55zM1600 704c0 34 -12 67 -36 89l-10 8c-22 20 -51 31 -82 31c-50 0 -94 -28 -116 -73
c-16 -34 -49 -54 -84 -55c35 -1 68 -21 84 -55c22 -45 66 -73 116 -73c71 0 128 57 128 128zM1174 925c-23 -47 -81 -67 -128 -44c-42 21 -87 31 -134 31c-35 0 -68 -6 -99 -17c6 0 13 1 19 1c123 0 236 -72 289 -183c23 -48 2 -105 -46 -128c-12 -6 -25 -9 -39 -9
c14 0 27 -3 39 -9c48 -23 69 -80 46 -128c-53 -111 -166 -183 -289 -183v0h-6v0c-15 2 -29 3 -44 4l-290 27l-239 -120c-10 -5 -19 -7 -29 -7c-23 0 -46 13 -57 35l-160 320c-15 31 -4 68 25 85l209 119l148 267c23 206 125 395 287 528c41 34 102 28 135 -13
c34 -41 28 -101 -13 -135c-45 -38 -85 -81 -117 -128c78 53 168 89 267 101c53 7 101 -30 107 -83c7 -53 -30 -101 -83 -107c-58 -7 -112 -27 -159 -55c32 7 65 10 99 10c76 0 150 -17 218 -50c48 -24 68 -81 44 -129zM2137 1085l160 -320c15 -31 4 -68 -25 -85l-209 -119
l-148 -267c-23 -206 -125 -395 -287 -528c-18 -15 -40 -22 -61 -22c-28 0 -55 12 -74 35c-34 41 -28 101 13 135c45 38 85 81 117 128c-78 -53 -168 -89 -267 -101c-4 -1 -8 -1 -12 -1c-48 0 -89 36 -95 84c-7 53 30 101 83 107c58 7 112 27 159 55c-32 -7 -65 -10 -99 -10
c-76 0 -150 17 -218 50c-48 24 -68 81 -44 129c23 47 81 67 128 44c42 -21 87 -31 134 -31c35 0 68 6 99 17c-6 0 -13 -1 -19 -1c-123 0 -236 72 -289 183c-23 48 -2 105 46 128c12 6 25 9 39 9c-14 0 -27 3 -39 9c-48 23 -69 80 -46 128c53 111 166 183 289 183v0h6h1
c14 -2 28 -3 42 -4l291 -27l239 120c10 5 19 7 29 7c23 0 46 -13 57 -35z" />
</svg>