<svg width="1536" height="1536" xmlns="http://www.w3.org/2000/svg">
    <path d="M960 256c0-35-29-64-64-64s-64 29-64 64 29 64 64 64 64-29 64-64zm832 928v352c0 13-8 25-20 30-4 1-8 2-12 2-8 0-16-3-23-9l-93-93c-157 189-439 310-748 310s-591-121-748-310l-93 93c-6 6-15 9-23 9-4 0-8-1-12-2-12-5-20-17-20-30v-352c0-18 14-32 32-32h352c13 0 25 8 30 20s2 25-7 35l-100 100c90 121 263 209 461 236V896H576c-35 0-64-29-64-64V704c0-35 29-64 64-64h192V477c-76-44-128-126-128-221C640 115 755 0 896 0s256 115 256 256c0 95-52 177-128 221v163h192c35 0 64 29 64 64v128c0 35-29 64-64 64h-192v647c198-27 371-115 461-236l-100-100c-9-10-12-23-7-35s17-20 30-20h352c18 0 32 14 32 32z"/>
</svg>
