<svg width="1536" height="1536" xmlns="http://www.w3.org/2000/svg">
    <path d="M493 483c22 0 39-18 39-39s-17-39-39-39c-21 0-38 18-38 39s17 39 38 39zm422 0c21 0 38-18 38-39s-17-39-38-39c-22 0-39 18-39 39s17 39 39 39zM103 667c56 0 102 46 102 102v430c0 57-45 103-102 103S0 1256 0 1199V769c0-56 46-102 103-102zm1060 19v666c0 61-49 110-109 110h-75v227c0 57-46 103-103 103s-103-46-103-103v-227H635v227c0 57-46 103-103 103-56 0-102-46-102-103l-1-227h-74c-61 0-110-49-110-110V686h918zM931 281c140 72 235 210 235 369H241c0-159 95-297 236-369l-71-131c-4-7-2-16 5-20 7-3 16-1 20 6l72 132c61-27 129-42 201-42s140 15 201 42l72-132c4-7 13-9 20-6 7 4 9 13 5 20zm477 488v430c0 57-46 103-103 103-56 0-102-46-102-103V769c0-57 46-102 102-102 57 0 103 45 103 102z"/>
</svg>
