<?xml version="1.0" standalone="no"?>
<svg width="1536px" height="1536px" version="1.1" xmlns="http://www.w3.org/2000/svg">
    <path transform="scale(1, -1) translate(0, -1536)" glyph-name="android" unicode="&#xf17b;" horiz-adv-x="1408" 

d="M493 1053c22 0 39 18 39 39s-17 39 -39 39c-21 0 -38 -18 -38 -39s17 -39 38 -39zM915 1053c21 0 38 18 38 39s-17 39 -38 39c-22 0 -39 -18 -39 -39s17 -39 39 -39zM103 869c56 0 102 -46 102 -102v-430c0 -57 -45 -103 -102 -103s-103 46 -103 103v430
c0 56 46 102 103 102zM1163 850v-666c0 -61 -49 -110 -109 -110h-75v-227c0 -57 -46 -103 -103 -103s-103 46 -103 103v227h-138v-227c0 -57 -46 -103 -103 -103c-56 0 -102 46 -102 103l-1 227h-74c-61 0 -110 49 -110 110v666h918zM931 1255c140 -72 235 -210 235 -369
h-925c0 159 95 297 236 369l-71 131c-4 7 -2 16 5 20c7 3 16 1 20 -6l72 -132c61 27 129 42 201 42s140 -15 201 -42l72 132c4 7 13 9 20 6c7 -4 9 -13 5 -20zM1408 767v-430c0 -57 -46 -103 -103 -103c-56 0 -102 46 -102 103v430c0 57 46 102 102 102
c57 0 103 -45 103 -102z" />
</svg>