<svg width="1536" height="1536" xmlns="http://www.w3.org/2000/svg">
    <path d="M953 378L839 706l117 21c30-82 165-451 165-518 0-25-8-56-38-56-56 0-116 182-130 225zm-299 687c11 29 23 58 33 88 22-25 45-48 71-67-35-7-70-10-104-21zM362 169c0 102 121 420 159 521 14-8 32-10 49-10 24 0 51 3 75 5L524 334c-13-38-71-220-123-220-27 0-39 32-39 55zm-79 759c0 73 196 342 269 342 20 0 37-22 37-40 0-23-23-80-32-102-26-67-121-274-203-274-27 0-71 47-71 74zm-158 335c0 36 12 71 25 104 79 195 257 309 465 309 152 0 280-58 382-170 108-120 152-268 152-427 0-56 1-145-43-185-84-74-369-102-482-102-14 0-38 1-49 11-12 5-12 24-12 35 0 153 323 139 420 139 19 0 28 5 40 19 13 16 17 35 19 55-26 26-62 41-96 54-33 12-65 25-93 46-77 56-153 152-153 251 0 62 37 115 37 176 0 1-7 23-7 26-114-8-142-121-146-216-12 3-28 2-41 2 2 7 2 14 2 21 0 73-65 126-135 126-108 0-251-127-251-237 0-30 13-47 33-67 20 25 41 50 60 76 29 39 79 104 133 104 14 0 41-12 41-29 0-45-164-256-204-256-63 0-97 83-97 135zm-114 9c0-130 50-216 179-251-11-29-28-73-28-104 0-82 101-184 183-184 24 0 48 7 70 15-42-119-163-454-163-567C252 80 303 0 412 0c140 0 299 504 333 604 44-110 182-571 338-571 98 0 153 78 153 171 0 106-118 436-159 550 168 41 192 177 192 328 0 400-255 710-668 710-76 0-151-15-223-42-190-72-367-267-367-478z"/>
</svg>
