<?xml version="1.0" standalone="no"?>
<svg width="1536px" height="1536px" version="1.1" xmlns="http://www.w3.org/2000/svg">
    <path transform="scale(1, -1) translate(0, -1536)" glyph-name="argellist" unicode="&#xf209;" horiz-adv-x="1280" 

d="M953 1158l-114 -328l117 -21c30 82 165 451 165 518c0 25 -8 56 -38 56c-56 0 -116 -182 -130 -225zM654 471c11 -29 23 -58 33 -88c22 25 45 48 71 67c-35 7 -70 10 -104 21zM362 1367c0 -102 121 -420 159 -521c14 8 32 10 49 10c24 0 51 -3 75 -5l-121 351
c-13 38 -71 220 -123 220c-27 0 -39 -32 -39 -55zM283 608c0 -73 196 -342 269 -342c20 0 37 22 37 40c0 23 -23 80 -32 102c-26 67 -121 274 -203 274c-27 0 -71 -47 -71 -74zM125 273c0 -36 12 -71 25 -104c79 -195 257 -309 465 -309c152 0 280 58 382 170
c108 120 152 268 152 427c0 56 1 145 -43 185c-84 74 -369 102 -482 102c-14 0 -38 -1 -49 -11c-12 -5 -12 -24 -12 -35c0 -153 323 -139 420 -139c19 0 28 -5 40 -19c13 -16 17 -35 19 -55c-26 -26 -62 -41 -96 -54c-33 -12 -65 -25 -93 -46c-77 -56 -153 -152 -153 -251
c0 -62 37 -115 37 -176c0 -1 -7 -23 -7 -26c-114 8 -142 121 -146 216c-12 -3 -28 -2 -41 -2c2 -7 2 -14 2 -21c0 -73 -65 -126 -135 -126c-108 0 -251 127 -251 237c0 30 13 47 33 67c20 -25 41 -50 60 -76c29 -39 79 -104 133 -104c14 0 41 12 41 29
c0 45 -164 256 -204 256c-63 0 -97 -83 -97 -135zM11 264c0 130 50 216 179 251c-11 29 -28 73 -28 104c0 82 101 184 183 184c24 0 48 -7 70 -15c-42 119 -163 454 -163 567c0 101 51 181 160 181c140 0 299 -504 333 -604c44 110 182 571 338 571c98 0 153 -78 153 -171
c0 -106 -118 -436 -159 -550c168 -41 192 -177 192 -328c0 -400 -255 -710 -668 -710c-76 0 -151 15 -223 42c-190 72 -367 267 -367 478z" />
</svg>