<?xml version="1.0" standalone="no"?>
<svg width="1536px" height="1536px" version="1.1" xmlns="http://www.w3.org/2000/svg">
    <path transform="scale(1, -1) translate(0, -1536)" glyph-name="angle_double_right" unicode="&#xf101;" horiz-adv-x="1024" 

d="M595 576c0 -8 -4 -17 -10 -23l-466 -466c-6 -6 -15 -10 -23 -10s-17 4 -23 10l-50 50c-6 6 -10 15 -10 23s4 17 10 23l393 393l-393 393c-6 6 -10 15 -10 23s4 17 10 23l50 50c6 6 15 10 23 10s17 -4 23 -10l466 -466c6 -6 10 -15 10 -23zM979 576c0 -8 -4 -17 -10 -23
l-466 -466c-6 -6 -15 -10 -23 -10s-17 4 -23 10l-50 50c-6 6 -10 15 -10 23s4 17 10 23l393 393l-393 393c-6 6 -10 15 -10 23s4 17 10 23l50 50c6 6 15 10 23 10s17 -4 23 -10l466 -466c6 -6 10 -15 10 -23z" />
</svg>