<svg width="1536" height="1536" xmlns="http://www.w3.org/2000/svg">
    <path d="M1393 1215c-25 79-65 163-123 250-86 131-172 196-257 196-34 0-80-11-140-32-59-22-110-32-151-32-40 0-88 11-142 33-55 23-99 34-132 34-103 0-202-87-301-259C50 1233 0 1066 0 902c0-153 38-277 113-374 75-96 169-144 284-144 49 0 107 10 177 30 69 20 115 30 138 30 29 0 77-11 143-34 66-22 124-34 173-34 80 0 151 22 213 65 35 24 70 58 104 100-52 44-90 83-114 118-43 62-65 131-65 207 0 82 23 157 69 223s99 108 158 126zM1017 42c0 41-10 87-29 136-20 50-51 96-93 138-36 36-72 60-108 72-23 7-57 13-104 17 2-99 28-185 78-257S895 27 1011 0c2 9 4 16 5 22 0 7 1 13 1 20z"/>
</svg>
