<?xml version="1.0" standalone="no"?>
<svg width="1536px" height="1536px" version="1.1" xmlns="http://www.w3.org/2000/svg">
    <path transform="scale(1, -1) translate(0, -1536)" glyph-name="apple" unicode="&#xf179;" horiz-adv-x="1408" 

d="M1393 321c-25 -79 -65 -163 -123 -250c-86 -131 -172 -196 -257 -196c-34 0 -80 11 -140 32c-59 22 -110 32 -151 32c-40 0 -88 -11 -142 -33c-55 -23 -99 -34 -132 -34c-103 0 -202 87 -301 259c-97 172 -147 339 -147 503c0 153 38 277 113 374c75 96 169 144 284 144
c49 0 107 -10 177 -30c69 -20 115 -30 138 -30c29 0 77 11 143 34c66 22 124 34 173 34c80 0 151 -22 213 -65c35 -24 70 -58 104 -100c-52 -44 -90 -83 -114 -118c-43 -62 -65 -131 -65 -207c0 -82 23 -157 69 -223s99 -108 158 -126zM1017 1494c0 -41 -10 -87 -29 -136
c-20 -50 -51 -96 -93 -138c-36 -36 -72 -60 -108 -72c-23 -7 -57 -13 -104 -17c2 99 28 185 78 257s134 121 250 148c2 -9 4 -16 5 -22c0 -7 1 -13 1 -20z" />
</svg>