<svg xmlns="http://www.w3.org/2000/svg" width="1536" height="1792" viewBox="0 0 1536 1792">
    <path d="M1459.099 192l-27.234 53.033H47.295L22.93 192 739.58 2.804zm-28.665 107.498H50.164V438.53h1380.27zm-173.43 794.05l4.3 133.297q5.734 113.232 10.035 164.832 0 7.166.718 9.317.718 2.15 2.867 2.866 2.149.717 10.75 2.15 61.633 15.767 123.264-1.433 31.534-428.557 0-915.881-67.366-14.334-137.597 0 0 4.299-.718 10.034-.718 5.736-.718 7.168-1.434 37.267-5.017 107.498t-5.017 103.197q0 21.501-2.867 91.73-2.867 70.23-2.867 107.499-1.432 80.265 2.867 177.727zM80.265 1166.644v24.368q1.433 14.333 1.433 40.132 1.434 8.598 1.434 25.084 0 16.485 1.434 25.084 0 8.598.717 24.367.716 15.77.716 24.368 1.434 7.166 1.434 20.067 0 4.3.716 12.901.717 8.602.717 14.334 1.434 7.167 1.434 25.798 0 4.299 5.733 4.299 2.867 1.434 14.334 5.017 11.466 3.583 17.2 5.017 53.033 4.3 94.597-8.598 5.733-1.432 5.733-5.733 0-20.067 2.867-60.199 5.733-123.264 7.168-193.497 0-10.034 4.299-206.396-1.433-27.234-2.15-83.847-.719-56.612-.717-85.282.002-28.67-2.15-88.15-2.153-59.478-3.583-89.581-2.867-34.4-5.734-97.466 0-5.733-2.866-5.733-14.334-5.734-31.532-8.598-53.033-7.168-96.033 7.167-7.168 1.433-7.168 7.166-1.434 7.168-1.434 24.368-1.433 10.032-1.433 27.234-1.434 8.598-1.434 27.235-1.432 2.866-1.432 12.9 0 5.734-.717 17.917-.716 12.183-.718 16.482 0 15.768-1.434 25.799 0 22.933-2.867 71.663 0 30.1-2.866 87.433v219.296q1.434 18.634 1.434 57.332 0 7.167.718 21.5.718 14.334.718 21.5 0 24.368 1.434 37.267zm384.124 114.662l2.867 48.732q0 14.333 2.866 20.067 0 17.2 1.433 27.232 0 15.766 1.434 25.799 0 4.299 2.867 4.299 2.866 1.432 10.034 3.583 7.168 2.15 12.901 4.3 5.734 2.151 11.467 2.151 53.033 5.734 91.73-8.598 7.168-1.432 7.168-5.733 2.867-40.132 2.867-60.199 5.733-123.264 7.167-193.497 1.433-34.4 2.15-102.48.719-68.082.719-103.914 0-51.599-2.867-169.13l-4.299-177.727-4.3-97.465q0-5.734-5.732-5.734-14.334-5.733-31.532-8.598-51.599-7.168-96.033 7.168-5.734 1.432-5.734 7.165l-1.432 24.368q0 5.734-1.433 14.334-1.432 8.6-1.432 12.9 0 4.302-.718 12.902t-.718 14.333v12.901q-1.433 11.467-1.433 34.4-1.434 8.599-1.434 25.799-2.867 45.865-2.867 71.663-2.866 60.199-2.866 87.434-1.433 21.499-1.433 61.632V973.16q0 8.598.718 27.235.718 18.636.718 28.665 0 37.267 1.435 57.332v42.998q1.432 12.901 1.432 37.267 0 17.2 1.433 24.368 0 25.798 1.434 40.132 0 8.598.718 25.084.718 16.485.718 25.084zm581.92-706.616l-4.3-75.966q0-5.734-4.299-5.734-14.333-5.733-32.968-8.598-51.598-7.166-94.598 7.168-5.734 1.434-5.734 7.166-5.733 67.366-8.598 139.031-5.733 159.099-7.166 242.23-1.432 1.433 0 70.232v67.366q0 20.067 1.434 60.199 1.435 40.132 1.433 60.199 1.434 27.232 3.583 77.398 2.148 50.167 2.15 73.1 1.433 20.067 4.3 57.332 2.866 37.265 2.866 55.9 0 5.733 4.3 5.733 1.433 0 13.615 4.3 12.18 4.298 19.348 5.732 53.033 4.3 93.165-8.598 7.168-1.432 7.168-5.733 1.432-11.467 1.432-35.835 0-24.367 1.432-35.834 5.734-131.862 7.166-199.23 1.435-31.532 2.15-93.881.717-62.35.719-95.314 0-40.132-2.867-140.464 0-37.267-2.15-113.231-2.15-75.965-3.583-114.664zm-986.11 978.946H1450.5v-97.466H60.199zM0 1664h1506.4v-73.1H0z" fill="currentColor"/>
</svg>
