<?xml version="1.0" standalone="no"?>
<svg width="1536px" height="1536px" version="1.1" xmlns="http://www.w3.org/2000/svg">
    <path transform="scale(1, -1) translate(0, -1536)" glyph-name="archive" unicode="&#xf187;" horiz-adv-x="1792" 

d="M1088 704c0 35 -29 64 -64 64h-256c-35 0 -64 -29 -64 -64s29 -64 64 -64h256c35 0 64 29 64 64zM1664 896v-960c0 -35 -29 -64 -64 -64h-1408c-35 0 -64 29 -64 64v960c0 35 29 64 64 64h1408c35 0 64 -29 64 -64zM1728 1344v-256c0 -35 -29 -64 -64 -64h-1536
c-35 0 -64 29 -64 64v256c0 35 29 64 64 64h1536c35 0 64 -29 64 -64z" />
</svg>