<svg width="1536" height="1536" viewBox="0 0 1536 1536" xmlns="http://www.w3.org/2000/svg">
    <path d="M 1707.7433,972.16326 1470.106,785.40072 c -14.5452,-11.39907 -14.5452,-30.11653 0,-41.54985 l 237.6488,-186.71745 c 14.5908,-11.4219 20.6893,-30.72052 13.565,-42.8606 -7.1359,-12.10585 -27.0616,-16.41478 -44.2287,-9.57524 l -282.584,112.55486 c -17.1784,6.90776 -33.3651,-2.50792 -35.9414,-20.86042 l -42.4958,-301.6775 c -2.6219,-18.34116 -16.4148,-33.3538 -30.6979,-33.3538 -14.2147,0 -27.9962,15.01264 -30.5496,33.34239 l -42.5187,301.70032 c -2.5989,18.35251 -18.763,27.74549 -35.9642,20.86042 L 898.42927,506.57837 c -17.23546,-6.86221 -45.31148,-6.86221 -62.50134,0 L 557.97199,617.26385 c -17.18986,6.88507 -33.3766,-2.50791 -35.9528,-20.86042 L 479.5575,294.70311 c -2.6218,-18.32975 -16.39193,-33.34239 -30.61802,-33.34239 -14.27169,0 -28.07601,15.01264 -30.64082,33.34239 l -42.51867,301.70032 c -2.5762,18.35251 -18.75155,27.74549 -35.94141,20.86042 L 57.265979,504.73168 c -17.178473,-6.87364 -37.069925,-2.54188 -44.205765,9.55256 -7.1244473,12.1515 -1.048715,31.46153 13.496555,42.8606 L 264.22826,743.86228 c 14.55669,11.43334 14.55669,30.15064 0,41.56128 L 26.556769,972.16326 c -14.590878,11.4218 -20.6324072,31.87194 -13.519354,45.41414 7.147257,13.5648 27.038697,19.0137 44.194361,12.1286 L 337.27377,917.24236 c 17.21266,-6.8737 33.21704,2.485 35.62224,20.8376 l 40.39844,304.31064 c 2.43943,18.3184 18.44378,33.3196 35.56524,33.3196 17.09866,0 33.11442,-14.9897 35.56523,-33.3196 l 40.46684,-304.31064 c 2.39382,-18.3526 18.46658,-27.6997 35.58804,-20.8376 l 275.44813,110.54854 c 17.16707,6.908 45.25448,6.908 62.43293,0 L 1173.7634,917.24236 c 17.1442,-6.8737 33.1714,2.485 35.6222,20.8376 l 40.4668,304.31064 c 2.4167,18.3184 18.4324,33.3196 35.5082,33.3196 17.1216,0 33.1373,-14.9897 35.5653,-33.3196 l 40.4668,-304.31064 c 2.4623,-18.3526 18.4667,-27.6997 35.6108,-20.8376 l 280.0763,112.46364 c 17.0986,6.8851 37.0471,1.4249 44.1829,-12.1172 7.1473,-13.5194 1.0715,-33.96934 -13.5079,-45.39124 z m -604.6088,-184.3915 -209.28769,161.1259 c -14.64784,11.2851 -38.67719,11.2851 -53.27945,0 L 631.21129,787.77176 C 616.57483,776.48658 616.46084,757.90601 630.9833,746.44998 L 840.72695,581.24264 c 14.52248,-11.45618 38.33522,-11.45618 52.86909,0 l 209.74366,165.20734 c 14.5566,11.44461 14.4427,30.02519 -0.228,41.33306 z"/>
</svg>
