<?xml version="1.0" standalone="no"?>
<svg width="1536px" height="1536px" version="1.1" xmlns="http://www.w3.org/2000/svg">
    <path transform="scale(1, -1) translate(0, -1536)" glyph-name="arrow_circle_o_down" unicode="&#xf01a;" 

d="M1120 608c0 -9 -4 -17 -10 -24l-319 -319c-7 -6 -15 -9 -23 -9s-16 3 -23 9l-320 320c-9 10 -12 23 -7 35s17 20 30 20h192v352c0 18 14 32 32 32h192c18 0 32 -14 32 -32v-352h192v0c18 0 32 -14 32 -32zM768 1184c-300 0 -544 -244 -544 -544s244 -544 544 -544
s544 244 544 544s-244 544 -544 544zM1536 640c0 -424 -344 -768 -768 -768s-768 344 -768 768s344 768 768 768v0c424 0 768 -344 768 -768z" />
</svg>