<?xml version="1.0" standalone="no"?>
<svg width="1536px" height="1536px" version="1.1" xmlns="http://www.w3.org/2000/svg">
    <path transform="scale(1, -1) translate(0, -1536)" glyph-name="arrow_circle_o_right" unicode="&#xf18e;" 

d="M1152 640c0 -8 -3 -17 -9 -23l-320 -320c-6 -6 -15 -9 -23 -9c-17 0 -32 15 -32 32v192h-352c-17 0 -32 15 -32 32v192c0 17 15 32 32 32h352v192c0 18 14 32 32 32c9 0 17 -4 24 -10l319 -319c6 -6 9 -15 9 -23zM1312 640c0 300 -244 544 -544 544s-544 -244 -544 -544
s244 -544 544 -544s544 244 544 544zM1536 640c0 -424 -344 -768 -768 -768s-768 344 -768 768s344 768 768 768s768 -344 768 -768z" />
</svg>