<?xml version="1.0" standalone="no"?>
<svg width="1536px" height="1536px" version="1.1" xmlns="http://www.w3.org/2000/svg">
    <path transform="scale(1, -1) translate(0, -1536)" glyph-name="arrow_circle_left" unicode="&#xf0a8;" 

d="M1280 576v128c0 35 -29 64 -64 64h-502l189 189c12 12 19 28 19 45s-7 33 -19 45l-91 91c-12 12 -28 18 -45 18s-33 -6 -45 -18l-362 -362l-91 -91c-12 -12 -18 -28 -18 -45s6 -33 18 -45l91 -91l362 -362c12 -12 28 -18 45 -18s33 6 45 18l91 91c12 12 18 28 18 45
s-6 33 -18 45l-189 189h502c35 0 64 29 64 64zM1536 640c0 -424 -344 -768 -768 -768s-768 344 -768 768s344 768 768 768s768 -344 768 -768z" />
</svg>