<?xml version="1.0" standalone="no"?>
<svg width="1536px" height="1536px" version="1.1" xmlns="http://www.w3.org/2000/svg">
    <path transform="scale(1, -1) translate(0, -1536)" glyph-name="arrows_v" unicode="&#xf07d;" horiz-adv-x="768" 

d="M704 1216c0 -35 -29 -64 -64 -64h-128v-1024h128c35 0 64 -29 64 -64c0 -17 -7 -33 -19 -45l-256 -256c-12 -12 -28 -19 -45 -19s-33 7 -45 19l-256 256c-12 12 -19 28 -19 45c0 35 29 64 64 64h128v1024h-128c-35 0 -64 29 -64 64c0 17 7 33 19 45l256 256
c12 12 28 19 45 19s33 -7 45 -19l256 -256c12 -12 19 -28 19 -45z" />
</svg>