<?xml version="1.0" standalone="no"?>
<svg width="1536px" height="1536px" version="1.1" xmlns="http://www.w3.org/2000/svg">
    <path transform="scale(1, -1) translate(0, -1536)" glyph-name="arrow_right" unicode="&#xf061;" 

d="M1472 576c0 -34 -13 -67 -37 -91l-651 -651c-24 -23 -57 -37 -91 -37s-66 14 -90 37l-75 75c-24 24 -38 57 -38 91s14 67 38 91l293 293h-704c-72 0 -117 60 -117 128v128c0 68 45 128 117 128h704l-293 294c-24 23 -38 56 -38 90s14 67 38 90l75 75c24 24 56 38 90 38
s67 -14 91 -38l651 -651c24 -23 37 -56 37 -90z" />
</svg>