<?xml version="1.0" standalone="no"?>
<svg width="1536px" height="1536px" version="1.1" xmlns="http://www.w3.org/2000/svg">
    <path transform="scale(1, -1) translate(0, -1536)" glyph-name="arrow_circle_o_up" unicode="&#xf01b;" 

d="M1118 660c-5 -12 -17 -20 -30 -20h-192v-352c0 -18 -14 -32 -32 -32h-192c-18 0 -32 14 -32 32v352h-192v0c-18 0 -32 14 -32 32c0 9 4 17 10 24l319 319c7 6 15 9 23 9s16 -3 23 -9l320 -320c9 -10 12 -23 7 -35zM768 1184c-300 0 -544 -244 -544 -544
s244 -544 544 -544s544 244 544 544s-244 544 -544 544zM1536 640c0 -424 -344 -768 -768 -768s-768 344 -768 768s344 768 768 768v0c424 0 768 -344 768 -768z" />
</svg>