<svg width="1536" height="1536" xmlns="http://www.w3.org/2000/svg">
    <path d="M1792 896c0 17-7 33-19 45l-256 256c-12 12-28 19-45 19-35 0-64-29-64-64v-128h-384v384h128c35 0 64 29 64 64 0 17-7 33-19 45l-256 256c-12 12-28 19-45 19s-33-7-45-19l-256-256c-12-12-19-28-19-45 0-35 29-64 64-64h128v-384H384v128c0 35-29 64-64 64-17 0-33-7-45-19L19 941C7 929 0 913 0 896s7-33 19-45l256-256c12-12 28-19 45-19 35 0 64 29 64 64v128h384V384H640c-35 0-64-29-64-64 0-17 7-33 19-45L851 19c12-12 28-19 45-19s33 7 45 19l256 256c12 12 19 28 19 45 0 35-29 64-64 64h-128v384h384V640c0-35 29-64 64-64 17 0 33 7 45 19l256 256c12 12 19 28 19 45z"/>
</svg>
