<?xml version="1.0" standalone="no"?>
<svg width="1536px" height="1536px" version="1.1" xmlns="http://www.w3.org/2000/svg">
    <path transform="scale(1, -1) translate(0, -1536)" glyph-name="arrow_left" unicode="&#xf060;" 

d="M1536 640v-128c0 -68 -45 -128 -117 -128h-704l293 -294c24 -23 38 -56 38 -90s-14 -67 -38 -90l-75 -76c-23 -23 -56 -37 -90 -37s-67 14 -91 37l-651 652c-23 23 -37 56 -37 90s14 67 37 91l651 650c24 24 57 38 91 38s66 -14 90 -38l75 -74c24 -24 38 -57 38 -91
s-14 -67 -38 -91l-293 -293h704c72 0 117 -60 117 -128z" />
</svg>