<svg width="1536" height="1536" xmlns="http://www.w3.org/2000/svg">
    <path d="M1283 541L928 896l355 355 144-144c18-19 46-24 70-14 23 10 39 33 39 59v448c0 35-29 64-64 64h-448c-26 0-49-16-59-40-10-23-5-51 14-69l144-144-355-355-355 355 144 144c19 18 24 46 14 69-10 24-33 40-59 40H64c-35 0-64-29-64-64v-448c0-26 16-49 40-59 23-10 51-5 69 14l144 144 355-355-355-355-144 144c-12 12-28 19-45 19-8 0-17-2-24-5-24-10-40-33-40-59V192c0-35 29-64 64-64h448c26 0 49 16 59 40 10 23 5 51-14 69L413 381l355 355 355-355-144-144c-19-18-24-46-14-69 10-24 33-40 59-40h448c35 0 64 29 64 64v448c0 26-16 49-39 59-8 3-17 5-25 5-17 0-33-7-45-19z"/>
</svg>
