<?xml version="1.0" standalone="no"?>
<svg width="1536px" height="1536px" version="1.1" xmlns="http://www.w3.org/2000/svg">
    <path transform="scale(1, -1) translate(0, -1536)" glyph-name="arrrows" unicode="&#xf047;" horiz-adv-x="1792" 

d="M1792 640c0 -17 -7 -33 -19 -45l-256 -256c-12 -12 -28 -19 -45 -19c-35 0 -64 29 -64 64v128h-384v-384h128c35 0 64 -29 64 -64c0 -17 -7 -33 -19 -45l-256 -256c-12 -12 -28 -19 -45 -19s-33 7 -45 19l-256 256c-12 12 -19 28 -19 45c0 35 29 64 64 64h128v384h-384
v-128c0 -35 -29 -64 -64 -64c-17 0 -33 7 -45 19l-256 256c-12 12 -19 28 -19 45s7 33 19 45l256 256c12 12 28 19 45 19c35 0 64 -29 64 -64v-128h384v384h-128c-35 0 -64 29 -64 64c0 17 7 33 19 45l256 256c12 12 28 19 45 19s33 -7 45 -19l256 -256
c12 -12 19 -28 19 -45c0 -35 -29 -64 -64 -64h-128v-384h384v128c0 35 29 64 64 64c17 0 33 -7 45 -19l256 -256c12 -12 19 -28 19 -45z" />
</svg>