<?xml version="1.0" standalone="no"?>
<svg width="1536px" height="1536px" version="1.1" xmlns="http://www.w3.org/2000/svg">
    <path transform="scale(1, -1) translate(0, -1536)" glyph-name="arrows_alt" unicode="&#xf0b2;" 

d="M1283 995l-355 -355l355 -355l144 144c18 19 46 24 70 14c23 -10 39 -33 39 -59v-448c0 -35 -29 -64 -64 -64h-448c-26 0 -49 16 -59 40c-10 23 -5 51 14 69l144 144l-355 355l-355 -355l144 -144c19 -18 24 -46 14 -69c-10 -24 -33 -40 -59 -40h-448
c-35 0 -64 29 -64 64v448c0 26 16 49 40 59c23 10 51 5 69 -14l144 -144l355 355l-355 355l-144 -144c-12 -12 -28 -19 -45 -19c-8 0 -17 2 -24 5c-24 10 -40 33 -40 59v448c0 35 29 64 64 64h448c26 0 49 -16 59 -40c10 -23 5 -51 -14 -69l-144 -144l355 -355l355 355
l-144 144c-19 18 -24 46 -14 69c10 24 33 40 59 40h448c35 0 64 -29 64 -64v-448c0 -26 -16 -49 -39 -59c-8 -3 -17 -5 -25 -5c-17 0 -33 7 -45 19z" />
</svg>