<?xml version="1.0" standalone="no"?>
<svg width="1536px" height="1536px" version="1.1" xmlns="http://www.w3.org/2000/svg">
    <path transform="scale(1, -1) translate(0, -1536)" glyph-name="arrow_circle_right" unicode="&#xf0a9;" 

d="M1285 640c0 17 -6 33 -18 45l-91 91l-362 362c-12 12 -28 18 -45 18s-33 -6 -45 -18l-91 -91c-12 -12 -18 -28 -18 -45s6 -33 18 -45l189 -189h-502c-35 0 -64 -29 -64 -64v-128c0 -35 29 -64 64 -64h502l-189 -189c-12 -12 -19 -28 -19 -45s7 -33 19 -45l91 -91
c12 -12 28 -18 45 -18s33 6 45 18l362 362l91 91c12 12 18 28 18 45zM1536 640c0 -424 -344 -768 -768 -768s-768 344 -768 768s344 768 768 768s768 -344 768 -768z" />
</svg>