<svg xmlns="http://www.w3.org/2000/svg" height="1536" width="1536">
    <defs>
        <clipPath id="a">
            <path d="M0 195.911h208.792V0H0v195.911z"/>
        </clipPath>
    </defs>
    <g clip-path="url(#a)" transform="matrix(29.04192 0 0 -29.04192 -1493.254 3054.411)">
        <path d="M72.174 94.567l26.839-46.646 4.23 7.35c.834 1.409 1.063 2.031 1.063 3.244 0 1.07-.314 2.068-.854 2.905L86.077 91.718a5.339 5.339 0 0 1-4.72 2.85h-9.183zm-4.388-7.557L55.79 66.17h23.991L67.786 87.01zM51.417 58.57l4.468-7.747h.001a5.34 5.34 0 0 1 4.77-2.947H90.31L84.158 58.57h-32.74z"/>
    </g>
</svg>
