<svg xmlns="http://www.w3.org/2000/svg" width="1536" height="1792" viewBox="0 0 1536 1792">
    <path d="M899.993 9.607c-78.968 0-157.94 8.082-217.972 24.237-316.128 85.072-560.802 329.73-645.874 645.86-32.31 120.063-32.31 315.879 0 435.942 91.36 339.494 354.782 585.82 705.32 659.56 92.212 19.399 280.397 11.913 381.446-15.18 310.74-83.315 556.389-330.297 640.91-644.38 32.31-120.063 32.31-315.88 0-435.943-85.071-316.128-329.745-560.787-645.874-645.86C1057.918 17.69 978.96 9.608 899.993 9.608zm438.003 295.863c28.591-1.455 60.662 34.453 97.673 108.064 22.158 44.07 44.337 90.779 49.286 103.797 11.991 31.538-.56 29.57-74.727-11.74-32.695-18.212-78.754-36.087-102.346-39.723-23.593-3.635-45.256-12.794-48.154-20.347-2.899-7.553 4.814-38.605 17.154-69.01 18.739-46.17 38.877-69.91 61.114-71.041zM306.714 482.007c20.403-1.104 45.884 12.454 74.423 40.462 23.804 23.362 43.292 45.42 43.292 49.01 0 3.591-17.73 18.249-39.388 32.582-21.66 14.334-57.817 49.473-80.345 78.095s-45.536 53.736-51.144 55.803c-13.693 5.047.06-193.346 15.718-226.68 8.777-18.686 21.574-28.414 37.444-29.272zm894.526 139.572c81.874-.329 172.56 53.26 237.085 150.47 115.952 174.69 96.186 400.415-40.172 458.758-246.778 105.59-513.424-373.477-313.279-562.845 33.02-31.242 73.48-46.211 116.366-46.383zm-601.32 99.965c63.448-.044 126.94 40.002 172.314 132.17 80.47 163.458 32.16 398.485-99.864 485.854-131.835 87.244-283.495-20.352-305.747-216.912-26.36-232.855 103.382-401.017 233.298-401.112zm367.021 404.464c19.506-.318 38.688 6.107 51.942 19.36 23.955 23.956 24.25 32.761 3.817 114.103-25.888 103.061-37.764 102.743-101.243-2.787-37.41-62.192-38.86-81.016-8.446-109.588 14.592-13.709 34.425-20.77 53.93-21.087z"/>
    <path d="M623.296 868.962a194.475 159.577 85.603 0 0-120.941 17.063 78.914 78.914 0 0 1 9.242 66.712 78.914 78.914 0 0 1-83.292 54.819 194.475 159.577 85.603 0 0 76.556 213.947 194.475 159.577 85.603 0 0 218.014-64.328 194.475 159.577 85.603 0 0-59.565-267.126 194.475 159.577 85.603 0 0-40.014-21.087zm611.029-125.613a194.475 159.577 68.198 0 0-110.3 52.457 78.914 78.914 0 0 1 28.773 60.893 78.914 78.914 0 0 1-63.082 77.223 194.475 159.577 68.198 0 0 137.047 181.253 194.475 159.577 68.198 0 0 188.79-126.594 194.475 159.577 68.198 0 0-136.739-237.08 194.475 159.577 68.198 0 0-44.489-8.152z"/>
</svg>
