<svg width="1536" height="1536" xmlns="http://www.w3.org/2000/svg">
    <path d="M128 1728c0 35-29 64-64 64s-64-29-64-64 29-64 64-64 64 29 64 64zm192-192c0 35-29 64-64 64s-64-29-64-64 29-64 64-64 64 29 64 64zm45-365l256 256-90 90-256-256zm339-19c0 35-29 64-64 64s-64-29-64-64 29-64 64-64 64 29 64 64zm707-320c0 166-78 255-146 334-63 72-113 129-113 242 0 212-172 384-384 384-35 0-64-29-64-64s29-64 64-64c141 0 256-115 256-256 0-161 77-249 144-326 62-71 115-132 115-250 0-247-201-448-448-448S387 585 387 832c0 35-29 64-64 64s-64-29-64-64c0-318 258-576 576-576s576 258 576 576zM896 960c0 35-29 64-64 64s-64-29-64-64 29-64 64-64 64 29 64 64zm288-128c0 35-29 64-64 64s-64-29-64-64c0-124-100-224-224-224-123 0-224 100-224 224 0 35-29 64-64 64s-64-29-64-64c0-194 158-352 352-352s352 158 352 352zm394-289c13 33-4 70-37 83-7 3-15 4-23 4-25 0-50-15-59-41-45-117-123-219-224-295-28-21-34-61-13-89 22-28 62-34 90-13 120 90 212 212 266 351zm210-81c12 33-4 70-37 83-8 3-15 4-23 4-26 0-50-15-60-41-60-156-163-292-297-393-29-21-34-61-13-89 21-29 61-34 89-13 154 115 272 271 341 449z"/>
</svg>
