<?xml version="1.0" standalone="no"?>
<svg width="1536px" height="1536px" version="1.1" xmlns="http://www.w3.org/2000/svg">
    <path transform="scale(1, -1) translate(0, -1536)" glyph-name="assistive_listening_systems" unicode="&#xf2a2;" horiz-adv-x="1792" 

d="M128 -192c0 -35 -29 -64 -64 -64s-64 29 -64 64s29 64 64 64s64 -29 64 -64zM320 0c0 -35 -29 -64 -64 -64s-64 29 -64 64s29 64 64 64s64 -29 64 -64zM365 365l256 -256l-90 -90l-256 256zM704 384c0 -35 -29 -64 -64 -64s-64 29 -64 64s29 64 64 64s64 -29 64 -64z
M1411 704c0 -166 -78 -255 -146 -334c-63 -72 -113 -129 -113 -242c0 -212 -172 -384 -384 -384c-35 0 -64 29 -64 64s29 64 64 64c141 0 256 115 256 256c0 161 77 249 144 326c62 71 115 132 115 250c0 247 -201 448 -448 448s-448 -201 -448 -448c0 -35 -29 -64 -64 -64
s-64 29 -64 64c0 318 258 576 576 576s576 -258 576 -576zM896 576c0 -35 -29 -64 -64 -64s-64 29 -64 64s29 64 64 64s64 -29 64 -64zM1184 704c0 -35 -29 -64 -64 -64s-64 29 -64 64c0 124 -100 224 -224 224c-123 0 -224 -100 -224 -224c0 -35 -29 -64 -64 -64
s-64 29 -64 64c0 194 158 352 352 352s352 -158 352 -352zM1578 993c13 -33 -4 -70 -37 -83c-7 -3 -15 -4 -23 -4c-25 0 -50 15 -59 41c-45 117 -123 219 -224 295c-28 21 -34 61 -13 89c22 28 62 34 90 13c120 -90 212 -212 266 -351zM1788 1074c12 -33 -4 -70 -37 -83
c-8 -3 -15 -4 -23 -4c-26 0 -50 15 -60 41c-60 156 -163 292 -297 393c-29 21 -34 61 -13 89c21 29 61 34 89 13c154 -115 272 -271 341 -449z" />
</svg>