<?xml version="1.0" standalone="no"?>
<svg width="1536px" height="1536px" version="1.1" xmlns="http://www.w3.org/2000/svg">
    <path transform="scale(1, -1) translate(0, -1536)" glyph-name="at" unicode="&#xf1fa;" 

d="M972 761c0 144 -75 230 -201 230c-166 0 -344 -165 -344 -432c0 -149 74 -234 204 -234c201 0 341 230 341 436zM1536 640c0 -311 -222 -428 -412 -434c-13 0 -18 -1 -32 -1c-62 0 -111 18 -142 53c-19 22 -30 50 -33 83c-62 -78 -170 -154 -305 -154
c-215 0 -338 133 -338 365c0 319 221 578 491 578c117 0 211 -50 261 -135l2 19l11 56c1 8 8 18 15 18h118c5 0 10 -7 13 -11c3 -3 4 -11 3 -16l-120 -614c-4 -19 -5 -34 -5 -48c0 -54 16 -65 57 -65c68 2 288 30 288 306c0 389 -251 640 -640 640
c-353 0 -640 -287 -640 -640s287 -640 640 -640c147 0 291 51 405 144c14 12 34 10 45 -4l41 -49c5 -7 8 -15 7 -24c-1 -8 -5 -16 -12 -22c-136 -111 -309 -173 -486 -173c-423 0 -768 345 -768 768s345 768 768 768c459 0 768 -309 768 -768z" />
</svg>