<svg width="1536" height="1536" xmlns="http://www.w3.org/2000/svg">
    <path d="M972 775c0-144-75-230-201-230-166 0-344 165-344 432 0 149 74 234 204 234 201 0 341-230 341-436zm564 121c0 311-222 428-412 434-13 0-18 1-32 1-62 0-111-18-142-53-19-22-30-50-33-83-62 78-170 154-305 154-215 0-338-133-338-365 0-319 221-578 491-578 117 0 211 50 261 135l2-19 11-56c1-8 8-18 15-18h118c5 0 10 7 13 11 3 3 4 11 3 16l-120 614c-4 19-5 34-5 48 0 54 16 65 57 65 68-2 288-30 288-306 0-389-251-640-640-640-353 0-640 287-640 640s287 640 640 640c147 0 291-51 405-144 14-12 34-10 45 4l41 49c5 7 8 15 7 24-1 8-5 16-12 22-136 111-309 173-486 173-423 0-768-345-768-768s345-768 768-768c459 0 768 309 768 768z"/>
</svg>
