<svg xmlns="http://www.w3.org/2000/svg" width="1536" height="1792">
    <path d="M767.965 128.634c-145.096 0-282.775 40.623-398.288 111.436-34.652 21.323-54.15 38.407-54.15 60.377 0 64.754 151.33 134.378 419.81 134.378 265.691 0 471.772-76.26 471.772-149.672 0-17.52-15.31-29.781-46.3-48.287-115.098-68.987-248.754-108.234-392.844-108.234zm-495.39 181.62c-.316 0-.779.169-1.293.614-39.668 33.617-76.115 71.442-108.089 112.272-15.275 19.312-24.754 36.423-24.754 46.671 0 149.28 374.325 257.523 724.328 257.523 372.935 0 539.376-121.748 539.376-228.739 0-38.237-14.887-60.56-52.962-103.835-24.716-28.154-48.093-51.075-72.838-73.64-1.196-.983-2.03-.177-1.196 1.027 3.229 5.054 4.836 10.45 4.836 17.718 0 85.3-261.054 236.193-676.625 236.193-305.348 0-362.51-113.279-362.51-185.313 0-25.75 9.879-52.097 31.63-78.858.743-.995.624-1.608.098-1.639zM1456.498 556.95c-.307.077-.515.468-.408 1.17 6.641 199.409-549.442 327.92-830.052 327.92-303.912 0-557.457-121.086-557.457-273.983 0-14.688 3.04-29.387 6.834-44.677.38-1.402-.818-1.634-1.432-.406C51.464 611.673 26.5 687.086 19.076 726.113c-3.254 16.72-1.868 24.754 3.996 37.23 47.113 99.958 285.416 259.887 841.261 259.887 339.115 0 602.55-83.312 645.231-235.34 7.862-27.988 8.28-57.54-1.814-97.356-11.28-44.497-32.406-96.38-50.285-132.81-.296-.6-.705-.849-1.012-.777zm77.815 296.112c-.347-.077-.748.407-.952 1.41-27.977 150.085-506.354 349.632-919.729 349.632-393.075 0-578.41-183.062-612.024-307.996-.417-1.81-1.608-1.416-1.608.207 0 42.058 4.209 96.334 11.457 132.358 3.453 17.54 17.723 45.059 38.648 66.994 95.182 99.213 332.473 238.228 743.438 238.228 559.914 0 687.934-186.51 714.077-247.848C1526.315 1042.18 1536 962.91 1536 896.32c0-16.116-.408-28.985-1.016-41.62 0-1.025-.296-1.579-.645-1.628zm-52.072 323.252c-.325.077-.753.36-1.211 1.05-115.506 169.98-449.99 276.003-795.348 276.003-244.125 0-506.791-78.069-609.628-227.126-1.014-1.378-2.024-.787-1.406.795 95.804 203.624 386.433 314.853 745.465 314.853 188.99 0 396.675-51.517 520.88-153.496 33.99-27.79 66.366-64.768 95.366-114.47 16.692-28.598 33.019-62.572 46.318-95.972.37-1.018.115-1.712-.427-1.642zm-208.077 295.566c-.278 0-.632.146-1.035.384-60.58 40.46-233.245 128.772-505.149 128.772-236.293 0-385.627-52.725-469.953-99.796-1.614-.796-2.208.415-.997 1.41C427.24 1603.444 590.67 1664 767.974 1664c194.042 0 370.932-72.039 505.939-190.296 1.23-1.084 1.082-1.892.25-1.826z"/>
</svg>
