<?xml version="1.0" standalone="no"?>
<svg width="1536px" height="1536px" version="1.1" xmlns="http://www.w3.org/2000/svg">
    <path transform="scale(1, -1) translate(0, -1536)" glyph-name="audio_description" unicode="&#xf29e;" horiz-adv-x="2304" 

d="M504 542h171l-1 265zM1530 641c0 111 -64 193 -197 193h-54v-388h52c125 0 199 91 199 195zM956 1018l1 -756c0 -19 -15 -34 -33 -34h-216c-18 0 -33 15 -33 34v62h-291l-55 -81c-6 -9 -17 -15 -28 -15h-267c-28 0 -44 31 -27 53l556 757c6 9 16 14 27 14h332
c19 0 34 -15 34 -34zM1783 641c0 -263 -192 -413 -450 -413h-270c-19 0 -34 15 -34 34v756c0 19 15 34 34 34h268c260 0 452 -148 452 -411zM1939 640c0 0 4 -260 -148 -413h-51c136 162 139 414 139 414s2 198 -135 410h43c148 -169 152 -411 152 -411zM2123 640
c0 0 4 -260 -149 -413h-51c136 162 139 414 139 414s2 198 -134 410h43c148 -169 152 -411 152 -411zM2304 640c0 0 4 -260 -148 -413h-51c135 162 138 414 138 414s2 198 -134 410h43c148 -169 152 -411 152 -411z" />
</svg>