<svg width="1536" height="1536" xmlns="http://www.w3.org/2000/svg">
    <path d="M504 994h171l-1-265zm1026-99c0-111-64-193-197-193h-54v388h52c125 0 199-91 199-195zM956 518l1 756c0 19-15 34-33 34H708c-18 0-33-15-33-34v-62H384l-55 81c-6 9-17 15-28 15H34c-28 0-44-31-27-53l556-757c6-9 16-14 27-14h332c19 0 34 15 34 34zm827 377c0 263-192 413-450 413h-270c-19 0-34-15-34-34V518c0-19 15-34 34-34h268c260 0 452 148 452 411zm156 1s4 260-148 413h-51c136-162 139-414 139-414s2-198-135-410h43c148 169 152 411 152 411zm184 0s4 260-149 413h-51c136-162 139-414 139-414s2-198-134-410h43c148 169 152 411 152 411zm181 0s4 260-148 413h-51c135-162 138-414 138-414s2-198-134-410h43c148 169 152 411 152 411z"/>
</svg>
