<svg width="1536" height="1536" xmlns="http://www.w3.org/2000/svg">
    <path d="M1728 448l-384 704h768zm-1280 0L64 1152h768zm821-192c-19 54-63 98-117 117v1291h608c18 0 32 14 32 32v64c0 18-14 32-32 32H416c-18 0-32-14-32-32v-64c0-18 14-32 32-32h608V373c-54-19-98-63-117-117H416c-18 0-32-14-32-32v-64c0-18 14-32 32-32h491c27-75 97-128 181-128s154 53 181 128h491c18 0 32 14 32 32v64c0 18-14 32-32 32h-491zm-181 16c44 0 80-36 80-80s-36-80-80-80-80 36-80 80 36 80 80 80zm1088 880c0 206-285 288-448 288s-448-82-448-288c0-39 349-657 392-735 11-20 33-33 56-33s45 13 56 33c43 78 392 696 392 735zm-1280 0c0 206-285 288-448 288S0 1358 0 1152c0-39 349-657 392-735 11-20 33-33 56-33s45 13 56 33c43 78 392 696 392 735z"/>
</svg>
