<?xml version="1.0" standalone="no"?>
<svg width="1536px" height="1536px" version="1.1" xmlns="http://www.w3.org/2000/svg">
    <path transform="scale(1, -1) translate(0, -1536)" glyph-name="ban" unicode="&#xf05e;" 

d="M1312 643c0 109 -32 210 -87 295l-754 -753c86 -56 188 -89 297 -89c300 0 544 245 544 547zM313 344l755 754c-86 58 -189 91 -300 91c-300 0 -544 -245 -544 -546c0 -111 33 -213 89 -299zM1536 643c0 -426 -344 -771 -768 -771s-768 345 -768 771
c0 425 344 770 768 770s768 -345 768 -770z" />
</svg>