<?xml version="1.0" standalone="no"?>
<svg width="1536px" height="1536px" version="1.1" xmlns="http://www.w3.org/2000/svg">
    <path transform="scale(1, -1) translate(0, -1536)" glyph-name="bars" unicode="&#xf0c9;" 

d="M1536 192v-128c0 -35 -29 -64 -64 -64h-1408c-35 0 -64 29 -64 64v128c0 35 29 64 64 64h1408c35 0 64 -29 64 -64zM1536 704v-128c0 -35 -29 -64 -64 -64h-1408c-35 0 -64 29 -64 64v128c0 35 29 64 64 64h1408c35 0 64 -29 64 -64zM1536 1216v-128
c0 -35 -29 -64 -64 -64h-1408c-35 0 -64 29 -64 64v128c0 35 29 64 64 64h1408c35 0 64 -29 64 -64z" />
</svg>