<?xml version="1.0" standalone="no"?>
<svg width="1536px" height="1536px" version="1.1" xmlns="http://www.w3.org/2000/svg">
    <path transform="scale(1, -1) translate(0, -1536)" glyph-name="bath" unicode="&#xf2cd;" horiz-adv-x="1792" 

d="M1664 448v-192c0 -114 -50 -215 -128 -286v-194c0 -18 -14 -32 -32 -32h-64c-18 0 -32 14 -32 32v118c-40 -14 -83 -22 -128 -22h-768c-45 0 -88 8 -128 22v-110c0 -22 -14 -40 -32 -40h-64c-18 0 -32 18 -32 40v186c-78 71 -128 172 -128 286v192h1536zM704 864
c0 -18 -14 -32 -32 -32s-32 14 -32 32s14 32 32 32s32 -14 32 -32zM768 928c0 -18 -14 -32 -32 -32s-32 14 -32 32s14 32 32 32s32 -14 32 -32zM704 992c0 -18 -14 -32 -32 -32s-32 14 -32 32s14 32 32 32s32 -14 32 -32zM832 992c0 -18 -14 -32 -32 -32s-32 14 -32 32
s14 32 32 32s32 -14 32 -32zM768 1056c0 -18 -14 -32 -32 -32s-32 14 -32 32s14 32 32 32s32 -14 32 -32zM704 1120c0 -18 -14 -32 -32 -32s-32 14 -32 32s14 32 32 32s32 -14 32 -32zM1792 608v-64c0 -18 -14 -32 -32 -32h-1728c-18 0 -32 14 -32 32v64c0 18 14 32 32 32
h96v640c0 141 115 256 256 256c72 0 137 -30 184 -78c62 25 136 16 191 -27l22 22c6 6 16 6 22 0l42 -42c6 -6 6 -16 0 -22l-314 -314c-6 -6 -16 -6 -22 0l-42 42c-6 6 -6 16 0 22l22 22c-48 61 -54 145 -17 212c-23 22 -54 35 -88 35c-71 0 -128 -57 -128 -128v-640h1504
c18 0 32 -14 32 -32zM896 1056c0 -18 -14 -32 -32 -32s-32 14 -32 32s14 32 32 32s32 -14 32 -32zM832 1120c0 -18 -14 -32 -32 -32s-32 14 -32 32s14 32 32 32s32 -14 32 -32zM768 1184c0 -18 -14 -32 -32 -32s-32 14 -32 32s14 32 32 32s32 -14 32 -32zM960 1120
c0 -18 -14 -32 -32 -32s-32 14 -32 32s14 32 32 32s32 -14 32 -32zM896 1184c0 -18 -14 -32 -32 -32s-32 14 -32 32s14 32 32 32s32 -14 32 -32zM832 1248c0 -18 -14 -32 -32 -32s-32 14 -32 32s14 32 32 32s32 -14 32 -32zM1024 1184c0 -18 -14 -32 -32 -32s-32 14 -32 32
s14 32 32 32s32 -14 32 -32zM960 1248c0 -18 -14 -32 -32 -32s-32 14 -32 32s14 32 32 32s32 -14 32 -32zM1088 1248c0 -18 -14 -32 -32 -32s-32 14 -32 32s14 32 32 32s32 -14 32 -32z" />
</svg>