<svg width="1536" height="1536" xmlns="http://www.w3.org/2000/svg">
    <path d="M1664 1088v192c0 114-50 215-128 286v194c0 18-14 32-32 32h-64c-18 0-32-14-32-32v-118c-40 14-83 22-128 22H512c-45 0-88-8-128-22v110c0 22-14 40-32 40h-64c-18 0-32-18-32-40v-186c-78-71-128-172-128-286v-192h1536zM704 672c0 18-14 32-32 32s-32-14-32-32 14-32 32-32 32 14 32 32zm64-64c0 18-14 32-32 32s-32-14-32-32 14-32 32-32 32 14 32 32zm-64-64c0 18-14 32-32 32s-32-14-32-32 14-32 32-32 32 14 32 32zm128 0c0 18-14 32-32 32s-32-14-32-32 14-32 32-32 32 14 32 32zm-64-64c0 18-14 32-32 32s-32-14-32-32 14-32 32-32 32 14 32 32zm-64-64c0 18-14 32-32 32s-32-14-32-32 14-32 32-32 32 14 32 32zm1088 512v64c0 18-14 32-32 32H32c-18 0-32-14-32-32v-64c0-18 14-32 32-32h96V256C128 115 243 0 384 0c72 0 137 30 184 78 62-25 136-16 191 27l22-22c6-6 16-6 22 0l42 42c6 6 6 16 0 22L531 461c-6 6-16 6-22 0l-42-42c-6-6-6-16 0-22l22-22c-48-61-54-145-17-212-23-22-54-35-88-35-71 0-128 57-128 128v640h1504c18 0 32 14 32 32zM896 480c0 18-14 32-32 32s-32-14-32-32 14-32 32-32 32 14 32 32zm-64-64c0 18-14 32-32 32s-32-14-32-32 14-32 32-32 32 14 32 32zm-64-64c0 18-14 32-32 32s-32-14-32-32 14-32 32-32 32 14 32 32zm192 64c0 18-14 32-32 32s-32-14-32-32 14-32 32-32 32 14 32 32zm-64-64c0 18-14 32-32 32s-32-14-32-32 14-32 32-32 32 14 32 32zm-64-64c0 18-14 32-32 32s-32-14-32-32 14-32 32-32 32 14 32 32zm192 64c0 18-14 32-32 32s-32-14-32-32 14-32 32-32 32 14 32 32zm-64-64c0 18-14 32-32 32s-32-14-32-32 14-32 32-32 32 14 32 32zm128 0c0 18-14 32-32 32s-32-14-32-32 14-32 32-32 32 14 32 32z"/>
</svg>
