<?xml version="1.0" standalone="no"?>
<svg width="1536px" height="1536px" version="1.1" xmlns="http://www.w3.org/2000/svg">
    <path transform="scale(1, -1) translate(0, -1536)" glyph-name="battery_full" unicode="&#xf240;" horiz-adv-x="2304" 

d="M1920 1024v-768h-1664v768h1664zM2048 448h128v384h-128v288c0 18 -14 32 -32 32h-1856c-18 0 -32 -14 -32 -32v-960c0 -18 14 -32 32 -32h1856c18 0 32 14 32 32v288zM2304 832v-384c0 -71 -57 -128 -128 -128v-160c0 -88 -72 -160 -160 -160h-1856
c-88 0 -160 72 -160 160v960c0 88 72 160 160 160h1856c88 0 160 -72 160 -160v-160c71 0 128 -57 128 -128z" />
</svg>