<svg width="1536" height="1536" xmlns="http://www.w3.org/2000/svg">
    <path d="M1248 128c159 0 288 129 288 288v960c0 159-129 288-288 288H288c-159 0-288-129-288-288V416c0-159 129-288 288-288h960zM499 495H128v787h382c143 0 277-68 277-228 0-99-47-172-143-200 70-34 107-85 107-164 0-157-117-195-252-195zm-22 318H301V629h163c62 0 119 17 119 90 0 67-44 94-106 94zm9 335H301V931h189c76 0 124 33 124 113s-57 104-128 104zm650 32c-92 0-140-54-140-145h411c1-10 1-20 1-30 0-168-99-309-278-309-173 0-292 131-292 302 0 178 112 299 292 299 137 0 225-61 267-191h-138c-15 48-76 74-123 74zm-10-366c78 0 117 47 124 122H996c5-75 55-122 130-122zM964 548h319v77H964v-77z"/>
</svg>
