<?xml version="1.0" standalone="no"?>
<svg width="1536px" height="1536px" version="1.1" xmlns="http://www.w3.org/2000/svg">
    <path transform="scale(1, -1) translate(0, -1536)" glyph-name="behance" unicode="&#xf1b4;" horiz-adv-x="2048" 

d="M1848 1197h-511v-124h511v124zM1596 771c-120 0 -200 -75 -208 -195h408c-11 121 -74 195 -200 195zM1612 186c76 0 174 41 198 119h221c-68 -209 -209 -307 -427 -307c-288 0 -467 195 -467 479c0 274 189 483 467 483c286 0 444 -225 444 -495c0 -16 -1 -32 -2 -47
h-658c0 -146 77 -232 224 -232zM277 236h296c113 0 205 40 205 167c0 129 -77 180 -199 180h-302v-347zM277 773h281c99 0 169 43 169 150c0 116 -90 144 -190 144h-260v-294zM0 1282h594c216 0 403 -61 403 -312c0 -127 -59 -209 -172 -263c155 -44 230 -161 230 -319
c0 -256 -215 -366 -444 -366h-611v1260z" />
</svg>