<svg width="1536" height="1536" xmlns="http://www.w3.org/2000/svg">
    <path d="M1848 339h-511v124h511V339zm-252 426c-120 0-200 75-208 195h408c-11-121-74-195-200-195zm16 585c76 0 174-41 198-119h221c-68 209-209 307-427 307-288 0-467-195-467-479 0-274 189-483 467-483 286 0 444 225 444 495 0 16-1 32-2 47h-658c0 146 77 232 224 232zm-1335-50h296c113 0 205-40 205-167 0-129-77-180-199-180H277v347zm0-537h281c99 0 169-43 169-150 0-116-90-144-190-144H277v294zM0 254h594c216 0 403 61 403 312 0 127-59 209-172 263 155 44 230 161 230 319 0 256-215 366-444 366H0V254z"/>
</svg>
