<?xml version="1.0" standalone="no"?>
<svg width="1536px" height="1536px" version="1.1" xmlns="http://www.w3.org/2000/svg">
    <path transform="scale(1, -1) translate(0, -1536)" glyph-name="behance_square" unicode="&#xf1b5;" 

d="M1248 1408c159 0 288 -129 288 -288v-960c0 -159 -129 -288 -288 -288h-960c-159 0 -288 129 -288 288v960c0 159 129 288 288 288h960zM499 1041h-371v-787h382c143 0 277 68 277 228c0 99 -47 172 -143 200c70 34 107 85 107 164c0 157 -117 195 -252 195zM477 723
h-176v184h163c62 0 119 -17 119 -90c0 -67 -44 -94 -106 -94zM486 388h-185v217h189c76 0 124 -33 124 -113s-57 -104 -128 -104zM1136 356c-92 0 -140 54 -140 145h411c1 10 1 20 1 30c0 168 -99 309 -278 309c-173 0 -292 -131 -292 -302c0 -178 112 -299 292 -299
c137 0 225 61 267 191h-138c-15 -48 -76 -74 -123 -74zM1126 722c78 0 117 -47 124 -122h-254c5 75 55 122 130 122zM964 988h319v-77h-319v77z" />
</svg>