<?xml version="1.0" standalone="no"?>
<svg width="1536px" height="1536px" version="1.1" xmlns="http://www.w3.org/2000/svg">
    <path transform="scale(1, -1) translate(0, -1536)" glyph-name="bell" unicode="&#xf0a2;" horiz-adv-x="1792" 

d="M912 -160c0 9 -7 16 -16 16c-79 0 -144 65 -144 144c0 9 -7 16 -16 16s-16 -7 -16 -16c0 -97 79 -176 176 -176c9 0 16 7 16 16zM246 128h1300c-179 202 -266 476 -266 832c0 129 -122 320 -384 320s-384 -191 -384 -320c0 -356 -87 -630 -266 -832zM1728 128
c0 -70 -58 -128 -128 -128h-448c0 -141 -115 -256 -256 -256s-256 115 -256 256h-448c-70 0 -128 58 -128 128c148 125 320 349 320 832c0 192 159 402 424 441c-5 12 -8 25 -8 39c0 53 43 96 96 96s96 -43 96 -96c0 -14 -3 -27 -8 -39c265 -39 424 -249 424 -441
c0 -483 172 -707 320 -832z" />
</svg>