<?xml version="1.0" standalone="no"?>
<svg width="1536px" height="1536px" version="1.1" xmlns="http://www.w3.org/2000/svg">
    <path transform="scale(1, -1) translate(0, -1536)" glyph-name="bell_slash_o" unicode="&#xf1f7;" horiz-adv-x="2048" 

d="M1040 -160c0 9 -7 16 -16 16c-79 0 -144 65 -144 144c0 9 -7 16 -16 16s-16 -7 -16 -16c0 -97 79 -176 176 -176c9 0 16 7 16 16zM503 315l877 760c-50 105 -166 205 -356 205c-262 0 -384 -191 -384 -320c0 -256 -45 -470 -137 -645zM1856 128c0 -70 -58 -128 -128 -128
h-448c0 -141 -115 -256 -256 -256s-255 114 -256 255l149 129h757c-111 125 -186 277 -227 459l111 97c51 -298 182 -458 298 -556zM1942 1520l84 -96c11 -14 10 -34 -3 -46l-1872 -1622c-13 -11 -34 -10 -45 4l-84 96c-11 14 -10 34 3 45l186 161c-12 20 -19 42 -19 66
c148 125 320 349 320 832c0 192 159 402 424 441c-5 12 -8 25 -8 39c0 53 43 96 96 96s96 -43 96 -96c0 -14 -3 -27 -8 -39c172 -25 299 -122 367 -240l418 363c13 11 34 10 45 -4z" />
</svg>