<svg xmlns="http://www.w3.org/2000/svg" width="1536" height="1536">
    <path d="M896 0c-53 0-96 43-96 96 0 14 3 27 8 39-265 39-424 249-424 441 0 483-172 707-320 832 0 70 58 128 128 128h448c0 141 115 256 256 256s256-115 256-256h448c70 0 128-58 128-128-148-125-320-349-320-832 0-192-159-402-424-441 5-12 8-25 8-39 0-53-43-96-96-96zM340.912 80.678C195.097 213.448 126.89 387.16 128.002 576.377l127.996-.754c-.937-159.462 50.644-290.63 171.09-400.3l-86.176-94.645zm1110.176 0l-86.176 94.644c120.446 109.67 172.027 240.839 171.09 400.301l127.996.754c1.112-189.216-67.095-362.93-212.91-495.7zM736 1520c9 0 16 7 16 16 0 79 65 144 144 144 9 0 16 7 16 16s-7 16-16 16c-97 0-176-79-176-176 0-9 7-16 16-16z"/>
</svg>
