<svg width="1536" height="1536" xmlns="http://www.w3.org/2000/svg">
    <path d="M1040 1696c0-9-7-16-16-16-79 0-144-65-144-144 0-9-7-16-16-16s-16 7-16 16c0 97 79 176 176 176 9 0 16-7 16-16zm-537-475l877-760c-50-105-166-205-356-205-262 0-384 191-384 320 0 256-45 470-137 645zm1353 187c0 70-58 128-128 128h-448c0 141-115 256-256 256s-255-114-256-255l149-129h757c-111-125-186-277-227-459l111-97c51 298 182 458 298 556zm86-1392l84 96c11 14 10 34-3 46L151 1780c-13 11-34 10-45-4l-84-96c-11-14-10-34 3-45l186-161c-12-20-19-42-19-66 148-125 320-349 320-832 0-192 159-402 424-441-5-12-8-25-8-39 0-53 43-96 96-96s96 43 96 96c0 14-3 27-8 39 172 25 299 122 367 240l418-363c13-11 34-10 45 4z"/>
</svg>
