<svg width="1536" height="1536" xmlns="http://www.w3.org/2000/svg">
    <path d="M762 1152H448c-53 0-83-60-51-102l188-251c-42-20-88-31-137-31-176 0-320 144-320 320s144 320 320 320c155 0 284-110 314-256zm-186-128h186c-12-56-38-107-75-148zm480 0l288-384H864l-99 132c67 66 112 154 126 252h165zm1120 64c0-176-144-320-320-320-43 0-83 9-121 24l174 260c20 30 12 70-17 89-11 8-24 11-36 11-21 0-41-10-53-29l-174-260c-57 58-93 137-93 225 0 176 144 320 320 320s320-144 320-320zm128 0c0 247-201 448-448 448s-448-201-448-448c0-132 58-251 149-333l-65-98-353 469c-12 17-31 26-51 26H891c-31 217-217 384-443 384-247 0-448-201-448-448s201-448 448-448c78 0 151 20 215 55l137-183H576c-35 0-64-29-64-64s29-64 64-64h384v128h435l-85-128h-222c-35 0-64-29-64-64s29-64 64-64h256c21 0 41 11 53 28l267 400c58-28 123-44 192-44 247 0 448 201 448 448z"/>
</svg>
