<svg xmlns="http://www.w3.org/2000/svg" width="1536" height="1792" viewBox="0 0 1536 1792">
    <path d="M1420.043 896a266.78 266.78 0 0 1-266.78 266.778 266.78 266.78 0 0 1-266.78-266.78 266.78 266.78 0 0 1 266.78-266.778A266.78 266.78 0 0 1 1420.043 896zM1.263 313.937v521.43h769.263c29.28-185.263 189.282-327.408 382.737-327.408S1506.721 650.104 1536 835.37h769.263V313.937zm0 642.695v521.431h2304V956.632H1536c-29.279 185.265-189.28 327.41-382.737 327.41-193.455 0-353.458-142.144-382.737-327.41z"/>
</svg>
