<svg xmlns="http://www.w3.org/2000/svg" width="1536" height="1792" viewBox="0 0 1536 1792">
    <path d="M945.853 895.958A177.853 177.853 0 0 1 768 1073.81a177.853 177.853 0 0 1-177.853-177.853A177.853 177.853 0 0 1 768 718.105a177.853 177.853 0 0 1 177.853 177.853zM0 507.916v347.62h512.842C532.362 732.027 639.03 637.264 768 637.264c128.97 0 235.639 94.763 255.158 218.274H1536V507.916zm0 428.463V1284h1536V936.379h-512.842c-19.519 123.51-126.187 218.274-255.158 218.274-128.97 0-235.639-94.763-255.158-218.274z"/>
</svg>
