<svg width="1536" height="1536" xmlns="http://www.w3.org/2000/svg">
    <path d="M1792 1408v384H0v-384c98 0 150-44 191-79 34-30 57-49 108-49s73 19 108 49c41 35 92 79 191 79 98 0 149-44 191-79 34-30 56-49 107-49s74 19 108 49c41 35 93 79 191 79s150-44 191-79c34-30 57-49 108-49 50 0 73 19 107 49 41 35 93 79 191 79zm0-320v192c-51 0-73-19-108-49-41-35-92-79-190-79-99 0-150 44-191 79-35 30-57 49-108 49s-74-19-108-49c-41-35-92-79-191-79-98 0-149 44-191 79-34 30-56 49-107 49s-74-19-108-49c-41-35-93-79-191-79-99 0-150 44-191 79-34 30-57 49-108 49v-192c0-106 86-192 192-192h64V448h256v448h256V448h256v448h256V448h256v448h64c106 0 192 86 192 192zM512 224c0 106-57 160-128 160s-128-57-128-128c0-124 128-92 128-256 48 0 128 118 128 224zm512 0c0 106-57 160-128 160s-128-57-128-128c0-124 128-92 128-256 48 0 128 118 128 224zm512 0c0 106-57 160-128 160s-128-57-128-128c0-124 128-92 128-256 48 0 128 118 128 224z"/>
</svg>
