<?xml version="1.0" standalone="no"?>
<svg width="1536px" height="1536px" version="1.1" xmlns="http://www.w3.org/2000/svg">
    <path transform="scale(1, -1) translate(0, -1536)" glyph-name="birthday_cake" unicode="&#xf1fd;" horiz-adv-x="1792" 

d="M1792 128v-384h-1792v384c98 0 150 44 191 79c34 30 57 49 108 49s73 -19 108 -49c41 -35 92 -79 191 -79c98 0 149 44 191 79c34 30 56 49 107 49s74 -19 108 -49c41 -35 93 -79 191 -79s150 44 191 79c34 30 57 49 108 49c50 0 73 -19 107 -49c41 -35 93 -79 191 -79z
M1792 448v-192c-51 0 -73 19 -108 49c-41 35 -92 79 -190 79c-99 0 -150 -44 -191 -79c-35 -30 -57 -49 -108 -49s-74 19 -108 49c-41 35 -92 79 -191 79c-98 0 -149 -44 -191 -79c-34 -30 -56 -49 -107 -49s-74 19 -108 49c-41 35 -93 79 -191 79c-99 0 -150 -44 -191 -79
c-34 -30 -57 -49 -108 -49v192c0 106 86 192 192 192h64v448h256v-448h256v448h256v-448h256v448h256v-448h64c106 0 192 -86 192 -192zM512 1312c0 -106 -57 -160 -128 -160s-128 57 -128 128c0 124 128 92 128 256c48 0 128 -118 128 -224zM1024 1312
c0 -106 -57 -160 -128 -160s-128 57 -128 128c0 124 128 92 128 256c48 0 128 -118 128 -224zM1536 1312c0 -106 -57 -160 -128 -160s-128 57 -128 128c0 124 128 92 128 256c48 0 128 -118 128 -224z" />
</svg>