<?xml version="1.0" standalone="no"?>
<svg width="1536px" height="1536px" version="1.1" xmlns="http://www.w3.org/2000/svg">
    <path transform="scale(1, -1) translate(0, -1536)" glyph-name="f171" unicode="&#xf171;" horiz-adv-x="1408" 

d="M815 677c11 -84 -91 -150 -162 -107c-80 35 -80 162 -2 198c67 41 164 -13 164 -91zM926 698c-18 142 -179 236 -310 177c-83 -37 -139 -125 -135 -218c5 -122 121 -222 243 -211s217 130 202 252zM1165 1240c-44 58 -119 68 -185 79c-187 30 -379 31 -566 -2
c-62 -10 -132 -21 -171 -77c64 -60 155 -69 237 -79c148 -19 300 -20 448 -1c83 10 175 18 237 80zM1222 205c-28 -98 -12 -230 -116 -287c-179 -99 -396 -110 -593 -75c-104 19 -226 52 -283 150c-25 96 -41 194 -57 292l6 16l18 9c298 -197 715 -197 1014 0
c47 -14 12 -71 11 -105zM1403 1166c-34 -219 -73 -437 -111 -655c-11 -64 -73 -100 -125 -127c-187 -94 -405 -110 -610 -88c-139 15 -281 52 -394 139c-53 41 -53 111 -63 170c-35 205 -75 410 -100 617c12 90 113 129 188 157c100 37 207 54 313 64c226 22 457 14 676 -50
c78 -23 162 -55 215 -122c24 -31 16 -70 11 -105z" />
</svg>