<?xml version="1.0" standalone="no"?>
<svg width="1536px" height="1536px" version="1.1" xmlns="http://www.w3.org/2000/svg">
    <path transform="scale(1, -1) translate(0, -1536)" glyph-name="bitbucket_square" unicode="&#xf172;"

d="M848 666c0 57 -70 96 -118 67c-57 -27 -57 -119 1 -143c52 -31 125 16 117 76zM928 682c11 -88 -58 -174 -146 -182s-171 64 -175 153c-3 66 38 130 98 157c94 42 210 -26 223 -128zM1100 1073c-44 -45 -111 -51 -170 -58c-107 -14 -216 -13 -324 0
c-59 8 -124 15 -170 58c28 40 78 48 123 55c135 24 273 23 408 1c48 -7 102 -15 133 -56zM1142 327c0 24 25 65 -9 75c-215 -142 -515 -142 -731 0l-12 -6l-5 -12c12 -70 23 -141 41 -210c41 -71 129 -95 204 -108c142 -26 299 -18 428 53c75 42 63 137 84 208zM1272 1020
c4 24 9 53 -8 75c-38 48 -98 71 -155 88c-158 46 -325 52 -487 36c-77 -7 -154 -20 -226 -46c-54 -21 -127 -49 -136 -113c18 -150 47 -297 72 -446c8 -42 8 -92 46 -122c81 -62 184 -89 284 -100c148 -16 305 -5 440 63c38 20 82 46 90 92c28 157 55 314 80 473zM1536 1120
v-960c0 -159 -129 -288 -288 -288h-960c-159 0 -288 129 -288 288v960c0 159 129 288 288 288h960c159 0 288 -129 288 -288z" />
</svg>
