<svg width="1536" height="1536" xmlns="http://www.w3.org/2000/svg">
    <path d="M848 870c0-57-70-96-118-67-57 27-57 119 1 143 52 31 125-16 117-76zm80-16c11 88-58 174-146 182s-171-64-175-153c-3-66 38-130 98-157 94-42 210 26 223 128zm172-391c-44 45-111 51-170 58-107 14-216 13-324 0-59-8-124-15-170-58 28-40 78-48 123-55 135-24 273-23 408-1 48 7 102 15 133 56zm42 746c0-24 25-65-9-75-215 142-515 142-731 0l-12 6-5 12c12 70 23 141 41 210 41 71 129 95 204 108 142 26 299 18 428-53 75-42 63-137 84-208zm130-693c4-24 9-53-8-75-38-48-98-71-155-88-158-46-325-52-487-36-77 7-154 20-226 46-54 21-127 49-136 113 18 150 47 297 72 446 8 42 8 92 46 122 81 62 184 89 284 100 148 16 305 5 440-63 38-20 82-46 90-92 28-157 55-314 80-473zm264-100v960c0 159-129 288-288 288H288c-159 0-288-129-288-288V416c0-159 129-288 288-288h960c159 0 288 129 288 288z"/>
</svg>
