<svg width="1536" height="1536" xmlns="http://www.w3.org/2000/svg">
    <path d="M815 859c11 84-91 150-162 107-80-35-80-162-2-198 67-41 164 13 164 91zm111-21c-18-142-179-236-310-177-83 37-139 125-135 218 5 122 121 222 243 211s217-130 202-252zm239-542c-44-58-119-68-185-79-187-30-379-31-566 2-62 10-132 21-171 77 64 60 155 69 237 79 148 19 300 20 448 1 83-10 175-18 237-80zm57 1035c-28 98-12 230-116 287-179 99-396 110-593 75-104-19-226-52-283-150-25-96-41-194-57-292l6-16 18-9c298 197 715 197 1014 0 47 14 12 71 11 105zm181-961c-34 219-73 437-111 655-11 64-73 100-125 127-187 94-405 110-610 88-139-15-281-52-394-139-53-41-53-111-63-170C65 726 25 521 0 314c12-90 113-129 188-157 100-37 207-54 313-64 226-22 457-14 676 50 78 23 162 55 215 122 24 31 16 70 11 105z"/>
</svg>
