<svg width="1536" height="1536" xmlns="http://www.w3.org/2000/svg">
    <path d="M366 311c-86 0-156-70-156-156C210 70 280 0 366 0s155 70 155 155c0 86-69 156-155 156zm551 642c0 108-115 84-141 40L409 555c-16-26-28-14-28-14s-7 8 4 21l122 139 1 354c-86 250-161 457-161 457-47 134-86 250-120 266-41 21-71 16-103 1-42-19-54-70-51-100 0 0 2-16 197-618l5-416-85 164 35 222c13 84-58 95-58 95-68 11-82-68-82-70L39 757c210-379 211-381 211-381 16-24 52-34 113-34 54 0 88 16 107 40l424 521c6 4 10 10 14 17l3 3-1 1c5 9 7 19 7 29zm-403 150c96 255 182 448 182 448 29 74 79 180 6 222-72 42-130-7-146-41h-1c-3-8-6-16-8-25l-124-351zm824 592c21 33 39 57 28 64-19 12-25-23-46-57 0 0-113-171-423-661 6 2 17-7 17-7s11-9 11-17c308 503 413 678 413 678z"/>
</svg>
