<?xml version="1.0" standalone="no"?>
<svg width="1536px" height="1536px" version="1.1" xmlns="http://www.w3.org/2000/svg">
    <path transform="scale(1, -1) translate(0, -1536)" glyph-name="blind" unicode="&#xf29d;" horiz-adv-x="1408" 

d="M366 1225c-86 0 -156 70 -156 156c0 85 70 155 156 155s155 -70 155 -155c0 -86 -69 -156 -155 -156zM917 583c0 -108 -115 -84 -141 -40l-367 438c-16 26 -28 14 -28 14s-7 -8 4 -21l122 -139l1 -354c-86 -250 -161 -457 -161 -457c-47 -134 -86 -250 -120 -266
c-41 -21 -71 -16 -103 -1c-42 19 -54 70 -51 100c0 0 2 16 197 618l5 416l-85 -164l35 -222c13 -84 -58 -95 -58 -95c-68 -11 -82 68 -82 70l-46 299c210 379 211 381 211 381v0c16 24 52 34 113 34c54 0 88 -16 107 -40v0l424 -521c6 -4 10 -10 14 -17l3 -3l-1 -1
c5 -9 7 -19 7 -29zM514 433c96 -255 182 -448 182 -448c29 -74 79 -180 6 -222c-72 -42 -130 7 -146 41v0h-1c-3 8 -6 16 -8 25l-124 351zM1338 -159c21 -33 39 -57 28 -64c-19 -12 -25 23 -46 57c0 0 -113 171 -423 661c6 -2 17 7 17 7s11 9 11 17
c308 -503 413 -678 413 -678z" />
</svg>