<svg xmlns="http://www.w3.org/2000/svg" viewBox="0 0 1536 1792" height="1792" width="1536">
    <path d="M1383.267 11.026c120.783.04 182.62.654 231.428 21.774a264.742 264.742 0 0 1 137.822 137.822c21.12 48.808 21.75 110.64 21.77 231.428v982.865c-.039 120.784-.65 182.62-21.77 231.429a264.75 264.75 0 0 1-137.826 137.821c-48.805 21.12-110.64 21.75-231.428 21.77H400.402c-120.784-.02-182.616-.65-231.425-21.77A264.742 264.742 0 0 1 31.155 1616.34c-21.123-48.805-21.758-110.64-21.778-231.43V402.05c.04-120.789.655-182.62 21.778-231.43A264.738 264.738 0 0 1 168.973 32.805c45.814-21.124 110.462-21.758 231.42-21.778zm-209.67 1005.202c-88.097 0-159.51 71.416-159.51 159.493 0 88.073 71.413 159.493 159.51 159.493 88.049 0 159.465-71.42 159.465-159.493 0-88.077-71.416-159.493-159.465-159.493zm-563.577.159c-88.03 0-159.413 71.38-159.413 159.433 0 88.01 71.384 159.39 159.417 159.39s159.418-71.38 159.418-159.39c0-88.053-71.385-159.433-159.418-159.433zm563.56-564.005c-88.076 0-159.492 71.416-159.492 159.47 0 88.088 71.416 159.504 159.493 159.504 88.073 0 159.493-71.416 159.493-159.509 0-88.049-71.42-159.465-159.493-159.465zm-563.572.04c-88.01 0-159.39 71.384-159.39 159.417 0 88.038 71.38 159.422 159.39 159.422 88.057 0 159.438-71.384 159.438-159.422 0-88.033-71.38-159.417-159.438-159.417z" fill-rule="evenodd"/>
</svg>
