<svg xmlns="http://www.w3.org/2000/svg" width="96" height="112" viewBox="0 0 96 112">
    <path class="st1" d="M25.3 13.3H24c-.7 0-1.3-.6-1.3-1.3 0-3.7-3-6.7-6.7-6.7h-4c-3.7 0-6.7 3-6.7 6.7v8c0 3.7 3 6.7 6.7 6.7h8c3.7 0 6.7-3 6.7-6.7v-5.3c0-.8-.6-1.4-1.4-1.4zm-13.4-2.6h4.8c.7 0 1.3.6 1.3 1.3 0 .7-.6 1.3-1.3 1.3h-4.8c-.7 0-1.3-.6-1.3-1.3 0-.7.6-1.3 1.3-1.3zm8.2 10.6H12c-.7 0-1.3-.6-1.3-1.3 0-.7.6-1.3 1.3-1.3h8.1c.7 0 1.3.6 1.3 1.3 0 .7-.6 1.3-1.3 1.3z M32 29.3c0 1.5-1.2 2.7-2.7 2.7H2.7C1.2 32 0 30.8 0 29.3V2.7C0 1.2 1.2 0 2.7 0h26.7C30.8 0 32 1.2 32 2.7v26.6z" transform="matrix(3 0 0 3 0 8)"/>
</svg>
