<svg width="1536" height="1536" xmlns="http://www.w3.org/2000/svg">
    <path d="M555 1521c44 19 92 32 140 32 228 0 376-91 376-335 0-62-8-127-41-180-93-150-227-158-388-158-30 0-73 0-101 10 0 106-1 212-1 317 0 69-9 256 15 314zm-14-746c36 6 73 7 109 7 206 0 353-58 353-289 0-195-173-262-340-262-44 0-87 6-130 13 0 101 8 202 8 303 0 53-1 106-1 159 0 23 0 46 1 69zM0 1664l2-94c64-16 129-17 191-43 35-59 30-163 30-230 0-22 2-978-22-1025-15-29-162-36-195-40l-4-83c238-4 476-21 713-21 45 0 91 1 136 1 226 0 475 108 475 368 0 179-136 246-277 310 190 43 359 172 359 382 0 344-313 458-606 458-88 0-176-6-264-6-179 0-360 16-538 23z"/>
</svg>
