<?xml version="1.0" standalone="no"?>
<svg width="1536px" height="1536px" version="1.1" xmlns="http://www.w3.org/2000/svg">
    <path transform="scale(1, -1) translate(0, -1536)" glyph-name="bold" unicode="&#xf032;" horiz-adv-x="1408" 

d="M555 15c44 -19 92 -32 140 -32c228 0 376 91 376 335c0 62 -8 127 -41 180c-93 150 -227 158 -388 158c-30 0 -73 0 -101 -10c0 -106 -1 -212 -1 -317c0 -69 -9 -256 15 -314zM541 761c36 -6 73 -7 109 -7c206 0 353 58 353 289c0 195 -173 262 -340 262
c-44 0 -87 -6 -130 -13c0 -101 8 -202 8 -303c0 -53 -1 -106 -1 -159c0 -23 0 -46 1 -69zM0 -128l2 94c64 16 129 17 191 43c35 59 30 163 30 230c0 22 2 978 -22 1025c-15 29 -162 36 -195 40l-4 83c238 4 476 21 713 21c45 0 91 -1 136 -1c226 0 475 -108 475 -368
c0 -179 -136 -246 -277 -310c190 -43 359 -172 359 -382c0 -344 -313 -458 -606 -458c-88 0 -176 6 -264 6c-179 0 -360 -16 -538 -23z" />
</svg>