<?xml version="1.0" standalone="no"?>
<svg width="1536px" height="1536px" version="1.1" xmlns="http://www.w3.org/2000/svg">
    <path transform="scale(1, -1) translate(0, -1536)" glyph-name="bolt" unicode="&#xf0e7;" horiz-adv-x="896" 

d="M885 970c11 -12 14 -29 7 -44l-540 -1157c-8 -15 -24 -25 -42 -25c-4 0 -9 1 -14 2c-22 7 -35 28 -30 49l197 808l-406 -101c-4 -1 -8 -1 -12 -1c-11 0 -23 4 -31 11c-12 10 -16 25 -13 39l201 825c5 19 23 32 44 32h328v0c25 0 45 -19 45 -42c0 -6 -2 -12 -5 -18
l-171 -463l396 98c4 1 8 2 12 2c13 0 25 -6 34 -15z" />
</svg>