<?xml version="1.0" standalone="no"?>
<svg width="1536px" height="1536px" version="1.1" xmlns="http://www.w3.org/2000/svg">
    <path transform="scale(1, -1) translate(0, -1536)" glyph-name="bomb" unicode="&#xf1e2;" horiz-adv-x="1792" 

d="M571 947c-13 33 -50 48 -83 35c-144 -58 -260 -174 -318 -318c-13 -33 2 -70 35 -83c8 -3 16 -5 24 -5c26 0 49 15 60 40c45 112 135 202 247 247c33 14 49 51 35 84zM1513 1303l46 -46l-244 -243l68 -68c25 -25 25 -66 0 -91l-64 -64c56 -101 89 -218 89 -343
c0 -389 -315 -704 -704 -704s-704 315 -704 704s315 704 704 704c125 0 242 -33 343 -89l64 64c25 25 66 25 91 0l68 -68zM1521 1359c-6 -6 -14 -10 -22 -10c-9 0 -17 4 -23 10l-91 90c-12 13 -12 33 0 46c13 12 33 12 46 0l90 -91c13 -12 13 -33 0 -45zM1751 1129
c-7 -6 -15 -9 -23 -9s-16 3 -23 9l-90 91c-13 12 -13 33 0 45c12 13 33 13 45 0l91 -90c12 -13 12 -33 0 -46zM1792 1312c0 -18 -14 -32 -32 -32h-96c-18 0 -32 14 -32 32s14 32 32 32h96c18 0 32 -14 32 -32zM1600 1504v-96c0 -18 -14 -32 -32 -32s-32 14 -32 32v96
c0 18 14 32 32 32s32 -14 32 -32zM1751 1449l-91 -90c-6 -6 -14 -10 -22 -10c-9 0 -17 4 -23 10c-13 12 -13 33 0 45l90 91c13 12 33 12 46 0c12 -13 12 -33 0 -46z" />
</svg>