<svg width="1536" height="1536" xmlns="http://www.w3.org/2000/svg">
    <path d="M571 589c-13-33-50-48-83-35-144 58-260 174-318 318-13 33 2 70 35 83 8 3 16 5 24 5 26 0 49-15 60-40 45-112 135-202 247-247 33-14 49-51 35-84zm942-356l46 46-244 243 68 68c25 25 25 66 0 91l-64 64c56 101 89 218 89 343 0 389-315 704-704 704S0 1477 0 1088s315-704 704-704c125 0 242 33 343 89l64-64c25-25 66-25 91 0l68 68zm8-56c-6 6-14 10-22 10-9 0-17-4-23-10l-91-90c-12-13-12-33 0-46 13-12 33-12 46 0l90 91c13 12 13 33 0 45zm230 230c-7 6-15 9-23 9s-16-3-23-9l-90-91c-13-12-13-33 0-45 12-13 33-13 45 0l91 90c12 13 12 33 0 46zm41-183c0 18-14 32-32 32h-96c-18 0-32-14-32-32s14-32 32-32h96c18 0 32 14 32 32zM1600 32v96c0 18-14 32-32 32s-32-14-32-32V32c0-18 14-32 32-32s32 14 32 32zm151 55l-91 90c-6 6-14 10-22 10-9 0-17-4-23-10-13-12-13-33 0-45l90-91c13-12 33-12 46 0 12 13 12 33 0 46z"/>
</svg>
