<?xml version="1.0" standalone="no"?>
<svg width="1536px" height="1536px" version="1.1" xmlns="http://www.w3.org/2000/svg">
    <path transform="scale(1, -1) translate(0, -1536)" glyph-name="book" unicode="&#xf02d;" horiz-adv-x="1664" 

d="M1639 1058c25 -36 32 -83 18 -129l-275 -906c-25 -85 -113 -151 -199 -151h-923c-102 0 -211 81 -248 185c-16 45 -16 89 -2 127c2 20 6 40 7 64c1 16 -8 29 -6 41c4 24 25 41 41 68c30 50 64 131 75 183c5 19 -5 41 0 58c5 19 24 33 34 51c27 46 62 135 67 182
c2 21 -8 44 -2 60c7 23 29 33 44 53c24 33 64 128 70 181c2 17 -8 34 -5 52c4 19 28 39 44 62c42 62 50 199 177 163l-1 -3c17 4 34 9 51 9h761c47 0 89 -21 114 -56c26 -36 32 -83 18 -130l-274 -906c-47 -154 -73 -188 -200 -188h-869c-13 0 -29 -3 -38 -15
c-8 -12 -9 -21 -1 -43c20 -58 89 -70 144 -70h923c37 0 80 21 91 57l300 987c6 19 6 39 5 57c23 -9 44 -23 59 -43zM575 1056c-6 -18 4 -32 22 -32h608c17 0 36 14 42 32l21 64c6 18 -4 32 -22 32h-608c-17 0 -36 -14 -42 -32zM492 800c-6 -18 4 -32 22 -32h608
c17 0 36 14 42 32l21 64c6 18 -4 32 -22 32h-608c-17 0 -36 -14 -42 -32z" />
</svg>