<?xml version="1.0" standalone="no"?>
<svg width="1536px" height="1536px" version="1.1" xmlns="http://www.w3.org/2000/svg">
    <path transform="scale(1, -1) translate(0, -1536)" glyph-name="bookmark_o" unicode="&#xf097;" horiz-adv-x="1280" 

d="M1152 1280h-1024v-1242l423 406l89 85l89 -85l423 -406v1242zM1164 1408c15 0 30 -3 44 -9c44 -17 72 -58 72 -103v-1289c0 -45 -28 -86 -72 -103c-14 -6 -29 -8 -44 -8c-31 0 -60 11 -83 32l-441 424l-441 -424c-23 -21 -52 -33 -83 -33c-15 0 -30 3 -44 9
c-44 17 -72 58 -72 103v1289c0 45 28 86 72 103c14 6 29 9 44 9h1048z" />
</svg>