<svg width="1536" height="1536" xmlns="http://www.w3.org/2000/svg">
    <path d="M1639 478c25 36 32 83 18 129l-275 906c-25 85-113 151-199 151H260c-102 0-211-81-248-185-16-45-16-89-2-127 2-20 6-40 7-64 1-16-8-29-6-41 4-24 25-41 41-68 30-50 64-131 75-183 5-19-5-41 0-58 5-19 24-33 34-51 27-46 62-135 67-182 2-21-8-44-2-60 7-23 29-33 44-53 24-33 64-128 70-181 2-17-8-34-5-52 4-19 28-39 44-62 42-62 50-199 177-163l-1 3c17-4 34-9 51-9h761c47 0 89 21 114 56 26 36 32 83 18 130l-274 906c-47 154-73 188-200 188H156c-13 0-29 3-38 15-8 12-9 21-1 43 20 58 89 70 144 70h923c37 0 80-21 91-57l300-987c6-19 6-39 5-57 23 9 44 23 59 43zm-1064 2c-6 18 4 32 22 32h608c17 0 36-14 42-32l21-64c6-18-4-32-22-32H638c-17 0-36 14-42 32zm-83 256c-6 18 4 32 22 32h608c17 0 36-14 42-32l21-64c6-18-4-32-22-32H555c-17 0-36 14-42 32z"/>
</svg>
