<svg width="1536" height="1536" xmlns="http://www.w3.org/2000/svg">
    <path d="M192 1184c-88 0-160 72-160 160s72 160 160 160 160-72 160-160-72-160-160-160zm512 0c-88 0-160 72-160 160s72 160 160 160 160-72 160-160-72-160-160-160zm0-512c-88 0-160 72-160 160s72 160 160 160 160-72 160-160-72-160-160-160zm768 512c-88 0-160 72-160 160s72 160 160 160 160-72 160-160-72-160-160-160zm512 0c-88 0-160 72-160 160s72 160 160 160 160-72 160-160-72-160-160-160zm-512-512c-88 0-160 72-160 160s72 160 160 160 160-72 160-160-72-160-160-160zm512 0c-88 0-160 72-160 160s72 160 160 160 160-72 160-160-72-160-160-160zm0-512c-88 0-160 72-160 160s72 160 160 160 160-72 160-160-72-160-160-160zM384 1344c0 106-86 192-192 192S0 1450 0 1344s86-192 192-192 192 86 192 192zm512 0c0 106-86 192-192 192s-192-86-192-192 86-192 192-192 192 86 192 192zM384 832c0 106-86 192-192 192S0 938 0 832s86-192 192-192 192 86 192 192zm512 0c0 106-86 192-192 192s-192-86-192-192 86-192 192-192 192 86 192 192zM384 320c0 106-86 192-192 192S0 426 0 320s86-192 192-192 192 86 192 192zm1280 1024c0 106-86 192-192 192s-192-86-192-192 86-192 192-192 192 86 192 192zM896 320c0 106-86 192-192 192s-192-86-192-192 86-192 192-192 192 86 192 192zm1280 1024c0 106-86 192-192 192s-192-86-192-192 86-192 192-192 192 86 192 192zm-512-512c0 106-86 192-192 192s-192-86-192-192 86-192 192-192 192 86 192 192zm512 0c0 106-86 192-192 192s-192-86-192-192 86-192 192-192 192 86 192 192zm-512-512c0 106-86 192-192 192s-192-86-192-192 86-192 192-192 192 86 192 192zm512 0c0 106-86 192-192 192s-192-86-192-192 86-192 192-192 192 86 192 192z"/>
</svg>
