<?xml version="1.0" standalone="no"?>
<svg width="1536px" height="1536px" version="1.1" xmlns="http://www.w3.org/2000/svg">
    <path transform="scale(1, -1) translate(0, -1536)" glyph-name="braille" unicode="&#xf2a1;" horiz-adv-x="2176" 

d="M192 352c-88 0 -160 -72 -160 -160s72 -160 160 -160s160 72 160 160s-72 160 -160 160zM704 352c-88 0 -160 -72 -160 -160s72 -160 160 -160s160 72 160 160s-72 160 -160 160zM704 864c-88 0 -160 -72 -160 -160s72 -160 160 -160s160 72 160 160s-72 160 -160 160z
M1472 352c-88 0 -160 -72 -160 -160s72 -160 160 -160s160 72 160 160s-72 160 -160 160zM1984 352c-88 0 -160 -72 -160 -160s72 -160 160 -160s160 72 160 160s-72 160 -160 160zM1472 864c-88 0 -160 -72 -160 -160s72 -160 160 -160s160 72 160 160s-72 160 -160 160z
M1984 864c-88 0 -160 -72 -160 -160s72 -160 160 -160s160 72 160 160s-72 160 -160 160zM1984 1376c-88 0 -160 -72 -160 -160s72 -160 160 -160s160 72 160 160s-72 160 -160 160zM384 192c0 -106 -86 -192 -192 -192s-192 86 -192 192s86 192 192 192v0
c106 0 192 -86 192 -192zM896 192c0 -106 -86 -192 -192 -192s-192 86 -192 192s86 192 192 192v0c106 0 192 -86 192 -192zM384 704c0 -106 -86 -192 -192 -192s-192 86 -192 192s86 192 192 192s192 -86 192 -192zM896 704c0 -106 -86 -192 -192 -192s-192 86 -192 192
s86 192 192 192v0c106 0 192 -86 192 -192zM384 1216c0 -106 -86 -192 -192 -192s-192 86 -192 192s86 192 192 192s192 -86 192 -192zM1664 192c0 -106 -86 -192 -192 -192s-192 86 -192 192s86 192 192 192v0c106 0 192 -86 192 -192zM896 1216c0 -106 -86 -192 -192 -192
s-192 86 -192 192s86 192 192 192s192 -86 192 -192zM2176 192c0 -106 -86 -192 -192 -192s-192 86 -192 192s86 192 192 192v0c106 0 192 -86 192 -192zM1664 704c0 -106 -86 -192 -192 -192s-192 86 -192 192s86 192 192 192v0c106 0 192 -86 192 -192zM2176 704
c0 -106 -86 -192 -192 -192s-192 86 -192 192s86 192 192 192v0c106 0 192 -86 192 -192zM1664 1216c0 -106 -86 -192 -192 -192s-192 86 -192 192s86 192 192 192s192 -86 192 -192zM2176 1216c0 -106 -86 -192 -192 -192s-192 86 -192 192s86 192 192 192v0
c106 0 192 -86 192 -192z" />
</svg>