<svg width="1536" height="1792" viewBox="0 0 1536 1792" xmlns="http://www.w3.org/2000/svg">
  <path
     d="m 757.74629,226.61531 c 7.78279,0 15.18954,3.40624 20.33212,9.35034 l 99.55913,115.07666 c 1.2366,-0.23628 2.5186,-0.47333 3.8437,-0.70965 23.9801,-4.27602 48.6953,-5.83922 72.4197,-3.00706 30.3127,3.6186 56.24096,14.19417 75.51836,33.83441 20.1295,20.50818 40.1583,41.43045 59.173,61.66416 6.6566,7.0831 12.7132,13.57669 18.0549,19.34227 1.8733,2.02195 3.5246,3.80978 4.9397,5.34613 8.9476,9.76066 11.0065,21.14815 7.0304,31.09126 l -25.6901,64.24379 34.2291,99.63741 c 1.7834,5.19098 2,10.80619 0.6219,16.12348 -0.2435,0.94007 -0.2435,0.94007 -1.4012,5.40788 -1.5843,6.11448 -1.5843,6.11448 -3.9607,15.28761 -4.2654,16.46556 -9.0185,34.81723 -14.1369,54.58593 -14.6243,56.48164 -29.2484,113.00287 -42.8975,165.81068 -33.6936,130.36059 -55.7855,216.19049 -61.103,237.57919 -28.95166,116.433 -51.92006,156.8525 -126.16706,210.0835 -65.047,46.6352 -200.77993,140.2128 -226.87687,156.8304 -2.49397,1.588 -5.25257,3.4387 -8.9059,5.9597 -1.4205,0.9801 -8.31486,5.777 -10.29241,7.1396 -12.68644,8.7415 -21.73741,14.3434 -31.49147,18.9654 -12.36946,5.8612 -24.20511,9.1263 -36.20836,9.1263 -12.00329,0 -23.83893,-3.2651 -36.2084,-9.1263 -9.75407,-4.622 -18.80503,-10.2239 -31.49147,-18.9654 -1.97755,-1.3626 -8.87191,-6.1595 -10.2924,-7.1396 -3.65333,-2.521 -6.41194,-4.3717 -8.90592,-5.9597 -26.09692,-16.6176 -161.82988,-110.1952 -226.87691,-156.8304 -74.24699,-53.231 -97.21541,-93.6505 -126.1669,-210.0831 -5.31865,-21.3886 -27.410772,-107.218 -60.856812,-236.62271 -13.89514,-53.76035 -28.51947,-110.28273 -43.14381,-166.76573 -5.11856,-19.76917 -9.87149,-38.12128 -14.1369197,-54.5873 -2.37643,-9.17348 -2.37643,-9.17348 -3.96068,-15.28808 -1.15766,-4.46793 -1.15766,-4.46793 -1.40128995,-5.40801 -1.37793,-5.31728 -1.16132,-10.93238 0.62197995,-16.12336 l 34.2289797,-99.6374 -25.68997,-64.24379 c -3.9760797,-9.94311 -1.9172797,-21.3306 5.27614,-29.18285 3.16933,-3.44476 4.82067,-5.23259 6.69398,-7.25454 5.34177,-5.76558 11.39831,-12.25917 18.05475,-19.34227 19.0149,-20.23371 39.04368,-41.15598 59.17307,-61.66416 19.277502,-19.64024 45.205842,-30.21581 75.518412,-33.83441 23.72446,-2.83216 48.43968,-1.26896 72.41952,3.00706 1.32538,0.23632 2.60729,0.47337 3.84379,0.70965 l 99.55926,-115.07666 c 5.14259,-5.9441 12.54934,-9.35034 20.33208,-9.35034 z m -12.24254,55.1268 H 383.16987 L 281.12341,399.69358 c -6.86401,7.93389 -17.58243,11.17475 -27.59048,8.34241 -0.52169,-0.14762 -1.8241,-0.4877 -3.81193,-0.9582 -3.48992,-0.82602 -7.48259,-1.66161 -11.88033,-2.44581 -19.23215,-3.42941 -38.97252,-4.67795 -56.75543,-2.55508 -19.19067,2.29092 -33.94983,8.31081 -43.49858,18.03926 -19.82849,20.2016 -39.589682,40.84435 -58.350092,60.80725 -4.43094,4.71496 -8.59021,9.16276 -12.4422,13.30052 l 22.99183,57.49641 c 2.48662,6.21839 2.6574,13.14646 0.48028,19.48388 l -34.8714,101.50729 c 0.94631,3.65256 1.29151,4.98506 3.24919,12.54209 4.26597,16.46808 9.01946,34.82235 14.13861,54.59382 14.62619,56.4901 29.252402,113.01969 42.903772,165.83682 33.77871,130.69186 55.84592,216.42446 61.22936,238.07356 26.04691,104.7517 42.62868,133.9319 104.84992,178.5411 64.30803,46.1053 199.32371,139.1885 224.41193,155.1638 3.1569,2.0101 6.41832,4.1981 10.57375,7.0655 1.54074,1.0632 8.41496,5.8461 10.26218,7.1188 10.47203,7.2158 17.49257,11.561 23.98512,14.6375 5.78136,2.7395 10.25448,3.9735 13.33792,3.9735 3.0834,0 7.55653,-1.234 13.33787,-3.9735 6.49257,-3.0765 13.51311,-7.4217 23.98515,-14.6375 1.84722,-1.2727 8.72142,-6.0556 10.26216,-7.1188 4.15545,-2.8674 7.41685,-5.0554 10.57375,-7.0655 25.08823,-15.9753 160.1039,-109.0585 224.41198,-155.1638 62.2212,-44.6092 78.8031,-73.7894 104.8496,-178.5401 5.3824,-21.6493 27.4494,-107.3818 60.98256,-237.12259 13.8988,-53.77369 28.5249,-110.30211 43.151,-166.79097 5.1191,-19.77088 9.8725,-38.12472 14.1385,-54.59244 1.9575,-7.55646 2.3027,-8.88919 3.249,-12.54129 l -34.8712,-101.50729 c -2.1771,-6.33742 -2.0064,-13.26549 0.4802,-19.48388 l 22.9919,-57.49641 c -3.8521,-4.13776 -8.0112,-8.58556 -12.4422,-13.30052 -18.7604,-19.9629 -38.5217,-40.60565 -58.35006,-60.80725 -9.5489,-9.72845 -24.3081,-15.74834 -43.4988,-18.03926 -17.7826,-2.12287 -37.5231,-0.87433 -56.7552,2.55508 -4.3978,0.7842 -8.3905,1.61979 -11.8805,2.44581 -1.9877,0.4705 -3.2901,0.81058 -3.8119,0.9582 -10.0081,2.83234 -20.7264,-0.40852 -27.5904,-8.34241 z M 564.3363,1053.0109 c 7.36298,0 54.53876,16.968 92.396,36.9247 37.85452,19.9595 65.28914,34.073 74.05973,39.6643 8.76789,5.5941 3.41957,16.1389 -4.56663,21.8916 -7.98889,5.7529 -115.33386,90.44 -125.7511,99.7998 -10.41994,9.3627 -25.72885,24.8228 -36.138,24.8228 -10.40921,0 -25.7208,-15.4601 -36.13805,-24.8228 -10.41994,-9.3598 -117.76221,-94.0469 -125.7511,-99.7998 -7.98888,-5.7527 -13.33452,-16.2975 -4.56662,-21.8916 8.77059,-5.5913 36.20518,-19.7048 74.06242,-39.6643 37.85184,-19.9567 85.03033,-36.9247 92.39335,-36.9247 z m 0.14555,-603.18823 c 1.92597,0.0304 22.87991,0.59897 53.57984,11.02481 32.23491,10.94718 67.15606,24.63113 83.27352,24.63113 16.11746,0 135.65523,-23.26272 135.65523,-23.26272 0,0 141.6618,174.47044 141.6618,211.75925 0,37.28875 -17.8206,47.13026 -35.7378,66.5149 -17.9173,19.38476 -96.1703,104.04458 -106.2194,114.91517 -10.0492,10.87334 -30.9698,27.3569 -18.664,57.02643 12.3056,29.66963 30.4593,67.42366 10.2722,105.71686 -20.1899,38.2931 -54.77527,63.8521 -76.93673,59.6264 -22.16153,-4.2283 -74.20749,-31.9381 -93.34697,-44.5959 -19.13949,-12.6577 -79.80021,-63.62777 -79.80021,-83.13009 0,-19.49955 62.70496,-54.51418 74.28804,-62.46994 11.58846,-7.95311 64.42686,-38.74483 65.50941,-50.83054 1.07987,-12.08834 0.66888,-15.63244 -14.92476,-45.49628 -15.59365,-29.8666 -43.67564,-69.71978 -39.00157,-96.23656 4.67407,-26.51401 49.96413,-40.30201 82.28501,-52.738 32.3155,-12.43322 94.54238,-35.91763 102.31368,-39.56851 7.7766,-3.65361 5.7674,-7.13208 -17.7829,-9.40637 -23.5451,-2.27427 -90.368,-11.31114 -120.49421,-2.75595 -30.12623,8.55522 -81.59463,21.5714 -85.76369,28.47357 -4.16905,6.9022 -7.84652,7.13484 -3.56464,30.94491 4.27918,23.81003 26.3225,138.06018 28.46074,158.35342 2.14094,20.29338 6.3261,33.70907 -15.15041,38.71197 -21.47921,5.00291 -57.63333,13.68948 -70.0572,13.68948 -12.4239,0 -48.58072,-8.68657 -70.05724,-13.68948 -21.4792,-5.0029 -17.29402,-18.41859 -15.15309,-38.71197 2.14091,-20.29324 24.18156,-134.54339 28.46343,-158.35342 4.27917,-23.81007 0.60171,-24.04271 -3.56465,-30.94491 -4.16906,-6.90217 -55.64015,-19.91835 -85.76637,-28.47357 -30.12621,-8.55519 -96.94651,0.48168 -120.49412,2.75595 -23.54761,2.27428 -25.55693,5.75276 -17.78293,9.40637 7.77399,3.65088 70.00081,27.13529 102.31631,39.56851 32.3182,12.43599 77.61094,26.22399 82.28501,52.738 4.67405,26.51678 -23.41063,66.36996 -39.00157,96.23656 -15.59365,29.86384 -16.00733,33.40794 -14.92477,45.49628 1.07987,12.08571 53.92097,42.87743 65.50674,50.83054 11.58575,7.95576 74.28805,42.97039 74.28805,62.46994 0,19.50232 -60.65806,70.47239 -79.79754,83.13009 -19.13948,12.6578 -71.18544,40.3676 -93.34695,44.5959 -22.16152,4.2257 -56.7469,-21.3333 -76.93668,-59.6264 -20.18712,-38.2932 -2.03349,-76.04723 10.2695,-105.71686 12.30567,-29.66953 -8.61211,-46.15309 -18.66402,-57.02643 -10.04656,-10.87059 -88.30219,-95.53041 -106.21943,-114.91517 -17.91725,-19.38464 -35.73509,-29.22615 -35.73509,-66.5149 0,-37.28881 141.66172,-211.75925 141.66172,-211.75925 0,0 119.53782,23.26272 135.65527,23.26272 16.11745,0 51.03863,-13.68396 83.27354,-24.63113 32.23491,-10.94715 53.72488,-11.02652 53.72488,-11.02652 z"/>
</svg>
