<?xml version="1.0" standalone="no"?>
<svg width="1536px" height="1536px" version="1.1" xmlns="http://www.w3.org/2000/svg">
    <path transform="scale(1, -1) translate(0, -1536)" glyph-name="btc" unicode="&#xf15a;" horiz-adv-x="1280" 

d="M1167 896c13 -133 -43 -213 -131 -258c146 -35 238 -122 220 -317c-23 -243 -203 -308 -461 -322v-255h-154v251c-39 0 -80 0 -122 1v-252h-154v255c-36 0 -72 1 -109 1h-200l31 183c113 -2 111 0 111 0c43 0 55 31 58 51v402h16c-6 1 -12 1 -16 1v287
c-6 32 -26 68 -89 68c0 0 2 2 -111 0v164l212 -1v0c31 0 64 0 97 1v252h154v-247c41 1 82 2 122 2v245h154v-252c198 -17 355 -78 372 -260zM952 351c0 198 -326 169 -430 169v-338c104 0 430 -22 430 169zM881 827c0 181 -272 154 -359 154v-307c87 0 359 -20 359 153z" />
</svg>