<svg width="1536" height="1536" xmlns="http://www.w3.org/2000/svg">
    <path d="M1167 640c13 133-43 213-131 258 146 35 238 122 220 317-23 243-203 308-461 322v255H641v-251c-39 0-80 0-122-1v252H365v-255c-36 0-72-1-109-1H56l31-183c113 2 111 0 111 0 43 0 55-31 58-51V900h16c-6-1-12-1-16-1V612c-6-32-26-68-89-68 0 0 2-2-111 0V380l212 1c31 0 64 0 97-1V128h154v247c41-1 82-2 122-2V128h154v252c198 17 355 78 372 260zm-215 545c0-198-326-169-430-169v338c104 0 430 22 430-169zm-71-476c0-181-272-154-359-154v307c87 0 359 20 359-153z"/>
</svg>
