<svg width="1536" height="1536" xmlns="http://www.w3.org/2000/svg">
    <path d="M1632 960c0 35-29 64-64 64h-224c0 125-27 219-67 290l208 209c25 25 25 65 0 90-12 13-29 19-45 19s-33-6-45-19l-198-197s-131 120-301 120V640H768v896c-181 0-313-132-313-132l-183 207c-13 14-30 21-48 21-15 0-30-5-43-16-26-24-28-64-5-91l202-227c-35-69-58-158-58-274H96c-35 0-64-29-64-64s29-64 64-64h224V602L147 429c-25-25-25-65 0-90s65-25 90 0l173 173h844l173-173c25-25 65-25 90 0s25 65 0 90l-173 173v294h224c35 0 64 29 64 64zm-480-576H512c0-177 143-320 320-320s320 143 320 320z"/>
</svg>
