<svg width="1536" height="1536" xmlns="http://www.w3.org/2000/svg">
    <path d="M384 1312v64c0 17-15 32-32 32h-64c-17 0-32-15-32-32v-64c0-17 15-32 32-32h64c17 0 32 15 32 32zm0-256v64c0 17-15 32-32 32h-64c-17 0-32-15-32-32v-64c0-17 15-32 32-32h64c17 0 32 15 32 32zm256 0v64c0 17-15 32-32 32h-64c-17 0-32-15-32-32v-64c0-17 15-32 32-32h64c17 0 32 15 32 32zM384 800v64c0 17-15 32-32 32h-64c-17 0-32-15-32-32v-64c0-17 15-32 32-32h64c17 0 32 15 32 32zm768 512v64c0 17-15 32-32 32h-64c-17 0-32-15-32-32v-64c0-17 15-32 32-32h64c17 0 32 15 32 32zm-256-256v64c0 17-15 32-32 32h-64c-17 0-32-15-32-32v-64c0-17 15-32 32-32h64c17 0 32 15 32 32zM640 800v64c0 17-15 32-32 32h-64c-17 0-32-15-32-32v-64c0-17 15-32 32-32h64c17 0 32 15 32 32zM384 544v64c0 17-15 32-32 32h-64c-17 0-32-15-32-32v-64c0-17 15-32 32-32h64c17 0 32 15 32 32zm768 512v64c0 17-15 32-32 32h-64c-17 0-32-15-32-32v-64c0-17 15-32 32-32h64c17 0 32 15 32 32zM896 800v64c0 17-15 32-32 32h-64c-17 0-32-15-32-32v-64c0-17 15-32 32-32h64c17 0 32 15 32 32zM640 544v64c0 17-15 32-32 32h-64c-17 0-32-15-32-32v-64c0-17 15-32 32-32h64c17 0 32 15 32 32zM384 288v64c0 17-15 32-32 32h-64c-17 0-32-15-32-32v-64c0-17 15-32 32-32h64c17 0 32 15 32 32zm768 512v64c0 17-15 32-32 32h-64c-17 0-32-15-32-32v-64c0-17 15-32 32-32h64c17 0 32 15 32 32zM896 544v64c0 17-15 32-32 32h-64c-17 0-32-15-32-32v-64c0-17 15-32 32-32h64c17 0 32 15 32 32zM640 288v64c0 17-15 32-32 32h-64c-17 0-32-15-32-32v-64c0-17 15-32 32-32h64c17 0 32 15 32 32zm512 256v64c0 17-15 32-32 32h-64c-17 0-32-15-32-32v-64c0-17 15-32 32-32h64c17 0 32 15 32 32zM896 288v64c0 17-15 32-32 32h-64c-17 0-32-15-32-32v-64c0-17 15-32 32-32h64c17 0 32 15 32 32zm256 0v64c0 17-15 32-32 32h-64c-17 0-32-15-32-32v-64c0-17 15-32 32-32h64c17 0 32 15 32 32zM896 1664h384V128H128v1536h384v-224c0-17 15-32 32-32h320c17 0 32 15 32 32v224zM1408 64v1664c0 35-29 64-64 64H64c-35 0-64-29-64-64V64C0 29 29 0 64 0h1280c35 0 64 29 64 64z"/>
</svg>
