<svg width="1536" height="1536" xmlns="http://www.w3.org/2000/svg">
    <path d="M1344 0c35 0 64 29 64 64v1664c0 35-29 64-64 64H64c-35 0-64-29-64-64V64C0 29 29 0 64 0h1280zM512 288v64c0 18 14 32 32 32h64c18 0 32-14 32-32v-64c0-18-14-32-32-32h-64c-18 0-32 14-32 32zm0 256v64c0 18 14 32 32 32h64c18 0 32-14 32-32v-64c0-18-14-32-32-32h-64c-18 0-32 14-32 32zm0 256v64c0 18 14 32 32 32h64c18 0 32-14 32-32v-64c0-18-14-32-32-32h-64c-18 0-32 14-32 32zm0 256v64c0 18 14 32 32 32h64c18 0 32-14 32-32v-64c0-18-14-32-32-32h-64c-18 0-32 14-32 32zm-128 320v-64c0-18-14-32-32-32h-64c-18 0-32 14-32 32v64c0 18 14 32 32 32h64c18 0 32-14 32-32zm0-256v-64c0-18-14-32-32-32h-64c-18 0-32 14-32 32v64c0 18 14 32 32 32h64c18 0 32-14 32-32zm0-256v-64c0-18-14-32-32-32h-64c-18 0-32 14-32 32v64c0 18 14 32 32 32h64c18 0 32-14 32-32zm0-256v-64c0-18-14-32-32-32h-64c-18 0-32 14-32 32v64c0 18 14 32 32 32h64c18 0 32-14 32-32zm0-256v-64c0-18-14-32-32-32h-64c-18 0-32 14-32 32v64c0 18 14 32 32 32h64c18 0 32-14 32-32zm512 1280v-192c0-18-14-32-32-32H544c-18 0-32 14-32 32v192c0 18 14 32 32 32h320c18 0 32-14 32-32zm0-512v-64c0-18-14-32-32-32h-64c-18 0-32 14-32 32v64c0 18 14 32 32 32h64c18 0 32-14 32-32zm0-256v-64c0-18-14-32-32-32h-64c-18 0-32 14-32 32v64c0 18 14 32 32 32h64c18 0 32-14 32-32zm0-256v-64c0-18-14-32-32-32h-64c-18 0-32 14-32 32v64c0 18 14 32 32 32h64c18 0 32-14 32-32zm0-256v-64c0-18-14-32-32-32h-64c-18 0-32 14-32 32v64c0 18 14 32 32 32h64c18 0 32-14 32-32zm256 1024v-64c0-18-14-32-32-32h-64c-18 0-32 14-32 32v64c0 18 14 32 32 32h64c18 0 32-14 32-32zm0-256v-64c0-18-14-32-32-32h-64c-18 0-32 14-32 32v64c0 18 14 32 32 32h64c18 0 32-14 32-32zm0-256v-64c0-18-14-32-32-32h-64c-18 0-32 14-32 32v64c0 18 14 32 32 32h64c18 0 32-14 32-32zm0-256v-64c0-18-14-32-32-32h-64c-18 0-32 14-32 32v64c0 18 14 32 32 32h64c18 0 32-14 32-32zm0-256v-64c0-18-14-32-32-32h-64c-18 0-32 14-32 32v64c0 18 14 32 32 32h64c18 0 32-14 32-32z"/>
</svg>
