<?xml version="1.0" standalone="no"?>
<svg width="1536px" height="1536px" version="1.1" xmlns="http://www.w3.org/2000/svg">
    <path transform="scale(1, -1) translate(0, -1536)" glyph-name="building_o" unicode="&#xf0f7;" horiz-adv-x="1408" 

d="M384 224v-64c0 -17 -15 -32 -32 -32h-64c-17 0 -32 15 -32 32v64c0 17 15 32 32 32h64c17 0 32 -15 32 -32zM384 480v-64c0 -17 -15 -32 -32 -32h-64c-17 0 -32 15 -32 32v64c0 17 15 32 32 32h64c17 0 32 -15 32 -32zM640 480v-64c0 -17 -15 -32 -32 -32h-64
c-17 0 -32 15 -32 32v64c0 17 15 32 32 32h64c17 0 32 -15 32 -32zM384 736v-64c0 -17 -15 -32 -32 -32h-64c-17 0 -32 15 -32 32v64c0 17 15 32 32 32h64c17 0 32 -15 32 -32zM1152 224v-64c0 -17 -15 -32 -32 -32h-64c-17 0 -32 15 -32 32v64c0 17 15 32 32 32h64
c17 0 32 -15 32 -32zM896 480v-64c0 -17 -15 -32 -32 -32h-64c-17 0 -32 15 -32 32v64c0 17 15 32 32 32h64c17 0 32 -15 32 -32zM640 736v-64c0 -17 -15 -32 -32 -32h-64c-17 0 -32 15 -32 32v64c0 17 15 32 32 32h64c17 0 32 -15 32 -32zM384 992v-64
c0 -17 -15 -32 -32 -32h-64c-17 0 -32 15 -32 32v64c0 17 15 32 32 32h64c17 0 32 -15 32 -32zM1152 480v-64c0 -17 -15 -32 -32 -32h-64c-17 0 -32 15 -32 32v64c0 17 15 32 32 32h64c17 0 32 -15 32 -32zM896 736v-64c0 -17 -15 -32 -32 -32h-64c-17 0 -32 15 -32 32v64
c0 17 15 32 32 32h64c17 0 32 -15 32 -32zM640 992v-64c0 -17 -15 -32 -32 -32h-64c-17 0 -32 15 -32 32v64c0 17 15 32 32 32h64c17 0 32 -15 32 -32zM384 1248v-64c0 -17 -15 -32 -32 -32h-64c-17 0 -32 15 -32 32v64c0 17 15 32 32 32h64c17 0 32 -15 32 -32zM1152 736
v-64c0 -17 -15 -32 -32 -32h-64c-17 0 -32 15 -32 32v64c0 17 15 32 32 32h64c17 0 32 -15 32 -32zM896 992v-64c0 -17 -15 -32 -32 -32h-64c-17 0 -32 15 -32 32v64c0 17 15 32 32 32h64c17 0 32 -15 32 -32zM640 1248v-64c0 -17 -15 -32 -32 -32h-64c-17 0 -32 15 -32 32
v64c0 17 15 32 32 32h64c17 0 32 -15 32 -32zM1152 992v-64c0 -17 -15 -32 -32 -32h-64c-17 0 -32 15 -32 32v64c0 17 15 32 32 32h64c17 0 32 -15 32 -32zM896 1248v-64c0 -17 -15 -32 -32 -32h-64c-17 0 -32 15 -32 32v64c0 17 15 32 32 32h64c17 0 32 -15 32 -32z
M1152 1248v-64c0 -17 -15 -32 -32 -32h-64c-17 0 -32 15 -32 32v64c0 17 15 32 32 32h64c17 0 32 -15 32 -32zM896 -128h384v1536h-1152v-1536h384v224c0 17 15 32 32 32h320c17 0 32 -15 32 -32v-224zM1408 1472v-1664c0 -35 -29 -64 -64 -64h-1280c-35 0 -64 29 -64 64
v1664c0 35 29 64 64 64h1280c35 0 64 -29 64 -64z" />
</svg>