<?xml version="1.0" standalone="no"?>
<svg width="1536px" height="1536px" version="1.1" xmlns="http://www.w3.org/2000/svg">
    <path transform="scale(1, -1) translate(0, -1536)" glyph-name="building" unicode="&#xf1ad;" 

d="M1344 1536c35 0 64 -29 64 -64v-1664c0 -35 -29 -64 -64 -64h-1280c-35 0 -64 29 -64 64v1664c0 35 29 64 64 64h1280zM512 1248v-64c0 -18 14 -32 32 -32h64c18 0 32 14 32 32v64c0 18 -14 32 -32 32h-64c-18 0 -32 -14 -32 -32zM512 992v-64c0 -18 14 -32 32 -32h64
c18 0 32 14 32 32v64c0 18 -14 32 -32 32h-64c-18 0 -32 -14 -32 -32zM512 736v-64c0 -18 14 -32 32 -32h64c18 0 32 14 32 32v64c0 18 -14 32 -32 32h-64c-18 0 -32 -14 -32 -32zM512 480v-64c0 -18 14 -32 32 -32h64c18 0 32 14 32 32v64c0 18 -14 32 -32 32h-64
c-18 0 -32 -14 -32 -32zM384 160v64c0 18 -14 32 -32 32h-64c-18 0 -32 -14 -32 -32v-64c0 -18 14 -32 32 -32h64c18 0 32 14 32 32zM384 416v64c0 18 -14 32 -32 32h-64c-18 0 -32 -14 -32 -32v-64c0 -18 14 -32 32 -32h64c18 0 32 14 32 32zM384 672v64
c0 18 -14 32 -32 32h-64c-18 0 -32 -14 -32 -32v-64c0 -18 14 -32 32 -32h64c18 0 32 14 32 32zM384 928v64c0 18 -14 32 -32 32h-64c-18 0 -32 -14 -32 -32v-64c0 -18 14 -32 32 -32h64c18 0 32 14 32 32zM384 1184v64c0 18 -14 32 -32 32h-64c-18 0 -32 -14 -32 -32v-64
c0 -18 14 -32 32 -32h64c18 0 32 14 32 32zM896 -96v192c0 18 -14 32 -32 32h-320c-18 0 -32 -14 -32 -32v-192c0 -18 14 -32 32 -32h320c18 0 32 14 32 32zM896 416v64c0 18 -14 32 -32 32h-64c-18 0 -32 -14 -32 -32v-64c0 -18 14 -32 32 -32h64c18 0 32 14 32 32z
M896 672v64c0 18 -14 32 -32 32h-64c-18 0 -32 -14 -32 -32v-64c0 -18 14 -32 32 -32h64c18 0 32 14 32 32zM896 928v64c0 18 -14 32 -32 32h-64c-18 0 -32 -14 -32 -32v-64c0 -18 14 -32 32 -32h64c18 0 32 14 32 32zM896 1184v64c0 18 -14 32 -32 32h-64
c-18 0 -32 -14 -32 -32v-64c0 -18 14 -32 32 -32h64c18 0 32 14 32 32zM1152 160v64c0 18 -14 32 -32 32h-64c-18 0 -32 -14 -32 -32v-64c0 -18 14 -32 32 -32h64c18 0 32 14 32 32zM1152 416v64c0 18 -14 32 -32 32h-64c-18 0 -32 -14 -32 -32v-64c0 -18 14 -32 32 -32h64
c18 0 32 14 32 32zM1152 672v64c0 18 -14 32 -32 32h-64c-18 0 -32 -14 -32 -32v-64c0 -18 14 -32 32 -32h64c18 0 32 14 32 32zM1152 928v64c0 18 -14 32 -32 32h-64c-18 0 -32 -14 -32 -32v-64c0 -18 14 -32 32 -32h64c18 0 32 14 32 32zM1152 1184v64c0 18 -14 32 -32 32
h-64c-18 0 -32 -14 -32 -32v-64c0 -18 14 -32 32 -32h64c18 0 32 14 32 32z" />
</svg>