<?xml version="1.0" standalone="no"?>
<svg width="1536px" height="1536px" version="1.1" xmlns="http://www.w3.org/2000/svg">
    <path transform="scale(1, -1) translate(0, -1536)" glyph-name="bullseye" unicode="&#xf140;" 

d="M1024 640c0 -141 -115 -256 -256 -256s-256 115 -256 256s115 256 256 256s256 -115 256 -256zM1152 640c0 212 -172 384 -384 384s-384 -172 -384 -384s172 -384 384 -384s384 172 384 384zM1280 640c0 -283 -229 -512 -512 -512s-512 229 -512 512s229 512 512 512
s512 -229 512 -512zM1408 640c0 353 -287 640 -640 640s-640 -287 -640 -640s287 -640 640 -640s640 287 640 640zM1536 640c0 -424 -344 -768 -768 -768s-768 344 -768 768s344 768 768 768s768 -344 768 -768z" />
</svg>