<?xml version="1.0" standalone="no"?>
<svg width="1536px" height="1536px" version="1.1" xmlns="http://www.w3.org/2000/svg">
    <path transform="scale(1, -1) translate(0, -1536)" glyph-name="bullhorn" unicode="&#xf0a1;" horiz-adv-x="1792" 

d="M1664 896c71 0 128 -57 128 -128s-57 -128 -128 -128v-384c0 -70 -58 -128 -128 -128c-178 148 -465 351 -812 380c-119 -40 -160 -179 -82 -259c-70 -115 20 -196 126 -279c-62 -122 -320 -124 -412 -39c-58 178 -144 356 -74 581h-122c-88 0 -160 72 -160 160v192
c0 88 72 160 160 160h480c384 0 704 224 896 384c70 0 128 -58 128 -128v-384zM1536 292v954c-261 -200 -514 -315 -768 -343v-270c254 -28 507 -141 768 -341z" />
</svg>