<svg xmlns="http://www.w3.org/2000/svg" width="1536" height="1792" viewBox="0 0 1536 1792">
    <path d="M540.291 1791.897c-25.993-.596-53.55-3.582-78.1-8.463l-2.354-.468-3.615.47c-15.903 2.066-32.202 3.672-51.252 5.048-10.893.788-26.42 1.547-39.119 1.915-17.787.514-39.078.514-56.62 0-108.43-3.189-204.519-23.66-259.632-55.314-28.975-16.642-45.65-35.856-49.016-56.476-.47-2.876-.587-4.449-.583-7.766 0-3.36.158-5.16.697-8.185 2.595-14.563 11.815-28.392 27.488-41.226 25.197-20.633 66.969-38.102 121.023-50.61 2.064-.477 3.774-.89 3.8-.915.024-.024-.718-1.318-1.653-2.873-11.188-18.598-20.766-37.282-29.19-56.938-28.115-65.611-40.754-137.2-36.746-208.127a464.176 464.176 0 0 1 64.884-211.762c29.997-50.23 69.062-94.173 115.52-129.946 17.201-13.245 36.294-25.872 54.998-36.375 1.85-1.038 3.4-1.922 3.447-1.965.047-.042-.582-.988-1.4-2.101-14.71-20.038-26.55-41.582-35.54-64.672-15.343-39.398-21.608-82.451-18.08-124.252 2.545-30.153 9.816-59.375 21.673-87.105a279.556 279.556 0 0 1 17.004-33.35c.828-1.386 1.478-2.586 1.445-2.666-.033-.08-.412-.563-.842-1.073-1.482-1.76-5.794-7.196-7.77-9.795-36.24-47.692-70.623-120.4-96.19-203.417-22.57-73.28-36.684-150.516-39.524-216.283-.376-8.712-.424-10.818-.487-21.5-.066-11.164.022-17.025.375-24.92 2.182-48.889 11.788-85.59 28.154-107.562C203.04 9.86 215.576 2.029 229.719.34c8.724-1.042 18.096.323 27.519 4.008 2.704 1.058 4.222 1.741 7.199 3.24 14.456 7.282 29.47 19.924 44.725 37.66 19.3 22.438 38.488 52.535 56.606 88.788 28.04 56.105 52.098 124.46 68.308 194.082 12.264 52.67 19.7 104.24 21.717 150.621.169 3.88.348 8.9.349 9.778 0 .655.025.728.204.654.111-.045 1.402-.49 2.868-.987 24.282-8.246 49.127-13.045 74.992-14.485 8.887-.495 20.323-.494 29.093.002 37.653 2.131 73.239 11.323 107.068 27.655 1.781.86 3.508 1.708 3.837 1.884 1.696.91 5.064 2.596 5.098 2.554.022-.028.525-.988 1.118-2.136a418.154 418.154 0 0 1 2.701-5.1c34.92-64.815 94.394-138.564 163.108-202.26 62.414-57.855 127.372-102.98 181.853-126.332 32.33-13.856 59.708-19.608 81.362-17.094 12.32 1.431 22.575 5.587 30.84 12.5 1.332 1.115 4.271 4.051 5.405 5.402 6.592 7.85 10.654 17.465 12.317 29.15.625 4.398.704 5.762.703 12.113 0 6.164-.083 7.773-.642 12.626-3.955 34.344-22.777 78.323-54.62 127.62-43.703 67.658-108.54 139.607-177.997 197.518-41.874 34.914-82.537 62.64-120.92 82.449-1.386.716-2.52 1.327-2.52 1.359 0 .032.343.793.763 1.692 14.04 30.053 22.651 62.296 25.423 95.187 1.465 17.391 1.315 34.162-.46 51.49-5.088 49.662-23.28 96.935-52.822 137.26-1.049 1.43-1.93 2.663-1.96 2.738-.03.076.344.351.854.63 2.423 1.32 9.68 5.507 13.25 7.644a463.872 463.872 0 0 1 76.956 57.668c7.969 7.37 17.953 17.354 25.273 25.27 36.32 39.278 65.452 84.253 86.372 133.348a463.992 463.992 0 0 1 36.544 158.445 450.72 450.72 0 0 1 0 45.957c-1.65 32.812-6.789 65.325-15.37 97.246-11.13 41.397-28.276 81.715-50.327 118.341-1.68 2.791-1.992 3.375-1.833 3.444.106.046 1.704.427 3.553.848 4.351.992 12.161 2.914 16.703 4.111 49.373 13.01 86.614 30.244 108.89 50.392 1.973 1.783 5.764 5.582 7.372 7.388 6.496 7.289 11.095 14.885 13.71 22.641 4.282 12.706 3.33 25.496-2.837 38.094-9.444 19.29-31.554 37.09-64.673 52.066-57.173 25.851-143.624 42.08-239.116 44.887-17.544.516-38.864.516-56.505 0-30.202-.883-59.733-3.12-87.758-6.644l-4.928-.62-1.092.218c-30.906 6.184-66.181 9.27-97.7 8.547zm16.633-85.925c5.422-.504 10.02-1.249 14.748-2.39 22.26-5.366 41.84-18.226 55.597-36.514 10.285-13.673 16.866-29.965 18.957-46.935.487-3.949.607-5.912.665-10.895.063-5.433-.067-8.152-.61-12.75-4.645-39.267-32.404-71.898-70.492-82.863-18.726-5.391-38.85-5.022-57.52 1.055-19.606 6.382-36.75 18.853-49.01 35.65-7.955 10.899-13.751 23.904-16.591 37.223-3.64 17.073-2.658 34.9 2.834 51.415 4.195 12.616 10.628 23.835 19.493 33.998 1.874 2.148 6.319 6.615 8.452 8.494 10.449 9.202 21.844 15.732 34.938 20.021 7.348 2.407 15.523 4.014 23.065 4.535.988.068 1.98.143 2.203.168 1.135.123 11.435-.042 13.27-.213z"/>
</svg>
