<svg xmlns="http://www.w3.org/2000/svg" width="1536" height="1792" viewBox="0 0 1536 1792">
    <path d="M533.997 1791.843c-23.327-.92-45.821-3.44-68.73-7.705l-5.561-1.036-7.188.888c-56.037 6.916-116.397 8.68-174.668 5.104-75.388-4.627-144.098-17.954-193.849-37.599-8.72-3.444-13.353-5.495-21.731-9.624-18.43-9.083-31.505-17.912-42.046-28.395-10.801-10.74-16.93-21.195-19.442-33.167-.655-3.123-.766-4.379-.781-8.855-.031-6.882.866-11.925 3.144-17.825 9.79-25.351 39.189-47.39 87.231-65.393 16.137-6.048 36.277-12.025 56.503-16.769 3.187-.748 5.844-1.401 5.903-1.453.058-.052-1.52-2.87-3.51-6.264-4.956-8.456-5.507-9.429-8.983-15.878-30.443-56.478-48.925-118.746-54.095-182.258-1.198-14.709-1.324-18.335-1.322-38.103.001-18.576.086-21.426 1.022-34.047 5.36-72.33 28.14-143.49 65.862-205.729 40.798-67.315 98.466-123.545 166.552-162.397l5.976-3.41-3.765-5.248c-2.07-2.886-3.828-5.414-3.906-5.617-.077-.204-.356-.37-.618-.37s-25.046 6.584-55.074 14.63c-30.03 8.047-54.625 14.599-54.658 14.56-.136-.157-5.612-20.906-5.538-20.98.043-.044 23.283-6.294 51.642-13.888 28.359-7.595 51.603-13.845 51.654-13.89.053-.044-1.348-2.799-3.11-6.121-4.545-8.575-8.523-17.14-12.559-27.047l-1.24-3.043-44.255-.073-44.256-.074v-21.73h81.057l-.842-2.97c-3.012-10.62-6.006-24.7-7.592-35.694-.83-5.755-1.033-6.677-1.513-6.875-.304-.126-15.933-4.343-34.729-9.37-18.796-5.03-34.213-9.18-34.259-9.227-.074-.073 5.404-20.8 5.544-20.977.03-.038 13.914 3.645 30.853 8.186 16.94 4.54 30.882 8.254 30.984 8.254.101 0 .194-4.857.203-10.793.03-14.407.811-25.537 2.765-39.19 5.168-36.113 17.121-70.196 35.947-102.5 2.318-3.978 2.32-3.983 1.788-4.677a412.203 412.203 0 0 0-3.31-4.131c-34.048-42.134-68.308-110.608-94.14-188.158-42.956-128.95-58.149-265.542-38.41-345.315 9.062-36.622 25.324-59.8 47.008-66.997 8.84-2.935 16.667-3.356 26.438-1.424 24.803 4.907 52.56 27.856 79.685 65.88 58.591 82.137 108.623 224.448 124.739 354.81 2.69 21.764 4.499 43.57 4.99 60.182.105 3.538.284 6.582.397 6.766.145.235 1.514-.105 4.663-1.158 23.5-7.864 48.377-12.546 74.124-13.95 7.91-.43 27.47-.184 34.79.44 36.83 3.135 70.317 12.353 102.325 28.166l7.14 3.527 1.526-2.941c2.422-4.664 8.45-15.442 12.09-21.616 32.872-55.753 82.905-117.362 139.876-172.238 59.239-57.063 122.78-103.88 177.622-130.874 46.169-22.724 84.018-30.613 110.425-23.016 14.38 4.137 25.557 13.447 31.817 26.502 10.536 21.975 7.511 54.359-8.878 95.041-6.045 15.005-14.598 32.364-24.289 49.294-37.253 65.085-97.612 137.613-166.013 199.485-42.495 38.439-87.25 71.79-127.784 95.226-6.204 3.587-16.147 9.022-20.322 11.109-1.811.905-3.327 1.675-3.368 1.712-.04.036.591 1.488 1.406 3.226 11.3 24.128 19.63 52.783 23.281 80.092 1.492 11.158 2.48 25.101 2.48 34.992v5.062l.653-.132c.358-.073 13.672-3.625 29.587-7.894 18.651-5.003 29.003-7.654 29.124-7.458.29.47 5.652 20.622 5.517 20.734-.064.054-14.95 4.063-33.078 8.908l-32.958 8.81-.133.87c-.074.478-.406 3.256-.742 6.173-.822 7.151-1.813 13.426-3.327 21.064-1.163 5.864-3.598 16.403-4.068 17.603-.188.481 1.742.507 38.08.507h38.28v22.022h-83.357l-1.537 4.129c-3.307 8.883-8.17 19.891-12.633 28.596-1.343 2.62-2.32 4.84-2.169 4.932.151.093 22.154 6.024 48.898 13.18 26.743 7.157 48.678 13.054 48.744 13.105.142.11-5.207 20.225-5.508 20.712-.147.236-15.324-3.716-51.745-13.474-28.347-7.594-51.732-13.806-51.967-13.804-.234 0-1.08 1.009-1.877 2.237-1.855 2.86-5.772 8.481-8.194 11.756-1.037 1.404-1.77 2.652-1.627 2.774.141.122 2.54 1.507 5.33 3.079 57.097 32.174 108.794 78.802 147.776 133.287 44.354 61.994 72.824 134.365 82.7 210.22 4.374 33.591 5.007 67.38 1.898 101.271-6.352 69.241-28.678 137.406-64.38 196.564-1.094 1.812-1.95 3.324-1.904 3.36.047.035 3.542.882 7.765 1.882 64.001 15.149 110.476 37.81 131.647 64.193 6.596 8.219 10.892 16.994 12.707 25.955.576 2.847.668 4.142.652 9.25-.03 6.388-.39 8.975-2.043 14.278-4.812 15.434-17.576 30.213-37.636 43.579-40.342 26.878-111.62 47.34-196.601 56.44-38.175 4.088-79.904 5.902-117.827 5.123-21.74-.447-35.843-1.072-53.566-2.376-15.112-1.112-33.705-2.95-46.216-4.568l-4.202-.543-5.94 1.094c-20.426 3.761-40.016 6.056-61.718 7.23-7.764.419-29.78.582-37.524.277zm-21.298-827.06c9.133-2.177 16.235-6.188 22.47-12.693l2.33-2.432 2.293 2.425a43.36 43.36 0 0 0 18.4 11.57c5.278 1.68 7.132 1.945 13.618 1.947 6.565 0 9.337-.424 14.454-2.223 15.288-5.374 26.449-18.57 29.12-34.43.229-1.354.51-5.168.623-8.475l.206-6.013h-20.292l-.139 5.578c-.15 6.14-.462 7.833-2.096 11.409-3.137 6.865-9.184 11.838-16.567 13.625-2.937.711-8.283.637-11.25-.156-6.27-1.675-11.546-5.622-14.858-11.114-1.287-2.134-2.91-6.658-2.444-6.813.268-.09.35-3.557.35-14.71 0-13.954.031-14.608.545-14.97.299-.208 11.183-6.507 24.185-13.998 13.002-7.49 23.645-13.718 23.65-13.84 0-.229-10.605-18.741-10.953-19.102-.105-.11-2.735 1.27-5.843 3.067-44.297 25.618-42.971 24.878-43.75 24.424-10.524-6.13-47.605-27.454-47.832-27.507-.308-.072-11.266 18.468-11.261 19.05 0 .16 10.64 6.418 23.64 13.908 13.002 7.49 23.884 13.79 24.184 13.998.52.362.544 1.016.544 14.97 0 10.732.09 14.622.333 14.704.228.076.087.847-.448 2.458-2.352 7.06-8.353 12.874-15.596 15.11-6.373 1.966-13.157 1.228-19.06-2.072-2.617-1.464-7.2-5.903-8.651-8.379-2.583-4.408-3.265-7.194-3.443-14.062l-.144-5.577h-20.274l.194 5.867c.104 3.227.383 7.041.615 8.476 2.89 17.836 16.806 32.38 34.491 36.046 4.148.86 4.096.856 10.107.753 4.652-.08 5.977-.207 8.548-.82zm116.714-181.721c18.778-3.997 33.197-26.075 35.729-54.71.426-4.818.184-15.371-.458-20.056-3.209-23.39-14.476-41.834-29.515-48.318-20.105-8.668-41.534 6.318-49.878 34.879-2.563 8.773-3.476 15.492-3.48 25.609 0 11.822 1.488 20.84 5.11 30.86 1.126 3.114 4.116 9.376 5.742 12.024 3.371 5.492 9.192 11.81 13.564 14.724 7.28 4.852 15.508 6.621 23.186 4.988zm-3.562-53.875c-2.2-.697-3.774-1.708-5.688-3.652-8.736-8.873-10.232-27.097-3.255-39.653 1.248-2.247 4.905-6.05 6.688-6.957 3.416-1.737 6.535-1.799 9.854-.195 3.552 1.715 6.249 4.738 8.483 9.504 2.342 4.998 3.382 10.814 3.092 17.28-.517 11.5-5.709 21.032-12.817 23.53-1.796.632-4.617.695-6.357.143zm-146.937 49.257c5.573-1.671 10.1-4.385 14.74-8.835 9.647-9.256 15.837-22.58 18.518-39.862.85-5.478 1.058-17.583.402-23.334-2.038-17.872-8.31-32.523-18.115-42.315-4.948-4.942-9.424-7.816-14.647-9.404-20.28-6.166-40.214 10.073-47.66 38.824-1.996 7.712-2.748 13.975-2.746 22.891.003 9.467.936 16.68 3.175 24.509 4.812 16.824 13.527 29.14 24.767 35 5.358 2.793 8.545 3.532 14.64 3.396 3.691-.082 4.736-.214 6.926-.87zm-4.863-53.211c-4.522-1.135-9.084-6.003-11.51-12.282-1.5-3.886-2.026-6.774-2.202-12.09-.123-3.775-.052-5.48.335-7.823 1.492-9.058 5.68-15.862 11.46-18.616 1.65-.786 2.189-.897 4.36-.897 2.278 0 2.656.087 4.668 1.082 1.663.822 2.67 1.593 4.187 3.205 3.2 3.403 4.963 6.874 6.43 12.664.71 2.805.771 3.506.771 8.982 0 5.482-.059 6.175-.773 8.983-2.554 10.058-8.166 16.566-14.618 16.955-1.09.065-2.49-.007-3.108-.163z"/>
</svg>
