<svg xmlns="http://www.w3.org/2000/svg" width="1536" height="1792" viewBox="0 0 1536 1792">
    <path d="M540.35 1791.898c-25.927-.584-53.594-3.58-78.16-8.464l-2.356-.468-3.613.47c-28.121 3.654-59.427 6.066-90.37 6.964-17.715.514-39.099.513-56.62 0-108.43-3.188-204.518-23.66-259.632-55.313-28.973-16.641-45.65-35.857-49.016-56.476-.47-2.876-.587-4.449-.583-7.766.003-3.363.158-5.162.697-8.187 3.214-18.037 16.642-35.005 39.645-50.095 25.683-16.849 63.011-31.16 108.863-41.739 2.063-.475 3.773-.887 3.8-.915.028-.028-.794-1.451-1.825-3.165a465.685 465.685 0 0 1-30.182-59.395c-27.293-64.828-39.53-135.467-35.579-205.38a464.216 464.216 0 0 1 61.111-205.33A464.203 464.203 0 0 1 261.651 963.51c19.261-15.173 39.915-28.922 61.52-40.954.788-.438 1.162-.709 1.106-.8-.047-.075-.717-.997-1.49-2.05a329.251 329.251 0 0 1-6.345-8.994l-1.582-2.33-4.9 1.314c-64.393 17.268-113.225 30.325-113.264 30.286-.086-.086-5.662-20.98-5.612-21.03.024-.024 25.211-6.786 55.967-15.024 30.757-8.238 55.946-14.998 55.977-15.023.03-.024-.04-.21-.157-.414-.735-1.27-3.344-6.271-4.977-9.538a278.38 278.38 0 0 1-9.992-22.329l-.677-1.71h-98.133l.031-10.924.031-10.924 45.29-.028c24.91-.015 45.291-.065 45.291-.11 0-.044-.127-.5-.283-1.013-.53-1.748-1.796-6.407-2.602-9.585-2.381-9.379-4.26-18.874-5.695-28.772-.248-1.714-.469-3.133-.49-3.155-.022-.021-17.901-4.822-39.732-10.667-21.831-5.846-39.736-10.666-39.789-10.712-.073-.063 5.412-20.916 5.541-21.064.015-.018 16.187 4.298 35.938 9.59s35.928 9.604 35.95 9.583c.021-.022-.013-1.207-.073-2.636-.446-10.319-.169-22.697.751-33.601 3.611-42.784 16.711-83.583 38.679-120.458.826-1.387 1.475-2.586 1.442-2.665-.033-.08-.411-.562-.841-1.072-1.482-1.76-5.794-7.195-7.77-9.795-39.225-51.618-76.237-132.57-102.052-223.214-19.206-67.436-31.083-136.762-33.662-196.485-.378-8.746-.425-10.827-.488-21.5-.065-11.161.025-17.04.376-24.92 2.182-48.892 11.787-85.589 28.154-107.562C203.043 9.86 215.579 2.029 229.722.34c8.724-1.043 18.075.32 27.519 4.009 2.698 1.054 4.218 1.738 7.199 3.24 14.46 7.283 29.466 19.918 44.725 37.658 30.4 35.343 60.476 89.75 85.7 155.026 32.112 83.1 53.62 176.198 59.77 258.705.666 8.932 1.505 25.327 1.51 29.52v.72l2.87-.97c27.983-9.45 56.115-14.376 84.989-14.883 41.195-.723 82.67 7.963 120.522 25.24 3.041 1.388 7.418 3.485 9.467 4.536l3.273 1.68c1.099.563 2.016 1.003 2.038.975.022-.028.526-.989 1.12-2.136a417.949 417.949 0 0 1 2.7-5.1C718.049 433.738 777.513 360 846.233 296.3c62.417-57.859 127.37-102.98 181.854-126.333 32.33-13.856 59.708-19.608 81.362-17.094 12.32 1.431 22.575 5.587 30.84 12.5 1.333 1.115 4.271 4.051 5.405 5.402 7.32 8.719 11.453 19.422 12.798 33.149.415 4.234.354 12.578-.13 17.908-3.157 34.768-22.42 80.35-55.548 131.438-32.94 50.8-78.357 104.774-128.795 153.063-49.593 47.48-101.501 87.401-149.751 115.17a498.207 498.207 0 0 1-19.733 10.749c-1.387.715-2.521 1.325-2.521 1.354 0 .031.595 1.342 1.323 2.917 14.862 32.151 23.68 67.647 25.447 102.428.065 1.275.144 2.74.176 3.255.032.516.113 3.46.18 6.544.066 3.083.132 5.618.146 5.631.012.013 11.16-2.96 24.77-6.61 13.61-3.65 24.765-6.622 24.79-6.603.105.082 5.656 20.973 5.592 21.043-.04.043-12.695 3.459-28.122 7.591l-28.05 7.514-.084.406c-.046.223-.218 1.807-.381 3.52-1.282 13.414-3.844 27.992-7.266 41.336a350.16 350.16 0 0 0-.874 3.448l-.057.261h66.79v21.79l-36.822.028-36.821.028-1.352 3.593c-4.528 12.035-9.562 23.164-15.38 34.005-.664 1.236-1.164 2.285-1.112 2.332.052.046 20.201 5.469 44.776 12.05 24.576 6.58 44.715 11.998 44.755 12.04.066.07-5.483 20.952-5.59 21.04-.025.022-21.509-5.715-47.742-12.748-26.232-7.032-47.782-12.8-47.888-12.819-.136-.024-.627.614-1.671 2.17a289.254 289.254 0 0 1-6.629 9.44c-1.048 1.432-1.93 2.664-1.959 2.739-.03.076.343.351.853.63 2.424 1.32 9.68 5.507 13.25 7.644 27.67 16.568 53.244 35.732 76.957 57.668 7.969 7.37 17.953 17.354 25.273 25.27 50.365 54.467 86.797 119.802 106.622 191.21 13.145 47.347 18.7 96.743 16.352 145.44a464.283 464.283 0 0 1-40.711 168.934c-7.43 16.43-16.046 32.844-25.22 48.044-1.55 2.57-1.822 3.085-1.66 3.154.107.045 1.707.427 3.556.848 1.848.422 5.557 1.307 8.24 1.967 60.502 14.881 104.327 36.173 125.733 61.085 8.893 10.351 13.777 20.812 15.094 32.336.27 2.364.272 7.118 0 9.504-.913 8.115-3.476 15.365-8.08 22.865-12.026 19.585-37.273 37.381-73.852 52.057-57.23 22.961-138.285 37.154-227.09 39.765-17.544.516-38.864.516-56.505 0-30.202-.883-59.733-3.119-87.757-6.644l-4.928-.62-1.382.276c-2.084.417-7.874 1.475-10.945 2-28.4 4.861-58.453 7.118-86.409 6.489zm19.994-21.896c25.768-.74 49.911-3.439 74.647-8.343l3.423-.679 2.083.28c51.14 6.857 108.041 9.203 162.73 6.709 88.32-4.029 167.151-19.869 218.427-43.89 30.686-14.376 49.757-31.317 53.365-47.404 1.42-6.332.51-12.422-2.837-18.988-3.782-7.417-10.586-14.825-20.342-22.145-12.866-9.653-30.626-18.79-52.092-26.802-18.79-7.012-39.83-13.038-63.807-18.274-2.04-.446-8.99-1.866-15.445-3.156-6.454-1.29-11.735-2.388-11.735-2.44 0-.052 2.382-3.705 5.293-8.118 7.223-10.948 8.678-13.215 12.404-19.325 10.185-16.7 19.537-34.693 27.522-52.954 27.981-63.99 40.486-134.603 36.087-203.78-5.418-85.204-35.085-166.551-85.746-235.117-13.577-18.376-27.78-34.772-44.431-51.29-27.523-27.303-58.191-50.614-91.925-69.872-6.799-3.88-10.196-5.706-20.489-11.005-4.526-2.33-8.273-4.274-8.326-4.32-.052-.045 2.213-2.866 5.035-6.268 6.171-7.44 8.084-9.827 11.224-14.01 2.666-3.552 5.275-7.175 5.208-7.233-.024-.021-12.353-3.333-27.398-7.36-15.044-4.028-27.445-7.35-27.556-7.384-.112-.033-.203-.122-.203-.198 0-.198 5.536-20.837 5.608-20.91.033-.033 13.904 3.65 30.824 8.184 16.92 4.533 30.845 8.243 30.944 8.243.43 0 6.602-11.628 9.904-18.661a269.772 269.772 0 0 0 5.813-13.33l.82-2.028-41.261-.028-41.261-.027v-21.791H796.8l.112-.26c.061-.144.375-1.2.698-2.348a260.378 260.378 0 0 0 7.65-37.544c.188-1.462.327-2.673.307-2.692-.018-.019-21.274 5.656-47.234 12.612s-47.228 12.619-47.263 12.584c-.076-.076-5.61-20.709-5.61-20.917 0-.081.012-.148.03-.148.148 0 101.667-27.245 101.721-27.299.139-.139.157-9.036.028-13.24-1.091-35.254-8.734-68.273-23.157-100.05-2.12-4.67-4.441-9.333-8.312-16.696-1.894-3.602-3.453-6.59-3.465-6.642-.012-.05 3.368-1.698 7.511-3.66 16.554-7.839 27.796-13.853 42.886-22.944 74.286-44.75 155.99-118.126 218.718-196.424 36.259-45.26 63.73-88.905 80.031-127.15 15.53-36.438 19.576-66.09 11.298-82.802-4.967-10.028-14.278-15.3-28.899-16.366-2.449-.178-9.689-.073-12.243.177-13.002 1.276-26.285 4.57-42.075 10.435-30.732 11.417-66.976 31.739-104.629 58.667-39.757 28.433-79.762 63.02-117.492 101.577-53.975 55.16-99.211 114.788-126.928 167.312-2.1 3.98-5.755 11.318-8.937 17.943-2.114 4.402-2.873 5.877-3.004 5.843-.097-.025-2.68-1.508-5.74-3.294-10.104-5.898-14.515-8.307-20.921-11.425-20.554-10.005-41.267-17.003-63.343-21.401-20.775-4.14-41.854-5.71-62.358-4.645-25.66 1.333-50.895 6.43-74.876 15.124-4.57 1.656-7.414 2.792-17.313 6.912a2121.35 2121.35 0 0 1-9.462 3.926c-.019 0-.06-6.95-.093-15.445-.058-14.44-.107-17.283-.43-25.065-3.607-87.04-27.004-191.59-63.037-281.685-18.441-46.107-39.199-86.073-60.64-116.751-14.557-20.829-29.236-36.98-43.054-47.372-10.293-7.742-19.68-12.072-28.34-13.074-2.052-.237-5.93-.178-7.647.117-7.733 1.328-14.542 5.945-20.52 13.914-18.827 25.1-27.358 78.548-23.521 147.376 3.502 62.824 17.078 135.033 38.378 204.112 16.58 53.773 37.085 103.475 59.704 144.71 10.254 18.693 20.847 35.372 31.506 49.608 5.36 7.158 9.322 11.976 16.208 19.705a1409.54 1409.54 0 0 1 3.573 4.018c.147.173-.169.705-2.957 4.984-6.854 10.516-10.66 17.03-15.396 26.35-16.243 31.96-25.621 66.646-27.686 102.403-.576 9.973-.534 20.85.12 30.947.101 1.562.193 2.847.204 2.855.012.01 17.805 4.778 39.544 10.597 21.738 5.82 39.562 10.613 39.61 10.652.046.04-1.182 4.79-2.73 10.557-2.243 8.36-2.85 10.483-2.995 10.472-.1-.008-15.996-4.25-35.325-9.43-19.328-5.18-35.167-9.392-35.197-9.363-.07.071 1.092 6.405 1.76 9.592 1.806 8.612 4.274 18.029 6.697 25.557l.373 1.16 33.057.027 33.057.028v21.906h-28.919c-16.648 0-28.919.043-28.919.102 0 .167 2.064 4.829 3.541 8 2.596 5.574 6.508 13.148 9.402 18.209.843 1.474 1.068 1.79 1.257 1.756.127-.02 8.993-2.386 19.703-5.255 10.71-2.869 19.52-5.224 19.576-5.234.094-.016 5.807 21.01 5.726 21.074-.052.04-32.613 8.754-32.715 8.754-.165 0 .036.32 1.396 2.216 3.875 5.403 6.805 9.142 13.885 17.715 4.198 5.085 5.371 6.574 5.259 6.676-.08.072-3.718 1.973-8.085 4.225-8.335 4.297-11.844 6.161-16.633 8.838-25.92 14.488-49.912 31.22-72.326 50.44-18.778 16.103-36.56 34.16-52.281 53.094-46.959 56.548-79.035 123.737-93.462 195.766-7.767 38.782-10.298 78.574-7.482 117.646 3.511 48.712 14.914 96.08 33.955 141.054 7.34 17.335 16.45 35.43 26 51.641 4.777 8.111 7.64 12.635 16.174 25.557 2.778 4.206 5.014 7.68 4.969 7.72-.046.039-4.855 1.021-10.688 2.182-5.833 1.16-12.423 2.498-14.645 2.972-63.919 13.641-111.57 34.704-131.75 58.236-4.547 5.303-7.717 10.99-9.037 16.214-.644 2.548-.746 3.425-.748 6.446-.002 2.41.035 2.983.269 4.288.934 5.215 3.376 10.444 7.306 15.648 2.957 3.916 7.35 8.415 11.892 12.179 27.752 23 80.602 42.209 148.245 53.88 55.988 9.66 120.182 13.655 182.612 11.363 29.868-1.097 56.918-3.357 86.061-7.192l2.318-.305 4.115.82c24.998 4.98 50.701 7.826 75.861 8.399 3.687.084 16.386.06 19.762-.037zm-57.838-804.174c-10.686-.433-21.005-4.902-28.732-12.444-7.454-7.276-11.824-16.098-13.179-26.607-.138-1.074-.202-2.852-.245-6.868l-.058-5.42 10.067.031 10.067.031.066 4.984c.071 5.314.1 5.621.76 8.23 1.155 4.562 3.89 8.957 7.52 12.082 3.555 3.062 7.662 4.946 12.355 5.668 1.608.247 5.012.276 6.537.054 4.523-.655 8.568-2.391 12.006-5.153 3.92-3.15 6.865-7.655 8.157-12.48l.278-1.04h-.794l-.03-14.677-.031-14.676-5.564-3.212a179232.5 179232.5 0 0 0-24.108-13.912c-10.2-5.884-18.584-10.733-18.63-10.773-.139-.12 11-19.31 11.2-19.292.095.009 11.078 6.311 24.407 14.007 13.329 7.695 24.298 13.967 24.376 13.937.078-.031 11.04-6.347 24.36-14.038 13.32-7.69 24.259-13.97 24.309-13.952.05.018 2.59 4.36 5.643 9.65 4.856 8.412 5.529 9.635 5.363 9.749-.104.071-9.526 5.519-20.937 12.104a42983.234 42983.234 0 0 0-23.992 13.854l-3.246 1.88-.03 14.675-.031 14.675h-.795l.292 1.063c.435 1.59.798 2.545 1.6 4.211 3.437 7.149 10.206 12.114 18.192 13.346 1.767.272 5.122.273 6.907 0 7.325-1.114 13.546-5.28 17.293-11.58 1.514-2.545 2.454-5.081 3.06-8.259.16-.84.211-2.022.267-6.085l.069-5.042 10.067-.03 10.067-.032-.057 5.478c-.059 5.683-.144 6.85-.725 9.94-1.41 7.498-4.914 14.738-9.985 20.638-1.19 1.385-3.612 3.793-4.937 4.908a44.376 44.376 0 0 1-24.598 10.268c-2.023.183-6.424.156-8.403-.053-8.574-.902-16.466-4.115-23.066-9.388-2.435-1.946-4.97-4.423-6.57-6.417l-.215-.27-.4.502c-.22.275-.956 1.102-1.634 1.836-3.548 3.842-8.334 7.34-13.229 9.669-5.16 2.454-11.221 3.999-16.433 4.187-.86.031-1.826.07-2.144.088-.319.018-1.44 0-2.492-.047zm120.138-182.152c-6.211-.648-11.538-2.799-16.719-6.75-11.543-8.802-19.73-25.192-22.155-44.351-.568-4.485-.643-5.872-.644-11.88-.002-6 .075-7.426.633-11.823 2.471-19.451 10.735-35.897 22.445-44.67 4.48-3.355 8.922-5.301 14.354-6.288 1.681-.306 6.87-.307 8.693-.002 9.762 1.631 18.46 7.856 25.294 18.1 2.788 4.178 5.417 9.5 7.274 14.72 5.03 14.144 6.314 30.709 3.58 46.19-3.817 21.617-14.827 38.427-29.136 44.482a31.688 31.688 0 0 1-7.302 2.056c-1.167.179-5.319.32-6.317.216zm10.49-54.345c1.352-.438 2.804-1.187 3.9-2.014 1.144-.862 3.016-2.801 3.881-4.021 2.901-4.09 4.804-9.56 5.442-15.641.21-2.01.179-6.477-.06-8.462-.882-7.321-3.544-13.607-7.41-17.504-6.646-6.695-15.134-4.965-20.591 4.197-2.221 3.728-3.757 8.733-4.296 14.003-.196 1.915-.166 6.077.059 8.113.826 7.485 3.638 14.021 7.732 17.975 1.183 1.142 2.037 1.777 3.286 2.44 1.946 1.036 3.187 1.325 5.449 1.272 1.388-.033 1.765-.085 2.608-.358zm-163.462 50.125c-6.84-.778-13.315-3.896-19.059-9.176-14.835-13.639-22.531-40.13-19.153-65.929 2.65-20.232 11.563-37.12 23.978-45.428 4.003-2.679 8.147-4.365 12.586-5.122 1.796-.306 5.55-.42 7.384-.224 10.218 1.09 19.67 7.548 26.81 18.32 10.057 15.173 14.295 36.94 11.293 57.992-1.67 11.71-5.6 22.635-11.18 31.083-2.109 3.192-3.984 5.503-6.542 8.063-5.72 5.725-12.082 9.155-19.014 10.252-1.416.223-5.722.326-7.103.17zm11.164-54.305c6.912-2.169 12.2-11.01 13.203-22.075.067-.733.121-2.324.121-3.535 0-5.233-.898-9.99-2.71-14.352-1.714-4.128-4.459-7.78-7.233-9.624-4.872-3.24-9.955-2.718-14.62 1.5-1.642 1.485-3.296 3.83-4.653 6.597-4.657 9.495-4.595 22.617.15 32.097 2.498 4.99 6.095 8.391 10.01 9.465 1.813.498 4 .47 5.732-.073z"/>
</svg>
