<svg width="1536" height="1536" xmlns="http://www.w3.org/2000/svg">
    <path d="M384 1216c0-71-57-128-128-128s-128 57-128 128 57 128 128 128 128-57 128-128zm1024 0c0-71-57-128-128-128s-128 57-128 128 57 128 128 128 128-57 128-128zm-46-396l-72-384c-6-30-32-52-63-52H309c-31 0-57 22-63 52l-72 384c-7 40 23 76 63 76h1062c40 0 70-36 63-76zm-226-612c0-27-21-48-48-48H448c-26 0-48 21-48 48s22 48 48 48h640c27 0 48-21 48-48zm400 725v603h-128v128c0 71-57 128-128 128s-128-57-128-128v-128H384v128c0 71-57 128-128 128s-128-57-128-128v-128H0V933c0-82 7-143 25-223l103-454C147 96 427 0 768 0s621 96 640 256l105 454c18 80 23 141 23 223z"/>
</svg>
