<?xml version="1.0" standalone="no"?>
<svg width="1536px" height="1536px" version="1.1" xmlns="http://www.w3.org/2000/svg">
    <path transform="scale(1, -1) translate(0, -1536)" glyph-name="bus" unicode="&#xf207;" 

d="M384 320c0 71 -57 128 -128 128s-128 -57 -128 -128s57 -128 128 -128s128 57 128 128zM1408 320c0 71 -57 128 -128 128s-128 -57 -128 -128s57 -128 128 -128s128 57 128 128zM1362 716l-72 384c-6 30 -32 52 -63 52h-918c-31 0 -57 -22 -63 -52l-72 -384
c-7 -40 23 -76 63 -76h1062c40 0 70 36 63 76zM1136 1328c0 27 -21 48 -48 48h-640c-26 0 -48 -21 -48 -48s22 -48 48 -48h640c27 0 48 21 48 48zM1536 603v-603h-128v-128c0 -71 -57 -128 -128 -128s-128 57 -128 128v128h-768v-128c0 -71 -57 -128 -128 -128
s-128 57 -128 128v128h-128v603c0 82 7 143 25 223l103 454c19 160 299 256 640 256s621 -96 640 -256l105 -454c18 -80 23 -141 23 -223z" />
</svg>