<?xml version="1.0" encoding="UTF-8" standalone="no"?><svg xmlns="http://www.w3.org/2000/svg" xmlns:xlink="http://www.w3.org/1999/xlink" style="isolation:isolate" viewBox="0 0 884 1279" width="884pt" height="1279pt"><defs><clipPath id="_clipPath_HVV9jgnW0Wwdm7oM7MBnOzz7pYaiEbbJ"><rect width="884" height="1279"/></clipPath></defs><g clip-path="url(#_clipPath_HVV9jgnW0Wwdm7oM7MBnOzz7pYaiEbbJ)"><path d=" M 791.109 297.518 L 790.231 297.002 L 788.201 296.383 C 789.018 297.072 790.04 297.472 791.109 297.518 L 791.109 297.518 L 791.109 297.518 Z " fill="rgb(0,0,0)"/><line x1="803.896" y1="388.891" x2="802.916" y2="389.166"/><path d=" M 791.484 297.377 C 791.359 297.361 791.237 297.332 791.118 297.29 C 791.111 297.371 791.111 297.453 791.118 297.534 C 791.252 297.516 791.379 297.462 791.484 297.377 L 791.484 297.377 L 791.484 297.377 Z " fill="rgb(0,0,0)"/><path d=" M 791.113 297.529 L 791.244 297.529 L 791.244 297.447 L 791.113 297.529 L 791.113 297.529 Z " fill="rgb(0,0,0)"/><path d=" M 803.111 388.726 L 804.591 387.883 L 805.142 387.573 L 805.641 387.04 C 804.702 387.444 803.846 388.016 803.111 388.726 L 803.111 388.726 L 803.111 388.726 Z " fill="rgb(0,0,0)"/><path d=" M 793.669 299.515 L 792.223 298.138 L 791.243 297.605 C 791.77 298.535 792.641 299.221 793.669 299.515 L 793.669 299.515 L 793.669 299.515 Z " fill="rgb(0,0,0)"/><path d=" M 430.019 1186.18 C 428.864 1186.68 427.852 1187.46 427.076 1188.45 L 427.988 1187.87 C 428.608 1187.3 429.485 1186.63 430.019 1186.18 Z " fill="rgb(0,0,0)"/><path d=" M 641.187 1144.63 C 641.187 1143.33 640.551 1143.57 640.705 1148.21 C 640.705 1147.84 640.86 1147.46 640.929 1147.1 C 641.015 1146.27 641.084 1145.46 641.187 1144.63 Z " fill="rgb(0,0,0)"/><path d=" M 619.284 1186.18 C 618.129 1186.68 617.118 1187.46 616.342 1188.45 L 617.254 1187.87 C 617.873 1187.3 618.751 1186.63 619.284 1186.18 Z " fill="rgb(0,0,0)"/><path d=" M 281.304 1196.06 C 280.427 1195.3 279.354 1194.8 278.207 1194.61 C 279.136 1195.06 280.065 1195.51 280.684 1195.85 L 281.304 1196.06 L 281.304 1196.06 Z " fill="rgb(0,0,0)"/><path d=" M 247.841 1164.01 C 247.704 1162.66 247.288 1161.35 246.619 1160.16 C 247.093 1161.39 247.489 1162.66 247.806 1163.94 L 247.841 1164.01 L 247.841 1164.01 Z " fill="rgb(0,0,0)"/><path d=" M 472.623 590.836 C 426.682 610.503 374.546 632.802 306.976 632.802 C 278.71 632.746 250.58 628.868 223.353 621.274 L 270.086 1101.08 C 271.74 1121.13 280.876 1139.83 295.679 1153.46 C 310.482 1167.09 329.87 1174.65 349.992 1174.65 C 349.992 1174.65 416.254 1178.09 438.365 1178.09 C 462.161 1178.09 533.516 1174.65 533.516 1174.65 C 553.636 1174.65 573.019 1167.08 587.819 1153.45 C 602.619 1139.82 611.752 1121.13 613.406 1101.08 L 663.459 570.876 C 641.091 563.237 618.516 558.161 593.068 558.161 C 549.054 558.144 513.591 573.303 472.623 590.836 Z " fill="rgb(0,0,0)"/><path d=" M 78.689 386.132 L 79.48 386.872 L 79.996 387.182 C 79.599 386.787 79.16 386.435 78.689 386.132 L 78.689 386.132 L 78.689 386.132 Z " fill="rgb(0,0,0)"/><path d=" M 879.567 341.849 L 872.53 306.352 C 866.215 274.503 851.882 244.409 819.19 232.898 C 808.711 229.215 796.821 227.633 788.786 220.01 C 780.751 212.388 778.376 200.55 776.518 189.572 C 773.076 169.423 769.842 149.257 766.314 129.143 C 763.269 111.85 760.86 92.424 752.928 76.56 C 742.604 55.258 721.182 42.801 699.88 34.559 C 688.965 30.484 677.826 27.038 666.517 24.235 C 613.297 10.195 557.342 5.033 502.591 2.09 C 436.875 -1.536 370.983 -0.443 305.422 5.36 C 256.625 9.799 205.229 15.167 158.858 32.047 C 141.91 38.224 124.445 45.64 111.558 58.734 C 95.745 74.822 90.583 99.703 102.128 119.765 C 110.336 134.012 124.239 144.078 138.985 150.737 C 158.192 159.317 178.251 165.846 198.829 170.215 C 256.126 182.879 315.471 187.851 374.007 189.968 C 438.887 192.586 503.87 190.464 568.44 183.618 C 584.408 181.863 600.347 179.758 616.257 177.304 C 634.995 174.43 647.022 149.928 641.499 132.859 C 634.891 112.453 617.134 104.538 597.055 107.618 C 594.095 108.082 591.153 108.512 588.193 108.942 L 586.06 109.252 C 579.257 110.113 572.455 110.915 565.653 111.661 C 551.601 113.175 537.515 114.414 523.394 115.378 C 491.768 117.58 460.057 118.595 428.363 118.647 C 397.219 118.647 366.058 117.769 334.983 115.722 C 320.805 114.793 306.661 113.611 292.552 112.177 C 286.134 111.506 279.733 110.801 273.333 110.009 L 267.241 109.235 L 265.917 109.046 L 259.602 108.134 C 246.697 106.189 233.792 103.953 221.025 101.251 C 219.737 100.965 218.584 100.249 217.758 99.219 C 216.932 98.19 216.482 96.91 216.482 95.59 C 216.482 94.271 216.932 92.99 217.758 91.961 C 218.584 90.932 219.737 90.215 221.025 89.929 L 221.266 89.929 C 232.33 87.572 243.479 85.559 254.663 83.804 C 258.392 83.219 262.131 82.645 265.882 82.083 L 265.985 82.083 C 272.988 81.619 280.026 80.363 286.994 79.537 C 347.624 73.23 408.614 71.08 469.538 73.101 C 499.115 73.962 528.676 75.7 558.116 78.694 C 564.448 79.347 570.746 80.036 577.043 80.81 C 579.452 81.103 581.878 81.447 584.305 81.739 L 589.191 82.445 C 603.438 84.567 617.61 87.142 631.708 90.17 C 652.597 94.713 679.422 96.193 688.713 119.077 C 691.673 126.338 693.015 134.408 694.649 142.03 L 696.731 151.752 C 696.786 151.926 696.826 152.105 696.852 152.285 C 701.773 175.227 706.7 198.169 711.632 221.111 C 711.994 222.806 712.002 224.557 711.657 226.255 C 711.312 227.954 710.621 229.562 709.626 230.982 C 708.632 232.401 707.355 233.6 705.877 234.504 C 704.398 235.408 702.75 235.997 701.033 236.236 L 700.895 236.236 L 697.884 236.649 L 694.908 237.044 C 685.478 238.272 676.038 239.419 666.586 240.486 C 647.968 242.608 629.322 244.443 610.648 245.992 C 573.539 249.077 536.356 251.102 499.098 252.066 C 480.114 252.57 461.135 252.806 442.162 252.771 C 366.643 252.712 291.189 248.322 216.173 239.625 C 208.051 238.662 199.93 237.629 191.808 236.58 C 198.106 237.389 187.231 235.96 185.029 235.651 C 179.867 234.928 174.705 234.177 169.543 233.397 C 152.216 230.798 134.993 227.598 117.7 224.793 C 96.794 221.352 76.801 223.073 57.891 233.397 C 42.369 241.891 29.806 254.916 21.878 270.735 C 13.722 287.597 11.296 305.956 7.648 324.075 C 4 342.193 -1.678 361.688 0.473 380.288 C 5.101 420.431 33.165 453.054 73.531 460.35 C 111.506 467.232 149.687 472.807 187.971 477.556 C 338.361 495.975 490.294 498.178 641.155 484.129 C 653.44 482.982 665.708 481.732 677.959 480.378 C 681.786 479.958 685.658 480.398 689.292 481.668 C 692.926 482.938 696.23 485.005 698.962 487.717 C 701.694 490.429 703.784 493.718 705.08 497.342 C 706.377 500.967 706.846 504.836 706.453 508.665 L 702.633 545.797 C 694.936 620.828 687.239 695.854 679.542 770.874 C 671.513 849.657 663.431 928.434 655.298 1007.2 C 653.004 1029.39 650.71 1051.57 648.416 1073.74 C 646.213 1095.58 645.904 1118.1 641.757 1139.68 C 635.218 1173.61 612.248 1194.45 578.73 1202.07 C 548.022 1209.06 516.652 1212.73 485.161 1213.01 C 450.249 1213.2 415.355 1211.65 380.443 1211.84 C 343.173 1212.05 297.525 1208.61 268.756 1180.87 C 243.479 1156.51 239.986 1118.36 236.545 1085.37 C 231.957 1041.7 227.409 998.039 222.9 954.381 L 197.607 711.615 L 181.244 554.538 C 180.968 551.94 180.693 549.376 180.435 546.76 C 178.473 528.023 165.207 509.681 144.301 510.627 C 126.407 511.418 106.069 526.629 108.168 546.76 L 120.298 663.214 L 145.385 904.104 C 152.532 972.528 159.661 1040.96 166.773 1109.41 C 168.15 1122.52 169.44 1135.67 170.885 1148.78 C 178.749 1220.43 233.465 1259.04 301.224 1269.91 C 340.799 1276.28 381.337 1277.59 421.497 1278.24 C 472.979 1279.07 524.977 1281.05 575.615 1271.72 C 650.653 1257.95 706.952 1207.85 714.987 1130.13 C 717.282 1107.69 719.576 1085.25 721.87 1062.8 C 729.498 988.559 737.115 914.313 744.72 840.061 L 769.601 597.451 L 781.009 486.263 C 781.577 480.749 783.905 475.565 787.649 471.478 C 791.392 467.391 796.352 464.617 801.794 463.567 C 823.25 459.386 843.761 452.245 859.023 435.916 C 883.318 409.918 888.153 376.021 879.567 341.849 Z  M 72.43 365.835 C 72.757 365.68 72.155 368.484 71.897 369.792 C 71.845 367.813 71.948 366.058 72.43 365.835 Z  M 74.512 381.94 C 74.684 381.819 75.2 382.508 75.734 383.334 C 74.925 382.576 74.409 382.009 74.495 381.94 L 74.512 381.94 L 74.512 381.94 Z  M 76.56 384.641 C 77.3 385.897 77.695 386.689 76.56 384.641 L 76.56 384.641 L 76.56 384.641 Z  M 80.672 387.979 L 80.775 387.979 C 80.775 388.1 80.965 388.22 81.033 388.341 C 80.919 388.208 80.793 388.087 80.655 387.979 L 80.672 387.979 L 80.672 387.979 Z  M 800.796 382.989 C 793.088 390.319 781.473 393.726 769.996 395.43 C 641.292 414.529 510.713 424.199 380.597 419.932 C 287.476 416.749 195.336 406.407 103.144 393.382 C 94.11 392.109 84.32 390.457 78.108 383.798 C 66.408 371.237 72.155 345.944 75.2 330.768 C 77.988 316.865 83.322 298.334 99.857 296.355 C 125.667 293.327 155.64 304.218 181.175 308.09 C 211.917 312.781 242.774 316.538 273.745 319.36 C 405.925 331.405 540.325 329.529 671.92 311.91 C 695.905 308.686 719.805 304.941 743.619 300.674 C 764.835 296.871 788.356 289.731 801.175 311.703 C 809.967 326.673 811.137 346.701 809.778 363.615 C 809.359 370.984 806.139 377.915 800.779 382.989 L 800.796 382.989 L 800.796 382.989 Z " fill="rgb(0,0,0)"/></g></svg>
