<svg xmlns="http://www.w3.org/2000/svg" viewBox="0 0 1536 1792" height="1792" width="1536">
    <path d="M281.092 1776.695c-.004-.34-69.059-438.788-69.117-438.846-.04-.038-15.566.101-34.503.31-18.938.209-34.456.357-34.484.328-.044-.044-106.812-601.917-107.089-603.684l-.098-.623h40.577c35.07 0 40.577-.028 40.577-.21 0-.237-51.445-327.228-51.562-327.738l-.076-.33H13.983v-185.26h132.71l1.456-3.338c.801-1.835 20.89-48.073 44.644-102.751l43.187-99.415 370.436.037 370.436.036 44.346 102.092c24.39 56.15 44.48 102.372 44.644 102.715l.297.623h140.527v185.261h-55.27l-.157.917c-.21 1.221-51.506 327.167-51.506 327.276 0 .047 17.398.085 38.661.085 36.75 0 38.658.015 38.591.257-.038.14-24.147 136.067-53.574 302.058-29.427 165.99-53.548 301.853-53.602 301.917-.055.064-14.714-.045-32.576-.242-17.862-.197-32.492-.344-32.51-.327-.02.018-15.548 98.609-34.509 219.093-18.961 120.485-34.512 219.244-34.559 219.466l-.083.404h-327.24c-179.98 0-327.239-.05-327.24-.11zm604.198-58.746c0-.021 13.49-85.682 29.97-190.359l29.964-190.321-4.338-.11c-2.386-.06-78.992-.91-170.237-1.885L604.75 1333.5l-166.516 1.817c-91.585 1-166.563 1.865-166.62 1.921-.075.074 59.258 377.756 59.752 380.344l.077.403h276.92c152.305 0 276.923-.015 276.927-.035zm-484.43-441.056l205.064-2.223 207.304 2.24c114.017 1.232 207.33 2.214 207.36 2.182.048-.049 85.83-483.58 86.126-485.469l.098-.623H105.922l.08.33c.043.181 19.429 109.473 43.078 242.87 23.65 133.399 43.025 242.624 43.057 242.725.042.134.548.185 1.859.187.99 0 94.08-.997 206.864-2.22zm639.672-545.17c3.922-24.724 51.241-325.613 51.212-325.643-.022-.023-103.301.496-229.509 1.153-126.207.657-240.194 1.196-253.304 1.197-13.11.001-126.676-.535-252.369-1.193-125.693-.657-229.228-1.177-230.078-1.155l-1.545.041 25.818 164.029 25.818 164.029h863.567zm84.187-384.738l23.127-.099v-67.425H72.804v67.473l14.41.038c33.787.09 1016.492.101 1037.505.014zm-129.78-142.442c-.046-.141-12.817-29.564-28.38-65.384L938.262 74.03l-331.848-.036-331.848-.036-28.082 64.65a921606.268 921606.268 0 0 1-28.418 65.42l-.336.77h388.646c370.072 0 388.641-.011 388.563-.256z"/>
</svg>
