<svg xmlns="http://www.w3.org/2000/svg" width="1536" height="1792" viewBox="0 0 1536 1792">
    <path d="M1061.513 716.58S1038.87 505.484 829.42 499.62C619.968 493.76 512.4 657.945 512.4 892.495s118.88 422.2 322.674 422.2c203.797 0 226.439-234.55 226.439-234.55l390.603 23.452s22.999 211.838-140.455 373.458c-163.457 161.608-364.087 188.012-504.196 186.914-140.11-1.118-334.37 2.195-522.228-190.21C97.379 1281.35 65.5 1094.437 65.5 910.827c0-183.617 35.625-426.856 258.991-611.309C476.296 174.181 630.183 128 784.096 128c642.535 0 685.69 592.617 685.69 592.617l-408.273-4.036z"/>
</svg>
