<svg width="1536" height="1536" xmlns="http://www.w3.org/2000/svg">
    <path d="M384 1536c0-71-57-128-128-128s-128 57-128 128 57 128 128 128 128-57 128-128zm384 0c0-71-57-128-128-128s-128 57-128 128 57 128 128 128 128-57 128-128zm-384-384c0-71-57-128-128-128s-128 57-128 128 57 128 128 128 128-57 128-128zm768 384c0-71-57-128-128-128s-128 57-128 128 57 128 128 128 128-57 128-128zm-384-384c0-71-57-128-128-128s-128 57-128 128 57 128 128 128 128-57 128-128zM384 768c0-71-57-128-128-128s-128 57-128 128 57 128 128 128 128-57 128-128zm768 384c0-71-57-128-128-128s-128 57-128 128 57 128 128 128 128-57 128-128zM768 768c0-71-57-128-128-128s-128 57-128 128 57 128 128 128 128-57 128-128zm768 768v-384c0-70-58-128-128-128s-128 58-128 128v384c0 70 58 128 128 128s128-58 128-128zm-384-768c0-71-57-128-128-128s-128 57-128 128 57 128 128 128 128-57 128-128zm384-320V192c0-35-29-64-64-64H192c-35 0-64 29-64 64v256c0 35 29 64 64 64h1280c35 0 64-29 64-64zm0 320c0-71-57-128-128-128s-128 57-128 128 57 128 128 128 128-57 128-128zm128-640v1536c0 70-58 128-128 128H128c-70 0-128-58-128-128V128C0 58 58 0 128 0h1408c70 0 128 58 128 128z"/>
</svg>
