<?xml version="1.0" standalone="no"?>
<svg width="1536px" height="1536px" version="1.1" xmlns="http://www.w3.org/2000/svg">
    <path transform="scale(1, -1) translate(0, -1536)" glyph-name="calculator" unicode="&#xf1ec;" horiz-adv-x="1792" 

d="M384 0c0 71 -57 128 -128 128s-128 -57 -128 -128s57 -128 128 -128s128 57 128 128zM768 0c0 71 -57 128 -128 128s-128 -57 -128 -128s57 -128 128 -128s128 57 128 128zM384 384c0 71 -57 128 -128 128s-128 -57 -128 -128s57 -128 128 -128s128 57 128 128zM1152 0
c0 71 -57 128 -128 128s-128 -57 -128 -128s57 -128 128 -128s128 57 128 128zM768 384c0 71 -57 128 -128 128s-128 -57 -128 -128s57 -128 128 -128s128 57 128 128zM384 768c0 71 -57 128 -128 128s-128 -57 -128 -128s57 -128 128 -128s128 57 128 128zM1152 384
c0 71 -57 128 -128 128s-128 -57 -128 -128s57 -128 128 -128s128 57 128 128zM768 768c0 71 -57 128 -128 128s-128 -57 -128 -128s57 -128 128 -128s128 57 128 128zM1536 0v384c0 70 -58 128 -128 128v0c-70 0 -128 -58 -128 -128v-384c0 -70 58 -128 128 -128v0
c70 0 128 58 128 128zM1152 768c0 71 -57 128 -128 128s-128 -57 -128 -128s57 -128 128 -128s128 57 128 128zM1536 1088v256c0 35 -29 64 -64 64h-1280c-35 0 -64 -29 -64 -64v-256c0 -35 29 -64 64 -64h1280c35 0 64 29 64 64zM1536 768c0 71 -57 128 -128 128
s-128 -57 -128 -128s57 -128 128 -128s128 57 128 128zM1664 1408v-1536c0 -70 -58 -128 -128 -128h-1408c-70 0 -128 58 -128 128v1536c0 70 58 128 128 128h1408c70 0 128 -58 128 -128z" />
</svg>