<svg width="1536" height="1536" xmlns="http://www.w3.org/2000/svg">
    <path d="M1303 964l-512 512c-13 12-33 12-46 0l-288-288c-12-13-12-33 0-45l46-46c12-12 32-12 45 0l220 220 444-444c13-12 33-12 45 0l46 46c12 12 12 32 0 45zM128 1664h1408V640H128v1024zM512 448V160c0-18-14-32-32-32h-64c-18 0-32 14-32 32v288c0 18 14 32 32 32h64c18 0 32-14 32-32zm768 0V160c0-18-14-32-32-32h-64c-18 0-32 14-32 32v288c0 18 14 32 32 32h64c18 0 32-14 32-32zm384-64v1280c0 70-58 128-128 128H128c-70 0-128-58-128-128V384c0-70 58-128 128-128h128v-96C256 72 328 0 416 0h64c88 0 160 72 160 160v96h384v-96c0-88 72-160 160-160h64c88 0 160 72 160 160v96h128c70 0 128 58 128 128z"/>
</svg>
