<svg width="1536" height="1536" xmlns="http://www.w3.org/2000/svg">
    <path d="M1536 256c70 0 128 58 128 128v1280c0 70-58 128-128 128H128c-70 0-128-58-128-128V384c0-70 58-128 128-128h128v-96C256 72 328 0 416 0h64c88 0 160 72 160 160v96h384v-96c0-88 72-160 160-160h64c88 0 160 72 160 160v96h128zm-384-96v288c0 18 14 32 32 32h64c18 0 32-14 32-32V160c0-18-14-32-32-32h-64c-18 0-32 14-32 32zm-768 0v288c0 18 14 32 32 32h64c18 0 32-14 32-32V160c0-18-14-32-32-32h-64c-18 0-32 14-32 32zm1152 1504V640H128v1024h1408zm-640-576h224c18 0 32 14 32 32v64c0 18-14 32-32 32H896v224c0 18-14 32-32 32h-64c-18 0-32-14-32-32v-224H544c-18 0-32-14-32-32v-64c0-18 14-32 32-32h224V864c0-18 14-32 32-32h64c18 0 32 14 32 32v224z"/>
</svg>
