<svg width="1536" height="1536" xmlns="http://www.w3.org/2000/svg">
    <path d="M128 1664h288v-288H128v288zm352 0h320v-288H480v288zm-352-352h288V992H128v320zm352 0h320V992H480v320zM128 928h288V640H128v288zm736 736h320v-288H864v288zM480 928h320V640H480v288zm768 736h288v-288h-288v288zm-384-352h320V992H864v320zM512 448V160c0-17-15-32-32-32h-64c-17 0-32 15-32 32v288c0 17 15 32 32 32h64c17 0 32-15 32-32zm736 864h288V992h-288v320zM864 928h320V640H864v288zm384 0h288V640h-288v288zm32-480V160c0-17-15-32-32-32h-64c-17 0-32 15-32 32v288c0 17 15 32 32 32h64c17 0 32-15 32-32zm384-64v1280c0 70-58 128-128 128H128c-70 0-128-58-128-128V384c0-70 58-128 128-128h128v-96C256 72 328 0 416 0h64c88 0 160 72 160 160v96h384v-96c0-88 72-160 160-160h64c88 0 160 72 160 160v96h128c70 0 128 58 128 128z"/>
</svg>
