<?xml version="1.0" standalone="no"?>
<svg width="1536px" height="1536px" version="1.1" xmlns="http://www.w3.org/2000/svg">
    <path transform="scale(1, -1) translate(0, -1536)" glyph-name="calendar_plus_o" unicode="&#xf271;" horiz-adv-x="1792" 

d="M1536 1280c70 0 128 -58 128 -128v-1280c0 -70 -58 -128 -128 -128h-1408c-70 0 -128 58 -128 128v1280c0 70 58 128 128 128h128v96c0 88 72 160 160 160h64c88 0 160 -72 160 -160v-96h384v96c0 88 72 160 160 160h64c88 0 160 -72 160 -160v-96h128zM1152 1376v-288
c0 -18 14 -32 32 -32h64c18 0 32 14 32 32v288c0 18 -14 32 -32 32h-64c-18 0 -32 -14 -32 -32zM384 1376v-288c0 -18 14 -32 32 -32h64c18 0 32 14 32 32v288c0 18 -14 32 -32 32h-64c-18 0 -32 -14 -32 -32zM1536 -128v1024h-1408v-1024h1408zM896 448h224
c18 0 32 -14 32 -32v-64c0 -18 -14 -32 -32 -32h-224v-224c0 -18 -14 -32 -32 -32h-64c-18 0 -32 14 -32 32v224h-224c-18 0 -32 14 -32 32v64c0 18 14 32 32 32h224v224c0 18 14 32 32 32h64c18 0 32 -14 32 -32v-224z" />
</svg>