<?xml version="1.0" standalone="no"?>
<svg width="1536px" height="1536px" version="1.1" xmlns="http://www.w3.org/2000/svg">
    <path transform="scale(1, -1) translate(0, -1536)" glyph-name="calendar" unicode="&#xf073;" horiz-adv-x="1664" 

d="M128 -128h288v288h-288v-288zM480 -128h320v288h-320v-288zM128 224h288v320h-288v-320zM480 224h320v320h-320v-320zM128 608h288v288h-288v-288zM864 -128h320v288h-320v-288zM480 608h320v288h-320v-288zM1248 -128h288v288h-288v-288zM864 224h320v320h-320v-320z
M512 1088v288c0 17 -15 32 -32 32h-64c-17 0 -32 -15 -32 -32v-288c0 -17 15 -32 32 -32h64c17 0 32 15 32 32zM1248 224h288v320h-288v-320zM864 608h320v288h-320v-288zM1248 608h288v288h-288v-288zM1280 1088v288c0 17 -15 32 -32 32h-64c-17 0 -32 -15 -32 -32v-288
c0 -17 15 -32 32 -32h64c17 0 32 15 32 32zM1664 1152v-1280c0 -70 -58 -128 -128 -128h-1408c-70 0 -128 58 -128 128v1280c0 70 58 128 128 128h128v96c0 88 72 160 160 160h64c88 0 160 -72 160 -160v-96h384v96c0 88 72 160 160 160h64c88 0 160 -72 160 -160v-96h128
c70 0 128 -58 128 -128z" />
</svg>