<?xml version="1.0" standalone="no"?>
<svg width="1536px" height="1536px" version="1.1" xmlns="http://www.w3.org/2000/svg">
    <path transform="scale(1, -1) translate(0, -1536)" glyph-name="calendar_o" unicode="&#xf133;" horiz-adv-x="1664" 

d="M128 -128h1408v1024h-1408v-1024zM512 1088v288c0 18 -14 32 -32 32h-64c-18 0 -32 -14 -32 -32v-288c0 -18 14 -32 32 -32h64c18 0 32 14 32 32zM1280 1088v288c0 18 -14 32 -32 32h-64c-18 0 -32 -14 -32 -32v-288c0 -18 14 -32 32 -32h64c18 0 32 14 32 32zM1664 1152
v-1280c0 -70 -58 -128 -128 -128h-1408c-70 0 -128 58 -128 128v1280c0 70 58 128 128 128h128v96c0 88 72 160 160 160h64c88 0 160 -72 160 -160v-96h384v96c0 88 72 160 160 160h64c88 0 160 -72 160 -160v-96h128c70 0 128 -58 128 -128z" />
</svg>