<?xml version="1.0" standalone="no"?>
<svg width="1536px" height="1536px" version="1.1" xmlns="http://www.w3.org/2000/svg">
    <path transform="scale(1, -1) translate(0, -1536)" glyph-name="camera_retro" unicode="&#xf083;" horiz-adv-x="1792" 

d="M928 704c0 18 -14 32 -32 32c-88 0 -160 -72 -160 -160c0 -18 14 -32 32 -32s32 14 32 32c0 53 43 96 96 96c18 0 32 14 32 32zM1152 574c0 -141 -115 -256 -256 -256s-256 115 -256 256s115 256 256 256s256 -115 256 -256zM128 0h1536v128h-1536v-128zM1280 574
c0 212 -172 384 -384 384s-384 -172 -384 -384s172 -384 384 -384s384 172 384 384zM256 1216h384v128h-384v-128zM128 1024h1536v118v138h-828l-64 -128h-644v-128zM1792 1280v-1280c0 -71 -57 -128 -128 -128h-1536c-71 0 -128 57 -128 128v1280c0 71 57 128 128 128h1536
c71 0 128 -57 128 -128z" />
</svg>