<svg width="1536" height="1536" xmlns="http://www.w3.org/2000/svg">
    <path d="M928 832c0-18-14-32-32-32-88 0-160 72-160 160 0 18 14 32 32 32s32-14 32-32c0-53 43-96 96-96 18 0 32-14 32-32zm224 130c0 141-115 256-256 256s-256-115-256-256 115-256 256-256 256 115 256 256zM128 1536h1536v-128H128v128zm1152-574c0-212-172-384-384-384S512 750 512 962s172 384 384 384 384-172 384-384zM256 320h384V192H256v128zM128 512h1536V256H836l-64 128H128v128zm1664-256v1280c0 71-57 128-128 128H128c-71 0-128-57-128-128V256c0-71 57-128 128-128h1536c71 0 128 57 128 128z"/>
</svg>
