<?xml version="1.0" standalone="no"?>
<svg width="1536px" height="1536px" version="1.1" xmlns="http://www.w3.org/2000/svg">
    <path transform="scale(1, -1) translate(0, -1536)" glyph-name="camera" unicode="&#xf030;" horiz-adv-x="1920" 

d="M960 864c159 0 288 -129 288 -288s-129 -288 -288 -288s-288 129 -288 288s129 288 288 288zM1664 1280c141 0 256 -115 256 -256v-896c0 -141 -115 -256 -256 -256h-1408c-141 0 -256 115 -256 256v896c0 141 115 256 256 256h224l51 136c25 66 103 120 173 120h512
c70 0 148 -54 173 -120l51 -136h224zM960 128c247 0 448 201 448 448s-201 448 -448 448s-448 -201 -448 -448s201 -448 448 -448z" />
</svg>