<svg width="1536" height="1792" viewBox="0 0 1536 1792" xmlns="http://www.w3.org/2000/svg">
    <path d="M 640.00002,256 C 286.51849,256 0,542.53157 0,896.01762 0,1249.4631 286.523,1536 640.00002,1536 993.46802,1536 1280.0087,1249.4676 1280.0087,896.01762 1280.0087,542.53157 993.46351,256 640.00002,256 Z m 0,155.68523 c 267.51101,0 484.32348,216.83967 484.32348,484.32359 0,267.52458 -216.81247,484.30598 -484.32348,484.30598 -267.50198,0 -484.30599,-216.7814 -484.30599,-484.30598 0,-267.48392 216.80401,-484.32359 484.30599,-484.32359 z m 0.0181,76.80243 c -225.0786,0 -407.52992,182.42925 -407.52992,407.51236 0,225.13278 182.45132,407.52108 407.52992,407.52108 225.08762,0 407.52108,-182.3883 407.52108,-407.52108 0,-225.08311 -182.43797,-407.51236 -407.52108,-407.51236 z"/>
</svg>
