<svg width="1536" height="1536" xmlns="http://www.w3.org/2000/svg">
    <path d="M480 1088c0-88-72-160-160-160s-160 72-160 160 72 160 160 160 160-72 160-160zm36-320h1016l-89-357c-3-11-23-27-35-27H640c-12 0-32 16-35 27zm1372 320c0-88-72-160-160-160s-160 72-160 160 72 160 160 160 160-72 160-160zm160-96v384c0 18-14 32-32 32h-96v128c0 106-86 192-192 192s-192-86-192-192v-128H512v128c0 106-86 192-192 192s-192-86-192-192v-128H32c-18 0-32-14-32-32V992c0-124 100-224 224-224h28l105-419c31-126 153-221 283-221h768c130 0 252 95 283 221l105 419h28c124 0 224 100 224 224z"/>
</svg>
