<?xml version="1.0" standalone="no"?>
<svg width="1536px" height="1536px" version="1.1" xmlns="http://www.w3.org/2000/svg">
    <path transform="scale(1, -1) translate(0, -1536)" glyph-name="car" unicode="&#xf1b9;" horiz-adv-x="2048" 

d="M480 448c0 88 -72 160 -160 160s-160 -72 -160 -160s72 -160 160 -160s160 72 160 160zM516 768h1016l-89 357c-3 11 -23 27 -35 27h-768c-12 0 -32 -16 -35 -27zM1888 448c0 88 -72 160 -160 160s-160 -72 -160 -160s72 -160 160 -160s160 72 160 160zM2048 544v-384
c0 -18 -14 -32 -32 -32h-96v-128c0 -106 -86 -192 -192 -192s-192 86 -192 192v128h-1024v-128c0 -106 -86 -192 -192 -192s-192 86 -192 192v128h-96c-18 0 -32 14 -32 32v384c0 124 100 224 224 224h28l105 419c31 126 153 221 283 221h768c130 0 252 -95 283 -221
l105 -419h28c124 0 224 -100 224 -224z" />
</svg>