<?xml version="1.0" standalone="no"?>
<svg width="1536px" height="1536px" version="1.1" xmlns="http://www.w3.org/2000/svg">
    <path transform="scale(1, -1) translate(0, -1536)" glyph-name="caret_square_o_left" unicode="&#xf191;" 

d="M1024 960v-640c0 -35 -29 -64 -64 -64c-13 0 -26 4 -37 12l-448 320c-17 12 -27 31 -27 52c0 20 10 40 27 52l448 320c11 8 24 12 37 12c35 0 64 -29 64 -64zM1280 160v960c0 17 -15 32 -32 32h-960c-17 0 -32 -15 -32 -32v-960c0 -17 15 -32 32 -32h960
c17 0 32 15 32 32zM1536 1120v-960c0 -159 -129 -288 -288 -288h-960c-159 0 -288 129 -288 288v960c0 159 129 288 288 288h960c159 0 288 -129 288 -288z" />
</svg>