<?xml version="1.0" standalone="no"?>
<svg width="1536px" height="1536px" version="1.1" xmlns="http://www.w3.org/2000/svg">
    <path transform="scale(1, -1) translate(0, -1536)" glyph-name="caret_square_o_right" unicode="&#xf152;" 

d="M1088 640c0 -21 -10 -40 -27 -52l-448 -320c-19 -14 -45 -16 -66 -5c-22 11 -35 33 -35 57v640c0 24 13 46 35 57c21 11 47 9 66 -5l448 -320c17 -12 27 -31 27 -52zM1280 160v960c0 18 -14 32 -32 32h-960c-18 0 -32 -14 -32 -32v-960c0 -18 14 -32 32 -32h960
c18 0 32 14 32 32zM1536 1120v-960c0 -159 -129 -288 -288 -288h-960c-159 0 -288 129 -288 288v960c0 159 129 288 288 288h960c159 0 288 -129 288 -288z" />
</svg>