<?xml version="1.0" standalone="no"?>
<svg width="1536px" height="1536px" version="1.1" xmlns="http://www.w3.org/2000/svg">
    <path transform="scale(1, -1) translate(0, -1536)" glyph-name="caret_square_o_down" unicode="&#xf150;" 

d="M1145 861c11 -21 9 -47 -5 -66l-320 -448c-12 -17 -31 -27 -52 -27s-40 10 -52 27l-320 448c-14 19 -16 45 -5 66c11 22 33 35 57 35h640c24 0 46 -13 57 -35zM1280 160v960c0 17 -15 32 -32 32h-960c-17 0 -32 -15 -32 -32v-960c0 -17 15 -32 32 -32h960
c17 0 32 15 32 32zM1536 1120v-960c0 -159 -129 -288 -288 -288h-960c-159 0 -288 129 -288 288v960c0 159 129 288 288 288h960c159 0 288 -129 288 -288z" />
</svg>