<svg width="1536" height="1536" xmlns="http://www.w3.org/2000/svg">
    <path d="M1280 704c0-35-29-64-64-64-17 0-33 7-45 19l-147 146V512c0-35-29-64-64-64s-64 29-64 64v293L749 659c-12-12-28-19-45-19-35 0-64 29-64 64 0 17 7 33 19 45l256 256c12 12 28 19 45 19s33-7 45-19l256-256c12-12 19-28 19-45zm-640 832c0 71-57 128-128 128s-128-57-128-128 57-128 128-128 128 57 128 128zm896 0c0 71-57 128-128 128s-128-57-128-128 57-128 128-128 128 57 128 128zm128-1088v512c0 32-24 60-57 64L563 1146c4 22 13 47 13 70s-14 44-24 64h920c35 0 64 29 64 64s-29 64-64 64H448c-35 0-64-29-64-64 0-31 47-108 61-137L268 384H64c-35 0-64-29-64-64s29-64 64-64h256c68 0 69 80 79 128h1201c35 0 64 29 64 64z"/>
</svg>
