<?xml version="1.0" standalone="no"?>
<svg width="1536px" height="1536px" version="1.1" xmlns="http://www.w3.org/2000/svg">
    <path transform="scale(1, -1) translate(0, -1536)" glyph-name="cart_arrow_down" unicode="&#xf218;" horiz-adv-x="1664" 

d="M1280 832c0 35 -29 64 -64 64c-17 0 -33 -7 -45 -19l-147 -146v293c0 35 -29 64 -64 64s-64 -29 -64 -64v-293l-147 146c-12 12 -28 19 -45 19c-35 0 -64 -29 -64 -64c0 -17 7 -33 19 -45l256 -256c12 -12 28 -19 45 -19s33 7 45 19l256 256c12 12 19 28 19 45zM640 0
c0 -71 -57 -128 -128 -128s-128 57 -128 128s57 128 128 128s128 -57 128 -128zM1536 0c0 -71 -57 -128 -128 -128s-128 57 -128 128s57 128 128 128s128 -57 128 -128zM1664 1088v-512c0 -32 -24 -60 -57 -64l-1044 -122c4 -22 13 -47 13 -70s-14 -44 -24 -64h920
c35 0 64 -29 64 -64s-29 -64 -64 -64h-1024c-35 0 -64 29 -64 64c0 31 47 108 61 137l-177 823h-204c-35 0 -64 29 -64 64s29 64 64 64h256c68 0 69 -80 79 -128h1201c35 0 64 -29 64 -64z" />
</svg>