<?xml version="1.0" standalone="no"?>
<svg width="1536px" height="1536px" version="1.1" xmlns="http://www.w3.org/2000/svg">
    <path transform="scale(1, -1) translate(0, -1536)" glyph-name="cart_plus" unicode="&#xf217;" horiz-adv-x="1664" 

d="M1216 832c0 35 -29 64 -64 64h-128v128c0 35 -29 64 -64 64s-64 -29 -64 -64v-128h-128c-35 0 -64 -29 -64 -64s29 -64 64 -64h128v-128c0 -35 29 -64 64 -64s64 29 64 64v128h128c35 0 64 29 64 64zM640 0c0 -71 -57 -128 -128 -128s-128 57 -128 128s57 128 128 128
s128 -57 128 -128zM1536 0c0 -71 -57 -128 -128 -128s-128 57 -128 128s57 128 128 128s128 -57 128 -128zM1664 1088v-512c0 -32 -24 -60 -57 -64l-1044 -122c4 -22 13 -47 13 -70s-14 -44 -24 -64h920c35 0 64 -29 64 -64s-29 -64 -64 -64h-1024c-35 0 -64 29 -64 64
c0 31 47 108 61 137l-177 823h-204c-35 0 -64 29 -64 64s29 64 64 64h256c68 0 69 -80 79 -128h1201c35 0 64 -29 64 -64z" />
</svg>