<svg width="1536" height="1536" xmlns="http://www.w3.org/2000/svg">
    <path d="M119 682h89l-45-108zm621 526l74-79-70-79H581v49h142v55H581v54h159zm158-78l99 110v-217zm288-47c0-24-18-33-40-33h-84v69h83c23 0 41-11 41-36zm289-4c0-25-22-29-42-29h-82v61h81c22 0 43-5 43-32zm-278-466c0-25-22-29-42-29h-82v60h81c22 0 43-5 43-31zm459 69h89l-44-108zM699 527v271h-66V586l-94 212h-57l-94-212v212H256l-25-60H96l-25 60H1l116-271h96l110 257V527h106l85 184 77-184h108zm556 556c0 109-119 91-193 91v91H936l-80-90-83 90H517V994h260l80 89 82-89h207c61 0 109 21 109 89zM964 742v56H747V527h217v57H812v49h148v55H812v54h152zm1340 559v229c0 73-59 134-132 134H132c-73 0-132-61-132-134V852h111l25-61h55l25 61h218v-46l19 46h113l20-47v47h541v-99l10-1c9 0 10 7 10 14v86h279v-23c65 34 154 23 222 23l25-61h56l25 61h227v-58l34 58h182V474h-180v44l-25-44h-185v44l-23-44h-249c-37 0-76 4-109 22v-22h-172v22c-20-18-47-22-73-22H553l-43 97-43-97H269v44l-22-44H78L0 653V262c0-73 59-134 132-134h2040c73 0 132 61 132 134v678h-120c-28 0-58 5-81 22v-22h-177c-25 0-59 4-78 22v-22h-316v22c-24-17-59-22-87-22h-209v22c-21-20-64-22-91-22H911l-54 58-50-58H458v378h343l55-59 52 59h211v-89h21c30 0 61-1 90-13v102h174v-99h8c10 0 12 1 12 12v87h529c29 0 65-6 88-24v24h168c32 0 66-3 95-17zm-758-234c0 30-16 60-46 72 36 13 43 37 43 72v54h-65v-45c0-46-15-54-58-54h-69v99h-65V994h154c51 0 106 9 106 73zm-277-467c0 31-17 61-46 73 37 13 43 36 43 72v53h-65c-1-58 14-98-58-98h-70v98h-64V527l153 1c52 0 107 8 107 72zm529 609v56h-216V994h216v56h-151v49h148v55h-148v54zm-426-682v271h-66V527h66zm693 652c0 64-44 86-102 86h-126v-58h126c16 0 34-4 34-25 0-58-167 22-167-107 0-55 42-81 92-81h130v57h-119c-17 0-36 3-36 25 0 59 168-27 168 103zm239-50v101c-19 28-56 35-88 35h-125v-58h125c16 0 33-5 33-25 0-57-167 22-167-107 0-55 43-81 93-81h129v57h-118c-18 0-36 3-36 25 0 48 113-1 154 53zm-165-601v270h-92l-122-203v203h-132l-26-60h-134l-25 60h-75c-89 0-129-46-129-133 0-91 41-138 133-138h63v59c-68-1-130-16-130 77 0 46 11 78 63 78h29l92-213h97l109 256V528h99l114 188V528h66z"/>
</svg>
