<?xml version="1.0" standalone="no"?>
<svg width="1536px" height="1536px" version="1.1" xmlns="http://www.w3.org/2000/svg">
    <path transform="scale(1, -1) translate(0, -1536)" glyph-name="amex" unicode="&#xf1f3;" horiz-adv-x="2304" 

d="M119 854h89l-45 108zM740 328l74 79l-70 79h-163v-49h142v-55h-142v-54h159zM898 406l99 -110v217zM1186 453c0 24 -18 33 -40 33h-84v-69h83c23 0 41 11 41 36zM1475 457c0 25 -22 29 -42 29h-82v-61h81c22 0 43 5 43 32zM1197 923c0 25 -22 29 -42 29h-82v-60h81
c22 0 43 5 43 31zM1656 854h89l-44 108zM699 1009v-271h-66v212l-94 -212h-57l-94 212v-212h-132l-25 60h-135l-25 -60h-70l116 271h96l110 -257v257h106l85 -184l77 184h108zM1255 453c0 -109 -119 -91 -193 -91v-91h-126l-80 90l-83 -90h-256v271h260l80 -89l82 89h207
c61 0 109 -21 109 -89zM964 794v-56h-217v271h217v-57h-152v-49h148v-55h-148v-54h152zM2304 235v-229c0 -73 -59 -134 -132 -134h-2040c-73 0 -132 61 -132 134v678h111l25 61h55l25 -61h218v46l19 -46h113l20 47v-47h541v99l10 1c9 0 10 -7 10 -14v-86h279v23
c65 -34 154 -23 222 -23l25 61h56l25 -61h227v58l34 -58h182v378h-180v-44l-25 44h-185v-44l-23 44h-249c-37 0 -76 -4 -109 -22v22h-172v-22c-20 18 -47 22 -73 22h-628l-43 -97l-43 97h-198v-44l-22 44h-169l-78 -179v391c0 73 59 134 132 134h2040c73 0 132 -61 132 -134
v-678h-120c-28 0 -58 -5 -81 -22v22h-177c-25 0 -59 -4 -78 -22v22h-316v-22c-24 17 -59 22 -87 22h-209v-22c-21 20 -64 22 -91 22h-234l-54 -58l-50 58h-349v-378h343l55 59l52 -59h211v89h21c30 0 61 1 90 13v-102h174v99h8c10 0 12 -1 12 -12v-87h529c29 0 65 6 88 24
v-24h168c32 0 66 3 95 17zM1546 469c0 -30 -16 -60 -46 -72c36 -13 43 -37 43 -72v-54h-65v45c0 46 -15 54 -58 54h-69v-99h-65v271h154c51 0 106 -9 106 -73zM1269 936c0 -31 -17 -61 -46 -73c37 -13 43 -36 43 -72v-53h-65c-1 58 14 98 -58 98h-70v-98h-64v271l153 -1
c52 0 107 -8 107 -72zM1798 327v-56h-216v271h216v-56h-151v-49h148v-55h-148v-54zM1372 1009v-271h-66v271h66zM2065 357c0 -64 -44 -86 -102 -86h-126v58h126c16 0 34 4 34 25c0 58 -167 -22 -167 107c0 55 42 81 92 81h130v-57h-119c-17 0 -36 -3 -36 -25
c0 -59 168 27 168 -103zM2304 407v-101c-19 -28 -56 -35 -88 -35h-125v58h125c16 0 33 5 33 25c0 57 -167 -22 -167 107c0 55 43 81 93 81h129v-57h-118c-18 0 -36 -3 -36 -25c0 -48 113 1 154 -53zM2139 1008v-270h-92l-122 203v-203h-132l-26 60h-134l-25 -60h-75
c-89 0 -129 46 -129 133c0 91 41 138 133 138h63v-59c-68 1 -130 16 -130 -77c0 -46 11 -78 63 -78h29l92 213h97l109 -256v256h99l114 -188v188h66z" />
</svg>