<svg xmlns="http://www.w3.org/2000/svg" height="1536" width="1536">
    <path d="M894.404 0c251.664 0 463.96 86.38 636.776 259.196C1705.004 433.076 1792 645.344 1792 896c0 251.748-85.372 461.328-256.06 628.768C1354.612 1702.932 1140.776 1792 894.404 1792c-242.172 0-452.284-88.032-630.392-264.04C88.032 1351.952 0 1141.336 0 896c0-245.308 88.032-457.576 264.012-636.776C436.828 86.38 646.912 0 894.404 0zm3.192 161.616c-203.728 0-375.984 71.484-516.796 214.396-146.16 149.352-219.212 322.7-219.212 520.016 0 198.408 72.52 370.16 217.56 515.144 145.068 145.096 317.856 217.588 518.392 217.588 199.444 0 373.352-72.996 521.612-219.184 140.812-135.464 211.204-306.656 211.204-513.604 0-203.728-71.484-377.02-214.368-519.988-142.912-142.912-315.728-214.368-518.392-214.368zm240.016 511.98v366.38h-102.368v435.176H756.812v-435.148H654.444V673.596c0-16.016 5.6-29.596 16.772-40.796 11.228-11.172 24.836-16.8 40.796-16.8h368.032c14.924 0 28.28 5.6 39.984 16.8 11.676 11.2 17.584 24.808 17.584 40.796zM771.176 443.212c0-84.224 41.58-126.392 124.824-126.392s124.796 42.112 124.796 126.392c0 83.188-41.608 124.796-124.796 124.796-83.188 0-124.824-41.608-124.824-124.796z"/>
</svg>
