<svg xmlns="http://www.w3.org/2000/svg" width="1536" height="1536">
    <path d="M894.362 0c250.632 0 464.023 87.501 640.006 262.42 84.225 84.253 148.262 180.547 191.999 288.797C1770.076 659.494 1792 774.408 1792 896.014c0 122.67-21.644 237.612-64.793 344.77-43.205 107.185-106.962 201.882-191.187 284.008-87.445 86.381-186.65 152.546-297.617 198.41-110.91 45.866-225.6 68.798-343.985 68.798-118.386 0-231.732-22.624-340.01-68.013-108.249-45.305-205.327-110.91-291.204-196.76-85.877-85.848-151.202-182.674-196.003-290.42C22.401 1129.062 0 1015.492 0 896.014 0 777.6 22.652 663.75 67.985 554.409c45.333-109.342 111.218-207.204 197.6-293.613C436.246 86.969 645.83 0 894.361 0zm3.248 161.619c-204.795 0-377.082 71.485-516.832 214.399-70.421 71.485-124.546 151.734-162.403 240.804-37.912 89.069-56.812 182.142-56.812 279.22 0 96.013 18.9 188.555 56.812 277.568 37.885 89.126 91.982 168.59 162.403 238.452 70.393 69.89 149.83 123.174 238.424 160.023 88.509 36.792 181.33 55.188 278.408 55.188 95.986 0 189.003-18.62 279.248-55.972 90.134-37.381 171.391-91.198 243.968-161.591 139.722-136.53 209.556-307.725 209.556-513.64 0-99.206-18.145-193.063-54.405-281.6-36.205-88.538-89.042-167.443-158.315-236.828-144.09-144.006-317.385-216.023-520.052-216.023zm-11.228 585.629L766.344 809.66c-12.824-26.629-28.532-45.333-47.18-56.001-18.677-10.64-36.01-15.988-52.026-15.988-79.969 0-120.01 52.78-120.01 158.398 0 47.993 10.137 86.353 30.381 115.166 20.272 28.812 50.149 43.232 89.63 43.232 52.276 0 89.069-25.62 110.433-76.805l110.378 56.001c-23.464 43.765-56.001 78.15-97.61 103.21-41.552 25.088-87.445 37.604-137.594 37.604-79.997 0-144.566-24.5-193.623-73.613-49.057-49.057-73.585-117.322-73.585-204.767 0-85.345 24.808-153.05 74.397-203.2 49.589-50.12 112.254-75.208 188.023-75.208 110.966-.056 190.403 43.148 238.424 129.558zm516.804 0l-118.414 62.413c-12.796-26.629-28.56-45.333-47.209-56.001-18.704-10.64-36.596-15.988-53.592-15.988-79.998 0-120.038 52.78-120.038 158.398 0 47.993 10.164 86.353 30.408 115.166 20.244 28.812 50.093 43.232 89.63 43.232 52.22 0 89.04-25.62 110.35-76.805l112.001 56.001c-24.5 43.765-57.597 78.15-99.15 103.21-41.608 25.088-86.941 37.604-135.998 37.604-81.089 0-145.854-24.5-194.35-73.613-48.61-49.057-72.858-117.322-72.858-204.767 0-85.345 24.78-153.05 74.425-203.2 49.561-50.12 112.226-75.208 187.967-75.208 110.938-.056 189.927 43.148 236.828 129.558z"/>
</svg>
