<?xml version="1.0" standalone="no"?>
<svg width="1536px" height="1536px" version="1.1" xmlns="http://www.w3.org/2000/svg">
    <path transform="scale(1, -1) translate(0, -1536)" glyph-name="cc_diners_club" unicode="&#xf24c;" horiz-adv-x="2304" 

d="M858 295v693c-139 -54 -238 -189 -238 -347s99 -293 238 -346zM1362 641c0 158 -99 293 -238 347v-694c139 54 238 189 238 347zM1577 641c0 -323 -262 -586 -586 -586c-323 0 -586 263 -586 586c0 324 263 586 586 586c324 0 586 -262 586 -586zM1960 634
c0 382 -319 646 -669 646h-301c-354 0 -646 -264 -646 -646c0 -349 292 -634 646 -634h301c350 0 669 285 669 634zM2304 1280v-1280c0 -70 -58 -128 -128 -128h-2048c-70 0 -128 58 -128 128v1280c0 70 58 128 128 128h2048c70 0 128 -58 128 -128z" />
</svg>