<?xml version="1.0" standalone="no"?>
<svg width="1536px" height="1536px" version="1.1" xmlns="http://www.w3.org/2000/svg">
    <path transform="scale(1, -1) translate(0, -1536)" glyph-name="discover" unicode="&#xf1f2;" horiz-adv-x="2304" 

d="M313 759c0 -32 -13 -63 -36 -84c-20 -18 -47 -26 -89 -26h-17v220h17c42 0 68 -7 89 -27c23 -20 36 -51 36 -83zM2089 824c0 -34 -22 -52 -64 -52h-19v101h20c41 0 63 -17 63 -49zM380 759c0 98 -73 167 -179 167h-95v-333h95c50 0 87 11 119 38c38 32 60 79 60 128z
M410 593h65v333h-65v-333zM730 694c0 53 -22 77 -96 104c-39 14 -50 24 -50 42c0 21 20 37 48 37c20 0 36 -8 53 -27l34 44c-28 25 -62 37 -98 37c-59 0 -104 -41 -104 -95c0 -46 21 -70 82 -92c25 -9 38 -14 45 -19c13 -8 19 -20 19 -34c0 -27 -21 -47 -50 -47
c-31 0 -56 15 -71 44l-42 -40c30 -44 66 -64 115 -64c68 0 115 45 115 110zM1008 604v77c-26 -26 -49 -37 -78 -37c-66 0 -112 48 -112 115c0 64 48 115 109 115c31 0 54 -11 81 -38v77c-28 14 -52 20 -80 20c-98 0 -177 -77 -177 -174c0 -98 77 -174 176 -174
c28 0 52 5 81 19zM2240 0v527c-160 -100 -723 -420 -1633 -591h1569c35 0 64 29 64 64zM1389 757c0 100 -81 181 -181 181s-181 -81 -181 -181s81 -181 181 -181s181 81 181 181zM1541 584l144 342h-71l-90 -224l-89 224h-71l142 -342h35zM1714 593h184v56h-119v90h115v56
h-115v74h119v57h-184v-333zM2105 593h80l-105 140c49 10 76 43 76 94c0 63 -43 99 -118 99h-97v-333h65v133h9zM2304 1274v-1268c0 -74 -59 -134 -132 -134h-2040c-73 0 -132 60 -132 134v1268c0 74 59 134 132 134h2040c73 0 132 -60 132 -134z" />
</svg>