<svg width="1536" height="1536" xmlns="http://www.w3.org/2000/svg">
    <path d="M858 1241V548c-139 54-238 189-238 347s99 293 238 346zm504-346c0-158-99-293-238-347v694c139-54 238-189 238-347zm215 0c0 323-262 586-586 586-323 0-586-263-586-586 0-324 263-586 586-586 324 0 586 262 586 586zm383 7c0-382-319-646-669-646H990c-354 0-646 264-646 646 0 349 292 634 646 634h301c350 0 669-285 669-634zm344-646v1280c0 70-58 128-128 128H128c-70 0-128-58-128-128V256c0-70 58-128 128-128h2048c70 0 128 58 128 128z"/>
</svg>
