<svg width="1536" height="1536" xmlns="http://www.w3.org/2000/svg">
    <path d="M313 777c0 32-13 63-36 84-20 18-47 26-89 26h-17V667h17c42 0 68 7 89 27 23 20 36 51 36 83zm1776-65c0 34-22 52-64 52h-19V663h20c41 0 63 17 63 49zM380 777c0-98-73-167-179-167h-95v333h95c50 0 87-11 119-38 38-32 60-79 60-128zm30 166h65V610h-65v333zm320-101c0-53-22-77-96-104-39-14-50-24-50-42 0-21 20-37 48-37 20 0 36 8 53 27l34-44c-28-25-62-37-98-37-59 0-104 41-104 95 0 46 21 70 82 92 25 9 38 14 45 19 13 8 19 20 19 34 0 27-21 47-50 47-31 0-56-15-71-44l-42 40c30 44 66 64 115 64 68 0 115-45 115-110zm278 90v-77c-26 26-49 37-78 37-66 0-112-48-112-115 0-64 48-115 109-115 31 0 54 11 81 38v-77c-28-14-52-20-80-20-98 0-177 77-177 174 0 98 77 174 176 174 28 0 52-5 81-19zm1232 604v-527c-160 100-723 420-1633 591h1569c35 0 64-29 64-64zm-851-757c0-100-81-181-181-181s-181 81-181 181 81 181 181 181 181-81 181-181zm152 173l144-342h-71l-90 224-89-224h-71l142 342h35zm173-9h184v-56h-119v-90h115v-56h-115v-74h119v-57h-184v333zm391 0h80l-105-140c49-10 76-43 76-94 0-63-43-99-118-99h-97v333h65V810h9zm199-681v1268c0 74-59 134-132 134H132c-73 0-132-60-132-134V262c0-74 59-134 132-134h2040c73 0 132 60 132 134z"/>
</svg>
