<?xml version="1.0" standalone="no"?>
<svg width="1536px" height="1536px" version="1.1" xmlns="http://www.w3.org/2000/svg">
    <path transform="scale(1, -1) translate(0, -1536)" glyph-name="cc_jcb" unicode="&#xf24b;" horiz-adv-x="2304" 

d="M1951 538c0 -36 -24 -62 -54 -68c-4 -1 -13 -2 -18 -2h-153v140h153c5 0 14 -1 18 -2c30 -6 54 -33 54 -68zM1933 751c0 -35 -24 -58 -53 -63c-3 -1 -10 -1 -15 -1h-139v129h139c5 0 12 -1 15 -1c29 -5 53 -29 53 -64zM728 587v308h-228v-308c0 -75 -51 -131 -143 -131
c-78 0 -155 23 -229 59v-112c120 -33 272 -33 272 -33c254 0 328 97 328 217zM1442 403v113c-52 -27 -118 -53 -200 -59c-144 -11 -230 59 -230 183s86 194 230 183c82 -6 147 -31 200 -58v112c-107 27 -208 31 -208 31c-352 16 -452 -123 -452 -268s100 -284 452 -268
c0 0 101 4 208 31zM2176 518c0 74 -66 122 -152 128v3c78 11 121 62 121 121c0 76 -63 120 -148 124c-6 0 -17 1 -26 1h-455v-510h491c97 0 169 52 169 133zM2304 1280v-1280c0 -70 -58 -128 -128 -128h-2048c-70 0 -128 58 -128 128v1280c0 70 58 128 128 128h2048
c70 0 128 -58 128 -128z" />
</svg>