<svg width="1536" height="1536" xmlns="http://www.w3.org/2000/svg">
    <path d="M1951 998c0 36-24 62-54 68-4 1-13 2-18 2h-153V928h153c5 0 14 1 18 2 30 6 54 33 54 68zm-18-213c0 35-24 58-53 63-3 1-10 1-15 1h-139V720h139c5 0 12 1 15 1 29 5 53 29 53 64zM728 949V641H500v308c0 75-51 131-143 131-78 0-155-23-229-59v112c120 33 272 33 272 33 254 0 328-97 328-217zm714 184v-113c-52 27-118 53-200 59-144 11-230-59-230-183s86-194 230-183c82 6 147 31 200 58V659c-107-27-208-31-208-31-352-16-452 123-452 268s100 284 452 268c0 0 101-4 208-31zm734-115c0-74-66-122-152-128v-3c78-11 121-62 121-121 0-76-63-120-148-124-6 0-17-1-26-1h-455v510h491c97 0 169-52 169-133zm128-762v1280c0 70-58 128-128 128H128c-70 0-128-58-128-128V256c0-70 58-128 128-128h2048c70 0 128 58 128 128z"/>
</svg>
