<svg width="1536" height="1536" xmlns="http://www.w3.org/2000/svg">
    <path d="M1119 341c-83-55-181-85-281-85-281 0-509 228-509 508 0 281 228 509 509 509 100 0 198-30 281-85-268-218-266-629 0-847zm33 24c-258 203-259 597 0 799 259-202 258-596 0-799zm33-24c265 218 269 630 0 847 83 55 182 85 281 85 281 0 509-228 509-509 0-280-228-508-509-508-100 0-198 30-281 85zm741 722h7v-3h-17v3h7v17h3v-17zm29 17h4v-20h-5l-6 13-6-13h-5v20h3v-15l6 13h4l5-13v15zm-8 440v2h-5v-3h5v1zm0 9h3l-4-5c2 0 2-1 3-1 1-1 1-2 1-3s0-2-1-3c-1 0-2-1-4-1h-6v13h3v-5h1zm-1262-68c0-24 15-43 41-43 24 0 40 19 40 43 0 25-16 43-40 43-26 0-41-19-41-43zm473-44c19 0 32 11 35 32h-70c3-19 15-32 35-32zm356 44c0-24 15-43 40-43s41 19 41 43c0 25-16 43-41 43s-40-19-40-43zm272 0c0-24 16-43 41-43 24 0 41 19 41 43 0 25-17 43-41 43-25 0-41-19-41-43zm158 72c-1 0-2 0-4-1-1 0-2-1-3-2s-2-2-2-3c-1-2-1-3-1-4 0-2 0-3 1-4 0-2 1-3 2-4s2-1 3-2c2-1 3-1 4-1 2 0 3 0 4 1 2 1 3 1 4 2s1 2 2 4c0 1 1 2 1 4 0 1-1 2-1 4-1 1-1 2-2 3s-2 2-4 2c-1 1-2 1-4 1zm-1345-4h30v-85c0-32-21-53-54-54-17 0-35 5-47 24-9-15-24-24-45-24-14 0-28 5-39 20v-16h-30v135h30v-75c0-24 13-36 33-36s30 13 30 36v75h29v-75c0-24 14-36 33-36 20 0 30 13 30 36v75zm166 0h29v-135h-29v16c-10-12-24-20-43-20-38 0-67 30-67 71s29 71 67 71c19 0 33-7 43-20v17zm178-41c0-24-18-36-47-40l-14-2c-13-2-23-5-23-14s9-15 25-15c18 0 34 6 43 11l12-24c-14-9-33-14-55-14-34 0-56 17-56 44 0 22 16 35 47 39l13 2c17 3 24 7 24 14 0 11-11 17-31 17s-35-7-45-14l-13 23c16 11 36 17 58 17 39 0 62-18 62-44zm130 34l-8-25c-9 5-18 7-26 7-15 0-19-9-19-22v-61h48v-27h-48v-41h-30v41h-28v27h28v61c0 31 12 50 47 50 12 0 27-4 36-10zm86-132c-39 0-67 29-67 71 0 43 29 71 69 71 20 0 39-5 55-19l-14-22c-11 9-26 15-39 15-19 0-36-9-41-33h101v-12c0-42-26-71-64-71zm159 0c-17 0-28 8-35 20v-16h-30v135h30v-76c0-22 9-35 29-35 6 0 12 1 18 4l9-28c-7-3-15-4-21-4zm30 71c0 41 28 71 72 71 20 0 34-4 48-16l-14-24c-11 8-22 13-35 12-24 0-41-17-41-43s17-43 41-43c13 0 24 4 35 12l14-24c-14-11-28-16-48-16-44 0-72 30-72 71zm245 68h30v-135h-30v16c-9-12-23-20-42-20-38 0-68 30-68 71s30 71 68 71c19 0 33-7 42-20v17zm133-139c-17 0-28 8-35 20v-16h-29v135h29v-76c0-22 10-35 29-35 6 0 12 1 18 4l9-28c-6-3-15-4-21-4zm140 139h29v-190h-29v71c-9-12-23-20-43-20-37 0-67 30-67 71s30 71 67 71c20 0 34-7 43-20v17zm78-20c-1 0-3 1-5 1-2 1-3 2-4 3-2 1-3 3-3 4-1 2-1 4-1 6 0 1 0 3 1 5 0 1 1 3 3 4 1 1 2 2 4 3s4 1 5 1c2 0 4 0 6-1 1-1 3-2 4-3s2-3 3-4c1-2 1-4 1-5 0-2 0-4-1-6-1-1-2-3-3-4s-3-2-4-3c-2 0-4-1-6-1zm360-1253v1280c0 70-58 128-128 128H128c-70 0-128-58-128-128V256c0-70 58-128 128-128h2048c70 0 128 58 128 128z"/>
</svg>
