<?xml version="1.0" standalone="no"?>
<svg width="1536px" height="1536px" version="1.1" xmlns="http://www.w3.org/2000/svg">
    <path transform="scale(1, -1) translate(0, -1536)" glyph-name="mastercard" unicode="&#xf1f1;" horiz-adv-x="2304" 

d="M1119 1195c-83 55 -181 85 -281 85c-281 0 -509 -228 -509 -508c0 -281 228 -509 509 -509c100 0 198 30 281 85c-268 218 -266 629 0 847zM1152 1171c-258 -203 -259 -597 0 -799c259 202 258 596 0 799zM1185 1195c265 -218 269 -630 0 -847c83 -55 182 -85 281 -85
c281 0 509 228 509 509c0 280 -228 508 -509 508c-100 0 -198 -30 -281 -85zM1926 473h7v3h-17v-3h7v-17h3v17zM1955 456h4v20h-5l-6 -13l-6 13h-5v-20h3v15l6 -13h4l5 13v-15zM1947 16v-2h-2h-3v3h3h2v-1zM1947 7h3l-4 5c2 0 2 1 3 1c1 1 1 2 1 3s0 2 -1 3c-1 0 -2 1 -4 1
h-6v-13h3v5h1zM685 75c0 24 15 43 41 43c24 0 40 -19 40 -43c0 -25 -16 -43 -40 -43c-26 0 -41 19 -41 43zM1158 119c19 0 32 -11 35 -32h-70c3 19 15 32 35 32zM1514 75c0 24 15 43 40 43s41 -19 41 -43c0 -25 -16 -43 -41 -43s-40 19 -40 43zM1786 75c0 24 16 43 41 43
c24 0 41 -19 41 -43c0 -25 -17 -43 -41 -43c-25 0 -41 19 -41 43zM1944 3c-1 0 -2 0 -4 1c-1 0 -2 1 -3 2s-2 2 -2 3c-1 2 -1 3 -1 4c0 2 0 3 1 4c0 2 1 3 2 4s2 1 3 2c2 1 3 1 4 1c2 0 3 0 4 -1c2 -1 3 -1 4 -2s1 -2 2 -4c0 -1 1 -2 1 -4c0 -1 -1 -2 -1 -4
c-1 -1 -1 -2 -2 -3s-2 -2 -4 -2c-1 -1 -2 -1 -4 -1zM599 7h30v85c0 32 -21 53 -54 54c-17 0 -35 -5 -47 -24c-9 15 -24 24 -45 24c-14 0 -28 -5 -39 -20v16h-30v-135h30v75c0 24 13 36 33 36s30 -13 30 -36v-75h29v75c0 24 14 36 33 36c20 0 30 -13 30 -36v-75zM765 7h29v68
v67h-29v-16c-10 12 -24 20 -43 20c-38 0 -67 -30 -67 -71s29 -71 67 -71c19 0 33 7 43 20v-17zM943 48c0 24 -18 36 -47 40l-14 2c-13 2 -23 5 -23 14s9 15 25 15c18 0 34 -6 43 -11l12 24c-14 9 -33 14 -55 14c-34 0 -56 -17 -56 -44c0 -22 16 -35 47 -39l13 -2
c17 -3 24 -7 24 -14c0 -11 -11 -17 -31 -17s-35 7 -45 14l-13 -23c16 -11 36 -17 58 -17c39 0 62 18 62 44zM1073 14l-8 25c-9 -5 -18 -7 -26 -7c-15 0 -19 9 -19 22v61h48v27h-48v41h-30v-41h-28v-27h28v-61c0 -31 12 -50 47 -50c12 0 27 4 36 10zM1159 146
c-39 0 -67 -29 -67 -71c0 -43 29 -71 69 -71c20 0 39 5 55 19l-14 22c-11 -9 -26 -15 -39 -15c-19 0 -36 9 -41 33h101v12c0 42 -26 71 -64 71zM1318 146c-17 0 -28 -8 -35 -20v16h-30v-135h30v76c0 22 9 35 29 35c6 0 12 -1 18 -4l9 28c-7 3 -15 4 -21 4zM1348 75
c0 -41 28 -71 72 -71c20 0 34 4 48 16l-14 24c-11 -8 -22 -13 -35 -12c-24 0 -41 17 -41 43s17 43 41 43c13 0 24 -4 35 -12l14 24c-14 11 -28 16 -48 16c-44 0 -72 -30 -72 -71zM1593 7h30v68v67h-30v-16c-9 12 -23 20 -42 20c-38 0 -68 -30 -68 -71s30 -71 68 -71
c19 0 33 7 42 20v-17zM1726 146c-17 0 -28 -8 -35 -20v16h-29v-135h29v76c0 22 10 35 29 35c6 0 12 -1 18 -4l9 28c-6 3 -15 4 -21 4zM1866 7h29v68v122h-29v-71c-9 12 -23 20 -43 20c-37 0 -67 -30 -67 -71s30 -71 67 -71c20 0 34 7 43 20v-17zM1944 27c-1 0 -3 -1 -5 -1
c-2 -1 -3 -2 -4 -3c-2 -1 -3 -3 -3 -4c-1 -2 -1 -4 -1 -6c0 -1 0 -3 1 -5c0 -1 1 -3 3 -4c1 -1 2 -2 4 -3s4 -1 5 -1c2 0 4 0 6 1c1 1 3 2 4 3s2 3 3 4c1 2 1 4 1 5c0 2 0 4 -1 6c-1 1 -2 3 -3 4s-3 2 -4 3c-2 0 -4 1 -6 1zM2304 1280v-1280c0 -70 -58 -128 -128 -128h-2048
c-70 0 -128 58 -128 128v1280c0 70 58 128 128 128h2048c70 0 128 -58 128 -128z" />
</svg>