<svg xmlns="http://www.w3.org/2000/svg" height="1536" width="1536">
    <path d="M1531.74 259.812C1358.336 86.604 1145.984 0 894.852 0c-248.22 0-458.276 86.548-630.224 259.812C88.172 439.04 0 651.056 0 896c0 244.86 88.172 455.448 264.628 631.624C441.056 1703.912 651.084 1792 894.852 1792c246.652 0 460.488-88.9 641.396-266.588C1706.74 1356.656 1792 1146.852 1792 896c-.028-250.908-86.772-463.008-260.26-636.188zM1419.572 1408.96c-148.008 146.328-322.224 219.436-522.48 219.436-200.368 0-373.1-72.436-518.112-217.308-145.012-144.872-217.56-316.568-217.56-515.116 0-84 13.272-163.436 39.48-238.28l237.412 105.112h-17.108v106.484h84.028c0 15.064-1.512 30.044-1.512 45.024v25.536h-82.516v106.484h97.468c13.524 79.52 43.54 144.032 84 195.02 84 111.02 219.016 170.968 365.988 170.968 96.04 0 182.924-28.476 233.996-57.008l-36.036-166.432c-31.5 16.492-101.948 38.948-170.912 38.948-75.04 0-145.488-22.456-193.508-76.468-22.484-25.48-38.976-60.032-49.476-105h326.088l463.372 205.1c-32.06 56.84-72.8 109.396-122.612 157.5zM836.836 939.82l-1.96-1.512 3.36 1.512zm278.992-70.56h13.412V762.776H875.28l-103.18-45.64c8.876-19.964 19.404-37.828 31.668-51.8 46.508-57.092 112.476-81.06 184.492-81.06 65.996 0 127.484 19.488 166.46 35.98l42-171.024c-54.04-23.94-133.504-44.94-224.98-44.94-140.98 0-260.988 56.98-346.5 152.964-18.984 21.924-35.448 46.536-50.372 72.548L280.224 499.408c28.56-42.812 62.132-83.916 101.024-123.144 140.588-143.36 312.48-215.068 515.872-215.068 203.28 0 376.012 71.68 518.056 215.068C1558.648 518.112 1630.412 691.32 1630.412 896c0 67.396-7.616 130.984-22.736 190.96z"/>
</svg>
