<svg xmlns="http://www.w3.org/2000/svg" height="1536" width="1536">
    <path d="M894.376 0c251.72 0 463.988 86.38 636.804 259.168C1705.004 431.984 1792 644.252 1792 896c0 251.776-85.344 461.328-256.06 628.824C1354.64 1702.96 1140.748 1792 894.376 1792c-243.208 0-453.32-88.536-630.364-265.58C88.032 1350.384 0 1140.3 0 896c0-245.336 88.032-457.604 264.012-636.804C436.8 86.408 646.912 0 894.376 0zM201.6 654.416c-26.656 73.584-40.012 154.14-40.012 241.612 0 198.408 72.52 370.16 217.56 515.2 146.132 144.032 318.948 216.02 518.392 216.02 201.628 0 375.452-73.024 521.64-219.212 52.276-50.12 93.296-102.396 123.144-156.856l-337.568-150.388c-11.788 56.56-40.292 102.676-85.596 138.376-45.416 35.728-98.98 56.308-160.832 61.6v137.62H854.336v-137.62c-99.204-1.008-189.896-36.736-271.992-107.156l123.2-124.796c58.632 54.376 125.328 81.564 200.004 81.564 30.912 0 57.344-6.888 79.24-20.804 21.84-13.832 32.816-36.736 32.816-68.796 0-22.428-8.036-40.544-24.024-54.404l-86.38-36.82-105.588-48.02-142.408-62.412zm695.996-494.424c-203.728 0-375.984 71.988-516.796 215.992-35.224 35.224-68.292 75.208-99.204 120.036L624.008 649.6c14.924-46.928 43.176-84.532 84.812-112.784 41.552-28.252 90.104-43.988 145.6-47.208v-137.62h104.02v137.62c82.152 4.284 156.8 32.004 224 83.188l-116.816 120.008c-50.204-35.196-101.332-52.78-153.608-52.78-27.748 0-52.528 5.348-74.368 15.988-21.868 10.668-32.816 28.812-32.816 54.404 0 7.476 2.66 14.924 7.98 22.4l113.596 51.24 78.4 35.196 144.032 63.98 459.116 204.792c14.98-62.944 22.428-126.924 22.428-191.996 0-205.884-71.456-379.204-214.368-520.044-141.876-144.004-314.748-215.992-518.42-215.992z"/>
</svg>
