<svg xmlns="http://www.w3.org/2000/svg" height="1536" width="1536">
    <path d="M1531.824 259.812C1358.336 86.604 1146.096 0 894.824 0 646.66 0 436.576 86.604 264.684 259.812 88.2 439.04 0 651.084 0 896c0 244.888 88.2 455.504 264.684 631.708C441.056 1703.912 651.14 1792 894.824 1792c246.736 0 460.572-88.844 641.452-266.56C1706.768 1356.712 1792 1146.852 1792 896c0-250.88-86.744-462.952-260.176-636.188zM1419.628 1408.96c-148.036 146.356-322.224 219.492-522.508 219.492-200.368 0-373.072-72.436-518.084-217.308-145.04-144.788-217.532-316.54-217.532-515.144 0-76.384 10.948-148.904 32.592-217.756l458.724 204.26H551.88v139.468h209.888l20.524 42.588v67.592H551.88v139.44h230.412v202.552h222.964v-202.552h231.868V1142.68l292.544 130.284c-29.96 48.692-66.612 94.052-110.04 135.996zm-206.192-276.808h-208.124v-67.592l10.5-20.384zm23.716-185.5v-64.148H1097.74l227.5-419.132h-237.776l-156.66 346.864-83.132-37.016-143.164-309.848H466.76l98.672 184.184-295.848-131.74c30.744-48.748 67.872-95.284 111.664-139.524 140.56-143.36 312.48-215.04 515.872-215.04 203.28 0 376.012 71.68 518.056 215.04C1558.704 518.168 1630.44 691.376 1630.44 896c0 75.796-9.576 146.748-28.588 212.996z"/>
</svg>
