<?xml version="1.0" standalone="no"?>
<svg width="1536px" height="1536px" version="1.1" xmlns="http://www.w3.org/2000/svg">
    <path transform="scale(1, -1) translate(0, -1536)" glyph-name="paypal" unicode="&#xf1f4;" horiz-adv-x="2304" 

d="M745 630c0 -49 -39 -86 -88 -86c-37 0 -64 21 -64 60c0 49 38 88 87 88c37 0 65 -23 65 -62zM1530 779c0 -60 -36 -72 -88 -72l-32 -1l17 107c1 7 6 11 13 11h18c34 0 72 -2 72 -45zM1881 630c0 -49 -39 -86 -87 -86c-37 0 -65 21 -65 60c0 49 38 88 87 88
c37 0 65 -23 65 -62zM513 801c0 84 -65 112 -139 112h-160c-10 0 -20 -8 -21 -19l-65 -408c-1 -8 5 -16 13 -16h76c11 0 21 8 22 19l18 110c4 29 53 19 72 19c114 0 184 68 184 183zM822 489l41 261c1 8 -5 16 -13 16h-76c-15 0 -16 -22 -17 -33c-23 34 -57 40 -95 40
c-98 0 -173 -86 -173 -181c0 -78 49 -129 127 -129c36 0 81 16 106 44c-2 -6 -4 -15 -4 -21c0 -9 4 -16 13 -16h69c11 0 20 8 22 19zM1269 752c0 7 -6 14 -13 14h-77c-7 0 -14 -4 -18 -10l-106 -156l-44 150c-3 9 -12 16 -22 16h-75c-7 0 -13 -7 -13 -14
c0 -5 78 -231 85 -252c-11 -15 -82 -108 -82 -120c0 -7 6 -13 13 -13h77c7 0 14 4 18 10l255 368c2 2 2 4 2 7zM1649 801c0 84 -65 112 -139 112h-159c-11 0 -21 -8 -22 -19l-65 -408c-1 -8 5 -16 13 -16h82c8 0 14 6 16 13l18 116c4 29 53 19 72 19c114 0 184 68 184 183z
M1958 489l41 261c1 8 -5 16 -13 16h-76c-15 0 -16 -22 -17 -33c-22 34 -56 40 -95 40c-98 0 -173 -86 -173 -181c0 -78 49 -129 127 -129c37 0 82 16 106 44c-1 -6 -4 -15 -4 -21c0 -9 4 -16 13 -16h69c11 0 20 8 22 19zM2176 898v1c0 8 -6 14 -13 14h-74
c-6 0 -12 -5 -13 -11l-65 -416l-1 -2c0 -7 6 -14 14 -14h66c10 0 20 8 21 19zM392 764c-8 -51 -42 -57 -86 -57l-33 -1l17 107c1 7 7 11 13 11h19c45 0 79 -6 70 -60zM2304 1280v-1280c0 -70 -58 -128 -128 -128h-2048c-70 0 -128 58 -128 128v1280c0 70 58 128 128 128
h2048c70 0 128 -58 128 -128z" />
</svg>