<svg width="1536" height="1536" xmlns="http://www.w3.org/2000/svg">
    <path d="M745 906c0 49-39 86-88 86-37 0-64-21-64-60 0-49 38-88 87-88 37 0 65 23 65 62zm785-149c0 60-36 72-88 72l-32 1 17-107c1-7 6-11 13-11h18c34 0 72 2 72 45zm351 149c0 49-39 86-87 86-37 0-65-21-65-60 0-49 38-88 87-88 37 0 65 23 65 62zM513 735c0-84-65-112-139-112H214c-10 0-20 8-21 19l-65 408c-1 8 5 16 13 16h76c11 0 21-8 22-19l18-110c4-29 53-19 72-19 114 0 184-68 184-183zm309 312l41-261c1-8-5-16-13-16h-76c-15 0-16 22-17 33-23-34-57-40-95-40-98 0-173 86-173 181 0 78 49 129 127 129 36 0 81-16 106-44-2 6-4 15-4 21 0 9 4 16 13 16h69c11 0 20-8 22-19zm447-263c0-7-6-14-13-14h-77c-7 0-14 4-18 10l-106 156-44-150c-3-9-12-16-22-16h-75c-7 0-13 7-13 14 0 5 78 231 85 252-11 15-82 108-82 120 0 7 6 13 13 13h77c7 0 14-4 18-10l255-368c2-2 2-4 2-7zm380-49c0-84-65-112-139-112h-159c-11 0-21 8-22 19l-65 408c-1 8 5 16 13 16h82c8 0 14-6 16-13l18-116c4-29 53-19 72-19 114 0 184-68 184-183zm309 312l41-261c1-8-5-16-13-16h-76c-15 0-16 22-17 33-22-34-56-40-95-40-98 0-173 86-173 181 0 78 49 129 127 129 37 0 82-16 106-44-1 6-4 15-4 21 0 9 4 16 13 16h69c11 0 20-8 22-19zm218-409v-1c0-8-6-14-13-14h-74c-6 0-12 5-13 11l-65 416-1 2c0 7 6 14 14 14h66c10 0 20-8 21-19zM392 772c-8 51-42 57-86 57l-33 1 17-107c1-7 7-11 13-11h19c45 0 79 6 70 60zm1912-516v1280c0 70-58 128-128 128H128c-70 0-128-58-128-128V256c0-70 58-128 128-128h2048c70 0 128 58 128 128z"/>
</svg>
