<svg xmlns="http://www.w3.org/2000/svg" width="1536" height="1536">
    <path d="M896 0C401.165 0 0 401.165 0 896c0 494.779 401.165 896 896 896s896-401.221 896-896c0-494.84-401.165-896-896-896zm0 1623.99c-401.44 0-728.019-326.605-728.019-727.99 0-84.033 14.481-164.729 40.815-239.839L493.523 782.95a602.16 602.16 0 0 0-11.825 118.902c0 357.7 266.99 458.486 434.97 458.486 99.06 0 184.791-31.976 251.903-78.885 12.754-9.142 24.308-18.34 34.925-27.702l-130.62-158.708c-3.831 4.377-7.83 8.54-11.933 12.264-50.806 48.174-106.647 48.174-119.126 48.174-136.668 0-193.876-144.196-194.642-259.705l784.733 349.38c.929.163 1.694.163 2.46.326-123.826 225.442-363.548 378.509-638.368 378.509zm701.55-541.972L788.18 720.762c29.204-52.883 75.684-92.629 145.236-92.629 40.32 0 72.292 13.356 97.473 30.222 10.453 7.555 19.544 15.106 27.207 22.717l145.894-150.164c-97.991-84.252-209.398-99.307-282.259-99.307-171.21 0-292.362 74.014-363.776 186.406L287.299 497.294C417.564 299.119 641.713 167.954 896 167.954c401.436 0 728.047 326.554 728.047 728.046 0 64.983-8.704 127.88-24.748 187.885-.658-.658-1.092-1.209-1.75-1.867z"/>
</svg>
