<svg xmlns="http://www.w3.org/2000/svg" width="1536" height="1536">
    <path d="M894.404 0c250.628 0 462.868 86.94 636.776 260.82C1705.004 433.636 1792 645.344 1792 896c0 250.712-85.372 460.796-256.06 630.392C1355.704 1703.464 1141.812 1792 894.404 1792c-242.172 0-452.284-88.004-630.392-264.012C88.032 1352.008 0 1141.392 0 896.028c0-244.244 88.032-455.98 264.012-635.18C437.864 86.94 648.004 0 894.404 0zm3.192 161.616c-203.728 0-375.984 72.016-516.796 216.02C234.64 525.924 161.588 698.712 161.588 896c0 199.5 72.52 371.196 217.56 515.2 145.068 145.096 317.856 217.588 518.392 217.588 199.444 0 373.352-73.052 521.612-219.184 140.812-136.528 211.204-307.72 211.204-513.604 0-204.764-71.484-377.58-214.368-518.364-141.876-144.06-314.692-216.02-518.392-216.02zm583.996 750.4l17.612 8.008v252.784l-16.016 7.952-217.588 92.82-9.604 3.22-11.2-3.192-468.804-193.592-16.016-6.412-231.98 96.012-228.788-99.232V840l214.396-89.628-1.596-1.596V495.964L755.216 388.78l548.8 227.192v222.404zm-254.408 294.336v-158.34h-1.596v-6.412l-411.208-168v163.24l411.208 169.624v-1.624zm27.188-207.956l144.06-59.192-132.832-56-140.812 59.192zm188.832 137.62V980.84l-160.02 67.2v156.8z"/>
</svg>
