<svg width="1536" height="1536" xmlns="http://www.w3.org/2000/svg">
    <path d="M1597 903c0 46-7 81-21 106-12 22-31 35-52 35-15 0-29-3-41-9V811c26-27 49-30 57-30 38 0 57 42 57 122zm438-36h-110c4-67 22-98 56-98s52 32 54 98zM476 1002c0-84-51-119-134-149-44-16-68-29-68-49 0-17 14-26 38-26 46 0 92 17 124 33l18-112c-25-12-77-32-149-32-51 0-93 13-123 38-32 26-48 64-48 109 0 82 50 118 132 147 52 19 70 32 70 53 0 20-17 31-48 31-38 0-101-19-142-43l-18 113c35 20 100 41 168 41 54 0 98-13 129-37 34-27 51-66 51-117zm295-215l19-111h-96V541l-129 21-18 114-46 8-17 103h62v219c0 57 15 96 44 120 25 20 61 30 111 30 39 0 62-7 79-11v-118c-9 2-30 7-44 7-29 0-42-16-42-50V787h77zm316 25V673c-10-2-19-3-28-3-42 0-76 22-89 62l-10-56H829v471h150V841c19-23 46-31 82-31 8 0 16 0 26 2zm37 335h150V676h-150v471zm622-249c0-80-15-141-45-179-27-35-64-52-111-52-43 0-81 18-117 56l-8-47h-132v645l150-25v-151c23 7 47 11 68 11 37 0 92-10 134-56 41-44 61-112 61-202zm-468-348c0-44-35-79-79-79s-79 35-79 79 35 80 79 80 79-36 79-80zm898 357c0-75-16-134-48-176-33-42-82-64-144-64-128 0-207 94-207 246 0 84 21 148 63 188 37 37 91 55 161 55 64 0 123-15 160-40l-16-103c-37 20-80 31-128 31-29 0-49-6-63-19-16-13-25-35-28-66h248c1-7 2-41 2-52zm128-651v1280c0 70-58 128-128 128H128c-70 0-128-58-128-128V256c0-70 58-128 128-128h2048c70 0 128 58 128 128z"/>
</svg>
