<svg xmlns="http://www.w3.org/2000/svg" width="1536" height="1536">
    <path d="M894.404 0c250.628 0 462.868 86.94 636.776 260.82C1705.004 433.636 1792 645.344 1792 896c0 250.712-85.372 460.796-256.06 630.392C1355.704 1703.464 1141.812 1792 894.404 1792c-242.172 0-452.284-88.004-630.392-264.012C88.032 1352.008 0 1141.392 0 896.028c0-244.244 88.032-455.98 264.012-635.18C437.864 86.94 648.004 0 894.404 0zm3.192 161.616c-203.728 0-375.984 72.016-516.796 216.02C234.64 525.924 161.588 698.712 161.588 896c0 199.5 72.52 371.196 217.56 515.2 145.068 145.096 317.856 217.588 518.392 217.588 199.444 0 373.352-73.052 521.612-219.184 140.812-136.528 211.204-307.72 211.204-513.604 0-204.764-71.484-377.58-214.368-518.364-141.876-144.06-314.692-216.02-518.392-216.02zm364.812 478.38c13.832 0 25.592 4.788 35.168 14.364 9.632 9.604 14.448 21.364 14.448 35.224v659.176c0 13.86-4.816 25.592-14.448 35.168-9.576 9.604-21.336 14.448-35.168 14.448H774.396c-13.888 0-25.592-4.788-35.224-14.448-9.632-9.604-14.392-21.308-14.392-35.168v-195.244H529.592c-13.916 0-25.62-4.76-35.224-14.364-9.576-9.576-14.392-21.308-14.392-35.224v-659.12c0-12.824 4.228-23.744 12.824-32.788 8.484-9.044 19.18-14.644 31.976-16.8h492.772c13.832 0 25.592 4.788 35.224 14.392 9.576 9.576 14.392 21.364 14.392 35.224v195.216h195.244zm-684.824 415.996H724.78V689.584c0-12.796 4.228-23.716 12.824-32.788 8.512-9.016 18.676-14.644 30.38-16.8h201.6v-145.6h-392zm636.804-318.416h-392V1299.2h392z"/>
</svg>
