<?xml version="1.0" standalone="no"?>
<svg width="1536px" height="1536px" version="1.1" xmlns="http://www.w3.org/2000/svg">
    <path transform="scale(1, -1) translate(0, -1536)" glyph-name="stripe" unicode="&#xf1f5;" horiz-adv-x="2304" 

d="M1597 633c0 -46 -7 -81 -21 -106c-12 -22 -31 -35 -52 -35c-15 0 -29 3 -41 9v224c26 27 49 30 57 30c38 0 57 -42 57 -122zM2035 669h-110c4 67 22 98 56 98s52 -32 54 -98zM476 534c0 84 -51 119 -134 149v0c-44 16 -68 29 -68 49c0 17 14 26 38 26
c46 0 92 -17 124 -33l18 112c-25 12 -77 32 -149 32c-51 0 -93 -13 -123 -38c-32 -26 -48 -64 -48 -109c0 -82 50 -118 132 -147c52 -19 70 -32 70 -53c0 -20 -17 -31 -48 -31c-38 0 -101 19 -142 43l-18 -113c35 -20 100 -41 168 -41c54 0 98 13 129 37c34 27 51 66 51 117
zM771 749l19 111h-96v135l-129 -21l-18 -114l-46 -8l-17 -103h62v-219c0 -57 15 -96 44 -120c25 -20 61 -30 111 -30c39 0 62 7 79 11v118c-9 -2 -30 -7 -44 -7c-29 0 -42 16 -42 50v197h77zM1087 724v139c-10 2 -19 3 -28 3c-42 0 -76 -22 -89 -62l-10 56h-131v-471h150
v306c19 23 46 31 82 31c8 0 16 0 26 -2zM1124 389h150v471h-150v-471zM1746 638c0 80 -15 141 -45 179c-27 35 -64 52 -111 52c-43 0 -81 -18 -117 -56l-8 47h-132v-645l150 25v151c23 -7 47 -11 68 -11c37 0 92 10 134 56c41 44 61 112 61 202zM1278 986
c0 44 -35 79 -79 79s-79 -35 -79 -79s35 -80 79 -80s79 36 79 80zM2176 629c0 75 -16 134 -48 176c-33 42 -82 64 -144 64c-128 0 -207 -94 -207 -246c0 -84 21 -148 63 -188c37 -37 91 -55 161 -55c64 0 123 15 160 40l-16 103c-37 -20 -80 -31 -128 -31
c-29 0 -49 6 -63 19c-16 13 -25 35 -28 66h248c1 7 2 41 2 52zM2304 1280v-1280c0 -70 -58 -128 -128 -128h-2048c-70 0 -128 58 -128 128v1280c0 70 58 128 128 128h2048c70 0 128 -58 128 -128z" />
</svg>