<?xml version="1.0" standalone="no"?>
<svg width="1536px" height="1536px" version="1.1" xmlns="http://www.w3.org/2000/svg">
    <path transform="scale(1, -1) translate(0, -1536)" glyph-name="visa" unicode="&#xf1f0;" horiz-adv-x="2304" 

d="M1975 546h-138c0 0 14 37 66 179c-1 -1 14 37 22 61l12 -55c31 -153 38 -185 38 -185zM531 611l-58 295c-8 41 -39 54 -75 54h-268l-2 -13c184 -47 335 -147 403 -336zM710 960l-162 -438l-17 89c-35 93 -120 179 -216 218l135 -510h175l261 641h-176zM849 318h166
l104 642h-166zM1617 944c-33 13 -85 27 -149 27c-164 0 -279 -87 -280 -212c-1 -92 82 -143 145 -174c65 -31 86 -52 86 -80c0 -43 -52 -62 -99 -62c-67 0 -103 8 -156 33l-22 11l-23 -144c39 -18 110 -34 185 -34c174 -1 287 86 289 219c0 73 -45 128 -140 174
c-58 29 -93 50 -93 80c0 27 30 55 95 55c54 1 94 -10 124 -24l15 -8zM2042 960h-128c-40 0 -70 -12 -87 -54l-246 -588h174c28 79 35 96 35 96h212c0 0 5 -22 20 -96h154zM2304 1280v-1280c0 -70 -58 -128 -128 -128h-2048c-70 0 -128 58 -128 128v1280c0 70 58 128 128 128
h2048c70 0 128 -58 128 -128z" />
</svg>