<svg width="1536" height="1536" xmlns="http://www.w3.org/2000/svg">
    <path d="M1975 990h-138s14-37 66-179c-1 1 14-37 22-61l12 55c31 153 38 185 38 185zM531 925l-58-295c-8-41-39-54-75-54H130l-2 13c184 47 335 147 403 336zm179-349l-162 438-17-89c-35-93-120-179-216-218l135 510h175l261-641H710zm139 642h166l104-642H953zm768-626c-33-13-85-27-149-27-164 0-279 87-280 212-1 92 82 143 145 174 65 31 86 52 86 80 0 43-52 62-99 62-67 0-103-8-156-33l-22-11-23 144c39 18 110 34 185 34 174 1 287-86 289-219 0-73-45-128-140-174-58-29-93-50-93-80 0-27 30-55 95-55 54-1 94 10 124 24l15 8zm425-16h-128c-40 0-70 12-87 54l-246 588h174c28-79 35-96 35-96h212s5 22 20 96h154zm262-320v1280c0 70-58 128-128 128H128c-70 0-128-58-128-128V256c0-70 58-128 128-128h2048c70 0 128 58 128 128z"/>
</svg>
