<svg xmlns="http://www.w3.org/2000/svg" width="1536" height="1536">
    <path d="M896 380.268c-295.82 0-370.216 279.132-370.216 515.76 0 236.656 74.368 515.76 370.216 515.76 295.792 0 370.188-279.104 370.188-515.76 0-236.628-74.396-515.76-370.188-515.76zm0 194.488c12.012 0 22.96 1.848 33.264 4.396 21.308 18.368 31.724 43.708 11.284 79.044l-197.008 362.04c-6.048-45.808-6.916-90.72-6.916-124.236 0-104.216 7.224-321.244 159.376-321.244zm147.448 166.908c10.444 55.552 11.928 113.568 11.928 154.364 0 104.244-7.224 321.3-159.32 321.3-11.984 0-23.016-1.26-33.264-3.808-1.96-.588-3.752-1.204-5.656-1.876-3.136-.896-6.44-1.904-9.408-3.08-33.88-14.42-55.216-40.488-24.472-86.604z"/>
    <path d="M894.124.028c-248.556 0-458.052 86.52-628.712 260.4-86.436 86.436-152.404 184.996-198.296 294.896C22.316 664.16 0 777.616 0 896.028c0 119.504 22.316 232.96 67.116 340.704 44.8 107.8 109.788 204.736 195.132 291.088 86.38 85.372 183.372 151.172 291.144 197.036C662.2 1769.712 775.684 1792 894.124 1792c118.412 0 233.52-23.128 344.484-69.02 110.936-45.892 209.888-111.832 297.388-198.268 84.308-82.124 148.092-176.316 190.736-282.968C1770.44 1134.028 1792 1018.752 1792 896.028c0-121.604-21.56-236.712-65.24-344.484-43.736-108.78-107.744-204.96-191.996-289.24C1358.7 87.36 1144.78.028 894.124.028zm3.752 161.252c202.664 0 375.536 71.848 519.512 215.852 69.356 69.356 122.5 148.68 158.76 237.188 36.288 88.536 54.572 182.504 54.572 281.708 0 205.912-70.448 376.712-210.168 513.24-72.576 70.448-154.056 124.516-244.72 161.868-89.6 37.352-181.944 55.832-277.956 55.832-97.104 0-190.064-18.284-278.572-54.544-88.564-37.352-168.028-90.664-238.448-160.048-70.42-70.392-124.74-149.884-163.128-238.448-37.324-89.572-56.476-181.944-56.476-277.956 0-97.076 19.152-190.036 56.476-278.572 38.388-89.6 92.736-170.072 163.128-241.584 139.72-142.884 312.2-214.536 517.02-214.536z"/>
</svg>
