<?xml version="1.0" standalone="no"?>
<svg width="1536px" height="1536px" version="1.1" xmlns="http://www.w3.org/2000/svg">
    <path transform="scale(1, -1) translate(0, -1536)" glyph-name="cc" unicode="&#xf20a;" horiz-adv-x="2048" 

d="M785 528h207c-19 -211 -140 -339 -313 -339c-216 0 -347 166 -347 432c0 264 144 429 326 429c200 0 312 -124 329 -334h-203c-7 85 -49 134 -117 134c-75 0 -120 -80 -120 -238c0 -115 20 -223 129 -223c69 0 101 60 109 139zM1497 528h206
c-19 -211 -139 -339 -312 -339c-216 0 -347 166 -347 432c0 264 144 429 326 429c200 0 312 -124 329 -334h-204c-6 85 -49 134 -116 134c-75 0 -120 -80 -120 -238c0 -115 19 -223 128 -223c69 0 102 60 110 139zM1856 647c0 268 -14 384 -76 468c-13 17 -34 28 -51 40
c-63 46 -356 63 -697 63s-648 -17 -710 -63c-18 -13 -40 -23 -53 -40c-62 -83 -75 -200 -75 -468c0 -269 14 -385 75 -468c14 -19 35 -27 53 -41c62 -46 369 -65 710 -65s634 18 697 65c17 13 39 21 51 41c63 82 76 199 76 468zM2048 1408v-1536h-2048v1536h2048z" />
</svg>