<?xml version="1.0" standalone="no"?>
<svg width="1536px" height="1536px" version="1.1" xmlns="http://www.w3.org/2000/svg">
    <path transform="scale(1, -1) translate(0, -1536)" glyph-name="certificate" unicode="&#xf0a3;" 

d="M1376 640l138 -135c19 -18 26 -45 20 -70c-7 -25 -27 -45 -52 -51l-188 -48l53 -186c7 -25 0 -52 -19 -70c-18 -19 -45 -26 -70 -19l-186 53l-48 -188c-6 -25 -26 -45 -51 -52c-6 -1 -13 -2 -19 -2c-19 0 -38 8 -51 22l-135 138l-135 -138c-18 -19 -45 -26 -70 -20
c-26 7 -45 27 -51 52l-48 188l-186 -53c-25 -7 -52 0 -70 19c-19 18 -26 45 -19 70l53 186l-188 48c-25 6 -45 26 -52 51c-6 25 1 52 20 70l138 135l-138 135c-19 18 -26 45 -20 70c7 25 27 45 52 51l188 48l-53 186c-7 25 0 52 19 70c18 19 45 26 70 19l186 -53l48 188
c6 25 26 45 51 51c25 7 52 0 70 -19l135 -139l135 139c18 19 44 26 70 19c25 -6 45 -26 51 -51l48 -188l186 53c25 7 52 0 70 -19c19 -18 26 -45 19 -70l-53 -186l188 -48c25 -6 45 -26 52 -51c6 -25 -1 -52 -20 -70z" />
</svg>