<svg width="1536" height="1536" xmlns="http://www.w3.org/2000/svg">
    <path d="M439 1271l-256 256c-7 6-15 9-23 9s-16-3-23-9c-12-13-12-33 0-46l256-256c13-12 33-12 46 0 12 13 12 33 0 46zm169 41v320c0 18-14 32-32 32s-32-14-32-32v-320c0-18 14-32 32-32s32 14 32 32zm-224-224c0 18-14 32-32 32H32c-18 0-32-14-32-32s14-32 32-32h320c18 0 32 14 32 32zm1264 128c0 77-30 149-85 203l-147 146c-54 54-126 83-203 83s-150-30-204-85l-334-335c-17-17-30-36-42-56l239-18 273 274c36 36 100 37 136 1l147-146c18-18 28-42 28-67 0-26-10-50-28-68l-274-275 18-239c20 12 39 25 56 42l336 336c54 55 84 127 84 204zm-617-724l-239 18-273-274c-18-18-42-28-68-28s-50 10-68 27L236 381c-18 18-28 42-28 67 0 26 10 50 28 68l274 274-18 240c-20-12-39-25-56-42L100 652c-54-55-84-127-84-204s30-149 85-203L248 99c54-54 126-83 203-83s150 30 204 85l334 335c17 17 30 36 42 56zm633 84c0 18-14 32-32 32h-320c-18 0-32-14-32-32s14-32 32-32h320c18 0 32 14 32 32zM1120 32v320c0 18-14 32-32 32s-32-14-32-32V32c0-18 14-32 32-32s32 14 32 32zm407 151l-256 256c-7 6-15 9-23 9s-16-3-23-9c-12-13-12-33 0-46l256-256c13-12 33-12 46 0 12 13 12 33 0 46z"/>
</svg>
