<?xml version="1.0" standalone="no"?>
<svg width="1536px" height="1536px" version="1.1" xmlns="http://www.w3.org/2000/svg">
    <path transform="scale(1, -1) translate(0, -1536)" glyph-name="chain_broken" unicode="&#xf127;" horiz-adv-x="1664" 

d="M439 265l-256 -256c-7 -6 -15 -9 -23 -9s-16 3 -23 9c-12 13 -12 33 0 46l256 256c13 12 33 12 46 0c12 -13 12 -33 0 -46zM608 224v-320c0 -18 -14 -32 -32 -32s-32 14 -32 32v320c0 18 14 32 32 32s32 -14 32 -32zM384 448c0 -18 -14 -32 -32 -32h-320
c-18 0 -32 14 -32 32s14 32 32 32h320c18 0 32 -14 32 -32zM1648 320c0 -77 -30 -149 -85 -203l-147 -146c-54 -54 -126 -83 -203 -83s-150 30 -204 85l-334 335c-17 17 -30 36 -42 56l239 18l273 -274c36 -36 100 -37 136 -1l147 146c18 18 28 42 28 67c0 26 -10 50 -28 68
l-274 275l18 239c20 -12 39 -25 56 -42l336 -336c54 -55 84 -127 84 -204zM1031 1044l-239 -18l-273 274c-18 18 -42 28 -68 28s-50 -10 -68 -27l-147 -146c-18 -18 -28 -42 -28 -67c0 -26 10 -50 28 -68l274 -274l-18 -240c-20 12 -39 25 -56 42l-336 336
c-54 55 -84 127 -84 204s30 149 85 203l147 146c54 54 126 83 203 83s150 -30 204 -85l334 -335c17 -17 30 -36 42 -56zM1664 960c0 -18 -14 -32 -32 -32h-320c-18 0 -32 14 -32 32s14 32 32 32h320c18 0 32 -14 32 -32zM1120 1504v-320c0 -18 -14 -32 -32 -32
s-32 14 -32 32v320c0 18 14 32 32 32s32 -14 32 -32zM1527 1353l-256 -256c-7 -6 -15 -9 -23 -9s-16 3 -23 9c-12 13 -12 33 0 46l256 256c13 12 33 12 46 0c12 -13 12 -33 0 -46z" />
</svg>