<?xml version="1.0" standalone="no"?>
<svg width="1536px" height="1536px" version="1.1" xmlns="http://www.w3.org/2000/svg">
    <path transform="scale(1, -1) translate(0, -1536)" glyph-name="check_circle" unicode="&#xf058;" 

d="M1284 802c0 17 -6 34 -18 46l-91 90c-12 12 -28 19 -45 19s-33 -7 -45 -19l-408 -407l-226 226c-12 12 -28 19 -45 19s-33 -7 -45 -19l-91 -90c-12 -12 -18 -29 -18 -46s6 -33 18 -45l362 -362c12 -12 29 -19 45 -19c17 0 34 7 46 19l543 543c12 12 18 28 18 45z
M1536 640c0 -424 -344 -768 -768 -768s-768 344 -768 768s344 768 768 768s768 -344 768 -768z" />
</svg>