<svg width="1536" height="1536" xmlns="http://www.w3.org/2000/svg">
    <path d="M1408 930v318c0 159-129 288-288 288H288c-159 0-288-129-288-288V416c0-159 129-288 288-288h832c40 0 80 8 117 25 9 4 16 13 18 23 2 11-1 21-9 29l-49 49c-6 6-15 10-23 10-3 0-6-1-9-2-15-4-30-6-45-6H288c-88 0-160 72-160 160v832c0 88 72 160 160 160h832c88 0 160-72 160-160V994c0-8 3-16 9-22l64-64c7-7 15-10 23-10 4 0 8 1 12 3 12 5 20 16 20 29zm231-489l-814 814c-32 32-82 32-114 0L281 825c-32-32-32-82 0-114l110-110c32-32 82-32 114 0l263 263 647-647c32-32 82-32 114 0l110 110c32 32 32 82 0 114z"/>
</svg>
