<?xml version="1.0" standalone="no"?>
<svg width="1536px" height="1536px" version="1.1" xmlns="http://www.w3.org/2000/svg">
    <path transform="scale(1, -1) translate(0, -1536)" glyph-name="check" unicode="&#xf00c;" horiz-adv-x="1792" 

d="M1671 970c0 -25 -10 -50 -28 -68l-724 -724l-136 -136c-18 -18 -43 -28 -68 -28s-50 10 -68 28l-136 136l-362 362c-18 18 -28 43 -28 68s10 50 28 68l136 136c18 18 43 28 68 28s50 -10 68 -28l294 -295l656 657c18 18 43 28 68 28s50 -10 68 -28l136 -136
c18 -18 28 -43 28 -68z" />
</svg>