<?xml version="1.0" standalone="no"?>
<svg width="1536px" height="1536px" version="1.1" xmlns="http://www.w3.org/2000/svg">
    <path transform="scale(1, -1) translate(0, -1536)" glyph-name="check_square_o" unicode="&#xf046;" horiz-adv-x="1664" 

d="M1408 606v-318c0 -159 -129 -288 -288 -288h-832c-159 0 -288 129 -288 288v832c0 159 129 288 288 288h832c40 0 80 -8 117 -25c9 -4 16 -13 18 -23c2 -11 -1 -21 -9 -29l-49 -49c-6 -6 -15 -10 -23 -10c-3 0 -6 1 -9 2c-15 4 -30 6 -45 6h-832
c-88 0 -160 -72 -160 -160v-832c0 -88 72 -160 160 -160h832c88 0 160 72 160 160v254c0 8 3 16 9 22l64 64c7 7 15 10 23 10c4 0 8 -1 12 -3c12 -5 20 -16 20 -29zM1639 1095l-814 -814c-32 -32 -82 -32 -114 0l-430 430c-32 32 -32 82 0 114l110 110c32 32 82 32 114 0
l263 -263l647 647c32 32 82 32 114 0l110 -110c32 -32 32 -82 0 -114z" />
</svg>