<?xml version="1.0" standalone="no"?>
<svg width="1536px" height="1536px" version="1.1" xmlns="http://www.w3.org/2000/svg">
    <path transform="scale(1, -1) translate(0, -1536)" glyph-name="check_circle_o" unicode="&#xf05d;" 

d="M1171 723l-422 -422c-25 -25 -65 -25 -90 0l-294 294c-25 25 -25 65 0 90l102 102c25 25 65 25 90 0l147 -147l275 275c25 25 65 25 90 0l102 -102c25 -25 25 -65 0 -90zM1312 640c0 300 -244 544 -544 544s-544 -244 -544 -544s244 -544 544 -544s544 244 544 544z
M1536 640c0 -424 -344 -768 -768 -768s-768 344 -768 768s344 768 768 768s768 -344 768 -768z" />
</svg>