<?xml version="1.0" standalone="no"?>
<svg width="1536px" height="1536px" version="1.1" xmlns="http://www.w3.org/2000/svg">
    <path transform="scale(1, -1) translate(0, -1536)" glyph-name="chrome" unicode="&#xf268;" horiz-adv-x="1792" 

d="M893 1536c153 1 309 -38 451 -120c157 -91 276 -222 352 -372l-742 39c-210 12 -410 -106 -479 -304l-276 424c172 214 430 332 694 333zM146 1131l337 -663c95 -187 296 -301 504 -262l-230 -451c-429 66 -757 437 -757 885c0 181 54 350 146 491zM1732 962
c157 -404 0 -874 -388 -1098c-157 -91 -330 -128 -498 -119l405 623c115 177 113 408 -24 568zM896 942c167 0 302 -135 302 -302s-135 -302 -302 -302s-302 135 -302 302s135 302 302 302z" />
</svg>