<svg viewBox="0 0 1536.6 1536.1">
    <path d="M1531 146.5c-6.4-9.4-17.1-15-28.5-14.6C1307.7 142.2 995.8 257 981.2 262c-7.7 2.7-14 8.3-17.6 15.6l-44.1 88.3-33.2-33.2c-10.1-9.5-25.1-11.8-37.5-5.6-37.2 19.2-225.6 119.1-265.5 167.9-26.6 44.6-44.3 94-52.1 145.3L509 596.5c-4.6-8.8-12.9-15.2-22.6-17.3-9.7-2.1-19.8.6-27.2 7.3-11.3 10-246.5 221.7-197.4 485.5C458.3 781.2 729 548.3 1045.9 397.4c16.1-7.2 35.1.1 42.2 16.2 6.8 15.3.7 33.2-14 41.2-21.6 10.6-42.5 21.6-63 33.2l-15.3 9c-15.9 8.3-31.5 16.9-46.5 25.9l-14.9 8.3c-39.2 22.1-76.7 45.7-112.5 70.7l-8.6 6c-15.6 10.6-30.9 21.6-45.8 33.2l-8 5.6C410.4 902.4 225.6 1228.9 4.6 1620.2c-8 15.4-2.8 34.3 11.9 43.5 4.7 2.8 10.1 4.3 15.6 4.3h1.3c11.5-.2 22.1-6.4 27.9-16.3 88.3-156 170.6-301.3 259.8-435.7 36.3 44.3 91.4 68.9 148.7 66.4 241.9 0 641.4-354.1 681.9-468.2 3-8.4 2.3-17.7-2-25.6-4.4-7.9-11.8-13.6-20.6-15.9l-106.5-26.9 232.3-38.5c10-1.9 18.5-8.3 23.2-17.3l254.5-511.7c6.4-10.1 4.8-21.7-1.6-31.8z"/>
</svg>
