<svg xmlns="http://www.w3.org/2000/svg" viewBox="0 0 1530.32 1530.32">
    <path d="M1530.32 765.16c0-423-342.16-765.16-765.16-765.16C342.16 0 0 342.16 0 765.16c0 423 342.16 765.16 765.16 765.16 423 0 765.16-342.16 765.16-765.16zM1193.8 355.32l-144.76 289.52a14.14 14.14 0 0 1-13.16 9.4L902.4 676.8l60.16 15c5.64 1.88 9.4 3.76 11.28 9.4 1.88 3.76 1.88 9.4 1.88 15-22.56 63.92-248.16 265.08-385.4 265.08-32 1.88-63.92-13.16-84.6-37.6-50.76 77.08-97.76 157.92-146.64 246.28-3.76 5.64-9.4 9.4-15 9.4-3.76 0-5.64 0-9.4-1.88-7.52-5.64-11.28-16.92-7.52-24.44 126-223.72 229.36-408 428.64-552.72l3.76-3.76c9.4-7.52 16.92-13.16 26.32-18.8l5.64-3.76c20.68-13.16 41.36-26.32 63.92-39.48l9.4-5.64 26.32-15 9.4-3.76c11.28-7.52 22.56-13.16 35.72-18.8 1.88 0 5.64-1.88 7.52-3.76 7.52-7.52 9.4-18.8 1.88-26.32-7.52-7.52-18.8-9.4-26.32-1.88-182.4 84.64-334.68 218.08-445.6 381.68-28.2-150.4 105.28-268.84 110.92-274.48a14.62 14.62 0 0 1 15-3.76c5.64 1.88 9.4 3.76 13.16 9.4l11.28 24.44c3.76-30.08 15-56.4 30.08-82.72 22.56-28.2 129.72-84.6 150.4-95.88 7.52-3.76 15-1.88 20.68 3.76l18.8 18.8 24.44-50.76a22.65 22.65 0 0 1 9.4-9.4c7.52-1.88 186.12-67.68 295.16-73.32 5.64 0 13.16 1.88 16.92 7.52 5.64 5.64 5.64 13.16 3.76 20.68z"/>
</svg>
