<?xml version="1.0" standalone="no"?>
<svg width="1536px" height="1536px" version="1.1" xmlns="http://www.w3.org/2000/svg">
    <path transform="scale(1, -1) translate(0, -1536)" glyph-name="clone" unicode="&#xf24d;" horiz-adv-x="1792" 

d="M1664 -96v1088c0 17 -15 32 -32 32h-1088c-17 0 -32 -15 -32 -32v-1088c0 -17 15 -32 32 -32h1088c17 0 32 15 32 32zM1792 992v-1088c0 -88 -72 -160 -160 -160h-1088c-88 0 -160 72 -160 160v1088c0 88 72 160 160 160h1088c88 0 160 -72 160 -160zM1408 1376v-160
h-128v160c0 17 -15 32 -32 32h-1088c-17 0 -32 -15 -32 -32v-1088c0 -17 15 -32 32 -32h160v-128h-160c-88 0 -160 72 -160 160v1088c0 88 72 160 160 160h1088c88 0 160 -72 160 -160z" />
</svg>