<?xml version="1.0" standalone="no"?>
<svg width="1536px" height="1536px" version="1.1" xmlns="http://www.w3.org/2000/svg">
    <path transform="scale(1, -1) translate(0, -1536)" glyph-name="cloud_download" unicode="&#xf0ed;" horiz-adv-x="1920" 

d="M1280 608c0 18 -14 32 -32 32h-224v352c0 17 -15 32 -32 32h-192c-17 0 -32 -15 -32 -32v-352h-224c-18 0 -32 -15 -32 -32c0 -8 3 -17 9 -23l352 -352c6 -6 14 -9 23 -9c8 0 17 3 23 9l351 351c6 7 10 15 10 24zM1920 384c0 -212 -172 -384 -384 -384h-1088
c-247 0 -448 201 -448 448c0 174 101 332 258 405c-1 15 -2 29 -2 43c0 283 229 512 512 512c208 0 395 -126 474 -318c46 40 105 62 166 62c141 0 256 -115 256 -256c0 -49 -14 -97 -41 -138c174 -41 297 -196 297 -374z" />
</svg>