<svg xmlns="http://www.w3.org/2000/svg" height="410" width="630" viewBox="0 0 630 410">
    <path d="M186.607 5.414L10 385.813l23.615 10.96L195.6 47.891l133.416 116.732-48.01 54.893-16.254-14.227-17.158 19.613 35.851 31.364 72.387-82.729-.01-.008 32.076-36.668 211.686 267.725L620 388.436 388.916 96.146l-42.742 48.868-159.567-139.6zm35.78 104.78l-67.176 76.802 19.598 17.145 50.03-57.198 38.573 33.744 17.158-19.607-58.183-50.887z" style="line-height:normal;font-variant-ligatures:normal;font-variant-position:normal;font-variant-caps:normal;font-variant-numeric:normal;font-variant-alternates:normal;font-variant-east-asian:normal;font-feature-settings:normal;font-variation-settings:normal;text-indent:0;text-align:start;text-decoration-line:none;text-decoration-style:solid;text-decoration-color:#000;text-transform:none;text-orientation:mixed;white-space:normal;shape-padding:0;shape-margin:0;inline-size:0;isolation:auto;mix-blend-mode:normal;solid-color:#000;solid-opacity:1" fill="#2b0000" fill-rule="evenodd"/>
    <path d="M140.402 307.524q-.52.661-1.039 1.039-.472.378-1.416.378-.897 0-1.747-.52-.85-.566-2.03-1.227-1.18-.708-2.832-1.228-1.606-.566-4.013-.566-3.069 0-5.382 1.133-2.313 1.086-3.871 3.163-1.51 2.077-2.266 5.051-.755 2.927-.755 6.657 0 3.87.802 6.892.85 3.022 2.408 5.099 1.558 2.03 3.776 3.115 2.22 1.04 5.005 1.04 2.785 0 4.484-.662 1.747-.708 2.927-1.51 1.18-.85 2.03-1.511.897-.708 1.983-.708 1.416 0 2.125 1.085l3.351 4.25q-1.935 2.265-4.201 3.823-2.266 1.51-4.721 2.455-2.408.897-5.004 1.275-2.55.377-5.099.377-4.485 0-8.45-1.652-3.966-1.7-6.94-4.91t-4.72-7.836q-1.7-4.674-1.7-10.622 0-5.335 1.51-9.867 1.558-4.58 4.532-7.884 2.975-3.352 7.365-5.24 4.39-1.888 10.103-1.888 5.429 0 9.489 1.746 4.107 1.747 7.364 5.004zm31.361-10.999q5.382 0 9.772 1.746 4.438 1.747 7.554 4.957 3.163 3.21 4.862 7.837 1.7 4.626 1.7 10.339 0 5.76-1.7 10.386-1.7 4.626-4.862 7.883-3.116 3.258-7.554 5.005-4.39 1.746-9.772 1.746-5.429 0-9.867-1.746-4.437-1.747-7.6-5.005-3.116-3.257-4.863-7.883-1.7-4.627-1.7-10.386 0-5.713 1.7-10.34 1.747-4.626 4.863-7.836 3.163-3.21 7.6-4.957 4.438-1.746 9.867-1.746zm0 40.93q6.043 0 8.923-4.06 2.927-4.06 2.927-11.897 0-7.837-2.927-11.944-2.88-4.107-8.923-4.107-6.137 0-9.111 4.154-2.927 4.108-2.927 11.897 0 7.79 2.927 11.897 2.974 4.06 9.111 4.06zm67.718 8.261q-2.313 0-2.927-2.124l-.991-4.674q-1.51 1.7-3.163 3.069-1.652 1.369-3.588 2.36-1.888.992-4.107 1.51-2.172.567-4.721.567-3.966 0-7.27-1.652-3.305-1.652-5.712-4.768-2.36-3.163-3.683-7.79-1.274-4.626-1.274-10.574 0-5.382 1.463-10.009 1.464-4.626 4.202-8.025 2.738-3.4 6.562-5.287 3.824-1.936 8.592-1.936 4.06 0 6.94 1.322 2.88 1.274 5.145 3.446v-25.587h11.66v70.152zm-15.531-8.545q3.635 0 6.184-1.51 2.55-1.511 4.815-4.296v-21.716q-1.983-2.408-4.343-3.4-2.313-.99-5.004-.99-2.644 0-4.768.99-2.125.992-3.635 3.022-1.511 1.983-2.314 5.099-.802 3.068-.802 7.27 0 4.249.66 7.223.709 2.927 1.984 4.815 1.274 1.841 3.115 2.69 1.842.803 4.108.803zm54.89-40.646q4.58 0 8.45 1.463 3.872 1.464 6.657 4.296 2.785 2.785 4.343 6.893 1.605 4.06 1.605 9.3 0 2.643-.566 3.588-.567.897-2.172.897H267.18q.283 3.729 1.321 6.467 1.039 2.691 2.739 4.485 1.7 1.747 4.012 2.644 2.36.85 5.193.85 2.833 0 4.863-.661 2.077-.661 3.588-1.464 1.558-.802 2.69-1.463 1.18-.661 2.267-.661 1.463 0 2.171 1.085l3.352 4.25q-1.936 2.265-4.343 3.823-2.408 1.51-5.052 2.455-2.596.897-5.334 1.275-2.691.377-5.24.377-5.052 0-9.395-1.652-4.343-1.7-7.553-4.957-3.21-3.305-5.052-8.12-1.84-4.862-1.84-11.236 0-4.956 1.604-9.3 1.605-4.39 4.58-7.6 3.02-3.258 7.317-5.146 4.343-1.888 9.772-1.888zm.236 8.356q-5.098 0-7.978 2.88-2.88 2.879-3.682 8.166h21.999q0-2.266-.661-4.248-.614-2.03-1.888-3.541-1.275-1.51-3.258-2.36-1.935-.897-4.532-.897zm29.478 40.835v-70.152h11.66v27.711q2.927-3.115 6.468-4.91 3.588-1.84 8.167-1.84 4.202 0 7.553 1.652 3.4 1.652 5.76 4.768 2.408 3.069 3.682 7.459 1.275 4.39 1.275 9.867 0 5.9-1.464 10.716-1.463 4.815-4.201 8.262-2.691 3.399-6.515 5.287t-8.498 1.888q-2.266 0-4.154-.472-1.841-.425-3.399-1.227-1.51-.803-2.833-1.936-1.274-1.18-2.454-2.596l-.52 3.257q-.283 1.228-.991 1.747-.661.52-1.841.52zm22.282-40.127q-3.352 0-5.854 1.558-2.502 1.51-4.768 4.296v21.716q1.983 2.455 4.296 3.446 2.36.944 4.957.944 2.691 0 4.816-.944 2.171-.991 3.682-3.021 1.51-2.078 2.313-5.24.803-3.21.803-7.648 0-7.979-2.644-11.52-2.644-3.587-7.6-3.587zm52.011-9.064q4.58 0 8.45 1.463 3.872 1.464 6.657 4.296 2.785 2.785 4.343 6.893 1.605 4.06 1.605 9.3 0 2.643-.566 3.588-.567.897-2.172.897h-29.977q.283 3.729 1.321 6.467 1.039 2.691 2.739 4.485 1.7 1.747 4.012 2.644 2.36.85 5.193.85 2.833 0 4.863-.661 2.077-.661 3.588-1.464 1.558-.802 2.69-1.463 1.18-.661 2.267-.661 1.463 0 2.171 1.085l3.352 4.25q-1.936 2.265-4.343 3.823-2.408 1.51-5.052 2.455-2.596.897-5.334 1.275-2.691.377-5.24.377-5.052 0-9.395-1.652-4.343-1.7-7.553-4.957-3.21-3.305-5.052-8.12-1.84-4.862-1.84-11.236 0-4.956 1.604-9.3 1.605-4.39 4.58-7.6 3.02-3.258 7.317-5.146 4.343-1.888 9.772-1.888zm.236 8.356q-5.098 0-7.978 2.88-2.88 2.879-3.682 8.166h21.999q0-2.266-.661-4.248-.614-2.03-1.888-3.541-1.275-1.51-3.258-2.36-1.935-.897-4.532-.897zm29.477 40.835V297.28h6.846q1.794 0 2.502.66.708.615.944 2.267l.661 5.476q2.313-4.343 5.43-6.798 3.115-2.502 7.364-2.502 3.352 0 5.382 1.463l-.756 8.734q-.236.85-.708 1.228-.425.33-1.18.33-.708 0-2.125-.236-1.369-.236-2.69-.236-1.936 0-3.447.566-1.51.567-2.738 1.653-1.18 1.038-2.124 2.549-.897 1.51-1.7 3.446v29.836zm52.189-49.286q3.115 0 5.806.661 2.738.614 5.052 1.841h13.926v4.343q0 2.078-2.502 2.55l-4.343.802q.472 1.228.708 2.597.283 1.369.283 2.88 0 3.587-1.463 6.514-1.416 2.88-3.966 4.91-2.549 2.03-6.042 3.163-3.447 1.086-7.46 1.086-2.737 0-5.334-.52-2.266 1.37-2.266 3.07 0 1.463 1.322 2.17 1.369.662 3.588.945 2.219.283 5.051.378 2.833.047 5.807.283t5.806.85q2.833.566 5.052 1.84 2.219 1.275 3.54 3.494 1.37 2.172 1.37 5.618 0 3.21-1.606 6.232-1.557 3.021-4.579 5.381-2.974 2.36-7.364 3.777-4.344 1.464-9.914 1.464-5.476 0-9.536-1.086-4.06-1.039-6.751-2.833-2.691-1.746-4.013-4.06-1.322-2.313-1.322-4.815 0-3.352 2.03-5.665 2.077-2.313 5.618-3.682-1.888-.992-3.021-2.644-1.133-1.652-1.133-4.343 0-1.086.377-2.22.378-1.18 1.133-2.312.803-1.133 1.983-2.125 1.227-1.038 2.833-1.84-3.683-1.984-5.807-5.288-2.077-3.305-2.077-7.742 0-3.588 1.416-6.468 1.463-2.927 4.013-4.957 2.596-2.077 6.09-3.163 3.54-1.086 7.695-1.086zm13.17 51.458q0-1.416-.849-2.266-.85-.897-2.313-1.416-1.464-.52-3.446-.756-1.936-.236-4.155-.33-2.171-.142-4.532-.236-2.313-.095-4.532-.378-1.935 1.086-3.163 2.55-1.18 1.463-1.18 3.398 0 1.275.614 2.36.66 1.134 2.03 1.936 1.416.803 3.635 1.228 2.219.472 5.429.472 3.257 0 5.618-.52 2.36-.472 3.87-1.369 1.559-.85 2.267-2.077.708-1.18.708-2.596zm-13.17-27.57q2.171 0 3.776-.567 1.605-.613 2.644-1.652 1.086-1.039 1.605-2.502.567-1.463.567-3.21 0-3.588-2.172-5.665-2.124-2.125-6.42-2.125-4.296 0-6.468 2.125-2.124 2.077-2.124 5.665 0 1.7.519 3.163.566 1.463 1.605 2.549 1.086 1.039 2.69 1.652 1.653.567 3.778.567z" aria-label="codeberg" font-weight="700" font-size="94.418" font-family="Lato"/>
</svg>
