<svg width="1536" height="1536" xmlns="http://www.w3.org/2000/svg">
    <path d="M288 1472c0-53-43-96-96-96s-96 43-96 96 43 96 96 96 96-43 96-96zm0-1152c0-53-43-96-96-96s-96 43-96 96 43 96 96 96 96-43 96-96zm640 128c0-53-43-96-96-96s-96 43-96 96 43 96 96 96 96-43 96-96zm96 0c0 71-39 133-96 166-3 361-259 441-429 495-159 50-211 74-211 171v26c57 33 96 95 96 166 0 106-86 192-192 192S0 1578 0 1472c0-71 39-133 96-166V486C39 453 0 391 0 320c0-106 86-192 192-192s192 86 192 192c0 71-39 133-96 166v497c51-25 105-42 154-57 186-59 292-103 294-312-57-33-96-95-96-166 0-106 86-192 192-192s192 86 192 192z"/>
</svg>
