<svg xmlns="http://www.w3.org/2000/svg" width="16" height="16" viewBox="0 0 4.233 4.233">
    <path d="M0 2.265c0 .398.112.788.323 1.125l1.765-2.281c.013-.016.044-.016.057 0l.737.953h-.528l.011.042h.549l.156.201h-.648l.018.066h.681l.137.177H2.49l.024.085h.81l.122.158h-.888l.029.104h.939l.107.139H2.625l.032.115h1.065l.099.128H2.693l.032.115H3.91c.211-.337.323-.727.323-1.125 0-1.169-.947-2.116-2.117-2.116S0 1.096 0 2.265zm2.761 1.253l.032.115h.939l.091-.115zm.068.243l.032.115h.628l.126-.115zm.067.243l.032.114h.212l.184-.114z" paint-order="markers fill stroke"/>
</svg>
