<?xml version="1.0" standalone="no"?>
<svg width="1536px" height="1536px" version="1.1" xmlns="http://www.w3.org/2000/svg">
    <path transform="scale(1, -1) translate(0, -1536)" glyph-name="codepen" unicode="&#xf1cb;" horiz-adv-x="1792" 

d="M216 367l603 -402v359l-334 223zM154 511l193 129l-193 129v-258zM973 -35l603 402l-269 180l-334 -223v-359zM896 458l272 182l-272 182l-272 -182zM485 733l334 223v359l-603 -402zM1445 640l193 -129v258zM1307 733l269 180l-603 402v-359zM1792 913v-546
c0 -25 -13 -50 -34 -64l-819 -546c-13 -8 -28 -13 -43 -13s-30 5 -43 13l-819 546c-21 14 -34 39 -34 64v546c0 25 13 50 34 64l819 546c13 8 28 13 43 13s30 -5 43 -13l819 -546c21 -14 34 -39 34 -64z" />
</svg>