<?xml version="1.0" standalone="no"?>
<svg width="1536px" height="1536px" version="1.1" xmlns="http://www.w3.org/2000/svg">
    <path transform="scale(1, -1) translate(0, -1536)" glyph-name="code_fork" unicode="&#xf126;" horiz-adv-x="1024" 

d="M288 64c0 53 -43 96 -96 96s-96 -43 -96 -96s43 -96 96 -96s96 43 96 96zM288 1216c0 53 -43 96 -96 96s-96 -43 -96 -96s43 -96 96 -96s96 43 96 96zM928 1088c0 53 -43 96 -96 96s-96 -43 -96 -96s43 -96 96 -96s96 43 96 96zM1024 1088c0 -71 -39 -133 -96 -166
c-3 -361 -259 -441 -429 -495c-159 -50 -211 -74 -211 -171v-26c57 -33 96 -95 96 -166c0 -106 -86 -192 -192 -192s-192 86 -192 192c0 71 39 133 96 166v820c-57 33 -96 95 -96 166c0 106 86 192 192 192s192 -86 192 -192c0 -71 -39 -133 -96 -166v-497
c51 25 105 42 154 57c186 59 292 103 294 312c-57 33 -96 95 -96 166c0 106 86 192 192 192s192 -86 192 -192z" />
</svg>