<?xml version="1.0" standalone="no"?>
<svg width="1536px" height="1536px" version="1.1" xmlns="http://www.w3.org/2000/svg">
    <path transform="scale(1, -1) translate(0, -1536)" glyph-name="code" unicode="&#xf121;" horiz-adv-x="1920" 

d="M617 137l-50 -50c-13 -13 -33 -13 -46 0l-466 466c-13 13 -13 33 0 46l466 466c13 13 33 13 46 0l50 -50c13 -13 13 -33 0 -46l-393 -393l393 -393c13 -13 13 -33 0 -46zM1208 1204l-373 -1291c-5 -17 -23 -27 -39 -22l-62 17c-17 5 -27 23 -22 40l373 1291
c5 17 23 27 39 22l62 -17c17 -5 27 -23 22 -40zM1865 553l-466 -466c-13 -13 -33 -13 -46 0l-50 50c-13 13 -13 33 0 46l393 393l-393 393c-13 13 -13 33 0 46l50 50c13 13 33 13 46 0l466 -466c13 -13 13 -33 0 -46z" />
</svg>