<?xml version="1.0" standalone="no"?>
<svg width="1536px" height="1536px" version="1.1" xmlns="http://www.w3.org/2000/svg">
    <path transform="scale(1, -1) translate(0, -1536)" glyph-name="codepie" unicode="&#xf284;" horiz-adv-x="1792" 

d="M1584 246l-218 111c-98 -160 -272 -258 -460 -258c-298 0 -539 241 -539 538c0 298 241 539 539 539c175 0 339 -85 440 -229l215 125c-147 226 -396 361 -665 361c-438 0 -793 -355 -793 -793s355 -793 793 -793c284 0 547 152 688 399zM1030 643l693 -352
c-152 -332 -457 -547 -827 -547c-495 0 -896 401 -896 896s401 896 896 896c352 0 642 -194 806 -500zM1543 640h-39v-160h-96v352h136c111 0 121 -192 -1 -192z" />
</svg>