<?xml version="1.0" standalone="no"?>
<svg width="1536px" height="1536px" version="1.1" xmlns="http://www.w3.org/2000/svg">
    <path transform="scale(1, -1) translate(0, -1536)" glyph-name="cog" unicode="&#xf013;" 

d="M1024 640c0 141 -115 256 -256 256s-256 -115 -256 -256s115 -256 256 -256s256 115 256 256zM1536 749v-222c0 -15 -12 -33 -28 -36l-185 -28c-11 -32 -23 -62 -39 -91c34 -49 70 -93 107 -138c6 -7 10 -16 10 -25s-3 -16 -9 -23c-24 -32 -159 -179 -193 -179
c-9 0 -18 4 -26 9l-138 108c-29 -15 -60 -28 -91 -38c-7 -61 -13 -126 -29 -186c-4 -16 -18 -28 -36 -28h-222c-18 0 -34 13 -36 30l-28 184c-31 10 -61 22 -90 37l-141 -107c-7 -6 -16 -9 -25 -9s-18 4 -25 11c-53 48 -123 110 -165 168c-5 7 -7 15 -7 23c0 9 3 16 8 23
c34 46 71 90 105 137c-17 32 -31 65 -41 99l-183 27c-17 3 -29 19 -29 36v222c0 15 12 33 27 36l186 28c10 32 23 62 39 92c-34 48 -70 93 -107 138c-6 7 -10 15 -10 24s4 16 9 23c24 33 159 179 193 179c9 0 18 -4 26 -10l138 -107c29 15 60 28 91 38c7 61 13 126 29 186
c4 16 18 28 36 28h222c18 0 34 -13 36 -30l28 -184c31 -10 61 -22 90 -37l142 107c6 6 15 9 24 9s18 -4 25 -10c53 -49 123 -111 165 -170c5 -6 7 -14 7 -22c0 -9 -3 -16 -8 -23c-34 -46 -71 -90 -105 -137c17 -32 31 -65 41 -98l183 -28c17 -3 29 -19 29 -36z" />
</svg>