<svg width="1536" height="1536" xmlns="http://www.w3.org/2000/svg">
    <path d="M1024 896c0-141-115-256-256-256S512 755 512 896s115 256 256 256 256-115 256-256zm512-109v222c0 15-12 33-28 36l-185 28c-11 32-23 62-39 91 34 49 70 93 107 138 6 7 10 16 10 25s-3 16-9 23c-24 32-159 179-193 179-9 0-18-4-26-9l-138-108c-29 15-60 28-91 38-7 61-13 126-29 186-4 16-18 28-36 28H657c-18 0-34-13-36-30l-28-184c-31-10-61-22-90-37l-141 107c-7 6-16 9-25 9s-18-4-25-11c-53-48-123-110-165-168-5-7-7-15-7-23 0-9 3-16 8-23 34-46 71-90 105-137-17-32-31-65-41-99l-183-27c-17-3-29-19-29-36V783c0-15 12-33 27-36l186-28c10-32 23-62 39-92-34-48-70-93-107-138-6-7-10-15-10-24s4-16 9-23c24-33 159-179 193-179 9 0 18 4 26 10l138 107c29-15 60-28 91-38 7-61 13-126 29-186 4-16 18-28 36-28h222c18 0 34 13 36 30l28 184c31 10 61 22 90 37l142-107c6-6 15-9 24-9s18 4 25 10c53 49 123 111 165 170 5 6 7 14 7 22 0 9-3 16-8 23-34 46-71 90-105 137 17 32 31 65 41 98l183 28c17 3 29 19 29 36z"/>
</svg>
