<svg width="1536" height="1536" xmlns="http://www.w3.org/2000/svg">
    <path d="M896 896c0-141-115-256-256-256S384 755 384 896s115 256 256 256 256-115 256-256zm768 512c0-70-58-128-128-128s-128 58-128 128c0 71 58 128 128 128 71 0 128-58 128-128zm0-1024c0-70-58-128-128-128s-128 58-128 128c0 71 58 128 128 128 71 0 128-58 128-128zm-384 421v185c0 13-10 28-23 30l-155 24c-8 26-19 51-32 76 28 40 58 77 90 115 4 6 7 12 7 20 0 7-2 14-7 19-20 27-132 149-161 149-8 0-15-3-21-7l-115-90c-25 13-50 23-77 31-5 51-10 106-23 155-4 14-16 24-30 24H547c-14 0-28-11-30-25l-23-153c-26-8-51-19-75-31l-118 89c-5 5-13 7-20 7-8 0-15-3-21-8-26-24-144-131-144-160 0-7 3-13 7-19 29-38 59-75 88-114-14-27-26-54-35-82l-152-24c-14-2-24-15-24-29V802c0-13 10-28 23-30l155-24c8-26 19-51 32-76-28-40-58-77-90-115-4-6-7-13-7-20s2-14 7-20c20-27 132-148 161-148 8 0 15 3 21 7l115 90c25-13 50-23 77-32 5-50 10-105 23-154 4-14 16-24 30-24h186c14 0 28 11 30 25l23 153c26 8 51 19 75 31l118-89c6-5 13-7 20-7 8 0 15 3 21 8 26 24 144 132 144 160 0 7-3 13-7 19-29 39-59 75-87 114 13 27 25 54 34 82l152 23c14 3 24 16 24 30zm640 533v140c0 15-129 29-149 31-8 19-18 36-30 52 9 20 51 120 51 138 0 3-1 5-4 7-12 7-119 71-124 71-13 0-88-100-98-115-10 1-20 2-30 2s-20-1-30-2c-10 15-85 115-98 115-5 0-112-64-124-71-3-2-4-5-4-7 0-17 42-118 51-138-12-16-22-33-30-52-20-2-149-16-149-31v-140c0-15 129-29 149-31 8-18 18-36 30-52-9-20-51-121-51-138 0-2 1-5 4-7 12-6 119-70 124-70 13 0 88 99 98 114 10-1 20-2 30-2s20 1 30 2c28-39 58-78 92-112l6-2c5 0 112 63 124 70 3 2 4 5 4 7 0 18-42 118-51 138 12 16 22 34 30 52 20 2 149 16 149 31zm0-1024v140c0 15-129 29-149 31-8 19-18 36-30 52 9 20 51 120 51 138 0 3-1 5-4 7-12 7-119 71-124 71-13 0-88-100-98-115-10 1-20 2-30 2s-20-1-30-2c-10 15-85 115-98 115-5 0-112-64-124-71-3-2-4-5-4-7 0-17 42-118 51-138-12-16-22-33-30-52-20-2-149-16-149-31V314c0-15 129-29 149-31 8-18 18-36 30-52-9-20-51-121-51-138 0-2 1-5 4-7 12-6 119-70 124-70 13 0 88 99 98 114 10-1 20-2 30-2s20 1 30 2c28-39 58-78 92-112l6-2c5 0 112 63 124 70 3 2 4 5 4 7 0 18-42 118-51 138 12 16 22 34 30 52 20 2 149 16 149 31z"/>
</svg>
