<?xml version="1.0" standalone="no"?>
<svg width="1536px" height="1536px" version="1.1" xmlns="http://www.w3.org/2000/svg">
    <path transform="scale(1, -1) translate(0, -1536)" glyph-name="cogs" unicode="&#xf085;" horiz-adv-x="1920" 

d="M896 640c0 141 -115 256 -256 256s-256 -115 -256 -256s115 -256 256 -256s256 115 256 256zM1664 128c0 70 -58 128 -128 128s-128 -58 -128 -128c0 -71 58 -128 128 -128c71 0 128 58 128 128zM1664 1152c0 70 -58 128 -128 128s-128 -58 -128 -128
c0 -71 58 -128 128 -128c71 0 128 58 128 128zM1280 731v-185c0 -13 -10 -28 -23 -30l-155 -24c-8 -26 -19 -51 -32 -76c28 -40 58 -77 90 -115c4 -6 7 -12 7 -20c0 -7 -2 -14 -7 -19c-20 -27 -132 -149 -161 -149c-8 0 -15 3 -21 7l-115 90c-25 -13 -50 -23 -77 -31
c-5 -51 -10 -106 -23 -155c-4 -14 -16 -24 -30 -24h-186c-14 0 -28 11 -30 25l-23 153c-26 8 -51 19 -75 31l-118 -89c-5 -5 -13 -7 -20 -7c-8 0 -15 3 -21 8c-26 24 -144 131 -144 160c0 7 3 13 7 19c29 38 59 75 88 114c-14 27 -26 54 -35 82l-152 24c-14 2 -24 15 -24 29
v185c0 13 10 28 23 30l155 24c8 26 19 51 32 76c-28 40 -58 77 -90 115c-4 6 -7 13 -7 20s2 14 7 20c20 27 132 148 161 148c8 0 15 -3 21 -7l115 -90c25 13 50 23 77 32c5 50 10 105 23 154c4 14 16 24 30 24h186c14 0 28 -11 30 -25l23 -153c26 -8 51 -19 75 -31l118 89
c6 5 13 7 20 7c8 0 15 -3 21 -8c26 -24 144 -132 144 -160c0 -7 -3 -13 -7 -19c-29 -39 -59 -75 -87 -114c13 -27 25 -54 34 -82l152 -23c14 -3 24 -16 24 -30zM1920 198v-140c0 -15 -129 -29 -149 -31c-8 -19 -18 -36 -30 -52c9 -20 51 -120 51 -138c0 -3 -1 -5 -4 -7
c-12 -7 -119 -71 -124 -71c-13 0 -88 100 -98 115c-10 -1 -20 -2 -30 -2s-20 1 -30 2c-10 -15 -85 -115 -98 -115c-5 0 -112 64 -124 71c-3 2 -4 5 -4 7c0 17 42 118 51 138c-12 16 -22 33 -30 52c-20 2 -149 16 -149 31v140c0 15 129 29 149 31c8 18 18 36 30 52
c-9 20 -51 121 -51 138c0 2 1 5 4 7c12 6 119 70 124 70c13 0 88 -99 98 -114c10 1 20 2 30 2s20 -1 30 -2c28 39 58 78 92 112l6 2c5 0 112 -63 124 -70c3 -2 4 -5 4 -7c0 -18 -42 -118 -51 -138c12 -16 22 -34 30 -52c20 -2 149 -16 149 -31zM1920 1222v-140
c0 -15 -129 -29 -149 -31c-8 -19 -18 -36 -30 -52c9 -20 51 -120 51 -138c0 -3 -1 -5 -4 -7c-12 -7 -119 -71 -124 -71c-13 0 -88 100 -98 115c-10 -1 -20 -2 -30 -2s-20 1 -30 2c-10 -15 -85 -115 -98 -115c-5 0 -112 64 -124 71c-3 2 -4 5 -4 7c0 17 42 118 51 138
c-12 16 -22 33 -30 52c-20 2 -149 16 -149 31v140c0 15 129 29 149 31c8 18 18 36 30 52c-9 20 -51 121 -51 138c0 2 1 5 4 7c12 6 119 70 124 70c13 0 88 -99 98 -114c10 1 20 2 30 2s20 -1 30 -2c28 39 58 78 92 112l6 2c5 0 112 -63 124 -70c3 -2 4 -5 4 -7
c0 -18 -42 -118 -51 -138c12 -16 22 -34 30 -52c20 -2 149 -16 149 -31z" />
</svg>