<?xml version="1.0" standalone="no"?>
<svg width="1536px" height="1536px" version="1.1" xmlns="http://www.w3.org/2000/svg">
    <path transform="scale(1, -1) translate(0, -1536)" glyph-name="commenting" unicode="&#xf27a;" horiz-adv-x="1792" 

d="M640 640c0 71 -57 128 -128 128s-128 -57 -128 -128s57 -128 128 -128s128 57 128 128zM1024 640c0 71 -57 128 -128 128s-128 -57 -128 -128s57 -128 128 -128s128 57 128 128zM1408 640c0 71 -57 128 -128 128s-128 -57 -128 -128s57 -128 128 -128s128 57 128 128z
M1792 640c0 -354 -401 -640 -896 -640c-73 0 -144 6 -211 18c-114 -114 -263 -192 -435 -229c-27 -5 -56 -10 -86 -13c-16 -2 -31 9 -35 24v0c-4 16 8 26 20 37c63 59 138 106 164 317c-191 117 -313 291 -313 486c0 354 401 640 896 640s896 -286 896 -640z" />
</svg>