<svg width="1536" height="1536" xmlns="http://www.w3.org/2000/svg">
    <path d="M1408 768c0 283-315 512-704 512-61 0-120-6-176-16-83 59-177 102-278 128-27 7-56 12-86 16h-3c-15 0-29-12-32-29-4-19 9-31 20-44 39-44 83-83 117-166C104 1075 0 930 0 768c0-283 315-512 704-512s704 229 704 512zm384 256c0 163-104 307-266 401 34 83 78 122 117 166 11 13 24 25 20 44-4 18-19 31-35 29-30-4-59-9-86-16-101-26-195-69-278-128-56 10-115 16-176 16-181 0-347-50-472-132 29 2 59 4 88 4 215 0 418-62 573-174 167-122 259-287 259-466 0-52-8-103-23-152 169 93 279 241 279 408z"/>
</svg>
