<?xml version="1.0" standalone="no"?>
<svg width="1536px" height="1536px" version="1.1" xmlns="http://www.w3.org/2000/svg">
    <path transform="scale(1, -1) translate(0, -1536)" glyph-name="comment_o" unicode="&#xf0e5;" horiz-adv-x="1792" 

d="M896 1152c-416 0 -768 -234 -768 -512c0 -149 100 -291 273 -389l87 -50l-27 -96c-19 -71 -44 -126 -70 -172c101 42 193 99 275 171l43 38l57 -6c43 -5 87 -8 130 -8c416 0 768 234 768 512s-352 512 -768 512zM1792 640c0 -354 -401 -640 -896 -640c-49 0 -98 3 -145 8
c-131 -116 -287 -198 -460 -242c-36 -10 -75 -17 -114 -22h-5c-20 0 -38 16 -43 38v1c-5 25 12 40 27 58c63 71 135 131 182 298c-206 117 -338 298 -338 501c0 354 401 640 896 640v0c495 0 896 -286 896 -640z" />
</svg>