<?xml version="1.0" standalone="no"?>
<svg width="1536px" height="1536px" version="1.1" xmlns="http://www.w3.org/2000/svg">
    <path transform="scale(1, -1) translate(0, -1536)" glyph-name="comments" unicode="&#xf086;" horiz-adv-x="1792" 

d="M1408 768c0 -283 -315 -512 -704 -512c-61 0 -120 6 -176 16c-83 -59 -177 -102 -278 -128c-27 -7 -56 -12 -86 -16h-3c-15 0 -29 12 -32 29v0c-4 19 9 31 20 44c39 44 83 83 117 166c-162 94 -266 239 -266 401c0 283 315 512 704 512s704 -229 704 -512zM1792 512
c0 -163 -104 -307 -266 -401c34 -83 78 -122 117 -166c11 -13 24 -25 20 -44v0c-4 -18 -19 -31 -35 -29c-30 4 -59 9 -86 16c-101 26 -195 69 -278 128c-56 -10 -115 -16 -176 -16c-181 0 -347 50 -472 132c29 -2 59 -4 88 -4c215 0 418 62 573 174c167 122 259 287 259 466
c0 52 -8 103 -23 152c169 -93 279 -241 279 -408z" />
</svg>