<svg width="1536" height="1536" xmlns="http://www.w3.org/2000/svg">
    <path d="M640 896c0-71-57-128-128-128s-128 57-128 128 57 128 128 128 128-57 128-128zm384 0c0-71-57-128-128-128s-128 57-128 128 57 128 128 128 128-57 128-128zm384 0c0-71-57-128-128-128s-128 57-128 128 57 128 128 128 128-57 128-128zm384 0c0 354-401 640-896 640-73 0-144-6-211-18-114 114-263 192-435 229-27 5-56 10-86 13-16 2-31-9-35-24-4-16 8-26 20-37 63-59 138-106 164-317C122 1265 0 1091 0 896c0-354 401-640 896-640s896 286 896 640z"/>
</svg>
