<svg width="1536" height="1536" xmlns="http://www.w3.org/2000/svg">
    <path d="M640 896c0 71-57 128-128 128s-128-57-128-128 57-128 128-128 128 57 128 128zm384 0c0 71-57 128-128 128s-128-57-128-128 57-128 128-128 128 57 128 128zm384 0c0 71-57 128-128 128s-128-57-128-128 57-128 128-128 128 57 128 128zM896 384c-416 0-768 234-768 512 0 149 100 291 273 389l87 50-27 96c-19 71-44 126-70 172 101-42 193-99 275-171l43-38 57 6c43 5 87 8 130 8 416 0 768-234 768-512s-352-512-768-512zm896 512c0 354-401 640-896 640-49 0-98-3-145-8-131 116-287 198-460 242-36 10-75 17-114 22h-5c-20 0-38-16-43-38v-1c-5-25 12-40 27-58 63-71 135-131 182-298C132 1280 0 1099 0 896c0-353 401-640 896-640s896 287 896 640z"/>
</svg>
