<?xml version="1.0" standalone="no"?>
<svg width="1536px" height="1536px" version="1.1" xmlns="http://www.w3.org/2000/svg">
    <path transform="scale(1, -1) translate(0, -1536)" glyph-name="connectdevelop" unicode="&#xf20e;" horiz-adv-x="2048" 

d="M2048 641c0 -28 -20 -51 -46 -56l-205 -356c2 -6 3 -12 3 -18c0 -27 -19 -50 -45 -55l-193 -337c2 -5 3 -10 3 -16c0 -31 -25 -57 -57 -57c-16 0 -31 7 -41 18h-400c-10 -12 -26 -20 -43 -20s-33 8 -43 20h-399c-10 -12 -25 -20 -43 -20c-31 0 -57 25 -57 57
c0 7 2 14 4 20l-193 335c-26 5 -45 28 -45 55c0 7 1 12 3 18l-206 356c-26 6 -45 29 -45 56c0 28 20 51 47 56l199 344c0 2 -1 4 -1 6c0 23 14 42 34 51l209 363c-2 5 -4 12 -4 18c0 32 26 57 57 57c18 0 33 -8 44 -21h396c10 13 25 21 43 21s33 -8 43 -21h398
c11 13 26 21 44 21c31 0 57 -25 57 -57c0 -6 -2 -12 -4 -18l207 -358c30 -1 55 -26 55 -56c0 -10 -3 -19 -7 -27l187 -324c25 -5 44 -28 44 -55zM1063 -158h389l-342 354h-143l-342 -354h360c10 9 24 16 39 16s29 -7 39 -16zM112 654c1 -4 1 -8 1 -13s0 -10 -2 -15l208 -360
c5 -1 10 -4 15 -6l188 199v347l-187 194c-9 -6 -19 -9 -29 -10zM986 1438h-388l190 -200l554 200h-280c-10 -10 -23 -16 -38 -16s-28 6 -38 16zM1689 226c1 4 3 8 5 11l-64 68l-17 -79h76zM1583 226l22 105l-252 266l-296 -307l63 -64h463zM1495 -142l16 28l65 310h-427
l333 -343c4 2 8 4 13 5zM578 -158h5l342 354h-373v-335l4 -6c9 -3 16 -7 22 -13zM552 226h402l64 66l-309 321l-157 -166v-221zM359 226h163v189l-168 -177c2 -4 4 -8 5 -12zM358 1051c0 -1 1 -3 1 -4c0 -11 -3 -21 -8 -29l171 -177v269zM552 1121v-311l153 -157l297 314
l-223 236zM556 1425l-4 -8v-264l205 74l-191 201c-3 -1 -6 -2 -10 -3zM1447 1438h-16l-621 -224l213 -225zM1023 946l-297 -315l311 -319l296 307zM688 634l-136 141v-284zM1038 270l-42 -44h85zM1374 618l238 -251l132 624l-3 5l-1 1zM1718 1018c-5 8 -8 18 -8 29v2
l-216 376c-5 1 -9 3 -13 5l-437 -463l310 -327zM522 1142v223l-163 -282zM522 196h-163l163 -283v283zM1607 196l-48 -227l130 227h-82zM1729 266l207 361c-1 5 -2 9 -2 14c0 6 2 11 3 16l-171 296l-129 -612l77 -82c5 3 10 5 15 7z" />
</svg>