<svg width="1536" height="1536" xmlns="http://www.w3.org/2000/svg">
    <path d="M2048 895c0 28-20 51-46 56l-205 356c2 6 3 12 3 18 0 27-19 50-45 55l-193 337c2 5 3 10 3 16 0 31-25 57-57 57-16 0-31-7-41-18h-400c-10 12-26 20-43 20s-33-8-43-20H582c-10 12-25 20-43 20-31 0-57-25-57-57 0-7 2-14 4-20l-193-335c-26-5-45-28-45-55 0-7 1-12 3-18L45 951c-26-6-45-29-45-56 0-28 20-51 47-56l199-344c0-2-1-4-1-6 0-23 14-42 34-51L488 75c-2-5-4-12-4-18 0-32 26-57 57-57 18 0 33 8 44 21h396c10-13 25-21 43-21s33 8 43 21h398c11-13 26-21 44-21 31 0 57 25 57 57 0 6-2 12-4 18l207 358c30 1 55 26 55 56 0 10-3 19-7 27l187 324c25 5 44 28 44 55zm-985 799h389l-342-354H967l-342 354h360c10-9 24-16 39-16s29 7 39 16zM112 882c1 4 1 8 1 13s0 10-2 15l208 360c5 1 10 4 15 6l188-199V730L335 536c-9 6-19 9-29 10zM986 98H598l190 200 554-200h-280c-10 10-23 16-38 16s-28-6-38-16zm703 1212c1-4 3-8 5-11l-64-68-17 79h76zm-106 0l22-105-252-266-296 307 63 64h463zm-88 368l16-28 65-310h-427l333 343c4-2 8-4 13-5zm-917 16h5l342-354H552v335l4 6c9 3 16 7 22 13zm-26-384h402l64-66-309-321-157 166v221zm-193 0h163v-189l-168 177c2 4 4 8 5 12zm-1-825c0 1 1 3 1 4 0 11-3 21-8 29l171 177V426zm194-70v311l153 157 297-314-223-236zm4-304l-4 8v264l205-74-191-201c-3 1-6 2-10 3zm891-13h-16L810 322l213 225zm-424 492L726 905l311 319 296-307zM688 902L552 761v284zm350 364l-42 44h85zm336-348l238 251 132-624-3-5-1-1zm344-400c-5-8-8-18-8-29v-2l-216-376c-5-1-9-3-13-5l-437 463 310 327zM522 394V171L359 453zm0 946H359l163 283v-283zm1085 0l-48 227 130-227h-82zm122-70l207-361c-1-5-2-9-2-14 0-6 2-11 3-16l-171-296-129 612 77 82c5-3 10-5 15-7z"/>
</svg>
