<?xml version="1.0" standalone="no"?>
<svg width="1536px" height="1536px" version="1.1" xmlns="http://www.w3.org/2000/svg">
    <path transform="scale(1, -1) translate(0, -1536)" glyph-name="contao" unicode="&#xf26d;" horiz-adv-x="1792" 

d="M138 1408h197c-47 -43 -89 -93 -126 -149c-155 -239 -92 -501 -32 -783c49 -229 90 -447 233 -604h-272c-64 0 -116 52 -116 116v1304c0 64 52 116 116 116zM1346 1408h308c64 0 116 -52 116 -116v-1304c0 -64 -52 -116 -116 -116h-178c132 131 207 321 196 565
l-469 -101c-6 -111 -44 -218 -196 -250c-85 -18 -155 2 -199 40c-54 46 -97 106 -169 448c-73 343 -58 415 -28 479c25 52 81 100 165 118c153 32 231 -51 282 -150l468 100c-46 118 -107 214 -180 287z" />
</svg>