<svg xmlns="http://www.w3.org/2000/svg" width="1536" height="1792" viewBox="0 0 1536 1792">
    <path d="M0 0v1792h1792V0H610.045zm19.066 19.066H590.98v571.909H19.066zm590.98 0h571.908v571.909H610.046zm590.98 0h571.908v571.909h-571.909zm-305.03 33.31A252.643 252.643 0 0 0 643.35 305.02a252.643 252.643 0 0 0 252.645 252.645A252.643 252.643 0 0 0 1148.64 305.02 252.643 252.643 0 0 0 895.995 52.375zm-876.93 557.67H590.98v571.908H19.066zm590.98 0h571.908v571.908H610.046zm590.98 0h571.908v571.908h-571.909zm285.944 33.309a252.643 252.643 0 0 0-252.64 252.64 252.643 252.643 0 0 0 252.64 252.645 252.643 252.643 0 0 0 252.645-252.645 252.643 252.643 0 0 0-252.645-252.64zM19.066 1201.02H590.98v571.914H19.066zm590.98 0h571.908v571.914H610.046zm590.98 0h571.908v571.914h-571.909zm-896.006 33.31a252.643 252.643 0 0 0-252.645 252.645 252.643 252.643 0 0 0 252.645 252.64 252.643 252.643 0 0 0 252.64-252.64 252.643 252.643 0 0 0-252.64-252.645zm590.975 0a252.643 252.643 0 0 0-252.645 252.645 252.643 252.643 0 0 0 252.645 252.64 252.643 252.643 0 0 0 252.645-252.64 252.643 252.643 0 0 0-252.645-252.645zm590.975 0a252.643 252.643 0 0 0-252.64 252.645 252.643 252.643 0 0 0 252.64 252.64 252.643 252.643 0 0 0 252.645-252.64 252.643 252.643 0 0 0-252.645-252.645z"/>
</svg>
