<?xml version="1.0" standalone="no"?>
<svg width="1536px" height="1536px" version="1.1" xmlns="http://www.w3.org/2000/svg">
    <path transform="scale(1, -1) translate(0, -1536)" glyph-name="copyright" unicode="&#xf1f9;" 

d="M1150 462v-109c0 -141 -225 -193 -366 -193c-274 0 -480 209 -480 485c0 271 204 475 475 475c99 0 358 -35 358 -194v-109c0 -9 -7 -16 -16 -16h-118c-9 0 -16 7 -16 16v70c0 63 -121 92 -203 92c-187 0 -317 -135 -317 -329c0 -201 136 -348 325 -348
c72 0 208 27 208 90v70c0 9 7 16 15 16h119c8 0 16 -7 16 -16zM768 1280c-353 0 -640 -287 -640 -640s287 -640 640 -640s640 287 640 640s-287 640 -640 640zM1536 640c0 -424 -344 -768 -768 -768s-768 344 -768 768s344 768 768 768v0c424 0 768 -344 768 -768z" />
</svg>