<svg width="1536" height="1536" xmlns="http://www.w3.org/2000/svg">
    <path d="M1150 1074v109c0 141-225 193-366 193-274 0-480-209-480-485 0-271 204-475 475-475 99 0 358 35 358 194v109c0 9-7 16-16 16h-118c-9 0-16-7-16-16v-70c0-63-121-92-203-92-187 0-317 135-317 329 0 201 136 348 325 348 72 0 208-27 208-90v-70c0-9 7-16 15-16h119c8 0 16 7 16 16zM768 256c-353 0-640 287-640 640s287 640 640 640 640-287 640-640-287-640-640-640zm768 640c0 424-344 768-768 768S0 1320 0 896s344-768 768-768 768 344 768 768z"/>
</svg>
