<svg width="1536" height="1536" xmlns="http://www.w3.org/2000/svg">
    <path d="M605 1233c164 0 253-100 257-104 8-10 10-25 3-36l-45-82c-4-9-14-15-24-17-10-1-20 3-27 11-1 0-64 67-156 67-101 0-174-74-174-177 0-102 71-175 170-175 83 0 138 56 138 56 7 7 16 11 26 10s19-6 24-14l53-78c8-12 7-28-2-39-3-4-84-96-243-96-197 0-344 145-344 337 0 195 144 337 344 337zm630 0c165 0 253-100 257-104 8-10 10-25 4-36l-45-82c-5-9-14-15-25-17-10-1-20 3-27 11-1 0-64 67-156 67-101 0-174-74-174-177 0-102 71-175 170-175 84 0 138 56 138 56 7 7 16 11 26 10s19-6 24-14l53-78c8-12 7-28-2-39-3-4-84-96-243-96-196 0-344 145-344 337 0 195 144 337 344 337zM896 160c-406 0-736 330-736 736s330 736 736 736 736-330 736-736-330-736-736-736zm0-160c495 0 896 401 896 896s-401 896-896 896S0 1391 0 896 401 0 896 0z"/>
</svg>
