<?xml version="1.0" standalone="no"?>
<svg width="1536px" height="1536px" version="1.1" xmlns="http://www.w3.org/2000/svg">
    <path transform="scale(1, -1) translate(0, -1536)" glyph-name="creative_commons" unicode="&#xf25e;" horiz-adv-x="1792" 

d="M605 303c164 0 253 100 257 104c8 10 10 25 3 36l-45 82c-4 9 -14 15 -24 17c-10 1 -20 -3 -27 -11c-1 0 -64 -67 -156 -67c-101 0 -174 74 -174 177c0 102 71 175 170 175c83 0 138 -56 138 -56c7 -7 16 -11 26 -10s19 6 24 14l53 78c8 12 7 28 -2 39
c-3 4 -84 96 -243 96c-197 0 -344 -145 -344 -337c0 -195 144 -337 344 -337zM1235 303c165 0 253 100 257 104c8 10 10 25 4 36l-45 82c-5 9 -14 15 -25 17c-10 1 -20 -3 -27 -11c-1 0 -64 -67 -156 -67c-101 0 -174 74 -174 177c0 102 71 175 170 175
c84 0 138 -56 138 -56c7 -7 16 -11 26 -10s19 6 24 14l53 78c8 12 7 28 -2 39c-3 4 -84 96 -243 96c-196 0 -344 -145 -344 -337c0 -195 144 -337 344 -337zM896 1376c-406 0 -736 -330 -736 -736s330 -736 736 -736s736 330 736 736s-330 736 -736 736zM896 1536
c495 0 896 -401 896 -896s-401 -896 -896 -896s-896 401 -896 896s401 896 896 896z" />
</svg>