<?xml version="1.0" standalone="no"?>
<svg width="1536px" height="1536px" version="1.1" xmlns="http://www.w3.org/2000/svg">
    <path transform="scale(1, -1) translate(0, -1536)" glyph-name="crop" unicode="&#xf125;" horiz-adv-x="1664" 

d="M557 256h595v595zM512 301l595 595h-595v-595zM1664 224v-192c0 -18 -14 -32 -32 -32h-224v-224c0 -18 -14 -32 -32 -32h-192c-18 0 -32 14 -32 32v224h-864c-18 0 -32 14 -32 32v864h-224c-18 0 -32 14 -32 32v192c0 18 14 32 32 32h224v224c0 18 14 32 32 32h192
c18 0 32 -14 32 -32v-224h851l246 247c13 12 33 12 46 0c12 -13 12 -33 0 -46l-247 -246v-851h224c18 0 32 -14 32 -32z" />
</svg>