<?xml version="1.0" standalone="no"?>
<svg width="1536px" height="1536px" version="1.1" xmlns="http://www.w3.org/2000/svg">
    <path transform="scale(1, -1) translate(0, -1536)" glyph-name="crosshairs" unicode="&#xf05b;" 

d="M1197 512h-109c-35 0 -64 29 -64 64v128c0 35 29 64 64 64h109c-43 144 -157 258 -301 301v-109c0 -35 -29 -64 -64 -64h-128c-35 0 -64 29 -64 64v109c-144 -43 -258 -157 -301 -301h109c35 0 64 -29 64 -64v-128c0 -35 -29 -64 -64 -64h-109c43 -144 157 -258 301 -301
v109c0 35 29 64 64 64h128c35 0 64 -29 64 -64v-109c144 43 258 157 301 301zM1536 704v-128c0 -35 -29 -64 -64 -64h-143c-49 -215 -218 -384 -433 -433v-143c0 -35 -29 -64 -64 -64h-128c-35 0 -64 29 -64 64v143c-215 49 -384 218 -433 433h-143c-35 0 -64 29 -64 64v128
c0 35 29 64 64 64h143c49 215 218 384 433 433v143c0 35 29 64 64 64h128c35 0 64 -29 64 -64v-143c215 -49 384 -218 433 -433h143c35 0 64 -29 64 -64z" />
</svg>