<svg width="1536" height="1536" xmlns="http://www.w3.org/2000/svg">
    <path d="M1197 1024h-109c-35 0-64-29-64-64V832c0-35 29-64 64-64h109c-43-144-157-258-301-301v109c0 35-29 64-64 64H704c-35 0-64-29-64-64V467c-144 43-258 157-301 301h109c35 0 64 29 64 64v128c0 35-29 64-64 64H339c43 144 157 258 301 301v-109c0-35 29-64 64-64h128c35 0 64 29 64 64v109c144-43 258-157 301-301zm339-192v128c0 35-29 64-64 64h-143c-49 215-218 384-433 433v143c0 35-29 64-64 64H704c-35 0-64-29-64-64v-143c-215-49-384-218-433-433H64c-35 0-64-29-64-64V832c0-35 29-64 64-64h143c49-215 218-384 433-433V192c0-35 29-64 64-64h128c35 0 64 29 64 64v143c215 49 384 218 433 433h143c35 0 64 29 64 64z"/>
</svg>
