<svg xmlns="http://www.w3.org/2000/svg" viewBox="0 0 1536 1792" height="1792" width="1536">
    <path d="M4.866 1781.627c-.388-.066-.891-.099-1.112-.151l-.402-.092V2.373h1779.196v1778.993l-1.646.112c-1.648.119-1774.694.257-1776.036.145zm632.495-533.887c17.516-.633 33.648-2.268 50.017-5.071a367.462 367.462 0 0 0 116.173-40.816c7.284-4.038 13.478-7.74 13.419-8.022-.02-.099-17.239-24.142-38.262-53.43l-38.225-53.25-1.98 1.072c-2.731 1.48-11.777 5.927-14.8 7.275-42.612 19.01-89.442 25.227-136.04 18.06-43.517-6.694-84.769-25.615-118.143-54.189-6.869-5.88-17.172-15.943-22.717-22.186-21.189-23.855-37.01-50.707-47.343-80.357-5.987-17.179-10.13-35.864-12.011-54.17-1.703-16.573-1.703-33.833-.003-50.353 4.921-47.795 24.09-93.014 54.816-129.31 6.185-7.308 16.186-17.626 22.807-23.532 35.674-31.82 78.353-51.71 125.623-58.542 19.582-2.83 41.659-3.15 61.787-.892 37.223 4.173 73.064 17.03 103.899 37.272 1.42.932 2.635 1.638 2.7 1.57.178-.172 71.018-109.397 71.018-109.478 0-.185-9.457-6.202-14.766-9.4-44.188-26.628-92.977-43.638-143.531-50.04-51.365-6.504-103.183-2.243-152.51 12.542-64.835 19.433-123.686 56.821-169.433 107.64-49.03 54.466-80.887 122.074-91.33 193.82-2.662 18.3-3.812 34.432-3.812 53.508 0 14.113.52 24.631 1.855 37.75 7.621 74.714 38.12 145.478 87.49 202.99 11.088 12.918 24.67 26.625 37.588 37.935 31.626 27.69 67.724 49.855 106.57 65.435 39.353 15.783 81.196 24.614 123.931 26.155 5.782.21 19.614.217 25.214 0zm412.633-112.001c16.31-47.254 29.713-86.056 29.783-86.226.125-.297 3.106-.31 57.114-.31 35.69 0 56.985.066 56.985.171 0 .185-59.266 172.005-59.408 172.235-.053.08 26.81.119 59.681.092l59.767-.066 29.693-86.057c16.332-47.331 29.77-86.134 29.862-86.226.1-.106 23.563-.185 62.658-.211l62.49-.066 19.36-56.09c10.648-30.849 19.383-56.21 19.41-56.356.054-.237-7.024-.277-62.467-.356l-62.518-.092 19.427-56.312 19.427-56.311h62.534c44.162 0 62.568-.066 62.651-.191.1-.171 38.9-112.503 38.9-112.641 0-.066-28.126-.066-62.5-.066-42.191 0-62.5-.066-62.5-.184 0-.191 57.837-167.89 57.984-168.13.053-.072-26.81-.118-59.68-.092l-59.766.066-29.046 84.18-29.045 84.178h-57.033c-31.367 0-57.031-.066-57.03-.132 0-.072 13.052-37.954 29.003-84.178l29.002-84.046-59.66-.066h-59.718c-.027 0-12.844 37.112-28.468 82.399-15.624 45.286-28.696 83.16-29.048 84.164l-.64 1.825-52.46.003-52.46.003-19.408 56.27-19.468 56.444c-.053.112 18.663.17 52.414.17 49.901 0 52.467 0 52.352.31-.075.172-8.823 25.533-19.459 56.358l-19.338 56.044H894.537l-.25.58c-.266.638-38.733 112.092-38.733 112.226 0 .066 23.566.086 52.37.086h52.371l-.074.402c-.053.224-13.365 38.902-29.605 85.96-16.24 47.057-29.564 85.698-29.61 85.87-.075.297 2.814.31 59.624.27l59.708-.066zm68.927-199.65c0-.126 8.723-25.464 19.373-56.313l19.363-56.09 57.091-.065 57.091-.066-1.277 3.703-19.44 56.355-18.162 52.652h-57.024c-45.507.003-57.023-.065-57.016-.223z"/>
</svg>
