<svg width="1536" height="1536" xmlns="http://www.w3.org/2000/svg">
    <path d="M640 1632l384-192v-314l-384 164v342zm-64-454l404-173-404-173-404 173zm1088 454l384-192v-314l-384 164v342zm-64-454l404-173-404-173-404 173zm-448-293l384-165V454l-384 164v267zm-64-379l441-189-441-189-441 189zm1088 518v416c0 48-27 93-71 114l-448 224c-18 10-37 14-57 14s-39-4-57-14l-448-224c-3-1-5-2-7-4-2 2-4 3-7 4l-448 224c-18 10-37 14-57 14s-39-4-57-14L71 1554c-44-21-71-66-71-114v-416c0-51 31-97 78-118l434-186V320c0-51 31-97 78-118l448-192c16-7 33-10 50-10s34 3 50 10l448 192c47 21 78 67 78 118v400l434 186c48 21 78 67 78 118z"/>
</svg>
