<?xml version="1.0" standalone="no"?>
<svg width="1536px" height="1536px" version="1.1" xmlns="http://www.w3.org/2000/svg">
    <path transform="scale(1, -1) translate(0, -1536)" glyph-name="cubes" unicode="&#xf1b3;" horiz-adv-x="2304" 

d="M640 -96l384 192v314l-384 -164v-342zM576 358l404 173l-404 173l-404 -173zM1664 -96l384 192v314l-384 -164v-342zM1600 358l404 173l-404 173l-404 -173zM1152 651l384 165v266l-384 -164v-267zM1088 1030l441 189l-441 189l-441 -189zM2176 512v-416
c0 -48 -27 -93 -71 -114l-448 -224c-18 -10 -37 -14 -57 -14s-39 4 -57 14l-448 224c-3 1 -5 2 -7 4c-2 -2 -4 -3 -7 -4l-448 -224c-18 -10 -37 -14 -57 -14s-39 4 -57 14l-448 224c-44 21 -71 66 -71 114v416c0 51 31 97 78 118l434 186v400c0 51 31 97 78 118l448 192
c16 7 33 10 50 10s34 -3 50 -10l448 -192c47 -21 78 -67 78 -118v-400l434 -186c48 -21 78 -67 78 -118z" />
</svg>