<?xml version="1.0" standalone="no"?>
<svg width="1536px" height="1536px" version="1.1" xmlns="http://www.w3.org/2000/svg">
    <path transform="scale(1, -1) translate(0, -1536)" glyph-name="cutlery" unicode="&#xf0f5;" horiz-adv-x="1408" 

d="M640 1472v-640c0 -81 -52 -154 -128 -181v-779c0 -70 -58 -128 -128 -128h-128c-70 0 -128 58 -128 128v779c-76 27 -128 100 -128 181v640c0 35 29 64 64 64s64 -29 64 -64v-416c0 -35 29 -64 64 -64s64 29 64 64v416c0 35 29 64 64 64s64 -29 64 -64v-416
c0 -35 29 -64 64 -64s64 29 64 64v416c0 35 29 64 64 64s64 -29 64 -64zM1408 1472v-1600c0 -70 -58 -128 -128 -128h-128c-70 0 -128 58 -128 128v512h-224c-17 0 -32 15 -32 32v800c0 176 144 320 320 320h256c35 0 64 -29 64 -64z" />
</svg>