<?xml version="1.0" standalone="no"?>
<svg width="1536px" height="1536px" version="1.1" xmlns="http://www.w3.org/2000/svg">
    <path transform="scale(1, -1) translate(0, -1536)" glyph-name="database" unicode="&#xf1c0;" 

d="M768 768c301 0 603 54 768 170v-170c0 -141 -344 -256 -768 -256s-768 115 -768 256v170c165 -116 467 -170 768 -170zM768 0c301 0 603 54 768 170v-170c0 -141 -344 -256 -768 -256s-768 115 -768 256v170c165 -116 467 -170 768 -170zM768 384c301 0 603 54 768 170
v-170c0 -141 -344 -256 -768 -256s-768 115 -768 256v170c165 -116 467 -170 768 -170zM768 1536c424 0 768 -115 768 -256v-128c0 -141 -344 -256 -768 -256s-768 115 -768 256v128c0 141 344 256 768 256z" />
</svg>