<svg width="1536" height="1536" xmlns="http://www.w3.org/2000/svg">
    <path d="M1056 832c0 35 29 64 64 64s64-29 64-64c0-194-158-352-352-352S480 638 480 832c0 35 29 64 64 64s64-29 64-64c0-124 101-224 224-224s224 100 224 224zM835 256c-318 0-576 258-576 576 0 35 29 64 64 64s64-29 64-64c0-247 201-448 448-448s448 201 448 448c0 118-53 179-115 250-67 77-144 165-144 326 0 141-115 256-256 256-35 0-64 29-64 64s29 64 64 64c212 0 384-172 384-384 0-113 50-170 113-242 68-79 146-168 146-334 0-318-258-576-576-576zM591 975l226 226-579 579c-16 16-42 16-58 0L12 1612c-16-16-16-42 0-58zM1612 12l168 168c16 16 16 42 0 59l-233 233-26 25-71 71c-43-100-109-188-195-258l91-91 207-207c17-16 43-16 59 0z"/>
</svg>
