<?xml version="1.0" standalone="no"?>
<svg width="1536px" height="1536px" version="1.1" xmlns="http://www.w3.org/2000/svg">
    <path transform="scale(1, -1) translate(0, -1536)" glyph-name="deaf" unicode="&#xf2a4;" horiz-adv-x="1792" 

d="M1056 704c0 -35 29 -64 64 -64s64 29 64 64c0 194 -158 352 -352 352s-352 -158 -352 -352c0 -35 29 -64 64 -64s64 29 64 64c0 124 101 224 224 224s224 -100 224 -224zM835 1280c-318 0 -576 -258 -576 -576c0 -35 29 -64 64 -64s64 29 64 64c0 247 201 448 448 448
s448 -201 448 -448c0 -118 -53 -179 -115 -250c-67 -77 -144 -165 -144 -326c0 -141 -115 -256 -256 -256c-35 0 -64 -29 -64 -64s29 -64 64 -64c212 0 384 172 384 384c0 113 50 170 113 242c68 79 146 168 146 334c0 318 -258 576 -576 576zM591 561l226 -226l-579 -579
c-16 -16 -42 -16 -58 0l-168 168c-16 16 -16 42 0 58zM1612 1524l168 -168c16 -16 16 -42 0 -59l-233 -233l-26 -25l-71 -71c-43 100 -109 188 -195 258l91 91l207 207c17 16 43 16 59 0z" />
</svg>