<svg xmlns="http://www.w3.org/2000/svg" width="1536" height="1792" viewBox="0 0 1536 1792">
    <path d="M1.357 581.888c9.303-28.553 10.988-45.705 14.54-62.229-25.71 32.866-11.83 39.872-14.54 62.229m59.37-198.22c4.627 42.83-32.221 59.452 8.163 31.213 21.646-48.762-8.46-13.467-8.163-31.213M753.64 8.873C773.715 1.52 802.996 4.841 824.295 0c-27.76 2.33-55.388 3.718-82.669 7.237l12.013 1.636m645.108 799.408l-4.362 10.94c-7.998 56.808-25.265 113.022-51.736 165.139 29.247-54.992 48.167-115.139 56.098-176.079M582.402 985.715c-10.327-11.418-16.441-25.166-23.282-38.864 6.543 24.075 19.944 44.763 32.42 65.798l-9.138-26.934m-46.135 1.817l-4.164 20.82c19.515 26.505 34.998 55.223 59.916 75.944-17.928-34.998-31.247-49.456-55.752-96.764m737.295-213.29c1.768 48.019-14.045 71.317-28.305 112.56l-25.662 12.823c-21.001 40.781 2.033 25.893-13.004 58.33-32.783 29.148-99.49 91.211-120.839 96.879-15.582-.347 10.559-18.391 13.98-25.463-43.888 30.14-35.213 45.242-102.333 63.55l-1.966-4.362c-165.536 77.877-395.483-76.456-392.459-287.036-1.768 13.368-5.023 10.03-8.691 15.433-8.543-108.347 50.034-217.173 148.83-261.605 96.632-47.837 209.92-28.207 279.138 36.302-38.022-49.803-113.7-102.596-203.392-97.656C731 495.385 648.81 551.22 621.382 611.83c-45.011 28.339-50.233 109.24-69.847 124.045-26.388 193.94 49.638 277.733 178.243 376.298 20.242 13.648 5.701 15.714 8.444 26.107-42.73-20.01-81.86-50.216-114.031-87.196 17.07 24.984 35.493 49.274 59.304 68.36-40.285-13.65-94.103-97.624-109.818-101.044 69.45 124.342 281.765 218.065 392.938 171.567-51.439 1.9-116.79 1.058-174.591-20.308-24.274-12.492-57.288-38.368-51.39-43.21 151.723 56.677 308.452 42.93 439.734-62.311 33.394-26.009 69.88-70.26 80.421-70.871-15.88 23.877 2.71 11.484-9.484 32.569 33.279-53.67-14.459-21.845 34.402-92.683l18.044 24.852c-6.708-44.548 55.322-98.647 49.027-169.105 14.227-21.547 15.88 23.183.776 72.754 20.953-54.991 5.52-63.831 10.906-109.206 5.817 15.252 13.45 31.462 17.367 47.556-13.649-53.14 14.012-89.493 20.853-120.377-6.742-2.99-21.068 23.497-24.34-39.277.48-27.264 7.585-14.293 10.328-21.002-5.354-3.073-19.4-23.976-27.942-64.063 6.196-9.418 16.557 24.423 24.984 25.81-5.42-31.874-14.756-56.18-15.136-80.636-24.62-51.455-8.708 6.858-28.685-22.092-26.207-81.744 21.745-18.97 24.984-56.115 39.723 57.552 62.377 146.748 72.77 183.696-7.93-45.045-20.753-88.684-36.401-130.903 12.062 5.073-19.432-92.682 15.68-27.941-37.508-138.008-160.529-266.96-273.7-327.47 13.846 12.673 31.329 28.586 25.05 31.081-56.28-33.51-46.383-36.121-54.447-50.282-45.853-18.656-48.86 1.504-79.231.036-86.42-45.837-103.076-40.962-182.606-69.681l3.619 16.904c-57.255-19.069-66.707 7.237-128.589.066-3.767-2.941 19.829-10.641 39.244-13.467-55.354 7.304-52.76-10.906-106.925 2.016 13.35-9.369 27.462-15.565 41.706-23.53-45.143 2.743-107.769 26.273-88.436 4.875-73.63 32.85-204.4 78.967-277.783 147.773l-2.313-15.417c-33.626 40.368-146.633 120.558-155.638 172.84l-8.99 2.098c-17.498 29.627-28.817 63.204-42.697 93.69-22.886 38.997-33.543 15.004-30.288 21.118-45.011 91.26-67.368 167.948-86.684 230.836 13.764 20.573.33 123.847 5.535 206.5-22.605 408.205 286.49 804.546 624.354 896.055 49.522 17.714 123.17 17.036 185.811 18.854-73.911-21.134-83.462-11.203-155.456-36.303-51.935-24.455-63.32-52.38-100.102-84.305l14.558 25.728c-72.144-25.53-41.954-31.594-100.647-50.183l15.549-20.308c-23.381-1.768-61.932-39.41-72.474-60.246l-25.579 1.008c-30.734-37.922-47.11-65.253-45.92-86.42l-8.262 14.723c-9.369-16.078-113.072-142.22-59.27-112.858-9.998-9.138-23.283-14.871-37.692-41.045l10.956-12.525c-25.893-33.312-47.655-76.01-46.003-90.237 13.814 18.655 23.398 22.142 32.883 25.33-65.385-162.23-69.054-8.939-118.576-165.139l10.477-.842c-8.031-12.096-12.906-25.232-19.366-38.12l4.56-45.442c-47.076-54.43-13.17-231.433-6.378-328.51 4.71-39.476 39.294-81.496 65.6-147.393l-16.028-2.76c30.635-53.438 174.921-214.612 241.744-206.317 32.37-40.665-6.428-.149-12.757-10.393 71.102-73.581 93.46-51.984 141.445-65.22 51.752-30.718-44.417 11.98-19.879-11.716 89.46-22.852 63.402-51.95 180.11-63.55 12.31 7.006-28.57 10.823-38.83 19.911 74.539-36.468 235.878-28.173 340.672 20.242 121.6 56.825 258.218 224.807 263.605 382.858l6.13 1.652c-3.106 62.824 9.617 135.48-12.425 202.22l15.003-31.595M779.432 31.927l-11.203 2.314 10.427-.926.777-1.388m-31.66-8.807c15.846 2.842 34.237 5.023 31.66 8.807 17.333-3.8 21.266-7.303-31.66-8.807m330.791 730.85c3.586-53.47-10.526-36.567-15.268-16.16 5.536 2.876 9.914 37.691 15.268 16.16m-58.825 153.078c17.68-24.406 30.57-51.125 35.113-78.753-3.965 19.697-14.656 36.7-24.72 54.645-55.503 34.947-5.22-20.754-.036-41.922-59.684 75.118-8.195 45.045-10.36 66.03M860.363 946.77c-29.693.413 5.619 15.301 44.383 21.266a396.792 396.792 0 0 0 29.083-25.05c-24.142 5.916-48.713 6.048-73.466 3.784" overflow="visible"/>
</svg>
