<?xml version="1.0" standalone="no"?>
<svg width="1536px" height="1536px" version="1.1" xmlns="http://www.w3.org/2000/svg">
    <path transform="scale(1, -1) translate(0, -1536)" glyph-name="desktop" unicode="&#xf108;" horiz-adv-x="1920" 

d="M1792 544v832c0 17 -15 32 -32 32h-1600c-17 0 -32 -15 -32 -32v-832c0 -17 15 -32 32 -32h1600c17 0 32 15 32 32zM1920 1376v-1088c0 -88 -72 -160 -160 -160h-544c0 -85 64 -157 64 -192s-29 -64 -64 -64h-512c-35 0 -64 29 -64 64c0 37 64 105 64 192h-544
c-88 0 -160 72 -160 160v1088c0 88 72 160 160 160h1600c88 0 160 -72 160 -160z" />
</svg>