<?xml version="1.0" standalone="no"?>
<svg width="1536px" height="1536px" version="1.1" xmlns="http://www.w3.org/2000/svg">
    <path transform="scale(1, -1) translate(0, -1536)" glyph-name="diamond" unicode="&#xf219;" horiz-adv-x="2048" 

d="M212 768l623 -665l-300 665h-323zM1024 -4l349 772h-698zM538 896l204 384h-262l-288 -384h346zM1213 103l623 665h-323zM683 896h682l-204 384h-274zM1510 896h346l-288 384h-262zM1651 1382l384 -512c19 -24 17 -59 -4 -82l-960 -1024c-12 -13 -29 -20 -47 -20
s-35 7 -47 20l-960 1024c-21 23 -23 58 -4 82l384 512c12 17 31 26 51 26h1152c20 0 39 -9 51 -26z" />
</svg>