<svg xmlns="http://www.w3.org/2000/svg" width="1536" height="1796" viewBox="0 0 1536 1796">
    <path d="M1007.286 1555.421a470236.96 470236.96 0 0 1-153.82-214.84c-41.097-57.445-74.53-102.277-76.29-102.3-1.808-.023-66.465 86.892-152.938 205.586-82.395 113.095-150.494 205.627-151.332 205.627-2.34 0-297.049-207.58-297.807-209.764-.367-1.058 66.257-98.857 148.051-217.334 81.795-118.477 148.718-217.28 148.718-219.562 0-3.68-26.505-12.985-234.415-82.297C108.526 877.554 1.777 841.893.233 841.292c-2.145-.838 10.13-41.908 52.236-174.771 30.273-95.522 55.725-174.457 56.563-175.41.835-.952 112.89 34.904 249.007 79.682 136.118 44.78 248.626 81.416 250.02 81.414 1.392 0 2.965-2.084 3.497-4.629.532-2.545 1.707-118.44 2.61-257.547.902-139.105 2.39-254.077 3.304-255.49 1.31-2.026 39.546-2.565 179.924-2.54 98.042.016 179.28.712 180.53 1.542 1.573 1.048 4.262 77.525 8.767 249.291 7.394 282.041 7.554 285.821 12.052 285.821 1.743 0 109.62-36.109 239.726-80.243 130.105-44.133 237.19-79.527 237.964-78.652 2.63 2.966 109.341 350.375 108.027 351.689-.717.718-109.3 37.905-241.297 82.638-181.574 61.534-240.15 82.169-240.64 84.773-.364 1.924 62.078 95.238 141.477 211.425 78.168 114.39 141.84 208.836 141.488 209.879-.804 2.394-293.288 217.836-295.734 217.836-.993 0-38.104-50.66-82.468-112.58z"/>
</svg>
