<svg xmlns="http://www.w3.org/2000/svg" height="1536" width="1536">
    <path d="M976.471 1403.369a445203.365 445203.365 0 0 1-149.114-208.267c-39.84-55.687-72.25-99.148-73.956-99.17-1.753-.022-64.432 84.234-148.26 199.297-79.874 109.635-145.89 199.336-146.702 199.336-2.271 0-287.962-201.23-288.697-203.347-.356-1.025 64.229-95.833 143.522-210.685C392.557 965.68 457.432 869.9 457.432 867.688c0-3.567-25.694-12.588-227.243-79.78C105.206 746.24 1.722 711.67.226 711.088c-2.08-.813 9.819-40.626 50.638-169.425 29.346-92.6 54.02-169.12 54.832-170.043.81-.924 109.436 33.836 241.39 77.244 131.953 43.41 241.02 78.925 242.369 78.923 1.35 0 2.876-2.02 3.392-4.487s1.655-114.817 2.53-249.668c.875-134.851 2.316-246.305 3.203-247.675 1.27-1.963 38.336-2.486 174.42-2.462 95.043.016 173.796.69 175.006 1.495 1.526 1.016 4.133 75.153 8.5 241.665 7.168 273.413 7.323 277.077 11.683 277.077 1.69 0 106.267-35.004 232.392-77.788 126.125-42.783 229.933-77.094 230.685-76.246 2.548 2.875 105.996 339.656 104.722 340.93-.695.696-105.957 36.745-233.915 80.109-176.02 59.652-232.803 79.656-233.28 82.18-.352 1.866 60.18 92.325 137.149 204.958 75.778 110.891 137.5 202.447 137.16 203.458-.78 2.321-284.315 211.172-286.686 211.172-.963 0-36.938-49.111-79.945-109.136z"/>
</svg>
