<?xml version="1.0" encoding="UTF-8" standalone="no"?>
<svg
   xmlns:dc="http://purl.org/dc/elements/1.1/"
   xmlns:cc="http://creativecommons.org/ns#"
   xmlns:rdf="http://www.w3.org/1999/02/22-rdf-syntax-ns#"
   xmlns:svg="http://www.w3.org/2000/svg"
   xmlns="http://www.w3.org/2000/svg"
   version="1.1"
   id="svg4004"
   height="1536px"
   width="1536px">
  <metadata
     id="metadata8">
    <rdf:RDF>
      <cc:Work
         rdf:about="">
        <dc:format>image/svg+xml</dc:format>
        <dc:type
           rdf:resource="http://purl.org/dc/dcmitype/StillImage" />
        <dc:title></dc:title>
      </cc:Work>
    </rdf:RDF>
  </metadata>
  <defs
     id="defs6" />
  <path
     id="path4093"
     d="m 976.4712,1403.3688 c -43.00676,-60.025 -110.10822,-153.7452 -149.11435,-208.2669 -39.83928,-55.6864 -72.25076,-99.1478 -73.95618,-99.1698 -1.75244,-0.022 -64.43213,84.2337 -148.2603,199.2969 -79.87342,109.6348 -145.88891,199.3361 -146.70108,199.3361 -2.27163,0 -287.96223,-201.2295 -288.69756,-203.3475 -0.35577,-1.0246 64.22911,-95.833 143.52196,-210.685 79.29284,-114.85207 144.16881,-210.63199 144.16881,-212.84411 0,-3.56726 -25.69485,-12.58823 -227.2431,-79.78068 C 105.20568,746.24057 1.7223614,711.67136 0.22645575,711.08739 -1.8542458,710.27509 10.044871,670.46244 50.863738,541.66265 80.210149,449.06305 104.88453,372.54369 105.69569,371.61962 c 0.81117,-0.92406 109.43669,33.83614 241.39005,77.24487 131.95335,43.40873 241.01939,78.92402 242.36893,78.92282 1.34955,-0.001 2.8761,-2.02042 3.39232,-4.48719 0.51625,-2.46679 1.65462,-114.81758 2.5297,-249.66842 0.87509,-134.85085 2.31676,-246.304619 3.20373,-247.675059 1.26995,-1.96218 38.33587,-2.48522 174.41906,-2.46119 95.04351,0.016 173.79664,0.68957 175.00696,1.49503 1.52548,1.01524 4.13272,75.152029 8.49882,241.664459 7.16912,273.4131 7.32363,277.07712 11.68355,277.07712 1.69069,0 106.26719,-35.00452 232.39239,-77.78784 126.1251,-42.78332 229.9333,-77.09404 230.6848,-76.24605 2.5481,2.87481 105.9961,339.65611 104.7223,340.92979 -0.6956,0.6957 -105.9575,36.74455 -233.9152,80.10856 -176.0209,59.65227 -232.8035,79.65605 -233.2802,82.18135 -0.3517,1.86464 60.1797,92.32386 137.1488,204.95753 75.7783,110.8908 137.5007,202.4468 137.1607,203.4575 -0.7805,2.3215 -284.3155,211.1724 -286.6866,211.1724 -0.9628,0 -36.9379,-49.1115 -79.9446,-109.1365 z"
     style="fill:#000000" />
</svg>
