<svg width="1536" height="1792" viewBox="0 0 1536 1792" xmlns="http://www.w3.org/2000/svg">
    <path d="M 639.55303,256.00247 C 292.33667,256.00247 0,537.49921 0,884.83884 v 651.16126 l 639.43269,-0.6285 c 347.21635,0 628.83631,-292.3376 628.83631,-639.55401 C 1268.269,548.60127 986.39945,256 639.55303,256 Z m 1.73396,242.31531 c 115.43427,-1.19601 229.44097,48.92839 306.66366,144.03681 0.24169,0.29593 0.50677,0.5672 0.74723,0.86311 0.0122,0 0.0246,0 0.0494,0.1233 0.47843,0.59186 0.92228,1.19602 1.39675,1.7817 1.80907,2.26877 3.67562,4.47214 5.44268,6.79144 -0.18992,-0.18493 -0.38723,-0.34525 -0.57832,-0.53019 3.4607,4.47955 6.82004,9.02564 10.06645,13.63093 0.56347,0.80149 1.12819,1.60172 1.68566,2.4081 85.1074,122.68844 94.5461,287.668 14.2086,422.01812 -91.35992,152.7727 -272.631,222.0166 -439.40526,175.1989 -8.83329,-2.4796 -17.60964,-5.2932 -26.34602,-8.4289 -1.27125,-0.4562 -2.53669,-0.9247 -3.80497,-1.3971 -8.46659,-3.1391 -16.89622,-6.4918 -25.23828,-10.2587 l -253.27319,57.3389 1.03573,-0.3576 -1.03573,0.2466 0.0986,-0.3327 -0.0986,0.2463 70.51285,-226.8309 c -0.56099,-1.0358 -1.01476,-2.1149 -1.5654,-3.1555 -3.3125,-6.1983 -6.42177,-12.4382 -9.36795,-18.7353 -0.33786,-0.7277 -0.67814,-1.4591 -1.01107,-2.1913 -80.33498,-174.4959 -21.38268,-383.6555 142.06127,-489.64156 64.13206,-41.60062 136.20239,-62.01561 207.75785,-62.75786 z"/>
</svg>
