<svg xmlns="http://www.w3.org/2000/svg" width="1536" height="1796">
    <path d="M558.9 324.01s-180.158-3.942-369.526 138c0 0-189.374 343.035-189.374 766.23 0 0 110.465 190.56 401.093 199.76 0 0 48.673-59.127 88.125-109.07-167.013-49.942-230.136-155.094-230.136-155.094s13.135 9.19 36.806 22.333c1.316 1.314 2.636 2.638 5.266 3.953 3.945 2.628 7.895 3.942 11.84 6.571 32.877 18.4 65.764 32.862 96.01 44.69 53.918 21.029 118.345 42.042 193.304 56.499 98.63 18.4 214.36 24.992 340.605 1.335 61.808-10.515 124.931-28.925 190.684-56.524 46.027-17.086 97.314-42.062 151.232-77.548 0 0-65.748 107.776-238.02 156.404 39.45 49.942 86.788 106.451 86.788 106.451 290.628-9.2 402.403-199.76 402.403-199.76 0-423.195-189.374-766.23-189.374-766.23-189.368-141.942-369.526-138-369.526-138l-18.416 21.024c223.56 68.342 327.455 166.928 327.455 166.928-136.766-74.913-270.897-111.708-395.828-126.165-94.684-10.514-185.439-7.896-265.658 2.618-7.89 0-14.455 1.304-22.345 2.619-46.027 3.942-157.797 21.038-298.509 82.81-48.657 22.342-77.593 38.118-77.593 38.118S335.34 408.14 572.05 339.797l-13.15-15.786zm-36.806 490.235c74.959 0 135.441 65.708 134.126 145.879 0 80.17-59.167 145.88-134.126 145.88-73.643 0-134.151-65.71-134.151-145.88s59.193-145.88 134.151-145.88zm479.997 0c74.958 0 134.126 65.708 134.126 145.879 0 80.17-59.168 145.88-134.126 145.88-73.643 0-134.152-65.71-134.152-145.88s59.194-145.88 134.152-145.88z" style="isolation:auto;mix-blend-mode:normal;marker:none" color="#000" overflow="visible"/>
</svg>
