<svg xmlns="http://www.w3.org/2000/svg" width="1536" height="1796">
    <path d="M179.931 20C80.75 20 0 100.773 0 200.865V1387.93c0 100.092 80.75 180.864 179.931 180.864h995.332l-46.526-162.43 112.355 104.486 106.2 98.329L1536 1776V200.865C1536 100.773 1455.25 20 1356.07 20H179.93zm453.772 409.145l8.777 10.546c-157.989 45.656-230.829 115.014-230.829 115.014s19.314-10.539 51.789-25.465c93.915-41.266 168.514-52.687 199.234-55.32 5.267-.879 9.648-1.75 14.915-1.75 53.54-7.024 114.113-8.773 177.308-1.75 83.383 9.659 172.907 34.24 264.189 84.285 0 0-69.343-65.86-218.554-111.516l12.29-14.044s120.244-2.634 246.635 92.19c0 0 126.395 229.164 126.395 511.88 0 0-74.603 127.304-268.578 133.45 0 0-31.594-37.751-57.925-71.115 114.98-32.486 158.863-104.485 158.863-104.485-35.987 23.706-70.218 40.391-100.938 51.805-43.885 18.438-86.016 30.737-127.268 37.76-84.26 15.805-161.503 11.401-227.332-.89-50.03-9.659-93.03-23.697-129.017-37.745-20.187-7.902-42.137-17.563-64.08-29.855-2.633-1.756-5.27-2.634-7.903-4.39-1.755-.878-2.636-1.763-3.514-2.64-15.799-8.78-24.566-14.92-24.566-14.92s42.13 70.247 153.6 103.61c-26.331 33.365-58.817 72.865-58.817 72.865-193.975-6.146-267.703-133.45-267.703-133.45 0-282.716 126.395-511.88 126.395-511.88 126.39-94.824 246.634-92.19 246.634-92.19zm-24.566 327.5c-50.03 0-89.537 43.897-89.537 97.455s40.385 97.455 89.537 97.455c50.03 0 89.52-43.897 89.52-97.455.878-53.558-39.49-97.455-89.52-97.455zm320.366 0c-50.03 0-89.537 43.897-89.537 97.455s40.385 97.455 89.537 97.455c50.03 0 89.52-43.897 89.52-97.455s-39.49-97.455-89.52-97.455z"/>
</svg>
