<svg width="1536" height="1536" viewBox="0 0 1536 1536" xmlns="http://www.w3.org/2000/svg">
    <path d="m 1515.4306,768.86587 c -4.2339,-3.4867 -42.5875,-32.62553 -124.8985,-32.62553 -21.2938,0 -43.3347,2.11693 -64.6284,5.72815 C 1310.3381,633.38276 1220.1821,580.83325 1216.5708,578.0937 l -22.0409,-12.82606 -14.1958,20.54661 c -17.6825,27.64453 -31.2558,58.90028 -38.9763,90.77866 -14.943,61.76436 -5.7281,119.91749 25.5276,169.60293 -37.6065,21.29376 -98.6237,26.27476 -111.4498,27.02191 H 47.655483 c -26.274757,0 -47.56851728,21.29376 -47.56851728,47.56851 C -1.2828083,1008.8254 13.535656,1096.74 44.04426,1179.7981 c 34.742451,90.7786 86.54482,158.2712 153.29017,199.3644 75.21305,46.0742 197.99461,72.3489 336.34179,72.3489 62.38698,0 124.89849,-5.7281 186.66285,-17.0599 85.92219,-15.5656 168.23315,-45.4516 244.06882,-88.6617 62.51151,-36.2368 118.54771,-82.311 166.11621,-136.2303 80.1941,-90.156 127.7625,-190.8967 162.505,-280.30554 4.981,0 9.2148,0 14.1958,0 87.292,0 141.2113,-34.74245 170.9727,-64.62843 19.924,-18.42969 34.7425,-41.21775 45.4516,-66.74536 L 1530,779.45049 Z m -623.74525,75.21305 h 134.86045 c 6.3508,0 12.0789,-4.981 12.0789,-12.07892 V 711.33536 c 0,-6.35077 -4.981,-12.07892 -12.0789,-12.07892 v 0 H 891.68535 c -6.35077,0 -12.07892,4.981 -12.07892,12.07892 v 0 V 832 c 0.74715,7.09792 5.72815,12.07892 12.07892,12.07892 z M 703.65273,498.52228 h 134.86048 c 6.35077,0 12.07891,-4.98099 12.07891,-12.07891 V 365.77873 c 0,-6.35077 -5.72814,-12.07892 -12.07891,-12.07892 H 703.65273 c -6.35077,0 -12.07892,4.981 -12.07892,12.07892 v 0 120.66464 c 0,6.35077 5.60362,12.07891 12.07892,12.07891 z m 0,173.08963 h 134.86048 c 6.35077,0 12.07891,-5.72814 12.07891,-12.07891 V 538.86836 c 0,-6.35077 -5.72814,-12.07892 -12.07891,-12.07892 H 703.65273 c -6.35077,0 -12.07892,4.981 -12.07892,12.07892 v 0 120.66464 c 0,6.47529 5.60362,12.07891 12.07892,12.07891 z m -186.66285,0 h 134.86048 c 6.35077,0 12.07892,-5.72814 12.07892,-12.07891 V 538.86836 c 0,-6.35077 -4.981,-12.07892 -12.07892,-12.07892 v 0 H 516.98988 c -6.35077,0 -12.07891,4.981 -12.07891,12.07892 v 0 120.66464 c 0,6.47529 4.98099,12.07891 12.07891,12.07891 z m -189.52692,0 h 134.86049 c 6.35077,0 12.07891,-5.72814 12.07891,-12.07891 V 538.86836 c 0,-6.35077 -4.98099,-12.07892 -12.07891,-12.07892 v 0 H 327.46296 c -6.35077,0 -12.07891,4.981 -12.07891,12.07892 V 659.533 c 0.74715,6.47529 5.72814,12.07891 12.07891,12.07891 z m 376.18977,172.46701 h 134.86048 c 6.35077,0 12.07891,-4.981 12.07891,-12.07892 V 711.33536 c 0,-6.35077 -4.98099,-12.07892 -12.07891,-12.07892 v 0 H 703.65273 c -6.35077,0 -12.07892,4.981 -12.07892,12.07892 v 0 V 832 c 0,7.09792 5.60362,12.07892 12.07892,12.07892 z m -186.66285,0 h 134.86048 c 6.35077,0 12.07892,-4.981 12.07892,-12.07892 v 0 -120.66464 c 0,-6.35077 -4.981,-12.07892 -12.07892,-12.07892 v 0 H 516.98988 c -6.35077,0 -12.07891,4.981 -12.07891,12.07892 v 0 V 832 c 0,7.09792 4.98099,12.07892 12.07891,12.07892 z m -189.52692,0 h 134.86049 c 6.35077,0 12.07891,-4.981 12.07891,-12.07892 v 0 -120.66464 c 0,-6.35077 -4.98099,-12.07892 -12.07891,-12.07892 v 0 H 327.46296 c -6.35077,0 -12.07891,4.981 -12.07891,12.07892 V 832 c 0.74715,7.09792 5.72814,12.07892 12.07891,12.07892 z m -185.91569,0 h 134.86048 c 6.35077,0 12.07892,-4.981 12.07892,-12.07892 v 0 -120.66464 c 0,-6.35077 -4.981,-12.07892 -12.07892,-12.07892 v 0 H 141.54727 c -6.35077,0 -12.07892,4.981 -12.07892,12.07892 v 0 V 832 c 0.74715,7.09792 5.72815,12.07892 12.07892,12.07892 z"/>
</svg>
