<svg xmlns="http://www.w3.org/2000/svg" width="1536" height="1792" viewBox="0 0 1536 1792">
    <path d="M768.002 131.848C344.528 131.848 0 475.368 0 897.928c0 422.56 344.528 766.07 768.002 766.07 423.474 0 768.002-343.51 768.002-766.07 0-422.56-344.528-766.08-768.002-766.08zm0 102.379c368.295 0 665.623 296.617 665.623 663.7 0 367.084-297.328 663.702-665.623 663.702-368.295 0-665.623-296.618-665.623-663.701 0-367.084 297.328-663.701 665.623-663.701zm-.176 78.322c-5.259.024-10.548.105-15.867.244-568.945 14.88-802.949 726.987-350.734 1067.334 73.196 55.089 61.675 66.532 111.2-110.473 22.573-80.673 42.058-149.62 43.302-153.217 1.35-3.905 23.563 25.691 55.168 73.504 36.511 55.237 55.009 79.441 59.687 78.1 3.729-1.069 46.966-19.721 96.084-41.45 106.102-46.936 98.485-50.57 78.303 37.352-23.602 102.822-38.157 208.514-29.52 214.367 17.23 11.677 112.643 1.658 164.733-17.298 633.28-230.459 455.52-1151.48-212.356-1148.463zm35.654 85.982c23.637-.042 47.244 2.214 70.534 7.04 283.512 58.734 451.441 464.055 267.213 644.954-51.767 50.832-79.901 49.598-31.332-1.373 181.482-190.459 26.35-564.515-254.473-613.588-251.853-44.01-525.128 206.488-458.776 420.538 9.626 31.05 5.187 31.479-8.833.853-90.374-197.4 164.261-457.974 415.667-458.424zM435.025 538.094c8.785.004 4.6 6.099-14.53 33.965-62.456 90.973-87.316 183.179-69.636 258.265 8.091 34.362 5.644 34.87-21.789 4.52C236.11 732 292.586 557.278 424.64 539.178c4.45-.61 7.926-1.085 10.385-1.084zm369.746 40.043c1.693-.037 3.161.465 4.307 1.611 1.223 1.223-2.999 12.525-9.38 25.12-12.883 25.42-14.619 36.757-5.63 36.757 3.286 0 10.427-9.854 15.87-21.897 10.494-23.222 32.553-39.872 32.234-24.333-.088 4.297-3.069 12.898-6.621 19.113-7.446 13.025-8.843 31.637-2.375 31.637 2.422 0 7.751-6.609 11.844-14.688 9.752-19.253 19.858-30.51 27.39-30.51 8.83 0 7.455 12.525-3.28 29.893-5.145 8.327-8.076 17.21-6.51 19.742 5.568 9.01 14.134 4.376 19.538-10.568 6.554-18.125 20.078-31.402 29.838-29.293 6.02 1.3 5.424 4.858-4.043 24.125-20.955 42.648-13.483 49.208 56.41 49.511 55.18.24 81.306 9.685 118.643 42.895 23.947 21.3 28.029 30.99 8.883 21.09-42.805-22.135-126.168 3.137-120.84 36.633 1.1 6.92 3.177 21.945 4.615 33.388 2.44 19.432 3.756 21.149 19.902 25.987 92.724 27.78 69.94 172.412-27.16 172.412-23.523 0-23.522 0-14.912 9.664 17.804 19.982 73.702 29.785 97.428 17.088 5.02-2.696 10.133-3.883 11.357-2.659 3.997 3.998-38.63 26.36-78.883 41.383-21.654 8.082-96.32 40.554-165.923 72.16-69.604 31.607-128.77 58.405-131.479 59.555-6.31 2.676-.893 10.082-94.598-129.394-44.256-65.876-90.057-132.993-101.78-149.15-33.9-46.723-46.653-75.004-24.048-53.329 21.01 20.146 44.777 30.729 69.01 30.729 19.676 0 28.309-6.748 14.315-11.19-85.81-27.235-33.07-183.78 56.27-167.02 15.32 2.875 26.494 10.981 15.136 10.981-52.134 0-90.094 81.915-62.776 135.465 21.212 41.577 47.223 22.093 51.487-38.567 3.575-50.869 16.504-87.295 43.754-123.273 31.858-42.063-7.391-108.837-68.864-117.154-19.532-2.643-19.531-2.641-5.972-8.448 44.144-18.903 124.877-2.117 166.787 34.68 17.786 15.616 25.059 13.752 25.23-6.463.137-16.792 22.978-43.428 34.826-43.683zm437.297 201.625c2.592-.197 6.635 4.373 12.948 11.506 78.04 88.173 48.504 231.675-57.608 279.892-50.529 22.96-58.521 21.556-32.8-5.766 48.761-51.796 72.818-126.67 72.833-226.67.006-43.116.008-58.612 4.627-58.962zM981.5 846.879c-4.243.39-6.844 9.212-11.06 29.883-6.284 30.804-24.332 69.215-40.53 86.254-11.09 11.665-11.126 11.96-3.36 28.248 9.011 18.894 13.52 19.812 37.425 7.617 53.099-27.09 66.902-99.175 27.638-144.338-4.431-5.097-7.567-7.899-10.113-7.664zM680.27 999.203c-4.72.175-9.636 2.123-14.07 6.137-11.666 10.556-12.427 36.2-1.268 42.7h.002c19.985 11.64 38.868-2.537 36.474-27.384-1.314-13.646-10.755-21.838-21.138-21.453zm98.134 27.498c-5.488-.25-11.586 2.299-17.427 8.14-10.834 10.834-11.723 28.31-1.938 38.094 15.313 15.313 38.094 4.793 38.094-17.591 0-17.477-8.252-28.164-18.729-28.643z"/>
</svg>
