<?xml version="1.0" standalone="no"?>
<svg width="1536px" height="1536px" version="1.1" xmlns="http://www.w3.org/2000/svg">
    <path transform="scale(1, -1) translate(0, -1536)" glyph-name="download" unicode="&#xf019;" horiz-adv-x="1664" 

d="M1280 192c0 35 -29 64 -64 64s-64 -29 -64 -64s29 -64 64 -64s64 29 64 64zM1536 192c0 35 -29 64 -64 64s-64 -29 -64 -64s29 -64 64 -64s64 29 64 64zM1664 416v-320c0 -53 -43 -96 -96 -96h-1472c-53 0 -96 43 -96 96v320c0 53 43 96 96 96h465l135 -136
c37 -36 85 -56 136 -56s99 20 136 56l136 136h464c53 0 96 -43 96 -96zM1339 985c10 -24 5 -52 -14 -70l-448 -448c-12 -13 -29 -19 -45 -19s-33 6 -45 19l-448 448c-19 18 -24 46 -14 70c10 23 33 39 59 39h256v448c0 35 29 64 64 64h256c35 0 64 -29 64 -64v-448h256
c26 0 49 -16 59 -39z" />
</svg>