<svg width="1536" height="1536" xmlns="http://www.w3.org/2000/svg">
    <path d="M1280 1344c0-35-29-64-64-64s-64 29-64 64 29 64 64 64 64-29 64-64zm256 0c0-35-29-64-64-64s-64 29-64 64 29 64 64 64 64-29 64-64zm128-224v320c0 53-43 96-96 96H96c-53 0-96-43-96-96v-320c0-53 43-96 96-96h465l135 136c37 36 85 56 136 56s99-20 136-56l136-136h464c53 0 96 43 96 96zm-325-569c10 24 5 52-14 70l-448 448c-12 13-29 19-45 19s-33-6-45-19L339 621c-19-18-24-46-14-70 10-23 33-39 59-39h256V64c0-35 29-64 64-64h256c35 0 64 29 64 64v448h256c26 0 49 16 59 39z"/>
</svg>
