<?xml version="1.0" standalone="no"?>
<svg width="1536px" height="1536px" version="1.1" xmlns="http://www.w3.org/2000/svg">
    <path transform="scale(1, -1) translate(0, -1536)" glyph-name="dribble" unicode="&#xf17d;" 

d="M1024 36c-10 58 -48 258 -140 498c-1 0 -3 -1 -4 -1c0 0 -389 -136 -515 -410c-6 5 -15 11 -15 11c114 -93 259 -150 418 -150c91 0 177 19 256 52zM839 643c-16 37 -34 74 -53 111c-338 -101 -662 -93 -673 -93c-1 -7 -1 -14 -1 -21c0 -168 64 -322 168 -438v0
c179 319 533 433 533 433c9 3 18 5 26 8zM732 855c-114 202 -235 366 -244 378c-183 -86 -319 -255 -362 -458c17 0 291 -3 606 80zM1416 536c-14 4 -197 62 -409 29c86 -237 121 -430 128 -469c147 99 251 257 281 440zM611 1277c-1 0 -1 0 -2 -1c0 0 1 1 2 1zM1201 1132
c-115 102 -267 164 -433 164c-53 0 -105 -7 -155 -19c10 -13 134 -176 246 -382c247 92 340 234 342 237zM1424 647c-2 155 -57 298 -149 410c-2 -2 -107 -154 -366 -260c15 -31 30 -63 44 -95c5 -11 9 -23 14 -34c226 29 449 -20 457 -21zM1536 640
c0 -424 -344 -768 -768 -768s-768 344 -768 768s344 768 768 768s768 -344 768 -768z" />
</svg>