<svg width="1536" height="1536" xmlns="http://www.w3.org/2000/svg">
    <path d="M1024 1500c-10-58-48-258-140-498-1 0-3 1-4 1 0 0-389 136-515 410-6-5-15-11-15-11 114 93 259 150 418 150 91 0 177-19 256-52zM839 893c-16-37-34-74-53-111-338 101-662 93-673 93-1 7-1 14-1 21 0 168 64 322 168 438 179-319 533-433 533-433 9-3 18-5 26-8zM732 681C618 479 497 315 488 303c-183 86-319 255-362 458 17 0 291 3 606-80zm684 319c-14-4-197-62-409-29 86 237 121 430 128 469 147-99 251-257 281-440zM611 259c-1 0-1 0-2 1 0 0 1-1 2-1zm590 145c-115-102-267-164-433-164-53 0-105 7-155 19 10 13 134 176 246 382 247-92 340-234 342-237zm223 485c-2-155-57-298-149-410-2 2-107 154-366 260 15 31 30 63 44 95 5 11 9 23 14 34 226-29 449 20 457 21zm112 7c0 424-344 768-768 768S0 1320 0 896s344-768 768-768 768 344 768 768z"/>
</svg>
