<?xml version="1.0" standalone="no"?>
<svg width="1536px" height="1536px" version="1.1" xmlns="http://www.w3.org/2000/svg">
    <path transform="scale(1, -1) translate(0, -1536)" glyph-name="drupal" unicode="&#xf1a9;" 

d="M1167 -50c-2 7 -8 17 -24 5c-34 -25 -110 -56 -218 -56s-159 23 -193 49c-5 4 -3 4 -13 4c-11 0 -17 -5 -26 -12c-8 -7 -12 -24 0 -36c74 -68 198 -62 289 -54c92 9 170 63 178 71c12 12 9 22 7 29zM1128 65c-7 17 -19 47 -39 61c-20 13 -49 15 -76 15s-42 2 -71 -10
s-59 -39 -78 -56s-22 -30 -12 -44c10 -13 21 -5 49 19c29 23 48 44 107 44s69 -22 81 -44s13 -25 25 -19c14 7 21 17 14 34zM1483 346c0 52 -23 140 -108 140c-80 0 -242 -166 -327 -167c-99 -2 -236 196 -434 194c-156 -1 -279 -125 -281 -257c-1 -74 23 -129 74 -164
c34 -23 65 -37 166 -37c168 0 381 208 479 205c78 -3 199 -194 260 -198c48 -4 73 18 114 77c40 60 57 154 57 207zM1536 506c0 -448 -354 -744 -761 -744c-408 0 -775 321 -775 758c0 436 340 638 403 671c75 40 129 61 214 129c42 33 77 81 88 198
c61 -73 134 -158 186 -193c85 -56 170 -78 259 -134c54 -33 386 -236 386 -685z" />
</svg>