<svg width="1536" height="1536" xmlns="http://www.w3.org/2000/svg">
    <path d="M1167 1586c-2-7-8-17-24-5-34 25-110 56-218 56s-159-23-193-49c-5-4-3-4-13-4-11 0-17 5-26 12-8 7-12 24 0 36 74 68 198 62 289 54 92-9 170-63 178-71 12-12 9-22 7-29zm-39-115c-7-17-19-47-39-61-20-13-49-15-76-15s-42-2-71 10-59 39-78 56-22 30-12 44c10 13 21 5 49-19 29-23 48-44 107-44s69 22 81 44 13 25 25 19c14-7 21-17 14-34zm355-281c0-52-23-140-108-140-80 0-242 166-327 167-99 2-236-196-434-194-156 1-279 125-281 257-1 74 23 129 74 164 34 23 65 37 166 37 168 0 381-208 479-205 78 3 199 194 260 198 48 4 73-18 114-77 40-60 57-154 57-207zm53-160c0 448-354 744-761 744-408 0-775-321-775-758 0-436 340-638 403-671 75-40 129-61 214-129 42-33 77-81 88-198 61 73 134 158 186 193 85 56 170 78 259 134 54 33 386 236 386 685z"/>
</svg>
