<svg xmlns="http://www.w3.org/2000/svg" viewBox="0 0 1536 1792" height="1792" width="1536">
    <path d="M877.81 1791.91c-81.021-1.843-158.42-13.823-235.099-36.39-152.897-45.002-291.571-130.446-400.573-246.815-68.64-73.28-124.267-157.168-165.022-248.863-44.175-99.39-69.965-206.45-75.862-314.92C.284 927.179 0 916.06 0 895.99c0-20.071.284-31.19 1.254-48.932 8.984-165.272 63.883-325.364 158.27-461.537 48.233-69.587 106.255-132.154 171.974-185.442a896.679 896.679 0 0 1 123.401-84.085c15.456-8.74 32.674-17.805 47.724-25.122 37.268-18.123 72.401-32.457 110.991-45.284 73.081-24.292 149.194-39.081 225.93-43.9 20.291-1.274 34.153-1.69 56.37-1.693 22.452 0 38.167.48 58.162 1.784 94.48 6.164 187.044 27.136 274.861 62.276 44.705 17.89 87.085 38.932 128.514 63.81 86.057 51.678 162.558 117.24 227.025 194.564 48.452 58.115 89.917 123.161 122.084 191.515 43.57 92.581 70.876 191.163 81.051 292.606 3.09 30.803 4.389 57.283 4.389 89.44 0 22.185-.421 36.217-1.696 56.46-10.333 164.144-65.864 322.689-160.21 457.414-35.88 51.238-76.868 98.433-122.443 140.99-72.998 68.16-156.555 123.469-247.795 164.022-80.319 35.7-165.829 59.467-252.905 70.297-28.97 3.603-54.556 5.56-85.855 6.566-7.587.243-35.262.352-43.286.17zm32.532-73.13c83.518-1.569 162.534-14.772 242.598-40.538 22.186-7.14 50.076-17.467 67.943-25.16 107.678-46.359 203.34-114.308 282.487-200.652 58.793-64.14 107.102-137.602 144.266-219.384 32.91-72.418 54.646-149.718 64.691-230.051 3.476-27.795 5.371-52.947 6.316-83.794.435-14.207.248-41.825-.391-57.804-2.834-70.85-13.828-137.68-33.452-203.345-15.85-53.03-38.38-106.75-65.93-157.192-43.84-80.271-101.324-153.202-169.473-215.017-66.427-60.252-142.617-109.31-227.45-146.451-32.113-14.06-68.147-26.847-102.9-36.515-60.013-16.695-121.744-26.324-186.21-29.043-22.327-.942-49.199-.977-70.53-.09-93.533 3.88-184.026 23.007-272.621 57.622-20.847 8.145-39.387 16.449-62.285 27.896-71.895 35.943-138.14 82.284-196.713 137.608-11.838 11.181-24.646 24.026-35.722 35.825-60.73 64.698-111.216 140.235-149.292 223.372-30.17 65.875-50.708 133.97-62.236 206.353-8.886 55.788-12.15 115.693-9.415 172.735 4.188 87.27 22.051 173.209 53.368 256.758 9.443 25.192 18.735 46.381 31.793 72.502 46.16 92.333 109.213 175.035 186.2 244.22 61.759 55.501 131.755 101.32 209.48 137.126 92.453 42.59 191.776 66.71 296.599 72.03 19.658.997 40.168 1.342 58.88.99zm164.38-84.376c-1.408-2.324-10.196-17.422-13.592-23.352a2001.67 2001.67 0 0 1-34.898-63.623l-3.245-6.184.496-.418c2.862-2.418 4.15-4.405 5.403-8.33.475-1.49 1.456-5.533 1.456-6.003 0-.104-.666.18-1.478.632-3.002 1.669-9.583 4.46-10.906 4.627a5.888 5.888 0 0 0-1.15.264c-.259.105-1.533.494-2.832.881-26.538 7.896-64.864 10.531-87.501 6.018-7.173-1.429-9.21-2.027-12.302-3.606-8.812-4.501-12.62-12.664-13.61-29.175-.27-4.501-.135-21.172.264-31.207.732-18.682 1.3-41.239 1.15-45.588l-.06-1.675-2.093 1.407c-6.203 4.166-10.04 8.637-10.977 12.788-.203.904-.306 3.833-.457 13.084-.21 12.794-.265 14.504-1.08 33.518-.745 17.376-.89 21.798-.893 27.244-.004 8.004.445 13.91 1.432 18.82 1.494 7.433 4.505 12.625 9.152 15.78.6.408 1.065.762 1.033.79-.03.03-2.438 1.34-5.346 2.921-55.527 30.194-95.643 48.952-119.103 55.694-7.32 2.102-11.52 2.851-16.042 2.859-3.232.01-4.394-.199-6.13-1.08-10.147-5.141-17.994-42.137-22.541-106.27-3.092-43.595-4.06-99.997-2.239-130.484.418-6.984.747-10.133 1.195-11.51 1.329-4.037 5.34-6.636 11.432-7.397 1.937-.242 7.978-.24 10.413 0 14.888 1.483 35.224 7.294 63.343 18.1 23.669 9.095 51.637 21.345 88.774 38.883l6.145 2.902 1.377-1.286c2.977-2.78 6.568-5.118 11.964-7.788 8.332-4.123 19.335-7.76 31.725-10.485 1.38-.303 2.64-.592 2.799-.64.242-.074.03-.75-1.307-4.16-11.211-28.625-21.893-60.14-29.81-87.942-12.681-44.54-20.188-85.853-22.132-121.807-1.118-20.644-.462-51.546 1.609-75.907.438-5.145.759-8.588.808-8.654.015-.03 2.005 1.272 4.408 2.89 25.434 17.106 57.851 32.143 97.754 45.342 46.278 15.307 100.355 26.713 150.112 31.662 7.934.788 12.297 1.145 23.211 1.893 4.477.308 12.67.637 20.417.822 27.992.666 54.984-2.047 83.272-8.37 50.687-11.332 99.8-34.286 126.92-59.32 8.905-8.22 14.532-16.474 15.667-22.98.73-4.192-.294-7.762-3.027-10.531-4.219-4.278-11.807-7.08-22.174-8.185-3.412-.364-15.773-.308-20.329.09-15.67 1.375-31.646 4.066-63.002 10.608-5.372 1.122-14.97 3.126-21.329 4.456-43.181 9.03-69.298 13.5-96.43 16.504-19.33 2.14-34.637 3.026-52.517 3.04-12.829.01-19.714-.294-30.29-1.34-41.844-4.132-80.148-16.756-103.238-34.024-4.71-3.522-9.966-8.48-12.947-12.21-5.556-6.956-8.37-14.178-8.382-21.509-.01-6.656.95-13.71 2.538-18.64 2.782-8.639 8.16-14.874 16.457-19.078 9.103-4.614 20.997-6.984 39.253-7.823 5.237-.24 24.118-.134 30.291.18a930.572 930.572 0 0 1 33.428 2.258c12.823 1.087 20.529 1.172 31.636.35 33.745-2.5 78.067-12.74 129.499-29.922 48.515-16.208 97.539-36.416 140.97-58.11 28.567-14.27 49.84-26.713 64.616-37.797 7.007-5.257 12.672-10.648 15.317-14.578 1.793-2.665 2.456-4.85 2.262-7.46-1.154-15.573-16.578-28.909-41.866-36.2-12.23-3.525-26.487-5.533-39.432-5.552-4.752-.01-5.866.045-8.514.408-15.598 2.127-35.338 7.347-76.703 20.283-6.992 2.186-11.262 3.53-33.618 10.575-49.694 15.662-81.53 24.936-113.457 33.052-11.014 2.8-32.907 7.95-33.074 7.78-.03-.03.179-1.023.466-2.206 3.582-14.83 5.775-32.23 6.834-54.22.308-6.396.31-29.95 0-35.13-1.389-23.477-4.23-45.571-8.931-69.434-14.828-75.276-43.816-142.014-83.508-192.253-25.511-32.29-55.115-57.855-89.234-77.057-22.5-12.664-47.93-22.744-73.578-29.168l-4.188-1.049-1.544-1.971c-21.966-28.065-51.212-52.029-87.048-71.328-26.908-14.49-58.856-26.577-90.515-34.242-32.448-7.856-62.61-11.935-100.374-13.573-6.973-.303-35.481-.302-42.568 0-23.43 1.002-38.924 2.28-61.615 5.085-4.166.515-7.513.989-7.438 1.053 0 .06 2.394.862 5.154 1.774 19.6 6.47 43.669 16.317 63.214 25.86l4.49 2.19-2.664.483c-9.16 1.662-19.691 4.723-28.476 8.278-19.6 7.931-33.256 18.688-40.595 31.977-2.506 4.538-4.428 10.135-5.28 15.375-.328 2.031-.626 4.973-.507 5.108.15.12 9.067.105 38.404-.075 27.744-.169 39.452-.01 59.239.798 53.513 2.188 97.536 8.243 129.103 17.756 1.606.484 3.219.885 3.585.894.358.01.582.045.478.09-.15.03-3.043.478-6.543.979-67.293 9.619-122.29 28.512-164.629 56.555-19.06 12.623-35.308 26.865-49.368 43.27-32.629 38.073-51.2 87.152-54.943 145.193-1.449 22.542-.896 43.213 1.886 70.62 12.329 121.246 42.796 295.08 91.402 521.492 22.947 106.893 47.914 216.5 79.852 350.556 1.546 6.489 2.77 11.838 2.72 11.888-.165.168-12.793-4.582-22.741-8.555a761.368 761.368 0 0 1-79.106-37.004c-61.254-33.057-118.312-74.802-168.208-123.063-20.119-19.46-38.951-39.712-56.56-60.827-73.493-88.121-126.13-191.529-153.765-302.067-13.704-54.813-20.954-108.43-22.523-166.55-.238-8.703-.149-36.862.18-44.54 1.58-40.018 5.215-74.102 11.746-110.142 16.398-90.48 48.81-176.543 96.226-255.504 43.946-73.18 100.292-138.916 166.094-193.768 66.707-55.605 142.07-99.263 223.15-129.27 72.778-26.933 149.777-42.563 227.542-46.189 12.135-.566 15.789-.654 31.277-.752 15.222-.105 24.36.03 35.938.488 117.862 4.703 231.28 35.973 334.278 92.162 55.022 30.017 106.602 67.125 152.79 109.922 13.502 12.51 30.62 29.693 43.128 43.292 90.886 98.811 153.942 219.626 182.791 350.224 17.235 78.024 22.133 159.258 14.438 239.462-10.197 106.295-42.308 208.452-94.676 301.209-41.107 72.808-94.365 138.824-156.97 194.573-50.854 45.285-106.621 82.996-167.49 113.261-8.776 4.364-11.288 5.573-19.09 9.188-38.468 17.828-79.256 32.635-120.537 43.759-4.392 1.183-18.355 4.774-18.566 4.774-.045 0-.309-.384-.593-.851zm128.763-71.826c.74-.162 1.85-.527 2.466-.811 10.431-4.818 16.888-41.412 16.888-95.711 0-32.873-2.323-64.816-6.628-91.142-4.199-25.677-9.756-42.335-16.297-48.85-2.699-2.688-4.498-3.326-8.886-3.153-2.81.105-4.77.433-8.202 1.349-23.377 6.239-70.824 34.438-133.575 79.39-8.774 6.286-11.719 8.482-11.65 8.689.045.12.393 1.666.787 3.44 4.296 19.385 7.297 41.06 8.265 59.687.232 4.44.229 15.535 0 19.181-.528 8.304-1.78 15.11-3.644 19.815-.659 1.663-.73 1.961-.489 2.057 2.235.884 15.776 6.017 21.97 8.329 44.298 16.528 80.73 28.298 105.207 33.985 9.3 2.161 16.08 3.322 23.845 4.082 1.823.18 8.646-.06 9.948-.337zM676.615 830.1c-7.371-.551-15.231-2.777-21.687-6.143-17.546-9.148-28.991-26.38-30.548-45.987-1.135-14.34 3.23-28.56 12.28-39.98 2.043-2.577 7.234-7.605 9.948-9.635 8.018-5.998 16.238-9.44 26.33-11.029 2.07-.325 3.22-.382 7.89-.388 4.866-.01 5.771.045 8.245.417 11.592 1.767 21.75 6.614 30.381 14.495 8.243 7.528 14.354 18.117 16.834 29.173 1.552 6.908 1.776 14.78.628 21.778-2.63 15.95-12.075 30.146-25.828 38.821-2.266 1.43-7.7 4.134-10 4.977-8.074 2.961-16.18 4.121-24.466 3.502zm29.72-61.71c7.012-2.094 11.956-8.663 11.95-15.881-.001-1.657-.508-4.164-1.165-5.828-2.08-5.206-6.912-9.203-12.36-10.224-2.071-.388-5.15-.268-7.069.278-4.752 1.35-8.451 4.442-10.582 8.848-1.18 2.426-1.449 3.53-1.564 6.312 0 1.801 0 2.695.21 3.854 1.298 6.49 6.387 11.567 13.004 12.987 1.898.408 5.628.238 7.583-.346zm352.237 19.84c-.395-.03-1.725-.228-2.958-.423-13.527-2.148-25.82-10.184-33.567-21.945-1.735-2.633-4.327-7.865-5.315-10.725-1.745-5.056-2.5-9.264-2.644-14.727-.223-8.472 1.488-15.92 5.396-23.5 4.941-9.581 12.674-17.151 22.407-21.935 4.715-2.319 8.702-3.605 13.992-4.517 3.206-.553 11.023-.596 14.34-.075a50.397 50.397 0 0 1 23.569 10.322c2.218 1.757 6.054 5.563 7.775 7.714 4.323 5.405 7.868 12.475 9.517 18.983 2.81 11.085 1.498 23.023-3.665 33.355-7.497 14.999-21.957 25.295-38.382 27.329-2.03.25-8.385.34-10.465.149zm24.24-53.645c5.95-.774 10.584-5.186 12.705-12.1.423-1.38.493-1.91.483-3.673-.045-6.544-4.04-11.744-10.363-13.468-2.123-.578-6.407-.587-8.387-.015-6.456 1.862-10.867 7.627-10.932 14.29-.03 2.563.37 4.335 1.481 6.633 2.18 4.51 6.568 7.677 11.538 8.324 1.539.2 1.995.202 3.475.01zm-516.972-72.71c-.15-2.788.004-10.817.283-14.22 1.655-20.73 8.017-36.182 19.363-47.027 8.998-8.603 21.06-13.839 35.574-15.444 3.609-.399 10.983-.535 14.966-.275 14.457.943 28.902 4.696 43.466 11.297 4.88 2.21 13.752 6.986 12.995 6.993-.15 0-.956-.075-1.792-.17-1.945-.219-8.888-.843-11.92-1.073-17.747-1.341-32.454-.984-44.54 1.078-31.05 5.3-50.743 22.56-67.132 58.842l-1.12 2.48zm404.995-54.446c0-.297 2.637-5.73 3.747-7.72 10.357-18.56 26.654-29.72 46.888-32.106 3.514-.416 10.58-.411 14.16.01 11.844 1.384 22.908 5.367 33.431 12.034 8.31 5.264 16.169 12.344 22.868 20.602 1.09 1.344 1.121 1.468.239.954-2.018-1.175-4.36-2.42-7.531-4.009-13.793-6.903-26.597-10.787-40.852-12.392-4.048-.456-14.872-.454-19 0-8.927.988-17.88 3.224-26.078 6.511-3.862 1.549-11.161 5.178-14.792 7.355-3.613 2.167-7.203 4.556-10.302 6.855-2.554 1.896-2.778 2.049-2.778 1.905z"/>
</svg>
