<?xml version="1.0" standalone="no"?>
<svg width="1536px" height="1536px" version="1.1" xmlns="http://www.w3.org/2000/svg">
    <path transform="scale(1, -1) translate(0, -1536)" glyph-name="edge" unicode="&#xf282;" horiz-adv-x="1792" 

d="M69 741h1c52 414 335 796 841 795c307 0 560 -144 708 -409c76 -137 104 -283 104 -442v-188h-1125c5 -464 682 -448 974 -244v-377c-171 -103 -557 -192 -858 -77c-255 98 -433 363 -436 621c-4 333 165 554 436 680c-57 -72 -101 -150 -124 -285h635
c37 379 -359 379 -359 379c-374 -13 -644 -231 -797 -453z" />
</svg>