<?xml version="1.0" standalone="no"?>
<svg width="1536px" height="1536px" version="1.1" xmlns="http://www.w3.org/2000/svg">
    <path transform="scale(1, -1) translate(0, -1536)" glyph-name="eercast" unicode="&#xf2da;" horiz-adv-x="1792" 

d="M1341 752c35 54 -6 191 -128 272c-121 81 -276 75 -312 21c-35 -53 40 -19 177 -70c226 -84 228 -277 263 -223zM1704 178c-283 -696 -1558 -520 -1531 383c3 115 35 192 68 302c-211 -864 966 -1367 1449 -685c18 25 23 23 14 0zM1465 627c0 -283 -228 -513 -509 -513
s-509 230 -509 513s228 513 509 513s509 -230 509 -513zM1752 915c-356 808 -1826 510 -1663 -589c-338 1101 1055 1606 1570 822c42 -64 90 -176 93 -233zM1690 573c17 338 -217 569 -533 656c-5 0 -27 9 14 13c772 -26 800 -1260 -41 -1274c274 76 543 266 560 605z" />
</svg>