<svg xmlns="http://www.w3.org/2000/svg" width="1536" height="1792" viewBox="0 0 1536 1792">
    <path d="M139.215 1791.898c-.815-.033-3.182-.193-5.259-.354-23.274-1.814-45.784-9.283-65.682-21.796-28.71-18.053-50.524-45.827-61.03-77.701-3.677-11.159-5.742-21.232-6.887-33.594C.014 1654.75 0 1635.08 0 1152.083c0-408.606.047-503.09.255-505.58 1.746-20.98 7.339-40.14 16.86-57.756 19.851-36.733 54.174-63.3 94.237-72.94a258.85 258.85 0 0 1 4.298-1.01l.642-.13.053 567.891.053 567.892.427 1.705c1 3.986 2.642 7.63 4.866 10.788 1.524 2.166 5.054 5.715 7.19 7.23 3.272 2.323 7.09 4.006 11.148 4.914l2.051.46h1345.118l2.013-.447c12.225-2.707 21.669-12.692 23.468-24.811.238-1.605.306-3.868.306-10.19v-8.125h116.392v8.843c0 9.202-.186 14.349-.705 19.711-3.228 33.356-18.035 64.663-41.875 88.537-25.887 25.923-59.532 40.936-95.847 42.767-2.638.133-227.265.187-677.1.162-370.233-.02-673.818-.064-674.634-.097zm231.399-252.034c-17.131-.98-33.901-4.993-49.935-11.949-3.155-1.368-10.367-5-13.565-6.831-11.58-6.629-21.667-14.356-31.157-23.867-11.417-11.442-20.202-23.623-27.35-37.917-8.617-17.233-13.385-34.572-14.979-54.477-.374-4.674-.374-1005.102 0-1009.776 1.563-19.51 6.143-36.416 14.467-53.402 4.305-8.783 8.91-16.27 14.738-23.962 20.52-27.08 50.303-46.502 82.882-54.048a172.81 172.81 0 0 0 3.409-.811c.33-.097.347 25.694.37 539.529.015 296.797.09 552.303.167 567.79.13 25.632.173 28.292.483 29.641.932 4.055 2.73 8.13 4.995 11.322 1.524 2.148 5.067 5.666 7.274 7.224 3.187 2.248 7.569 4.15 11.321 4.915 1.646.336 30.963.351 674.379.351 655.577 0 672.7-.01 674.337-.368 10.378-2.276 19.055-9.925 22.419-19.762 1.395-4.082 1.357-3.602 1.438-18.156l.074-13.19h116.371v13.316c0 13.254-.131 17.603-.706 23.438-3.847 39.06-23.505 74.942-54.624 99.71-23.533 18.729-52.343 29.66-82.502 31.3-4.418.241-1350.104.221-1354.306-.02zM603.79 1280.01c-14.424-.826-28.96-3.877-42.288-8.877-5.693-2.136-8.705-3.45-14.193-6.193-14.327-7.16-26.655-16.057-38.081-27.484-11.706-11.706-20.65-24.207-27.945-39.06-8.81-17.938-13.597-36.488-14.625-56.667-.288-5.648-.288-997.65 0-1003.297.113-2.217.381-5.764.597-7.884 5.447-53.635 40.987-100.423 91.488-120.445C572.41 4.685 586.085 1.56 601.716.286c4.656-.38 1354.477-.383 1359.05 0 7.412.615 14.4 1.637 20.738 3.032 33.932 7.466 64.313 27.065 85.27 55.008 17.549 23.398 27.458 50.72 28.963 79.859.151 2.934.194 148.659.147 504.764-.063 472.594-.086 500.828-.407 504-2.047 20.137-6.715 36.499-15.167 53.156-17.651 34.785-48.264 61.027-85.26 73.087-11.766 3.836-24.273 6.152-36.952 6.842-4.419.24-1350.104.22-1354.307-.021zm1352.25-116.7c6.05-1.519 10.42-3.972 14.708-8.26 4.287-4.287 6.741-8.658 8.258-14.707l.425-1.698.054-351.1.054-351.099-2.419 2.717c-17.299 19.425-36.37 37.726-56.106 53.84-2.319 1.894-8.307 6.589-13.306 10.433-165.61 127.355-276.781 215.669-381.581 303.127-9.456 7.89-20.126 16.75-23.713 19.686-43.842 35.897-76.935 58.615-109.672 75.287-32.902 16.756-63.867 26.234-94.16 28.822-11.427.976-24.998.902-36.756-.199-40.424-3.786-82.948-20.254-129.235-50.05-25.852-16.64-50.53-35.349-88.924-67.413C933.4 720.612 829.332 637.833 659.22 506.895c-7.608-5.856-15.033-11.626-16.5-12.821-21.425-17.455-39.855-35.16-58.937-56.616l-.94-1.056.052 351.023.05 351.023.524 2.075c1.028 4.075 2.61 7.575 4.857 10.744 1.444 2.037 5.024 5.613 7.1 7.092 3.722 2.652 8.189 4.51 12.425 5.168 1.51.235 100.478.27 674.13.242l672.362-.034zM1287.8 814.457c12.219-.921 26.172-4.818 41.41-11.564 4.368-1.934 13.618-6.584 18.476-9.288 21.314-11.865 45.716-28.988 74.004-51.931 9.883-8.016 15.289-12.53 40.51-33.827 14.556-12.293 15.767-13.278 42.33-34.431 107.075-85.271 218.806-173.6 318.502-251.789 25.614-20.089 27.296-21.428 32.372-25.788 33.09-28.418 66.622-69.404 89.487-109.379 5.844-10.217 11.947-22.184 16.074-31.518 11.02-24.926 17.326-48.576 18.362-68.867.4-7.848.655-27.108.423-32.012-.549-11.588-2.282-19.357-5.643-25.29-4.117-7.266-10.723-11.363-19.765-12.257-1.563-.155-191.128-.198-674.14-.156l-671.966.06-2.074.524c-5.114 1.294-9.168 3.388-13.089 6.761-3.602 3.1-6.928 7.917-8.542 12.375-1.106 3.053-1.507 5.347-1.627 9.287-.121 4.021.185 13.874.642 20.65 4.46 66.15 30.209 128.221 75.652 182.374 11.1 13.228 25.08 27.557 38.688 39.654 9.084 8.075 11.989 10.425 41.266 33.386 99.692 78.185 212.648 167.484 321.804 254.407 24.886 19.817 24.59 19.575 42.09 34.377 33.153 28.041 45.147 37.79 62.247 50.6 18.125 13.578 32.125 22.933 46.932 31.358 23.921 13.611 45.275 21.173 63.136 22.356 2.435.161 9.914.117 12.438-.073z"/>
</svg>
