<svg xmlns="http://www.w3.org/2000/svg" width="1536" height="1792" viewBox="0 0 1536 1792">
    <path d="M139.215 1791.898c-.815-.033-3.182-.193-5.259-.354-23.274-1.814-45.784-9.283-65.682-21.796-28.71-18.053-50.524-45.827-61.03-77.701-3.677-11.159-5.742-21.232-6.887-33.594C.014 1654.75 0 1635.08 0 1152.083c0-408.606.047-503.09.255-505.58 1.746-20.98 7.339-40.14 16.86-57.756 19.85-36.732 54.177-63.3 94.237-72.94a248.33 248.33 0 0 1 4.298-1.01l.642-.13.053 567.891.053 567.892.427 1.705c1 3.986 2.642 7.63 4.866 10.788 1.524 2.165 5.054 5.715 7.19 7.23 3.272 2.323 7.09 4.006 11.148 4.914l2.051.46h1345.118l2.013-.447c12.225-2.707 21.669-12.692 23.468-24.811.239-1.605.307-3.868.307-10.19v-8.125h116.391v8.843c0 9.201-.186 14.349-.705 19.711-3.227 33.356-18.034 64.663-41.875 88.537-25.887 25.923-59.532 40.936-95.847 42.767-2.638.133-227.265.187-677.1.162-370.233-.02-673.818-.064-674.633-.097zm231.399-252.034c-17.131-.98-33.901-4.993-49.935-11.949-3.155-1.369-10.366-5-13.565-6.831-11.58-6.629-21.667-14.356-31.157-23.867-11.417-11.442-20.202-23.623-27.35-37.917-8.617-17.233-13.385-34.572-14.979-54.477-.374-4.674-.374-1005.102 0-1009.777 1.563-19.509 6.143-36.415 14.467-53.402 4.305-8.782 8.91-16.27 14.738-23.961 20.52-27.08 50.304-46.502 82.882-54.048 1.685-.39 3.219-.755 3.409-.812.33-.097.347 25.704.37 539.727.015 296.906.09 552.412.168 567.79.13 25.442.173 28.096.482 29.444.932 4.054 2.73 8.13 4.995 11.322 1.524 2.148 5.067 5.666 7.274 7.224 3.187 2.248 7.569 4.15 11.321 4.915 1.646.336 30.963.351 674.379.351 655.577 0 672.7-.01 674.337-.368 10.378-2.276 19.056-9.926 22.419-19.762 1.395-4.082 1.357-3.602 1.439-18.157l.074-13.19h116.37v13.317c0 13.254-.13 17.603-.706 23.438-3.847 39.06-23.505 74.942-54.624 99.71-23.532 18.729-52.342 29.66-82.501 31.3-4.419.241-1350.104.221-1354.307-.02zM603.79 1280.01c-14.424-.826-28.96-3.877-42.288-8.877-5.692-2.136-8.705-3.45-14.193-6.193-14.327-7.16-26.654-16.057-38.081-27.484-11.706-11.706-20.65-24.207-27.944-39.06-8.903-18.127-13.681-36.793-14.637-57.182-.152-3.224-.196-109.72-.154-366.434l.059-361.889 3.26 3.518c24.6 26.541 53.607 51.476 85.07 73.128 1.74 1.196 27.794 18.923 57.9 39.392 131.04 89.095 179.386 122.245 242.464 166.255 60.035 41.887 121.502 85.74 162.039 115.606 35.66 26.272 58.636 42.219 81.612 56.642 56.312 35.35 105.329 55.318 151.072 61.54 18.721 2.547 37.987 2.78 56.91.69 26.556-2.932 55.047-10.89 84.478-23.598 15.12-6.528 31.883-14.96 47.92-24.104 29.484-16.811 57.182-35.394 103.547-69.47 35.007-25.728 102.613-73.807 163.421-116.22 74.386-51.883 151.865-104.933 272.107-186.31 27.285-18.466 29.552-20.025 37.051-25.472 29.56-21.47 55.047-44.101 79.695-70.768l.822-.889-.052 365.377c-.05 344.4-.071 365.57-.393 368.737-2.043 20.118-6.72 36.51-15.167 53.156-17.65 34.785-48.263 61.028-85.259 73.088-11.766 3.836-24.273 6.151-36.953 6.841-4.418.24-1350.104.22-1354.306-.02zm671.077-465.48c-2.032-.094-7.36-.642-10.276-1.055-28.213-4.002-62.378-18.605-104.139-44.515-20.775-12.89-40.227-26.301-78.154-53.885-21.563-15.683-23.714-17.22-46.438-33.171-60.068-42.167-128.1-89.59-212.132-147.87-99.354-68.906-132.27-91.753-171.622-119.125a58035.377 58035.377 0 0 0-32.705-22.737c-1.793-1.242-5.528-3.956-8.3-6.031-37.5-28.082-75.302-67.915-102.033-107.518-18.122-26.847-30.974-53.333-37.375-77.022-3.946-14.603-5.452-26.363-5.165-40.325.418-20.373 2.9-37.764 7.95-55.725 4.446-15.807 11.499-31.631 19.904-44.66 17.3-26.813 41.954-45.504 71.922-54.525 10.675-3.213 21.54-5.139 34.325-6.083 5.102-.376 1355.387-.378 1359.938 0 9.502.787 16.602 1.958 25.393 4.19 31.934 8.106 60.834 27.528 80.973 54.418 15.884 21.208 25.65 46.15 28.292 72.252 1.005 9.936.9 22.367-.296 34.57-3.993 40.784-19.774 81.85-46.78 121.737-25.696 37.952-61.31 73.936-102.149 103.212-3.378 2.421-28.387 19.737-111.507 77.204-138.283 95.606-203.92 141.189-276.157 191.783-53.773 37.66-54.38 38.09-72.621 51.374-42.25 30.768-60.518 43.43-82.304 57.041-21.962 13.723-42.795 24.808-60.468 32.175-20.644 8.605-38.397 13.222-54.737 14.233-2.874.178-10.131.21-13.339.06z"/>
</svg>
