<svg width="1536" height="1536" xmlns="http://www.w3.org/2000/svg">
    <path d="M874 1638v66c-282-8-529-160-668-385l58-34c21 35 46 68 73 99l65-57c94 107 222 183 368 212l-17 86c39 7 80 12 121 13zm-598-530l-83 28c14 39 30 76 49 112l-57 33c-62-114-98-246-98-385s36-271 98-385l57 33c-19 35-36 73-49 112l82 28c-23 66-35 138-35 212s13 146 36 212zm1252 177l58 34c-139 225-386 377-668 385v-66c41-1 82-6 121-13l-17-86c146-29 274-105 368-212l65 57c27-31 52-64 73-99zm-151-554l-233 80c9 27 14 55 14 85s-5 58-14 85l232 80c-21 63-55 120-98 169l-185-162c-37 43-88 73-147 85l48 241c-31 6-64 10-98 10s-67-4-98-10l48-241c-59-12-110-42-147-85l-185 162c-43-49-77-106-98-169l232-80c-9-27-14-55-14-85s5-58 14-85l-233-80c22-63 56-120 99-169l185 162c37-43 88-74 147-86l-48-240c31-7 64-10 98-10s67 3 98 10l-48 240c59 12 110 43 147 86l185-162c43 49 77 106 99 169zM874 88v66c-41 1-82 5-121 13l17 86c-146 28-274 104-368 211l-65-56c-27 30-51 63-73 98l-57-33C346 247 592 96 874 88zm831 808c0 139-36 271-98 385l-57-33c19-36 35-73 49-112l-83-28c23-66 36-138 36-212s-12-146-35-212l82-28c-13-39-30-77-49-112l57-33c62 114 98 246 98 385zm-120-423l-57 33c-22-35-46-68-73-98l-65 56c-94-107-222-183-368-211l17-86c-39-8-80-12-121-13V88c282 8 528 159 667 385zm163 423c0-470-382-852-852-852S44 426 44 896s382 852 852 852 852-382 852-852zm44 0c0 495-401 896-896 896S0 1391 0 896 401 0 896 0s896 401 896 896z"/>
</svg>
