<svg width="1536" height="1536" xmlns="http://www.w3.org/2000/svg">
    <path d="M1792 654v978c0 88-72 160-160 160H160c-88 0-160-72-160-160V654c0-9 4-18 11-24 105-92 106-103 628-484C702 100 813 0 896 0s195 101 257 146c522 381 523 392 628 484 7 6 11 15 11 24zm-564 585c156-113 265-192 345-252 14-10 17-30 6-44l-38-52c-11-14-31-17-45-6-79 58-187 138-343 250-62 45-174 145-257 145s-195-100-257-145c-156-113-264-192-343-250-14-11-34-8-45 6l-38 52c-11 14-8 34 6 44 80 60 189 139 345 252 78 56 201 169 332 169 132 0 258-115 332-169z"/>
</svg>
