<svg width="1536" height="1536" xmlns="http://www.w3.org/2000/svg">
    <path d="M1664 1504V736c-21 24-44 46-69 66-143 110-287 222-426 338-75 63-168 140-272 140h-2c-104 0-197-77-272-140-139-116-283-228-426-338-25-20-48-42-69-66v768c0 17 15 32 32 32h1472c17 0 32-15 32-32zm0-1051c0-25 6-69-32-69H160c-17 0-32 15-32 32 0 114 57 213 147 284 134 105 268 211 401 317 53 43 149 135 219 135h2c70 0 166-92 219-135 133-106 267-212 401-317 65-51 147-162 147-247zm128-37v1088c0 88-72 160-160 160H160c-88 0-160-72-160-160V416c0-88 72-160 160-160h1472c88 0 160 72 160 160z"/>
</svg>
