<?xml version="1.0" standalone="no"?>
<svg width="1536px" height="1536px" version="1.1" xmlns="http://www.w3.org/2000/svg">
    <path transform="scale(1, -1) translate(0, -1536)" glyph-name="envelope_open_o" unicode="&#xf2b7;" horiz-adv-x="1792" 

d="M1474 623l39 -51c11 -14 8 -33 -5 -44c-100 -78 -330 -255 -340 -263c-71 -58 -167 -138 -271 -137h-1h-1c-104 0 -200 79 -271 137c-11 9 -233 180 -331 256c-14 11 -17 30 -6 44l37 52c11 15 32 18 46 6c68 -53 164 -127 306 -236c50 -38 149 -131 219 -131h1h1
c70 0 169 93 219 131c147 113 245 188 313 242c14 11 34 8 45 -6zM1664 -96v928c-100 93 -85 85 -548 443c-50 39 -149 133 -219 133h-1h-1c-70 0 -169 -94 -219 -133c-463 -358 -448 -350 -548 -443v-928c0 -17 15 -32 32 -32h1472c17 0 32 15 32 32zM1792 832v-928
c0 -88 -72 -160 -160 -160h-1472c-88 0 -160 72 -160 160v928c0 36 15 70 41 94c205 190 441 355 583 472c70 58 167 138 271 138h1h1c104 0 201 -80 271 -138c132 -109 383 -286 583 -472c26 -24 41 -58 41 -94z" />
</svg>