<svg width="1536" height="1536" xmlns="http://www.w3.org/2000/svg">
    <path d="M1474 913l39 51c11 14 8 33-5 44-100 78-330 255-340 263-71 58-167 138-271 137h-2c-104 0-200-79-271-137-11-9-233-180-331-256-14-11-17-30-6-44l37-52c11-15 32-18 46-6 68 53 164 127 306 236 50 38 149 131 219 131h2c70 0 169-93 219-131 147-113 245-188 313-242 14-11 34-8 45 6zm190 719V704c-100-93-85-85-548-443-50-39-149-133-219-133h-2c-70 0-169 94-219 133-463 358-448 350-548 443v928c0 17 15 32 32 32h1472c17 0 32-15 32-32zm128-928v928c0 88-72 160-160 160H160c-88 0-160-72-160-160V704c0-36 15-70 41-94 205-190 441-355 583-472C694 80 791 0 895 0h2c104 0 201 80 271 138 132 109 383 286 583 472 26 24 41 58 41 94z"/>
</svg>
