<?xml version="1.0" standalone="no"?>
<svg width="1536px" height="1536px" version="1.1" xmlns="http://www.w3.org/2000/svg">
    <path transform="scale(1, -1) translate(0, -1536)" glyph-name="envelope_square" unicode="&#xf199;" 

d="M1248 1408c159 0 288 -129 288 -288v-960c0 -159 -129 -288 -288 -288h-960c-159 0 -288 129 -288 288v960c0 159 129 288 288 288h960zM1280 352v436c-19 -21 -40 -40 -64 -55c-94 -62 -191 -120 -284 -184c-47 -33 -105 -69 -164 -69v0v0v0v0c-59 0 -117 36 -164 69
c-93 64 -191 121 -284 185c-23 15 -41 37 -64 54v-436c0 -53 43 -96 96 -96h832c53 0 96 43 96 96zM1280 925c0 54 -40 99 -96 99h-832c-53 0 -96 -43 -96 -96c0 -54 56 -113 98 -141c88 -59 179 -114 267 -172c38 -25 101 -71 147 -71s109 46 147 71c89 58 178 115 267 174
c39 26 98 86 98 136z" />
</svg>