<svg width="1536" height="1536" xmlns="http://www.w3.org/2000/svg">
    <path d="M1248 128c159 0 288 129 288 288v960c0 159-129 288-288 288H288c-159 0-288-129-288-288V416c0-159 129-288 288-288h960zm32 1056V748c-19 21-40 40-64 55-94 62-191 120-284 184-47 33-105 69-164 69s-117-36-164-69c-93-64-191-121-284-185-23-15-41-37-64-54v436c0 53 43 96 96 96h832c53 0 96-43 96-96zm0-573c0-54-40-99-96-99H352c-53 0-96 43-96 96 0 54 56 113 98 141 88 59 179 114 267 172 38 25 101 71 147 71s109-46 147-71c89-58 178-115 267-174 39-26 98-86 98-136z"/>
</svg>
