<?xml version="1.0" standalone="no"?>
<svg width="1536px" height="1536px" version="1.1" xmlns="http://www.w3.org/2000/svg">
    <path transform="scale(1, -1) translate(0, -1536)" glyph-name="envelope_alt" unicode="&#xf003;" horiz-adv-x="1792" 

d="M1664 32v768c-21 -24 -44 -46 -69 -66c-143 -110 -287 -222 -426 -338c-75 -63 -168 -140 -272 -140h-1h-1c-104 0 -197 77 -272 140c-139 116 -283 228 -426 338c-25 20 -48 42 -69 66v-768c0 -17 15 -32 32 -32h1472c17 0 32 15 32 32zM1664 1083c0 25 6 69 -32 69
h-1472c-17 0 -32 -15 -32 -32c0 -114 57 -213 147 -284c134 -105 268 -211 401 -317c53 -43 149 -135 219 -135h1h1c70 0 166 92 219 135c133 106 267 212 401 317c65 51 147 162 147 247zM1792 1120v-1088c0 -88 -72 -160 -160 -160h-1472c-88 0 -160 72 -160 160v1088
c0 88 72 160 160 160h1472c88 0 160 -72 160 -160z" />
</svg>