<?xml version="1.0" standalone="no"?>
<svg width="1536px" height="1536px" version="1.1" xmlns="http://www.w3.org/2000/svg">
    <path transform="scale(1, -1) translate(0, -1536)" glyph-name="envelope_open" unicode="&#xf2b6;" horiz-adv-x="1792" 

d="M1792 882v-978c0 -88 -72 -160 -160 -160h-1472c-88 0 -160 72 -160 160v978c0 9 4 18 11 24c105 92 106 103 628 484c63 46 174 146 257 146s195 -101 257 -146c522 -381 523 -392 628 -484c7 -6 11 -15 11 -24zM1228 297c156 113 265 192 345 252c14 10 17 30 6 44
l-38 52c-11 14 -31 17 -45 6c-79 -58 -187 -138 -343 -250c-62 -45 -174 -145 -257 -145s-195 100 -257 145c-156 113 -264 192 -343 250c-14 11 -34 8 -45 -6l-38 -52c-11 -14 -8 -34 6 -44c80 -60 189 -139 345 -252c78 -56 201 -169 332 -169c132 0 258 115 332 169z" />
</svg>