<?xml version="1.0" standalone="no"?>
<svg width="1536px" height="1536px" version="1.1" xmlns="http://www.w3.org/2000/svg">
    <path transform="scale(1, -1) translate(0, -1536)" glyph-name="envira" unicode="&#xf299;" horiz-adv-x="1792" 

d="M896 720c-127 240 -244 474 -577 632c-199 94 -21 -37 -21 -37c181 -125 264 -294 361 -479c126 -241 316 -559 577 -671c260 -112 137 -50 24 34c-113 85 -273 348 -364 521zM549 177c-361 286 -341 628 -549 1359c1911 0 1467 -1269 1469 -1465l323 -327h-104l-281 285
c-156 -17 -498 -138 -858 148z" />
</svg>