<?xml version="1.0" standalone="no"?>
<svg width="1536px" height="1536px" version="1.1" xmlns="http://www.w3.org/2000/svg">
    <path transform="scale(1, -1) translate(0, -1536)" glyph-name="etsy" unicode="&#xf2d7;" 

d="M518 1353v-655c232 -2 354 10 354 10c94 3 108 27 130 119l33 142h103l-14 -322l7 -319h-103l-29 127c-21 95 -62 118 -129 119c0 0 -86 8 -352 8v-556c0 -104 57 -153 177 -153h357c120 0 228 12 302 183l93 216h89c-7 -43 -55 -440 -62 -528c-329 12 -470 12 -470 12
h-628l-376 -12v102l127 25c89 17 116 43 117 116c6 242 8 643 8 643s3 402 -8 645c-3 83 -28 103 -117 120l-127 24v102l376 -12h702s139 0 374 27c-14 -153 -31 -506 -31 -506h-93l-32 124c-39 155 -91 238 -187 238h-548c-41 0 -43 -14 -43 -39z" />
</svg>