<?xml version="1.0" standalone="no"?>
<svg width="1536px" height="1536px" version="1.1" xmlns="http://www.w3.org/2000/svg">
    <path transform="scale(1, -1) translate(0, -1536)" glyph-name="eur" unicode="&#xf153;" horiz-adv-x="1024" 

d="M976 229l35 -159c4 -16 -5 -32 -20 -37c-4 -1 -97 -33 -217 -33c-312 0 -563 188 -647 482h-95c-18 0 -32 15 -32 32v113c0 17 14 32 32 32h66c-1 32 -1 70 1 105h-67c-18 0 -32 14 -32 32v114c0 18 14 32 32 32h98c89 280 345 466 644 466c104 0 190 -22 194 -23
c8 -2 15 -8 20 -15c4 -7 5 -16 3 -24l-43 -159c-4 -17 -21 -27 -38 -22c-1 0 -69 17 -140 17c-168 0 -309 -91 -376 -240h468c10 0 19 -4 25 -12c6 -7 9 -17 7 -26l-24 -114c-3 -15 -16 -26 -32 -26h-488c-3 -32 -2 -66 0 -105h459c10 0 19 -5 25 -12c6 -8 8 -18 6 -27
l-24 -112c-3 -15 -16 -26 -31 -26h-387c64 -156 208 -254 378 -254c87 0 158 24 159 24c8 3 18 2 26 -2c8 -5 13 -13 15 -21z" />
</svg>