<svg width="1536" height="1536" xmlns="http://www.w3.org/2000/svg">
    <path d="M976 1307l35 159c4 16-5 32-20 37-4 1-97 33-217 33-312 0-563-188-647-482H32c-18 0-32-15-32-32V909c0-17 14-32 32-32h66c-1-32-1-70 1-105H32c-18 0-32-14-32-32V626c0-18 14-32 32-32h98c89-280 345-466 644-466 104 0 190 22 194 23 8 2 15 8 20 15 4 7 5 16 3 24l-43 159c-4 17-21 27-38 22-1 0-69-17-140-17-168 0-309 91-376 240h468c10 0 19 4 25 12 6 7 9 17 7 26l-24 114c-3 15-16 26-32 26H350c-3 32-2 66 0 105h459c10 0 19 5 25 12 6 8 8 18 6 27l-24 112c-3 15-16 26-31 26H398c64 156 208 254 378 254 87 0 158-24 159-24 8-3 18-2 26 2 8 5 13 13 15 21z"/>
</svg>
