<?xml version="1.0" standalone="no"?>
<svg width="1536px" height="1536px" version="1.1" xmlns="http://www.w3.org/2000/svg">
    <path transform="scale(1, -1) translate(0, -1536)" glyph-name="exchange" unicode="&#xf0ec;" horiz-adv-x="1792" 

d="M1792 352v-192c0 -17 -15 -32 -32 -32h-1376v-192c0 -17 -14 -32 -32 -32c-9 0 -17 4 -24 10l-319 320c-6 6 -9 14 -9 22c0 9 3 17 9 23l320 320c6 6 15 9 23 9c17 0 32 -14 32 -32v-192h1376c17 0 32 -14 32 -32zM1792 896c0 -8 -3 -17 -9 -23l-320 -320
c-6 -6 -15 -9 -23 -9c-17 0 -32 15 -32 32v192h-1376c-17 0 -32 15 -32 32v192c0 17 15 32 32 32h1376v192c0 18 14 32 32 32c9 0 17 -4 24 -10l319 -319c6 -6 9 -15 9 -23z" />
</svg>