<?xml version="1.0" standalone="no"?>
<svg width="1536px" height="1536px" version="1.1" xmlns="http://www.w3.org/2000/svg">
    <path transform="scale(1, -1) translate(0, -1536)" glyph-name="exclamation_triangle" unicode="&#xf071;" horiz-adv-x="1792" 

d="M1024 161v190c0 18 -14 33 -32 33h-192c-18 0 -32 -15 -32 -33v-190c0 -18 14 -33 32 -33h192c18 0 32 15 32 33zM1022 535l18 459c0 6 -3 14 -10 19c-6 5 -15 11 -24 11h-220c-9 0 -18 -6 -24 -11c-7 -5 -10 -15 -10 -21l17 -457c0 -13 15 -23 34 -23h185
c18 0 33 10 34 23zM1008 1469l768 -1408c22 -39 21 -87 -2 -126s-65 -63 -110 -63h-1536c-45 0 -87 24 -110 63s-24 87 -2 126l768 1408c22 41 65 67 112 67s90 -26 112 -67z" />
</svg>