<?xml version="1.0" standalone="no"?>
<svg width="1536px" height="1536px" version="1.1" xmlns="http://www.w3.org/2000/svg">
    <path transform="scale(1, -1) translate(0, -1536)" glyph-name="exclamation_circle" unicode="&#xf06a;" 

d="M768 1408c424 0 768 -344 768 -768s-344 -768 -768 -768s-768 344 -768 768s344 768 768 768zM896 161v190c0 18 -14 33 -31 33h-192c-18 0 -33 -15 -33 -33v-190c0 -18 15 -33 33 -33h192c17 0 31 15 31 33zM894 505l18 621c0 7 -3 14 -10 18c-6 5 -15 8 -24 8h-220
c-9 0 -18 -3 -24 -8c-7 -4 -10 -11 -10 -18l17 -621c0 -14 15 -25 34 -25h185c18 0 33 11 34 25z" />
</svg>