<?xml version="1.0" standalone="no"?>
<svg width="1536px" height="1536px" version="1.1" xmlns="http://www.w3.org/2000/svg">
    <path transform="scale(1, -1) translate(0, -1536)" glyph-name="expand" unicode="&#xf065;" 

d="M755 480c0 -8 -4 -17 -10 -23l-332 -332l144 -144c12 -12 19 -28 19 -45c0 -35 -29 -64 -64 -64h-448c-35 0 -64 29 -64 64v448c0 35 29 64 64 64c17 0 33 -7 45 -19l144 -144l332 332c6 6 15 10 23 10s17 -4 23 -10l114 -114c6 -6 10 -15 10 -23zM1536 1344v-448
c0 -35 -29 -64 -64 -64c-17 0 -33 7 -45 19l-144 144l-332 -332c-6 -6 -15 -10 -23 -10s-17 4 -23 10l-114 114c-6 6 -10 15 -10 23s4 17 10 23l332 332l-144 144c-12 12 -19 28 -19 45c0 35 29 64 64 64h448c35 0 64 -29 64 -64z" />
</svg>