<svg width="1536" height="1536" xmlns="http://www.w3.org/2000/svg">
    <path d="M896 64C437 64 64 437 64 896s373 832 832 832 832-373 832-832S1355 64 896 64zm0-64c495 0 896 401 896 896s-401 896-896 896S0 1391 0 896 401 0 896 0zM496 832c9 0 16 7 16 16v480c0 9-7 16-16 16h-32c-9 0-16-7-16-16V848c0-9 7-16 16-16h32zm400 64c71 0 128 57 128 128 0 47-26 88-64 110v114c0 18-14 32-32 32h-64c-18 0-32-14-32-32v-114c-38-22-64-63-64-110 0-71 57-128 128-128zm0-768c424 0 768 344 768 768s-344 768-768 768-768-344-768-768 344-768 768-768zM544 608v96c0 18 14 32 32 32h64c18 0 32-14 32-32v-96c0-124 100-224 224-224s224 100 224 224v96c0 18 14 32 32 32h64c18 0 32-14 32-32v-96c0-194-158-352-352-352S544 414 544 608zm864 736V832c0-35-29-64-64-64H448c-35 0-64 29-64 64v512c0 35 29 64 64 64h896c35 0 64-29 64-64z"/>
</svg>
