<?xml version="1.0" standalone="no"?>
<svg width="1536px" height="1536px" version="1.1" xmlns="http://www.w3.org/2000/svg">
    <path transform="scale(1, -1) translate(0, -1536)" glyph-name="expeditedssl" unicode="&#xf23e;" horiz-adv-x="1792" 

d="M896 1472c-459 0 -832 -373 -832 -832s373 -832 832 -832s832 373 832 832s-373 832 -832 832zM896 1536c495 0 896 -401 896 -896s-401 -896 -896 -896s-896 401 -896 896s401 896 896 896zM496 704c9 0 16 -7 16 -16v-480c0 -9 -7 -16 -16 -16h-32c-9 0 -16 7 -16 16
v480c0 9 7 16 16 16h32zM896 640c71 0 128 -57 128 -128c0 -47 -26 -88 -64 -110v-114c0 -18 -14 -32 -32 -32h-64c-18 0 -32 14 -32 32v114c-38 22 -64 63 -64 110c0 71 57 128 128 128zM896 1408c424 0 768 -344 768 -768s-344 -768 -768 -768s-768 344 -768 768
s344 768 768 768zM544 928v-96c0 -18 14 -32 32 -32h64c18 0 32 14 32 32v96c0 124 100 224 224 224s224 -100 224 -224v-96c0 -18 14 -32 32 -32h64c18 0 32 14 32 32v96c0 194 -158 352 -352 352s-352 -158 -352 -352zM1408 192v512c0 35 -29 64 -64 64h-896
c-35 0 -64 -29 -64 -64v-512c0 -35 29 -64 64 -64h896c35 0 64 29 64 64z" />
</svg>