<svg width="1536" height="1536" xmlns="http://www.w3.org/2000/svg">
    <path d="M1408 928v320c0 159-129 288-288 288H288c-159 0-288-129-288-288V416c0-159 129-288 288-288h704c18 0 32 14 32 32v64c0 18-14 32-32 32H288c-88 0-160 72-160 160v832c0 88 72 160 160 160h832c88 0 160-72 160-160V928c0-18 14-32 32-32h64c18 0 32 14 32 32zm384-864v512c0 35-29 64-64 64-17 0-33-7-45-19l-176-176-652 652c-6 6-15 10-23 10s-17-4-23-10L695 983c-6-6-10-15-10-23s4-17 10-23l652-652-176-176c-12-12-19-28-19-45 0-35 29-64 64-64h512c35 0 64 29 64 64z"/>
</svg>
