<?xml version="1.0" standalone="no"?>
<svg width="1536px" height="1536px" version="1.1" xmlns="http://www.w3.org/2000/svg">
    <path transform="scale(1, -1) translate(0, -1536)" glyph-name="external_link" unicode="&#xf08e;" horiz-adv-x="1792" 

d="M1408 608v-320c0 -159 -129 -288 -288 -288h-832c-159 0 -288 129 -288 288v832c0 159 129 288 288 288h704c18 0 32 -14 32 -32v-64c0 -18 -14 -32 -32 -32h-704c-88 0 -160 -72 -160 -160v-832c0 -88 72 -160 160 -160h832c88 0 160 72 160 160v320c0 18 14 32 32 32
h64c18 0 32 -14 32 -32zM1792 1472v-512c0 -35 -29 -64 -64 -64c-17 0 -33 7 -45 19l-176 176l-652 -652c-6 -6 -15 -10 -23 -10s-17 4 -23 10l-114 114c-6 6 -10 15 -10 23s4 17 10 23l652 652l-176 176c-12 12 -19 28 -19 45c0 35 29 64 64 64h512c35 0 64 -29 64 -64z
" />
</svg>