<svg width="1536" height="1536" xmlns="http://www.w3.org/2000/svg">
    <path d="M555 1335l78-141c-116-84-185-219-185-362 0-79 21-157 61-225-156 80-286 206-381 353 104 161 251 296 427 375zm389-759c0-26-22-48-48-48-167 0-304 137-304 304 0 26 22 48 48 48s48-22 48-48c0-115 94-208 208-208 26 0 48-22 48-48zm363-191c0 2 0 7-1 9-211 377-420 756-631 1133l-49 89c-6 10-17 16-28 16-18 0-113-58-134-70-10-6-16-16-16-28 0-16 34-70 44-87-194-88-357-238-472-418-13-20-20-44-20-69 0-24 7-49 20-69 198-304 507-507 876-507 60 0 121 6 180 17l54-97c6-10 16-16 28-16 18 0 112 58 133 70 10 6 16 16 16 27zm37 447c0 186-115 352-288 418l280-502c5 28 8 56 8 84zm448 128c0 26-7 47-20 69-31 51-70 100-109 145-196 225-466 362-767 362l74-132c291-25 538-202 694-444-74-115-169-216-282-294l63-112c124 83 249 208 327 337 13 22 20 43 20 69z"/>
</svg>
