<?xml version="1.0" standalone="no"?>
<svg width="1536px" height="1536px" version="1.1" xmlns="http://www.w3.org/2000/svg">
    <path transform="scale(1, -1) translate(0, -1536)" glyph-name="eye_slash" unicode="&#xf070;" horiz-adv-x="1792" 

d="M555 201l78 141c-116 84 -185 219 -185 362c0 79 21 157 61 225c-156 -80 -286 -206 -381 -353c104 -161 251 -296 427 -375zM944 960c0 26 -22 48 -48 48c-167 0 -304 -137 -304 -304c0 -26 22 -48 48 -48s48 22 48 48c0 115 94 208 208 208c26 0 48 22 48 48z
M1307 1151c0 -2 0 -7 -1 -9c-211 -377 -420 -756 -631 -1133l-49 -89c-6 -10 -17 -16 -28 -16c-18 0 -113 58 -134 70c-10 6 -16 16 -16 28c0 16 34 70 44 87c-194 88 -357 238 -472 418c-13 20 -20 44 -20 69c0 24 7 49 20 69c198 304 507 507 876 507c60 0 121 -6 180 -17
l54 97c6 10 16 16 28 16c18 0 112 -58 133 -70c10 -6 16 -16 16 -27zM1344 704c0 -186 -115 -352 -288 -418l280 502c5 -28 8 -56 8 -84zM1792 576c0 -26 -7 -47 -20 -69c-31 -51 -70 -100 -109 -145c-196 -225 -466 -362 -767 -362l74 132c291 25 538 202 694 444
c-74 115 -169 216 -282 294l63 112c124 -83 249 -208 327 -337c13 -22 20 -43 20 -69z" />
</svg>