<?xml version="1.0" standalone="no"?>
<svg width="1536px" height="1536px" version="1.1" xmlns="http://www.w3.org/2000/svg">
    <path transform="scale(1, -1) translate(0, -1536)" glyph-name="eye" unicode="&#xf06e;" horiz-adv-x="1792" 

d="M1664 576c-95 147 -225 273 -381 353c40 -68 61 -146 61 -225c0 -247 -201 -448 -448 -448s-448 201 -448 448c0 79 21 157 61 225c-156 -80 -286 -206 -381 -353c171 -264 447 -448 768 -448s597 184 768 448zM944 960c0 26 -22 48 -48 48c-167 0 -304 -137 -304 -304
c0 -26 22 -48 48 -48s48 22 48 48c0 114 94 208 208 208c26 0 48 22 48 48zM1792 576c0 -25 -8 -48 -20 -69c-184 -303 -521 -507 -876 -507s-692 205 -876 507c-12 21 -20 44 -20 69s8 48 20 69c184 302 521 507 876 507s692 -205 876 -507c12 -21 20 -44 20 -69z" />
</svg>