<svg width="1536" height="1536" xmlns="http://www.w3.org/2000/svg">
    <path d="M1664 960c-95-147-225-273-381-353 40 68 61 146 61 225 0 247-201 448-448 448s-448-201-448-448c0-79 21-157 61-225-156 80-286 206-381 353 171 264 447 448 768 448s597-184 768-448zM944 576c0-26-22-48-48-48-167 0-304 137-304 304 0 26 22 48 48 48s48-22 48-48c0-114 94-208 208-208 26 0 48-22 48-48zm848 384c0 25-8 48-20 69-184 303-521 507-876 507s-692-205-876-507c-12-21-20-44-20-69s8-48 20-69c184-302 521-507 876-507s692 205 876 507c12 21 20 44 20 69z"/>
</svg>
