<?xml version="1.0" standalone="no"?>
<svg width="1536px" height="1536px" version="1.1" xmlns="http://www.w3.org/2000/svg">
    <path transform="scale(1, -1) translate(0, -1536)" glyph-name="eyedropper" unicode="&#xf1fb;" horiz-adv-x="1792" 

d="M1698 1442c125 -125 126 -328 0 -452l-225 -223l104 -104c13 -13 13 -33 0 -46l-210 -210c-13 -13 -33 -13 -46 0l-105 105l-603 -603c-24 -24 -56 -37 -90 -37h-203l-256 -128l-64 64l128 256v203c0 34 13 66 37 90l603 603l-105 105c-13 13 -13 33 0 46l210 210
c13 13 33 13 46 0l104 -104l223 225c124 126 327 125 452 0zM512 64l576 576l-192 192l-576 -576v-192h192z" />
</svg>