<svg width="1536" height="1536" xmlns="http://www.w3.org/2000/svg">
    <path d="M 288 -0.009765625 C 129 -0.009765625 1.4094708e-14 128.99023 0 287.99023 L 0 1247.9902 C -3.7895613e-14 1406.9902 129 1535.9902 288 1535.9902 L 1248 1535.9902 C 1407 1535.9902 1536 1406.9902 1536 1247.9902 L 1536 287.99023 C 1536 128.99023 1407 -0.009765625 1248 -0.009765625 L 288 -0.009765625 z M 447.98242 256.03711 L 1087.9531 256.03711 L 1087.9531 448.02734 L 639.97266 448.02734 L 639.97266 640.01953 L 1087.9531 640.01953 L 1087.9531 832.01172 L 639.97266 832.01172 L 639.97266 1088 L 1087.9531 1088 L 1087.9531 1279.9922 L 447.98242 1279.9922 L 447.98242 256.03711 z"/>
</svg>
