<svg xmlns="http://www.w3.org/2000/svg" width="1536" height="1792" viewBox="0 0 1536 1792">
    <path style="line-height:normal;font-variant-ligatures:normal;font-variant-position:normal;font-variant-caps:normal;font-variant-numeric:normal;font-variant-alternates:normal;font-feature-settings:normal;text-indent:0;text-align:start;text-decoration-line:none;text-decoration-style:solid;text-decoration-color:#000;text-transform:none;text-orientation:mixed;white-space:normal;shape-padding:0;isolation:auto;mix-blend-mode:normal;solid-color:#000;solid-opacity:1" d="M47.473 9.72a46.199 46.199 0 0 0-37.388 74.993l133.006 172.13a111.1 111.1 0 0 0-7.343 39.818v258.686c0 61.418 49.445 110.863 110.864 110.863h1182.565c61.42 0 110.865-49.445 110.865-110.863V296.661a111.1 111.1 0 0 0-7.344-39.817l133.006-172.131a46.199 46.199 0 0 0-34.087-74.955 46.199 46.199 0 0 0-4.747 0 46.199 46.199 0 0 0-34.282 18.407L1465.988 192a111.329 111.329 0 0 0-36.81-6.237H246.611A111.45 111.45 0 0 0 209.797 192L83.202 28.165A46.199 46.199 0 0 0 47.473 9.687zm434.728 314.653A124.724 124.724 0 0 1 606.925 449.1a124.724 124.724 0 0 1-124.724 124.723A124.724 124.724 0 0 1 357.477 449.1 124.724 124.724 0 0 1 482.2 324.373zm720.626 0A124.724 124.724 0 0 1 1327.55 449.1a124.724 124.724 0 0 1-124.724 124.723A124.724 124.724 0 0 1 1078.103 449.1a124.724 124.724 0 0 1 124.724-124.727zM246.612 703.167c-61.42 0-110.864 49.445-110.864 110.865v739.104c0 61.42 49.445 110.865 110.864 110.865h1182.565c61.42 0 110.865-49.445 110.865-110.865V814.032c0-61.42-49.445-110.865-110.865-110.865zm591.28 92.355c213.888 0 388.033 174.143 388.033 388.028 0 213.89-174.145 388.028-388.032 388.028-213.887 0-388.028-174.139-388.028-388.028 0-213.885 174.141-388.028 388.028-388.028zm0 70.229c-175.939 0-317.8 141.86-317.8 317.8s141.861 317.872 317.8 317.872c175.94 0 317.8-141.933 317.8-317.873s-141.86-317.8-317.8-317.8zm0 86.862c126.905 0 230.972 104.068 230.972 230.97 0 126.904-104.067 230.971-230.971 230.971-109.095 0-201.1-77.012-224.835-179.218h116.568c19.159 40.535 59.952 68.351 108.267 68.351 66.988 0 120.107-53.114 120.107-120.103 0-66.99-53.119-120.104-120.107-120.104-45.278 0-83.739 24.576-104.224 60.99H614.935c26.364-98.513 116.503-171.857 222.958-171.857z" color="#000" font-weight="400" font-family="sans-serif" overflow="visible" fill-rule="evenodd"/>
</svg>
