<?xml version="1.0" standalone="no"?>
<svg width="1536px" height="1536px" version="1.1" xmlns="http://www.w3.org/2000/svg">
    <path transform="scale(1, -1) translate(0, -1536)" glyph-name="fast_backward" unicode="&#xf049;" horiz-adv-x="1792" 

d="M1747 1395c25 25 45 16 45 -19v-1472c0 -35 -20 -44 -45 -19l-710 710c-6 6 -10 12 -13 19v-710c0 -35 -20 -44 -45 -19l-710 710c-6 6 -10 12 -13 19v-678c0 -35 -29 -64 -64 -64h-128c-35 0 -64 29 -64 64v1408c0 35 29 64 64 64h128c35 0 64 -29 64 -64v-678
c3 7 7 13 13 19l710 710c25 25 45 16 45 -19v-710c3 7 7 13 13 19z" />
</svg>