<?xml version="1.0" standalone="no"?>
<svg width="1536px" height="1536px" version="1.1" xmlns="http://www.w3.org/2000/svg">
    <path transform="scale(1, -1) translate(0, -1536)" glyph-name="fast_forward" unicode="&#xf050;" horiz-adv-x="1792" 

d="M45 -115c-25 -25 -45 -16 -45 19v1472c0 35 20 44 45 19l710 -710c6 -6 10 -12 13 -19v710c0 35 20 44 45 19l710 -710c6 -6 10 -12 13 -19v678c0 35 29 64 64 64h128c35 0 64 -29 64 -64v-1408c0 -35 -29 -64 -64 -64h-128c-35 0 -64 29 -64 64v678
c-3 -7 -7 -13 -13 -19l-710 -710c-25 -25 -45 -16 -45 19v710c-3 -7 -7 -13 -13 -19z" />
</svg>