<?xml version="1.0" standalone="no"?>
<svg width="1536px" height="1536px" version="1.1" xmlns="http://www.w3.org/2000/svg">
    <path transform="scale(1, -1) translate(0, -1536)" glyph-name="fax" unicode="&#xf1ac;" horiz-adv-x="1792" 

d="M288 1152c88 0 160 -72 160 -160v-1088c0 -88 -72 -160 -160 -160h-128c-88 0 -160 72 -160 160v1088c0 88 72 160 160 160h128zM1664 989c76 -44 128 -127 128 -221v-768c0 -141 -115 -256 -256 -256h-864c-88 0 -160 72 -160 160v1536c0 53 43 96 96 96h672
c53 0 127 -31 164 -68l152 -152c37 -37 68 -111 68 -164v-163zM928 0v128c0 18 -14 32 -32 32h-128c-18 0 -32 -14 -32 -32v-128c0 -18 14 -32 32 -32h128c18 0 32 14 32 32zM928 256v128c0 18 -14 32 -32 32h-128c-18 0 -32 -14 -32 -32v-128c0 -18 14 -32 32 -32h128
c18 0 32 14 32 32zM928 512v128c0 18 -14 32 -32 32h-128c-18 0 -32 -14 -32 -32v-128c0 -18 14 -32 32 -32h128c18 0 32 14 32 32zM1184 0v128c0 18 -14 32 -32 32h-128c-18 0 -32 -14 -32 -32v-128c0 -18 14 -32 32 -32h128c18 0 32 14 32 32zM1184 256v128
c0 18 -14 32 -32 32h-128c-18 0 -32 -14 -32 -32v-128c0 -18 14 -32 32 -32h128c18 0 32 14 32 32zM1184 512v128c0 18 -14 32 -32 32h-128c-18 0 -32 -14 -32 -32v-128c0 -18 14 -32 32 -32h128c18 0 32 14 32 32zM1440 0v128c0 18 -14 32 -32 32h-128
c-18 0 -32 -14 -32 -32v-128c0 -18 14 -32 32 -32h128c18 0 32 14 32 32zM1440 256v128c0 18 -14 32 -32 32h-128c-18 0 -32 -14 -32 -32v-128c0 -18 14 -32 32 -32h128c18 0 32 14 32 32zM1440 512v128c0 18 -14 32 -32 32h-128c-18 0 -32 -14 -32 -32v-128
c0 -18 14 -32 32 -32h128c18 0 32 14 32 32zM1536 896v256h-160c-53 0 -96 43 -96 96v160h-640v-512h896z" />
</svg>