<svg width="1536" height="1536" xmlns="http://www.w3.org/2000/svg">
    <path d="M288 384c88 0 160 72 160 160v1088c0 88-72 160-160 160H160c-88 0-160-72-160-160V544c0-88 72-160 160-160h128zm1376 163c76 44 128 127 128 221v768c0 141-115 256-256 256H672c-88 0-160-72-160-160V96c0-53 43-96 96-96h672c53 0 127 31 164 68l152 152c37 37 68 111 68 164v163zm-736 989v-128c0-18-14-32-32-32H768c-18 0-32 14-32 32v128c0 18 14 32 32 32h128c18 0 32-14 32-32zm0-256v-128c0-18-14-32-32-32H768c-18 0-32 14-32 32v128c0 18 14 32 32 32h128c18 0 32-14 32-32zm0-256V896c0-18-14-32-32-32H768c-18 0-32 14-32 32v128c0 18 14 32 32 32h128c18 0 32-14 32-32zm256 512v-128c0-18-14-32-32-32h-128c-18 0-32 14-32 32v128c0 18 14 32 32 32h128c18 0 32-14 32-32zm0-256v-128c0-18-14-32-32-32h-128c-18 0-32 14-32 32v128c0 18 14 32 32 32h128c18 0 32-14 32-32zm0-256V896c0-18-14-32-32-32h-128c-18 0-32 14-32 32v128c0 18 14 32 32 32h128c18 0 32-14 32-32zm256 512v-128c0-18-14-32-32-32h-128c-18 0-32 14-32 32v128c0 18 14 32 32 32h128c18 0 32-14 32-32zm0-256v-128c0-18-14-32-32-32h-128c-18 0-32 14-32 32v128c0 18 14 32 32 32h128c18 0 32-14 32-32zm0-256V896c0-18-14-32-32-32h-128c-18 0-32 14-32 32v128c0 18 14 32 32 32h128c18 0 32-14 32-32zm96-384V384h-160c-53 0-96-43-96-96V128H640v512h896z"/>
</svg>
