<svg width="1536" height="1536" xmlns="http://www.w3.org/2000/svg">
    <path d="M1280 1056c0 53-43 96-96 96-32 0-62-16-80-43L877 768h-45v132l247 411c6 10 9 21 9 33 0 35-29 64-64 64H832v272c0 62-50 112-112 112H560c-61 0-112-50-112-112v-272H256c-35 0-64-29-64-64 0-12 3-23 9-33l247-411V768h-45l-227 341c-18 27-48 43-80 43-53 0-96-43-96-96 0-19 6-38 16-53l256-384c40-59 102-107 176-107h384c74 0 136 48 176 107l256 384c10 15 16 34 16 53zM864 256c0 124-100 224-224 224S416 380 416 256 516 32 640 32s224 100 224 224z"/>
</svg>
