<?xml version="1.0" standalone="no"?>
<svg width="1536px" height="1536px" version="1.1" xmlns="http://www.w3.org/2000/svg">
    <path transform="scale(1, -1) translate(0, -1536)" glyph-name="female" unicode="&#xf182;" horiz-adv-x="1280" 

d="M1280 480c0 -53 -43 -96 -96 -96c-32 0 -62 16 -80 43l-227 341h-45v-132l247 -411c6 -10 9 -21 9 -33c0 -35 -29 -64 -64 -64h-192v-272c0 -62 -50 -112 -112 -112h-160c-61 0 -112 50 -112 112v272h-192c-35 0 -64 29 -64 64c0 12 3 23 9 33l247 411v132h-45l-227 -341
c-18 -27 -48 -43 -80 -43c-53 0 -96 43 -96 96c0 19 6 38 16 53l256 384c40 59 102 107 176 107h384c74 0 136 -48 176 -107l256 -384c10 -15 16 -34 16 -53zM864 1280c0 -124 -100 -224 -224 -224s-224 100 -224 224s100 224 224 224s224 -100 224 -224z" />
</svg>