<svg width="1536" height="1536" xmlns="http://www.w3.org/2000/svg">
    <path d="M640 384V256H512v128h128zm128 128V384H640v128h128zM640 640V512H512v128h128zm128 128V640H640v128h128zm700-388c37 37 68 111 68 164v1152c0 53-43 96-96 96H96c-53 0-96-43-96-96V96C0 43 43 0 96 0h896c53 0 127 31 164 68zm-444-244v376h376c-6-17-15-34-22-41l-313-313c-7-7-24-16-41-22zm384 1528V640H992c-53 0-96-43-96-96V128H768v128H640V128H128v1536h1280zM781 943c85 287 107 349 107 349 5 17 8 34 8 52 0 111-108 192-256 192s-256-81-256-192c0-18 3-35 8-52 0 0 21-62 120-396V768h128v128h79c29 0 54 19 62 47zm-141 465c71 0 128-29 128-64s-57-64-128-64-128 29-128 64 57 64 128 64z"/>
</svg>
