<?xml version="1.0" standalone="no"?>
<svg width="1536px" height="1536px" version="1.1" xmlns="http://www.w3.org/2000/svg">
    <path transform="scale(1, -1) translate(0, -1536)" glyph-name="file_excel_o" unicode="&#xf1c3;" 

d="M1468 1156c37 -37 68 -111 68 -164v-1152c0 -53 -43 -96 -96 -96h-1344c-53 0 -96 43 -96 96v1600c0 53 43 96 96 96h896c53 0 127 -31 164 -68zM1024 1400v-376h376c-6 17 -15 34 -22 41l-313 313c-7 7 -24 16 -41 22zM1408 -128v1024h-416c-53 0 -96 43 -96 96v416
h-768v-1536h1280zM429 106v-106h281v106h-75l103 161c12 19 18 34 21 34h2c1 -4 3 -7 5 -10c4 -8 10 -14 17 -24l107 -161h-76v-106h291v106h-68l-192 273l195 282h67v107h-279v-107h74l-103 -159c-12 -19 -21 -34 -21 -33h-2c-1 4 -3 7 -5 10c-4 7 -9 14 -17 23l-106 159
h76v107h-290v-107h68l189 -272l-194 -283h-68z" />
</svg>