<svg width="1536" height="1536" xmlns="http://www.w3.org/2000/svg">
    <path d="M1468 380c37 37 68 111 68 164v1152c0 53-43 96-96 96H96c-53 0-96-43-96-96V96C0 43 43 0 96 0h896c53 0 127 31 164 68zm-444-244v376h376c-6-17-15-34-22-41l-313-313c-7-7-24-16-41-22zm384 1528V640H992c-53 0-96-43-96-96V128H128v1536h1280zm-992-234v106h327v-106h-93v-167h137c43 0 82-2 118-15 90-31 146-124 146-233s-54-193-137-228c-38-15-84-19-130-19H416v107h92v555h-92zm353-280H650V882h120c35 0 62 6 83 18 36 21 56 62 56 115 0 56-20 99-62 120-21 10-47 15-78 15z"/>
</svg>
