<?xml version="1.0" standalone="no"?>
<svg width="1536px" height="1536px" version="1.1" xmlns="http://www.w3.org/2000/svg">
    <path transform="scale(1, -1) translate(0, -1536)" glyph-name="file_text_o" unicode="&#xf0f6;" 

d="M1468 1156c37 -37 68 -111 68 -164v-1152c0 -53 -43 -96 -96 -96h-1344c-53 0 -96 43 -96 96v1600c0 53 43 96 96 96h896c53 0 127 -31 164 -68zM1024 1400v-376h376c-6 17 -15 34 -22 41l-313 313c-7 7 -24 16 -41 22zM1408 -128v1024h-416c-53 0 -96 43 -96 96v416
h-768v-1536h1280zM384 736c0 18 14 32 32 32h704c18 0 32 -14 32 -32v-64c0 -18 -14 -32 -32 -32h-704c-18 0 -32 14 -32 32v64zM1120 512c18 0 32 -14 32 -32v-64c0 -18 -14 -32 -32 -32h-704c-18 0 -32 14 -32 32v64c0 18 14 32 32 32h704zM1120 256c18 0 32 -14 32 -32
v-64c0 -18 -14 -32 -32 -32h-704c-18 0 -32 14 -32 32v64c0 18 14 32 32 32h704z" />
</svg>