<?xml version="1.0" standalone="no"?>
<svg width="1536px" height="1536px" version="1.1" xmlns="http://www.w3.org/2000/svg">
    <path transform="scale(1, -1) translate(0, -1536)" glyph-name="file_video_o" unicode="&#xf1c8;" 

d="M1468 1156c37 -37 68 -111 68 -164v-1152c0 -53 -43 -96 -96 -96h-1344c-53 0 -96 43 -96 96v1600c0 53 43 96 96 96h896c53 0 127 -31 164 -68zM1024 1400v-376h376c-6 17 -15 34 -22 41l-313 313c-7 7 -24 16 -41 22zM1408 -128v1024h-416c-53 0 -96 43 -96 96v416
h-768v-1536h1280zM768 768c70 0 128 -58 128 -128v-384c0 -70 -58 -128 -128 -128h-384c-70 0 -128 58 -128 128v384c0 70 58 128 128 128h384zM1260 766c12 -5 20 -17 20 -30v-576c0 -13 -8 -25 -20 -30c-4 -1 -8 -2 -12 -2c-8 0 -17 3 -23 9l-265 266v90l265 266
c6 6 15 9 23 9c4 0 8 -1 12 -2z" />
</svg>