<?xml version="1.0" standalone="no"?>
<svg width="1536px" height="1536px" version="1.1" xmlns="http://www.w3.org/2000/svg">
    <path transform="scale(1, -1) translate(0, -1536)" glyph-name="file_archive_o" unicode="&#xf1c6;" 

d="M640 1152v128h-128v-128h128zM768 1024v128h-128v-128h128zM640 896v128h-128v-128h128zM768 768v128h-128v-128h128zM1468 1156c37 -37 68 -111 68 -164v-1152c0 -53 -43 -96 -96 -96h-1344c-53 0 -96 43 -96 96v1600c0 53 43 96 96 96h896c53 0 127 -31 164 -68z
M1024 1400v-376h376c-6 17 -15 34 -22 41l-313 313c-7 7 -24 16 -41 22zM1408 -128v1024h-416c-53 0 -96 43 -96 96v416h-128v-128h-128v128h-512v-1536h1280zM781 593c85 -287 107 -349 107 -349c5 -17 8 -34 8 -52c0 -111 -108 -192 -256 -192s-256 81 -256 192
c0 18 3 35 8 52c0 0 21 62 120 396v128h128v-128h79c29 0 54 -19 62 -47zM640 128c71 0 128 29 128 64s-57 64 -128 64s-128 -29 -128 -64s57 -64 128 -64z" />
</svg>