<svg width="1536" height="1536" xmlns="http://www.w3.org/2000/svg">
    <path d="M1468 380c37 37 68 111 68 164v1152c0 53-43 96-96 96H96c-53 0-96-43-96-96V96C0 43 43 0 96 0h896c53 0 127 31 164 68zm-444-244v376h376c-6-17-15-34-22-41l-313-313c-7-7-24-16-41-22zm384 1528V640H992c-53 0-96-43-96-96V128H128v1536h1280zM768 768c70 0 128 58 128 128v384c0 70-58 128-128 128H384c-70 0-128-58-128-128V896c0-70 58-128 128-128h384zm492 2c12 5 20 17 20 30v576c0 13-8 25-20 30-4 1-8 2-12 2-8 0-17-3-23-9l-265-266v-90l265-266c6-6 15-9 23-9 4 0 8 1 12 2z"/>
</svg>
