<svg width="1536" height="1536" xmlns="http://www.w3.org/2000/svg">
    <path d="M1468 476c10 10 19 22 28 36h-472V40c14 9 26 18 36 28zM992 640h544v1056c0 53-43 96-96 96H96c-53 0-96-43-96-96V96C0 43 43 0 96 0h800v544c0 53 43 96 96 96zm160 736v-64c0-18-14-32-32-32H416c-18 0-32 14-32 32v64c0 18 14 32 32 32h704c18 0 32-14 32-32zm0-256v-64c0-18-14-32-32-32H416c-18 0-32 14-32 32v64c0 18 14 32 32 32h704c18 0 32-14 32-32zm0-256v-64c0-18-14-32-32-32H416c-18 0-32 14-32 32v64c0 18 14 32 32 32h704c18 0 32-14 32-32z"/>
</svg>
