<?xml version="1.0" standalone="no"?>
<svg width="1536px" height="1536px" version="1.1" xmlns="http://www.w3.org/2000/svg">
    <path transform="scale(1, -1) translate(0, -1536)" glyph-name="file_code_o" unicode="&#xf1c9;" 

d="M1468 1156c37 -37 68 -111 68 -164v-1152c0 -53 -43 -96 -96 -96h-1344c-53 0 -96 43 -96 96v1600c0 53 43 96 96 96h896c53 0 127 -31 164 -68zM1024 1400v-376h376c-6 17 -15 34 -22 41l-313 313c-7 7 -24 16 -41 22zM1408 -128v1024h-416c-53 0 -96 43 -96 96v416
h-768v-1536h1280zM480 768c11 14 31 17 45 6l51 -38c14 -11 17 -31 6 -45l-182 -243l182 -243c11 -14 8 -34 -6 -45l-51 -38c-14 -11 -34 -8 -45 6l-226 301c-8 11 -8 27 0 38zM1282 467c8 -11 8 -27 0 -38l-226 -301c-11 -14 -31 -17 -45 -6l-51 38c-14 11 -17 31 -6 45
l182 243l-182 243c-11 14 -8 34 6 45l51 38c14 11 34 8 45 -6zM662 6c-18 3 -29 20 -26 37l138 831c3 18 20 29 37 26l63 -10c18 -3 29 -20 26 -37l-138 -831c-3 -18 -20 -29 -37 -26z" />
</svg>