<?xml version="1.0" standalone="no"?>
<svg width="1536px" height="1536px" version="1.1" xmlns="http://www.w3.org/2000/svg">
    <path transform="scale(1, -1) translate(0, -1536)" glyph-name="file_pdf_o" unicode="&#xf1c1;" 

d="M1468 1156c37 -37 68 -111 68 -164v-1152c0 -53 -43 -96 -96 -96h-1344c-53 0 -96 43 -96 96v1600c0 53 43 96 96 96h896c53 0 127 -31 164 -68zM1024 1400v-376h376c-6 17 -15 34 -22 41l-313 313c-7 7 -24 16 -41 22zM1408 -128v1024h-416c-53 0 -96 43 -96 96v416
h-768v-1536h1280zM894 465c25 -20 53 -38 84 -56c42 5 81 7 117 7c67 0 152 -8 177 -49c7 -10 13 -28 2 -52c-1 -1 -2 -3 -3 -4v-1c-3 -18 -18 -38 -71 -38c-64 0 -161 29 -245 73c-139 -15 -285 -46 -392 -83c-103 -176 -182 -262 -242 -262c-10 0 -19 2 -28 7l-24 12
c-3 1 -4 3 -6 5c-5 5 -9 16 -6 36c10 46 64 123 188 188c8 5 18 2 23 -6c1 -1 2 -3 2 -4c31 51 67 116 107 197c45 90 80 178 104 262c-32 109 -42 221 -24 287c7 25 22 40 42 40h21h1c15 0 27 -5 35 -15c12 -14 15 -36 9 -68c-1 -3 -2 -6 -4 -8c1 -3 1 -5 1 -8v-30
c-1 -63 -2 -123 -14 -192c35 -105 87 -190 146 -238zM318 54c30 14 73 57 137 158c-75 -58 -122 -124 -137 -158zM716 974c-10 -28 -10 -76 -2 -132c3 16 5 31 7 44c2 17 5 31 7 43c1 3 2 5 4 8c-1 1 -1 3 -2 5c-1 18 -7 29 -13 36c0 -2 -1 -3 -1 -4zM592 313
c88 35 186 63 284 81c-10 8 -20 15 -29 23c-49 43 -93 103 -127 176c-19 -61 -47 -126 -83 -197c-15 -28 -30 -56 -45 -83zM1238 329c-5 5 -31 24 -140 24c49 -18 94 -28 124 -28c9 0 14 0 18 1c0 1 -1 2 -2 3z" />
</svg>