<?xml version="1.0" standalone="no"?>
<svg width="1536px" height="1536px" version="1.1" xmlns="http://www.w3.org/2000/svg">
    <path transform="scale(1, -1) translate(0, -1536)" glyph-name="file_text" unicode="&#xf15c;" 

d="M1468 1060c10 -10 19 -22 28 -36h-472v472c14 -9 26 -18 36 -28zM992 896h544v-1056c0 -53 -43 -96 -96 -96h-1344c-53 0 -96 43 -96 96v1600c0 53 43 96 96 96h800v-544c0 -53 43 -96 96 -96zM1152 160v64c0 18 -14 32 -32 32h-704c-18 0 -32 -14 -32 -32v-64
c0 -18 14 -32 32 -32h704c18 0 32 14 32 32zM1152 416v64c0 18 -14 32 -32 32h-704c-18 0 -32 -14 -32 -32v-64c0 -18 14 -32 32 -32h704c18 0 32 14 32 32zM1152 672v64c0 18 -14 32 -32 32h-704c-18 0 -32 -14 -32 -32v-64c0 -18 14 -32 32 -32h704c18 0 32 14 32 32z" />
</svg>