<?xml version="1.0" standalone="no"?>
<svg width="1536px" height="1536px" version="1.1" xmlns="http://www.w3.org/2000/svg">
    <path transform="scale(1, -1) translate(0, -1536)" glyph-name="file_audio_o" unicode="&#xf1c7;" 

d="M1468 1156c37 -37 68 -111 68 -164v-1152c0 -53 -43 -96 -96 -96h-1344c-53 0 -96 43 -96 96v1600c0 53 43 96 96 96h896c53 0 127 -31 164 -68zM1024 1400v-376h376c-6 17 -15 34 -22 41l-313 313c-7 7 -24 16 -41 22zM1408 -128v1024h-416c-53 0 -96 43 -96 96v416
h-768v-1536h1280zM620 686c12 -5 20 -17 20 -30v-544c0 -13 -8 -25 -20 -30c-4 -1 -8 -2 -12 -2c-8 0 -16 3 -23 9l-166 167h-131c-18 0 -32 14 -32 32v192c0 18 14 32 32 32h131l166 167c10 9 23 12 35 7zM1037 -3c19 0 37 8 50 24c83 102 129 231 129 363
s-46 261 -129 363c-22 28 -63 32 -90 10c-28 -23 -32 -63 -9 -91c65 -80 100 -178 100 -282s-35 -202 -100 -282c-23 -28 -19 -68 9 -90c12 -10 26 -15 40 -15zM826 145c17 0 34 7 47 20c56 60 87 137 87 219s-31 159 -87 219c-24 26 -65 27 -91 3c-25 -24 -27 -65 -2 -91
c33 -36 52 -82 52 -131s-19 -95 -52 -131c-25 -26 -23 -67 2 -91c13 -11 29 -17 44 -17z" />
</svg>