<?xml version="1.0" standalone="no"?>
<svg width="1536px" height="1536px" version="1.1" xmlns="http://www.w3.org/2000/svg">
    <path transform="scale(1, -1) translate(0, -1536)" glyph-name="file_word_o" unicode="&#xf1c2;" 

d="M1468 1156c37 -37 68 -111 68 -164v-1152c0 -53 -43 -96 -96 -96h-1344c-53 0 -96 43 -96 96v1600c0 53 43 96 96 96h896c53 0 127 -31 164 -68zM1024 1400v-376h376c-6 17 -15 34 -22 41l-313 313c-7 7 -24 16 -41 22zM1408 -128v1024h-416c-53 0 -96 43 -96 96v416
h-768v-1536h1280zM233 768v-107h70l164 -661h159l128 485c5 15 8 30 10 46c1 8 2 16 2 24h4l3 -24c3 -14 4 -30 9 -46l128 -485h159l164 661h70v107h-300v-107h90l-99 -438c-4 -16 -6 -33 -7 -46l-2 -21h-4c0 6 -2 14 -3 21c-3 13 -5 30 -9 46l-144 545h-114l-144 -545
c-4 -16 -5 -33 -8 -46l-4 -21h-4l-2 21c-1 13 -3 30 -7 46l-99 438h90v107h-300z" />
</svg>