<svg width="1536" height="1536" xmlns="http://www.w3.org/2000/svg">
    <path d="M1468 380c37 37 68 111 68 164v1152c0 53-43 96-96 96H96c-53 0-96-43-96-96V96C0 43 43 0 96 0h896c53 0 127 31 164 68zm-444-244v376h376c-6-17-15-34-22-41l-313-313c-7-7-24-16-41-22zm384 1528V640H992c-53 0-96-43-96-96V128H128v1536h1280zM233 768v107h70l164 661h159l128-485c5-15 8-30 10-46 1-8 2-16 2-24h4l3 24c3 14 4 30 9 46l128 485h159l164-661h70V768h-300v107h90l-99 438c-4 16-6 33-7 46l-2 21h-4c0-6-2-14-3-21-3-13-5-30-9-46L825 768H711l-144 545c-4 16-5 33-8 46l-4 21h-4l-2-21c-1-13-3-30-7-46l-99-438h90V768H233z"/>
</svg>
