<?xml version="1.0" standalone="no"?>
<svg width="1536px" height="1536px" version="1.1" xmlns="http://www.w3.org/2000/svg">
    <path transform="scale(1, -1) translate(0, -1536)" glyph-name="file_image_o" unicode="&#xf1c5;" 

d="M1468 1156c37 -37 68 -111 68 -164v-1152c0 -53 -43 -96 -96 -96h-1344c-53 0 -96 43 -96 96v1600c0 53 43 96 96 96h896c53 0 127 -31 164 -68zM1024 1400v-376h376c-6 17 -15 34 -22 41l-313 313c-7 7 -24 16 -41 22zM1408 -128v1024h-416c-53 0 -96 43 -96 96v416
h-768v-1536h1280zM1280 320v-320h-1024v192l192 192l128 -128l384 384zM448 512c-106 0 -192 86 -192 192s86 192 192 192s192 -86 192 -192s-86 -192 -192 -192z" />
</svg>