<svg width="1536" height="1536" xmlns="http://www.w3.org/2000/svg">
    <path d="M1468 380c37 37 68 111 68 164v1152c0 53-43 96-96 96H96c-53 0-96-43-96-96V96C0 43 43 0 96 0h896c53 0 127 31 164 68zm-444-244v376h376c-6-17-15-34-22-41l-313-313c-7-7-24-16-41-22zm384 1528V640H992c-53 0-96-43-96-96V128H128v1536h1280zm-979-234v106h281v-106h-75l103-161c12-19 18-34 21-34h2c1 4 3 7 5 10 4 8 10 14 17 24l107 161h-76v106h291v-106h-68l-192-273 195-282h67V768H828v107h74l-103 159c-12 19-21 34-21 33h-2c-1-4-3-7-5-10-4-7-9-14-17-23L648 875h76V768H434v107h68l189 272-194 283h-68z"/>
</svg>
