<svg width="1536" height="1536" xmlns="http://www.w3.org/2000/svg">
    <path d="M1468 380c37 37 68 111 68 164v1152c0 53-43 96-96 96H96c-53 0-96-43-96-96V96C0 43 43 0 96 0h896c53 0 127 31 164 68zm-444-244v376h376c-6-17-15-34-22-41l-313-313c-7-7-24-16-41-22zm384 1528V640H992c-53 0-96-43-96-96V128H128v1536h1280zM620 850c12 5 20 17 20 30v544c0 13-8 25-20 30-4 1-8 2-12 2-8 0-16-3-23-9l-166-167H288c-18 0-32-14-32-32v-192c0-18 14-32 32-32h131l166-167c10-9 23-12 35-7zm417 689c19 0 37-8 50-24 83-102 129-231 129-363s-46-261-129-363c-22-28-63-32-90-10-28 23-32 63-9 91 65 80 100 178 100 282s-35 202-100 282c-23 28-19 68 9 90 12 10 26 15 40 15zm-211-148c17 0 34-7 47-20 56-60 87-137 87-219s-31-159-87-219c-24-26-65-27-91-3-25 24-27 65-2 91 33 36 52 82 52 131s-19 95-52 131c-25 26-23 67 2 91 13 11 29 17 44 17z"/>
</svg>
