<?xml version="1.0" standalone="no"?>
<svg width="1536px" height="1536px" version="1.1" xmlns="http://www.w3.org/2000/svg">
    <path transform="scale(1, -1) translate(0, -1536)" glyph-name="file_powerpoint_o" unicode="&#xf1c4;" 

d="M1468 1156c37 -37 68 -111 68 -164v-1152c0 -53 -43 -96 -96 -96h-1344c-53 0 -96 43 -96 96v1600c0 53 43 96 96 96h896c53 0 127 -31 164 -68zM1024 1400v-376h376c-6 17 -15 34 -22 41l-313 313c-7 7 -24 16 -41 22zM1408 -128v1024h-416c-53 0 -96 43 -96 96v416
h-768v-1536h1280zM416 106v-106h327v106h-93v167h137c43 0 82 2 118 15c90 31 146 124 146 233s-54 193 -137 228c-38 15 -84 19 -130 19h-368v-107h92v-555h-92zM769 386h-119v268h120c35 0 62 -6 83 -18c36 -21 56 -62 56 -115c0 -56 -20 -99 -62 -120
c-21 -10 -47 -15 -78 -15z" />
</svg>