<?xml version="1.0" standalone="no"?>
<svg width="1536px" height="1536px" version="1.1" xmlns="http://www.w3.org/2000/svg">
    <path transform="scale(1, -1) translate(0, -1536)" glyph-name="files_o" unicode="&#xf0c5;" horiz-adv-x="1792" 

d="M1696 1152c53 0 96 -43 96 -96v-1216c0 -53 -43 -96 -96 -96h-960c-53 0 -96 43 -96 96v288h-544c-53 0 -96 43 -96 96v672c0 53 31 127 68 164l408 408c37 37 111 68 164 68h416c53 0 96 -43 96 -96v-328c39 23 89 40 128 40h416zM1152 939l-299 -299h299v299zM512 1323
l-299 -299h299v299zM708 676l316 316v416h-384v-416c0 -53 -43 -96 -96 -96h-416v-640h512v256c0 53 31 127 68 164zM1664 -128v1152h-384v-416c0 -53 -43 -96 -96 -96h-416v-640h896z" />
</svg>