<?xml version="1.0" standalone="no"?>
<svg width="1536px" height="1536px" version="1.1" xmlns="http://www.w3.org/2000/svg">
    <path transform="scale(1, -1) translate(0, -1536)" glyph-name="film" unicode="&#xf008;" horiz-adv-x="1920" 

d="M384 -64v128c0 35 -29 64 -64 64h-128c-35 0 -64 -29 -64 -64v-128c0 -35 29 -64 64 -64h128c35 0 64 29 64 64zM384 320v128c0 35 -29 64 -64 64h-128c-35 0 -64 -29 -64 -64v-128c0 -35 29 -64 64 -64h128c35 0 64 29 64 64zM384 704v128c0 35 -29 64 -64 64h-128
c-35 0 -64 -29 -64 -64v-128c0 -35 29 -64 64 -64h128c35 0 64 29 64 64zM1408 -64v512c0 35 -29 64 -64 64h-768c-35 0 -64 -29 -64 -64v-512c0 -35 29 -64 64 -64h768c35 0 64 29 64 64zM384 1088v128c0 35 -29 64 -64 64h-128c-35 0 -64 -29 -64 -64v-128
c0 -35 29 -64 64 -64h128c35 0 64 29 64 64zM1792 -64v128c0 35 -29 64 -64 64h-128c-35 0 -64 -29 -64 -64v-128c0 -35 29 -64 64 -64h128c35 0 64 29 64 64zM1408 704v512c0 35 -29 64 -64 64h-768c-35 0 -64 -29 -64 -64v-512c0 -35 29 -64 64 -64h768c35 0 64 29 64 64z
M1792 320v128c0 35 -29 64 -64 64h-128c-35 0 -64 -29 -64 -64v-128c0 -35 29 -64 64 -64h128c35 0 64 29 64 64zM1792 704v128c0 35 -29 64 -64 64h-128c-35 0 -64 -29 -64 -64v-128c0 -35 29 -64 64 -64h128c35 0 64 29 64 64zM1792 1088v128c0 35 -29 64 -64 64h-128
c-35 0 -64 -29 -64 -64v-128c0 -35 29 -64 64 -64h128c35 0 64 29 64 64zM1920 1248v-1344c0 -88 -72 -160 -160 -160h-1600c-88 0 -160 72 -160 160v1344c0 88 72 160 160 160h1600c88 0 160 -72 160 -160z" />
</svg>