<svg width="1536" height="1536" xmlns="http://www.w3.org/2000/svg">
    <path d="M384 1600v-128c0-35-29-64-64-64H192c-35 0-64 29-64 64v128c0 35 29 64 64 64h128c35 0 64-29 64-64zm0-384v-128c0-35-29-64-64-64H192c-35 0-64 29-64 64v128c0 35 29 64 64 64h128c35 0 64-29 64-64zm0-384V704c0-35-29-64-64-64H192c-35 0-64 29-64 64v128c0 35 29 64 64 64h128c35 0 64-29 64-64zm1024 768v-512c0-35-29-64-64-64H576c-35 0-64 29-64 64v512c0 35 29 64 64 64h768c35 0 64-29 64-64zM384 448V320c0-35-29-64-64-64H192c-35 0-64 29-64 64v128c0 35 29 64 64 64h128c35 0 64-29 64-64zm1408 1152v-128c0-35-29-64-64-64h-128c-35 0-64 29-64 64v128c0 35 29 64 64 64h128c35 0 64-29 64-64zm-384-768V320c0-35-29-64-64-64H576c-35 0-64 29-64 64v512c0 35 29 64 64 64h768c35 0 64-29 64-64zm384 384v-128c0-35-29-64-64-64h-128c-35 0-64 29-64 64v128c0 35 29 64 64 64h128c35 0 64-29 64-64zm0-384V704c0-35-29-64-64-64h-128c-35 0-64 29-64 64v128c0 35 29 64 64 64h128c35 0 64-29 64-64zm0-384V320c0-35-29-64-64-64h-128c-35 0-64 29-64 64v128c0 35 29 64 64 64h128c35 0 64-29 64-64zm128-160v1344c0 88-72 160-160 160H160c-88 0-160-72-160-160V288c0-88 72-160 160-160h1600c88 0 160 72 160 160z"/>
</svg>
