<?xml version="1.0" standalone="no"?>
<svg width="1536px" height="1536px" version="1.1" xmlns="http://www.w3.org/2000/svg">
    <path transform="scale(1, -1) translate(0, -1536)" glyph-name="fire_extinguisher" unicode="&#xf134;" horiz-adv-x="1408" 

d="M512 1344c0 35 -29 64 -64 64s-64 -29 -64 -64s29 -64 64 -64s64 29 64 64zM1408 1376v-320c0 -10 -4 -19 -12 -25c-6 -5 -13 -7 -20 -7c-2 0 -4 0 -7 1l-448 96c-14 3 -25 16 -25 31h-256v-102c146 -30 256 -159 256 -314v-800c0 -35 -29 -64 -64 -64h-512
c-35 0 -64 29 -64 64v800c0 143 94 265 224 305v111h-32c-212 0 -326 -219 -327 -221c-11 -22 -34 -35 -57 -35c-10 0 -20 2 -29 7c-31 16 -44 54 -28 86c5 10 105 204 306 269c-15 25 -25 54 -25 86c0 88 72 160 160 160s160 -72 160 -160c0 -23 -5 -44 -14 -64h302
c0 15 11 28 25 31l448 96c3 1 5 1 7 1c7 0 14 -2 20 -7c8 -6 12 -15 12 -25z" />
</svg>