<?xml version="1.0" standalone="no"?>
<svg width="1536px" height="1536px" version="1.1" xmlns="http://www.w3.org/2000/svg">
    <path transform="scale(1, -1) translate(0, -1536)" glyph-name="firefox" unicode="&#xf269;" horiz-adv-x="1792" 

d="M903 -256c-386 0 -693 226 -834 549c-158 359 -32 934 249 1188l-11 -281c14 18 121 23 138 0c58 111 245 194 395 197c-57 -48 -189 -223 -178 -312c73 -23 185 -24 244 -28c18 -10 15 -71 -21 -121c0 0 -47 -65 -174 -88l15 -189l-139 67c-45 -114 63 -215 175 -196
c124 21 168 102 255 97c86 -5 120 -53 109 -98c0 0 -14 -54 -107 -45c-79 -125 -184 -180 -354 -165c258 -214 606 -20 694 155c88 174 11 433 -77 506c104 -45 176 -91 214 -192c20 224 -83 478 -267 627c346 -101 557 -369 563 -797s-379 -874 -889 -874z" />
</svg>