<svg width="1536" height="1536" xmlns="http://www.w3.org/2000/svg">
    <path d="M512 192c0-35-29-64-64-64s-64 29-64 64 29 64 64 64 64-29 64-64zm896-32v320c0 10-4 19-12 25-6 5-13 7-20 7-2 0-4 0-7-1l-448-96c-14-3-25-16-25-31H640v102c146 30 256 159 256 314v800c0 35-29 64-64 64H320c-35 0-64-29-64-64V800c0-143 94-265 224-305V384h-32c-212 0-326 219-327 221-11 22-34 35-57 35-10 0-20-2-29-7-31-16-44-54-28-86 5-10 105-204 306-269-15-25-25-54-25-86 0-88 72-160 160-160s160 72 160 160c0 23-5 44-14 64h302c0-15 11-28 25-31l448-96c3-1 5-1 7-1 7 0 14 2 20 7 8 6 12 15 12 25z"/>
</svg>
