<svg width="1536" height="1536" xmlns="http://www.w3.org/2000/svg">
    <path d="M903 1792c-386 0-693-226-834-549C-89 884 37 309 318 55l-11 281c14-18 121-23 138 0 58-111 245-194 395-197-57 48-189 223-178 312 73 23 185 24 244 28 18 10 15 71-21 121 0 0-47 65-174 88l15 189-139-67c-45 114 63 215 175 196 124-21 168-102 255-97 86 5 120 53 109 98 0 0-14 54-107 45-79 125-184 180-354 165 258 214 606 20 694-155 88-174 11-433-77-506 104 45 176 91 214 192 20-224-83-478-267-627 346 101 557 369 563 797s-379 874-889 874z"/>
</svg>
