<?xml version="1.0" standalone="no"?>
<svg width="1536px" height="1536px" version="1.1" xmlns="http://www.w3.org/2000/svg">
    <path transform="scale(1, -1) translate(0, -1536)" glyph-name="first_order" unicode="&#xf2b0;" 

d="M1322 640c0 -26 -1 -51 -5 -76l-236 14l224 -78v0c-13 -51 -33 -98 -58 -141l-214 103l177 -158c-30 -41 -66 -77 -107 -108l-157 178l103 -215c-43 -26 -90 -45 -140 -59l-79 228l14 -240c-25 -4 -50 -6 -76 -6c-25 0 -51 2 -76 6l14 238l-78 -226
c-50 13 -97 33 -140 59l103 215l-157 -178c-41 30 -77 67 -108 108l178 158l-214 -104c-25 44 -45 91 -58 141l224 79l-237 -14c-3 25 -5 50 -5 76s2 52 5 77l238 -14l-225 79c13 50 33 97 58 140l214 -104l-177 159c31 41 67 77 107 108l158 -178l-103 215
c43 25 90 45 140 58l77 -224l-13 236c24 4 50 6 75 6c26 0 51 -2 76 -6l-14 -237l78 225c50 -13 97 -33 140 -59l-103 -214l158 178c40 -31 76 -67 107 -108l-177 -159l213 104c26 -43 45 -91 58 -141l-224 -78l237 14c4 -25 5 -51 5 -77zM1352 640c0 325 -262 588 -584 588
c-323 0 -584 -263 -584 -588c0 -324 261 -587 584 -587c322 0 584 263 584 587zM1425 1023v-766l-657 -383l-657 383v766l657 383zM768 -183l708 412v823l-708 411l-708 -411v-823zM1536 1088v-896l-768 -448l-768 448v896l768 448z" />
</svg>