<svg width="1536" height="1536" xmlns="http://www.w3.org/2000/svg">
    <path d="M1322 896c0 26-1 51-5 76l-236-14 224 78c-13 51-33 98-58 141l-214-103 177 158c-30 41-66 77-107 108l-157-178 103 215c-43 26-90 45-140 59l-79-228 14 240c-25 4-50 6-76 6-25 0-51-2-76-6l14-238-78 226c-50-13-97-33-140-59l103-215-157 178c-41-30-77-67-108-108l178-158-214 104c-25-44-45-91-58-141l224-79-237 14c-3-25-5-50-5-76s2-52 5-77l238 14-225-79c13-50 33-97 58-140l214 104-177-159c31-41 67-77 107-108l158 178-103-215c43-25 90-45 140-58l77 224-13-236c24-4 50-6 75-6 26 0 51 2 76 6l-14 237 78-225c50 13 97 33 140 59L945 629l158-178c40 31 76 67 107 108l-177 159 213-104c26 43 45 91 58 141l-224 78 237-14c4 25 5 51 5 77zm30 0c0-325-262-588-584-588-323 0-584 263-584 588 0 324 261 587 584 587 322 0 584-263 584-587zm73-383v766l-657 383-657-383V513l657-383zM768 1719l708-412V484L768 73 60 484v823zm768-1271v896l-768 448L0 1344V448L768 0z"/>
</svg>
