<?xml version="1.0" standalone="no"?>
<svg width="1536px" height="1536px" version="1.1" xmlns="http://www.w3.org/2000/svg">
    <path transform="scale(1, -1) translate(0, -1536)" glyph-name="flag_checkered" unicode="&#xf11e;" horiz-adv-x="1792" 

d="M832 536v192c-122 -11 -269 -60 -384 -117v-185c116 54 260 100 384 110zM832 954v197c-126 -6 -274 -65 -384 -126v-189c118 61 260 113 384 118zM1664 491v184c-91 -45 -250 -112 -384 -71v224c-13 4 -26 9 -39 15c-115 58 -209 112 -360 112c-16 0 -32 -1 -49 -3v-222
h19c151 0 275 -54 390 -111c13 -6 26 -11 39 -15v-188c27 -11 57 -17 91 -17c111 0 231 59 293 92zM1664 918v189c-80 -43 -192 -91 -306 -91v0c-27 0 -53 2 -78 8v-196c134 -38 293 39 384 90zM320 1280c0 -47 -26 -88 -64 -110v-1266c0 -18 -14 -32 -32 -32h-64
c-18 0 -32 14 -32 32v1266c-38 22 -64 63 -64 110c0 71 57 128 128 128s128 -57 128 -128zM1792 1216v-763c0 -24 -14 -46 -35 -57c-4 -2 -10 -5 -17 -9c-64 -34 -215 -116 -369 -116c-59 0 -112 12 -158 35l-28 14c-101 51 -181 91 -304 91c-144 0 -347 -75 -464 -146
c-10 -6 -22 -9 -33 -9s-22 3 -32 8c-20 12 -32 33 -32 56v742c0 22 12 43 31 55c64 38 290 163 500 163c167 0 303 -61 418 -117c26 -13 56 -19 89 -19c118 0 248 75 310 112c13 7 24 13 31 17c20 10 43 9 62 -2c19 -12 31 -33 31 -55z" />
</svg>