<?xml version="1.0" standalone="no"?>
<svg width="1536px" height="1536px" version="1.1" xmlns="http://www.w3.org/2000/svg">
    <path transform="scale(1, -1) translate(0, -1536)" glyph-name="flag" unicode="&#xf024;" horiz-adv-x="1792" 

d="M320 1280c0 -46 -25 -87 -64 -110v-1266c0 -17 -15 -32 -32 -32h-64c-17 0 -32 15 -32 32v1266c-39 23 -64 64 -64 110c0 71 57 128 128 128s128 -57 128 -128zM1792 1216v-763c0 -37 -23 -51 -52 -66c-113 -61 -238 -116 -369 -116c-184 0 -272 140 -490 140
c-159 0 -326 -72 -464 -146c-11 -6 -21 -9 -33 -9c-35 0 -64 29 -64 64v742c0 24 12 41 31 55c24 16 53 30 79 43c126 64 279 120 421 120c157 0 280 -52 419 -117c28 -14 57 -19 88 -19c157 0 326 136 370 136c35 0 64 -29 64 -64z" />
</svg>