<svg width="1536" height="1536" xmlns="http://www.w3.org/2000/svg">
    <path d="M832 1000V808c-122 11-269 60-384 117v185c116-54 260-100 384-110zm0-418V385c-126 6-274 65-384 126v189c118-61 260-113 384-118zm832 463V861c-91 45-250 112-384 71V708c-13-4-26-9-39-15-115-58-209-112-360-112-16 0-32 1-49 3v222h19c151 0 275 54 390 111 13 6 26 11 39 15v188c27 11 57 17 91 17 111 0 231-59 293-92zm0-427V429c-80 43-192 91-306 91-27 0-53-2-78-8v196c134 38 293-39 384-90zM320 256c0 47-26 88-64 110v1266c0 18-14 32-32 32h-64c-18 0-32-14-32-32V366c-38-22-64-63-64-110 0-71 57-128 128-128s128 57 128 128zm1472 64v763c0 24-14 46-35 57-4 2-10 5-17 9-64 34-215 116-369 116-59 0-112-12-158-35l-28-14c-101-51-181-91-304-91-144 0-347 75-464 146-10 6-22 9-33 9s-22-3-32-8c-20-12-32-33-32-56V474c0-22 12-43 31-55 64-38 290-163 500-163 167 0 303 61 418 117 26 13 56 19 89 19 118 0 248-75 310-112 13-7 24-13 31-17 20-10 43-9 62 2 19 12 31 33 31 55z"/>
</svg>
