<?xml version="1.0" standalone="no"?>
<svg width="1536px" height="1536px" version="1.1" xmlns="http://www.w3.org/2000/svg">
    <path transform="scale(1, -1) translate(0, -1536)" glyph-name="flag_o" unicode="&#xf11d;" horiz-adv-x="1792" 

d="M1664 491v616c-80 -43 -192 -91 -306 -91v0c-53 0 -102 10 -145 32c-107 53 -223 104 -362 104c-129 0 -287 -63 -403 -127v-599c132 61 300 113 433 113c154 0 254 -51 361 -104l28 -14c28 -14 62 -22 101 -22c111 0 231 59 293 92zM320 1280c0 -47 -26 -88 -64 -110
v-1266c0 -18 -14 -32 -32 -32h-64c-18 0 -32 14 -32 32v1266c-38 22 -64 63 -64 110c0 71 57 128 128 128s128 -57 128 -128zM1792 1216v-763c0 -24 -14 -46 -35 -57c-4 -2 -10 -5 -17 -9c-64 -34 -215 -116 -369 -116c-59 0 -112 12 -158 35l-28 14
c-101 51 -181 91 -304 91c-144 0 -347 -75 -464 -146c-10 -6 -22 -9 -33 -9s-22 3 -32 8c-20 12 -32 33 -32 56v742c0 22 12 43 31 55c64 38 290 163 500 163c167 0 303 -61 418 -117c26 -13 56 -19 89 -19c118 0 248 75 310 112c13 7 24 13 31 17c20 10 43 9 62 -2
c19 -12 31 -33 31 -55z" />
</svg>