<svg width="1536" height="1536" xmlns="http://www.w3.org/2000/svg">
    <path d="M384 1536h768v-384H384v384zm896 0h128V640c0-19-17-60-30-73l-281-281c-14-14-53-30-73-30v416c0 53-43 96-96 96H352c-53 0-96-43-96-96V256H128v1280h128v-416c0-53 43-96 96-96h832c53 0 96 43 96 96v416zM896 608V288c0-17-15-32-32-32H672c-17 0-32 15-32 32v320c0 17 15 32 32 32h192c17 0 32-15 32-32zm640 32v928c0 53-43 96-96 96H96c-53 0-96-43-96-96V224c0-53 43-96 96-96h928c53 0 126 30 164 68l280 280c38 38 68 111 68 164z"/>
</svg>
