<?xml version="1.0" standalone="no"?>
<svg width="1536px" height="1536px" version="1.1" xmlns="http://www.w3.org/2000/svg">
    <path transform="scale(1, -1) translate(0, -1536)" glyph-name="floppy_o" unicode="&#xf0c7;" 

d="M384 0h768v384h-768v-384zM1280 0h128v896c0 19 -17 60 -30 73l-281 281c-14 14 -53 30 -73 30v-416c0 -53 -43 -96 -96 -96h-576c-53 0 -96 43 -96 96v416h-128v-1280h128v416c0 53 43 96 96 96h832c53 0 96 -43 96 -96v-416zM896 928v320c0 17 -15 32 -32 32h-192
c-17 0 -32 -15 -32 -32v-320c0 -17 15 -32 32 -32h192c17 0 32 15 32 32zM1536 896v-928c0 -53 -43 -96 -96 -96h-1344c-53 0 -96 43 -96 96v1344c0 53 43 96 96 96h928c53 0 126 -30 164 -68l280 -280c38 -38 68 -111 68 -164z" />
</svg>