<svg width="1536" height="1536" xmlns="http://www.w3.org/2000/svg">
    <path d="M1781 931c0-28-31-35-53-35H640c-53 0-123 33-157 74l-294 363c-9 12-18 25-18 40 0 28 31 35 53 35h1088c53 0 123-33 157-75l294-363c9-11 18-24 18-39zM640 768h768V608c0-53-43-96-96-96H736c-53 0-96-43-96-96v-64c0-53-43-96-96-96H224c-53 0-96 43-96 96v853l256-315c58-71 165-122 256-122zm1269 163c0 44-19 86-46 120l-295 363c-57 70-166 122-256 122H224c-123 0-224-101-224-224V352c0-123 101-224 224-224h320c123 0 224 101 224 224v32h544c123 0 224 101 224 224v160h192c68 0 136 31 166 95 10 21 15 44 15 68z"/>
</svg>
