<?xml version="1.0" standalone="no"?>
<svg width="1536px" height="1536px" version="1.1" xmlns="http://www.w3.org/2000/svg">
    <path transform="scale(1, -1) translate(0, -1536)" glyph-name="folder_open_o" unicode="&#xf115;" horiz-adv-x="1920" 

d="M1781 605c0 28 -31 35 -53 35h-1088c-53 0 -123 -33 -157 -74l-294 -363c-9 -12 -18 -25 -18 -40c0 -28 31 -35 53 -35h1088c53 0 123 33 157 75l294 363c9 11 18 24 18 39zM640 768h768v160c0 53 -43 96 -96 96h-576c-53 0 -96 43 -96 96v64c0 53 -43 96 -96 96h-320
c-53 0 -96 -43 -96 -96v-853l256 315c58 71 165 122 256 122zM1909 605c0 -44 -19 -86 -46 -120l-295 -363c-57 -70 -166 -122 -256 -122h-1088c-123 0 -224 101 -224 224v960c0 123 101 224 224 224h320c123 0 224 -101 224 -224v-32h544c123 0 224 -101 224 -224v-160h192
c68 0 136 -31 166 -95c10 -21 15 -44 15 -68z" />
</svg>