<?xml version="1.0" standalone="no"?>
<svg width="1536px" height="1536px" version="1.1" xmlns="http://www.w3.org/2000/svg">
    <path transform="scale(1, -1) translate(0, -1536)" glyph-name="folder_open" unicode="&#xf07c;" horiz-adv-x="1920" 

d="M1879 584c0 -24 -15 -48 -31 -66l-336 -396c-58 -68 -176 -122 -264 -122h-1088c-36 0 -87 11 -87 56c0 24 15 48 31 66l336 396c58 68 176 122 264 122h1088c36 0 87 -11 87 -56zM1536 928v-160h-832c-125 0 -280 -71 -361 -167l-337 -396l-5 -6c0 8 -1 17 -1 25v960
c0 123 101 224 224 224h320c123 0 224 -101 224 -224v-32h544c123 0 224 -101 224 -224z" />
</svg>