<?xml version="1.0" standalone="no"?>
<svg width="1536px" height="1536px" version="1.1" xmlns="http://www.w3.org/2000/svg">
    <path transform="scale(1, -1) translate(0, -1536)" glyph-name="folder_o" unicode="&#xf114;" horiz-adv-x="1664" 

d="M1536 224v704c0 53 -43 96 -96 96h-704c-53 0 -96 43 -96 96v64c0 53 -43 96 -96 96h-320c-53 0 -96 -43 -96 -96v-960c0 -53 43 -96 96 -96h1216c53 0 96 43 96 96zM1664 928v-704c0 -123 -101 -224 -224 -224h-1216c-123 0 -224 101 -224 224v960
c0 123 101 224 224 224h320c123 0 224 -101 224 -224v-32h672c123 0 224 -101 224 -224z" />
</svg>