<?xml version="1.0" standalone="no"?>
<svg width="1536px" height="1536px" version="1.1" xmlns="http://www.w3.org/2000/svg">
    <path transform="scale(1, -1) translate(0, -1536)" glyph-name="font_awesome" unicode="&#xf2b4;" 

d="M1536 1024v-839c0 -31 -20 -54 -49 -62c-107 -32 -227 -52 -338 -52c-150 0 -277 59 -443 59c-123 0 -250 -20 -370 -48v-338h-160v1368c-84 33 -139 115 -139 205c0 121 98 219 219 219s219 -98 219 -219c0 -90 -55 -172 -139 -205v-68c112 26 228 44 343 44
c66 0 132 -5 198 -15c86 -13 173 -43 261 -43c55 0 111 7 165 18c41 8 135 40 169 40c35 0 64 -29 64 -64z" />
</svg>