<svg width="1536" height="1536" xmlns="http://www.w3.org/2000/svg">
    <path d="M725 559l-170 450c99 1 198 4 297 4 19 0 38-1 57-2-52-152-113-307-184-452zM0 1664l2-79c94-29 196-9 238-117l237-616 280-724h128c4 7 8 14 11 21l205 480c75 177 144 356 220 532 45 104 80 211 130 313 7 16 21 46 35 57 33 26 125 32 172 50 3 19 6 38 6 57 0 9-1 17-1 26-127 0-254-16-381-16-131 0-262 11-393 15 0-26 1-52 4-78l131-28c27-6 80-13 80-50 0-36-129-333-145-374l-450-2c-26 58-127 320-127 358 0 77 147 80 204 88 1 19 1 38 1 58 0 9-1 18-2 27-116 0-233-20-349-20-14 0-34 6-48 8-63 11-125 14-188 14z"/>
</svg>
