<?xml version="1.0" standalone="no"?>
<svg width="1536px" height="1536px" version="1.1" xmlns="http://www.w3.org/2000/svg">
    <path transform="scale(1, -1) translate(0, -1536)" glyph-name="fonticons" unicode="&#xf280;" 

d="M0 1408h1536v-1536h-1536v1536zM908 1088l-12 -33l75 -83l-31 -114l25 -25l107 57l107 -57l25 25l-31 114l75 83l-12 33h-95l-53 96h-32l-53 -96h-95zM641 925c41 0 57 -15 56 -79l174 21c0 153 -105 181 -222 181c-174 0 -265 -70 -265 -240v-72h-96v-128h76
c10 0 20 0 20 -8v-382c0 -19 -5 -25 -23 -27l-73 -7v-88h448v86l-149 14c-18 2 -11 5 -11 25v387h191l38 128h-231c-10 0 2 7 2 15v80c0 60 2 94 65 94zM1248 96v86l-54 9c-19 3 -10 5 -10 25v520h-275l-23 -101l83 -22c13 -4 23 -13 23 -27v-370c0 -19 -8 -23 -26 -25
l-70 -9v-86h352z" />
</svg>