<svg width="1536" height="1536" xmlns="http://www.w3.org/2000/svg">
    <path d="M0 128h1536v1536H0V128zm908 320l-12 33 75 83-31 114 25 25 107-57 107 57 25-25-31-114 75-83-12-33h-95l-53-96h-32l-53 96h-95zM641 611c41 0 57 15 56 79l174-21c0-153-105-181-222-181-174 0-265 70-265 240v72h-96v128h76c10 0 20 0 20 8v382c0 19-5 25-23 27l-73 7v88h448v-86l-149-14c-18-2-11-5-11-25V928h191l38-128H574c-10 0 2-7 2-15v-80c0-60 2-94 65-94zm607 829v-86l-54-9c-19-3-10-5-10-25V800H909l-23 101 83 22c13 4 23 13 23 27v370c0 19-8 23-26 25l-70 9v86h352z"/>
</svg>
