<?xml version="1.0" standalone="no"?>
<svg width="1536px" height="1536px" version="1.1" xmlns="http://www.w3.org/2000/svg">
    <path transform="scale(1, -1) translate(0, -1536)" glyph-name="font" unicode="&#xf031;" horiz-adv-x="1664" 

d="M725 977l-170 -450c99 -1 198 -4 297 -4c19 0 38 1 57 2c-52 152 -113 307 -184 452zM0 -128l2 79c94 29 196 9 238 117l237 616l280 724h75h53c4 -7 8 -14 11 -21l205 -480c75 -177 144 -356 220 -532c45 -104 80 -211 130 -313c7 -16 21 -46 35 -57
c33 -26 125 -32 172 -50c3 -19 6 -38 6 -57c0 -9 -1 -17 -1 -26c-127 0 -254 16 -381 16c-131 0 -262 -11 -393 -15c0 26 1 52 4 78l131 28c27 6 80 13 80 50c0 36 -129 333 -145 374l-450 2c-26 -58 -127 -320 -127 -358c0 -77 147 -80 204 -88c1 -19 1 -38 1 -58
c0 -9 -1 -18 -2 -27c-116 0 -233 20 -349 20c-14 0 -34 -6 -48 -8c-63 -11 -125 -14 -188 -14z" />
</svg>