<svg xmlns="http://www.w3.org/2000/svg" width="1536" height="1796" viewBox="0 0 1536 1796">
    <path d="M768 132C343.845 132 0 475.845 0 900v1.359c0 .48.024.952.024 1.43.03 8.464.195 16.927.497 25.387.029.796.053 1.59.084 2.385 14.537 388.657 317.825 703.458 701.607 736.018l-.137-1.382a778.042 778.042 0 0 0 65.93 2.803 777.4 777.4 0 0 0 65.223-2.748l-.137 1.39c384.145-32.237 687.81-347.232 702.315-736.165.03-.72.053-1.442.08-2.165.3-8.504.468-17.012.5-25.521 0-.48.025-.953.025-1.433V900c0-424.155-343.846-768-768-768zM595.326 451.882c-4.098 191.121-13.318 436.974 6.184 645.574 7.604 81.34 104.329 82.459 107.63 0 8.496-212.154 15.857-433.593 26.895-644.718h64.081c11.04 211.128 13.487 431.923 26.043 640.72 5.27 87.647 99.27 88.895 107.628 0 19.84-210.967 10.768-451.642 7.897-641.575h65.649c33.74 256.912 53.405 526.357 28.015 713.749-25.391 187.391-145.718 157.032-181.871 351.6-5.424 29.174-9.996 59.148-13.832 89.592a719.925 719.925 0 0 1-144-.067c-3.836-30.42-8.402-60.372-13.823-89.525-36.155-194.844-156.486-164.207-181.876-351.6-25.392-187.116-5.788-462.179 29.733-713.75z"/>
</svg>
