<svg xmlns="http://www.w3.org/2000/svg" width="1536" height="1792">
    <path d="M768 128C343.846 128 0 471.846 0 896l.005.68-.005.678c0 .48.017.953.02 1.43a789.298 789.298 0 0 0 .496 25.388c.029.797.053 1.591.084 2.386 14.537 388.656 317.825 703.456 701.606 736.017l-.136-1.382A778.056 778.056 0 0 0 768 1664c21.97 0 43.72-.938 65.222-2.748l-.136 1.39c384.144-32.237 687.808-347.232 702.314-736.164.029-.72.053-1.443.079-2.165a808.272 808.272 0 0 0 .502-25.522c0-.48.019-.953.019-1.433V896c0-424.154-343.846-768-768-768zM540.792 458.158h41.671c6.348 214.99 12.699 399.62 19.047 614.607.552 81.691 107.904 88.593 107.63 1.385 11.04-211.128 28.702-404.866 39.74-615.992h37.535c11.04 211.128 28.704 404.866 39.744 615.992-.278 87.208 107.076 80.304 107.628-1.385 6.348-214.987 12.696-399.617 19.047-614.607h41.67c24.84 253.352 66.234 516.082 40.844 703.474-25.392 187.392-145.718 157.032-181.872 351.6-5.424 29.174-9.996 59.148-13.831 89.592A718.723 718.723 0 0 1 768 1606.4a718.588 718.588 0 0 1-72.355-3.643c-3.835-30.42-8.403-60.372-13.824-89.525-36.154-194.844-156.485-164.208-181.875-351.6-25.392-187.116 16.008-450.122 40.848-703.474z"/>
</svg>
