<svg xmlns="http://www.w3.org/2000/svg" width="1536" height="1536" viewBox="0 0 2304 1536">
    <path d="M767.995 128.01C343.843 128.01 0 471.853 0 896.005v1.359c0 .48.024.952.024 1.43.03 8.464.195 16.927.497 25.387.029.796.053 1.59.084 2.385 14.537 388.654 317.823 703.453 701.602 736.013l-.137-1.382A778.037 778.037 0 0 0 768 1664c21.97 0 43.72-.938 65.222-2.748l-.137 1.39c384.142-32.237 687.805-347.23 702.31-736.16.03-.72.053-1.442.08-2.165.3-8.504.468-17.012.5-25.521 0-.48.025-.953.025-1.433v-1.358c0-424.152-343.844-767.995-767.995-767.995h-.01zM595.322 447.89c-4.098 191.12-13.318 436.971 6.184 645.57 7.604 81.339 104.328 82.458 107.63 0 8.495-212.153 15.856-433.59 26.894-644.714h64.081c11.04 211.127 13.487 431.92 26.043 640.715 5.27 87.647 99.268 88.895 107.627 0 19.839-210.965 10.768-451.638 7.897-641.57h65.648c33.74 256.91 53.405 526.353 28.015 713.744-25.391 187.39-145.717 157.031-181.87 351.598-5.424 29.174-9.996 59.148-13.831 89.591a719.92 719.92 0 0 1-144-.067c-3.835-30.42-8.402-60.371-13.823-89.524-36.154-194.843-156.484-164.207-181.874-351.598-25.392-187.115-5.788-462.176 29.733-713.745h65.646z"/>
</svg>
