<svg xmlns="http://www.w3.org/2000/svg" width="640" height="640" viewBox="0 0 640 640">
    <title>
        forkawesome
    </title>
    <path d="M320 0C143.269 0 0 143.269 0 320l.002.283-.002.283c0 .2.007.397.008.596a328.874 328.874 0 0 0 .207 10.578c.012.332.022.663.035.994 6.057 161.94 132.427 293.107 292.336 306.674l-.057-.576A324.19 324.19 0 0 0 320 640c9.154 0 18.217-.391 27.176-1.145l-.057.579c160.06-13.432 286.587-144.68 292.631-306.735.012-.3.022-.601.033-.902a336.78 336.78 0 0 0 .209-10.634c0-.2.008-.397.008-.597l-.002-.283L640 320C640 143.269 496.731 0 320 0zm-94.67 137.566h17.363c2.645 89.579 5.291 166.508 7.936 256.086.23 34.038 44.96 36.914 44.846.577 4.6-87.97 11.959-168.694 16.558-256.663h15.64c4.6 87.97 11.96 168.694 16.56 256.663-.116 36.337 44.615 33.46 44.845-.577 2.645-89.578 5.29-166.507 7.936-256.086h17.363c10.35 105.563 27.597 215.034 17.018 293.114-10.58 78.08-60.716 65.43-75.78 146.5-2.26 12.156-4.165 24.645-5.763 37.33A299.468 299.468 0 0 1 320 616c-10.178 0-20.235-.515-30.148-1.518-1.598-12.675-3.501-25.155-5.76-37.302-15.064-81.185-65.202-68.42-75.781-146.5-10.58-77.965 6.67-187.551 17.02-293.114z"/>
</svg>
