<?xml version="1.0" standalone="no"?>
<svg width="1536px" height="1536px" version="1.1" xmlns="http://www.w3.org/2000/svg">
    <path transform="scale(1, -1) translate(0, -1536)" glyph-name="fort_awesome" unicode="&#xf286;" horiz-adv-x="1792" 

d="M640 528v224c0 9 -7 16 -16 16h-96c-9 0 -16 -7 -16 -16v-224c0 -9 7 -16 16 -16h96c9 0 16 7 16 16zM1152 528v224c0 9 -7 16 -16 16h-96c-9 0 -16 -7 -16 -16v-224c0 -9 7 -16 16 -16h96c9 0 16 7 16 16zM1664 496v-752h-640v320c0 106 -86 192 -192 192
s-192 -86 -192 -192v-320h-640v752c0 9 7 16 16 16h96c9 0 16 -7 16 -16v-112h128v624c0 9 7 16 16 16h96c9 0 16 -7 16 -16v-112h128v112c0 9 7 16 16 16h96c9 0 16 -7 16 -16v-112h128v112c0 21 28 16 41 16v391c-19 9 -32 29 -32 50c0 30 25 55 55 55s55 -25 55 -55
c0 -21 -13 -41 -32 -50v-17c27 6 55 10 83 10c41 0 80 -15 114 -15c31 0 66 15 84 15c9 0 16 -7 16 -16v-210c0 -24 -81 -28 -97 -28c-37 0 -72 15 -110 15c-30 0 -61 -5 -90 -12v-133c13 0 41 5 41 -16v-112h128v112c0 9 7 16 16 16h96c9 0 16 -7 16 -16v-112h128v112
c0 9 7 16 16 16h96c9 0 16 -7 16 -16v-624h128v112c0 9 7 16 16 16h96c9 0 16 -7 16 -16z" />
</svg>