<svg width="1536" height="1536" xmlns="http://www.w3.org/2000/svg">
    <path d="M640 1008V784c0-9-7-16-16-16h-96c-9 0-16 7-16 16v224c0 9 7 16 16 16h96c9 0 16-7 16-16zm512 0V784c0-9-7-16-16-16h-96c-9 0-16 7-16 16v224c0 9 7 16 16 16h96c9 0 16-7 16-16zm512 32v752h-640v-320c0-106-86-192-192-192s-192 86-192 192v320H0v-752c0-9 7-16 16-16h96c9 0 16 7 16 16v112h128V528c0-9 7-16 16-16h96c9 0 16 7 16 16v112h128V528c0-9 7-16 16-16h96c9 0 16 7 16 16v112h128V528c0-21 28-16 41-16V121c-19-9-32-29-32-50 0-30 25-55 55-55s55 25 55 55c0 21-13 41-32 50v17c27-6 55-10 83-10 41 0 80 15 114 15 31 0 66-15 84-15 9 0 16 7 16 16v210c0 24-81 28-97 28-37 0-72-15-110-15-30 0-61 5-90 12v133c13 0 41-5 41 16v112h128V528c0-9 7-16 16-16h96c9 0 16 7 16 16v112h128V528c0-9 7-16 16-16h96c9 0 16 7 16 16v624h128v-112c0-9 7-16 16-16h96c9 0 16 7 16 16z"/>
</svg>
