<?xml version="1.0" standalone="no"?>
<svg width="1536px" height="1536px" version="1.1" xmlns="http://www.w3.org/2000/svg">
    <path transform="scale(1, -1) translate(0, -1536)" glyph-name="forumbee" unicode="&#xf211;" 

d="M934 1386c-423 -161 -756 -499 -914 -923c-13 58 -20 117 -20 176c0 423 342 766 765 766c57 0 114 -7 169 -19zM1203 1267c62 -43 117 -95 164 -155c-518 -151 -923 -558 -1071 -1077c-59 46 -112 100 -155 162c149 514 549 918 1062 1070zM470 -67
c154 475 526 849 999 1006c27 -62 45 -128 54 -195c-390 -160 -700 -472 -859 -863c-67 9 -132 26 -194 52zM1536 -125c-124 32 -247 70 -367 115c-88 -55 -187 -92 -290 -107c146 273 371 499 643 646c-14 -100 -49 -198 -101 -284c45 -121 83 -245 115 -370z" />
</svg>