<svg width="1536" height="1536" xmlns="http://www.w3.org/2000/svg">
    <path d="M934 150C511 311 178 649 20 1073 7 1015 0 956 0 897c0-423 342-766 765-766 57 0 114 7 169 19zm269 119c62 43 117 95 164 155C849 575 444 982 296 1501c-59-46-112-100-155-162C290 825 690 421 1203 269zM470 1603c154-475 526-849 999-1006 27 62 45 128 54 195-390 160-700 472-859 863-67-9-132-26-194-52zm1066 58c-124-32-247-70-367-115-88 55-187 92-290 107 146-273 371-499 643-646-14 100-49 198-101 284 45 121 83 245 115 370z"/>
</svg>
