<svg width="1536" height="1536" xmlns="http://www.w3.org/2000/svg">
    <path d="M1000 434l37-194c7-32-17-57-44-57H281c-32 0-54 29-54 54v1101c0 3 3 4 6 1 262-315 291-352 291-352 30-35 42-41 86-41h239c33 0 52-28 55-44s31-162 37-191-21-59-48-59H599c-39 0-67-28-67-67v-42c0-39 28-66 67-66h346c24 0 51-22 55-43zm227-222c-37 180-148 749-158 790-12 47-30 129-144 129H654c-11 0-12-1-22 10 0 0-7 8-426 494-33 38-87 31-107 23s-55-32-55-98V150C44 92 80 0 202 0h888c130 0 165 74 137 212zm0 0l-158 790c10-41 121-610 158-790z"/>
</svg>
