<?xml version="1.0" standalone="no"?>
<svg width="1536px" height="1536px" version="1.1" xmlns="http://www.w3.org/2000/svg">
    <path transform="scale(1, -1) translate(0, -1536)" glyph-name="foursquare" unicode="&#xf180;" horiz-adv-x="1280" 

d="M1000 1102l37 194c7 32 -17 57 -44 57h-712c-32 0 -54 -29 -54 -54v-1101c0 -3 3 -4 6 -1c262 315 291 352 291 352c30 35 42 41 86 41h239c33 0 52 28 55 44s31 162 37 191s-21 59 -48 59h-294c-39 0 -67 28 -67 67v42c0 39 28 66 67 66h346c24 0 51 22 55 43z
M1227 1324c-37 -180 -148 -749 -158 -790c-12 -47 -30 -129 -144 -129h-271c-11 0 -12 1 -22 -10c0 0 -7 -8 -426 -494c-33 -38 -87 -31 -107 -23s-55 32 -55 98v1410c0 58 36 150 158 150h888c130 0 165 -74 137 -212zM1227 1324l-158 -790c10 41 121 610 158 790z" />
</svg>