<svg xmlns="http://www.w3.org/2000/svg" width="1536" height="1792" viewBox="0 0 1536 1792">
    <path d="M152.298 261.566c-3.14-.037-6.268.038-9.354.114-44.878 1.257-84.572 14.996-110.192 44.373-80.089 91.846 8.071 177.26 38.67 293.391 40.859 154.961-5.608 319.853 118.406 428.338 42.713 37.354 94.289 47.195 143.844 51.788-65.151 76.764-104.432 183.214-83.044 292.592 33.926 173.5 192.513 294.47 361.606 291.794 5.83-.09 11.715-.409 17.567-.798 11.701-.778 23.406-2.105 35.133-4.107 100.34-17.126 182.303-75.795 230.767-156.848 1.615-2.701 3.136-5.462 4.677-8.213 1.54-2.75 3.098-5.528 4.562-8.327 1.706-2.954 5.7-2.968 7.415 0 1.465 2.798 3.022 5.577 4.563 8.327 35.433 63.253 90.772 113.73 159.357 142.817a333.815 333.815 0 0 0 9.012 3.65 343.378 343.378 0 0 0 67.073 18.594 346.033 346.033 0 0 0 52.701 4.905c2.914.045 5.764.038 8.67 0 5.812-.052 11.676-.226 17.453-.57 112.647-6.671 217.575-67.653 280.615-161.183 1.616-2.397 3.23-4.745 4.79-7.186 3.122-4.881 6.121-9.896 9.012-14.943 8.674-15.142 16.378-31.039 22.815-47.568 7.509-19.284 13.358-39.404 17.452-60.344 21.388-109.378-17.094-215.828-82.245-292.592 49.555-4.593 100.332-14.434 143.045-51.788 124.014-108.485 77.548-273.377 118.406-428.338 30.6-116.13 118.645-201.545 38.556-293.39-25.62-29.378-64.402-43.117-109.28-44.374-3.123-.088-6.29-.132-9.468-.114-95.832-.102-195.469 38.527-296.357 86.352-120.842 57.28-207.755 125.2-277.763 208.294-2.349 2.73-4.57 5.584-6.844 8.327-2.314 2.825-4.681 5.582-6.958 8.442L1344 728.117 921.594 973.371l-36.958 465.296-9.583-486.742-49.963-28.974-36.73 461.076-9.583-487.997-50.077-29.088-36.617 462.559-9.81-489.48-49.734-28.86-36.846 463.7-9.695-490.849-49.622-28.746-36.959 465.068-9.696-492.217 255.747-148.52a801.023 801.023 0 0 0-6.958-8.784 574.915 574.915 0 0 0-2.624-3.194c-67.798-83.608-151.472-152.138-267.383-210.005-6.609-3.384-13.229-6.608-19.734-9.696a1408.73 1408.73 0 0 0-14.943-6.958c-92.419-43.042-182.617-76.698-272.288-79.165-3.087-.11-6.198-.212-9.24-.227z"/>
</svg>
