<svg xmlns="http://www.w3.org/2000/svg" width="1536" height="1536">
    <path d="M1132.276 124.068a279.873 279.873 0 0 0-80.859 8.956l-840.45 219.293A282.624 282.624 0 0 0 9.07 696.737l131.526 504.347a282.624 282.624 0 0 0 344.42 201.957l840.515-219.357c141.505-36.91 228.57-175.6 206.115-317.168h2.88l-7.103-27.187-131.588-504.348a282.816 282.816 0 0 0-263.56-210.849zm-1.278 43.309a238.612 238.612 0 0 1 222.811 178.542l124.487 477.096 7.036 27.188c33.458 127.943-42.86 258.06-170.8 291.389l-840.518 219.29a238.548 238.548 0 0 1-291.388-170.8L51.038 685.799a238.548 238.548 0 0 1 170.867-291.453l840.516-219.293a241.17 241.17 0 0 1 68.577-7.676zm-25.077 65.505a344.549 344.549 0 0 0-76.574 8.892l-746.03 194.664c-155.321 45.164-198.758 128.968-167.86 272.838l111.95 428.861c30.833 135.236 145.98 198.439 279.68 156.09l746.031-194.663c135.811-32.242 198.758-134.084 167.86-272.837l-111.885-428.861c-25.077-107.28-99.154-164.534-203.172-164.983zm79.964 227.354a29.427 29.427 0 0 1 30.194 22.07l39.854 152.763.64 2.687a29.235 29.235 0 0 1-21.11 36.078l-217.822 56.807a29.235 29.235 0 0 1-36.08-21.11l-40.494-155.45a29.235 29.235 0 0 1 21.111-36.144L1180 461.131a29.939 29.939 0 0 1 5.95-.895zM532.356 502.33a40.941 40.941 0 0 1 41.902 30.706l49.705 190.506a40.813 40.813 0 0 1-29.427 50.153L327.65 843.358a40.813 40.813 0 0 1-50.153-29.426l-49.705-190.506a40.813 40.813 0 0 1 29.425-50.218l266.888-69.6a41.326 41.326 0 0 1 8.316-1.279zm374.808 93.781l11.066 42.413-263.561 30.45-11.131-42.413zm57.444 162.614c11.707 9.404 26.229 15.161 41.453 16.122L905.628 925.944a57.062 57.062 0 0 0-41.07-16.633zm-359.9 57.19l129.99 125.384-33.266 8.7a55.463 55.463 0 0 0-14.074 6.078L555.449 828.773zm259.978 136.707a13.37 13.37 0 0 1 13.754 10.044l27.827 106.767a13.178 13.178 0 0 1-9.596 16.504l-149.564 39.023a13.178 13.178 0 0 1-16.44-9.723l-27.892-106.704a13.178 13.178 0 0 1 9.66-16.505l149.564-39.022a13.242 13.242 0 0 1 2.687-.384z"/>
</svg>
