<svg xmlns="http://www.w3.org/2000/svg" width="1536" height="1536">
    <path d="m 1161.6317,149.68576 c -29.8537,0.10459 -59.6017,3.55895 -88.685,10.29837 L 208.92416,385.4363 C 29.037498,437.74347 -21.269524,534.80196 14.515322,701.42654 L 144.1714,1198.1164 c 35.70957,156.6251 169.06829,229.8243 323.91437,180.7773 l 864.02373,-225.451 c 157.2909,-37.3414 230.1937,-155.29078 194.4088,-315.98904 L 1396.9375,340.76373 C 1367.8944,216.51626 1282.1013,150.20693 1161.6317,149.68692 Z m 92.6112,263.31246 c 16.2682,-0.93529 30.9225,9.77612 34.9695,25.5606 l 46.1573,176.92409 0.7412,3.11197 c 5.0125,18.3201 -6.0221,37.17883 -24.4487,41.78413 l -252.2728,65.79162 c -18.3209,5.01406 -37.1813,-6.02092 -41.7865,-24.44876 L 970.70432,521.68579 c -5.06248,-18.34516 5.98405,-37.25784 24.44992,-41.86054 l 252.27286,-65.79048 c 2.2563,-0.57606 4.5649,-0.92332 6.8911,-1.03655 z m -756.89158,48.75161 c 22.58874,-1.24059 42.90774,13.64927 48.52925,35.56248 l 57.56638,220.63655 c 6.84013,25.48001 -8.50163,51.62729 -34.08119,58.08522 l -309.09685,80.68094 c -25.47967,6.8402 -51.62677,-8.50094 -58.08524,-34.08003 L 144.61729,601.99844 c -6.88907,-25.50372 8.46242,-51.70325 34.07888,-58.1605 l 309.09918,-80.60798 c 3.15166,-0.82015 6.37881,-1.31648 9.63126,-1.48129 z m 434.08787,108.61345 12.81621,49.12108 -305.24597,35.26598 -12.89149,-49.12105 z m 66.52939,188.33313 c 13.55852,10.89135 30.37742,17.55888 48.00922,18.67186 L 929.66026,952.36288 C 917.04729,939.79646 899.89742,932.85091 882.0946,933.0992 Z m -416.822,66.23521 150.54929,145.21481 -38.52738,10.07601 c -5.73297,1.5806 -11.21868,3.94965 -16.29995,7.0393 L 524.09674,839.82325 Z m 301.09626,158.32866 c 7.41207,-0.4433 14.09543,4.43731 15.92935,11.63257 l 32.22813,123.65335 c 2.44,8.3768 -2.6266,17.0908 -11.11369,19.1142 l -173.21915,45.1949 c -8.39935,2.3835 -17.0827,-2.752 -19.04015,-11.2607 L 694.7239,1048.0142 c -2.43737,-8.4005 2.66992,-17.1268 11.18784,-19.1154 l 173.21913,-45.19378 c 1.01936,-0.25444 2.06216,-0.40348 3.11197,-0.44474 z"/>
</svg>
