<?xml version="1.0" encoding="UTF-8" standalone="no"?>
<svg
   xmlns:dc="http://purl.org/dc/elements/1.1/"
   xmlns:cc="http://creativecommons.org/ns#"
   xmlns:rdf="http://www.w3.org/1999/02/22-rdf-syntax-ns#"
   xmlns:svg="http://www.w3.org/2000/svg"
   xmlns="http://www.w3.org/2000/svg"
   id="svg2"
   version="1.1"
   height="1536px"
   width="1536px">
  <metadata
     id="metadata10">
    <rdf:RDF>
      <cc:Work
         rdf:about="">
        <dc:format>image/svg+xml</dc:format>
        <dc:type
           rdf:resource="http://purl.org/dc/dcmitype/StillImage" />
        <dc:title></dc:title>
      </cc:Work>
    </rdf:RDF>
  </metadata>
  <defs
     id="defs8" />
  <path
     id="path4"
     d="M 280.46111,0 C 128.85162,0 6.09465,123.96077 6.09465,276.4205 c 0,0 0,983.159 0,983.159 0,152.461 122.75697,276.4205 274.36646,276.4205 0,0 975.07799,0 975.07799,0 151.6094,0 274.3663,-123.9595 274.3663,-276.4205 0,0 0,-983.159 0,-983.159 C 1529.9054,123.96077 1407.1485,0 1255.539,0 c 0,0 -975.07789,0 -975.07789,0 0,0 0,0 0,0 m 731.31729,61.21173 c 0,0 243.7606,0 243.7606,0 118.4985,0 213.189,95.32419 213.189,215.20877 0,0 0,983.159 0,983.159 0,119.8846 -94.6904,215.2087 -213.189,215.2087 0,0 -731.29942,0 -731.29942,0 0,0 0,-368.8051 0,-368.8051 0,0 487.53882,0 487.53882,0 0,0 -1.2689,-367.65502 -1.2689,-367.65502 0,0 -486.26992,2.57328 -486.26992,2.57328 0,0 0,-310.85124 0,-310.85124 0,0 487.53882,0 487.53882,0 0,0 0,-368.83839 0,-368.83839 0,0 0,0 0,0"
     glyph-name="friendica" />
</svg>
