<svg width="1536" height="1536" xmlns="http://www.w3.org/2000/svg">
    <path d="M1134 1229c11 34-8 69-41 80-34 11-70-8-81-42-33-107-132-179-244-179s-211 72-244 179c-11 34-47 53-80 42-34-11-53-46-42-80 50-161 197-269 366-269s316 108 366 269zM640 640c0 71-57 128-128 128s-128-57-128-128 57-128 128-128 128 57 128 128zm512 0c0 71-57 128-128 128s-128-57-128-128 57-128 128-128 128 57 128 128zm256 256c0-353-287-640-640-640S128 543 128 896s287 640 640 640 640-287 640-640zm128 0c0 424-344 768-768 768S0 1320 0 896s344-768 768-768 768 344 768 768z"/>
</svg>
