<?xml version="1.0" standalone="no"?>
<svg width="1536px" height="1536px" version="1.1" xmlns="http://www.w3.org/2000/svg">
    <path transform="scale(1, -1) translate(0, -1536)" glyph-name="frown_o" unicode="&#xf119;" 

d="M1134 307c11 -34 -8 -69 -41 -80c-34 -11 -70 8 -81 42c-33 107 -132 179 -244 179s-211 -72 -244 -179c-11 -34 -47 -53 -80 -42c-34 11 -53 46 -42 80c50 161 197 269 366 269s316 -108 366 -269zM640 896c0 -71 -57 -128 -128 -128s-128 57 -128 128s57 128 128 128
s128 -57 128 -128zM1152 896c0 -71 -57 -128 -128 -128s-128 57 -128 128s57 128 128 128s128 -57 128 -128zM1408 640c0 353 -287 640 -640 640s-640 -287 -640 -640s287 -640 640 -640s640 287 640 640zM1536 640c0 -424 -344 -768 -768 -768s-768 344 -768 768
s344 768 768 768s768 -344 768 -768z" />
</svg>