<svg xmlns="http://www.w3.org/2000/svg" viewBox="0 0 1536 1792" height="1792" width="1536">
    <path d="M330.695 200.717c-25.662-1.107-51.021-.888-75.451.354l-2.785.145-.917 2.623c-19.498 56.798-2.537 119.88 31.85 168.526l.05.065.032.048c36.788 48.495 87.602 82.592 139.008 108.3 51.975 26.826 107.075 31.784 155.538 60.05 31.676 18.68 51.615 38.6 71.138 69.512l.016.048.033.032c30.389 45.583 28.97 103.907 28.97 103.907v.193l4.17 65.907.224.58s6.368 16.843 19.893 33.67c13.525 16.825 34.67 34.087 63.895 34.087 30.782 0 52.01-17.255 65.151-34.136 13.142-16.881 18.686-33.799 18.686-33.799l.16-.5 4.17-65.81v-.193s-1.447-57.472 28.985-103.922l.033-.032.017-.032c19.585-31.01 38.67-52.472 70.945-69.416l.082-.049.082-.048c48.467-28.273 103.575-33.221 155.554-60.05 51.403-26.53 101.423-60.623 135.774-108.38 34.447-47.89 50.52-111.738 31.883-168.494l-.885-2.688-2.816-.145c-97.715-4.968-210.389 6.496-297.154 53.21-59.262 31.47-106.796 41.626-143.08 56.056-33.595 13.36-57.13 32.338-69.207 73.36-12.04-41.393-35.437-60.39-68.965-73.665-36.185-14.328-83.697-24.278-143.355-55.736l-.033-.016c-65.07-35.03-144.714-50.243-221.686-53.563zm-.37 8.256c76.132 3.324 154.703 18.403 218.177 52.581h.017l.016.017c60.636 31.98 109.104 42.228 144.191 56.122 35.088 13.893 56.648 30.324 67.13 77.092l.725 3.22h8.24l.725-3.203c10.477-46.34 32.251-62.804 67.452-76.804C872.2 304 920.66 293.536 980.884 261.555h.033c83.725-45.083 193.615-56.79 289.637-52.275 16.225 53.003 1.305 113.04-31.255 158.306-33.22 46.183-82.082 79.661-132.861 105.87-50.15 25.883-105.387 30.849-155.763 60.177-.008.006-.025.01-.033.017-33.628 17.663-54.09 40.69-74.051 72.296-32.153 49.127-30.307 108.606-30.307 108.606l-4.056 64.056c-.184.55-5.244 15.564-17.221 30.95-12.198 15.668-30.923 30.966-58.649 30.966-25.986 0-44.819-15.291-57.457-31.014-12.349-15.363-18.144-30.286-18.412-30.982l-4.072-64.346v.37s1.867-60.264-30.306-108.607c-20.032-31.715-41.307-52.99-73.907-72.216v-.016h-.016c-50.419-29.411-105.722-34.348-155.924-60.258l-.017-.017h-.032C375.478 448.07 325.8 414.603 290.088 367.553c-32.601-46.15-48.222-105.347-31.255-158.274 23.234-1.093 47.192-1.366 71.492-.306zm94.05 268.145c51.09 26.37 106.301 31.314 155.744 60.155 32.137 18.953 52.738 39.554 72.515 70.868 31.314 46.97 29.666 106.301 29.666 106.301l4.12 65.1s24.721 65.099 79.932 65.099c58.507 0 79.932-65.1 79.932-65.1l4.12-65.099s-1.648-58.507 29.666-106.301c19.777-31.314 39.554-53.563 72.515-70.868 49.443-28.841 104.653-33.785 155.744-60.155 51.09-26.369 100.533-60.155 134.319-107.125 33.785-46.97 49.442-109.597 31.313-164.808-97.237-4.944-209.306 6.592-295.006 52.738-119.486 63.452-192.002 41.202-213.427 135.967h-1.648c-21.425-95.589-93.117-72.515-213.427-135.967-85.7-46.146-197.77-57.682-295.007-52.738-18.953 55.21-2.472 117.014 31.314 164.808 36.258 47.794 86.524 81.58 137.615 107.125zM18.122 803.442C8.264 803.442 0 811.706 0 821.564c0 423.322 344.679 768.016 768 768.016s768-344.694 768-768.016c0-9.858-8.264-18.122-18.122-18.122h-99.706c-9.858 0-18.139 8.264-18.139 18.122 0 348.798-284.879 632.87-632.854 632.87-348.81 0-632.87-283.236-632.87-632.87 0-9.858-8.264-18.122-18.122-18.122zm0 8.24h98.065c4.974 0 9.882 4.908 9.882 9.882 0 354.098 287.838 641.11 641.11 641.11 352.46 0 641.095-287.824 641.095-641.11 0-4.974 4.923-9.882 9.898-9.882h99.706c4.974 0 9.882 4.908 9.882 9.882 0 418.85-340.911 759.776-759.76 759.776S8.24 1240.413 8.24 821.564c0-4.974 4.908-9.882 9.882-9.882zm1499.756-4.123h-99.71c-7.416 0-14.008 6.592-14.008 14.009 0 351.041-286.767 636.983-636.984 636.983-351.042 0-636.984-285.118-636.984-636.983 0-7.417-6.592-14.01-14.009-14.01h-98.06c-7.417 0-14.01 6.593-14.01 14.01 0 421.085 342.802 763.886 763.887 763.886 421.085 0 763.886-342.801 763.886-763.886 0-7.417-6.592-14.01-14.008-14.01zm-1249.244-4.117c-9.852 0-18.13 8.255-18.138 18.106-1.662 284.902 230.98 517.52 517.504 517.52 284.888 0 517.504-232.615 517.504-517.504 0-9.858-8.28-18.122-18.138-18.122h-99.706c-9.858 0-18.122 8.264-18.122 18.122 0 211.2-171.16 382.359-382.359 382.359-211.2 0-382.358-171.16-382.358-382.359 0-9.858-8.265-18.122-18.123-18.122zm0 8.24h98.064c4.975 0 9.882 4.908 9.882 9.882 0 215.654 174.945 390.6 390.6 390.6 215.653 0 390.598-174.946 390.598-390.6 0-4.974 4.907-9.882 9.882-9.882h99.706c4.975 0 9.898 4.908 9.898 9.882 0 280.404-228.86 509.264-509.264 509.264-282.065 0-510.899-228.84-509.264-509.231v-.033c0-4.975 4.923-9.882 9.898-9.882zM768 1334.945c282.646 0 513.378-230.731 513.378-513.377 0-7.417-6.593-14.01-14.009-14.01h-99.709c-7.416 0-14.009 6.593-14.009 14.01 0 213.426-173.048 386.475-386.475 386.475-213.427 0-386.475-173.049-386.475-386.475 0-7.417-6.593-14.01-14.01-14.01h-98.06c-7.416 0-14.009 6.593-14.009 14.01-1.648 282.646 229.084 513.377 513.378 513.377zM517.488 802.621c-9.858 0-18.122 8.265-18.122 18.123 0 148.901 120.56 268.634 268.634 268.634 148.09 0 268.634-120.544 268.634-268.634 0-9.858-8.264-18.123-18.122-18.123h-99.706c-9.858 0-18.139 8.265-18.139 18.123 0 72.754-59.094 132.667-132.667 132.667-72.754 0-132.667-59.095-132.667-132.667 0-9.858-8.281-18.123-18.139-18.123zm0 8.24h99.706c4.975 0 9.898 4.908 9.898 9.883 0 78.05 63.687 140.907 140.908 140.907 78.051 0 140.908-63.686 140.908-140.907 0-4.975 4.923-9.882 9.898-9.882h99.706c4.974 0 9.882 4.907 9.882 9.882 0 143.62-116.773 260.393-260.394 260.393-143.636 0-260.394-115.936-260.394-260.393 0-4.975 4.907-9.882 9.882-9.882zM768 1085.262c145.855 0 264.517-118.662 264.517-264.517 0-7.417-6.592-14.01-14.008-14.01h-99.71c-7.416 0-14.008 6.593-14.008 14.01 0 74.987-60.98 136.79-136.791 136.79-74.988 0-136.79-60.979-136.79-136.79 0-7.417-6.593-14.01-14.01-14.01h-99.709c-7.416 0-14.008 6.593-14.008 14.01 0 146.679 118.662 264.517 264.517 264.517z" color="#000" font-weight="400" font-family="sans-serif" overflow="visible"/>
</svg>
