<?xml version="1.0" standalone="no"?>
<svg width="1536px" height="1536px" version="1.1" xmlns="http://www.w3.org/2000/svg">
    <path transform="scale(1, -1) translate(0, -1536)" glyph-name="futbol_o" unicode="&#xf1e3;" horiz-adv-x="1792" 

d="M609 720l287 208l287 -208l-109 -336h-355zM896 1536c495 0 896 -401 896 -896s-401 -896 -896 -896s-896 401 -896 896s401 896 896 896zM1515 186c94 128 149 284 149 454v3l-102 -89l-240 224l63 323l134 -12c-95 131 -231 232 -389 282l53 -124l-287 -159l-287 159
l53 124c-158 -50 -294 -151 -389 -282l135 12l62 -323l-240 -224l-102 89v-3c0 -170 55 -326 149 -454l30 132l326 -40l139 -298l-116 -69c75 -25 156 -39 240 -39s165 14 240 39l-116 69l139 298l326 40z" />
</svg>