<svg width="1536" height="1536" xmlns="http://www.w3.org/2000/svg">
    <path d="M832 1088V960c0-18-14-32-32-32H608V736c0-18-14-32-32-32H448c-18 0-32 14-32 32v192H224c-18 0-32 14-32 32v128c0 18 14 32 32 32h192v192c0 18 14 32 32 32h128c18 0 32-14 32-32v-192h192c18 0 32-14 32-32zm576 64c0-71-57-128-128-128s-128 57-128 128 57 128 128 128 128-57 128-128zm256-256c0-71-57-128-128-128s-128 57-128 128 57 128 128 128 128-57 128-128zm256 128c0 283-229 512-512 512-130 0-248-49-338-128H850c-90 79-208 128-338 128-283 0-512-229-512-512s229-512 512-512h896c283 0 512 229 512 512z"/>
</svg>
