<?xml version="1.0" standalone="no"?>
<svg width="1536px" height="1536px" version="1.1" xmlns="http://www.w3.org/2000/svg">
    <path transform="scale(1, -1) translate(0, -1536)" glyph-name="gamepad" unicode="&#xf11b;" horiz-adv-x="1920" 

d="M832 448v128c0 18 -14 32 -32 32h-192v192c0 18 -14 32 -32 32h-128c-18 0 -32 -14 -32 -32v-192h-192c-18 0 -32 -14 -32 -32v-128c0 -18 14 -32 32 -32h192v-192c0 -18 14 -32 32 -32h128c18 0 32 14 32 32v192h192c18 0 32 14 32 32zM1408 384c0 71 -57 128 -128 128
s-128 -57 -128 -128s57 -128 128 -128s128 57 128 128zM1664 640c0 71 -57 128 -128 128s-128 -57 -128 -128s57 -128 128 -128s128 57 128 128zM1920 512c0 -283 -229 -512 -512 -512c-130 0 -248 49 -338 128h-220c-90 -79 -208 -128 -338 -128c-283 0 -512 229 -512 512
s229 512 512 512h896c283 0 512 -229 512 -512z" />
</svg>