<?xml version="1.0" standalone="no"?>
<svg width="1536px" height="1536px" version="1.1" xmlns="http://www.w3.org/2000/svg">
    <path transform="scale(1, -1) translate(0, -1536)" glyph-name="gavel" unicode="&#xf0e3;" horiz-adv-x="1792" 

d="M1771 0c0 -34 -14 -67 -37 -90l-107 -108c-24 -23 -57 -37 -91 -37s-67 14 -90 37l-363 364c-24 23 -38 56 -38 90c0 38 16 69 43 96l-256 256l-126 -126c-9 -9 -21 -14 -34 -14s-25 5 -34 14c30 -30 58 -52 58 -98c0 -26 -10 -49 -28 -68c-34 -36 -70 -84 -124 -84
c-25 0 -50 10 -68 28l-408 408c-18 18 -28 43 -28 68c0 54 48 90 84 124c19 18 42 28 68 28c46 0 68 -28 98 -58c-9 9 -14 21 -14 34s5 25 14 34l348 348c9 9 21 14 34 14s25 -5 34 -14c-30 30 -58 52 -58 98c0 26 10 49 28 68c34 36 70 84 124 84c25 0 50 -10 68 -28
l408 -408c18 -18 28 -43 28 -68c0 -54 -48 -90 -84 -124c-19 -18 -42 -28 -68 -28c-46 0 -68 28 -98 58c9 -9 14 -21 14 -34s-5 -25 -14 -34l-126 -126l256 -256c27 27 58 43 96 43c34 0 67 -14 91 -37l363 -363c23 -24 37 -57 37 -91z" />
</svg>