<?xml version="1.0" standalone="no"?>
<svg width="1536px" height="1536px" version="1.1" xmlns="http://www.w3.org/2000/svg">
    <path transform="scale(1, -1) translate(0, -1536)" glyph-name="gbp" unicode="&#xf154;" horiz-adv-x="1024" 

d="M1020 399v-367c0 -18 -14 -32 -32 -32h-956c-18 0 -32 14 -32 32v150c0 17 14 32 32 32h97v383h-95c-18 0 -32 14 -32 32v131c0 18 14 32 32 32h95v223c0 228 184 393 438 393c200 0 329 -120 335 -125c12 -11 13 -30 3 -43l-103 -127c-6 -7 -13 -11 -22 -12
c-8 -1 -17 2 -23 7c-1 1 -87 69 -188 69c-113 0 -189 -68 -189 -170v-215h305c18 0 32 -14 32 -32v-131c0 -18 -14 -32 -32 -32h-305v-379h414v181c0 18 14 32 32 32h162c18 0 32 -14 32 -32z" />
</svg>