<?xml version="1.0" standalone="no"?>
<svg width="1536px" height="1536px" version="1.1" xmlns="http://www.w3.org/2000/svg">
    <path transform="scale(1, -1) translate(0, -1536)" glyph-name="get_pocket" unicode="&#xf265;" horiz-adv-x="1720" 

d="M1565 1408c87 0 155 -70 155 -156v-519c0 -479 -383 -861 -859 -861c-478 0 -861 382 -861 861v519c0 85 71 156 156 156h1409zM861 344c30 0 60 12 82 33l404 388c23 22 37 53 37 85c0 65 -53 118 -118 118c-31 0 -60 -12 -82 -33l-323 -310l-323 310
c-22 21 -51 33 -81 33c-65 0 -118 -53 -118 -118c0 -32 13 -63 36 -85l405 -388c21 -21 51 -33 81 -33z" />
</svg>