<?xml version="1.0" standalone="no"?>
<svg width="1536px" height="1536px" version="1.1" xmlns="http://www.w3.org/2000/svg">
    <path transform="scale(1, -1) translate(0, -1536)" glyph-name="gg_circle" unicode="&#xf261;" horiz-adv-x="1792" 

d="M717 182l271 271l-279 279v0l-88 -88l192 -191l-96 -96l-279 279l279 279l40 -40l87 87l-127 128l-454 -454zM1075 190l454 454l-454 454l-271 -271l279 -279v0l88 88v0l-192 191l96 96l279 -279l-279 -279l-40 40l-87 -88zM1792 640c0 -495 -401 -896 -896 -896
s-896 401 -896 896s401 896 896 896s896 -401 896 -896z" />
</svg>