<svg width="1536" height="1536" xmlns="http://www.w3.org/2000/svg">
    <path d="M928 1356V640H608v716c0 35 29 52 64 52h192c35 0 64-17 64-52zM472 512h195L541 351c-11-13-35-31-69-31-53 0-96 43-96 96s43 96 96 96zm688-96c0-53-43-96-96-96-34 0-58 18-69 31L870 512h194c53 0 96-43 96-96zm376 256v320c0 18-14 32-32 32h-96v416c0 53-43 96-96 96H224c-53 0-96-43-96-96v-416H32c-18 0-32-14-32-32V672c0-18 14-32 32-32h440c-124 0-224-100-224-224s100-224 224-224c67 0 129 28 168 77l128 165 128-165c39-49 101-77 168-77 124 0 224 100 224 224s-100 224-224 224h440c18 0 32 14 32 32z"/>
</svg>
