<?xml version="1.0" standalone="no"?>
<svg width="1536px" height="1536px" version="1.1" xmlns="http://www.w3.org/2000/svg">
    <path transform="scale(1, -1) translate(0, -1536)" glyph-name="gift" unicode="&#xf06b;" 

d="M928 180v56v468v192h-320v-192v-468v-56c0 -35 29 -52 64 -52h192c35 0 64 17 64 52zM472 1024h195l-126 161c-11 13 -35 31 -69 31c-53 0 -96 -43 -96 -96s43 -96 96 -96zM1160 1120c0 53 -43 96 -96 96c-34 0 -58 -18 -69 -31l-125 -161h194c53 0 96 43 96 96z
M1536 864v-320c0 -18 -14 -32 -32 -32h-96v-416c0 -53 -43 -96 -96 -96h-1088c-53 0 -96 43 -96 96v416h-96c-18 0 -32 14 -32 32v320c0 18 14 32 32 32h440c-124 0 -224 100 -224 224s100 224 224 224c67 0 129 -28 168 -77l128 -165l128 165c39 49 101 77 168 77
c124 0 224 -100 224 -224s-100 -224 -224 -224h440c18 0 32 -14 32 -32z" />
</svg>