<svg xmlns="http://www.w3.org/2000/svg" width="1536" height="1792" viewBox="0 0 1536 1792">
    <path d="M1760.204 83.343c-72.862 91.234-192.99 489.766-867.329 507.512-321.783 8.398-481.266-357.967-481.266-357.967l-25.113 588.249c6.504 8.15 12.996 16.36 19.012 25.113 48.475 70.486 73.13 148.992 73.637 219.777.508 70.777-23.462 134.55-73.637 172.53-23.087 17.47-49.678 27.015-77.752 30.786 456.558 363.764 1675.834 641.467 1432.448-1186zM611.947 598.665c97.17 0 176.928 85.843 176.928 193.523 0 8.31-1.207 16.243-2.128 24.263A126.8 133.076 0 0 0 663.025 712.31a126.8 133.076 0 0 0-126.843 133.084A126.8 133.076 0 0 0 658.343 978.2c-14.896 4.43-30.252 7.657-46.396 7.657-97.169 0-176.785-85.99-176.785-193.67 0-107.68 79.616-193.522 176.785-193.522zm419.264 9.647c119.235 0 216.23 101.324 216.23 227.433 0 1.09-.27 2.18-.284 3.27a162.352 170.38 0 0 0-159.902-141.17A162.352 170.38 0 0 0 924.94 868.1a162.352 170.38 0 0 0 162.314 170.546 162.352 170.38 0 0 0 65.692-14.754c-34.693 24.88-76.633 39.439-121.736 39.439-119.235 0-216.23-101.47-216.229-227.58 0-126.11 96.994-227.433 216.23-227.433zM157.64 713.725c-35.96-1.162-67.817 8.522-93.643 28.1C21.354 774.135-.46 829.59.007 894.768c.468 65.176 23.552 139.338 69.381 206.018 45.843 66.694 105.56 113.027 164.016 133.934 58.456 20.906 114.676 16.83 157.348-15.466 42.683-32.305 64.6-87.885 64.131-153.09-.468-65.205-23.652-139.31-69.522-206.011-60.71-88.284-149.183-143.96-227.722-146.43zm884.64 18.445a76.13 79.894 0 0 1 76.048 80.024 76.13 79.894 0 0 1-76.05 79.88 76.13 79.894 0 0 1-76.048-79.88 76.13 79.894 0 0 1 76.05-80.024zm-427.07 16.606a50.127 52.607 0 0 1 50.084 52.638 50.127 52.607 0 0 1-50.084 52.638 50.127 52.607 0 0 1-50.085-52.638 50.127 52.607 0 0 1 50.085-52.638zM129.83 765.66a84.587 106.525 0 0 1 84.562 106.554 84.587 106.525 0 0 1-84.562 106.409 84.587 106.525 0 0 1-84.562-106.41A84.587 106.525 0 0 1 129.83 765.66zm1072.633 302.634s112.447 32.843 152.1 86.548c39.536 53.568 14.745 86.548 4.397 155.08-15.318-40.026-30.793-71.176-46.963-89.388-61.312 95.236-234.789 140.544-467.504 117.909 104.368-5.45 185.403-21.7 249.714-44.132-105.937 6.902-243.146-20.703-405.926-81.012 322.466 67.675 486.746 4.94 582.854-72.927-25.377-34.397-68.672-72.078-68.672-72.078z" fill-rule="evenodd"/>
</svg>
