<svg width="1536" height="1536" xmlns="http://www.w3.org/2000/svg">
    <path d="M582 1308c0 54-49 66-93 66-43 0-107-7-107-63 0-55 54-64 98-64 42 0 102 7 102 61zm-36-466c0 50-20 85-74 85-55 0-77-32-77-84s20-90 77-90c51 0 74 42 74 89zm166-75V642c-43 16-89 29-135 29-33-19-71-29-110-29-114 0-204 84-204 200 0 62 41 148 103 169v3c-32 14-38 53-38 85 0 33 12 60 41 77v3c-68 22-113 65-113 139 0 127 121 163 227 163 128 0 224-47 224-188 0-100-91-130-174-145-28-5-76-25-76-60 0-33 18-47 49-52 102-20 167-99 167-204 0-18-4-35-10-52 16-4 33-8 49-13zm59 419h137c-2-27-2-55-2-82V717c0-23 0-46 2-69H771c3 23 3 48 3 71v392c0 25 0 50-3 75zm509-16v-121c-20 14-44 21-68 21-45 0-53-45-53-82V763h52c18 0 35 2 53 2V648h-105c0-34-2-68 3-102h-140c3 18 4 36 4 55v47h-60v117c12-1 24-3 37-3 7 0 15 1 23 1v2h-2v217c0 108 16 212 148 212 37 0 75-6 108-24zM924 464c0-47-35-91-84-91s-85 43-85 91c0 47 37 89 85 89s84-43 84-89zm612-48v960c0 159-129 288-288 288H288c-159 0-288-129-288-288V416c0-159 129-288 288-288h960c159 0 288 129 288 288z"/>
</svg>
