<?xml version="1.0" standalone="no"?>
<svg width="1536px" height="1536px" version="1.1" xmlns="http://www.w3.org/2000/svg">
    <path transform="scale(1, -1) translate(0, -1536)" glyph-name="git_square" unicode="&#xf1d2;" 

d="M582 228c0 -54 -49 -66 -93 -66c-43 0 -107 7 -107 63c0 55 54 64 98 64c42 0 102 -7 102 -61zM546 694c0 -50 -20 -85 -74 -85c-55 0 -77 32 -77 84s20 90 77 90c51 0 74 -42 74 -89zM712 769v125c-43 -16 -89 -29 -135 -29c-33 19 -71 29 -110 29
c-114 0 -204 -84 -204 -200c0 -62 41 -148 103 -169v-3c-32 -14 -38 -53 -38 -85c0 -33 12 -60 41 -77v-3c-68 -22 -113 -65 -113 -139c0 -127 121 -163 227 -163c128 0 224 47 224 188c0 100 -91 130 -174 145c-28 5 -76 25 -76 60c0 33 18 47 49 52c102 20 167 99 167 204
c0 18 -4 35 -10 52c16 4 33 8 49 13zM771 350h137c-2 27 -2 55 -2 82v387c0 23 0 46 2 69h-137c3 -23 3 -48 3 -71v-392c0 -25 0 -50 -3 -75zM1280 366v121c-20 -14 -44 -21 -68 -21c-45 0 -53 45 -53 82v225h52c18 0 35 -2 53 -2v117h-105c0 34 -2 68 3 102h-140
c3 -18 4 -36 4 -55v-47h-60v-117c12 1 24 3 37 3c7 0 15 -1 23 -1v-2h-2v-217c0 -108 16 -212 148 -212c37 0 75 6 108 24zM924 1072c0 47 -35 91 -84 91s-85 -43 -85 -91c0 -47 37 -89 85 -89s84 43 84 89zM1536 1120v-960c0 -159 -129 -288 -288 -288h-960
c-159 0 -288 129 -288 288v960c0 159 129 288 288 288h960c159 0 288 -129 288 -288z" />
</svg>