<?xml version="1.0" standalone="no"?>
<svg width="1536px" height="1536px" version="1.1" xmlns="http://www.w3.org/2000/svg">
    <path transform="scale(1, -1) translate(0, -1536)" glyph-name="git" unicode="&#xf1d3;" horiz-adv-x="1792" 

d="M595 22c0 88 -97 100 -165 100c-71 0 -158 -15 -158 -104c0 -90 103 -101 172 -101c73 0 151 18 151 105zM536 777c0 75 -36 143 -119 143c-92 0 -124 -61 -124 -145c0 -83 36 -135 124 -135c87 0 119 56 119 137zM805 1101v-202c-26 -9 -52 -16 -79 -22
c10 -27 16 -55 16 -84c0 -169 -104 -298 -270 -329c-50 -10 -79 -31 -79 -85c0 -153 404 -49 404 -331c0 -229 -155 -304 -363 -304c-171 0 -366 57 -366 263c0 120 73 189 182 225v4c-46 28 -67 72 -67 126c0 51 11 114 63 137v4c-101 34 -167 173 -167 274
c0 187 145 324 330 324c62 0 124 -16 178 -47c75 0 149 20 218 47zM1123 220h-222c4 45 4 89 4 134v609c0 43 1 86 -4 128h222c-5 -41 -4 -83 -4 -124v-613c0 -45 0 -89 4 -134zM1724 442v-196c-53 -29 -114 -39 -174 -39c-214 0 -239 169 -239 343v351h2v4
c-13 0 -25 2 -37 2c-20 0 -40 -3 -59 -6v190h96v76c0 30 -1 60 -6 89h227c-8 -55 -6 -110 -6 -165h171v-190c-29 0 -58 4 -86 4h-85v-365c0 -59 13 -131 87 -131c39 0 77 11 109 33zM1148 1389c0 -75 -58 -145 -135 -145c-79 0 -138 69 -138 145c0 77 58 147 138 147
c79 0 135 -72 135 -147z" />
</svg>