<svg width="1536" height="1536" xmlns="http://www.w3.org/2000/svg">
    <path d="M595 1514c0-88-97-100-165-100-71 0-158 15-158 104 0 90 103 101 172 101 73 0 151-18 151-105zm-59-755c0-75-36-143-119-143-92 0-124 61-124 145 0 83 36 135 124 135 87 0 119-56 119-137zm269-324v202c-26 9-52 16-79 22 10 27 16 55 16 84 0 169-104 298-270 329-50 10-79 31-79 85 0 153 404 49 404 331 0 229-155 304-363 304-171 0-366-57-366-263 0-120 73-189 182-225v-4c-46-28-67-72-67-126 0-51 11-114 63-137v-4C145 999 79 860 79 759c0-187 145-324 330-324 62 0 124 16 178 47 75 0 149-20 218-47zm318 881H901c4-45 4-89 4-134V573c0-43 1-86-4-128h222c-5 41-4 83-4 124v613c0 45 0 89 4 134zm601-222v196c-53 29-114 39-174 39-214 0-239-169-239-343V635h2v-4c-13 0-25-2-37-2-20 0-40 3-59 6V445h96v-76c0-30-1-60-6-89h227c-8 55-6 110-6 165h171v190c-29 0-58-4-86-4h-85v365c0 59 13 131 87 131 39 0 77-11 109-33zm-576-947c0 75-58 145-135 145-79 0-138-69-138-145 0-77 58-147 138-147 79 0 135 72 135 147z"/>
</svg>
