<svg xmlns="http://www.w3.org/2000/svg" width="1536" height="1792" viewBox="0 0 1536 1792">
    <path d="M365.814 256.033c-80.77-.23-174.758 28.37-247.533 93.332C45.507 414.33-5.459 515.927.468 659.21c9.228 223.095 116.556 347.02 241.385 413.903 121.864 65.293 259.55 77.271 341.309 79.467 6.075 22.373 20.605 53.19 41.24 88.794 22.617 39.021 52.476 83.218 86.237 125.355 67.52 84.276 149.666 161.198 224.778 169.267h614.778c96.394-7.216 183.852-91.338 258.812-210.925 74.96-119.587 137.637-275.74 182.444-431.18 44.808-155.44 71.718-310.045 74.6-426.875 1.44-58.414-3.015-107.346-14.834-142.878-5.91-17.766-13.683-32.287-24.042-42.774-10.36-10.486-23.609-16.672-38.437-17.01l-.311-.006h-.313c-337.54 17.872-537.496 26.865-708.892 28.377V682.72l-53.502-26.574-.356-363.22c-196.715-.1-369.84-10.354-698.87-28.58l-.184-.009-.185-.002c-40.235-.43-97.974-8.164-160.312-8.342zm22.4 172.51c3.664 0 7.49 0 11.265.1 21.927 217.03 57.703 349.276 127.414 541.945-88.094-12.62-168.73-34.048-230.92-77.682-65.365-45.861-111.249-115.832-125.726-228.654-7.647-59.598 2.08-119.8 37.762-164.15 33.452-41.58 90.067-70.34 180.205-71.54zm729.623 214.068c13.174.1 26.557 3.011 39.24 9.174l63.954 31.074-45.88 93.968a57.354 57.354 0 0 0-20.566 3.315 57.354 57.354 0 0 0-34.542 73.388 57.354 57.354 0 0 0 9.503 16.703l-79.045 161.895a57.354 57.354 0 0 0-19.008 3.32 57.354 57.354 0 0 0-34.538 73.389 57.354 57.354 0 0 0 73.387 34.54 57.354 57.354 0 0 0 34.541-73.388 57.354 57.354 0 0 0-13.468-21.105l77.029-157.766a57.354 57.354 0 0 0 24.99-3.049 57.354 57.354 0 0 0 18.224-10.699c30.01 14.23 53.952 25.373 71.541 35.162 26.351 14.668 35.672 24.346 38.496 35.014 2.824 10.667-.312 30.978-15.185 66.703-11.338 27.233-28.654 62.702-51.112 108.785a57.354 57.354 0 0 0-21.47 3.308 57.354 57.354 0 0 0-34.54 73.39 57.354 57.354 0 0 0 73.388 34.539 57.354 57.354 0 0 0 34.54-73.388 57.354 57.354 0 0 0-11.722-19.289c22.242-45.59 39.623-81.153 51.765-110.32 16.026-38.496 24.462-67.304 17.119-95.043-7.345-27.74-29.958-45.76-59.774-62.355-19.75-10.992-43.966-22.274-73.47-36.23a57.354 57.354 0 0 0-3.262-22.964 57.354 57.354 0 0 0-12.43-20.025l45.172-92.515 249.678 121.316c45.096 21.911 63.76 75.857 41.848 120.954l-171.672 353.314c-21.912 45.096-75.856 63.761-120.952 41.849l-353.315-171.673c-45.096-21.912-63.76-75.855-41.848-120.952l171.672-353.316c15.75-32.413 48.046-51.172 81.712-51.023z"/>
</svg>
