<?xml version="1.0" standalone="no"?>
<svg width="1536px" height="1536px" version="1.1" xmlns="http://www.w3.org/2000/svg">
    <path transform="scale(1, -1) translate(0, -1536)" glyph-name="github_alt" unicode="&#xf113;" horiz-adv-x="1664" 

d="M640 320c0 -73 -38 -192 -128 -192s-128 119 -128 192s38 192 128 192s128 -119 128 -192zM1280 320c0 -73 -38 -192 -128 -192s-128 119 -128 192s38 192 128 192s128 -119 128 -192zM1440 320c0 153 -93 288 -256 288c-66 0 -129 -12 -195 -21
c-52 -8 -104 -11 -157 -11s-105 3 -157 11c-65 9 -129 21 -195 21c-163 0 -256 -135 -256 -288c0 -306 280 -353 524 -353h168c244 0 524 47 524 353zM1664 496c0 -111 -11 -229 -61 -331c-132 -267 -495 -293 -755 -293c-264 0 -649 23 -786 293c-51 101 -62 220 -62 331
c0 146 40 284 136 396c-18 55 -27 113 -27 170c0 75 17 150 51 218c158 0 259 -69 379 -163c101 24 205 35 309 35c94 0 189 -10 280 -32c119 93 220 160 376 160c34 -68 51 -143 51 -218c0 -57 -9 -114 -27 -168c96 -113 136 -252 136 -398z" />
</svg>