<?xml version="1.0" standalone="no"?>
<svg width="1536px" height="1536px" version="1.1" xmlns="http://www.w3.org/2000/svg">
    <path transform="scale(1, -1) translate(0, -1536)" glyph-name="github" unicode="&#xf09b;" 

d="M768 1408c424 0 768 -344 768 -768c0 -339 -220 -627 -525 -729c-39 -7 -53 17 -53 37c0 25 1 108 1 211c0 72 -24 118 -52 142c171 19 351 84 351 379c0 84 -30 152 -79 206c8 20 34 98 -8 204c-64 20 -211 -79 -211 -79c-61 17 -127 26 -192 26s-131 -9 -192 -26
c0 0 -147 99 -211 79c-42 -106 -16 -184 -8 -204c-49 -54 -79 -122 -79 -206c0 -294 179 -360 350 -379c-22 -20 -42 -54 -49 -103c-44 -20 -156 -54 -223 64c-42 73 -118 79 -118 79c-75 1 -5 -47 -5 -47c50 -23 85 -112 85 -112c45 -137 259 -91 259 -91
c0 -64 1 -124 1 -143c0 -20 -14 -44 -53 -37c-305 102 -525 390 -525 729c0 424 344 768 768 768zM291 305c2 4 -1 9 -7 12c-6 2 -11 1 -13 -2c-2 -4 1 -9 7 -12c5 -3 11 -2 13 2zM322 271c4 3 3 10 -2 16c-5 5 -12 7 -16 3c-4 -3 -3 -10 2 -16c5 -5 12 -7 16 -3zM352 226
c5 4 5 12 0 19c-4 7 -12 10 -17 6c-5 -3 -5 -11 0 -18s13 -10 17 -7zM394 184c4 4 2 13 -4 19c-7 7 -16 8 -20 3c-5 -4 -3 -13 4 -19c7 -7 16 -8 20 -3zM451 159c2 6 -4 13 -13 16c-8 2 -17 -1 -19 -7s4 -13 13 -15c8 -3 17 0 19 6zM514 154c0 7 -8 12 -17 11
c-9 0 -16 -5 -16 -11c0 -7 7 -12 17 -11c9 0 16 5 16 11zM572 164c-1 6 -9 10 -18 9c-9 -2 -15 -8 -14 -15c1 -6 9 -10 18 -8s15 8 14 14z" />
</svg>