<svg width="1536" height="1536" xmlns="http://www.w3.org/2000/svg">
    <path d="M640 1216c0 73-38 192-128 192s-128-119-128-192 38-192 128-192 128 119 128 192zm640 0c0 73-38 192-128 192s-128-119-128-192 38-192 128-192 128 119 128 192zm160 0c0-153-93-288-256-288-66 0-129 12-195 21-52 8-104 11-157 11s-105-3-157-11c-65-9-129-21-195-21-163 0-256 135-256 288 0 306 280 353 524 353h168c244 0 524-47 524-353zm224-176c0 111-11 229-61 331-132 267-495 293-755 293-264 0-649-23-786-293-51-101-62-220-62-331 0-146 40-284 136-396-18-55-27-113-27-170 0-75 17-150 51-218 158 0 259 69 379 163 101-24 205-35 309-35 94 0 189 10 280 32 119-93 220-160 376-160 34 68 51 143 51 218 0 57-9 114-27 168 96 113 136 252 136 398z"/>
</svg>
