<svg width="1536" height="1536" xmlns="http://www.w3.org/2000/svg">
    <path d="M768 128c424 0 768 344 768 768 0 339-220 627-525 729-39 7-53-17-53-37 0-25 1-108 1-211 0-72-24-118-52-142 171-19 351-84 351-379 0-84-30-152-79-206 8-20 34-98-8-204-64-20-211 79-211 79-61-17-127-26-192-26s-131 9-192 26c0 0-147-99-211-79-42 106-16 184-8 204-49 54-79 122-79 206 0 294 179 360 350 379-22 20-42 54-49 103-44 20-156 54-223-64-42-73-118-79-118-79-75-1-5 47-5 47 50 23 85 112 85 112 45 137 259 91 259 91 0 64 1 124 1 143 0 20-14 44-53 37C220 1523 0 1235 0 896c0-424 344-768 768-768zM291 1231c2-4-1-9-7-12-6-2-11-1-13 2-2 4 1 9 7 12 5 3 11 2 13-2zm31 34c4-3 3-10-2-16-5-5-12-7-16-3-4 3-3 10 2 16 5 5 12 7 16 3zm30 45c5-4 5-12 0-19-4-7-12-10-17-6-5 3-5 11 0 18s13 10 17 7zm42 42c4-4 2-13-4-19-7-7-16-8-20-3-5 4-3 13 4 19 7 7 16 8 20 3zm57 25c2-6-4-13-13-16-8-2-17 1-19 7s4 13 13 15c8 3 17 0 19-6zm63 5c0-7-8-12-17-11-9 0-16 5-16 11 0 7 7 12 17 11 9 0 16-5 16-11zm58-10c-1-6-9-10-18-9-9 2-15 8-14 15 1 6 9 10 18 8s15-8 14-14z"/>
</svg>
