<?xml version="1.0" standalone="no"?>
<svg width="1536px" height="1536px" version="1.1" xmlns="http://www.w3.org/2000/svg">
    <path transform="scale(1, -1) translate(0, -1536)" glyph-name="github_square" unicode="&#xf092;" 

d="M519 336v0c2 3 1 9 -3 13c-5 4 -11 5 -14 2c-2 -3 -1 -9 3 -13c5 -4 11 -5 14 -2zM491 377c-3 4 -8 6 -12 4c-3 -2 -3 -8 0 -12c4 -5 9 -7 12 -5v0c3 2 3 8 0 13zM450 417v0c1 2 -1 6 -5 8c-3 1 -7 1 -8 -2c-2 -3 0 -6 4 -8c4 -1 8 -1 9 2zM471 394v0c2 2 2 7 -2 10
c-3 4 -8 5 -10 3c-3 -3 -2 -7 1 -11c3 -3 8 -5 11 -2zM557 319v0c1 4 -3 9 -9 11s-11 0 -13 -4c-1 -4 3 -9 9 -11s11 0 13 4zM599 316v0c0 4 -5 8 -12 8c-6 0 -10 -4 -10 -8s5 -8 11 -8s11 4 11 8zM638 323v0c-1 4 -7 6 -13 5s-10 -5 -9 -9s6 -7 12 -6s10 6 10 10zM1280 640
c0 283 -229 512 -512 512s-512 -229 -512 -512c0 -226 147 -418 350 -486c26 -5 35 11 35 25c0 12 0 52 -1 95c0 0 -142 -31 -172 61c0 0 -23 59 -57 74c0 0 -46 32 4 32c0 0 50 -4 78 -53c45 -79 120 -56 149 -43c5 33 18 56 33 69c-114 13 -234 57 -234 253
c0 56 20 101 53 137c-5 13 -23 65 5 136c43 13 141 -53 141 -53c41 12 84 17 128 17s87 -5 128 -17c0 0 98 66 141 53c28 -71 10 -123 5 -136c33 -36 53 -81 53 -137c0 -197 -120 -240 -234 -253c18 -16 35 -47 35 -95c0 -68 -1 -123 -1 -140c0 -14 9 -30 35 -25
c203 68 350 260 350 486zM1536 1120v-960c0 -159 -129 -288 -288 -288h-960c-159 0 -288 129 -288 288v960c0 159 129 288 288 288h960c159 0 288 -129 288 -288z" />
</svg>