<?xml version="1.0" standalone="no"?>
<svg width="1536px" height="1536px" version="1.1" xmlns="http://www.w3.org/2000/svg">
    <path transform="scale(1, -1) translate(0, -1536)" glyph-name="glide" unicode="&#xf2a5;" 

d="M866 1021c0 -32 -7 -63 -13 -94c-21 -100 -41 -200 -62 -300c-3 -14 -3 -14 -18 -15c-10 -1 -21 -2 -31 -2c-86 0 -110 93 -110 163c0 104 41 243 138 298c16 8 33 14 51 14c41 0 45 -30 45 -64zM1352 597c0 18 -74 135 -91 142c-8 3 -25 8 -34 8
c-82 0 -156 -37 -226 -77l-2 2c16 107 52 202 52 313c0 159 -85 233 -242 233c-23 0 -46 -3 -68 -6c-197 -35 -317 -260 -317 -445c0 -196 113 -304 308 -304c4 0 25 2 25 -3c0 -2 0 -3 -1 -5c-4 -38 -16 -80 -26 -117c-15 -55 -67 -150 -134 -150c-29 0 -42 20 -42 47
c0 87 100 139 102 144c0 4 -5 8 -7 10c-31 28 -82 51 -124 51c-76 0 -117 -122 -117 -184c0 -116 73 -196 190 -196c173 0 299 182 338 332c11 44 19 89 30 133c2 9 5 13 14 18c71 36 146 60 227 60c44 0 83 -8 127 -18c1 -1 3 -1 4 -1c6 0 14 7 14 13zM1536 1120v-960
c0 -159 -129 -288 -288 -288h-960c-159 0 -288 129 -288 288v960c0 159 129 288 288 288h960c159 0 288 -129 288 -288z" />
</svg>