<svg width="1536" height="1536" xmlns="http://www.w3.org/2000/svg">
    <path d="M744 305c0-53-5-99-69-99-27 0-54 9-78 23-151 83-213 298-213 460 0 108 37 252 169 252 30 0 68 8 76-27 32-154 64-309 96-463 10-48 19-97 19-146zm754 656c0 10-13 20-23 20l-6-1c-68-10-128-28-197-28-125 0-240 37-351 93-14 7-17 13-21 27-18 68-30 138-47 206-60 233-255 514-522 514-182 0-294-124-294-303 0-97 63-286 180-286 41 0 202 53 203 95-2 8-157 88-157 223 0 41 20 73 65 73 159 0 232-290 248-412v-9c0-8-32-4-38-4-301 0-477-168-477-471C61 412 247 63 552 10c35-6 70-9 106-9 242 0 374 113 374 360 0 167-57 321-81 484l3 3c108-61 222-119 350-119 13 0 41 8 53 13 26 10 141 191 141 219z"/>
</svg>
