<?xml version="1.0" standalone="no"?>
<svg width="1536px" height="1536px" version="1.1" xmlns="http://www.w3.org/2000/svg">
    <path transform="scale(1, -1) translate(0, -1536)" glyph-name="glide_g" unicode="&#xf2a6;" horiz-adv-x="1535" 

d="M744 1231c0 53 -5 99 -69 99c-27 0 -54 -9 -78 -23c-151 -83 -213 -298 -213 -460c0 -108 37 -252 169 -252c30 0 68 -8 76 27c32 154 64 309 96 463c10 48 19 97 19 146zM1498 575c0 -10 -13 -20 -23 -20l-6 1c-68 10 -128 28 -197 28c-125 0 -240 -37 -351 -93
c-14 -7 -17 -13 -21 -27c-18 -68 -30 -138 -47 -206c-60 -233 -255 -514 -522 -514c-182 0 -294 124 -294 303c0 97 63 286 180 286c41 0 202 -53 203 -95c-2 -8 -157 -88 -157 -223c0 -41 20 -73 65 -73c159 0 232 290 248 412v9c0 8 -32 4 -38 4c-301 0 -477 168 -477 471
c0 286 186 635 491 688c35 6 70 9 106 9c242 0 374 -113 374 -360c0 -167 -57 -321 -81 -484l3 -3c108 61 222 119 350 119c13 0 41 -8 53 -13c26 -10 141 -191 141 -219z" />
</svg>