<svg width="1536" height="1536" xmlns="http://www.w3.org/2000/svg">
    <path d="M866 515c0 32-7 63-13 94-21 100-41 200-62 300-3 14-3 14-18 15-10 1-21 2-31 2-86 0-110-93-110-163 0-104 41-243 138-298 16-8 33-14 51-14 41 0 45 30 45 64zm486 424c0-18-74-135-91-142-8-3-25-8-34-8-82 0-156 37-226 77l-2-2c16-107 52-202 52-313 0-159-85-233-242-233-23 0-46 3-68 6-197 35-317 260-317 445 0 196 113 304 308 304 4 0 25-2 25 3 0 2 0 3-1 5-4 38-16 80-26 117-15 55-67 150-134 150-29 0-42-20-42-47 0-87 100-139 102-144 0-4-5-8-7-10-31-28-82-51-124-51-76 0-117 122-117 184 0 116 73 196 190 196 173 0 299-182 338-332 11-44 19-89 30-133 2-9 5-13 14-18 71-36 146-60 227-60 44 0 83 8 127 18 1 1 3 1 4 1 6 0 14-7 14-13zm184-523v960c0 159-129 288-288 288H288c-159 0-288-129-288-288V416c0-159 129-288 288-288h960c159 0 288 129 288 288z"/>
</svg>
