<svg xmlns="http://www.w3.org/2000/svg" width="1536" height="1796">
    <path style="isolation:auto;mix-blend-mode:normal" d="M768 132c-203.686 0-399.03 80.914-543.058 224.942C80.914 500.97 0 696.314 0 900c0 203.686 80.914 399.03 224.942 543.058C368.97 1587.086 564.314 1668 768 1668c203.686 0 399.03-80.914 543.058-224.942C1455.086 1299.03 1536 1103.686 1536 900c0-203.686-80.914-399.03-224.942-543.058C1167.03 212.914 971.686 132 768 132zm95.498 238.523c77.428.198 183.219 21.268 252.443 28.977 14.432 1.607 33.773 2.891 55.276 4.098a640.002 640.002 0 0 1 96.941 97.238c-35.968 18.878-62.87 23.824-62.87 44.38 0 24.833 20.169 63.857 28.097 87.624 7.927 23.773 35.43 58.559 28.83 86.447-6.6 27.888-38.15 38.046-57.223 57.068-50.992 50.993-42.063 80.983-56.699 115.284-8.02 16.007-7.355 59.037-29.943 59.037-22.589 0-37.3-52.25-53.248-68.193-15.948-15.944-19.548-34.267-43.63-30.35-24.083 3.9-40.756 25.186-48.671 41.025-7.915 15.84-4.506 57.6-29.719 57.6-25.216 0-59.814-19.454-67.69-35.218-33.165-57.443-78.289-40.875-107.25-21.356-29.014 19.348-56.078 61.114-87.04 58.046-30.963-3.085-38.68-38.692-58.018-58.035-19.339-19.349-36.408-49.106-58.016-58.04-21.607-8.93-48.278-7.137-58.22 0-9.943 7.24-4.754 9.732-4.807 14.814-.049 5.064-4.21 4.133 4.336 14.297 8.54 10.14 36.577 10.285 57.746 29.005 21.17 18.72 38.813 58.198 58.219 87.297 19.406 29.1 50.335 61.278 58.217 87.297 7.881 26.026 0 38.814 0 58.22 0 19.408 9.666 17.277 0 58.222-9.667 40.95-62.97 125.948-86.856 173.726-15.826 31.653-32.252 97.616-52.775 138.533a640 640 0 0 1-176.422-101.373c-1.375-42.05 3.267-86.101-3.149-119.834-7.744-38.761-28.52-142.456-29.15-145.076-.629-2.62-56.451-41.102-88.139-62.232-31.687-21.13-76.5-27.063-87.152-58.123-10.653-31.061 19.454-58.349 29.182-87.524 9.727-29.174-18.36-55.869 29.183-87.529 47.543-31.654 213.126 75.049 249.75 18.55 36.624-56.503-74.499-92.395-72.904-135.15 1.595-42.749 49.403-65.72 55.592-86.873 6.188-21.153 19.7-18.561 0-29.103-19.7-10.542-58.21 38.82-87.315 58.226-29.105 19.413-59.061 73.35-87.314 58.227-28.254-15.117 0-58.21 0-87.314 0-29.105-15.104-59.083 0-87.315 15.103-28.226 58.108-38.749 87.162-58.121 29.055-19.378 38.717-39.624 87.164-58.129 48.448-18.51 136.227-19.435 204.34-29.15 68.113-9.721 126.372-27.954 204.34-29.153a411.41 411.41 0 0 1 7.402-.047zm387.363 754.438c3.94.075 7.789.82 11.528 2.37 34.182 14.156 19.392 58.168 29.09 87.25 3.645 10.936 8.66 21.706 13.5 32.495a639.999 639.999 0 0 1-124.813 141.66c-10.28-12.212-21.418-23.894-33-28.695-21.5-8.906-39.117 0-58.676 0-19.558 0-44.9 13.778-58.676 0-13.774-13.772 0-38.802 0-58.203 0-19.401-16.492-31.522 0-58.211 16.492-26.683 77.526-38.76 116.288-58.145 34.522-17.263 72.677-61.132 104.76-60.521z" color="#000" overflow="visible"/>
</svg>
