<svg xmlns="http://www.w3.org/2000/svg" width="1536" height="1796">
    <path d="M768 132A768 768 0 0 0 0 900a768 768 0 0 0 768 768 768 768 0 0 0 768-768 768 768 0 0 0-768-768zm0 79.35a688.65 688.65 0 0 1 8.33.416c23.483 5.116 45.942 13.227 54.008 27.198 22.957 39.762 1.208 54.97-8.33 83.32-9.538 28.352-43.328 76.653-49.994 81.653-6.665 4.999-94.983 48.325-98.316 54.99-3.333 6.666-39.993 54.991-46.659 54.991-6.665 0-57.251-31.027-71.655-53.324-14.404-22.297-13.33-56.658-14.996-68.323-1.667-11.664-33.33-59.99-41.662-63.323-8.332-3.332-54.99-6.664-54.99-6.664s-5.46-15.49 2.888-30.85A688.65 688.65 0 0 1 768 211.35zm-345.14 93.716c-6.598 10.84-14.313 20.791-25.783 27.215-11.384 6.376-25.152 12.28-39.542 15.69a688.65 688.65 0 0 1 65.326-42.905zm-30.124 46.457c20.354.168 44.163 2.988 60.998 9.088 26.936 9.76 64.99 39.993 64.99 46.658 0 6.666 11.812 64.76-9.999 74.989-21.81 10.229-43.64-22.367-58.324-36.662-14.684-14.296-17.631-35.038-29.994-44.992-12.362-9.954-24.168-9.701-38.326-14.998-14.159-5.297-45.531-3.355-46.66-16.663-.149-1.742-.139-3.203.029-4.447a688.65 688.65 0 0 1 9.307-7.388c4.228-.853 9.946-1.513 17.327-3.163 7.47-1.67 18.439-2.523 30.652-2.422zm680.618 6.19c22.828-.04 46.104 2.898 50.27 2.898 6.665 0 17.355 60.85 43.325 68.322 24.172 6.956 49.093-22.708 68.969-33.025a688.65 688.65 0 0 1 218.119 448.057c-9.272 15.232-10.768 45.917-20.466 59.889-11.53 16.613-28.328 34.993-36.66 33.327-8.332-1.667-29.994-74.987-34.993-89.985-5-14.997-40.763-56.42-59.99-53.324-19.227 3.097-9.86 18.766-18.331 31.663-8.471 12.896-16.157 35.453-33.327 44.992-17.17 9.538-34.939 18.196-61.657 4.997-26.718-13.2-41.323-96.813-63.323-98.317-22-1.503-7.976-.946-9.999 11.666-2.022 12.611 11.614 36.554 23.33 56.657 11.717 20.103 28.744 51.743 48.326 61.657 19.582 9.913 40.158-15.656 53.324 1.666 13.166 17.322-6.666 41.659-18.33 74.986-11.666 33.328-24.996 66.657-31.662 83.32-6.665 16.665-21.664 44.994-34.995 58.325-13.331 13.33-14.996 49.992-19.995 63.323-5 13.33-29.996 66.654-31.663 73.32-1.666 6.665-57.705 11.54-83.318-3.333-25.614-14.873-48.326-71.654-49.992-79.986-1.666-8.332 1.203-52.114-1.666-76.655-2.87-24.54-11.19-49.69-14.999-69.987-3.808-20.296 3.333-29.994-8.332-51.658-11.665-21.663-4.237-20.1-14.996-26.663-10.759-6.562-31.663-1.666-44.994-1.666s-44.992 0-51.658-6.666c-6.666-6.666-18.329-26.661-21.662-33.327-3.333-6.666-24.997-53.325-26.663-59.99-1.666-6.666 11.665-49.992 13.332-56.658 1.666-6.665 8.408-38.123 21.663-53.324 13.256-15.2 32.11-23.002 54.991-31.663 22.881-8.66 73.32-16.662 81.652-16.662 8.332 0 12.318 26.716 28.33 33.327 16.012 6.611 39.504-7.713 59.988-5 20.485 2.714 45.415 25.923 59.99 21.664 14.577-4.259 23.109-4.381 16.665-21.663-6.444-17.283-51.657-9.997-81.652-16.663-29.995-6.665-28.386-24.91-46.66-29.996-18.276-5.085-33.673-3.06-58.324 1.666-24.652 4.727-79.986 31.661-86.652 31.661-6.665 0-19.997-34.994-21.664-41.66-1.666-6.665 15.398-22.008 24.997-38.326 9.6-16.317 21.662-54.99 31.66-59.99 9.999-4.999 49.992-14.998 56.658-16.664 6.665-1.667-1.665-29.995-11.663-33.327-9.999-3.333 0-48.326 3.333-58.324 3.332-9.998 48.325-46.659 51.658-53.325 3.332-6.665 28.923-35.806 53.324-44.992 9.15-3.444 22.685-4.54 36.382-4.564zM326.48 372.376c18.378 6.683 37.306 18.6 43.428 28.676 10.188 16.772 5.848 23.688-2.358 35.35-8.206 11.662-33.24 9.975-45.954 20.03-12.714 10.057-29.554 21.71-28.28 37.708 1.273 16 22.697 26.418 35.35 34.171 12.652 7.754 29.013 4.09 37.707 12.962 8.694 8.87 2.78 31.901 10.604 32.992 7.824 1.09 4.192-3.45 7.069-10.604 2.877-7.153 6.133-18.975 5.892-32.994-.24-14.02-14.773-34.828-10.605-49.488 4.167-14.66 8.447-27.456 28.28-29.458 19.834-2.002 41.744 27.37 64.808 44.775 23.064 17.405 73.045 35.678 73.055 60.094.007 24.416-18.294 12.047-40.063 32.994-21.77 20.947-64.585 69.345-86.017 96.62-21.433 27.277-40.174 44.014-44.775 64.808-4.6 20.794 11.315 38.676 8.248 48.312-3.067 9.636 1.579 9.732-8.248 8.248s-7.142-34.295-22.388-42.42c-15.247-8.124-41.806 1.395-55.38 5.891-13.576 4.496-19.88 4.396-25.924 15.32-6.044 10.922-6.032 35.182 1.177 44.774 7.21 9.592 15.686 10.615 25.923 8.25 10.237-2.365 14.93-24.265 25.923-24.746 10.992-.48 20.582 10.53 23.567 18.854 2.985 8.324-6.72 10.9-4.713 22.388 2.006 11.487 20.768 30.17 24.744 40.061 3.976 9.891-7.05 11.348 3.534 16.498 10.584 5.151 27.006-20.554 48.312-23.567 21.306-3.013 50.343 4.632 74.234 12.962 23.892 8.33 44.772 23.961 67.163 36.528 22.392 12.568 46.722 21.65 67.166 38.885 20.443 17.235 44.254 32.367 53.022 63.629s-1.196 81.087-16.496 110.76c-15.3 29.675-41.71 37.962-63.628 61.274-21.918 23.311-65.985 74.232-67.163 78.945-1.179 4.714-42.119 57.852-58.918 83.662-16.798 25.81-23.943 67.379-42.419 70.7-18.475 3.32-16.814-10.503-23.565-18.854-6.751-8.351-11.896-12.428-15.32-30.637-3.422-18.21 5.894-71.877 7.072-76.59 1.178-4.713 24.595-107.127 21.21-140.22-3.386-33.095-10.744-30.965-20.033-54.202-9.29-23.238-29.505-61.098-36.527-84.839-7.022-23.74-11.693-39.414-9.427-55.38 2.267-15.966 21.59-20.415 17.675-36.529-3.914-16.114-22.348-20.188-47.132-35.35-24.785-15.161-78.303-34.686-103.692-50.667-25.39-15.98-33.908-20.776-50.667-40.063-16.76-19.287-28.493-49.282-44.777-76.59-6.03-10.113-13.835-20.888-21.652-31.853a688.65 688.65 0 0 1 220.958-342.07zm-38.27 33.617a688.65 688.65 0 0 1 .002 0 688.65 688.65 0 0 0-46.923 50.365 688.65 688.65 0 0 1 46.921-50.365zm500.56 11.347c10.614-.003 18.368 3.805 20.219 9.93 2.796 9.25-8.506 20.85-25.244 25.91-16.739 5.059-32.576 1.662-35.371-7.59-2.796-9.25 8.507-20.85 25.245-25.908 5.078-1.535 10.288-2.34 15.15-2.342zM622.136 1439.663a21.974 21.974 0 0 1 6.062.762s-36.188 43-40.511 60.768-5.641 26.96 4.051 36.46 28.976 3.993 44.564 4.051c8.212.031 16.99-1.91 25.71-3.329 4.348-1.87 9.315-4.295 15.414-7.825 26.798-15.51 172-64.883 204.406-71.614 32.406-6.73 54.037 8.96 71.616 14.323 17.579 5.362 22.916 11.457 34.375 14.322 9.595 2.399 66.956 11.977 85.723 29.203A688.65 688.65 0 0 1 768 1588.65a688.65 688.65 0 0 1-270.264-55.373c18.268-1.827 32.62-11.09 45.387-19.93 14.416-9.983 18.333-23.992 32.41-36.46 12.76-11.3 27.521-36.922 46.603-37.225z"/>
</svg>
