<svg xmlns="http://www.w3.org/2000/svg" width="1536" height="1796">
    <path d="M768 132A768 768 0 0 0 0 900a768 768 0 0 0 768 768 768 768 0 0 0 768-768 768 768 0 0 0-768-768zm0 79.349a688.65 688.65 0 0 0-60.074 3.104A688.65 688.65 0 0 1 768 211.349zm38.512 1.927a688.65 688.65 0 0 1 40.132 3.01 688.65 688.65 0 0 0-40.132-3.01zM680 217.843a688.65 688.65 0 0 0-41.769 6.381 688.65 688.65 0 0 1 41.77-6.381zm189.051 1.828a688.65 688.65 0 0 1 47.362 8.366 688.65 688.65 0 0 0-47.362-8.366zm-253.282 9.596a688.65 688.65 0 0 0-45.85 11.786 688.65 688.65 0 0 1 45.85-11.786zm315.035 2.446a688.65 688.65 0 0 1 53.78 15.166 688.65 688.65 0 0 0-53.78-15.166zm-377.951 15.011a688.65 688.65 0 0 0-49.14 18.028 688.65 688.65 0 0 1 49.14-18.028zm438.486 2.62a688.65 688.65 0 0 1 73.257 30.096 688.65 688.65 0 0 1 130.188 81.036 688.65 688.65 0 0 1 48.774 42.548 688.65 688.65 0 0 1 38.888 40.455 688.65 688.65 0 0 1 45.836 57.595 688.65 688.65 0 0 1 36.135 56.372A688.65 688.65 0 0 1 1383 590.467c-3.08.152-6.762-.796-11.534-3.227-7.35-3.744-7.449-15.915-7.05-29.794a688.65 688.65 0 0 0-36.135-56.372c-23.998-2.2-52.568 6.212-61.797 21.177-12.88 20.884 19.918 35.614 18.329 56.657-1.59 21.043-16.524 44.226-29.994 59.99-13.47 15.764-41.403 20.267-46.659 33.327-5.256 13.06 3.333 19.998 5 26.663 1.666 6.666-12.698 21.588-24.997 24.995-12.3 3.407-23.721-22.438-39.993-9.999-16.272 12.44 13.614 58.163-1.667 81.654-15.28 23.492-67.829 21.317-78.32 36.66-10.493 15.344.754 9.287-1.667 24.997-2.421 15.71-3.332 69.989-16.663 68.323-13.331-1.667-25.504 1.566-43.328-11.666-17.823-13.231-28.679-64.458-46.658-74.988-17.98-10.53-21.461-11.46-36.66-1.666-15.199 9.794-15.132 50.043-26.663 66.656-11.531 16.613-28.328 34.993-36.66 33.327-8.332-1.667-29.994-74.987-34.994-89.985-4.999-14.997-40.763-56.42-59.99-53.324-19.227 3.097-9.86 18.766-18.33 31.663-8.471 12.896-16.158 35.453-33.328 44.992-17.17 9.538-34.938 18.196-61.656 4.997-26.718-13.2-41.323-96.813-63.323-98.317-22-1.503-7.977-.946-10 11.666-2.022 12.611 11.614 36.554 23.331 56.657 11.717 20.103 28.743 51.743 48.325 61.657 19.582 9.913 40.159-15.656 53.325 1.666 13.165 17.322-6.667 41.659-18.331 74.986-11.665 33.328-24.995 66.657-31.661 83.32-6.665 16.665-21.664 44.993-34.995 58.325-13.331 13.33-14.997 49.992-19.996 63.323-4.999 13.33-29.996 66.654-31.662 73.32-1.667 6.665-57.706 11.54-83.319-3.333s-48.325-71.654-49.992-79.986c-1.666-8.332 1.204-52.114-1.666-76.655-2.87-24.54-11.19-49.69-14.998-69.987-3.809-20.296 3.332-29.995-8.332-51.658-11.665-21.663-4.238-20.1-14.996-26.663-10.76-6.562-31.663-1.666-44.994-1.666-13.332 0-44.993 0-51.659-6.666-6.665-6.666-18.328-26.661-21.661-33.327-3.333-6.666-24.997-53.325-26.664-59.99-1.666-6.666 11.666-49.992 13.332-56.658 1.667-6.665 8.408-38.123 21.664-53.324 13.255-15.2 32.11-23.002 54.99-31.663 22.881-8.66 73.321-16.662 81.653-16.662 8.332 0 12.318 26.716 28.33 33.327 16.011 6.611 39.503-7.713 59.988-5 20.484 2.714 45.414 25.923 59.99 21.664 14.576-4.259 23.108-4.381 16.665-21.663-6.444-17.283-51.658-9.997-81.653-16.663-29.995-6.666-28.385-24.911-46.66-29.996-18.275-5.085-33.673-3.06-58.324 1.666-24.651 4.727-79.986 31.661-86.651 31.661-6.666 0-19.998-34.994-21.664-41.66-1.667-6.665 15.397-22.008 24.997-38.326 9.599-16.317 21.662-54.99 31.66-59.99 9.998-5 49.992-14.998 56.657-16.664 6.666-1.667-1.665-29.995-11.663-33.327-9.998-3.333 0-48.326 3.333-58.324 3.333-9.999 48.325-46.66 51.658-53.325 3.333-6.665 28.923-35.806 53.325-44.992 24.4-9.186 79.985-1.666 86.65-1.666 6.667 0 17.356 60.85 43.327 68.322 25.97 7.473 52.808-27.339 73.322-34.995 20.513-7.657 32.02-4.043 48.325-13.332 16.305-9.289 26.22-38.017 44.992-43.325 18.772-5.309 36.987 17.739 53.324 11.665 16.337-6.074 4.82-26.31 29.996-39.993 25.176-13.683 96.65 1.666 121.645-8.332 24.215-9.686 21.066-28.822 44.325-28.43.75.013 1.529.045 2.336.1.724.048 1.45.146 2.177.276a688.65 688.65 0 0 0-59.026-23.222zm73.257 30.096c21.108 15.541 42.976 51.307 61.911 56.174 14.192 3.648 21.593-.995 29.054-4.766a688.65 688.65 0 0 0-90.965-51.408zm-572.842-9.336a688.65 688.65 0 0 0-51.427 24.943 688.65 688.65 0 0 1 51.427-24.943zm-58.756 29.148a688.65 688.65 0 0 0-52.563 32.342 688.65 688.65 0 0 1 52.563-32.342zm-55.91 34.735a688.65 688.65 0 0 0-52.45 40.008 688.65 688.65 0 0 1 52.45-40.008zm-52.498 40.05a688.65 688.65 0 0 0-53.833 50.694c.517.796.932 1.64 1.204 2.54 2.796 9.25-8.505 20.85-25.243 25.909-1.102.333-2.2.625-3.29.885a688.65 688.65 0 0 0-39.654 51.646 688.65 688.65 0 0 1 39.654-51.646 688.65 688.65 0 0 1 27.329-29.334 688.65 688.65 0 0 1 53.833-50.695zM201.405 508.824a688.65 688.65 0 0 0-32.126 51.84 688.65 688.65 0 0 1 32.126-51.84zm-36.33 58.698a688.65 688.65 0 0 0-24.935 50.994 688.65 688.65 0 0 1 24.934-50.994zm1148.84 21.81c6.655-.331 8.196 12.338 11.962 18.795 4.155 7.126 8.55 16.384 10.141 24.34 1.591 7.955 5.98 20.145 0 22.31-5.978 2.164-6.628-6.797-10.141-12.17-3.514-5.372-7.467-11.446-10.142-20.28-2.675-8.834-12.652-28.891-4.055-32.452.805-.334 1.547-.508 2.236-.543zM134.803 629.567A688.65 688.65 0 0 0 116.71 678.4a688.65 688.65 0 0 1 18.092-48.832zm1270.224 10.116a688.65 688.65 0 0 1 13.643 37.322 688.65 688.65 0 0 0-13.643-37.322zm-93.092 18.619c7.059-.161 11.422 13.773 17.998 14.73 7.256 1.056 13.548-6.419 18.255-6.084 4.707.334 7.196-.482 8.113 4.055.916 4.537-7.42 8.465-12.169 14.2-4.749 5.734-10.024 18.449-16.226 20.28-6.202 1.832-8.223-1.363-12.17-4.057-3.946-2.693-7.99-4.717-10.142-12.168-2.151-7.451-4.404-26.708 4.058-30.423.793-.349 1.553-.516 2.283-.533zM110.886 694.357a688.65 688.65 0 0 0-11.845 45.468 688.65 688.65 0 0 1 11.845-45.468zM1427.971 705a688.65 688.65 0 0 1 9.477 37.048 688.65 688.65 0 0 0-9.477-37.048zm-121.538 2.072c9.767-.194 24.125 10.935 27.557 18.693 3.786 8.56 1.806 13-4.058 20.283-5.864 7.283-23.328 10.129-32.45 14.197-9.122 4.069-14.53 11.553-22.312 10.142-7.782-1.411-16.518-9.768-16.225-16.226.292-6.458 6.478-5.985 12.17-10.141 5.691-4.157 16.74-7.787 22.31-14.198 5.57-6.41.596-19.337 10.142-22.31.894-.278 1.856-.42 2.866-.44zM93.576 761.23a688.65 688.65 0 0 0-6.468 41.442 688.65 688.65 0 0 1 6.468-41.442zM1444.24 772.3a688.65 688.65 0 0 1 5.508 36.337 688.65 688.65 0 0 0-5.508-36.337zM83.056 829.492a688.65 688.65 0 0 0-2.029 36.985 688.65 688.65 0 0 1 2.03-36.985zm1370.609 11.4A688.65 688.65 0 0 1 1456.65 900a688.65 688.65 0 0 0-2.986-59.107zm-281.787 44.756c6.073-.037 13.387 6.44 17.471 10.876 5.446 5.915 5.346 13.814 6.263 22.966.916 9.153 3.887 26.473-2.088 31.316s-9.77 3.886-14.614-2.09c-4.843-5.974 4.194-20.848 2.088-31.315-2.106-10.468-20.946-22.12-14.613-29.227 1.584-1.776 3.469-2.514 5.493-2.526zM79.349 900a688.65 688.65 0 0 0 4.508 71.642A688.65 688.65 0 0 1 79.349 900zm1375.416 37.698a688.65 688.65 0 0 1-2.399 36.636 688.65 688.65 0 0 0 2.4-36.636zm-326.89 20.914c6.086-.014 11.891.926 15.544 2.631 9.741 4.55 12.683 14.314 12.527 20.879-.156 6.565-1.27 9.318-8.352 12.525-7.083 3.206-23.383 1.276-31.316-4.175s-17.406-13.048-12.525-22.964c3.051-6.198 13.977-8.873 24.122-8.896zm-83.55 4.04c4.198.244 5.255 8.843 11.409 13.206 8.13 5.764 19.065 17.914 31.316 25.053 12.25 7.139 27.075 12.478 41.755 16.702 14.68 4.224 46.41-10.3 45.93 8.35-.48 18.65-45.734 10.833-64.72 8.351-18.984-2.482-33.02-6.816-45.93-18.789-12.91-11.972-34.39-41.615-25.053-50.105 2.042-1.857 3.602-2.678 4.876-2.767.142-.01.282-.01.417 0zm175.165 4.723c1.083-.023 2.173.02 3.263.133 8.718.908 15.659 11.418 25.053 16.701 9.394 5.284 23.542 5.572 31.316 14.615 7.775 9.043 17.9 28.481 10.437 35.49-7.463 7.01-14.459-3.954-22.964-8.351-8.504-4.397-16.688-13.105-27.14-18.79-10.454-5.684-29.906-7.3-35.491-14.614-5.586-7.313-5.417-11.057-2.088-16.701 2.913-4.939 10.038-8.322 17.614-8.483zM83.867 971.724a130.108 130.108 0 0 1 7.065 5.526c20.444 17.235 44.255 32.367 53.023 63.628 8.768 31.263-1.196 81.088-16.496 110.762-.065.127-.136.246-.202.372a688.65 688.65 0 0 1 0-.01 688.65 688.65 0 0 1-5.775-16.524 688.65 688.65 0 0 1-.014-.04 688.65 688.65 0 0 1-11.814-35.56 688.65 688.65 0 0 1-13.504-52.632 688.65 688.65 0 0 1-2.42-10.785 688.65 688.65 0 0 1-9.856-64.704 688.65 688.65 0 0 1 0-.027zm1364.138 31.464a688.65 688.65 0 0 1-6.613 39.621 688.65 688.65 0 0 0 6.613-39.62zm-12.975 64.536a688.65 688.65 0 0 1-11.442 42.102 688.65 688.65 0 0 0 11.442-42.102zm-211.59 2.046c1.676.038 3.254.271 4.715.723 23.383 7.226 7.564 45.897 24.997 46.658 17.433.761 12.93-41.509 28.328-43.325 15.397-1.817 21.47 15.706 29.996 28.327 8.527 12.621 4.998 36.66 18.329 46.659 13.331 9.998 41.661 49.992 38.328 56.657-3.333 6.666-30.646 75.552-48.325 89.987-17.678 14.434-20.66 11.89-33.329 9.998-12.668-1.892-23.05-15.277-34.993-23.33-11.944-8.053-19.722-20.782-36.66-24.997-16.939-4.215-41.381 4.133-59.99 6.666-18.61 2.533-51.658 11.665-51.658 8.332 0-3.332-25.756-43.99-26.664-64.99-.908-20.999 8.333-49.99 16.665-53.324 8.332-3.332 44.992-38.326 51.658-39.993 6.249-1.562 53.46-44.625 78.603-44.048zm192.488 61.042a688.65 688.65 0 0 1-16.784 43.872 688.65 688.65 0 0 0 16.784-43.872zm-1288.642 21.264a688.65 688.65 0 0 0 408.157 395.213 688.65 688.65 0 0 1-408.157-395.213zm1263.533 39.838a688.65 688.65 0 0 1-22.512 44.832 688.65 688.65 0 0 0 22.512-44.832zm-30.875 58.473a688.65 688.65 0 0 1-28.553 45.002 688.65 688.65 0 0 0 28.553-45.002zm-36.403 55.328a688.65 688.65 0 0 1-34.743 44.271 688.65 688.65 0 0 0 34.743-44.271zm-41.732 51.775a688.65 688.65 0 0 1-40.83 42.5 688.65 688.65 0 0 0 40.83-42.5zm-46.786 47.73a688.65 688.65 0 0 1-46.621 39.703 688.65 688.65 0 0 0 46.62-39.703zm-372.347 34.441c18.153-.161 37.324 2.512 50.88 4.181 21.693 2.67 33.383 4.61 48.616 12.155 15.232 7.544 37.378 20.531 40.51 32.408 3.13 11.877-.823 9.825-8.102 20.256-7.278 10.431-32.231 26.411-40.511 36.46-8.28 10.05-13.007 10.13-12.153 20.256.014.172.046.316.07.472a688.65 688.65 0 0 0 64.952-20.477 688.65 688.65 0 0 1-64.952 20.477A688.65 688.65 0 0 1 768 1588.651a688.65 688.65 0 0 1-45.966-2.301 688.65 688.65 0 0 1-43.885-4.33 688.65 688.65 0 0 1-19.299-2.916 688.65 688.65 0 0 1-53.017-10.654 688.65 688.65 0 0 1-9.335-2.384 688.65 688.65 0 0 1-.01 0 688.65 688.65 0 0 1-61.016-18.763 688.65 688.65 0 0 1-.01 0c10.96-15.833 31.726-17.211 49.946-30.537 23.51-17.193 50.464-46.166 85.076-52.664 34.61-6.499 80.589 27.188 109.38 20.256 28.791-6.933 29.396-32.598 52.665-40.512 8.725-2.968 19.25-4.084 30.143-4.18zm321.05 8.607a688.65 688.65 0 0 1-52.137 36.082 688.65 688.65 0 0 0 52.136-36.082zm-55.332 37.915a688.65 688.65 0 0 1-57.214 31.66 688.65 688.65 0 0 0 57.214-31.66zm-59.153 32.528a688.65 688.65 0 0 1-61.48 26.387 688.65 688.65 0 0 0 61.48-26.387z"/>
</svg>
