<svg xmlns="http://www.w3.org/2000/svg" width="1536" height="1796">
    <path d="M768 132A768 768 0 0 0 0 900a768 768 0 0 0 768 768 768 768 0 0 0 768-768 768 768 0 0 0-768-768zm0 79.35a688.65 688.65 0 0 1 83.76 5.707c-9.454 13.993-44.67 26.788-63.336 45.237-20.03 19.797-26.16 54.773-53.324 69.987-27.165 15.214-67.89 27.8-98.317 9.999-30.427-17.802-58.547-69.343-44.992-103.316a48.813 48.813 0 0 1 2.23-4.815 688.65 688.65 0 0 0-269.257 139.735c7.518 1.17 15.714 2.2 24.844 2.61 40.098 1.803 26.816.685 74.35 5.706 47.533 5.022 99.657 15.248 130.791 17.675 31.135 2.427 41.273 8.462 55.38 1.177 14.109-7.285 2.824-27.343 22.39-32.992 2.445-.706 5.298-.981 8.44-.891 21.985.63 58.058 19.208 66.972 33.883 10.189 16.771 5.848 23.688-2.357 35.35-8.206 11.662-33.24 9.975-45.954 20.03-12.714 10.057-29.554 21.71-28.28 37.708 1.273 16 22.696 26.418 35.35 34.171 12.652 7.754 29.012 4.09 37.707 12.962 8.694 8.87 2.78 31.901 10.604 32.992 7.824 1.09 4.192-3.45 7.069-10.604 2.876-7.153 6.133-18.975 5.892-32.994-.24-14.02-14.773-34.828-10.606-49.488 4.168-14.66 8.447-27.456 28.281-29.458 19.834-2.002 41.744 27.37 64.808 44.775 23.063 17.405 73.045 35.678 73.055 60.094.01 24.416-18.294 12.047-40.063 32.994-21.77 20.947-64.585 69.345-86.017 96.62-21.433 27.277-40.174 44.014-44.775 64.808-4.601 20.794 11.315 38.676 8.248 48.312-3.067 9.636 1.579 9.732-8.248 8.248s-7.142-34.295-22.388-42.42c-15.247-8.124-41.806 1.395-55.381 5.891-13.575 4.496-19.879 4.396-25.923 15.32-6.044 10.922-6.032 35.182 1.177 44.774 7.21 9.592 15.686 10.615 25.923 8.25 10.237-2.365 14.93-24.265 25.923-24.746 10.992-.48 20.582 10.53 23.567 18.854 2.985 8.324-6.72 10.9-4.713 22.388 2.006 11.487 20.768 30.17 24.744 40.061 3.975 9.891-7.05 11.348 3.534 16.499 10.584 5.15 27.006-20.555 48.312-23.568 21.306-3.013 50.343 4.632 74.234 12.962 23.891 8.33 44.772 23.961 67.163 36.529 22.391 12.567 46.722 21.65 67.165 38.884 20.444 17.235 44.255 32.366 53.023 63.628s-1.196 81.088-16.496 110.762c-15.3 29.674-41.71 37.96-63.628 61.272-21.919 23.312-65.985 74.233-67.164 78.946-1.178 4.714-42.118 57.852-58.917 83.661-16.799 25.81-23.943 67.38-42.419 70.7-18.475 3.32-16.814-10.502-23.565-18.854-6.751-8.35-11.896-12.427-15.32-30.636-3.422-18.21 5.893-71.877 7.072-76.59 1.178-4.713 24.595-107.127 21.21-140.22-3.386-33.095-10.744-30.965-20.033-54.202-9.29-23.238-29.505-61.098-36.527-84.839-7.022-23.74-11.694-39.414-9.427-55.38 2.267-15.966 21.59-20.415 17.675-36.529-3.915-16.114-22.348-20.188-47.132-35.35-24.785-15.161-78.303-34.686-103.692-50.667-25.39-15.98-33.908-20.775-50.667-40.063-16.76-19.287-28.493-49.282-44.777-76.59-16.284-27.309-45.488-59.406-53.025-87.196-7.537-27.79 10.422-42.601 1.179-70.698-9.244-28.096-36.84-68.804-64.808-84.838-3.282-1.882-5.46-3.36-6.851-4.531-27.597-.307-57.622 17.334-79.28 5.896-14.988-7.916-25.118-21.134-30.258-36.556a688.65 688.65 0 0 0-39.93 54.862 688.65 688.65 0 0 1 39.93-54.862 688.65 688.65 0 0 1 92.609-94.492 688.65 688.65 0 0 1 269.258-139.735 688.65 688.65 0 0 1 42.448-9.53 688.65 688.65 0 0 1 46.118-7.09 688.65 688.65 0 0 1 24.519-2.976A688.65 688.65 0 0 1 768 211.349zM341.693 499.035h.846c24.56.605-11.311-8.809-.846 0zm554.61-275.246a688.65 688.65 0 0 1 .023 0 688.65 688.65 0 0 1 61.359 14.782 688.65 688.65 0 0 0-24.112-5.808 688.65 688.65 0 0 1 33.382 8.446 688.65 688.65 0 0 0-2.863-1 688.65 688.65 0 0 1 53.13 18.579 688.65 688.65 0 0 0-17.745-6.206 688.65 688.65 0 0 1 32.288 11.707 688.65 688.65 0 0 0-1.892-.883 688.65 688.65 0 0 1 44.45 20.73 688.65 688.65 0 0 0-11.346-5.292 688.65 688.65 0 0 1 31.018 14.902 688.65 688.65 0 0 0-.958-.57 688.65 688.65 0 0 1 35.906 21.351 688.65 688.65 0 0 0-5.398-3.212 688.65 688.65 0 0 1 32.743 19.978 688.65 688.65 0 0 0-.047-.03 688.65 688.65 0 0 1 .206.126 688.65 688.65 0 0 1 1.711 1.244 688.65 688.65 0 0 0-1.711-1.244c-12.501 28.534-40.423 68.045-46.418 72.54-6.665 5-94.984 48.326-98.317 54.992-3.332 6.665-39.993 54.99-46.658 54.99-6.666 0-57.252-31.027-71.656-53.324-14.403-22.297-13.33-56.658-14.996-68.322-1.666-11.665-33.33-59.99-41.661-63.323-8.332-3.333-54.99-6.664-54.99-6.664s-5.666-16.042 3.332-31.663c8.999-15.62 38.504-32.01 61.657-44.992 12.55-7.037 32.89-15.43 49.555-21.84zm227.25 87.532a688.65 688.65 0 0 0-29.55-17.569 688.65 688.65 0 0 1 29.55 17.57zm-60.568-32.47a688.65 688.65 0 0 0-31.212-14.556 688.65 688.65 0 0 1 31.212 14.555zm-63.5-26.263a688.65 688.65 0 0 0-32.522-11.373 688.65 688.65 0 0 1 32.523 11.373zm-65.903-19.819a688.65 688.65 0 0 0-37.248-8.974 688.65 688.65 0 0 1 37.248 8.974zM730.758 351.523c20.355.168 44.164 2.988 61 9.088 26.935 9.76 64.989 39.993 64.989 46.659 0 6.665 11.811 64.759-9.999 74.988-21.81 10.229-43.64-22.367-58.324-36.662-14.684-14.296-17.631-35.038-29.994-44.992-12.362-9.954-24.168-9.701-38.326-14.998-14.159-5.298-45.531-3.355-46.66-16.663-1.13-13.308 6.74-10.545 26.662-14.998 7.471-1.67 18.44-2.523 30.652-2.422zm462.1 7.488a688.65 688.65 0 0 1 37.395 31.617 688.65 688.65 0 0 0-37.395-31.617zm47.123 40.682a688.65 688.65 0 0 1 43.412 44.865 688.65 688.65 0 0 1 41.675 52.024 688.65 688.65 0 0 0-10.75-13.422 688.65 688.65 0 0 1 20.314 27.766 688.65 688.65 0 0 0-6.776-10.447 688.65 688.65 0 0 1 33.586 51.781 688.65 688.65 0 0 0-8.1-12.487 688.65 688.65 0 0 1 17.44 29.65 688.65 688.65 0 0 0-4.415-8.576 688.65 688.65 0 0 1 25.848 50.213 688.65 688.65 0 0 0-5.68-11.039 688.65 688.65 0 0 1 14.38 31.222 688.65 688.65 0 0 0-2.457-6.235 688.65 688.65 0 0 1 18.691 47.425 688.65 688.65 0 0 0-3.616-9.179 688.65 688.65 0 0 1 16.104 46.763 688.65 688.65 0 0 1 .012.033c-16.2-1.32-35.785-1.044-51.321-4.496-29.995-6.666-28.386-24.911-46.66-29.996-18.276-5.085-33.673-3.06-58.324 1.666-24.652 4.727-79.986 31.66-86.652 31.66-6.665 0-19.997-34.993-21.664-41.658-1.666-6.666 15.398-22.01 24.997-38.327 9.6-16.317 21.662-54.99 31.66-59.99 9.999-5 49.992-14.998 56.658-16.665 6.666-1.666-1.665-29.994-11.663-33.327-9.999-3.332 0-48.325 3.333-58.323 1.071-3.214 6.467-9.194 13.38-16.036a688.65 688.65 0 0 0-43.412-44.865zm43.412 44.865a688.65 688.65 0 0 1 30.924 38.602 688.65 688.65 0 0 0-30.924-38.602zm130.14 218.696a688.65 688.65 0 0 0-12.617-32.01 688.65 688.65 0 0 1 12.617 32.01zm-26.998-63.233a688.65 688.65 0 0 0-15.752-30.599 688.65 688.65 0 0 1 15.752 30.6zm-33.192-60.248a688.65 688.65 0 0 0-18.711-28.847 688.65 688.65 0 0 1 18.71 28.847zM1126.792 417.34c10.614 0 18.367 3.805 20.218 9.93 2.797 9.25-8.505 20.85-25.243 25.91-16.739 5.059-32.576 1.662-35.371-7.59-2.796-9.25 8.507-20.85 25.245-25.908 5.078-1.535 10.288-2.34 15.15-2.342zM189.764 527.254a688.65 688.65 0 0 0-31.839 54.446 688.65 688.65 0 0 1 31.839-54.446zm-36.069 63.203a688.65 688.65 0 0 0-24.139 52.751 688.65 688.65 0 0 1 24.14-52.75zm-29.267 66.8a688.65 688.65 0 0 0-17.047 49.909 688.65 688.65 0 0 1 17.047-49.91zm1170.58 36.632c8.331 0 12.317 26.716 28.329 33.327 16.012 6.611 39.504-7.713 59.988-5 18.156 2.406 39.799 20.896 54.634 22.107a688.65 688.65 0 0 0-8.308-34.269 688.65 688.65 0 0 1 8.308 34.27 688.65 688.65 0 0 1 6.948 38.58 688.65 688.65 0 0 0-4.837-29.181 688.65 688.65 0 0 1 11.217 67.592 688.65 688.65 0 0 0-6.38-38.411 688.65 688.65 0 0 1 6.41 38.648 688.65 688.65 0 0 1 1.809 14.911 688.65 688.65 0 0 1 3.525 63.535 688.65 688.65 0 0 1-2.383 47.604 688.65 688.65 0 0 1-3.99 40.54 688.65 688.65 0 0 1-3.68 24.36 688.65 688.65 0 0 1-9.308 46.375 688.65 688.65 0 0 1 0 .01 688.65 688.65 0 0 1-4.486 17.567 688.65 688.65 0 0 1-15.768 51.323 688.65 688.65 0 0 1-4.073 11.16 688.65 688.65 0 0 1-23.215 55.2 688.65 688.65 0 0 1-2.506 5.19 688.65 688.65 0 0 1-31.447 57.83 688.65 688.65 0 0 1-.01.012 688.65 688.65 0 0 1-493.937 324.278 688.65 688.65 0 0 1-93.85 7.204 688.65 688.65 0 0 1-62.49-3.127 688.65 688.65 0 0 1-52.979-7.375 688.65 688.65 0 0 1-78.883-17.918 688.65 688.65 0 0 1-40.907-13.928 688.65 688.65 0 0 0 40.907 13.928c7.898-6.232 10.069-4.697 23.918-8.396 16.134-4.31 45.124-11.371 68.87-8.103 23.747 3.267 47.053 28.103 68.87 28.358 21.815.256 38.248-10.273 52.664-20.255 14.416-9.983 18.332-23.992 32.41-36.46 12.759-11.3 27.52-36.921 46.602-37.224a21.971 21.971 0 0 1 6.063.761s-36.189 43-40.512 60.768-5.64 26.96 4.052 36.46c5.88 5.763 15.292 5.996 25.265 5.307a688.65 688.65 0 0 0 493.936-324.278c-24.556-16.976-45.836-70.306-47.447-78.36-1.667-8.332 1.203-52.114-1.667-76.655-2.87-24.541-11.189-49.691-14.998-69.987-3.809-20.296 3.333-29.995-8.332-51.658-11.665-21.663-4.237-20.1-14.996-26.663-10.759-6.563-31.663-1.667-44.994-1.667s-44.993 0-51.658-6.666c-6.666-6.665-18.33-26.661-21.662-33.327-3.333-6.665-24.997-53.324-26.663-59.99-1.667-6.665 11.665-49.992 13.331-56.657 1.667-6.666 8.409-38.124 21.664-53.324 13.255-15.201 32.11-23.002 54.991-31.663 22.88-8.661 73.32-16.663 81.652-16.663zM102.342 726.893a688.65 688.65 0 0 0-10.741 46.055 688.65 688.65 0 0 1 10.74-46.055zm-14.618 71.702a688.65 688.65 0 0 0-5.37 41.356 688.65 688.65 0 0 1 5.37-41.356zM79.349 900a688.65 688.65 0 0 0 3.002 59.226A688.65 688.65 0 0 1 79.35 900zm6.85 90.924a688.65 688.65 0 0 0 5.618 37.032 688.65 688.65 0 0 1-5.618-37.032zm12.186 66.288a688.65 688.65 0 0 0 9.772 38.17 688.65 688.65 0 0 1-9.772-38.17zm18.607 64.763a688.65 688.65 0 0 0 14.205 38.839 688.65 688.65 0 0 1-14.205-38.84zm24.866 62.66a688.65 688.65 0 0 0 18.846 38.954 688.65 688.65 0 0 1-18.846-38.953zm30.906 59.977a688.65 688.65 0 0 0 23.583 38.413 688.65 688.65 0 0 1-23.583-38.413zm36.713 56.773a688.65 688.65 0 0 0 28.289 37.163 688.65 688.65 0 0 1-28.289-37.163zm42.145 52.939a688.65 688.65 0 0 0 32.92 35.29 688.65 688.65 0 0 1-32.92-35.29zm47.195 48.591a688.65 688.65 0 0 0 37.36 32.779 688.65 688.65 0 0 1-37.36-32.779zm51.85 43.794a688.65 688.65 0 0 0 41.458 29.608 688.65 688.65 0 0 1-41.458-29.608zm56.03 38.544a688.65 688.65 0 0 0 45.13 25.848 688.65 688.65 0 0 1-45.13-25.848zm59.662 32.868a688.65 688.65 0 0 0 48.327 21.592 688.65 688.65 0 0 1-48.327-21.592z"/>
</svg>
