<svg width="1536" height="1536" xmlns="http://www.w3.org/2000/svg">
    <path d="M768 128c424 0 768 344 768 768s-344 768-768 768S0 1320 0 896s344-768 768-768zm274 521c-8 6-13 17-23 19 5-1 10-19 13-23 6-7 14-11 22-15 17-7 34-9 52-12 17-4 38-4 51 11-3-3 21-24 24-25 9-5 24-3 30-12 2-3 2-22 2-22-17 2-23-14-24-28 0 1-2 4-6 8 1-15-18-4-25-6-23-6-20-22-27-39-4-9-15-12-19-21-4-6-6-19-15-20-6-1-17 21-19 20-9-5-13 2-20 6-6 4-11 2-17 5 18-6-8-16-17-14 14-4 7-19-1-26h5c-2-9-30-17-39-23s-57-16-67-10c-12 7 3 27 3 37 1 12-12 15-12 25 0 17 32 14 24 37-5 14-24 17-32 28-8 10 1 28 9 35 8 6-14 16-17 18-17 8-30-17-34-32-3-11-4-24-16-30-6-2-25-5-29 1-6-15-27-21-41-26-20-7-37-7-58-4 7-1-2-32-19-27 5-10 3-21 5-31 2-8 6-16 12-23 2-4 24-27 17-28 17 2 36 3 50-11 9-9 13-24 22-34 13-15 29 4 43 5 20 1 19-21 8-31 13 1 2-23-5-26-9-3-43 6-25 13-4-2-28 48-42 23-4-5-6-26-15-27-8 0-13 9-16 15 5-13-28-22-35-23 15-10 3-21-8-27-8-5-33-9-40-1-19 23 20 26 30 32 3 2 15 9 8 14-6 3-24 8-26 12-6 9 7 19-2 28-9-9-9-24-16-34 9 11-36 5-35 5-15 0-39 10-50-5-2-4-2-27 4-22-9-7-15-14-21-18-33 11-64 25-94 41 4 1 7 1 12-1 8-3 15-8 23-12 10-4 31-16 42-7 1-2 4-4 5-5 7 8 14 16 20 25-8-4-21-2-30-1-7 2-19 4-22 12 3 5 7 13 5 18-13-9-23-24-41-26-8 0-16 0-22 1-96 53-177 130-235 222 4 4 8 7 12 8 10 3 0 32 19 17 6 5 7 12 3 19 1-1 41 25 44 27 7 6 18 13 21 21 2 7-4 15-10 18-1-2-16-17-18-13-3 5 0 32 11 31-16 1-9 63-13 75 0 1 2 1 2 1-3 12 7 59 27 54-13 3 23 49 28 52 13 9 28 15 37 28 10 14 10 35 24 46-4 12 21 26 20 43-2 1-3 1-5 2 5 14 24 14 31 27 4 8 0 27 13 23 2-22-13-44-24-62-6-10-12-19-17-29-5-9-6-20-10-30 4 1 26 9 24 12-8 20 32 55 43 68 3 3 26 33 14 33 13 0 31 20 37 30 9 15 7 34 13 50 6 20 34 29 50 38 14 7 26 17 40 22 21 8 26 1 44-2 26-4 29 25 50 36 13 7 41 17 55 11-6 2 21 43 23 46 9 12 26 18 36 30 3-2 6-5 7-9-4 11 15 32 25 30 11-2 14-24 14-32-20 10-38 2-49-18-2-5-18-33-4-33 19 0 6-15 4-29s-16-23-23-35c-6 12-26 9-32-1 0 3-3 8-3 12-5 0-10 1-15-1 2-12 3-27 6-40 5-18 38-53-5-51-15 1-21 7-26 20-5 12-3 23-17 29-9 4-39 2-48-3-19-11-32-46-32-66-1-27 13-51 0-76 6-5 12-15 19-20 6-4 13 3 16-9-3-2-7-6-8-6 15 7 43-10 56 0 8 6 17 8 22-2 1-3-7-15-3-23 3 17 14 20 29 9 6 6 22 4 33 10 11 7 13 18 26 3 8 12 9 12 12 24 3 11 9 39 19 44 21 13 16-22 14-34-1-1-1-34-2-34-32-7-20-32-2-49 3-2 26-10 36-18 9-8 20-22 15-35 5 0 9-4 11-9-3-1-15-11-17-10 7-4 6-10 2-16 10-6 5-17 15-21 11 15 33-2 22-14 10-14 33-7 39-20 15 4 4-15 12-26 7-9 19-9 28-14 0 1 25-14 17-15 17 2 51-16 25-31 4-9-9-13-18-15 7-2 16 2 22-2 13-9 4-13-7-16-14-4-32 5-43 12zm-163 877c137-24 259-92 351-189-6-6-17-4-25-8-8-3-14-6-24-8 2-20-20-27-34-37-13-10-21-21-40-17-2 1-22 8-18 12-13-11-19-17-36-22-16-5-27-25-43-7-8 8-4 20-8 28-13-11 12-24 2-36-12-14-33 9-43 15-6 5-13 7-17 13-5 7-7 16-11 23-3-8-20-6-21-12 4 24 4 49 9 73 3 14 0 37-12 48s-27 23-29 40c-2 12 1 23 12 26 1 15-16 26-15 42 0 1 1 11 2 16z"/>
</svg>
