<?xml version="1.0" standalone="no"?>
<svg width="1536px" height="1536px" version="1.1" xmlns="http://www.w3.org/2000/svg">
    <path transform="scale(1, -1) translate(0, -1536)" glyph-name="globe" unicode="&#xf0ac;" 

d="M768 1408c424 0 768 -344 768 -768s-344 -768 -768 -768s-768 344 -768 768s344 768 768 768zM1042 887c-8 -6 -13 -17 -23 -19c5 1 10 19 13 23c6 7 14 11 22 15c17 7 34 9 52 12c17 4 38 4 51 -11c-3 3 21 24 24 25c9 5 24 3 30 12c2 3 2 22 2 22c-17 -2 -23 14 -24 28
c0 -1 -2 -4 -6 -8c1 15 -18 4 -25 6c-23 6 -20 22 -27 39c-4 9 -15 12 -19 21c-4 6 -6 19 -15 20c-6 1 -17 -21 -19 -20c-9 5 -13 -2 -20 -6c-6 -4 -11 -2 -17 -5c18 6 -8 16 -17 14c14 4 7 19 -1 26h5c-2 9 -30 17 -39 23s-57 16 -67 10c-12 -7 3 -27 3 -37
c1 -12 -12 -15 -12 -25c0 -17 32 -14 24 -37c-5 -14 -24 -17 -32 -28c-8 -10 1 -28 9 -35c8 -6 -14 -16 -17 -18c-17 -8 -30 17 -34 32c-3 11 -4 24 -16 30c-6 2 -25 5 -29 -1c-6 15 -27 21 -41 26c-20 7 -37 7 -58 4c7 1 -2 32 -19 27c5 10 3 21 5 31c2 8 6 16 12 23
c2 4 24 27 17 28c17 -2 36 -3 50 11c9 9 13 24 22 34c13 15 29 -4 43 -5c20 -1 19 21 8 31c13 -1 2 23 -5 26c-9 3 -43 -6 -25 -13c-4 2 -28 -48 -42 -23c-4 5 -6 26 -15 27c-8 0 -13 -9 -16 -15c5 13 -28 22 -35 23c15 10 3 21 -8 27c-8 5 -33 9 -40 1
c-19 -23 20 -26 30 -32c3 -2 15 -9 8 -14c-6 -3 -24 -8 -26 -12c-6 -9 7 -19 -2 -28c-9 9 -9 24 -16 34c9 -11 -36 -5 -35 -5c-15 0 -39 -10 -50 5c-2 4 -2 27 4 22c-9 7 -15 14 -21 18c-33 -11 -64 -25 -94 -41c4 -1 7 -1 12 1c8 3 15 8 23 12c10 4 31 16 42 7c1 2 4 4 5 5
c7 -8 14 -16 20 -25c-8 4 -21 2 -30 1c-7 -2 -19 -4 -22 -12c3 -5 7 -13 5 -18c-13 9 -23 24 -41 26c-8 0 -16 0 -22 -1c-96 -53 -177 -130 -235 -222c4 -4 8 -7 12 -8c10 -3 0 -32 19 -17c6 -5 7 -12 3 -19c1 1 41 -25 44 -27c7 -6 18 -13 21 -21c2 -7 -4 -15 -10 -18
c-1 2 -16 17 -18 13c-3 -5 0 -32 11 -31c-16 -1 -9 -63 -13 -75c0 -1 2 -1 2 -1c-3 -12 7 -59 27 -54c-13 -3 23 -49 28 -52c13 -9 28 -15 37 -28c10 -14 10 -35 24 -46c-4 -12 21 -26 20 -43c-2 -1 -3 -1 -5 -2c5 -14 24 -14 31 -27c4 -8 0 -27 13 -23c2 22 -13 44 -24 62
c-6 10 -12 19 -17 29c-5 9 -6 20 -10 30c4 -1 26 -9 24 -12c-8 -20 32 -55 43 -68c3 -3 26 -33 14 -33c13 0 31 -20 37 -30c9 -15 7 -34 13 -50c6 -20 34 -29 50 -38c14 -7 26 -17 40 -22c21 -8 26 -1 44 2c26 4 29 -25 50 -36c13 -7 41 -17 55 -11c-6 -2 21 -43 23 -46
c9 -12 26 -18 36 -30c3 2 6 5 7 9c-4 -11 15 -32 25 -30c11 2 14 24 14 32c-20 -10 -38 -2 -49 18c-2 5 -18 33 -4 33c19 0 6 15 4 29s-16 23 -23 35c-6 -12 -26 -9 -32 1c0 -3 -3 -8 -3 -12c-5 0 -10 -1 -15 1c2 12 3 27 6 40c5 18 38 53 -5 51c-15 -1 -21 -7 -26 -20
c-5 -12 -3 -23 -17 -29c-9 -4 -39 -2 -48 3c-19 11 -32 46 -32 66c-1 27 13 51 0 76c6 5 12 15 19 20c6 4 13 -3 16 9c-3 2 -7 6 -8 6c15 -7 43 10 56 0c8 -6 17 -8 22 2c1 3 -7 15 -3 23c3 -17 14 -20 29 -9c6 -6 22 -4 33 -10c11 -7 13 -18 26 -3c8 -12 9 -12 12 -24
c3 -11 9 -39 19 -44c21 -13 16 22 14 34c-1 1 -1 34 -2 34c-32 7 -20 32 -2 49c3 2 26 10 36 18c9 8 20 22 15 35c5 0 9 4 11 9c-3 1 -15 11 -17 10c7 4 6 10 2 16c10 6 5 17 15 21c11 -15 33 2 22 14c10 14 33 7 39 20c15 -4 4 15 12 26c7 9 19 9 28 14c0 -1 25 14 17 15
c17 -2 51 16 25 31c4 9 -9 13 -18 15c7 2 16 -2 22 2c13 9 4 13 -7 16c-14 4 -32 -5 -43 -12zM879 10c137 24 259 92 351 189c-6 6 -17 4 -25 8c-8 3 -14 6 -24 8c2 20 -20 27 -34 37c-13 10 -21 21 -40 17c-2 -1 -22 -8 -18 -12c-13 11 -19 17 -36 22c-16 5 -27 25 -43 7
c-8 -8 -4 -20 -8 -28c-13 11 12 24 2 36c-12 14 -33 -9 -43 -15c-6 -5 -13 -7 -17 -13c-5 -7 -7 -16 -11 -23c-3 8 -20 6 -21 12c4 -24 4 -49 9 -73c3 -14 0 -37 -12 -48s-27 -23 -29 -40c-2 -12 1 -23 12 -26c1 -15 -16 -26 -15 -42c0 -1 1 -11 2 -16z" />
</svg>