<svg xmlns="http://www.w3.org/2000/svg" height="1792" width="1536" version="1.0">
    <path d="M1303.954 1.174c-372.286 0-442.121 530.25-232.69 530.25 209.401 0 604.991-530.25 232.69-530.25zM685.782 465.722c111.511 6.811 233.857-425.555 24.27-398.362-209.51 27.197-135.828 391.55-24.27 398.362zM174.73 734.382c79.309-34.907 10.211-376.376-124.646-283.243-134.8 93.134 45.337 318.14 124.646 283.243zm223.459-178.73c94.41-19.244 99.586-406.512-68.776-337.04-168.394 69.486-25.557 356.322 68.776 337.04zM891.19 1422.3c16.748 127.932-93.855 191.112-202.174 108.636-344.818-262.53 570.935-393.504 510.575-752.167-50.107-297.717-963.577-206.062-1067.597 259.778-70.41 315.066 289.836 752.182 665.72 752.182 184.918 0 398.212-166.97 438.113-378.49 30.474-161.296-358.622-96.663-344.637 10.061z"/>
</svg>
