<svg xmlns="http://www.w3.org/2000/svg" height="1536" width="1536">
    <path d="M269.924 188c-111.888 0-201.973 90.085-201.973 201.973v807.405c0 111.889 90.085 201.943 201.973 201.943h600.3C869.55 1628.11 560.299 1724 560.299 1724s522.862-1.713 596.848-324.679h108.96c111.887 0 201.942-90.054 201.942-201.943V389.973c0-111.888-90.055-201.973-201.943-201.973H269.924zm290.1 161.866c2.15-.33 4.112-.343 5.865 0 1.87.366 3.516 1.126 4.857 2.321 21.45 19.132-35.595 37.864-31.005 131.961 2.016 41.326-10.327 73.465 68.852 73.465 52.836 0 31.01-47.073 97.566-47.073 39.584 0 54.143 25.49 59.657 46.217 5.513-20.726 20.102-46.217 59.688-46.217 66.556 0 44.699 47.073 97.535 47.073 79.179 0 66.836-32.14 68.851-73.465 4.59-94.097-52.424-112.829-30.974-131.96 21.451-19.132 113.599 92.967 115.894 136.573 2.4 45.597 3.57 117.48-64.24 154.748 75.665 74.59 85.836 173.443 85.836 173.443l-130.83-2.321s-29.84-135.395-188.197-128.51c-158.359 6.886-179.003 34.436-179.003 201.974 0 167.539 73.44 225.114 185.906 229.496 176.719 6.885 160.644-91.792 160.644-91.792l-82.628 4.582-45.881-123.927h282.28c0 135.407-57.38 346.543-325.9 332.773-268.521-13.77-328.188-224.906-330.483-367.2-1.26-78.1 11.475-166.166 75.45-228.457-67.12-37.231-64.942-109.128-64.942-154.81 0-56.479 72.968-133.95 105.202-138.894z"/>
</svg>
