<svg xmlns="http://www.w3.org/2000/svg" width="1536" height="1796" viewBox="0 0 1536 1796">
    <path d="M218.804 132C97.592 132 0 229.59 0 350.802v874.69c0 121.213 97.592 218.77 218.804 218.77H869.13C868.4 1692.12 533.377 1796 533.377 1796s566.434-1.856 646.586-351.736h118.04c121.211 0 218.77-97.558 218.77-218.771v-874.69c0-121.212-97.559-218.804-218.77-218.804h-1079.2zM533.08 307.353c2.33-.357 4.455-.372 6.354 0 2.026.397 3.81 1.22 5.262 2.514 23.237 20.727-38.561 41.02-33.589 142.958 2.184 44.77-11.187 79.587 74.59 79.587 57.239 0 33.594-50.995 105.696-50.995 42.883 0 58.655 27.614 64.629 50.068 5.972-22.453 21.777-50.068 64.662-50.068 72.102 0 48.424 50.995 105.663 50.995 85.777 0 72.405-34.818 74.588-79.587 4.973-101.938-56.792-122.231-33.555-142.956 23.239-20.727 123.066 100.714 125.552 147.954 2.6 49.396 3.868 127.27-69.593 167.643 81.97 80.806 92.99 187.897 92.99 187.897l-141.734-2.514s-32.326-146.678-203.88-139.22c-171.556 7.46-193.92 37.306-193.92 218.806s79.56 243.873 201.398 248.62c191.446 7.46 174.031-99.44 174.031-99.44l-89.513 4.963-49.705-134.254h305.804c0 146.69-62.162 375.42-353.059 360.504-290.898-14.918-355.537-243.648-358.023-397.8-1.365-84.61 12.431-180.014 81.737-247.495-72.714-40.333-70.355-118.223-70.355-167.71 0-61.186 79.05-145.113 113.97-150.47z"/>
</svg>
