<svg xmlns="http://www.w3.org/2000/svg" width="1536" height="1792" viewBox="0 0 1536 1792">
    <path d="M387.383 1043.464c-12.458.847-28.675 6.428-39.555 25.93-8.882 15.926-29.69 18.466-39.405 15.257-16.183-5.348-36.867-9.057-56.903 5.22-20.037 14.275-41.674 3.48-37.88-22.541 3.796-26.018 13.195-49.195 38.144-63.547 54.487-31.346 16.618-53.16 46.524-84.62 29.963-31.519 23.344-41.165 22.35-83.973-101.272-15.214-158.67-44.402-222.761-124.48C33.804 630.63 8.959 564.716 2.315 464.319c-6.643-100.398-.884-165.464 42.493-248.8C88.185 132.18 133.856 92.064 213 50.452 292.144 8.847 369.69-1.118 441.37.096c71.677 1.21 119.439 6.461 159.94 29.57 40.498 23.107 77.547 52.186 101.165 52.395 23.622.21 39.703-5.978 51.183-14.774 3.064 77.824-66.979 84.584-129.641 86.23-62.667 1.642-101.173-24.28-158.889-14.638-57.716 9.643-152.214 35.908-198.248 116.036-46.034 80.128-47.604 108.453-43.778 175.648 3.826 67.198 61.662 117.331 94.31 117.876 32.644.545 39.932-8.91 68.507-27.547 28.579-18.64 174.468-199.238 224.249-239.805 49.784-40.566 98.91-53.092 151.953-53.743 53.044-.651 66.598 1.148 109.38 18.682 42.78 17.53 69.069 49.819 103.56 69.557 17.63-10.377 28.583-25.871 44.76-37.694 57.852-42.284 87.912-53.678 156.673-46.987 39.52 3.846 89.353 26.423 119.087 52.276 52.944 46.034 96.685 110.123 132.03 158.81 27.523 37.916 59.91 83.282 106.146 97.463 50.484 15.477 88.472-49.907 94.05-86.175 3.16-20.55 7.284-38.56 7.318-61.178.034-22.621-2.276-50.072-8.796-73.646-6.52-23.574-17.688-47.031-29.782-66.482-19.683-31.657-51.889-64.784-85.397-81.828-18.806-9.564-63.05-26.954-90.94-27.564-34.173-.74-60.208 10.74-91.803 12.893-38.242 2.608-106.554 11.205-136.535-18.34-19.08-18.802-21.48-31.345-24.74-55.862 8.43 6.945 20.218 11.511 30.711 12.4 23.948 2.022 46.37-17.531 65.7-28.86 15.923-9.335 38.472-26.015 59.386-34.445 53.736-21.664 119.745-21.04 176.47-15.237 45.468 4.649 104.419 24.877 144.296 47.443 40.066 22.665 78.674 60.884 106.955 96.911 35.578 45.331 55.029 84.225 67.914 140.762 16.471 72.199 21.037 180.659 1.125 251.847-15.694 56.098-67.802 142.273-112.16 184.516-43.747 41.666-94.26 61.778-151.706 72.778 2.249 11.593 2.619 22.405 5.59 31.91 4.224 13.493 12.3 28.535 28.892 23.777 6.616-1.896 10.157-3.538 18.88 4.093 8.718 7.63 4.18 37.107-20.354 50.336-12.44 6.708-25.57 8.165-45.493 8.563-19.923.397-51.018.483-72.648-3.305-21.627-3.784-34.547-20.948-58.501-23.635-37.018-4.141-65.364-30.886-95.047-50.014-12.385-7.984-16.563-8.066-23.7-12.1 3.856 11.805 8.998 24.067 11.562 35.417 2.571 11.35 1.474 21.863 2.838 30.947 1.358 9.077 3.877 16.136 5.345 23.499 5.93 5.303 7.826 13.369 17.787 15.905 9.969 2.534 25.576-1.412 35.774-2.783s17.034-6.928 25.034-5.406c8.008 1.519 15.594 7.25 22.303 12.622 6.708 5.371 12.474 6.156 17.904 19.56 5.43 13.403 10.41 40.85 11.154 59.197.744 18.346-1.313 34.906-6.75 49.465-5.436 14.558-10.215 21.013-24.938 35.431-14.723 14.421-38.698 35.582-62.621 50.322 4.405 6.524 6.359 12.495 13.228 19.574 6.87 7.082 21.192 15.017 27.564 22.487 6.366 7.47 9.595 12.827 9.688 21.205.099 8.375-.309 19.262-7.11 28.394-16.937 22.737-36.97 26.81-61.33 37.505 4.097 25.58 7.44 43.854 1.52 69.395-2.417 10.407-7.786 34.005-20.623 40.059-12.841 6.054-37.601 3.123-53.274 5.612-15.672 2.492-24.444 4.857-36.662 7.284-7.424 10.733-18.48 22.576-22.267 32.195-3.795 9.622-2.65 13.07.534 22.895 3.185 9.825 14.027 24.13 17.099 35.634 3.071 11.504 3.668 23.889.802 35.424-2.873 11.535-7.785 19.906-17.616 30.149-9.828 10.246-29.165 18.291-38.798 26.594-9.639 8.306-19.234 9.303-16.605 23.046 3.617 18.874 31.195 49.485 51.145 56.773 11.957 4.37 28.007 2.993 42.527-3.136-.983 16.121-14.935 26.988-24.05 37.693 24.685-7.058 48.622-20.57 65.179-38.482-5.135 15.556-22.803 40.529-49.229 62.457-26.426 21.929-26.265 17.442-39.4 26.166 23.968 4.816 46.256 3.513 64.822.178-10.178 5.612-26.862 13.503-48.962 15.823-22.1 2.318-35.725.68-55.642-4.158-19.92-4.84-38.101-22.946-62.237-35.427 2.351 8.953 4.024 19.72 14.174 28.928 10.15 9.207 25.507 13.89 41.831 21.853-20.78-2.358-42.616-3.071-63.036-7.572-15.117-3.336-25.274-6.873-36.336-12.351-11.055-5.478-19.591-13.469-29.385-20.201 4.693 8.964 6.085 19.508 14.072 26.9 7.987 7.39 20.969 10.142 31.469 15.22-10.953-.24-21.487 2.135-32.84-.72-11.36-2.856-22.014-7.343-33.824-16.044-11.809-8.7-23.988-19.412-34.066-30.364-10.072-10.952-22.508-25.151-26.272-35.25-3.77-10.102 2.262-17.167 3.393-25.74-6.955 4.57-15.51 7.085-20.855 13.719-5.344 6.633-10.082 12.69-7.716 24.252 2.368 11.563 13.04 25.696 20.584 38.558-22.514-18.412-35.088-25.5-40.446-47.71-5.015-20.794 7.96-39.669 17.822-55.392 4.899-7.81 12.227-15.077 16.807-22.615-10.17-9.95-21.795-18.504-30.512-29.854-8.714-11.346-12.375-26.703-21.27-37.56-8.9-10.86-20.87-17.732-31.294-26.587 9.163 19.684 24.222 43.827 27.492 59.06 3.267 15.234-3.664 24.558-9.07 32.782-5.41 8.223-14.137 10.057-22.415 15.11-8.279 5.056-21.154 1.07-26.087 8.573-4.93 7.5-6.253 18.786-1.54 26.217l19.334 30.516c-7.123-3.596-19.395-14.055-24.928-21.473-5.532-7.418-14.02-14.27-15.182-24.3-1.162-10.027-1.728-18.73 4.768-27.664 6.5-8.93 24.29-11.919 32.254-18.785 7.963-6.866 12.43-11.336 11.974-20.211-.453-8.875-9.122-15.224-16.575-20.818-22.75-17.064-51.936-32.788-71.256-53.356-10.915-11.62-16.153-21.003-18.346-29.02-2.19-8.015.126-14.268 5.55-24.127 5.422-9.862 24.019-23.029 26.281-33.74 2.26-10.71-7.133-13.01-15.61-16.787-8.478-3.778-24.579 1.936-32.442-4.635-7.86-6.571 2.31-20.38-6.551-27.951-8.858-7.573-29.134-3.346-39.6-11.49-10.465-8.15-14.791-18.262-18.398-30.081-3.606-11.82-4.014-24.767-1.57-33.326 2.445-8.56 9.787-10.058 14.216-14.494 4.43-4.436 8.272-8.114 2.369-14.73-5.903-6.612-25.247.37-36.367-8.12-11.12-8.491-4.312-28.83-12.176-37.403-7.86-8.573-21.97-5.217-29.415-7.956-7.442-2.739-10.363 6.924-14.929-8.357-4.566-15.285-4.69-60.846-10.832-77.849-6.143-17.002-18.206-1.148-23.807-18.048-5.602-16.896-.292-43.919-2.815-69.44l-11.432-69.44c-39.88 26.79-66.207 35.202-109.053 42.771-3.575 104.833-13.424 166.567 22.158 282.874 35.582 116.303 107.593 184.848 204.737 283.315-128.187-96.037-189.386-174.112-227.69-274.132-38.31-100.034-30.954-183.69-27.101-280.015zm681.158-42.136c9.863.442 21.847 2.945 28.771 7.442 6.928 4.498 14.28 8.172 20.568 14.572 15.686 15.975 27.45 35.24 32.65 57.377 3.316 14.113 3.81 32.213 5.016 48.783-4.748-15.316-7.94-31.287-14.702-45.009-10.665-21.637-28.781-42.756-51.279-52.481-7.425-3.216-12.378-2.62-16.464-2.05 1.827 3.068 4.888 5.639 5.022 10.133.133 4.494-.871 13.286-8.491 16.982-12.286 5.96-25.943 1.769-35.432-6.62-9.567-8.453-12.827-22.754-7.819-35.043 5.968-14.645 28.71-14.682 42.16-14.086zM944.89 980.486c1.237-25.178 10.325-46.41 32.887-58.758 11.67-6.383 29.645-14.637 46.165-16.578 15.867-1.86 54.466-.5 77.683 10.096 17.83 8.138 29.974 20.807 45.63 30.066 15.652 9.262 26.786 15.47 41.69 25.857 22.878 15.943 36.289 33.498 52.15 44.022 7.627 5.056 18.356 4.305 28.482 7.397-7.874 2.338-18.164 4.916-26.659 2.201-10.592-3.387-25.4-13.07-33.618-20.012-14.52-12.266-22.048-18.25-37.895-27.503-9.461-5.512-25.041-12.008-35.438-18.788-10.404-6.78-28.463-21.658-38.458-26.694-12.708-6.396-35.586-9.954-49.733-9.54-19.491.57-47.703 3.785-62.786 17.47-14.984 13.601-20.674 25.568-17.294 43.232 5.642-6.499 9.4-14.664 15.052-19.498 11.71-10.002 25.147-10.486 39.723-8.59 16.375 2.132 24.62 11.59 30.029 27.135-3.64-2.673-10.332-8.545-15.615-10.366-12.398-4.278-21.774-2.961-33.388 3.267-13.711 7.357-9.982 18.244-11.956 30.351-.905 5.584-3.013 10.082-4.518 15.124-5.156-1.364-9.924-3.51-13.825-7.377.16 5.656-.662 10.603.497 16.965 1.152 6.359 4.25 13.914 6.372 20.87-9.546-9.55-19.316-18.443-25.483-30.773-6.174-12.337-10.356-26.029-9.694-39.576zm16.523-183.257c7.037-10.445 9.097-26.467 13.437-39.494-1.735 16.5 1.6 34.643-6.455 46.593-8.055 11.95-22.203 9.855-33.923 13.331 9.119-6.952 19.9-9.985 26.94-20.43zm-168.487 244.645c9.036-7.315 33.422-1.467 51.662-.161l-39.325 10.071c-1.22 4.46-.668 9.57-3.661 13.372-2.996 3.805-8.686 5.214-13.026 7.816.428-11.717-4.686-23.786 4.35-31.098zm128.517-508.09c10.887 5.862 24.705 13.613 34.32 13.853 9.616.24 12.132-6.287 17.788-10.054 8.899 29.017 19.114 60.9 34.266 87.23 6.348 11.032 10.396 5.904 15.223 16.99 4.82 11.082 6.962 33.634 11.535 47.795 4.58 14.161 10.551 24.582 15.827 36.871-13.397-18.98-30.704-43.182-38.17-58.978-7.46-15.792-2.684-17.167-8.724-32.208-6.04-15.042-18.25-38.49-27.376-57.734-6.534.867-14.624 2.057-19.59.525-4.968-1.533-3.977-6.815-8.464-10.23-4.494-3.414-12.046-2.09-18.34-7.54-6.293-5.448-7.726-16.626-8.295-26.52zM862.82 676.967c10.246-.898 22.97 1.848 32.565 1.303 9.595-.545 16.444-3.034 24.667-4.552-1.525-14.453-.078-41.005-13.42-50.655-8.618-6.232-44.011-1.54-53.466.5-21.273 4.587-46.047 17.284-66.622 25.223 19.718-13.773 36.751-26.539 60.4-33.648 14.216-4.275 47.392-9.832 62.064-5.87 6.698 1.807 8.052 4.58 12.114 10.257 13.965 19.498 13.924 36.35 17.548 59.064 3.561 5.55 7.356 9.252 10.242 14.976 2.88 5.725 4.511 14.734 5.317 22.097-3.654-5.3-1.42-11.947-11.542-15.892-10.13-3.946-25.637-.26-39.284 1.165 9.948 7.179 14.89 14.093 15.271 29.268.446 17.819-14.64 30.643-30.392 31.863-21.867 1.697-33.141-3.106-41.985-21.795-3.874-8.186-1.066-18.034-1.388-26.015-26.276 1.828-25.847.97-45.05 16.982 10.438 15.292 17.012 24.085 34.262 33.234 9.674 5.135 20.626 10.126 32.613 12.166 11.991 2.04 31.657 4.01 44.252 2.077 12.597-1.933 19.734-5.529 29.072-14.164 9.341-8.638 10.198-21.006 13.845-30.783-.83 9.41-1.909 21.394-5.402 28.219-10.627 20.75-29.004 26.9-50.946 26.968-21.061.068-47.114-4.79-66.708-12.913-15.666-6.493-41.636-24.88-47.799-40.855-4.213-10.914-.878-24.307-1.32-36.463 21.692-14.424 27.06-10.876 52.725-15.1 10.737-1.768 18.12-5.755 28.367-6.657zm-126.358-97.7c.61-8.641 1.567-8.456 2.352-12.686-19.762-5.286-27.688 7.534-39.274 31.345-4.336 8.91-.045 14.212-4.696 20.077-4.645 5.866-12.132 5.043-19.677 10.675-7.545 5.629-15.02 16.41-22.076 22.24-14.476 11.967-34.042 19.272-50.832 27.324 11.466-8.46 33.717-21.29 40.915-33.583 3.82-6.517 3.253-18.806 9.198-24.664 5.94-5.862 8.02-9.917 15.693-11.412 7.671-1.494 4.586-10.386 7.061-17.455 2.475-7.068 7.405-12.087 12.65-19.148 5.244-7.062 11.86-17.664 22.216-21.514 10.356-3.853 26.505.312 34.344-1.906 7.837-2.218 3.336-7.915 9.03-11.336 5.7-3.421 16.783-1.913 24.396-5.57 13.496-6.49 19.95-17.322 28.068-28.919 1.18 24.963.891 42.935-8.08 66.42-10.102 26.433-20.341 42.003-49.012 58.258-9.88 5.598-19.71 7.541-27.9 10.48 4.775-6.514 11.61-9.342 14.329-19.54 2.711-10.205.685-30.44 1.295-39.085zm462.902 121.716c-13.633.888-16.865-.905-27.773 6.788 5.913 9.2 11.823 18.4 17.73 27.602-.522-18.162 1.247-21.802 10.043-34.39zm-35.719-13.197c18.881-8.042 35.332-14.548 55.872-15.834 8.234-.517 21.017.758 29.333 1.135 7.082-10.428 16.108-18.652 19.416-30.553 2.19-7.895 1.11-44.536-2.766-54.049-11.296-27.684-22.275-28.853-37.82-44.71-11.282-11.501-11.731-29.014-15.104-48.64-1.238-7.208-4.776-16.33-6.435-23.769-20.32-3.424-42.174-4.552-65.552-3.383 11.336-10.873 22.295-20.808 25.548-37.131 3.247-16.324.604-36.395-8.676-51.032-9.28-14.637-24.102-27.39-37.707-39.315-13.612-11.926-33.12-21.771-46.017-31.527 16.773-6.006 33.9-14.83 50.33-18.014 42.8-8.302 79.678 4.395 120.96 29.354 24.003 14.517 43.855 28.308 68.947 54.576 25.086 26.265 56.201 74.444 80.488 103.016 24.287 28.572 43.895 51.17 65.083 68.21 21.191 17.043 40.37 21.897 60.551 32.843l31.455 33.401 25.456-31.499 40.96 4.631 8.464-45.975 37.594-10.301-6.133-61.977 27.03-19.183-20.314-38.561 20.64-42.136-26.91-48.166 10.376-46.377-31.153-26.55-4.065-49.283-43.46-16.577-17.434-42.877-48.862-.548-23.968-31.829-32.895 2.304-36.668-3.994-20.736-15.309-30.094 19.978-36.415-18.987-72.388 27.482 47.19-41.04 48.889-7.809 37.453-9.546 50.583 16.611 44.522-11.278 42.928 25.378 45.427-2.513 22.316 40.042 45.232 5.22 24.472 44.519 28.448 15.532 7.552 57.03 25.336 24.03-11.141 49.9 29.847 37.79-27.986 40.491 29.926 25.309-38.256 33.906 38.746 40.35-46.79 15.09 30.477 43.277-38.222 6.596 25.066 47.586-43.076-.572 21.699 35.644-47.247-5.687 11.302 51.278-35.706-31.41-12.23 62.149-24.64-44.625-13.346 55.66-30.416-41.044.83 58.364-33.618-52.478c7.089 29.775 5.67 62.378 25.226 90.45 60.592-8.2 100.195-23.468 146.616-68.137 42.28-40.683 92.815-125.508 106.5-179.31 15.614-61.393 16.094-174.31.716-236.815-14.802-60.18-34.04-88.927-68.411-138.036-32.854-34.893-65.165-71.754-106.863-96.637-61.21-36.525-139.695-46.373-209.454-45.424-38.626.528-64.5 7.946-87.594 16.345-40.384 14.685-72.682 46.72-113.739 62.55-13.39 5.158-24.122 5.32-34.667-.313 10.325 20.657 21.559 29.923 47.31 37.44 18.627 5.437 63.073 1.999 93.671-.826 32.847-3.034 49.98-12.8 94.683-12.186 43.659.6 78.253 17.184 97.169 28 39.027 22.315 67.012 47.072 91.33 86.287 13.355 21.535 22.71 45.832 29.299 70.626 6.588 24.794 9.475 52.564 9.896 76.837.422 24.274-1.433 45.942-7.37 67.785-13.886 51.137-44.522 103.174-107.452 95.135-38.51-4.922-96.565-77.204-116.008-103.722-39.233-53.52-79.6-112.745-128.898-157.315-30.056-27.167-71.208-45.863-111.62-49.562-75.816-6.938-98.3 7.463-155.368 54.501 11.61 3.702 22.943 5.745 34.841 11.107 26.406 11.898 50.556 27.276 71.62 47 22.073 20.674 31.976 33.759 32.761 63.362.521 19.66-15.652 35.421-30.478 49.6-9.07 8.682-21.075 16.631-28.42 23.37-9.736 8.944-21.792 18.728-9.561 32.974 4.6 5.355 12.587 9.393 19.323 14.394 10.692 7.936 5.797 37.43-8.289 45.252-18.024 10-39.561 8.882-54.425-4.504 18.761-2.808 30.677-5.296 30.19-20.643-.281-8.896-11.59-16.286-22.69-21.346-26.768-12.203-46.986-10.404-73.628-29.573-26.91-19.371-27.503-29.977-34.777-60.39-12.975 1.358-24.92 1.656-42.27 7.401-17.349 5.742-36.521 19.413-52.272 22.796-39.668 8.536-47.573 6.006-69.282.387-38.222-9.893-87.989 7.045-137.426 22.858-8.22 2.63-41.468.089-63.85 7.942-34.567 12.128-83.069 41.499-111.082 65.09-42.444 35.75-98.224 142.74-129.74 265.542-3.312 37.33 7.305 62.481-16.211 80.714-23.516 18.233-22.864 64.946-30.838 78.048-7.973 13.098-17.205 7.308-34.368 25.706-17.164 18.397-25.902 15.323-25.47 50.11 14.792-9.726 36.357-21.031 55.293-21.713 16.77-.607 16.948 21.472 59.989-21.079 23.018-22.765 67.242-23.46 97.926-33.501 30.687-10.04 85.983-30.731 141.364-92.647 55.382-61.915 81.884-127.098 92.623-221.332 1.71 16.708 4.68 35.552-2.475 81.64-7.154 46.089-22.573 97.854 9.91 159.859l20.24 38.63c-12.05-16.445-35.586-43.268-42.672-62.383l-16.344-44.093c-36.566 57.411-44.971 67.681-95.767 108.813-2.022 25.518-2.52 52.132 5.821 76.55 8.34 24.413-4.953 52.556 1.392 68.637 6.345 16.08 21.02 6.928 25.812 23.207 4.792 16.28-2.502 48.464 4.93 64.332 7.431 15.868 25.665 6.239 34.502 11.364 8.837 5.128 11.727 12.155 16.454 18.898 4.724 6.74-1.848 22.672 7.764 27.845 9.609 5.176 24.599.792 34.598 5.76 10 4.966 11.518 16.906 9.122 27.604-2.4 10.699-13.084 15.608-17.777 26.485-4.69 10.88-4.165 18.452 1.47 28.441 5.636 9.993 18.114 15.494 30.55 20.537 12.437 5.042 29.912 2.211 42.747 9.183 12.834 6.973 24.369 20.866 31.146 30.965 6.777 10.095 8.659 17.219 8.313 27.835-.35 10.613-4.656 22.84-10.322 33.093-5.666 10.253-18.168 22.73 1.35 42.311 19.52 19.577 18.8 11.138 29.981 23.838-1.217-21.97-10.294-39.867-3.657-56.407 6.64-16.54 26.573-19.415 37.08-26.854 10.506-7.442 16.557-17.664 24.839-26.495-.12 11.364 1.097 23.581-.196 32.137-2.632 17.397-7.767 32.84 18.158 35.63 11.679 1.255 22.768-6.317 35.058-10.863-6.438 11.528-17.634 20.797-19.317 34.595-1.683 13.79.34 28.942 9.89 42.63 9.553 13.68 26.049 23.841 38.136 31.883 12.083 8.045 18.558 8.69 27.845 13.04.456 13.56-2.215 27.914-.669 40.686 1.546 12.773 5.57 24.078 12.954 34.636 7.391 10.561 19.241 16.619 30.403 24.427-6.119-14.25-18.532-27.77-18.364-42.75.168-14.976 4.659-25.592 19.269-38.882 14.61-13.294 48.814-24.822 64.942-37.746 16.129-12.926 21.332-20.845 27.122-33.394 5.79-12.55 4.179-32.768 5.248-44.05 5.31 15.803 6.068 20.716 7.792 37.248 1.734 16.537-9.636 39.73-14.449 51.971 19.95-9.635 32.613-25.037 39.007-40.09 4.278 2.537 2.121 9.493 3.695 22.896 7.11-7.075 15.193-12.519 22.35-19.197 7.164-6.67 15.011-12.539 18.566-21.853 3.548-9.313 2.094-19.217-.549-30.039-2.643-10.822-14.736-23.371-21.25-35.208-6.506-11.833 1.152-23.45.71-37.71-13.03-2.24-24.095-8.876-39.072-6.72-14.983 2.153-32.143 18.967-47.456 19.163-15.313.195-23.91-14.15-36.463-18.093-12.553-3.942-25.254-3.51-37.875-5.265 15.988-15.316 78.04-22.611 120.485-29.532 37.347-6.091 74.41-9.612 112.251-10.143 16.9-.24 38.62 5.34 50.353 1.967 11.744-3.366 9.239-11.363 12.721-20.08 9.743-24.366 4.94-46.065-.36-70.602-33.97-3.984-69.367-8.858-103.595-6.229-33.464 2.571-73.09 18.48-107.607 19.556-30.008.933-74.444-5.748-100.212-21.455-31.49-19.193-55.852-60.414-64.5-73.65-14.086-21.558-31.853-63.851-42.664-83.189-10.805-19.337-13.188-24.746-22.18-32.819-8.99-8.069-21.307-8.693-31.958-13.043 12.28 1.255 25.686-2.633 36.84 3.764 16.76 9.615 35.517 49.469 45.945 66.81 11.048-37.035 8.47-51.597 40.44-72.48-25.765 28.877-26.406 50.75-32.686 84.75 21.425 35.163 51.21 91.175 90.186 106.718 14.078 5.618 38.255 9.142 53.475 11.024 47.368 5.865 93.055-9.146 139.576-20.633 34.005-8.398 68.51-5.015 109.869-2.584 14.04.822 47.148-7.624 54.003-21.826 3.703-7.662 3.428-16.87-1.888-25.034-5.324-8.166-19.502-12.115-27.102-19.464-7.6-7.35-11.97-16.074-17.955-24.112-31.589 6.06-57.572 8.388-81.02 9.025 16.818-6.927 32.953-10.88 50.456-17.725 17.503-6.846 37.379-18.083 51.505-27.407 14.127-9.327 23.146-14.737 33.368-25.59 10.215-10.86 23.32-22.044 30.851-35.317 7.538-13.273 8.704-28.12 9.125-44.547.422-16.423-.288-39.469-6.623-52.7-6.327-13.23-18.53-17.243-28.335-20.373-9.807-3.13-16.523 4.785-26.72 5.855-10.206 1.07-19.739 7.5-34.493.562-14.753-6.938-32.243-21.061-47.161-42.023-14.912-20.965-25.576-55.23-40.779-81.592-26.206-45.44-58.864-87.889-90.096-129.994-2.571-10.383-6.435-24.733-7.72-38.818-2.242-24.544-2.664-50.041 4.953-73.968 5.838-18.33 14.329-37.69 33.522-45.208 7.679-3.01 17.393-4.202 24.256-1.659 6.87 2.54 13.606 10.29 10.908 19.245-2.965 9.845-9.787 10.112-14.421 15.083-7.868 8.432-11.014 14.62-13.986 25.133 8.5-.137 19.991-.785 26.974 1.053 9.111 2.4 17.596 8.44 22.22 21.349-10.874-9.643-16.276-14.068-29.847-14.411-6.218-.155-13.774 2.07-20.654 3.105-2.57 8.365-4.082 18.621-7.712 25.093-3.63 6.472-10.699 4.919-13.352 12.481-2.653 7.548-2.808 19.841-1.47 29.765zm95.006-11.336c4.164 1.642 5.752 2.002 11.027 6.016 5.276 4.014 12.553 8.021 16.732 17.612 4.185 9.595 3.99 24.431 3.099 30.475-3.668-1.077-8.67-.35-12.474-3.603-3.795-3.253-6.061-10.62-10.929-13.773-4.874-3.15-8.936-2.462-14.322-3.144 2.767 7.87 4.11 15.745 2.825 22.882-2.79 15.58-11.95 23.47-26.78 25.336-6.474.812-16.758-1.32-22.394-2.345 2.612 5.834 7.038 10.945 9.653 16.78 12.54-1.814 21.833-1.557 28.576-4.71 6.742-3.154 13.972-10.219 22.624-13.212 8.656-2.992 16.375-2.944 25.843-4.422-7.459 6.428-12.354 12.859-19.803 19.286 5.464 15.882 10.928 31.76 16.389 47.638 11.583 7.247 22.45 11.065 37.046 20.012 14.603 8.95 32.11 24.96 51.124 33.69 19.015 8.731 30.337 13.482 50.206 17.229 19.864 3.747 35.67 19.837 55.22 22.453 19.55 2.615 56.064 3.143 71.13 1.673 17.105-1.67 39.329-10.497 41.324-29.25-14.343 3.537-36.247.362-47.31-26.626-4.908-11.984-2.502-34.022-10.016-48.193-7.51-14.175-17.983-18.723-30.495-36.185-12.512-17.462-32.98-45.006-44.47-68.401-11.484-23.393-14.188-49.89-23.903-70.853-9.715-20.958-24.37-37.889-35.726-54.044-24.798-35.308-44.797-59.437-85.65-77.25-19.65-8.565-42.02-10.848-63.03-16.275-8.55 3.83-20.273 8.06-22.354 18.058-2.08 10 1.916 24.767 9.173 32.275 12.146 12.55 30.142 26.114 37.217 46.06 4.546 12.8 5.866 55.712 1.927 67.356-4.086 12.09-13.585 19.402-21.48 27.455zm3.955 101.566c-3.794 3.274-6.688 6.637-12.793 9.355-6.098 2.718-14.428 3.421-22.521 5.443 11.35 17.668 23.272 35.52 34.145 54.097 10.88 18.572 20.308 38.91 30.69 58.36-.49-11.147.169-23.032-1.453-33.45-1.621-10.413-6.341-19.528-11.02-35.163-4.673-15.635-10.425-36.905-17.048-58.642zM957.23 389.547c-1.6 17.38 1.34 44.55 4.94 61.566 4.312 20.369 8.464 30.93 24.993 43.202 30.269 22.47 49.592 18.683 72.878 31.712 11.08 6.201 25.12 16.595 29.216 27.581 4.097 10.987-2.704 22.916-11.106 27.606 14.696 2.187 31.174-14.38 24.297-31.39-3.387-8.371-19.508-12.1-24.451-20.547-4.933-8.443-4.923-17.136-2.599-25.713 4.2-15.46 34.787-29.508 45.595-41.728 16.633-18.806 23.019-34.537 13.599-58.755-13.228-34.022-64.336-61.323-94.923-74.674-14.007-6.112-21.86-6.548-32.785-9.821 22.367 13.108 45.948 23.55 57.264 52.852 9.447 24.472 1.265 33.693 1.58 55 .148 9.88 13.157 14.82 18.933 21.062 5.028 5.426 4.62 9.454.603 16.944-.442-6.756-3.329-11.799-8.515-15.47-8.563-6.07-17.788-4.765-22.35-17.212-6.925-18.922 6.808-36.843-8.632-58.09-11.548-15.895-26.91-33.686-47.631-34.152-9.807-.223-17.18 1.258-27.657 4.357l-13.965-16.807-.322-.22c-28.408-25.925-47.844-47.292-87.694-65.11-39.85-17.815-59.488-20.513-105.18-19.498-45.69 1.011-91.035 4.833-143.956 50.47-52.917 45.636-189.304 220.389-222.38 242.506-33.073 22.117-40.398 29.61-81.726 29.62-41.327.01-105.827-58.446-108.353-131.502-2.53-73.06-3.545-99.026 47.24-187.039C304.93 158.281 396.936 131.256 465.2 122.13c68.268-9.125 109.29 14.919 159.787 15.032 50.493.116 100.397-8.6 115.113-48.76-7.202 4.29-16.851 9.123-43.987 7.7-27.136-1.423-64.76-32.84-107.085-53.89-42.325-21.048-89.425-23.513-149.836-24.654-60.41-1.142-135.79 3.476-210.472 43.792-74.68 40.316-125.658 83.093-168.973 161.997C16.432 302.255 9.96 366.68 16.942 462.22c6.983 95.54 36.45 166.594 93.185 236.52 56.736 69.927 113.438 104.141 215.68 116.862l21.524-94.94-38.424 55.142.95-61.33-34.757 43.128-15.244-58.488-28.157 46.891-13.986-65.302-40.802 33 12.916-53.883-53.99 5.975 24.801-37.454-49.228.6 28.643-50.003-43.678-6.935 34.827-45.479-53.475-15.854 44.275-42.397-43.717-35.626 34.194-26.594-31.976-42.548 34.108-39.706-12.731-52.433 28.962-25.247 8.622-59.924 32.503-16.324 27.966-46.777 51.69-5.488 25.503-42.075 51.916 2.643 49.061-26.666 50.881 11.85 57.795-17.455 42.805 10.03 55.861 8.21 53.932 43.124-82.726-28.877-41.615 19.954-34.4-20.996-23.683 16.087-41.907 4.196-37.58-2.427-27.397 33.443-55.844.576-19.92 45.053-49.657 17.421-4.645 51.786-35.61 27.896 11.865 48.732-30.752 50.614 23.59 44.271-23.217 40.519 30.89 20.156-7.007 65.124 42.959 10.825 9.677 48.31 46.812-4.864 29.082 33.1 35.946-35.099c65.528-32.675 92.513-50.952 143.582-106.187 58.135-62.878 91.454-121.013 168.892-164.064 55.54-30.88 100.84-41.993 163.228-31.212 58.576 10.12 78.191 45.256 121.332 82.27 4.573-8.278 5.502-10.472 13.036-16.566-2.365 10.75-6.122 21.9-7.079 32.24z" fill-rule="evenodd"/>
</svg>
