<?xml version="1.0" standalone="no"?>
<svg width="1536px" height="1536px" version="1.1" xmlns="http://www.w3.org/2000/svg">
    <path transform="scale(1, -1) translate(0, -1536)" glyph-name="google_plus" unicode="&#xf0d5;" horiz-adv-x="2304" 

d="M1437 623c0 -419 -281 -716 -704 -716c-405 0 -733 328 -733 733s328 733 733 733c198 0 363 -72 491 -192l-199 -191c-54 52 -149 113 -292 113c-250 0 -454 -207 -454 -463s204 -463 454 -463c290 0 399 209 416 316h-416v252v0h692c7 -37 12 -74 12 -122zM2304 745
v-210h-209v-209h-210v209h-209v210h209v209h210v-209h209z" />
</svg>