<?xml version="1.0" standalone="no"?>
<svg width="1536px" height="1536px" version="1.1" xmlns="http://www.w3.org/2000/svg">
    <path transform="scale(1, -1) translate(0, -1536)" glyph-name="google_wallet" unicode="&#xf1ee;" horiz-adv-x="1792" 

d="M441 864c20 0 40 -10 52 -26c175 -239 297 -495 362 -774h-446c-80 278 -198 532 -367 749c-16 21 0 51 26 51h373zM1000 507c-33 -135 -75 -266 -125 -393c-53 209 -138 405 -256 594c26 145 41 294 44 449c141 -227 253 -443 337 -650zM1099 1216
c299 -412 521 -920 569 -1472h-451c-33 534 -279 1040 -553 1472h435zM1792 640c0 -278 -38 -570 -101 -812c-44 370 -166 738 -359 1083c-17 202 -53 398 -106 584c-5 21 10 41 31 41h359c28 0 54 -19 61 -46c76 -270 115 -556 115 -850z" />
</svg>