<?xml version="1.0" standalone="no"?>
<svg width="1536px" height="1536px" version="1.1" xmlns="http://www.w3.org/2000/svg">
    <path transform="scale(1, -1) translate(0, -1536)" glyph-name="google_plus_official" unicode="&#xf2b3;" 

d="M917 631c0 22 -2 43 -6 64h-362v-132h217c-16 -106 -116 -165 -217 -165c-133 0 -239 110 -239 242s106 242 239 242c56 0 112 -19 153 -59l104 101c-71 66 -160 100 -257 100c-213 0 -384 -172 -384 -384s171 -384 384 -384c221 0 368 156 368 375zM1262 585h109v110
h-109v110h-110v-110h-110v-110h110v-110h110v110zM1536 640c0 -424 -344 -768 -768 -768s-768 344 -768 768s344 768 768 768s768 -344 768 -768z" />
</svg>