<?xml version="1.0" standalone="no"?>
<svg width="1536px" height="1536px" version="1.1" xmlns="http://www.w3.org/2000/svg">
    <path transform="scale(1, -1) translate(0, -1536)" glyph-name="google_plus_square" unicode="&#xf0d4;" 

d="M917 631c0 25 -3 45 -6 64h-362v0v-132h217c-8 -56 -65 -165 -217 -165c-132 0 -239 108 -239 242s107 242 239 242c74 0 124 -31 153 -59l104 101c-67 62 -154 100 -257 100c-213 0 -384 -172 -384 -384s171 -384 384 -384c221 0 368 156 368 375zM1262 585h109v110
h-109v110h-110v-110h-110v-110h110v-110h110v110zM1536 1120v-960c0 -159 -129 -288 -288 -288h-960c-159 0 -288 129 -288 288v960c0 159 129 288 288 288h960c159 0 288 -129 288 -288z" />
</svg>