<?xml version="1.0" standalone="no"?>
<svg width="1536px" height="1536px" version="1.1" xmlns="http://www.w3.org/2000/svg">
    <path transform="scale(1, -1) translate(0, -1536)" glyph-name="graduation_cap" unicode="&#xf19d;" horiz-adv-x="2304" 

d="M1774 700l18 -316c8 -141 -287 -256 -640 -256s-648 115 -640 256l18 316l574 -181c16 -5 32 -7 48 -7s32 2 48 7zM2304 1024c0 -14 -9 -26 -22 -31l-1120 -352c-4 -1 -7 -1 -10 -1s-6 0 -10 1l-652 206c-57 -45 -97 -155 -105 -290c38 -22 63 -62 63 -109
c0 -45 -23 -84 -58 -107l58 -433c1 -9 -2 -18 -8 -25s-15 -11 -24 -11h-192c-9 0 -18 4 -24 11s-9 16 -8 25l58 433c-35 23 -58 62 -58 107c0 48 27 89 65 111c6 117 36 243 98 330l-333 104c-13 5 -22 17 -22 31s9 26 22 31l1120 352c4 1 7 1 10 1s6 0 10 -1l1120 -352
c13 -5 22 -17 22 -31z" />
</svg>