<svg width="1536" height="1536" xmlns="http://www.w3.org/2000/svg">
    <path d="M1774 836l18 316c8 141-287 256-640 256s-648-115-640-256l18-316 574 181c16 5 32 7 48 7s32-2 48-7zm530-324c0 14-9 26-22 31L1162 895c-4 1-7 1-10 1s-6 0-10-1L490 689c-57 45-97 155-105 290 38 22 63 62 63 109 0 45-23 84-58 107l58 433c1 9-2 18-8 25s-15 11-24 11H224c-9 0-18-4-24-11s-9-16-8-25l58-433c-35-23-58-62-58-107 0-48 27-89 65-111 6-117 36-243 98-330L22 543c-13-5-22-17-22-31s9-26 22-31l1120-352c4-1 7-1 10-1s6 0 10 1l1120 352c13 5 22 17 22 31z"/>
</svg>
