<?xml version="1.0" standalone="no"?>
<svg width="1536px" height="1536px" version="1.1" xmlns="http://www.w3.org/2000/svg">
    <path transform="scale(1, -1) translate(0, -1536)" glyph-name="grav" unicode="&#xf2d6;" horiz-adv-x="1794" 

d="M1291 1060c-32 36 -84 -25 -56 -58c27 -33 116 -9 56 58zM895 814c-11 -11 -28 -11 -38 0c-11 10 -11 27 0 37c10 11 27 11 38 0c10 -10 10 -27 0 -37zM1060 740l-35 -35c-16 -17 -43 -17 -60 0l-38 38c-16 17 -16 43 0 60l35 35c16 16 43 16 60 0l38 -39
c16 -16 16 -43 0 -59zM951 870c-10 -10 -27 -10 -38 0c-10 11 -10 28 0 38c11 11 28 11 38 0c11 -10 11 -27 0 -38zM1354 968c-45 -85 -163 -120 -235 -69c-72 52 -122 156 -43 246c78 90 147 62 216 -3c43 -41 106 -90 62 -174zM1555 486c9 58 -74 60 -92 93
c-49 87 -100 133 -197 110c42 29 85 22 85 22c1 23 0 47 -34 90c14 45 1 81 1 81c56 31 97 88 105 156c13 112 -68 214 -180 227c-80 9 -158 -28 -196 -93c-84 -145 5 -256 81 -294c-52 5 -124 43 -145 124c-24 93 10 180 32 222c0 0 -16 21 -29 32c0 0 -50 0 -89 -19
c43 55 91 52 91 52c0 23 -2 54 -13 78c-20 41 -90 47 -117 -15c1 3 2 5 4 7c-18 -43 -4 -202 61 -315c-9 -5 -33 -22 -47 -36c-78 -35 -203 -218 -203 -218c-102 -39 -280 -184 -256 -288v0c1 -11 5 -20 11 -27c-10 -8 -20 -18 -30 -30c-43 -50 -19 -127 64 -88
c57 26 108 73 132 110c0 0 -21 18 -60 16c100 24 125 34 168 33c29 -14 29 124 29 124c0 53 -8 112 -40 150c45 -44 105 -118 101 -219c-3 -66 -55 -83 -55 -83c-33 -60 -156 -238 -110 -383c0 0 -35 54 -37 80c-63 -70 -169 -189 -90 -233c96 -53 394 320 457 514
c125 75 200 171 231 235c80 -159 346 -343 367 -215zM1794 640c0 -495 -402 -896 -897 -896s-897 401 -897 896s402 896 897 896s897 -401 897 -896z" />
</svg>