<svg width="1536" height="1536" xmlns="http://www.w3.org/2000/svg">
    <path d="M1291 476c-32-36-84 25-56 58 27 33 116 9 56-58zM895 722c-11 11-28 11-38 0-11-10-11-27 0-37 10-11 27-11 38 0 10 10 10 27 0 37zm165 74l-35 35c-16 17-43 17-60 0l-38-38c-16-17-16-43 0-60l35-35c16-16 43-16 60 0l38 39c16 16 16 43 0 59zM951 666c-10 10-27 10-38 0-10-11-10-28 0-38 11-11 28-11 38 0 11 10 11 27 0 38zm403-98c-45 85-163 120-235 69-72-52-122-156-43-246 78-90 147-62 216 3 43 41 106 90 62 174zm201 482c9-58-74-60-92-93-49-87-100-133-197-110 42-29 85-22 85-22 1-23 0-47-34-90 14-45 1-81 1-81 56-31 97-88 105-156 13-112-68-214-180-227-80-9-158 28-196 93-84 145 5 256 81 294-52-5-124-43-145-124-24-93 10-180 32-222 0 0-16-21-29-32 0 0-50 0-89 19 43-55 91-52 91-52 0-23-2-54-13-78-20-41-90-47-117 15 1-3 2-5 4-7-18 43-4 202 61 315-9 5-33 22-47 36-78 35-203 218-203 218-102 39-280 184-256 288 1 11 5 20 11 27-10 8-20 18-30 30-43 50-19 127 64 88 57-26 108-73 132-110 0 0-21-18-60-16 100-24 125-34 168-33 29 14 29-124 29-124 0-53-8-112-40-150 45 44 105 118 101 219-3 66-55 83-55 83-33 60-156 238-110 383 0 0-35-54-37-80-63 70-169 189-90 233 96 53 394-320 457-514 125-75 200-171 231-235 80 159 346 343 367 215zm239-154c0 495-402 896-897 896S0 1391 0 896 402 0 897 0s897 401 897 896z"/>
</svg>
