<svg xmlns="http://www.w3.org/2000/svg" width="1536" height="1792" viewBox="0 0 1536 1792">
    <path style="marker:none" d="M214.807 128c-19.79 0-38.862 2.977-57.064 7.996l134.482 119.58L141.57 422.77 4.18 301.009C1.484 314.594 0 328.434 0 342.807c0 118.55 96.258 214.808 214.807 214.808 22.653 0 44.378-3.66 64.879-10.177l173.736 153.745c33.004-71.706 81.764-133.02 141.387-178.46L427.252 374.428c1.512-10.26 2.363-20.948 2.363-31.622v-1.453C428.687 223.402 332.763 128 214.807 128zm1032.239 971.903c-27.72 74.556-72.01 139.804-127.758 190.092l139.934 123.942c-1.912 11.485-3.09 23.232-3.09 35.256 0 118.549 96.259 214.807 214.808 214.807 21.441 0 42.064-3.229 61.607-9.087l-139.934-124.304 150.293-166.104 139.207 123.578c2.334-12.677 3.634-25.541 3.634-38.89v-1.818c-.928-117.952-96.852-212.99-214.807-212.99a213.88 213.88 0 0 0-61.79 9.087zM1470.94 128c-117.956 0-213.88 95.402-214.808 213.354v1.453c0 10.674.85 21.363 2.363 31.622l-167.557 148.293c59.623 45.44 108.383 106.755 141.388 178.461l173.735-153.745c20.501 6.517 42.227 10.177 64.879 10.177 118.549 0 214.807-96.258 214.807-214.808 0-14.373-1.482-28.213-4.18-41.798l-137.39 121.76-150.655-167.193 134.482-119.58c-18.202-5.019-37.274-7.996-57.064-7.996zM438.7 1099.903l-162.105 143.569a213.88 213.88 0 0 0-61.789-9.087c-117.955 0-213.88 95.038-214.807 212.99v1.818c0 13.349 1.3 26.213 3.635 38.89l139.206-123.578 150.293 166.104L153.2 1654.913c19.543 5.858 40.166 9.087 61.607 9.087 118.55 0 214.808-96.258 214.808-214.807 0-12.024-1.177-23.771-3.09-35.256l139.934-123.942c-55.748-50.288-100.038-115.536-127.758-190.092z" overflow="visible" fill-rule="evenodd"/>
    <path d="M842.874 474.381c-221.565 0-401.265 199.074-401.265 444.699 0 151.88 68.896 285.972 173.736 366.19-6.92 11.746-10.91 25.472-10.904 40.163-.017 43.205 34.406 78.327 76.873 78.327 42.466 0 76.89-35.122 76.872-78.327.002-3.077-.206-6.102-.544-9.087h10.54c-.6 3.84-.91 7.806-.909 11.813-.017 41.748 33.836 75.6 75.6 75.6 41.766 0 75.618-33.852 75.601-75.6a76.48 76.48 0 0 0-.908-11.813h13.448c-.6 3.84-.91 7.806-.909 11.813-.017 41.748 33.836 75.6 75.6 75.6 41.766 0 75.618-33.852 75.601-75.6.006-15.365-4.664-29.685-12.54-41.617 105.768-80.07 175.372-214.786 175.372-367.462 0-245.625-179.7-444.699-401.264-444.699zM670.41 806.224c22.548-.089 45.233 7.004 64.515 18.537 16.522 12.035 29.457 28.511 39.254 46.342 8.507 22.225-3.355 47.618-21.263 61.425-13.653 9.14-26.84 19.832-42.889 24.534-19.678 6.513-38.239 15.636-56.7 24.897-9.066 5.136-15.864 12.62-18.173 22.899-6.373 10.36-.453 24.171-7.451 33.62-10.602 7.706-22.605-1.524-30.895-8.178-18.14-13.337-34.078-31.742-38.709-54.338-3.572-19.103-7.528-38.647-5.27-58.154.282-23.662 11.604-45.568 26.17-63.606 16.546-22.492 40.57-41.866 69.058-45.433 7.39-1.69 14.837-2.515 22.353-2.545zm344.927 0c7.517.03 14.963.855 22.353 2.545 28.488 3.567 52.513 22.941 69.059 45.433 14.566 18.038 25.887 39.944 26.17 63.606 2.257 19.507-1.7 39.051-5.271 58.154-4.63 22.596-20.57 41-38.71 54.338-8.289 6.654-20.291 15.884-30.894 8.178-6.997-9.449-1.077-23.26-7.45-33.62-2.31-10.279-9.108-17.763-18.174-22.899-18.461-9.261-37.022-18.384-56.7-24.897-16.05-4.702-29.235-15.394-42.889-24.534-17.907-13.807-29.77-39.2-21.263-61.425 9.797-17.831 22.732-34.307 39.254-46.342 19.282-11.533 41.967-18.626 64.515-18.537zM844.146 1034.48c21.487.59 42.702 89.685 37.255 124.85-17.925 52.764-14.603-34.419-37.255-35.438-23.66.074-28.049 86.195-40.345 35.62-3.877-38.215 20.757-125.57 40.345-125.032z"/>
</svg>
