<svg xmlns="http://www.w3.org/2000/svg" width="1536" height="1792" viewBox="0 0 1536 1792">
    <path d="M768 1664C343.845 1664 0 1320.155 0 896s343.845-768 768-768 768 343.845 768 768-343.845 768-768 768zM517.209 648.603a23.839 23.839 0 0 0-17.697 23.033c0 10.115 8.2 18.315 18.315 18.315h113.307c16.966 0 30.72-13.754 30.72-30.72v-9.24c0-2.67-.349-5.33-1.037-7.91-4.369-16.382-21.191-26.122-37.574-21.753zm144.036 148.53v-59.29c0-1.483-.199-2.96-.592-4.392-2.436-8.88-11.643-14.113-20.563-11.687l-325.342 88.483c-5.194 1.412-8.797 6.11-8.797 11.47 0 5.014 4.083 9.079 9.12 9.079H466.1c16.966 0 30.72 13.754 30.72 30.72v86.353c0 9.206 7.496 16.669 16.743 16.669H837.79c16.966 0 30.72 13.754 30.72 30.72v58.898c0 1.484.2 2.961.592 4.393 2.436 8.88 11.643 14.113 20.563 11.687l325.342-88.483c5.194-1.412 8.797-6.11 8.797-11.47 0-5.014-4.083-9.079-9.119-9.079H1063.31c-16.966 0-30.72-13.754-30.72-30.72v-85.963c0-9.206-7.496-16.669-16.743-16.669H691.965c-16.966 0-30.72-13.754-30.72-30.72zm229.396-250.05c-13.415 3.61-22.739 15.773-22.739 29.665V752.89c0 16.966 13.754 30.72 30.72 30.72h100.902c16.966 0 30.72-13.754 30.72-30.72V549.6a30.71 30.71 0 0 0-1.055-7.982c-4.408-16.383-21.263-26.091-37.647-21.683zm121.906 602.558a23.839 23.839 0 0 0 17.697-23.034c0-10.114-8.2-18.314-18.315-18.314H898.622c-16.966 0-30.72 13.754-30.72 30.72v9.24c0 2.67.349 5.329 1.037 7.91 4.369 16.382 21.191 26.122 37.574 21.753zm-373.432 101.52c13.415-3.61 22.739-15.773 22.739-29.665v-176.142c0-16.966-13.754-30.72-30.72-30.72H530.232c-16.966 0-30.72 13.754-30.72 30.72v203.29c0 2.695.355 5.379 1.055 7.982 4.408 16.383 21.263 26.091 37.647 21.683z" fill-rule="evenodd"/>
</svg>
