<svg xmlns="http://www.w3.org/2000/svg" width="1536" height="1536" viewBox="0 0 1536 1536">
  <path d="M 766.51261,0.00116772 C 392.53775,-0.08651777 150,266 85.351,415.22262 c 30.19757,-7.15289 75.25795,12.1508 75.25795,47.43424 -0.50667,61.74151 -0.35637,185.83109 0,241.98337 73.10839,-1.01898 167.04049,0.0219 241.98336,0 0.41689,-63.55071 -0.69141,-199.58474 0,-241.98337 0.58011,-34.92383 43.43189,-47.49803 72.2255,-47.43424 28.59775,0.0645 71.3873,16.2685 71.49508,47.43424 0.2068,59.96026 2.15937,422.4259 0,571.96054 -0.52395,36.2827 -39.36001,65.9955 -71.88177,65.9955 -32.52174,0 -71.82341,-26.8555 -71.83881,-65.9955 -0.0154,-39.13989 0.35154,-143.32626 0,-197.98625 -79.59375,0.90942 -167.04789,0.0616 -241.98336,0 0.56682,75.16651 0.32485,169.00855 0,219.98485 0,32.9977 -62.895458,48.8579 -84.89395,43.9969 C 100,1161 305,1536 764.19245,1535.9424 1216.5857,1535.8854 1415,1201 1460.22,1100.6129 c -63.8901,1.4523 -140.464,0 -177.6883,0 -65.9954,0 -76.3086,-15.0661 -77.725,-65.5228 -1.9489,-69.43064 -1.5843,-481.54924 0,-572.43324 0.4601,-26.39482 43.3512,-47.27584 71.8818,-47.43424 27.028,-0.14913 71.5206,14.76027 71.8387,47.43424 -0.3181,95.94614 0,383.12119 0,483.96672 H 1514.94 c 10.9418,-44.00811 20.9562,-88.00704 21.0595,-177.49172 C 1536.5009,330.6515 1177.6509,0.09756689 766.51261,0.00116772 Z M 873.84117,415.22262 c 45.15701,0.30996 68.4994,25.43575 78.71333,47.43424 10.21392,21.99849 109.9925,278.06511 131.991,329.97731 0,0 87.9938,175.96414 87.9938,229.39433 0,49.5656 -48.332,78.7375 -87.9938,78.5844 -39.6618,-0.1538 -81.0336,-47.0379 -81.0336,-79.014 -43.99694,-0.2003 -225.22295,0.3041 -263.29438,0 0,39.5287 -51.63238,79.2852 -87.3924,79.014 -35.76005,-0.2713 -74.2449,-21.9983 -74.2449,-87.9939 0,-65.99542 204.77498,-530.63721 215.04381,-549.96214 10.26883,-19.32492 35.06012,-47.74428 80.21714,-47.43424 z M 1084.5455,792.63417 C 1007.0218,748.63719 864.56054,682.64173 864.56054,682.64173 L 776.5666,902.62661 h 197.98639 z"/>
</svg>
