<svg xmlns="http://www.w3.org/2000/svg" width="1536" height="1536" viewBox="0 0 1536 1536">
    <path d="M766.513.001C392.538-.087 150 266 85.35 415.223c30.198-7.153 75.258 12.15 75.258 47.434-.507 61.741-.356 185.83 0 241.983 73.108-1.019 167.04.022 241.983 0 .417-63.55-.691-199.585 0-241.983.58-34.924 43.432-47.498 72.226-47.434 28.598.064 71.387 16.268 71.495 47.434.207 59.96 2.16 422.426 0 571.96-.524 36.283-39.36 65.996-71.882 65.996-32.522 0-71.823-26.856-71.839-65.996-.015-39.14.352-143.326 0-197.986-79.593.91-167.048.062-241.983 0 .567 75.167.325 169.009 0 219.985 0 32.998-62.896 48.858-84.894 43.997C100 1161 305 1536 764.192 1535.943c452.394-.058 650.808-334.943 696.028-435.33-63.89 1.452-140.464 0-177.688 0-65.996 0-76.309-15.066-77.725-65.523-1.95-69.43-1.585-481.55 0-572.433.46-26.395 43.35-47.276 71.882-47.434 27.028-.15 71.52 14.76 71.838 47.434-.318 95.946 0 383.121 0 483.967h166.413c10.942-44.009 20.956-88.007 21.06-177.492.5-438.48-358.35-769.034-769.487-769.13zM873.84 415.223c45.157.31 68.5 25.435 78.714 47.434 10.213 21.998 109.992 278.065 131.99 329.977 0 0 87.994 175.964 87.994 229.395 0 49.565-48.332 78.737-87.993 78.584-39.662-.154-81.034-47.038-81.034-79.014-43.997-.2-225.223.304-263.294 0 0 39.529-51.633 79.285-87.393 79.014-35.76-.271-74.245-21.998-74.245-87.994 0-65.995 204.775-530.637 215.044-549.962 10.269-19.325 35.06-47.744 80.217-47.434zm210.704 377.411c-77.523-43.997-219.984-109.992-219.984-109.992l-87.994 219.985h197.986z"/>
</svg>
