<?xml version="1.0" standalone="no"?>
<svg width="1536px" height="1536px" version="1.1" xmlns="http://www.w3.org/2000/svg">
    <path transform="scale(1, -1) translate(0, -1536)" glyph-name="hand_o_down" unicode="&#xf0a7;" 

d="M1408 576c0 199 -128 369 -128 544v32h-640v-32c0 -106 -90 -177 -163 -241c-46 -41 -92 -79 -145 -112c-22 -14 -45 -26 -68 -38s-136 -62 -136 -89c0 -85 32 -160 128 -160c128 0 193 96 256 96v-576c0 -67 60 -128 128 -128c69 0 128 59 128 128v331
c26 -20 70 -35 103 -35c47 0 87 19 119 53c21 -12 45 -18 69 -18c46 0 103 23 126 65c18 -3 37 -4 56 -4c118 0 167 73 167 184zM1280 1344c0 35 -29 64 -64 64s-64 -29 -64 -64s29 -64 64 -64s64 29 64 64zM1536 580c0 -184 -104 -318 -295 -317l-5 1
c-50 -40 -114 -61 -178 -61c-14 0 -29 1 -43 3c-34 -19 -80 -33 -119 -37v-169c0 -140 -117 -256 -257 -256c-138 0 -255 118 -255 256v374c-39 -16 -86 -22 -128 -22c-168 0 -256 129 -256 288c0 134 171 177 264 235c47 30 88 64 129 100c33 29 119 97 119 145v288
c0 71 57 128 128 128h640c71 0 128 -57 128 -128v-288c0 -63 37 -162 59 -223c37 -102 69 -207 69 -317z" />
</svg>