<svg width="1536" height="1536" xmlns="http://www.w3.org/2000/svg">
    <path d="M1408 960c0-199-128-369-128-544v-32H640v32c0 106-90 177-163 241-46 41-92 79-145 112-22 14-45 26-68 38s-136 62-136 89c0 85 32 160 128 160 128 0 193-96 256-96v576c0 67 60 128 128 128 69 0 128-59 128-128v-331c26 20 70 35 103 35 47 0 87-19 119-53 21 12 45 18 69 18 46 0 103-23 126-65 18 3 37 4 56 4 118 0 167-73 167-184zm-128-768c0-35-29-64-64-64s-64 29-64 64 29 64 64 64 64-29 64-64zm256 764c0 184-104 318-295 317l-5-1c-50 40-114 61-178 61-14 0-29-1-43-3-34 19-80 33-119 37v169c0 140-117 256-257 256-138 0-255-118-255-256v-374c-39 16-86 22-128 22C88 1184 0 1055 0 896c0-134 171-177 264-235 47-30 88-64 129-100 33-29 119-97 119-145V128C512 57 569 0 640 0h640c71 0 128 57 128 128v288c0 63 37 162 59 223 37 102 69 207 69 317z"/>
</svg>
