<svg width="1536" height="1536" xmlns="http://www.w3.org/2000/svg">
    <path d="M256 1344c0-35-29-64-64-64s-64 29-64 64 29 64 64 64 64-29 64-64zm1408-576c0-68-61-128-128-128H960c0-63 96-128 96-256 0-96-75-128-160-128-28 0-79 116-90 139-12 22-24 44-37 65-33 53-71 99-112 145-64 73-135 163-241 163h-32v640h32c175 0 346 128 540 128 112 0 189-47 189-167 0-19-2-38-5-56 42-23 65-80 65-126 0-24-6-48-18-69 34-32 53-72 53-119 0-32-14-79-35-103h331c69 0 128-59 128-128zm128-1c0 140-116 257-256 257h-169c-3 42-16 82-37 119 2 14 3 29 3 43 0 64-21 128-60 178 2 189-127 300-312 300-112 0-218-31-322-69-61-22-160-59-223-59H128c-71 0-128-57-128-128V768c0-71 57-128 128-128h288c48 0 116-86 145-119 36-41 70-82 100-129 58-93 101-264 235-264 159 0 288 87 288 256 0 44-7 87-22 128h374c138 0 256 117 256 255z"/>
</svg>
