<svg width="1536" height="1536" xmlns="http://www.w3.org/2000/svg">
    <path d="M640 128c-71 0-128 57-128 128v896L361 950c-25-33-65-54-107-54-70 0-126 59-126 128 0 28 9 55 26 77l384 512c24 32 62 51 102 51h718c29 0 55-20 62-48l92-368c16-64 24-129 24-194V837c0-53-41-101-96-101-53 0-96 43-96 96h-32v-61c0-63-48-115-112-115-62 0-112 50-112 112v64h-32v-90c0-72-55-134-128-134-71 0-128 57-128 128v96h-32V262c0-72-55-134-128-134zm0-128c143 0 256 120 256 262v220c11-1 21-2 32-2 65 0 126 25 173 69 31-14 65-21 99-21 72 0 139 32 184 87 19-5 37-7 56-7 126 0 224 105 224 229v217c0 75-9 151-28 225l-92 368c-21 85-98 145-186 145H640c-80 0-157-39-205-102L51 1178c-33-44-51-99-51-154 0-140 114-256 254-256 46 0 91 12 130 35V256C384 115 499 0 640 0zm128 1408v-384h-32v384h32zm256 0v-384h-32v384h32zm256 0v-384h-32v384h32z"/>
</svg>
