<svg width="1536" height="1536" xmlns="http://www.w3.org/2000/svg">
    <path d="M192 1152c84 0 84-128 0-128s-84 128 0 128zm1473-58c-79-103-156-208-246-302l-125 140c-110 125-307 122-414-6-76-92-76-224 2-315l177-206c-62-32-137-21-204-21-59 0-116 24-158 66L539 608H384v544c44 0 84-6 119 28l297 292c61 59 140 111 227 111 45 0 93-15 125-47 75 26 162-16 185-93 48 4 92-11 127-44 23-21 53-63 50-96 9 9 31 10 43 10 119 0 181-125 108-219zm159 58h96V640h-93l-157-180c-42-48-105-76-169-76h-167c-56 0-110 25-146 67L979 694c-37 44-37 106-1 150 57 68 162 69 221 3l193-218c46-51 130-3 109 62 38 44 79 87 116 131 50 62 98 127 147 190 31 40 54 88 60 140zm288 0c84 0 84-128 0-128s-84 128 0 128zm192-576v640c0 35-29 64-64 64h-434c-36 87-115 145-207 158-43 63-109 111-183 127-55 70-144 112-233 106-165 93-351 12-474-109l-287-282H64c-35 0-64-29-64-64V544c0-35 29-64 64-64h421c116-116 196-224 370-224h117c65 0 128 20 181 56 53-36 116-56 181-56h167c190 0 269 124 384 256h355c35 0 64 29 64 64z"/>
</svg>
