<?xml version="1.0" standalone="no"?>
<svg width="1536px" height="1536px" version="1.1" xmlns="http://www.w3.org/2000/svg">
    <path transform="scale(1, -1) translate(0, -1536)" glyph-name="hand_scissors_o" unicode="&#xf257;" horiz-adv-x="1792" 

d="M1073 -128h-177c-104 0 -183 45 -226 141c-15 32 -23 67 -23 102v5c-82 40 -135 124 -135 216c0 11 0 38 5 48h-261c-141 0 -256 115 -256 256s115 256 256 256h113l-44 17c-99 37 -165 133 -165 239c0 141 115 256 256 256c31 0 62 -6 91 -17l628 -239h401
c141 0 256 -115 256 -256v-668c0 -118 -80 -220 -194 -248l-339 -85c-60 -15 -123 -23 -186 -23zM1024 583l-155 -71l-163 -74c-40 -18 -66 -58 -66 -102c0 -62 50 -112 112 -112c16 0 32 3 46 10l338 154c-65 14 -112 73 -112 140v55zM1344 272c0 62 -50 112 -112 112
c-16 0 -32 -3 -46 -10l-290 -132c-60 -27 -121 -51 -121 -127c0 -66 46 -114 113 -114c12 0 28 4 38 9l352 160c40 18 66 58 66 102zM1112 1024l-650 248c-15 5 -30 8 -46 8c-70 0 -128 -57 -128 -128c0 -53 33 -101 82 -120l526 -200v-64h-640c-71 0 -128 -57 -128 -128
s57 -128 128 -128h535l233 106v198c0 40 17 79 46 106l111 102h-69zM1073 0c52 0 105 6 155 19l339 85c57 14 97 65 97 124v668c0 71 -57 128 -128 128h-308l-136 -126c-23 -21 -36 -51 -36 -82v-296c0 -62 51 -108 112 -108c62 0 112 55 112 116v208h32v-208
c0 -45 -22 -87 -57 -114c70 -11 121 -72 121 -142c0 -56 -33 -108 -84 -131l-310 -141h91z" />
</svg>