<?xml version="1.0" standalone="no"?>
<svg width="1536px" height="1536px" version="1.1" xmlns="http://www.w3.org/2000/svg">
    <path transform="scale(1, -1) translate(0, -1536)" glyph-name="hand_paper_o" unicode="&#xf256;" horiz-adv-x="1792" 

d="M880 1408c-62 0 -112 -50 -112 -112v-656h-32v528c0 62 -50 112 -112 112s-112 -50 -112 -112v-528v-256l-154 205c-24 32 -62 51 -102 51c-71 0 -128 -58 -128 -128c0 -28 9 -55 26 -77l384 -512c24 -32 62 -51 102 -51h688c46 0 86 33 95 78l76 405c3 19 5 39 5 59v498
c0 62 -50 112 -112 112s-112 -50 -112 -112v-272h-32v528c0 62 -50 112 -112 112s-112 -50 -112 -112v-528h-32v656c0 62 -50 112 -112 112zM880 1536c90 0 173 -51 214 -132c14 3 28 4 42 4c132 0 240 -108 240 -240v-17c139 8 256 -99 256 -239v-498c0 -28 -3 -56 -8 -83
l-76 -404c-19 -106 -112 -183 -220 -183h-688c-80 0 -157 39 -205 102l-384 512c-33 44 -51 99 -51 154c0 141 114 256 256 256c42 0 93 -10 128 -34v434c0 132 108 240 240 240c14 0 28 -1 42 -4c41 81 124 132 214 132z" />
</svg>