<?xml version="1.0" standalone="no"?>
<svg width="1536px" height="1536px" version="1.1" xmlns="http://www.w3.org/2000/svg">
    <path transform="scale(1, -1) translate(0, -1536)" glyph-name="hand_o_right" unicode="&#xf0a4;" horiz-adv-x="1792" 

d="M256 192c0 35 -29 64 -64 64s-64 -29 -64 -64s29 -64 64 -64s64 29 64 64zM1664 768c0 68 -61 128 -128 128h-576c0 63 96 128 96 256c0 96 -75 128 -160 128c-28 0 -79 -116 -90 -139c-12 -22 -24 -44 -37 -65c-33 -53 -71 -99 -112 -145c-64 -73 -135 -163 -241 -163
h-32v-640h32c175 0 346 -128 540 -128c112 0 189 47 189 167c0 19 -2 38 -5 56c42 23 65 80 65 126c0 24 -6 48 -18 69c34 32 53 72 53 119c0 32 -14 79 -35 103h331c69 0 128 59 128 128zM1792 769c0 -140 -116 -257 -256 -257h-169c-3 -42 -16 -82 -37 -119
c2 -14 3 -29 3 -43c0 -64 -21 -128 -60 -178c2 -189 -127 -300 -312 -300c-112 0 -218 31 -322 69c-61 22 -160 59 -223 59h-288c-71 0 -128 57 -128 128v640c0 71 57 128 128 128h288c48 0 116 86 145 119c36 41 70 82 100 129c58 93 101 264 235 264
c159 0 288 -87 288 -256c0 -44 -7 -87 -22 -128h374c138 0 256 -117 256 -255z" />
</svg>