<svg width="1536" height="1536" xmlns="http://www.w3.org/2000/svg">
    <path d="M1280 1600c0-35-29-64-64-64s-64 29-64 64 29 64 64 64 64-29 64-64zm128-764c0-113-46-189-167-189-19 0-38 2-56 5-23-42-80-65-126-65-24 0-48 6-69 18-32-34-72-53-119-53-32 0-79 14-103 35V256c0-69-59-128-128-128-68 0-128 61-128 128v576c-63 0-128-96-256-96-96 0-128 75-128 160 0 28 116 79 139 90 22 12 44 24 65 37 53 33 99 71 145 112 73 64 163 135 163 241v32h640v-32c0-175 128-346 128-540zm128-5c0 112-31 218-69 322-22 61-59 160-59 223v288c0 71-57 128-128 128H640c-71 0-128-57-128-128v-288c0-48-86-116-119-145-41-36-82-70-129-100-93-58-264-101-264-235 0-159 87-288 256-288 44 0 87 7 128 22V256C384 118 501 0 639 0c140 0 257 116 257 256v169c42 3 82 16 119 37 14-2 29-3 43-3 64 0 128 21 178 60 189-2 300 127 300 312z"/>
</svg>
