<?xml version="1.0" standalone="no"?>
<svg width="1536px" height="1536px" version="1.1" xmlns="http://www.w3.org/2000/svg">
    <path transform="scale(1, -1) translate(0, -1536)" glyph-name="hand_o_left" unicode="&#xf0a5;" horiz-adv-x="1792" 

d="M1376 128h32v640h-32c-106 0 -177 90 -241 163c-41 46 -79 92 -112 145c-14 22 -26 45 -38 68s-62 136 -89 136c-85 0 -160 -32 -160 -128c0 -128 96 -193 96 -256h-576c-67 0 -128 -60 -128 -128c0 -69 59 -128 128 -128h331c-21 -24 -35 -71 -35 -103
c0 -47 19 -87 53 -119c-12 -21 -18 -45 -18 -69c0 -46 23 -103 65 -126c-3 -18 -4 -37 -4 -56c0 -118 73 -167 184 -167c199 0 369 128 544 128zM1664 192c0 35 -29 64 -64 64s-64 -29 -64 -64s29 -64 64 -64s64 29 64 64zM1792 768v-640c0 -71 -57 -128 -128 -128h-288
c-63 0 -162 -37 -223 -59c-102 -37 -207 -69 -317 -69c-184 0 -318 104 -317 295l1 5c-40 50 -61 114 -61 178c0 14 1 29 3 43c-21 37 -34 77 -37 119h-169c-140 0 -256 117 -256 257c0 138 118 255 256 255h374c-15 41 -22 84 -22 128c0 169 129 256 288 256
c134 0 177 -171 235 -264c30 -47 64 -88 100 -129c29 -33 97 -119 145 -119h288c71 0 128 -57 128 -128z" />
</svg>