<?xml version="1.0" standalone="no"?>
<svg width="1536px" height="1536px" version="1.1" xmlns="http://www.w3.org/2000/svg">
    <path transform="scale(1, -1) translate(0, -1536)" glyph-name="hand_spock_o" unicode="&#xf259;" horiz-adv-x="2048" 

d="M459 -256c-103 0 -192 70 -217 170l-101 401c-8 35 -13 72 -13 108c0 23 0 45 -5 67l-116 477c-5 19 -7 38 -7 57c0 124 94 226 217 239c22 113 119 193 235 193c111 0 207 -76 233 -184l83 -348l103 428c26 108 122 184 233 184c119 0 217 -86 236 -202
c123 -14 212 -118 212 -241c0 -19 -3 -39 -7 -59l-123 -512c80 60 138 118 243 118c139 0 255 -113 255 -253c0 -84 -41 -162 -107 -212l-507 -380c-44 -33 -98 -51 -153 -51h-694zM1104 1408c-51 0 -96 -36 -108 -86l-164 -682h-127l-145 602c-12 50 -57 86 -108 86
c-64 0 -112 -51 -112 -113c0 -10 1 -19 3 -28l132 -547h-26l-99 408c-12 49 -57 88 -109 88c-62 0 -113 -50 -113 -112c0 -9 1 -18 3 -26l116 -478c14 -58 4 -116 19 -174l100 -401c11 -43 49 -73 93 -73h694c27 0 54 9 76 26l507 379c34 26 56 67 56 110
c0 70 -58 125 -127 125c-28 0 -55 -9 -77 -26l-307 -230v227c0 8 129 538 139 581c2 9 4 19 4 29c0 62 -47 115 -111 115c-52 0 -97 -36 -109 -86l-116 -482h-26l150 624c2 9 3 19 3 28c0 63 -46 116 -111 116z" />
</svg>