<?xml version="1.0" standalone="no"?>
<svg width="1536px" height="1536px" version="1.1" xmlns="http://www.w3.org/2000/svg">
    <path transform="scale(1, -1) translate(0, -1536)" glyph-name="hand_peace_o" unicode="&#xf25b;" 

d="M1288 889c37 0 74 -7 107 -23c96 -43 141 -122 141 -226v-177c0 -63 -8 -126 -23 -186l-85 -339c-28 -114 -130 -194 -248 -194h-668c-141 0 -256 115 -256 256v401l-239 628c-11 29 -17 60 -17 91c0 141 115 256 256 256c106 0 202 -66 239 -165l17 -44v113
c0 141 115 256 256 256s256 -115 256 -256v-261c16 3 32 5 48 5c92 0 176 -53 216 -135zM1072 896c-44 0 -84 -26 -102 -66l-74 -163l-71 -155h55c67 0 126 -47 140 -112l154 338c7 14 10 30 10 46c0 62 -50 112 -112 112zM1293 761c-76 0 -100 -61 -127 -121l-132 -290
c-7 -14 -10 -30 -10 -46c0 -62 50 -112 112 -112c44 0 84 26 102 66l160 352c5 10 9 26 9 38c0 67 -48 113 -114 113zM128 1120c0 -16 3 -31 8 -46l248 -650v-69l102 111c27 29 66 46 106 46h198l106 233v535c0 71 -57 128 -128 128s-128 -57 -128 -128v-640h-64l-200 526
c-19 49 -67 82 -120 82c-71 0 -128 -58 -128 -128zM1180 -128c59 0 110 40 124 97l85 339c13 50 19 103 19 155v91l-141 -310c-23 -51 -75 -84 -131 -84c-70 0 -131 51 -142 121c-27 -35 -69 -57 -114 -57h-208v32h208c61 0 116 50 116 112c0 61 -46 112 -108 112h-296
c-31 0 -61 -13 -82 -36l-126 -136v-308c0 -71 57 -128 128 -128h668z" />
</svg>