<svg width="1536" height="1536" xmlns="http://www.w3.org/2000/svg">
    <path d="M1376 1408h32V768h-32c-106 0-177-90-241-163-41-46-79-92-112-145-14-22-26-45-38-68s-62-136-89-136c-85 0-160 32-160 128 0 128 96 193 96 256H256c-67 0-128 60-128 128 0 69 59 128 128 128h331c-21 24-35 71-35 103 0 47 19 87 53 119-12 21-18 45-18 69 0 46 23 103 65 126-3 18-4 37-4 56 0 118 73 167 184 167 199 0 369-128 544-128zm288-64c0-35-29-64-64-64s-64 29-64 64 29 64 64 64 64-29 64-64zm128-576v640c0 71-57 128-128 128h-288c-63 0-162 37-223 59-102 37-207 69-317 69-184 0-318-104-317-295l1-5c-40-50-61-114-61-178 0-14 1-29 3-43-21-37-34-77-37-119H256C116 1024 0 907 0 767c0-138 118-255 256-255h374c-15-41-22-84-22-128 0-169 129-256 288-256 134 0 177 171 235 264 30 47 64 88 100 129 29 33 97 119 145 119h288c71 0 128 57 128 128z"/>
</svg>
