<svg width="1536" height="1536" xmlns="http://www.w3.org/2000/svg">
    <path d="M1151 0c81 0 159 39 207 105l572 781c77 104 118 229 118 359v355c0 106-86 192-192 192h-384c-106 0-192-86-192-192v-177l-286-143H448c-106 0-192-86-192-192v-32c0-159 129-288 288-288h420l42-128H320C187 640 76 538 65 406 23 355 0 290 0 224v-32C0 86 86 0 192 0h959zm769 1600v-355c0-101-33-202-93-284l-573-781c-24-32-62-52-103-52H192c-35 0-64 29-64 64 0 53 1 90 36 133 13-41 50-69 92-69h832v32H256c-35 0-64 29-64 64 0 19-1 39 3 58 11 59 65 102 125 102h731c53 0 96 43 96 96 0 10-2 21-5 30l-64 192c-13 39-50 66-91 66H544c-88 0-160 72-160 160v32c0 35 29 64 64 64h561c10 0 20 2 29 7l317 158c32 17 53 50 53 86v197c0 35 29 64 64 64h384c35 0 64-29 64-64z"/>
</svg>
