<?xml version="1.0" standalone="no"?>
<svg width="1536px" height="1536px" version="1.1" xmlns="http://www.w3.org/2000/svg">
    <path transform="scale(1, -1) translate(0, -1536)" glyph-name="handshake_o" unicode="&#xf2b5;" horiz-adv-x="2304" 

d="M192 384c84 0 84 128 0 128s-84 -128 0 -128zM1665 442c-79 103 -156 208 -246 302l-125 -140c-110 -125 -307 -122 -414 6c-76 92 -76 224 2 315l177 206c-62 32 -137 21 -204 21c-59 0 -116 -24 -158 -66l-158 -158h-155v-544c44 0 84 6 119 -28l297 -292
c61 -59 140 -111 227 -111c45 0 93 15 125 47c75 -26 162 16 185 93c48 -4 92 11 127 44c23 21 53 63 50 96c9 -9 31 -10 43 -10c119 0 181 125 108 219zM1824 384h96v512h-93l-157 180c-42 48 -105 76 -169 76h-167c-56 0 -110 -25 -146 -67l-209 -243
c-37 -44 -37 -106 -1 -150c57 -68 162 -69 221 -3l193 218c46 51 130 3 109 -62c38 -44 79 -87 116 -131c50 -62 98 -127 147 -190c31 -40 54 -88 60 -140zM2112 384c84 0 84 128 0 128s-84 -128 0 -128zM2304 960v-640c0 -35 -29 -64 -64 -64h-434
c-36 -87 -115 -145 -207 -158c-43 -63 -109 -111 -183 -127c-55 -70 -144 -112 -233 -106c-165 -93 -351 -12 -474 109l-287 282h-358c-35 0 -64 29 -64 64v672c0 35 29 64 64 64h421c116 116 196 224 370 224h117c65 0 128 -20 181 -56c53 36 116 56 181 56h167
c190 0 269 -124 384 -256h355c35 0 64 -29 64 -64z" />
</svg>