<svg width="1536" height="1536" xmlns="http://www.w3.org/2000/svg">
    <path d="M1073 1664H896c-104 0-183-45-226-141-15-32-23-67-23-102v-5c-82-40-135-124-135-216 0-11 0-38 5-48H256C115 1152 0 1037 0 896s115-256 256-256h113l-44-17c-99-37-165-133-165-239 0-141 115-256 256-256 31 0 62 6 91 17l628 239h401c141 0 256 115 256 256v668c0 118-80 220-194 248l-339 85c-60 15-123 23-186 23zm-49-711l-155 71-163 74c-40 18-66 58-66 102 0 62 50 112 112 112 16 0 32-3 46-10l338-154c-65-14-112-73-112-140v-55zm320 311c0-62-50-112-112-112-16 0-32 3-46 10l-290 132c-60 27-121 51-121 127 0 66 46 114 113 114 12 0 28-4 38-9l352-160c40-18 66-58 66-102zm-232-752L462 264c-15-5-30-8-46-8-70 0-128 57-128 128 0 53 33 101 82 120l526 200v64H256c-71 0-128 57-128 128s57 128 128 128h535l233-106V720c0-40 17-79 46-106l111-102h-69zm-39 1024c52 0 105-6 155-19l339-85c57-14 97-65 97-124V640c0-71-57-128-128-128h-308l-136 126c-23 21-36 51-36 82v296c0 62 51 108 112 108 62 0 112-55 112-116V800h32v208c0 45-22 87-57 114 70 11 121 72 121 142 0 56-33 108-84 131l-310 141h91z"/>
</svg>
