<?xml version="1.0" standalone="no"?>
<svg width="1536px" height="1536px" version="1.1" xmlns="http://www.w3.org/2000/svg">
    <path transform="scale(1, -1) translate(0, -1536)" glyph-name="hand_lizard_o" unicode="&#xf258;" horiz-adv-x="2048" 

d="M1151 1536c81 0 159 -39 207 -105l572 -781c77 -104 118 -229 118 -359v-355c0 -106 -86 -192 -192 -192h-384c-106 0 -192 86 -192 192v177l-286 143h-546c-106 0 -192 86 -192 192v32c0 159 129 288 288 288h420l42 128h-686c-133 0 -244 102 -255 234
c-42 51 -65 116 -65 182v32c0 106 86 192 192 192h959zM1920 -64v355c0 101 -33 202 -93 284l-573 781c-24 32 -62 52 -103 52h-959c-35 0 -64 -29 -64 -64c0 -53 1 -90 36 -133c13 41 50 69 92 69h832v-32h-832c-35 0 -64 -29 -64 -64c0 -19 -1 -39 3 -58
c11 -59 65 -102 125 -102h640h91c53 0 96 -43 96 -96c0 -10 -2 -21 -5 -30l-64 -192c-13 -39 -50 -66 -91 -66h-443c-88 0 -160 -72 -160 -160v-32c0 -35 29 -64 64 -64h561c10 0 20 -2 29 -7l317 -158c32 -17 53 -50 53 -86v-197c0 -35 29 -64 64 -64h384c35 0 64 29 64 64
z" />
</svg>