<svg width="1536" height="1536" xmlns="http://www.w3.org/2000/svg">
    <path d="M1288 647c37 0 74 7 107 23 96 43 141 122 141 226v177c0 63-8 126-23 186l-85 339c-28 114-130 194-248 194H512c-141 0-256-115-256-256v-401L17 507C6 478 0 447 0 416c0-141 115-256 256-256 106 0 202 66 239 165l17 44V256C512 115 627 0 768 0s256 115 256 256v261c16-3 32-5 48-5 92 0 176 53 216 135zm-216-7c-44 0-84 26-102 66l-74 163-71 155h55c67 0 126 47 140 112l154-338c7-14 10-30 10-46 0-62-50-112-112-112zm221 135c-76 0-100 61-127 121l-132 290c-7 14-10 30-10 46 0 62 50 112 112 112 44 0 84-26 102-66l160-352c5-10 9-26 9-38 0-67-48-113-114-113zM128 416c0 16 3 31 8 46l248 650v69l102-111c27-29 66-46 106-46h198l106-233V256c0-71-57-128-128-128s-128 57-128 128v640h-64L376 370c-19-49-67-82-120-82-71 0-128 58-128 128zm1052 1248c59 0 110-40 124-97l85-339c13-50 19-103 19-155v-91l-141 310c-23 51-75 84-131 84-70 0-131-51-142-121-27 35-69 57-114 57H672v-32h208c61 0 116-50 116-112 0-61-46-112-108-112H592c-31 0-61 13-82 36l-126 136v308c0 71 57 128 128 128h668z"/>
</svg>
