<?xml version="1.0" standalone="no"?>
<svg width="1536px" height="1536px" version="1.1" xmlns="http://www.w3.org/2000/svg">
    <path transform="scale(1, -1) translate(0, -1536)" glyph-name="hand_rock_o" unicode="&#xf255;" 

d="M768 1152c-71 0 -128 -57 -128 -128v-128h-32v93c0 63 -48 115 -112 115c-62 0 -112 -50 -112 -112v-429l-32 30v172c0 63 -48 115 -112 115c-62 0 -112 -50 -112 -112v-224c0 -31 13 -60 35 -82l310 -296c29 -29 39 -62 39 -102c0 -35 29 -64 64 -64h640
c35 0 64 29 64 64v25c0 26 3 52 10 77l108 436c7 25 10 51 10 77v246c0 63 -48 115 -112 115c-62 0 -112 -50 -112 -112v-32h-32v125c0 53 -36 102 -89 113c-7 1 -15 2 -23 2c-62 0 -112 -50 -112 -112v-128h-32v122c0 67 -48 126 -115 133c-5 1 -9 1 -13 1zM768 1280
c54 0 106 -17 149 -50c37 22 80 34 123 34c79 0 152 -38 197 -103c19 5 39 7 59 7c134 0 240 -110 240 -243v-246c0 -36 -5 -73 -13 -108l-109 -436c-6 -24 -6 -47 -6 -71c0 -106 -86 -192 -192 -192h-640c-114 0 -192 91 -192 201l-308 296c-47 45 -76 109 -76 175v224
c0 132 108 240 240 240c6 0 11 0 16 -1c8 127 114 225 240 225c34 0 67 -7 98 -21c47 45 109 69 174 69z" />
</svg>