<svg width="1536" height="1536" xmlns="http://www.w3.org/2000/svg">
    <path d="M459 1792c-103 0-192-70-217-170l-101-401c-8-35-13-72-13-108 0-23 0-45-5-67L7 569c-5-19-7-38-7-57 0-124 94-226 217-239C239 160 336 80 452 80c111 0 207 76 233 184l83 348 103-428C897 76 993 0 1104 0c119 0 217 86 236 202 123 14 212 118 212 241 0 19-3 39-7 59l-123 512c80-60 138-118 243-118 139 0 255 113 255 253 0 84-41 162-107 212l-507 380c-44 33-98 51-153 51H459zm645-1664c-51 0-96 36-108 86L832 896H705L560 294c-12-50-57-86-108-86-64 0-112 51-112 113 0 10 1 19 3 28l132 547h-26l-99-408c-12-49-57-88-109-88-62 0-113 50-113 112 0 9 1 18 3 26l116 478c14 58 4 116 19 174l100 401c11 43 49 73 93 73h694c27 0 54-9 76-26l507-379c34-26 56-67 56-110 0-70-58-125-127-125-28 0-55 9-77 26l-307 230v-227c0-8 129-538 139-581 2-9 4-19 4-29 0-62-47-115-111-115-52 0-97 36-109 86l-116 482h-26l150-624c2-9 3-19 3-28 0-63-46-116-111-116z"/>
</svg>
