<?xml version="1.0" standalone="no"?>
<svg width="1536px" height="1536px" version="1.1" xmlns="http://www.w3.org/2000/svg">
    <path transform="scale(1, -1) translate(0, -1536)" glyph-name="hand_o_up" unicode="&#xf0a6;" 

d="M1280 -64c0 35 -29 64 -64 64s-64 -29 -64 -64s29 -64 64 -64s64 29 64 64zM1408 700c0 113 -46 189 -167 189c-19 0 -38 -2 -56 -5c-23 42 -80 65 -126 65c-24 0 -48 -6 -69 -18c-32 34 -72 53 -119 53c-32 0 -79 -14 -103 -35v331c0 69 -59 128 -128 128
c-68 0 -128 -61 -128 -128v-576c-63 0 -128 96 -256 96c-96 0 -128 -75 -128 -160c0 -28 116 -79 139 -90c22 -12 44 -24 65 -37c53 -33 99 -71 145 -112c73 -64 163 -135 163 -241v-32h640v32c0 175 128 346 128 540zM1536 705c0 -112 -31 -218 -69 -322
c-22 -61 -59 -160 -59 -223v-288c0 -71 -57 -128 -128 -128h-640c-71 0 -128 57 -128 128v288c0 48 -86 116 -119 145c-41 36 -82 70 -129 100c-93 58 -264 101 -264 235c0 159 87 288 256 288c44 0 87 -7 128 -22v374c0 138 117 256 255 256c140 0 257 -116 257 -256v-169
c42 -3 82 -16 119 -37c14 2 29 3 43 3c64 0 128 -21 178 -60c189 2 300 -127 300 -312z" />
</svg>