<?xml version="1.0" standalone="no"?>
<svg width="1536px" height="1536px" version="1.1" xmlns="http://www.w3.org/2000/svg">
    <path transform="scale(1, -1) translate(0, -1536)" glyph-name="hand_pointer_o" unicode="&#xf25a;" horiz-adv-x="1792" 

d="M640 1408c-71 0 -128 -57 -128 -128v-512v-384l-151 202c-25 33 -65 54 -107 54c-70 0 -126 -59 -126 -128c0 -28 9 -55 26 -77l384 -512c24 -32 62 -51 102 -51h718c29 0 55 20 62 48l92 368c16 64 24 129 24 194v217c0 53 -41 101 -96 101c-53 0 -96 -43 -96 -96h-32
v61c0 63 -48 115 -112 115c-62 0 -112 -50 -112 -112v-64h-32v90c0 72 -55 134 -128 134c-71 0 -128 -57 -128 -128v-96h-32v570c0 72 -55 134 -128 134zM640 1536c143 0 256 -120 256 -262v-220c11 1 21 2 32 2c65 0 126 -25 173 -69c31 14 65 21 99 21
c72 0 139 -32 184 -87c19 5 37 7 56 7c126 0 224 -105 224 -229v-217c0 -75 -9 -151 -28 -225l-92 -368c-21 -85 -98 -145 -186 -145h-718c-80 0 -157 39 -205 102l-384 512c-33 44 -51 99 -51 154c0 140 114 256 254 256c46 0 91 -12 130 -35v547c0 141 115 256 256 256z
M768 128v384h-32v-384h32zM1024 128v384h-32v-384h32zM1280 128v384h-32v-384h32z" />
</svg>