<svg width="1536" height="1536" xmlns="http://www.w3.org/2000/svg">
    <path d="M768 384c-71 0-128 57-128 128v128h-32v-93c0-63-48-115-112-115-62 0-112 50-112 112v429l-32-30V771c0-63-48-115-112-115-62 0-112 50-112 112v224c0 31 13 60 35 82l310 296c29 29 39 62 39 102 0 35 29 64 64 64h640c35 0 64-29 64-64v-25c0-26 3-52 10-77l108-436c7-25 10-51 10-77V611c0-63-48-115-112-115-62 0-112 50-112 112v32h-32V515c0-53-36-102-89-113-7-1-15-2-23-2-62 0-112 50-112 112v128h-32V518c0-67-48-126-115-133-5-1-9-1-13-1zm0-128c54 0 106 17 149 50 37-22 80-34 123-34 79 0 152 38 197 103 19-5 39-7 59-7 134 0 240 110 240 243v246c0 36-5 73-13 108l-109 436c-6 24-6 47-6 71 0 106-86 192-192 192H576c-114 0-192-91-192-201L76 1167c-47-45-76-109-76-175V768c0-132 108-240 240-240 6 0 11 0 16 1 8-127 114-225 240-225 34 0 67 7 98 21 47-45 109-69 174-69z"/>
</svg>
