<svg xmlns="http://www.w3.org/2000/svg" width="1536" height="1792" viewBox="0 0 1536 1792">
    <path d="M245.76 128h1044.48C1425.97 128 1536 238.03 1536 373.76v1044.48c0 135.73-110.03 245.76-245.76 245.76H245.76C110.03 1664 0 1553.97 0 1418.24V373.76C0 238.03 110.03 128 245.76 128zm907.196 1384.849l-.253-.055c87.369-1.447 158.429-70.82 161.975-158.129 3.546-87.309-61.654-162.215-148.618-170.743l-314.705-555.64c-46.043-82.673-134.94-79.08-166.967 38.25-27.524 111.11-20.44 215.792-28.434 342.281a1.924 1.924 0 0 1-3.542.911L371.453 449.63a95.272 95.272 0 0 0 36.43-74.68c0-51.555-41.794-93.35-93.35-93.35-51.555 0-93.349 41.795-93.349 93.35 0 51.556 41.794 93.35 93.35 93.35 4.401 0 7.993-.911 11.535-.911 118.242 304.03 249.842 658.757 296.947 740.57 32.027 78.221 141.364 53.328 144.046-31.116l11.536-443.624c0-2.682 3.542-2.682 4.452-.91l225.657 536.922a161.35 161.35 0 0 0-20.238 79.132c.112 90.797 73.69 164.375 164.487 164.487z" fill-rule="evenodd"/>
</svg>
