<?xml version="1.0" standalone="no"?>
<svg width="1536px" height="1536px" version="1.1" xmlns="http://www.w3.org/2000/svg">
    <path transform="scale(1, -1) translate(0, -1536)" glyph-name="hashtag" unicode="&#xf292;" horiz-adv-x="1792" 

d="M991 512l64 256h-254l-64 -256h254zM1759 1016l-56 -224c-4 -14 -16 -24 -31 -24h-327l-64 -256h311c10 0 19 -5 25 -12c6 -8 9 -18 6 -28l-56 -224c-3 -14 -16 -24 -31 -24h-327l-81 -328c-4 -14 -17 -24 -31 -24h-224c-10 0 -20 5 -26 12c-6 8 -8 18 -6 28l78 312h-254
l-81 -328c-4 -14 -17 -24 -31 -24h-225c-9 0 -19 5 -25 12c-6 8 -8 18 -6 28l78 312h-311c-10 0 -19 5 -25 12c-6 8 -8 18 -6 28l56 224c4 14 16 24 31 24h327l64 256h-311c-10 0 -19 5 -25 12c-6 8 -9 18 -6 28l56 224c3 14 16 24 31 24h327l81 328c4 14 17 24 32 24h224
c9 0 19 -5 25 -12c6 -8 8 -18 6 -28l-78 -312h254l81 328c4 14 17 24 32 24h224c9 0 19 -5 25 -12c6 -8 8 -18 6 -28l-78 -312h311c10 0 19 -5 25 -12c6 -8 8 -18 6 -28z" />
</svg>