<svg width="1536" height="1536" xmlns="http://www.w3.org/2000/svg">
    <path d="M991 1024l64-256H801l-64 256h254zm768-504l-56 224c-4 14-16 24-31 24h-327l-64 256h311c10 0 19 5 25 12 6 8 9 18 6 28l-56 224c-3 14-16 24-31 24h-327l-81 328c-4 14-17 24-31 24H873c-10 0-20-5-26-12-6-8-8-18-6-28l78-312H665l-81 328c-4 14-17 24-31 24H328c-9 0-19-5-25-12-6-8-8-18-6-28l78-312H64c-10 0-19-5-25-12-6-8-8-18-6-28l56-224c4-14 16-24 31-24h327l64-256H200c-10 0-19-5-25-12-6-8-9-18-6-28l56-224c3-14 16-24 31-24h327l81-328c4-14 17-24 32-24h224c9 0 19 5 25 12 6 8 8 18 6 28l-78 312h254l81-328c4-14 17-24 32-24h224c9 0 19 5 25 12 6 8 8 18 6 28l-78 312h311c10 0 19 5 25 12 6 8 8 18 6 28z"/>
</svg>
