<svg width="1536" height="1536" xmlns="http://www.w3.org/2000/svg">
    <path d="M1040 1216c0 44-36 80-80 80s-80-36-80-80 36-80 80-80 80 36 80 80zm256 0c0 44-36 80-80 80s-80-36-80-80 36-80 80-80 80 36 80 80zm112 160v-320c0-17-15-32-32-32H160c-17 0-32 15-32 32v320c0 17 15 32 32 32h1216c17 0 32-15 32-32zM178 896h1180l-157-482c-5-17-24-30-42-30H377c-18 0-37 13-42 30zm1358 160v320c0 88-72 160-160 160H160c-88 0-160-72-160-160v-320c0-27 8-50 16-75l197-606c23-70 90-119 164-119h782c74 0 141 49 164 119l197 606c8 25 16 48 16 75z"/>
</svg>
