<?xml version="1.0" standalone="no"?>
<svg width="1536px" height="1536px" version="1.1" xmlns="http://www.w3.org/2000/svg">
    <path transform="scale(1, -1) translate(0, -1536)" glyph-name="hdd_o" unicode="&#xf0a0;" 

d="M1040 320c0 -44 -36 -80 -80 -80s-80 36 -80 80s36 80 80 80s80 -36 80 -80zM1296 320c0 -44 -36 -80 -80 -80s-80 36 -80 80s36 80 80 80s80 -36 80 -80zM1408 160v320c0 17 -15 32 -32 32h-1216c-17 0 -32 -15 -32 -32v-320c0 -17 15 -32 32 -32h1216c17 0 32 15 32 32
zM178 640h1180l-157 482c-5 17 -24 30 -42 30h-782c-18 0 -37 -13 -42 -30zM1536 480v-320c0 -88 -72 -160 -160 -160h-1216c-88 0 -160 72 -160 160v320c0 27 8 50 16 75l197 606c23 70 90 119 164 119h782c74 0 141 -49 164 -119l197 -606c8 -25 16 -48 16 -75z" />
</svg>