<?xml version="1.0" standalone="no"?>
<svg width="1536px" height="1536px" version="1.1" xmlns="http://www.w3.org/2000/svg">
    <path transform="scale(1, -1) translate(0, -1536)" glyph-name="header" unicode="&#xf1dc;" horiz-adv-x="1792" 

d="M1682 -128c-88 0 -177 7 -266 7c-88 0 -176 -7 -264 -7c-34 0 -50 37 -50 66c0 89 100 51 152 85c33 21 33 105 33 140l-1 391c0 11 0 21 -1 31c-16 5 -34 4 -50 4h-675c-17 0 -35 1 -51 -4c-1 -10 -1 -20 -1 -31l-1 -371c0 -38 0 -142 37 -164c52 -32 170 13 170 -77
c0 -30 -14 -70 -49 -70c-93 0 -186 7 -278 7c-85 0 -170 -7 -255 -7c-33 0 -48 38 -48 66c0 87 92 51 141 85c32 22 33 108 33 143l-1 57v813c0 48 7 202 -38 229c-50 31 -157 -17 -157 73c0 29 13 70 48 70c92 0 185 -7 277 -7c84 0 169 7 253 7c36 0 50 -40 50 -70
c0 -86 -99 -44 -148 -75c-35 -21 -35 -124 -35 -160l1 -320c0 -11 0 -21 1 -32c13 -3 26 -3 39 -3h699c12 0 25 0 38 3c1 11 1 21 1 32l1 320c0 37 0 139 -35 160c-50 30 -150 -10 -150 75c0 30 14 70 50 70c88 0 176 -7 264 -7c86 0 172 7 258 7c36 0 50 -40 50 -70
c0 -87 -103 -43 -153 -74c-34 -22 -35 -125 -35 -161l1 -943c0 -33 2 -120 34 -140c51 -32 159 9 159 -78c0 -29 -13 -70 -48 -70z" />
</svg>