<svg width="1536" height="1536" xmlns="http://www.w3.org/2000/svg">
    <path d="M1682 1664c-88 0-177-7-266-7-88 0-176 7-264 7-34 0-50-37-50-66 0-89 100-51 152-85 33-21 33-105 33-140l-1-391c0-11 0-21-1-31-16-5-34-4-50-4H560c-17 0-35-1-51 4-1 10-1 20-1 31l-1 371c0 38 0 142 37 164 52 32 170-13 170 77 0 30-14 70-49 70-93 0-186-7-278-7-85 0-170 7-255 7-33 0-48-38-48-66 0-87 92-51 141-85 32-22 33-108 33-143l-1-57V500c0-48 7-202-38-229-50-31-157 17-157-73 0-29 13-70 48-70 92 0 185 7 277 7 84 0 169-7 253-7 36 0 50 40 50 70 0 86-99 44-148 75-35 21-35 124-35 160l1 320c0 11 0 21 1 32 13 3 26 3 39 3h699c12 0 25 0 38-3 1-11 1-21 1-32l1-320c0-37 0-139-35-160-50-30-150 10-150-75 0-30 14-70 50-70 88 0 176 7 264 7 86 0 172-7 258-7 36 0 50 40 50 70 0 87-103 43-153 74-34 22-35 125-35 161l1 943c0 33 2 120 34 140 51 32 159-9 159 78 0 29-13 70-48 70z"/>
</svg>
