<?xml version="1.0" standalone="no"?>
<svg width="1536px" height="1536px" version="1.1" xmlns="http://www.w3.org/2000/svg">
    <path transform="scale(1, -1) translate(0, -1536)" glyph-name="headphones" unicode="&#xf025;" horiz-adv-x="1664" 

d="M1664 650c0 -109 -20 -215 -60 -314l-20 -49l-185 -33c-29 -109 -128 -190 -247 -190v-32c0 -18 -14 -32 -32 -32h-64c-18 0 -32 14 -32 32v576c0 18 14 32 32 32h64c18 0 32 -14 32 -32v-32c96 0 179 -53 223 -131l68 12c19 62 29 126 29 193c0 302 -299 566 -640 566
s-640 -264 -640 -566c0 -67 10 -131 29 -193l68 -12c44 78 127 131 223 131v32c0 18 14 32 32 32h64c18 0 32 -14 32 -32v-576c0 -18 -14 -32 -32 -32h-64c-18 0 -32 14 -32 32v32c-119 0 -218 81 -247 190l-185 33l-20 49c-40 99 -60 205 -60 314c0 411 381 758 832 758
s832 -347 832 -758z" />
</svg>