<svg width="1536" height="1536" xmlns="http://www.w3.org/2000/svg">
    <path d="M1664 886c0 109-20 215-60 314l-20 49-185 33c-29 109-128 190-247 190v32c0 18-14 32-32 32h-64c-18 0-32-14-32-32V928c0-18 14-32 32-32h64c18 0 32 14 32 32v32c96 0 179 53 223 131l68-12c19-62 29-126 29-193 0-302-299-566-640-566S192 584 192 886c0 67 10 131 29 193l68 12c44-78 127-131 223-131v-32c0-18 14-32 32-32h64c18 0 32 14 32 32v576c0 18-14 32-32 32h-64c-18 0-32-14-32-32v-32c-119 0-218-81-247-190l-185-33-20-49C20 1101 0 995 0 886c0-411 381-758 832-758s832 347 832 758z"/>
</svg>
