<svg width="1536" height="1536" xmlns="http://www.w3.org/2000/svg">
    <path d="M1280 1024h305c-12 13-20 20-22 22l-623 600c-12 12-28 18-44 18s-32-6-44-18l-624-602c-2-1-10-8-21-20h369c29 0 55-20 62-48l70-281 190 667c8 27 33 46 62 46 28 0 53-19 61-46l146-485 56 112c11 21 33 35 57 35zm512-428c0 115-50 220-103 300h-369l-111-221c-11-23-37-37-62-35-27 3-49 20-56 46l-129 430-196-686c-8-27-33-46-63-46-29 0-54 20-61 48L526 896H103C50 816 0 711 0 596c0-293 179-468 478-468 175 0 339 138 418 216 79-78 243-216 418-216 299 0 478 175 478 468z"/>
</svg>
