<?xml version="1.0" standalone="no"?>
<svg width="1536px" height="1536px" version="1.1" xmlns="http://www.w3.org/2000/svg">
    <path transform="scale(1, -1) translate(0, -1536)" glyph-name="heartbeat" unicode="&#xf21e;" horiz-adv-x="1792" 

d="M1280 512h305c-12 -13 -20 -20 -22 -22l-623 -600c-12 -12 -28 -18 -44 -18s-32 6 -44 18l-624 602c-2 1 -10 8 -21 20h369c29 0 55 20 62 48l70 281l190 -667c8 -27 33 -46 62 -46v0c28 0 53 19 61 46l146 485l56 -112c11 -21 33 -35 57 -35zM1792 940
c0 -115 -50 -220 -103 -300h-369l-111 221c-11 23 -37 37 -62 35c-27 -3 -49 -20 -56 -46l-129 -430l-196 686c-8 27 -33 46 -63 46c-29 0 -54 -20 -61 -48l-116 -464h-423c-53 80 -103 185 -103 300c0 293 179 468 478 468c175 0 339 -138 418 -216c79 78 243 216 418 216
c299 0 478 -175 478 -468z" />
</svg>