<?xml version="1.0" standalone="no"?>
<svg width="1536px" height="1536px" version="1.1" xmlns="http://www.w3.org/2000/svg">
    <path transform="scale(1, -1) translate(0, -1536)" glyph-name="heart_o" unicode="&#xf08a;" horiz-adv-x="1792" 

d="M1664 940c0 281 -190 340 -350 340c-149 0 -317 -161 -369 -223c-24 -29 -74 -29 -98 0c-52 62 -220 223 -369 223c-160 0 -350 -59 -350 -340c0 -183 185 -353 187 -355l581 -560l580 559c3 3 188 173 188 356zM1792 940c0 -240 -220 -441 -229 -450l-623 -600
c-12 -12 -28 -18 -44 -18s-32 6 -44 18l-624 602c-8 7 -228 208 -228 448c0 293 179 468 478 468c175 0 339 -138 418 -216c79 78 243 216 418 216c299 0 478 -175 478 -468z" />
</svg>