<svg width="1536" height="1792" xmlns="http://www.w3.org/2000/svg"><path d="m768.266 124.111-78.276 78.284-93.736-58.895-58.897 93.729-104.49-36.567-36.56 104.49-110.014-12.396-12.39 110.004-110.007 12.394 12.397 110.004-104.504 36.569 36.563 104.486-93.733 58.894 58.902 93.75-78.29 78.286 78.283 78.293-58.895 93.74 93.733 58.892-36.563 104.489 104.5 36.568-12.393 109.992 110.006 12.4 12.391 110.004 110.014-12.39 36.56 104.48 104.487-36.547 58.9 93.733 93.506-58.762c.43 42.912 35.333 77.57 78.351 77.57 43.031 0 77.947-34.69 78.356-77.61l.082-.08 93.732 58.892 58.893-93.743 104.5 36.567 36.557-104.488 110.013 12.388 12.39-110.013 110.014-12.391-12.4-110.002 104.5-36.568-36.566-104.5 93.732-58.893-58.892-93.728 78.283-78.293-78.283-78.28 58.892-93.728-93.732-58.9 36.566-104.497-104.49-36.558 12.39-110.01-110.001-12.393-12.403-110.013-110.002 12.392-36.568-104.494-104.479 36.563-58.914-93.735-93.74 58.9zM504.902 745.426c82.155 0 155.815 36.216 206.028 93.504l57.074 57.074 69.8-69.807.036.035c49.49-49.012 117.568-79.296 192.72-79.296 151.305 0 273.958 122.658 273.958 273.959 0 83.33-40.957 156.39-95.97 208.168L846.235 1591.61c-20.037-19.993-47.643-32.351-78.119-32.351-30.43 0-57.977 12.317-78.01 32.246l-372.066-371.87c-53.567-49.997-87.096-121.187-87.096-200.251 0-151.301 122.653-273.96 273.96-273.96zm111.793 312.785c-33.068 0-59.877 26.809-59.877 59.89 0 33.083 26.809 59.891 59.877 59.891 33.087 0 59.893-26.808 59.893-59.89 0-33.083-26.806-59.891-59.893-59.891zm303.717 0c-33.072 0-59.889 26.809-59.889 59.89 0 33.083 26.817 59.891 59.89 59.891 33.081 0 59.89-26.808 59.89-59.89 0-33.083-26.809-59.891-59.89-59.891zm-280.957 34.309c9.16 0 16.592 7.438 16.592 16.603 0 9.176-7.433 16.582-16.592 16.582-9.163 0-16.601-7.406-16.601-16.582 0-9.165 7.438-16.604 16.601-16.604zm303.71 0c9.154 0 16.59 7.438 16.59 16.603 0 9.176-7.436 16.582-16.59 16.582-9.166 0-16.604-7.406-16.604-16.582 0-9.165 7.438-16.604 16.603-16.604z" clip-rule="evenodd" fill-rule="evenodd"/></svg>