<svg xmlns="http://www.w3.org/2000/svg" viewBox="0 0 1536 1792" height="1792" width="1536">
    <path d="M167.5 1784.46c-39.608-1.701-76.39-17.803-104.516-45.757-25.032-24.877-41.086-57.226-45.693-92.07-.337-2.553-.642-5.435-.992-9.388-.238-2.684-.254-42.607-.299-735.9-.038-525.247-.002-733.95.111-736.192.389-7.695 1.263-14.9 2.713-22.344 7.087-36.374 27.037-69.229 56.292-92.706 24.312-19.51 53.695-31.435 84.67-34.363a867.88 867.88 0 0 1 4.366-.401c2.724-.241 1284.927-.36 1289.845-.12 34.099 1.665 66.41 14.23 92.646 36.025 5.337 4.434 12.415 11.235 16.822 16.163 19.295 21.577 32.199 47.333 37.774 75.394 1.712 8.618 2.627 16.512 2.98 25.7.199 5.189.199 1458.383 0 1463.65-1.018 26.946-8.43 52.036-22.165 75.038-8.945 14.98-20.917 28.983-34.392 40.23-23.005 19.201-50.487 31.433-79.98 35.598-4.727.667-9.59 1.119-14.994 1.393-2.487.126-1282.26.175-1285.187.048zm1287.153-88.526c6.074-.727 10.03-1.558 14.731-3.095 10.587-3.461 19.624-9.038 27.558-17.006 10.79-10.835 17.615-24.74 19.495-39.718.348-2.77.63-7.41.564-9.278l-.048-1.31-.546-.048-.546-.048-.038-729.596c-.038-688.597-.058-729.697-.292-731.483-1.52-11.508-5.024-21.018-11.1-30.132-7.903-11.856-18.983-20.842-32.09-26.026-5.572-2.205-11.007-3.564-17.685-4.423-1.96-.252-26.687-.263-642.885-.307-466.16-.032-641.501-.002-643.249.116-27.1 1.812-50.51 19.352-60.05 44.994-1.767 4.746-3.01 9.994-3.81 16.07-.235 1.782-.253 44.194-.299 733.498-.038 526.268 0 732.258.109 733.928.917 13.448 5.664 26.098 13.824 36.84 2.969 3.908 7.554 8.683 11.143 11.606 11.253 9.163 24.623 14.513 38.791 15.521.921.067 290.416.108 643.322.095 497.379-.02 641.974-.067 643.103-.198zm-428.655-445.126c-.038-254.192-.058-269.543-.294-271.878-1.394-13.696-4.015-23.704-8.787-33.552-1.769-3.652-3.013-5.837-5.219-9.17-4.753-7.182-10.397-13.18-17.32-18.404-15.398-11.622-36.16-18.52-61.792-20.528-10.334-.81-24.166-.861-40.54-.15-76.101 3.307-165.748 22.176-262.67 55.287-29.786 10.175-61.18 22.176-86.611 33.11-6.602 2.838-7.851 3.416-70.526 32.64-34.026 15.866-61.98 28.881-62.12 28.923-.242.076-.254-18.225-.254-382.776V281.459h176.86v251.753c0 144.614.058 251.754.129 251.754.066 0 1.495-.499 3.166-1.107 14.062-5.119 30.717-10.686 46.052-15.395 85.539-26.264 176.137-41.434 269.586-45.14 21.003-.834 31.6-.853 43.742-.077 56.515 3.606 110.411 23.375 155.17 56.916 22.159 16.604 39.43 34.057 54.33 54.903 27.464 38.42 43.187 84.48 45.159 132.292.184 4.492.174-29.05.086 282.941l-.076 269.913h-178.02zm-610.893 90.368c0-119.863.048-177.876.147-177.815.355.22 198.766 177.7 198.766 177.798 0 .086-197.619 176.87-198.668 177.723-.23.188-.245-10.869-.245-177.706zM898.768 566.51c4.105-5.155 11.005-14.224 15.421-20.27 25.426-34.8 47.727-72.757 65.811-112.011 20.227-43.904 35.404-89.234 45.765-136.685.86-3.939 3.476-16.745 3.476-17.017 0-.048 40.023-.087 88.94-.087h88.94v.328c0 .984-1.686 12.533-2.852 19.542-11.378 68.404-36.138 133.996-72.914 193.163-15.429 24.824-33.208 48.805-52.112 70.29-1.681 1.912-3.178 3.631-3.324 3.821l-.267.345H897.638z"/>
</svg>
