<svg xmlns="http://www.w3.org/2000/svg" viewBox="0 0 1536 1792" height="1792" width="1536">
    <path d="M124.262 1781.401c-53.093-7.78-95.605-44.139-111.863-95.67l-5.788-18.347v-765.34c0-719.227.275-766.335 4.562-781.836 10.952-39.605 34.951-71.052 67.125-87.959 35.704-18.762-30.36-17.342 809.153-17.385 529.421-.027 762.336.81 773.203 2.78 38.91 7.055 74.682 33.752 93.66 69.903 18.816 35.84 17.464-26.839 17.514 812.05.032 529.448-.803 762.335-2.774 773.203-9.987 55.09-59.142 101.44-115.126 108.558-23.398 2.975-1509.378 3.017-1529.666.043zM871.21 1486c1.014-1.014-19.713-23.424-46.06-49.8l-47.903-47.956h-53.103c-29.206 0-53.102 1.037-53.102 2.305 0 1.268-4.512 6.954-10.026 12.636-18.01 18.558-45.104 20.895-66.402 5.73-14.142-10.07-22.19-33.325-17.586-50.813 10.8-41.014 61.838-51.043 88.493-17.388l8.582 10.836h30.114c22.796 0 29.908-.797 29.266-3.277-.466-1.802-26.412-28.487-57.659-59.3l-56.811-56.024-11.848 1.777c-53.768 8.063-81.112-59.666-36.445-90.272 21.063-14.433 54.082-7.707 68.387 13.931 6.02 9.106 7.035 13.403 7.035 29.8v19.161l56.33 56.376c30.98 31.006 57.813 56.375 59.628 56.375 2.456 0 3.299-7.555 3.299-29.586v-29.587l-11.402-9.531c-20.214-16.897-25.429-39.098-14.49-61.692 9.522-19.672 32.332-30.174 55.924-25.748 18.711 3.51 37.926 28.002 38.057 48.51.082 12.837-9.151 30.174-21.117 39.65l-10.278 8.141v103.16l36.166 36.097c19.89 19.853 36.993 35.268 38.005 34.256 1.011-1.011 1.84-59.047 1.84-128.967v-127.13l-36.04-36.51c-19.822-20.08-54.545-54.084-77.164-75.564l-41.124-39.055h-94.832l-12.607 13.011c-14.342 14.803-21.958 18.441-38.597 18.441-15.582 0-26.887-5.064-36.992-16.574-7.217-8.22-13.834-23.485-13.834-31.915s6.617-23.695 13.834-31.914c10.182-11.597 21.42-16.575 37.422-16.575 16.107 0 28.173 6.102 39.57 20.01l9.376 11.443h27.05c17.593 0 27.703-1.056 28.917-3.021 1.141-1.846-18.164-22.854-49.644-54.023l-51.512-51.002-.04-56.716c-.021-31.193-.907-57.951-1.966-59.462-1.06-1.512-5.786-5.444-10.503-8.74-11.905-8.315-18.946-23.26-18.93-40.174.038-39.239 43.375-61.845 76.6-39.957 26.857 17.692 27.194 63.425.593 80.495-5.041 3.234-9.811 8.344-10.6 11.354-.79 3.011-1.062 25.641-.603 50.29l.833 44.816 48.489 47.034c26.669 25.868 49.373 46.514 50.455 45.878 1.08-.635 1.965-14.4 1.965-30.587v-29.432l-12.084-10.101c-19.672-16.444-24.77-38.479-14.034-60.657 19.358-39.988 79.999-33.397 91.857 9.985 5.31 19.426-4.276 43.541-21.307 53.601l-7.737 4.57v104.98l58.296 58.339c32.063 32.086 59.78 58.34 61.594 58.34 2.618 0 3.298-37.146 3.298-180.17v-180.17l-35.857-34.535-35.857-34.534-17.219.435c-14.388.363-19.162-.708-29.041-6.516-30.808-18.112-31.936-63.057-2.078-82.816 14.641-9.69 37.892-10.182 52.514-1.114 18.546 11.502 27.485 31.507 23 51.47l-2.34 10.415 31.823 32.19c17.503 17.704 33.082 32.19 34.62 32.19 1.537 0 16.789-14.03 33.89-31.177l31.096-31.176-1.823-12.16c-4.504-30.03 19.243-59.045 48.324-59.045 11.759 0 28.194 7.623 37.182 17.247 31.594 33.825.323 87.79-46.778 80.727l-11.932-1.79-35.104 35.032-35.105 35.032v256.242c0 140.933.935 256.242 2.076 256.242 1.142 0 20.013-18.073 41.937-40.161l39.86-40.162v-104.66l-12.083-10.101c-13.983-11.688-19.369-22.672-19.369-39.498 0-15.882 5.018-27.1 16.715-37.37 17.378-15.26 46.054-15.361 63.292-.226 24.92 21.88 24.375 52.802-1.344 76.132l-13.137 11.918.04 29.814c.022 16.398 1.162 31.584 2.531 33.747 1.987 3.136 11.788-5.365 48.45-42.02l45.958-45.951v-86.12l-36.04-35.943-36.039-35.943-12.286 1.433c-17.77 2.073-29.8-.974-40.324-10.214-22.416-19.681-24.69-47.664-5.638-69.363 20.795-23.685 57.657-22.023 77.1 3.476 6.572 8.62 7.375 11.845 7.507 30.158l.148 20.506 19.058 21.005c10.482 11.552 20.146 20.332 21.476 19.51 1.382-.854 2.417-32.91 2.417-74.88v-73.388l-11.6-10.558c-19.12-17.4-24.347-37.96-14.926-58.701 7.642-16.825 27.353-30.005 44.873-30.005 17.52 0 37.23 13.18 44.873 30.005 9.256 20.377 3.562 43.32-14.433 58.152l-9.552 7.874.695 77.124.696 77.124 21.563-21.087 21.564-21.086-1.614-13.624c-5.084-42.926 40.806-72.9 75.654-49.416 44.145 29.749 17.74 96.678-35.363 89.634l-13.282-1.762-34.916 34.845-34.917 34.844v99.358l-48.489 48.734c-26.669 26.804-48.489 50.169-48.489 51.922 0 2.425 16.82 3.189 70.213 3.189h70.213l10.1-12.084c11.692-13.987 22.672-19.369 39.519-19.369 20.596 0 41.407 14.945 47.177 33.88 12.685 41.624-31.228 78.656-69.868 58.92-3.82-1.95-11.01-8.296-15.978-14.1l-9.033-10.553h-185.747l-56.929 57.144-56.929 57.144v51.474c0 34.914.937 52.053 2.912 53.274 1.693 1.046 20.085-15.349 43.932-39.161l41.02-40.96h118.32l8.656-10.771c23.786-29.598 68.069-25.983 83.965 6.855 15.097 31.186-4.329 67.096-38.485 71.141-17.188 2.036-33.738-5.149-45.458-19.733l-8.678-10.798h-102.708l-47.009 47.064c-32.371 32.41-45.82 47.52-43.19 48.529 2.1.806 114.353 1.152 249.451.77l245.634-.695 7.267-7.267 7.267-7.267 1.31-249.594 1.31-249.594 76.01-1.31c82.221-1.418 84.547-1.823 91.876-15.996 8.42-16.284 6.763-18.436-85.61-111.211l-86.207-86.58V640.378c0-125.203-.323-128.581-12.96-135.344-3.074-1.645-30.722-2.699-70.833-2.699-72.629 0-75.67.61-81.136 16.29-1.549 4.445-2.817 21.47-2.817 37.833 0 16.362-.873 29.75-1.94 29.75s-82.175-80.203-180.24-178.23L908.156 229.75h-23.478L532.793 581.633C191.146 923.281 180.91 933.802 180.91 943.294c0 7.097 2.096 12.123 7.645 18.336l7.645 8.56 76.8.771c56.358.566 77.336 1.613 78.81 3.932 1.104 1.738 2.026 113.812 2.048 249.054.027 162.86.948 247.589 2.727 250.914 7.04 13.154-.97 12.765 264.877 12.877 136.348.058 248.735-.725 249.749-1.738zm-233.541-99.722c2.273-2.522 4.935-7.8 5.915-11.728 1.443-5.78.271-8.654-6.146-15.071-9.32-9.32-15.552-9.942-25.016-2.497-13.853 10.897-5.168 33.883 12.802 33.883 4.593 0 10.16-2.052 12.445-4.587zm544.272-2.198c5.605-4.716 8.065-9.114 8.065-14.416 0-16.854-20.446-24.117-32.882-11.68-9.897 9.896-7.415 25.29 4.877 30.242 8.945 3.604 11.315 3.111 19.94-4.146zm-385.914-156.175c3.61-3.391 6.066-8.748 6.066-13.225 0-9.478-10.521-20.392-19.657-20.392-7.545 0-19.658 10.531-19.658 17.09 0 5.568 5.06 14.876 10.257 18.866 6.436 4.942 16.311 3.937 22.992-2.34zm479.648-20.969a19.24 19.24 0 0 0 6.066-14.01c0-17.426-21.448-24.359-33.177-10.723-7.564 8.793-7.737 14.587-.706 23.526 6.871 8.735 19.233 9.271 27.817 1.207zm-664.715-4.583c4.214-4.214 7.661-10.202 7.661-13.307 0-7.296-13.672-20.968-20.968-20.968-3.105 0-9.093 3.447-13.307 7.661-4.214 4.214-7.661 10.202-7.661 13.307 0 3.105 3.447 9.093 7.661 13.307 4.214 4.213 10.202 7.661 13.307 7.661 3.105 0 9.093-3.448 13.307-7.661zm417.499-149.79c4.818-3.79 6.906-7.9 6.906-13.592 0-18.531-22.763-27.524-33.883-13.386-7.395 9.401-6.829 15.69 2.229 24.748 9.057 9.058 15.347 9.624 24.748 2.23zm-441.393-25.966c7.777-4.162 11.19-17.498 6.698-26.183-6.132-11.858-23.017-14.692-31.525-5.29-14.32 15.823 5.98 41.56 24.827 31.474zm459.681-152.364c6.231-2.839 12.207-12.208 12.207-19.138 0-1.9-2.444-6.563-5.432-10.36-6.807-8.654-20.837-9.47-28.641-1.665-7.805 7.805-6.99 21.834 1.664 28.641 7.878 6.197 11.221 6.615 20.202 2.522zm228.561-3.523c18.157-18.157-8.095-44.77-26.816-27.183-3.609 3.39-6.066 8.747-6.066 13.224 0 9.478 10.521 20.392 19.658 20.392 3.735 0 9.686-2.895 13.224-6.433zm-530.075-4.119c9.034-7.107 10.767-13.819 5.965-23.106-7.957-15.387-27.642-15.21-35.086.317-4.276 8.918.076 19.703 9.971 24.708 8.89 4.496 11.301 4.255 19.15-1.919zm419.011-130.079c3.03-2.742 4.793-7.975 4.793-14.225 0-17.899-21.286-26.8-33.907-14.179-5.394 5.394-4.812 20.918 1.026 27.37 5.998 6.626 21.287 7.19 28.088 1.034zm-554.069-2.363c12.983-9.094 2.72-35.235-13.832-35.235-3.735 0-9.686 2.895-13.225 6.433-3.538 3.538-6.433 9.49-6.433 13.224 0 15.31 20.355 24.778 33.49 15.578zm188.473-80.25c3.61-3.39 6.066-8.747 6.066-13.224 0-9.478-10.521-20.392-19.657-20.392-3.735 0-9.686 2.895-13.225 6.433-18.157 18.157 8.096 44.77 26.816 27.183zm223.117.355c12.017-11.195 3.255-33.971-13.067-33.971-12.418 0-19.515 9.846-17.949 24.9 1.447 13.907 20 19.334 31.016 9.07z"/>
</svg>
