<?xml version="1.0" standalone="no"?>
<svg width="1536px" height="1536px" version="1.1" xmlns="http://www.w3.org/2000/svg">
    <path transform="scale(1, -1) translate(0, -1536)" glyph-name="home" unicode="&#xf015;" horiz-adv-x="1664" 

d="M1408 544v-480c0 -35 -29 -64 -64 -64h-384v384h-256v-384h-384c-35 0 -64 29 -64 64v480c0 2 1 4 1 6l575 474l575 -474c1 -2 1 -4 1 -6zM1631 613l-62 -74c-5 -6 -13 -10 -21 -11h-3c-8 0 -15 2 -21 7l-692 577l-692 -577c-7 -5 -15 -8 -24 -7c-8 1 -16 5 -21 11
l-62 74c-11 13 -9 34 4 45l719 599c42 35 110 35 152 0l244 -204v195c0 18 14 32 32 32h192c18 0 32 -14 32 -32v-408l219 -182c13 -11 15 -32 4 -45z" />
</svg>