<?xml version="1.0" standalone="no"?>
<svg width="1536px" height="1536px" version="1.1" xmlns="http://www.w3.org/2000/svg">
    <path transform="scale(1, -1) translate(0, -1536)" glyph-name="hospital_o" unicode="&#xf0f8;" horiz-adv-x="1408" 

d="M384 224v-64c0 -17 -15 -32 -32 -32h-64c-17 0 -32 15 -32 32v64c0 17 15 32 32 32h64c17 0 32 -15 32 -32zM384 480v-64c0 -17 -15 -32 -32 -32h-64c-17 0 -32 15 -32 32v64c0 17 15 32 32 32h64c17 0 32 -15 32 -32zM640 480v-64c0 -17 -15 -32 -32 -32h-64
c-17 0 -32 15 -32 32v64c0 17 15 32 32 32h64c17 0 32 -15 32 -32zM384 736v-64c0 -17 -15 -32 -32 -32h-64c-17 0 -32 15 -32 32v64c0 17 15 32 32 32h64c17 0 32 -15 32 -32zM1152 224v-64c0 -17 -15 -32 -32 -32h-64c-17 0 -32 15 -32 32v64c0 17 15 32 32 32h64
c17 0 32 -15 32 -32zM896 480v-64c0 -17 -15 -32 -32 -32h-64c-17 0 -32 15 -32 32v64c0 17 15 32 32 32h64c17 0 32 -15 32 -32zM640 736v-64c0 -17 -15 -32 -32 -32h-64c-17 0 -32 15 -32 32v64c0 17 15 32 32 32h64c17 0 32 -15 32 -32zM1152 480v-64
c0 -17 -15 -32 -32 -32h-64c-17 0 -32 15 -32 32v64c0 17 15 32 32 32h64c17 0 32 -15 32 -32zM896 736v-64c0 -17 -15 -32 -32 -32h-64c-17 0 -32 15 -32 32v64c0 17 15 32 32 32h64c17 0 32 -15 32 -32zM1152 736v-64c0 -17 -15 -32 -32 -32h-64c-17 0 -32 15 -32 32v64
c0 17 15 32 32 32h64c17 0 32 -15 32 -32zM896 -128h384v1152h-256v-32c0 -53 -43 -96 -96 -96h-448c-53 0 -96 43 -96 96v32h-256v-1152h384v224c0 17 15 32 32 32h320c17 0 32 -15 32 -32v-224zM896 1056v320c0 17 -15 32 -32 32h-64c-17 0 -32 -15 -32 -32v-96h-128v96
c0 17 -15 32 -32 32h-64c-17 0 -32 -15 -32 -32v-320c0 -17 15 -32 32 -32h64c17 0 32 15 32 32v96h128v-96c0 -17 15 -32 32 -32h64c17 0 32 15 32 32zM1408 1088v-1280c0 -35 -29 -64 -64 -64h-1280c-35 0 -64 29 -64 64v1280c0 35 29 64 64 64h320v288c0 53 43 96 96 96
h448c53 0 96 -43 96 -96v-288h320c35 0 64 -29 64 -64z" />
</svg>