<svg width="1536" height="1536" xmlns="http://www.w3.org/2000/svg">
    <path d="M384 1312v64c0 17-15 32-32 32h-64c-17 0-32-15-32-32v-64c0-17 15-32 32-32h64c17 0 32 15 32 32zm0-256v64c0 17-15 32-32 32h-64c-17 0-32-15-32-32v-64c0-17 15-32 32-32h64c17 0 32 15 32 32zm256 0v64c0 17-15 32-32 32h-64c-17 0-32-15-32-32v-64c0-17 15-32 32-32h64c17 0 32 15 32 32zM384 800v64c0 17-15 32-32 32h-64c-17 0-32-15-32-32v-64c0-17 15-32 32-32h64c17 0 32 15 32 32zm768 512v64c0 17-15 32-32 32h-64c-17 0-32-15-32-32v-64c0-17 15-32 32-32h64c17 0 32 15 32 32zm-256-256v64c0 17-15 32-32 32h-64c-17 0-32-15-32-32v-64c0-17 15-32 32-32h64c17 0 32 15 32 32zM640 800v64c0 17-15 32-32 32h-64c-17 0-32-15-32-32v-64c0-17 15-32 32-32h64c17 0 32 15 32 32zm512 256v64c0 17-15 32-32 32h-64c-17 0-32-15-32-32v-64c0-17 15-32 32-32h64c17 0 32 15 32 32zM896 800v64c0 17-15 32-32 32h-64c-17 0-32-15-32-32v-64c0-17 15-32 32-32h64c17 0 32 15 32 32zm256 0v64c0 17-15 32-32 32h-64c-17 0-32-15-32-32v-64c0-17 15-32 32-32h64c17 0 32 15 32 32zm-256 864h384V512h-256v32c0 53-43 96-96 96H480c-53 0-96-43-96-96v-32H128v1152h384v-224c0-17 15-32 32-32h320c17 0 32 15 32 32v224zm0-1184V160c0-17-15-32-32-32h-64c-17 0-32 15-32 32v96H640v-96c0-17-15-32-32-32h-64c-17 0-32 15-32 32v320c0 17 15 32 32 32h64c17 0 32-15 32-32v-96h128v96c0 17 15 32 32 32h64c17 0 32-15 32-32zm512-32v1280c0 35-29 64-64 64H64c-35 0-64-29-64-64V448c0-35 29-64 64-64h320V96c0-53 43-96 96-96h448c53 0 96 43 96 96v288h320c35 0 64 29 64 64z"/>
</svg>
