<?xml version="1.0" standalone="no"?>
<svg width="1536px" height="1536px" version="1.1" xmlns="http://www.w3.org/2000/svg">
    <path transform="scale(1, -1) translate(0, -1536)" glyph-name="hourglass" unicode="&#xf254;" 

d="M1504 -64c18 0 32 -14 32 -32v-128c0 -18 -14 -32 -32 -32h-1472c-18 0 -32 14 -32 32v128c0 18 14 32 32 32h1472zM130 0c19 337 294 518 478 640c-184 122 -459 303 -478 640h1276c-19 -337 -294 -518 -478 -640c184 -122 459 -303 478 -640h-1276zM1504 1536
c18 0 32 -14 32 -32v-128c0 -18 -14 -32 -32 -32h-1472c-18 0 -32 14 -32 32v128c0 18 14 32 32 32h1472z" />
</svg>