<?xml version="1.0" standalone="no"?>
<svg width="1536px" height="1536px" version="1.1" xmlns="http://www.w3.org/2000/svg">
    <path transform="scale(1, -1) translate(0, -1536)" glyph-name="hourglass_half" unicode="&#xf252;" 

d="M1408 1408c0 -370 -177 -638 -373 -768c196 -130 373 -398 373 -768h96c18 0 32 -14 32 -32v-64c0 -18 -14 -32 -32 -32h-1472c-18 0 -32 14 -32 32v64c0 18 14 32 32 32h96c0 370 177 638 373 768c-196 130 -373 398 -373 768h-96c-18 0 -32 14 -32 32v64
c0 18 14 32 32 32h1472c18 0 32 -14 32 -32v-64c0 -18 -14 -32 -32 -32h-96zM1280 1408h-1024c0 -146 33 -275 85 -384h854c52 109 85 238 85 384zM1223 192c-74 193 -207 330 -340 384h-230c-133 -54 -266 -191 -340 -384h910z" />
</svg>