<?xml version="1.0" standalone="no"?>
<svg width="1536px" height="1536px" version="1.1" xmlns="http://www.w3.org/2000/svg">
    <path transform="scale(1, -1) translate(0, -1536)" glyph-name="hourglass_o" unicode="&#xf250;" 

d="M1408 1408c0 -370 -177 -638 -373 -768c196 -130 373 -398 373 -768h96c18 0 32 -14 32 -32v-64c0 -18 -14 -32 -32 -32h-1472c-18 0 -32 14 -32 32v64c0 18 14 32 32 32h96c0 370 177 638 373 768c-196 130 -373 398 -373 768h-96c-18 0 -32 14 -32 32v64
c0 18 14 32 32 32h1472c18 0 32 -14 32 -32v-64c0 -18 -14 -32 -32 -32h-96zM874 700c202 76 406 343 406 708h-1024c0 -365 204 -632 406 -708c25 -9 42 -33 42 -60s-17 -51 -42 -60c-202 -76 -406 -343 -406 -708h1024c0 365 -204 632 -406 708c-25 9 -42 33 -42 60
s17 51 42 60z" />
</svg>