<svg width="1536" height="1536" xmlns="http://www.w3.org/2000/svg">
    <path d="M1408 128c0 370-177 638-373 768 196 130 373 398 373 768h96c18 0 32 14 32 32v64c0 18-14 32-32 32H32c-18 0-32-14-32-32v-64c0-18 14-32 32-32h96c0-370 177-638 373-768-196-130-373-398-373-768H32c-18 0-32-14-32-32V32C0 14 14 0 32 0h1472c18 0 32 14 32 32v64c0 18-14 32-32 32h-96zM874 836c202-76 406-343 406-708H256c0 365 204 632 406 708 25 9 42 33 42 60s-17 51-42 60c-202 76-406 343-406 708h1024c0-365-204-632-406-708-25-9-42-33-42-60s17-51 42-60z"/>
</svg>
