<svg xmlns="http://www.w3.org/2000/svg" height="1792" width="1536">
    <path d="M1305.855 194.605c83.403 41.172 160.385 120.339 200.565 205.86 15.886 38.26 32.566 75.99 29.124 164.82-2.978 80.094-8.605 111.601-33.56 164.688-66.06 140.99-196.062 235.25-344.533 244.913l-80.226 5.428-28.132 111.601c-23.63 92.935-25.815 124.178-25.815 124.178 26.808 28.463 87.706 46.07 113.19 111.998 34.751 67.186 30.78 162.57-13.636 217.775-72.68 90.022-181.037 117.029-276.421 67.252-86.713-45.541-132.187-158.201-105.114-256.829 6.487-24.954-1.06-32.566-105.114-100.811l-112.727-74.798-41.172 33.626C286.154 1371.448-1.122 1232.707.004 980.248c0-162.57 129.075-289.263 294.756-288.27 83.403 0 133.312 18.402 195.07 74.798l45.475 41.172 100.811-50.968 101.937-49.844-10.855-35.744c-15.225-53.086-11.915-171.174 6.487-230.814 20.652-71.488 84.594-160.385 145.293-204.8 123.582-91.148 292.572-107.432 426.943-41.239zm-744.669 918.757l225.916 155.288s68.576-57.786 161.51-65.928l57.853-245.575s-178.72-57.853-229.358-183.354l-209.368 99.289s49.512 123.648-6.487 240.147z"/>
</svg>
