<?xml version="1.0" encoding="UTF-8" standalone="no"?>
<svg
   xmlns:dc="http://purl.org/dc/elements/1.1/"
   xmlns:cc="http://creativecommons.org/ns#"
   xmlns:rdf="http://www.w3.org/1999/02/22-rdf-syntax-ns#"
   xmlns:svg="http://www.w3.org/2000/svg"
   xmlns="http://www.w3.org/2000/svg"
   id="svg2"
   version="1.1"
   height="1792px"
   width="1536px">
  <metadata
     id="metadata10">
    <rdf:RDF>
      <cc:Work
         rdf:about="">
        <dc:format>image/svg+xml</dc:format>
        <dc:type
           rdf:resource="http://purl.org/dc/dcmitype/StillImage" />
        <dc:title></dc:title>
      </cc:Work>
    </rdf:RDF>
  </metadata>
  <defs
     id="defs8" />
  <path
     id="path4"
     d="m 1305.8553,194.60534 c 83.403,41.172 160.3852,120.3386 200.5643,205.8597 15.8863,38.2595 32.5669,75.9894 29.1248,164.8201 -2.9786,80.09336 -8.605,111.60115 -33.5597,164.68779 -66.0605,140.99071 -196.0632,235.24929 -344.5337,244.91344 l -80.2257,5.42781 -28.1319,111.60112 c -23.6309,92.9347 -25.8152,124.1777 -25.8152,124.1777 26.8081,28.4629 87.7055,46.0702 113.1897,111.9983 34.7512,67.1857 30.7797,162.5695 -13.6357,217.7743 -72.6797,90.0223 -181.03742,117.029 -276.42128,67.252 -86.7126,-45.5407 -132.18707,-158.2009 -105.1142,-256.8282 6.4869,-24.9547 -1.05909,-32.5669 -105.1142,-100.8117 l -112.72638,-74.7978 -41.17193,33.6259 C 286.15488,1371.4476 -1.1219763,1232.7074 0.00330162,980.24799 c 0,-162.56957 129.07600838,-289.26263 294.75663838,-288.26974 83.40296,0 133.31235,18.40161 195.07025,74.79789 l 45.47447,41.17193 100.81166,-50.96847 101.93695,-49.84319 -10.85562,-35.74413 c -15.22435,-53.08664 -11.91471,-171.17464 6.48689,-230.81434 20.65216,-71.4883 84.59443,-160.3852 145.29325,-204.8006 123.58201,-91.1475 292.57231,-107.431 426.94371,-41.2381 z m -744.66925,918.75646 225.9161,155.2883 c 0,0 68.57577,-57.7863 161.51049,-65.928 l 57.85256,-245.5754 c 0,0 -178.72066,-57.85253 -229.35816,-183.35412 l -209.3679,99.28923 c 0,0 49.51223,123.64819 -6.4869,240.14759 z" />
</svg>
