<svg xmlns="http://www.w3.org/2000/svg" width="1536" height="1796" viewBox="0 0 1536 1796">
    <path d="M1351.958 173.842c86.347 42.626 166.047 124.588 207.646 213.128 16.446 39.61 33.715 78.673 30.152 170.64-3.083 82.921-8.909 115.54-34.745 170.501-68.39 145.968-202.983 243.556-356.696 253.56l-83.059 5.62-29.125 115.54c-24.465 96.217-26.727 128.563-26.727 128.563 27.755 29.468 90.803 47.696 117.186 115.952 35.978 69.558 31.867 168.31-14.117 225.463-75.246 93.2-187.428 121.161-286.18 69.627-89.774-47.149-136.854-163.787-108.825-265.897 6.716-25.835-1.098-33.715-108.825-104.37l-116.707-77.438-42.626 34.813C296.256 1392.234-1.162 1248.594.003 987.222c0-168.31 133.632-299.475 305.163-298.447 86.347 0 138.018 19.052 201.957 77.44l47.08 42.624 104.37-52.767 105.536-51.604-11.238-37.006c-15.762-54.96-12.336-177.217 6.716-238.963 21.381-74.012 87.58-166.047 150.423-212.03 127.945-94.366 302.901-111.225 442.016-42.695zm-770.96 951.194l233.892 160.77s70.997-59.826 167.212-68.255l59.896-254.245s-185.03-59.896-237.456-189.828l-216.76 102.795s51.26 128.013-6.716 248.625z"/>
</svg>
