<?xml version="1.0" standalone="no"?>
<svg width="1536px" height="1536px" version="1.1" xmlns="http://www.w3.org/2000/svg">
    <path transform="scale(1, -1) translate(0, -1536)" glyph-name="id_card" unicode="&#xf2c2;" horiz-adv-x="2048" 

d="M896 324c0 132 -32 284 -164 284c-40 -40 -95 -64 -156 -64s-116 24 -156 64c-132 0 -164 -152 -164 -284c0 -73 48 -132 107 -132h426c59 0 107 59 107 132zM768 768c0 106 -86 192 -192 192s-192 -86 -192 -192s86 -192 192 -192s192 86 192 192zM1792 288v64
c0 18 -14 32 -32 32h-704c-18 0 -32 -14 -32 -32v-64c0 -18 14 -32 32 -32h704c18 0 32 14 32 32zM1408 544v64c0 18 -14 32 -32 32h-320c-18 0 -32 -14 -32 -32v-64c0 -18 14 -32 32 -32h320c18 0 32 14 32 32zM1792 544v64c0 18 -14 32 -32 32h-192c-18 0 -32 -14 -32 -32
v-64c0 -18 14 -32 32 -32h192c18 0 32 14 32 32zM1792 800v64c0 18 -14 32 -32 32h-704c-18 0 -32 -14 -32 -32v-64c0 -18 14 -32 32 -32h704c18 0 32 14 32 32zM128 1152h1792v96c0 18 -14 32 -32 32h-1728c-18 0 -32 -14 -32 -32v-96zM2048 1248v-1216
c0 -88 -72 -160 -160 -160h-1728c-88 0 -160 72 -160 160v1216c0 88 72 160 160 160h1728c88 0 160 -72 160 -160z" />
</svg>