<?xml version="1.0" standalone="no"?>
<svg width="1536px" height="1536px" version="1.1" xmlns="http://www.w3.org/2000/svg">
    <path transform="scale(1, -1) translate(0, -1536)" glyph-name="id_card_o" unicode="&#xf2c3;" horiz-adv-x="2048" 

d="M896 324c0 -73 -48 -132 -107 -132h-426c-59 0 -107 59 -107 132c0 132 32 284 164 284c40 -40 95 -64 156 -64s116 24 156 64c132 0 164 -152 164 -284zM768 768c0 -106 -86 -192 -192 -192s-192 86 -192 192s86 192 192 192s192 -86 192 -192zM1792 352v-64
c0 -18 -14 -32 -32 -32h-704c-18 0 -32 14 -32 32v64c0 18 14 32 32 32h704c18 0 32 -14 32 -32zM1408 608v-64c0 -18 -14 -32 -32 -32h-320c-18 0 -32 14 -32 32v64c0 18 14 32 32 32h320c18 0 32 -14 32 -32zM1792 608v-64c0 -18 -14 -32 -32 -32h-192
c-18 0 -32 14 -32 32v64c0 18 14 32 32 32h192c18 0 32 -14 32 -32zM1792 864v-64c0 -18 -14 -32 -32 -32h-704c-18 0 -32 14 -32 32v64c0 18 14 32 32 32h704c18 0 32 -14 32 -32zM1920 32v1120h-1792v-1120c0 -17 15 -32 32 -32h1728c17 0 32 15 32 32zM2048 1248v-1216
c0 -88 -72 -160 -160 -160h-1728c-88 0 -160 72 -160 160v1216c0 88 72 160 160 160h1728c88 0 160 -72 160 -160z" />
</svg>