<svg width="1536" height="1536" xmlns="http://www.w3.org/2000/svg">
    <path d="M896 1212c0 73-48 132-107 132H363c-59 0-107-59-107-132 0-132 32-284 164-284 40 40 95 64 156 64s116-24 156-64c132 0 164 152 164 284zM768 768c0 106-86 192-192 192s-192-86-192-192 86-192 192-192 192 86 192 192zm1024 416v64c0 18-14 32-32 32h-704c-18 0-32-14-32-32v-64c0-18 14-32 32-32h704c18 0 32 14 32 32zm-384-256v64c0 18-14 32-32 32h-320c-18 0-32-14-32-32v-64c0-18 14-32 32-32h320c18 0 32 14 32 32zm384 0v64c0 18-14 32-32 32h-192c-18 0-32-14-32-32v-64c0-18 14-32 32-32h192c18 0 32 14 32 32zm0-256v64c0 18-14 32-32 32h-704c-18 0-32-14-32-32v-64c0-18 14-32 32-32h704c18 0 32 14 32 32zm128 832V384H128v1120c0 17 15 32 32 32h1728c17 0 32-15 32-32zm128-1216v1216c0 88-72 160-160 160H160c-88 0-160-72-160-160V288c0-88 72-160 160-160h1728c88 0 160 72 160 160z"/>
</svg>
