<?xml version="1.0" standalone="no"?>
<svg width="1536px" height="1536px" version="1.1" xmlns="http://www.w3.org/2000/svg">
    <path transform="scale(1, -1) translate(0, -1536)" glyph-name="ils" unicode="&#xf20b;" 

d="M992 912v-496c0 -18 -14 -32 -32 -32h-160c-18 0 -32 14 -32 32v496c0 150 -122 272 -272 272h-272v-1152c0 -18 -14 -32 -32 -32h-160c-18 0 -32 14 -32 32v1344c0 18 14 32 32 32h464c274 0 496 -222 496 -496zM1376 1376v-880c0 -274 -222 -496 -496 -496h-464
c-18 0 -32 14 -32 32v960c0 18 14 32 32 32h160c18 0 32 -14 32 -32v-768h272c150 0 272 122 272 272v880c0 18 14 32 32 32h160c18 0 32 -14 32 -32z" />
</svg>