<svg width="1536" height="1536" xmlns="http://www.w3.org/2000/svg">
    <path d="M922 797v182c0 36 7 69-38 68V738c44 0 38 23 38 59zm316 96v121c0 20 6 53-23 53-6 0-11-3-14-9-8-19-4-163-4-165 0-14-4-47 18-47 27 0 23 27 23 47zM180 1129h122V657H180v472zm434 0h106V657H561l-28 221c-10-74-20-148-32-221H343v472h107V817l45 312h76l43-319v319zm425-305c0-30 1-62-5-90-16-83-116-77-181-77h-91v472c318 0 277 22 277-305zm317 197V888c0-64-3-111-82-111-33 0-55 10-77 34V657h-117v472h110l7-30c21 25 44 36 77 36 73 0 82-56 82-114zm180-733v1216c0 88-72 160-160 160H160c-88 0-160-72-160-160V288c0-88 72-160 160-160h1216c88 0 160 72 160 160z"/>
</svg>
