<?xml version="1.0" standalone="no"?>
<svg width="1536px" height="1536px" version="1.1" xmlns="http://www.w3.org/2000/svg">
    <path transform="scale(1, -1) translate(0, -1536)" glyph-name="imdb" unicode="&#xf2d8;" 

d="M922 739v-182c0 -36 7 -69 -38 -68v309c44 0 38 -23 38 -59zM1238 643v-121c0 -20 6 -53 -23 -53c-6 0 -11 3 -14 9c-8 19 -4 163 -4 165c0 14 -4 47 18 47c27 0 23 -27 23 -47zM180 407h122v472h-122v-472zM614 407h106v472h-159l-28 -221c-10 74 -20 148 -32 221h-158
v-472h107v312l45 -312h76l43 319v-319zM1039 712c0 30 1 62 -5 90c-16 83 -116 77 -181 77h-91v-472c318 0 277 -22 277 305zM1356 515v133c0 64 -3 111 -82 111c-33 0 -55 -10 -77 -34v154h-117v-472h110l7 30c21 -25 44 -36 77 -36c73 0 82 56 82 114zM1536 1248v-1216
c0 -88 -72 -160 -160 -160h-1216c-88 0 -160 72 -160 160v1216c0 88 72 160 160 160h1216c88 0 160 -72 160 -160z" />
</svg>