<?xml version="1.0" standalone="no"?>
<svg width="1536px" height="1536px" version="1.1" xmlns="http://www.w3.org/2000/svg">
    <path transform="scale(1, -1) translate(0, -1536)" glyph-name="indent" unicode="&#xf03c;" horiz-adv-x="1792" 

d="M352 704c0 -8 -3 -17 -9 -23l-288 -288c-6 -6 -15 -9 -23 -9c-17 0 -32 15 -32 32v576c0 17 15 32 32 32c8 0 17 -3 23 -9l288 -288c6 -6 9 -15 9 -23zM1792 224v-192c0 -17 -15 -32 -32 -32h-1728c-17 0 -32 15 -32 32v192c0 17 15 32 32 32h1728c17 0 32 -15 32 -32z
M1792 608v-192c0 -17 -15 -32 -32 -32h-1088c-17 0 -32 15 -32 32v192c0 17 15 32 32 32h1088c17 0 32 -15 32 -32zM1792 992v-192c0 -17 -15 -32 -32 -32h-1088c-17 0 -32 15 -32 32v192c0 17 15 32 32 32h1088c17 0 32 -15 32 -32zM1792 1376v-192c0 -17 -15 -32 -32 -32
h-1728c-17 0 -32 15 -32 32v192c0 17 15 32 32 32h1728c17 0 32 -15 32 -32z" />
</svg>