<svg width="1536" height="1536" xmlns="http://www.w3.org/2000/svg">
    <path d="M352 832c0 8-3 17-9 23L55 1143c-6 6-15 9-23 9-17 0-32-15-32-32V544c0-17 15-32 32-32 8 0 17 3 23 9l288 288c6 6 9 15 9 23zm1440 480v192c0 17-15 32-32 32H32c-17 0-32-15-32-32v-192c0-17 15-32 32-32h1728c17 0 32 15 32 32zm0-384v192c0 17-15 32-32 32H672c-17 0-32-15-32-32V928c0-17 15-32 32-32h1088c17 0 32 15 32 32zm0-384v192c0 17-15 32-32 32H672c-17 0-32-15-32-32V544c0-17 15-32 32-32h1088c17 0 32 15 32 32zm0-384v192c0 17-15 32-32 32H32c-17 0-32-15-32-32V160c0-17 15-32 32-32h1728c17 0 32 15 32 32z"/>
</svg>
