<?xml version="1.0" standalone="no"?>
<svg width="1536px" height="1536px" version="1.1" xmlns="http://www.w3.org/2000/svg">
    <path transform="scale(1, -1) translate(0, -1536)" glyph-name="info_circle" unicode="&#xf05a;" 

d="M1024 160v160c0 18 -14 32 -32 32h-96v512c0 18 -14 32 -32 32h-320c-18 0 -32 -14 -32 -32v-160c0 -18 14 -32 32 -32h96v-320h-96c-18 0 -32 -14 -32 -32v-160c0 -18 14 -32 32 -32h448c18 0 32 14 32 32zM896 1056v160c0 18 -14 32 -32 32h-192c-18 0 -32 -14 -32 -32
v-160c0 -18 14 -32 32 -32h192c18 0 32 14 32 32zM1536 640c0 -424 -344 -768 -768 -768s-768 344 -768 768s344 768 768 768s768 -344 768 -768z" />
</svg>