<?xml version="1.0" standalone="no"?>
<svg width="1536px" height="1536px" version="1.1" xmlns="http://www.w3.org/2000/svg">
    <path transform="scale(1, -1) translate(0, -1536)" glyph-name="info" unicode="&#xf129;" horiz-adv-x="640" 

d="M640 192v-128c0 -35 -29 -64 -64 -64h-512c-35 0 -64 29 -64 64v128c0 35 29 64 64 64h64v384h-64c-35 0 -64 29 -64 64v128c0 35 29 64 64 64h384c35 0 64 -29 64 -64v-576h64c35 0 64 -29 64 -64zM512 1344v-192c0 -35 -29 -64 -64 -64h-256c-35 0 -64 29 -64 64v192
c0 35 29 64 64 64h256c35 0 64 -29 64 -64z" />
</svg>