<svg xmlns="http://www.w3.org/2000/svg" width="1536" height="1792" viewBox="0 0 1536 1792">
    <path d="M754.933 138.1c-47.495-.094-94.528 17.159-128.61 52.043L59.305 770.367c-191.581 237.25 130.379 209.652 268.398 277.986 49.51 50.607-189.768 87.96-140.258 138.61 49.51 50.607 299.378 97.499 348.972 148.106 49.51 50.607-101.338 104.292-51.828 154.899 49.51 50.607 164.017 2.661 185.458 119.492 15.28 83.487 206.359 35.88 299.807-32.497 49.51-50.649-94.718-45.885-45.209-96.492 123.12-125.906 237.759-45.747 279.882-171.906 20.809-62.34-181.237-96.114-131.643-146.72 142.45-83.192 634.799-137.34 401.179-370.959L886.321 190.143c-35.94-34.505-83.894-51.947-131.388-52.042zm5.086 55.217c33.909.18 67.7 12.868 92.032 37.517l224.336 227.831c21.273 21.737 20.97 63.86 9.068 75.974l-111.38-89.098-21.912 131.94L859.1 528.35l-149.038 94.168-49.338-198.5-80.071 138.527H458.25c-49.89 0-55.75-63.313-10.42-108.644 79.182-85.47 170.048-172.585 219.43-223.066 24.819-25.367 58.85-37.696 92.759-37.517zm-269.396 886.436c15.153 9.413 244.341 55.972 300.351 65.257 19.416 4.094 5.656 24.102-21.104 37.608-60.357 16.04-353.11-102.865-279.247-102.865zm899.766 159.45c-48.945-1.237-99.438 22.431-112.757 69.362 0 28.786 212.094 47.647 212.094-6.8-14.166-40.995-56.15-61.47-99.337-62.562zm-981.057 124.702c-66.47-.616-144.456 47.953-87.12 97.614 50.228 43.432 127.81-10.805 151.066-71.415-13.687-18.187-37.936-25.957-63.946-26.199zm841.706 3.792c-64.747 58.078 7.26 117 71.077 79.478 14.224-14.435-.379-65.043-71.077-79.478z"/>
</svg>
