<svg width="1536" height="1536" xmlns="http://www.w3.org/2000/svg">
    <path d="M898 470v102c0 18-14 32-32 32H698c-31 192-178 317-405 344 149 159 308 351 459 536 8 9 10 23 4 34-5 11-16 18-29 18H532c-10 0-19-4-25-12-161-193-309-370-498-571-6-6-9-14-9-22V804c0-17 14-32 32-32h112c176 0 286-59 315-168H32c-18 0-32-14-32-32V470c0-18 14-32 32-32h413c-38-75-128-113-268-113H32c-18 0-32-15-32-32V160c0-18 14-32 32-32h832c18 0 32 14 32 32v102c0 18-14 32-32 32H631c32 41 53 89 64 144h171c18 0 32 14 32 32z"/>
</svg>
