<?xml version="1.0" standalone="no"?>
<svg width="1536px" height="1536px" version="1.1" xmlns="http://www.w3.org/2000/svg">
    <path transform="scale(1, -1) translate(0, -1536)" glyph-name="inr" unicode="&#xf156;" horiz-adv-x="898" 

d="M898 1066v-102c0 -18 -14 -32 -32 -32h-168c-31 -192 -178 -317 -405 -344c149 -159 308 -351 459 -536c8 -9 10 -23 4 -34c-5 -11 -16 -18 -29 -18h-195c-10 0 -19 4 -25 12c-161 193 -309 370 -498 571c-6 6 -9 14 -9 22v127c0 17 14 32 32 32h112
c176 0 286 59 315 168h-427c-18 0 -32 14 -32 32v102c0 18 14 32 32 32h413c-38 75 -128 113 -268 113h-145c-18 0 -32 15 -32 32v133c0 18 14 32 32 32h832c18 0 32 -14 32 -32v-102c0 -18 -14 -32 -32 -32h-233c32 -41 53 -89 64 -144h171c18 0 32 -14 32 -32z" />
</svg>