<?xml version="1.0" standalone="no"?>
<svg width="1536px" height="1536px" version="1.1" xmlns="http://www.w3.org/2000/svg">
    <path transform="scale(1, -1) translate(0, -1536)" glyph-name="instagram" unicode="&#xf16d;" 

d="M1024 640c0 141 -115 256 -256 256s-256 -115 -256 -256s115 -256 256 -256s256 115 256 256zM1162 640c0 -218 -176 -394 -394 -394s-394 176 -394 394s176 394 394 394s394 -176 394 -394zM1270 1050c0 -51 -41 -92 -92 -92s-92 41 -92 92s41 92 92 92s92 -41 92 -92z
M768 1270c-112 0 -352 9 -453 -31c-35 -14 -61 -31 -88 -58s-44 -53 -58 -88c-40 -101 -31 -341 -31 -453s-9 -352 31 -453c14 -35 31 -61 58 -88s53 -44 88 -58c101 -40 341 -31 453 -31s352 -9 453 31c35 14 61 31 88 58s44 53 58 88c40 101 31 341 31 453s9 352 -31 453
c-14 35 -31 61 -58 88s-53 44 -88 58c-101 40 -341 31 -453 31zM1536 640c0 -106 1 -211 -5 -317c-6 -123 -34 -232 -124 -322s-199 -118 -322 -124c-106 -6 -211 -5 -317 -5s-211 -1 -317 5c-123 6 -232 34 -322 124s-118 199 -124 322c-6 106 -5 211 -5 317s-1 211 5 317
c6 123 34 232 124 322s199 118 322 124c106 6 211 5 317 5s211 1 317 -5c123 -6 232 -34 322 -124s118 -199 124 -322c6 -106 5 -211 5 -317z" />
</svg>