<?xml version="1.0" standalone="no"?>
<svg width="1536px" height="1536px" version="1.1" xmlns="http://www.w3.org/2000/svg">
    <path transform="scale(1, -1) translate(0, -1536)" glyph-name="internet_explorer" unicode="&#xf26b;" horiz-adv-x="1792" 

d="M1792 599c0 -35 -2 -70 -7 -104h-1151c0 -199 175 -343 367 -343c130 0 255 64 322 177h423c-114 -321 -419 -536 -759 -536c-123 0 -246 29 -356 83c-112 -57 -269 -116 -394 -116c-168 0 -237 103 -237 263c0 93 20 186 45 275c16 58 80 176 109 229
c123 223 285 437 475 606c-153 -66 -319 -232 -427 -354c84 366 410 625 785 625c15 0 30 0 45 -1c124 57 297 117 433 117c162 0 301 -62 301 -245c0 -96 -37 -200 -75 -286c66 -119 101 -254 101 -390zM1722 1239c0 112 -80 181 -190 181c-84 0 -179 -34 -254 -70
c162 -63 301 -179 393 -327c25 66 51 146 51 216zM128 2c0 -116 69 -179 183 -179c89 0 188 40 266 83c-163 96 -289 249 -351 428c-46 -96 -98 -224 -98 -332zM632 715h728c-7 193 -177 332 -364 332c-188 0 -357 -139 -364 -332z" />
</svg>