<svg width="1536" height="1536" xmlns="http://www.w3.org/2000/svg">
    <path d="M1792 937c0 35-2 70-7 104H634c0 199 175 343 367 343 130 0 255-64 322-177h423c-114 321-419 536-759 536-123 0-246-29-356-83-112 57-269 116-394 116-168 0-237-103-237-263 0-93 20-186 45-275 16-58 80-176 109-229 123-223 285-437 475-606-153 66-319 232-427 354 84-366 410-625 785-625 15 0 30 0 45 1 124-57 297-117 433-117 162 0 301 62 301 245 0 96-37 200-75 286 66 119 101 254 101 390zm-70-640c0-112-80-181-190-181-84 0-179 34-254 70 162 63 301 179 393 327 25-66 51-146 51-216zM128 1534c0 116 69 179 183 179 89 0 188-40 266-83-163-96-289-249-351-428-46 96-98 224-98 332zm504-713h728c-7-193-177-332-364-332-188 0-357 139-364 332z"/>
</svg>
