<svg width="1536" height="1536" xmlns="http://www.w3.org/2000/svg">
    <path d="M1463 832c0 47-38 86-86 86H675c-48 0-86-39-86-86s38-86 86-86h702c48 0 86 39 86 86zm214 0c0-59-8-115-23-170H672c-48 0-86-38-86-85 0-48 38-86 86-86h908c-115-187-321-311-555-311-360 0-653 292-653 652 0 59 8 115 23 170h982c48 0 86 38 86 85 0 48-38 86-86 86H469c115 187 321 311 556 311 359 0 652-292 652-652zm371-255c0 47-38 85-86 85h-131c11 55 17 112 17 170 0 454-369 824-823 824-333 0-620-198-750-483H86c-48 0-86-38-86-86 0-47 38-85 86-85h132c-11-55-17-112-17-170C201 378 570 8 1025 8c332 0 619 198 749 483h188c48 0 86 38 86 86z"/>
</svg>
