<?xml version="1.0" standalone="no"?>
<svg width="1536px" height="1536px" version="1.1" xmlns="http://www.w3.org/2000/svg">
    <path transform="scale(1, -1) translate(0, -1536)" glyph-name="ioxhost" unicode="&#xf208;" horiz-adv-x="2048" 

d="M1463 704c0 -47 -38 -86 -86 -86h-702c-48 0 -86 39 -86 86s38 86 86 86h702c48 0 86 -39 86 -86zM1677 704c0 59 -8 115 -23 170h-982c-48 0 -86 38 -86 85c0 48 38 86 86 86h908c-115 187 -321 311 -555 311c-360 0 -653 -292 -653 -652c0 -59 8 -115 23 -170h982
c48 0 86 -38 86 -85c0 -48 -38 -86 -86 -86h-908c115 -187 321 -311 556 -311c359 0 652 292 652 652zM2048 959c0 -47 -38 -85 -86 -85h-131c11 -55 17 -112 17 -170c0 -454 -369 -824 -823 -824c-333 0 -620 198 -750 483h-189c-48 0 -86 38 -86 86c0 47 38 85 86 85h132
c-11 55 -17 112 -17 170c0 454 369 824 824 824c332 0 619 -198 749 -483h188c48 0 86 -38 86 -86z" />
</svg>