<?xml version="1.0" standalone="no"?>
<svg width="1536px" height="1536px" version="1.1" xmlns="http://www.w3.org/2000/svg">
    <path transform="scale(1, -1) translate(0, -1536)" glyph-name="italic" unicode="&#xf033;" horiz-adv-x="1024" 

d="M0 -126l17 85c64 20 133 28 193 59c23 29 34 66 41 101c13 68 231 1049 228 1129v25c-55 30 -122 22 -182 32l19 103c129 -6 260 -16 390 -16c106 0 212 10 318 16c-4 -30 -11 -60 -19 -89c-69 -24 -142 -35 -210 -62c-22 -54 -27 -113 -37 -170
c-48 -259 -112 -518 -165 -775c-10 -48 -59 -247 -55 -289l1 -18c61 -14 123 -21 185 -31c-2 -33 -8 -66 -16 -99c-22 0 -43 -3 -65 -3c-57 0 -116 19 -173 20c-69 1 -138 2 -206 2c-89 0 -176 -15 -264 -20z" />
</svg>