<svg width="1536" height="1792" viewBox="0 0 1536 1792" xmlns="http://www.w3.org/2000/svg">
    <path d="M 200.25367,213.67332 C 133.25412,253.45464 1.2519621,405.10035 0,444.86934 v 65.82939 c 0,83.44418 77.998127,156.78489 148.81617,156.78489 85.03426,0 155.88365,-70.47386 155.88987,-154.11816 0,83.6443 68.42052,154.11816 153.46104,154.11816 85.04675,0 151.27004,-70.47386 151.27004,-154.11816 0,83.6443 72.75237,154.11816 157.79289,154.11816 h 1.53993 c 85.04676,0 157.79911,-70.47386 157.79911,-154.11816 0,83.6443 66.22959,154.11816 151.26385,154.11816 85.0405,0 153.461,-70.47386 153.461,-154.11816 0,83.6443 70.8619,154.11816 155.8899,154.11816 70.8181,0 148.8162,-73.32838 148.8162,-156.78489 v -65.82939 c -1.252,-39.77486 -133.2541,-191.42703 -200.2412,-231.19602 -208.2412,-7.31177 -352.60666,-8.57588 -567.7651,-8.54478 -215.15216,0 -508.47773,3.38035 -567.75259,8.54478 z m 408.10679,414.51079 a 175.43322,175.43322 0 0 1 -29.92227,38.52954 c -32.10065,31.38679 -76.10136,50.84259 -124.60923,50.84259 A 178.29398,178.29398 0 0 1 328.95682,666.68842 C 317.32601,655.29558 308.48704,643.114 300.39297,628.92884 h -0.0352 c -8.08772,14.2098 -19.35556,26.38552 -31.01142,37.79068 A 178.40666,178.40666 0 0 1 144.4742,717.54978 c -5.84672,0 -11.93135,-1.61506 -16.85164,-3.30523 -6.83575,71.18748 -9.72156,139.21996 -10.74194,188.8231 l -0.0117,0.28168 c -0.125,25.19007 -0.2506,45.90352 -0.3756,74.68052 1.31458,149.36095 -14.79209,484.10205 65.85399,566.35015 124.97227,29.1396 354.93534,42.411 585.64333,42.492 h 0.0352 c 230.7017,-0.082 460.66466,-13.3524 585.63706,-42.492 80.6461,-82.2546 64.5393,-416.9957 65.8539,-566.35661 -0.1379,-28.77054 -0.2506,-49.48399 -0.3756,-74.68051 l -0.018,-0.28169 c -1.0141,-49.61546 -3.8999,-117.64149 -10.7356,-188.82897 -4.9203,1.69018 -10.9987,3.30524 -16.8516,3.30524 A 178.40666,178.40666 0 0 1 1266.6637,666.7072 c -11.6558,-11.40575 -22.9236,-23.57501 -31.0176,-37.79127 h -0.035 c -8.1004,14.18457 -16.9331,26.37261 -28.5638,37.75958 a 178.28146,178.28146 0 0 1 -124.866,50.86136 c -48.5015,0 -92.50849,-19.46812 -124.60915,-50.84904 a 175.43322,175.43322 0 0 1 -29.92226,-38.52954 175.21412,175.21412 0 0 1 -29.64678,38.52954 178.34406,178.34406 0 0 1 -124.88471,50.8555 c -1.69013,0 -3.38029,-0.0763 -5.07047,-0.12325 h -0.0411 c -1.69018,0.0587 -3.38034,0.12325 -5.0893,0.12325 A 178.34406,178.34406 0 0 1 638.03307,666.69429 175.22664,175.22664 0 0 1 608.38628,628.16474 Z m -128.23994,165.82439 -0.0117,0.0646 h 0.0939 c 50.78642,0.10564 95.90142,0 151.80214,61.00887 43.99451,-4.61335 89.96703,-6.91681 135.97719,-6.84815 h 0.0352 c 46.01016,-0.0646 91.98274,2.2348 135.98347,6.84815 55.90072,-61.01474 101.01568,-60.90851 151.80208,-61.00887 h 0.087 l -0.012,-0.0646 c 23.9942,0 119.9769,0 186.8575,187.84009 l 71.8384,257.68771 c 53.2341,191.7028 -17.0456,196.3914 -104.709,196.5604 -130.0052,-4.8388 -201.9876,-99.2503 -201.9876,-193.6495 -71.96364,11.7937 -155.91494,17.6905 -239.86624,17.697 h -0.0352 c -83.95752,0 -167.90882,-5.9033 -239.86616,-17.697 0,94.3992 -71.98867,188.8107 -201.98763,193.6495 -87.6634,-0.1702 -157.93683,-4.8511 -104.70283,-196.5604 L 293.27687,981.85504 C 360.15751,794.01437 456.14028,794.01437 480.13443,794.01437 Z M 767.9812,941.62887 v 0.0587 c -0.12501,0.12324 -136.85983,125.69863 -161.44237,170.36263 l 89.54138,-3.5869 v 78.0854 c 0,3.6563 35.93171,2.1662 71.90099,0.4989 h 0.0352 c 35.95678,1.6649 71.89477,3.155 71.89477,-0.4989 v -78.0854 l 89.54132,3.5869 C 904.86374,1067.3862 768.01013,941.68756 768.01013,941.68756 v -0.0587 h -0.0176 z" color="#000"/>
</svg>
