<svg xmlns="http://www.w3.org/2000/svg" viewBox="0 0 1536 1792" height="1792" width="1536">
    <g clip-rule="evenodd" fill-rule="evenodd">
        <path d="M427.91 1372.782s-67.351 39.19 47.983 52.43c139.764 15.96 211.152 13.663 365.121-15.463 0 0 40.537 25.38 97.121 47.339-345.255 147.941-781.37-8.558-510.225-84.306zm-42.204-193.057s-75.558 55.926 39.878 67.863c149.302 15.419 267.152 16.677 471.21-22.587 0 0 28.175 28.6 72.515 44.223-417.376 122.078-882.222 9.611-583.603-89.5zM741.333 852.2c85.11 97.969-22.309 186.078-22.309 186.078s216.01-111.486 116.797-251.148c-92.63-130.182-163.682-194.856 220.925-417.887-.015-.015-603.733 150.72-315.413 482.956z"/>
        <path d="M1197.943 1515.589s49.856 41.107-54.916 72.895c-199.23 60.344-829.368 78.542-1004.402 2.4-62.875-27.386 55.092-65.348 92.205-73.364 38.708-8.368 60.798-6.847 60.798-6.847-69.97-49.27-452.266 96.77-194.155 138.667 703.824 114.12 1283.01-51.376 1100.47-133.751zm-737.63-535.914s-320.489 76.143-113.476 103.821c87.437 11.689 261.608 8.997 423.973-4.623 132.655-11.132 265.806-34.948 265.806-34.948s-46.739 20.056-80.604 43.14c-325.507 85.623-954.226 45.745-773.208-41.78 153.047-74.036 277.509-65.61 277.509-65.61zm574.972 321.352c330.861-171.889 177.887-337.107 71.082-314.842-26.113 5.457-37.83 10.167-37.83 10.167s9.742-15.243 28.263-21.797c211.255-74.241 373.694 219.023-68.112 335.162-.015 0 5.076-4.594 6.597-8.69zM835.82 9.007s183.198 183.314-173.805 465.11c-286.3 226.132-65.273 355.027-.087 502.354-167.15-150.78-289.754-283.536-207.51-407.062C575.163 388.084 909.74 300.15 835.82 9.007z"/>
        <path d="M492.862 1766.956c317.534 20.305 805.245-11.279 816.817-161.56 0 0-22.207 56.964-262.457 102.152-271.058 51.026-605.43 45.086-803.68 12.362 0 0 40.625 33.617 249.32 47.046z"/>
    </g>
</svg>
