<svg xmlns="http://www.w3.org/2000/svg" width="1536" height="1792" viewBox="0 0 1536 1792">
    <path d="M1458.534 128H77.466C34.69 128 0 162.69 0 205.466v1381.068c0 26.474 13.331 49.804 33.589 63.773 183.043-477.127 393.256-771.833 393.256-771.833-44.805-94.043 4.477-257.51 62.685-275.42 58.237-17.91 145.556 132.11 145.556 132.11 60.469 0 102.998-127.632 111.968-190.332 8.94-62.7-13.447-114.2 40.298-136.587 53.73-22.387 40.298 82.856 31.343 129.878-8.955 47.036 17.91 147.788 33.588 214.965 15.665 67.178 105.244 118.677 134.341 129.864 29.126 11.2 69.424 58.222 69.424 58.222 6.723 26.865 273.188 317.964 342.597 403.051 69.41 85.088 38.066 175.9 38.066 175.9s-38.066 25.648-127.631 18.924c-66.338-4.985-121.575-66.395-136.703-85.218.042.042.058.072.102.13 0 0-120.923-4.477-270.942-71.655-150.02-67.178-174.668-47.021-223.92-35.835 0 0-60.455 4.478-91.812 107.476-23.04 75.727-31.575 100.737-49.601 210.053h922.33c42.776 0 77.466-34.69 77.466-77.466V205.466c-.016-42.776-34.69-77.466-77.466-77.466z"/>
</svg>
