<?xml version="1.0" standalone="no"?>
<svg width="1536px" height="1536px" version="1.1" xmlns="http://www.w3.org/2000/svg">
    <path transform="scale(1, -1) translate(0, -1536)" glyph-name="joomla" unicode="&#xf1aa;" 

d="M1070 463l-160 -160l-151 -152l-30 -30c-88 -87 -211 -117 -323 -89c-21 -92 -103 -160 -201 -160c-113 0 -205 92 -205 206c0 97 67 179 158 200c-29 113 1 237 89 325l12 12l151 -152l-11 -11c-50 -49 -49 -129 0 -179c49 -49 129 -49 178 0l30 30l151 152l161 160z
M729 1145l12 -12l-152 -152l-12 12c-49 49 -129 49 -178 0s-49 -130 0 -179l29 -29l152 -152l160 -160l-151 -152l-161 160l-151 152v0l-30 30c-92 91 -120 222 -85 339c-92 20 -160 102 -160 200c0 114 92 206 205 206c103 0 187 -75 203 -172c111 26 232 -5 319 -91z
M1536 78c0 -114 -92 -206 -205 -206c-100 0 -183 71 -202 165v0c-116 -36 -249 -8 -341 84l-11 12l151 152l12 -12c49 -49 129 -49 178 0s49 129 0 178l-30 30l-152 152l-160 160l152 152l160 -160l152 -152l29 -30c87 -87 118 -210 90 -322c100 -14 177 -99 177 -203z
M1534 1202c0 -104 -78 -190 -178 -204c33 -115 4 -244 -87 -335l-12 -12l-151 152l12 12c49 49 49 129 0 178s-129 49 -178 0l-30 -30l-152 -152l-160 -160l-152 152v0l161 160l152 152l29 30c91 91 221 120 337 86c14 100 100 177 204 177c113 0 205 -92 205 -206z" />
</svg>