<svg width="1536" height="1536" xmlns="http://www.w3.org/2000/svg">
    <path d="M1070 1073l-160 160-151 152-30 30c-88 87-211 117-323 89-21 92-103 160-201 160-113 0-205-92-205-206 0-97 67-179 158-200-29-113 1-237 89-325l12-12 151 152-11 11c-50 49-49 129 0 179 49 49 129 49 178 0l30-30 151-152 161-160zM729 391l12 12-152 152-12-12c-49-49-129-49-178 0s-49 130 0 179l29 29 152 152 160 160-151 152-161-160-151-152-30-30c-92-91-120-222-85-339C70 514 2 432 2 334c0-114 92-206 205-206 103 0 187 75 203 172 111-26 232 5 319 91zm807 1067c0 114-92 206-205 206-100 0-183-71-202-165-116 36-249 8-341-84l-11-12 151-152 12 12c49 49 129 49 178 0s49-129 0-178l-30-30-152-152-160-160 152-152 160 160 152 152 29 30c87 87 118 210 90 322 100 14 177 99 177 203zm-2-1124c0 104-78 190-178 204 33 115 4 244-87 335l-12 12-151-152 12-12c49-49 49-129 0-178s-129-49-178 0l-30 30-152 152-160 160-152-152 161-160 152-152 29-30c91-91 221-120 337-86 14-100 100-177 204-177 113 0 205 92 205 206z"/>
</svg>
