<?xml version="1.0" standalone="no"?>
<svg width="1536px" height="1536px" version="1.1" xmlns="http://www.w3.org/2000/svg">
    <path transform="scale(1, -1) translate(0, -1536)" glyph-name="jpy" unicode="&#xf157;" horiz-adv-x="1027" 

d="M603 0h-172c-18 0 -32 14 -32 32v330h-288c-18 0 -32 14 -32 32v103c0 18 14 32 32 32h288v85h-288c-18 0 -32 14 -32 32v104c0 17 14 32 32 32h214l-321 578c-5 10 -5 22 0 32c6 10 17 16 28 16h194c12 0 23 -7 29 -18l215 -425c24 -47 40 -87 56 -125
c17 43 39 85 58 129l191 420c5 12 17 19 29 19h191c11 0 21 -6 27 -16c6 -9 6 -21 1 -31l-313 -579h215c18 0 32 -15 32 -32v-104c0 -18 -14 -32 -32 -32h-290v-85h290c18 0 32 -14 32 -32v-103c0 -18 -14 -32 -32 -32h-290v-330c0 -18 -15 -32 -32 -32z" />
</svg>