<svg width="1536" height="1536" xmlns="http://www.w3.org/2000/svg">
    <path d="M603 1536H431c-18 0-32-14-32-32v-330H111c-18 0-32-14-32-32v-103c0-18 14-32 32-32h288v-85H111c-18 0-32-14-32-32V786c0-17 14-32 32-32h214L4 176c-5-10-5-22 0-32 6-10 17-16 28-16h194c12 0 23 7 29 18l215 425c24 47 40 87 56 125 17-43 39-85 58-129l191-420c5-12 17-19 29-19h191c11 0 21 6 27 16 6 9 6 21 1 31L710 754h215c18 0 32 15 32 32v104c0 18-14 32-32 32H635v85h290c18 0 32 14 32 32v103c0 18-14 32-32 32H635v330c0 18-15 32-32 32z"/>
</svg>
