<?xml version="1.0" standalone="no"?>
<svg width="1536px" height="1536px" version="1.1" xmlns="http://www.w3.org/2000/svg">
    <path transform="scale(1, -1) translate(0, -1536)" glyph-name="jsfiddle" unicode="&#xf1cc;" horiz-adv-x="2048" 

d="M1800 764c145 -60 248 -202 248 -367c0 -219 -181 -397 -403 -397c-8 0 -15 1 -22 1h-1209h-1h-2h-5c-224 13 -406 184 -406 406c0 149 81 279 202 350c-8 26 -12 53 -12 82c0 153 125 277 281 277c64 0 124 -22 172 -58c98 202 306 342 549 342c337 0 609 -269 609 -600
c0 -12 -1 -24 -1 -36zM468 498c0 -169 133 -264 292 -264c98 0 169 31 240 99c-29 36 -61 71 -91 107c-41 -40 -86 -65 -144 -65c-71 0 -132 47 -132 121c0 73 61 121 130 121c220 0 267 -384 587 -384c156 0 288 98 288 262c0 166 -133 263 -291 263
c-98 0 -171 -28 -241 -97c32 -35 62 -72 93 -108c40 39 85 64 142 64c66 0 132 -47 132 -117c0 -77 -56 -126 -131 -126c-213 0 -270 384 -582 384c-155 0 -292 -95 -292 -260z" />
</svg>