<svg width="1536" height="1536" xmlns="http://www.w3.org/2000/svg">
    <path d="M1800 772c145 60 248 202 248 367 0 219-181 397-403 397-8 0-15-1-22-1H406C182 1522 0 1351 0 1129c0-149 81-279 202-350-8-26-12-53-12-82 0-153 125-277 281-277 64 0 124 22 172 58 98-202 306-342 549-342 337 0 609 269 609 600 0 12-1 24-1 36zM468 1038c0 169 133 264 292 264 98 0 169-31 240-99-29-36-61-71-91-107-41 40-86 65-144 65-71 0-132-47-132-121 0-73 61-121 130-121 220 0 267 384 587 384 156 0 288-98 288-262 0-166-133-263-291-263-98 0-171 28-241 97 32 35 62 72 93 108 40-39 85-64 142-64 66 0 132 47 132 117 0 77-56 126-131 126-213 0-270-384-582-384-155 0-292 95-292 260z"/>
</svg>
