<svg width="2304" height="1536" xmlns="http://www.w3.org/2000/svg">
    <path d="M1759.697.193a135.258 135.258 0 0 0-135.257 135.258 135.258 135.258 0 0 0 135.257 135.258 135.258 135.258 0 0 0 135.258-135.258A135.258 135.258 0 0 0 1759.697.193zM345.891 277.881a135.258 135.258 0 0 0-135.258 135.258A135.258 135.258 0 0 0 345.89 548.396 135.258 135.258 0 0 0 481.148 413.14a135.258 135.258 0 0 0-135.257-135.26zm1251.824 0a135.258 135.258 0 0 0-135.26 135.258 135.258 135.258 0 0 0 135.26 135.257 135.258 135.258 0 0 0 135.258-135.257 135.258 135.258 0 0 0-135.258-135.258zm323.969 0a135.258 135.258 0 0 0-135.258 135.258 135.258 135.258 0 0 0 135.258 135.257A135.258 135.258 0 0 0 2056.94 413.14a135.258 135.258 0 0 0-135.257-135.258zm-516.73 8.582l-198.354 55.05v920.11l198.353.002V286.463zM448.26 586.178l-200.102 55.05v718.264c0 37.865-2.913 63.35-8.738 76.457-5.825 13.107-14.272 19.66-25.34 19.66-5.243 0-11.067-2.04-17.475-6.117-6.407-4.078-14.273-12.232-23.593-24.465-8.156-11.068-18.495-22.283-31.02-33.642-12.524-11.36-29.273-17.04-50.244-17.04-27.961 0-50.243 6.99-66.846 20.971C8.301 1409.298 0 1426.484 0 1446.873c0 24.467 14.855 45.436 44.564 62.912C74.274 1527.261 117.09 1536 173.012 1536c41.36 0 78.934-3.35 112.72-10.049 33.787-6.7 62.768-19.952 86.944-39.758 24.175-19.806 42.816-47.621 55.924-83.447 13.106-35.826 19.66-82.866 19.66-141.119V586.178zm1235.26 0l-199.227 55.05v620.397h199.227V586.178zm349.603 3.496c-38.447 0-74.857 4.077-109.226 12.232-34.37 8.156-64.662 19.225-90.875 33.205-26.215 13.982-47.04 30.73-62.477 50.244-15.437 19.516-23.154 40.632-23.154 63.35 0 24.467 8.736 44.71 26.212 60.729 17.476 16.02 40.195 24.031 68.157 24.03 18.058.001 33.06-2.621 45.002-7.864s21.115-12.233 27.523-20.971c6.408-8.738 10.923-18.933 13.545-30.584 2.621-11.65 3.932-23.59 3.932-35.824 0-21.553 6.116-39.905 18.35-55.051 12.232-15.145 34.077-22.718 65.534-22.719 26.797 0 48.205 8.74 64.225 26.215 16.02 17.477 24.029 47.185 24.03 89.127v64.662l-21.846 5.242a3676.6 3676.6 0 0 0-81.264 25.778c-27.38 9.029-53.738 18.932-79.078 29.709-25.34 10.777-49.079 22.573-71.215 35.388-22.136 12.816-41.505 27.38-58.107 43.69-16.603 16.31-29.71 34.662-39.323 55.05-9.611 20.39-14.418 43.108-14.418 68.157 0 24.466 4.516 47.039 13.545 67.718 9.03 20.68 21.992 38.593 38.885 53.739 16.894 15.146 37.426 27.088 61.602 35.826 24.175 8.738 51.409 13.107 81.7 13.107 22.137 0 41.36-1.602 57.67-4.806 16.311-3.204 31.02-7.718 44.128-13.543 13.106-5.825 24.902-12.671 35.388-20.535 10.486-7.864 21.264-16.457 32.332-25.778v52.43l200.1-.002v-491.95c0-27.377-5.244-52.133-15.729-74.27-10.486-22.136-26.797-41.069-48.933-56.798-22.137-15.727-50.243-27.816-84.32-36.263-34.08-8.446-74.71-12.67-121.895-12.67zm-1506.17 15.724v462.24c0 28.545 5.97 55.34 17.912 80.39 11.942 25.048 28.398 46.893 49.37 65.534 20.97 18.642 45.438 33.35 73.4 44.128 27.961 10.776 58.252 16.165 90.875 16.165 27.961 0 56.796-6.699 86.506-20.097 29.708-13.398 57.67-31.165 83.884-53.301v61.166h199.227V605.398H928.9v473.6c-15.146 23.301-32.912 42.67-53.3 58.107-20.389 15.438-38.157 23.157-53.303 23.157-13.398 0-25.923-2.476-37.574-7.428-11.651-4.951-21.845-11.505-30.582-19.66-8.739-8.156-15.584-17.914-20.536-29.274-4.951-11.359-7.426-23.445-7.425-36.261v-462.24H526.953zM2103.9 922.592v189.613c-20.389 15.146-38.884 27.671-55.486 37.574-16.603 9.903-33.06 14.856-49.371 14.856-8.156 0-15.729-2.476-22.719-7.428-6.99-4.952-13.397-11.505-19.222-19.66-5.826-8.156-10.342-17.914-13.545-29.274-3.205-11.359-4.805-23.155-4.805-35.388 0-15.728 4.95-30.874 14.853-45.438 9.903-14.562 22.865-28.252 38.885-41.068 16.02-12.816 33.788-24.612 53.303-35.389 19.514-10.776 38.884-20.242 58.107-28.398z"/>
</svg>
