<svg width="1536" height="1536" xmlns="http://www.w3.org/2000/svg">
    <path d="M1267.864.144c-20.654.796-40.562 7.03-57.214 17.938-16.655 10.911-29.261 25.996-36.255 43.317-6.998 17.322-8.07 36.083-3.033 53.937 5.041 17.85 15.975 33.995 31.336 46.316 15.365 12.321 34.456 20.248 54.923 22.859 20.468 2.605 41.356-.287 59.977-8.28 18.625-7.996 34.158-20.719 44.612-36.597 10.458-15.881 15.361-34.184 14.085-52.556-.67-12.063-3.951-23.89-9.772-34.798-5.817-10.908-14.047-20.656-24.125-28.738-10.075-8.082-21.848-14.34-34.639-18.359-12.79-4.005-26.348-5.715-39.895-5.04zM768.91 128.714c-140.54 0-277.686 38.29-393.018 109.793-115.332 71.502-203.291 172.785-252.038 290.14C249.492 397.922 491.218 309.841 768.91 309.841c276.467 0 519.418 88.355 645.056 218.804-48.75-117.354-136.707-218.637-252.038-290.14-115.336-71.501-252.475-109.791-393.018-109.791zm-611.092 16.98a84.738 84.738 0 0 0-22.036 1.68c-14.502 3.053-27.701 9.86-37.873 19.558-10.168 9.698-16.926 21.889-19.341 34.978-2.43 13.088-.396 26.483 5.728 38.577 6.128 12.093 16.08 22.354 28.708 29.398 12.629 7.043 27.358 10.568 42.254 10.199v.058c20.126-.711 39.087-8.488 52.833-21.598 13.747-13.107 21.14-30.493 20.554-48.417-.61-13.257-5.593-26.104-14.354-36.837-8.76-10.733-20.866-18.908-34.84-23.518a83.781 83.781 0 0 0-21.633-4.08zm881.393 433.289l-39.963 8.52v48.656H963.6v27.358h35.043v109.372c-2.246 18.495 3.46 37.055 15.971 51.956 5.745 5.262 12.728 9.358 20.42 12 7.687 2.638 15.9 3.82 24.125 3.36 12.421.368 24.78-1.299 36.525-4.92l-1.82-27.359c-7.831 1.751-15.849 2.46-23.923 2.46-22.73 0-30.73-14.203-30.73-38.817V663.817h58.967v-27.358h-58.966zm453.466 52.616c-14.077.71-27.537 5.3-38.547 13.14-11.01 7.841-19.045 18.528-22.913 30.597h-1.819v-39.117h-36.862c1.828 18.596 1.82 38.815 1.82 62.335l-1.483.302v136.73h40.5V729.214a90.76 90.76 0 0 1 1.82-16.979c1.26-12.373 7.537-23.903 17.656-32.458 10.12-8.558 23.391-13.547 37.334-14.039a68.023 68.023 0 0 1 14.152 0v-34.137a49.348 49.348 0 0 0-11.658 0zm-898.442.3c-16.11-.617-32.059 2.699-46.23 9.54-14.173 6.837-26.021 16.986-34.233 29.337l-1.82-34.197H475.09c1.829 18.87 1.82 39.664 1.82 65.095V918.5h40.568V809.126c7.601 10.143 17.973 18.37 30.19 23.878 12.215 5.52 25.81 8.112 39.491 7.56 53.45 0 102.972-35.56 102.972-107.213 0-60.714-41.218-101.453-95.896-101.453zm645.528.84c-65.736 0-106.004 47.585-106.004 107.752-1.277 13.362.753 26.86 5.863 39.477 5.11 12.612 13.223 24.098 23.788 33.657 10.562 9.56 23.32 16.96 37.401 21.719 14.085 4.755 29.111 6.741 44.14 5.82 25.779.629 51.43-3.555 75.275-12.3l-7.076-27.358c-19.429 7.271-40.32 10.81-61.392 10.38-10.416.74-20.924-.506-30.73-3.72-9.809-3.217-18.689-8.3-26.08-14.88-7.39-6.58-13.1-14.488-16.712-23.218-3.485-8.392-4.806-17.363-4.178-26.278h157.827c.38-5.646.38-11.273 0-16.919 0-36.646-18.398-94.133-92.122-94.133zM91.91 634.897v168.23c0 47.861-4.306 63.45-15.365 74.935-12.307 9.87-28.32 15.308-44.881 15.299l4.313 27.358c25.677.307 50.642-7.807 70.085-22.739 10.465-11.36 18.201-24.48 22.845-38.577 4.644-14.093 6.09-28.846 4.178-43.437V634.9zm266.73.3v122.571c.079 6.81-1.348 13.553-4.246 19.859-2.888 6.303-7.195 11.982-12.602 16.799-5.407 4.813-11.786 8.639-18.87 11.219-7.08 2.556-14.727 3.78-22.373 3.78-37.17 0-50.34-25.403-50.34-63.416V636.578h-41.175V753.39c0 70.282 42.402 87.473 78.037 87.473 15.023.222 29.816-3.065 42.928-9.599 13.11-6.53 24.094-16.082 31.74-27.598l2.426 32.578h36.525c-1.828-15.863-1.819-34.206-1.819-54.717l.943-1.08v-145.25zm359.322.66l83.563 184.007a28.756 28.756 0 0 1 2.764 9.6 25.062 25.062 0 0 1-3.37 8.76c-7.832 15.733-19.72 29.565-34.706 40.436-10.606 7.9-22.847 13.976-35.986 17.82l10.176 30.597c18.79-3.843 36.107-11.944 50.34-23.519 28.262-21.33 47.05-56.602 77.768-124.97l61.392-142.19H886.64L841.758 753.45c-5.53 14.22-10.122 29.545-14.421 41.577-3.689-11.759-9.198-27.671-14.422-40.797l-49.464-117.832-.606-.539zm519.306 20.46c8.299.038 16.526 1.642 24.059 4.739 7.532 3.1 14.196 7.602 19.61 13.199 5.414 5.597 9.482 12.166 11.793 19.259 2.312 7.092 2.858 14.527 1.685 21.838h-120.089c.339-15.061 6.952-29.448 18.6-40.377 11.648-10.927 27.463-17.584 44.342-18.659zm-655.03 4.62c43.317 0 67.323 34.169 67.323 74.095 0 45.672-25.492 77.095-68.805 77.095-14.077.02-27.824-4.143-38.951-11.82-11.127-7.679-19.023-18.394-22.508-30.537-1.104-4.863-1.82-9.795-1.82-14.759v-34.2c.766-15.297 7.743-29.832 19.678-40.856 11.931-11.025 27.946-17.76 45.084-19.02zM123.855 939.32c48.747 117.355 136.706 218.638 252.038 290.14 115.332 71.504 252.478 109.792 393.018 109.792 140.543 0 277.682-38.288 393.017-109.792 115.332-71.502 203.288-172.786 252.039-290.14-125.331 130.45-367.36 218.805-645.056 218.805-276.464 0-519.418-88.356-645.056-218.805zm127.771 363.274c-26.016 1.023-51.079 8.917-72.04 22.679-20.957 13.761-36.905 32.768-45.69 54.596-8.785 21.828-10.012 45.493-3.639 67.975 6.376 22.48 20.12 42.756 39.49 58.256s43.425 25.482 69.21 28.738c25.788 3.253 52.095-.345 75.544-10.44 23.445-10.093 42.99-26.18 56.136-46.196 13.142-20.019 19.277-43.096 17.656-66.235-.904-15.175-5.108-30.025-12.467-43.737-7.36-13.713-17.696-26.02-30.393-36.178-12.694-10.158-27.505-17.979-43.601-23.038-16.096-5.05-33.161-7.218-50.206-6.42z"/>
</svg>
