<?xml version="1.0" standalone="no"?>
<svg width="1536px" height="1536px" version="1.1" xmlns="http://www.w3.org/2000/svg">
    <path transform="scale(1, -1) translate(0, -1536)" glyph-name="key" unicode="&#xf084;" horiz-adv-x="1792" 

d="M832 1024c0 106 -86 192 -192 192s-192 -86 -192 -192c0 -29 7 -57 19 -83c-26 12 -54 19 -83 19c-106 0 -192 -86 -192 -192s86 -192 192 -192s192 86 192 192c0 29 -7 57 -19 83c26 -12 54 -19 83 -19c106 0 192 86 192 192zM1683 320c0 -23 -92 -115 -115 -115
c-26 0 -107 94 -128 115l-96 -96l220 -220c18 -18 28 -43 28 -68c0 -56 -64 -120 -120 -120c-25 0 -50 10 -68 28l-671 671c-105 -78 -233 -131 -365 -131c-218 0 -368 151 -368 368c0 328 328 656 656 656c217 0 368 -150 368 -368c0 -132 -53 -260 -131 -365l355 -355
l96 96c-21 21 -115 102 -115 128c0 23 92 115 115 115c8 0 17 -4 23 -10c37 -37 316 -300 316 -329z" />
</svg>