<svg width="1536" height="1536" xmlns="http://www.w3.org/2000/svg">
    <path d="M832 512c0-106-86-192-192-192s-192 86-192 192c0 29 7 57 19 83-26-12-54-19-83-19-106 0-192 86-192 192s86 192 192 192 192-86 192-192c0-29-7-57-19-83 26 12 54 19 83 19 106 0 192-86 192-192zm851 704c0 23-92 115-115 115-26 0-107-94-128-115l-96 96 220 220c18 18 28 43 28 68 0 56-64 120-120 120-25 0-50-10-68-28l-671-671c-105 78-233 131-365 131-218 0-368-151-368-368 0-328 328-656 656-656 217 0 368 150 368 368 0 132-53 260-131 365l355 355 96-96c-21-21-115-102-115-128 0-23 92-115 115-115 8 0 17 4 23 10 37 37 316 300 316 329z"/>
</svg>
