<svg width="1536" height="1536" xmlns="http://www.w3.org/2000/svg">
    <path d="M384 1168v96c0 9-7 16-16 16h-96c-9 0-16-7-16-16v-96c0-9 7-16 16-16h96c9 0 16 7 16 16zm128-256v96c0 9-7 16-16 16H272c-9 0-16-7-16-16v-96c0-9 7-16 16-16h224c9 0 16 7 16 16zM384 656v96c0 9-7 16-16 16h-96c-9 0-16-7-16-16v-96c0-9 7-16 16-16h96c9 0 16 7 16 16zm1024 512v96c0 9-7 16-16 16H528c-9 0-16-7-16-16v-96c0-9 7-16 16-16h864c9 0 16 7 16 16zM768 912v96c0 9-7 16-16 16h-96c-9 0-16-7-16-16v-96c0-9 7-16 16-16h96c9 0 16 7 16 16zM640 656v96c0 9-7 16-16 16h-96c-9 0-16-7-16-16v-96c0-9 7-16 16-16h96c9 0 16 7 16 16zm384 256v96c0 9-7 16-16 16h-96c-9 0-16-7-16-16v-96c0-9 7-16 16-16h96c9 0 16 7 16 16zM896 656v96c0 9-7 16-16 16h-96c-9 0-16-7-16-16v-96c0-9 7-16 16-16h96c9 0 16 7 16 16zm384 256v96c0 9-7 16-16 16h-96c-9 0-16-7-16-16v-96c0-9 7-16 16-16h96c9 0 16 7 16 16zm384 256v96c0 9-7 16-16 16h-96c-9 0-16-7-16-16v-96c0-9 7-16 16-16h96c9 0 16 7 16 16zm-512-512v96c0 9-7 16-16 16h-96c-9 0-16-7-16-16v-96c0-9 7-16 16-16h96c9 0 16 7 16 16zm256 0v96c0 9-7 16-16 16h-96c-9 0-16-7-16-16v-96c0-9 7-16 16-16h96c9 0 16 7 16 16zm256 0v352c0 9-7 16-16 16h-224c-9 0-16-7-16-16v-96c0-9 7-16 16-16h112V656c0-9 7-16 16-16h96c9 0 16 7 16 16zm128 752V512H128v896h1664zm128-896v896c0 71-57 128-128 128H128c-71 0-128-57-128-128V512c0-71 57-128 128-128h1664c71 0 128 57 128 128z"/>
</svg>
