<svg xmlns="http://www.w3.org/2000/svg" width="1536" height="1792" viewBox="0 0 1536 1792">
    <path d="M146.015 1615.959c-13.103-28.389-30.573-67.696-39.308-87.35l-13.102-37.123-43.674 48.042-43.675 48.042-4.367-91.716c-6.552-131.024 4.367-266.415 26.204-362.5 50.227-214.004 207.454-408.355 410.54-510.99l45.86-21.837-10.92-32.756c-6.55-17.47-13.102-54.594-15.286-78.615l-4.367-45.858-45.858-4.367c-69.88-6.551-107.003-26.205-131.024-76.43-13.102-26.205-13.102-30.573-8.735-100.452 4.368-91.717 10.919-111.37 39.307-141.942 34.94-39.307 58.96-45.859 146.31-41.491 63.328 4.367 76.43 6.551 104.819 19.653 17.47 8.735 32.756 17.47 34.94 17.47 2.183 0 21.837-24.02 45.858-56.777l41.49-58.96 26.205 15.286c15.286 8.735 32.756 19.653 41.491 24.02l15.286 8.736L750.907 80.8c-6.551 17.47-15.286 48.041-17.47 63.328L729.07 174.7l37.123 4.367c133.207 13.103 233.659 93.9 270.782 216.19 10.919 39.306 10.919 115.737 0 152.86-10.919 34.94-10.919 37.123-2.184 37.123 15.286 0 117.922 50.226 159.412 76.43 80.798 52.41 174.699 144.127 227.108 222.741 98.268 146.31 139.759 305.722 122.289 480.42-8.735 104.819-28.389 187.8-63.328 268.598l-13.103 30.573h-109.186l26.205-52.41c28.388-56.777 50.225-135.39 61.144-205.27 6.551-48.042 8.735-179.066 2.184-203.087l-4.368-15.286-28.388 30.572c-69.88 76.43-172.515 98.268-310.09 61.145-117.92-30.573-165.963-37.124-277.333-37.124-85.165 0-113.553 2.184-159.412 13.103-126.656 28.388-216.189 69.879-340.661 159.412-45.858 32.756-82.982 58.96-85.166 58.96-2.183 0 4.368-21.837 13.103-50.225 8.735-28.389 24.02-74.247 32.756-104.82l17.47-54.592-19.654 19.653c-10.919 10.919-41.49 41.49-67.696 69.88l-45.858 50.225 10.919 41.49c13.102 54.594 43.674 122.29 76.43 172.515 13.103 21.838 24.021 39.307 24.021 41.491 0 2.184-26.204 2.184-56.777 2.184h-56.776zm192.167-528.462c104.82-111.37 189.985-200.903 192.168-200.903 2.184 2.183-8.734 34.94-19.653 72.063-72.063 227.107-87.35 270.782-85.165 272.966 0 0 26.204-8.735 54.593-19.654 185.617-80.798 401.806-91.716 631.097-30.572 102.635 26.205 141.942 26.205 192.168 0 28.388-15.286 39.307-24.021 52.41-45.858 24.02-37.124 26.204-89.533 10.918-137.575-37.123-104.82-181.25-240.21-316.64-299.17-69.88-30.573-74.247-30.573-89.533-15.287l-13.103 13.103 56.777 69.879c30.572 37.123 63.328 78.614 67.696 89.533 13.102 26.204 15.286 67.695 2.183 93.9-17.47 37.123-69.879 63.328-111.37 54.593-17.47-4.367-24.02-2.184-41.49 10.919-48.042 34.94-100.452 26.204-144.126-26.205-34.94-39.307-43.675-58.96-45.859-98.268 0-19.653-6.55-43.674-10.918-52.41-6.551-13.102-8.735-28.388-8.735-48.041l2.184-30.572-28.389-6.552c-39.307-10.918-85.165-32.755-111.37-52.409-13.102-8.735-24.021-17.47-28.388-17.47-4.368 0-32.756 13.103-63.329 28.389-211.821 109.186-349.396 312.273-371.233 541.564-2.184 21.837-4.368 50.226-6.551 61.144l-2.184 19.654 24.021-24.021c10.919-10.919 107.003-111.37 211.821-222.74zM903.768 925.9c19.653-15.286 37.123-28.389 41.49-28.389 2.184 0 8.735 6.552 15.287 15.286 10.918 17.47 30.572 17.47 39.307 2.184 6.55-10.918 6.55-13.102-122.289-170.33-76.43-93.9-91.716-109.187-102.635-109.187-26.205 2.184-19.654 21.837 21.837 72.063l39.307 48.042-21.837 17.47c-24.021 21.837-26.205 26.205-10.919 39.307 10.919 10.919 13.103 8.735 34.94-6.551l24.021-15.286 15.286 13.102c8.735 6.551 13.102 17.47 13.102 19.654 0 4.367-17.47 19.653-37.123 37.123-19.653 15.286-34.94 32.756-34.94 37.123 0 6.552 10.92 24.021 30.573 48.042 6.55 13.103 17.47 8.735 54.593-19.653zM678.844 615.81c13.102-39.306 56.777-69.879 100.451-69.879 24.021 0 58.961 19.654 82.982 45.859l21.837 26.204 19.654-24.02c54.593-61.145 61.144-146.31 17.47-220.557-32.756-54.593-93.9-87.35-179.066-96.084-45.858-4.368-56.777-8.735-80.798-32.756l-17.47-17.47-8.735 13.103c-17.47 26.204-54.593 111.37-65.511 144.126-15.287 50.225-8.735 128.84 10.918 168.147 19.654 37.123 72.063 87.349 87.35 80.797 2.183 2.184 6.55-6.55 10.918-17.47zM484.492 318.826c4.368-10.919 15.286-39.307 26.205-61.145 10.919-21.837 19.653-43.674 19.653-50.225 0-19.654-21.837-28.389-80.797-32.756-52.41-4.368-56.777-2.184-67.696 8.735-8.735 8.735-13.102 19.653-13.102 34.94 0 13.102-2.184 37.123-4.368 56.776-4.367 45.858 2.184 54.593 48.042 61.145 67.696 4.367 65.512 4.367 72.063-17.47zm-67.695-52.41c0-37.123 4.367-41.49 34.94-41.49h28.388v61.144H418.98v-19.654zM554.37 1539.528c-13.102-13.102-17.47-21.837-17.47-43.674 0-41.491 24.022-65.512 63.329-65.512 37.123 0 63.328 26.205 63.328 63.328 0 39.307-24.021 61.144-65.512 63.328-21.837 0-30.572-4.367-43.675-17.47zm421.46 6.551c-50.226-39.307-24.021-115.737 39.307-115.737 39.307 0 61.144 24.02 63.328 65.512 0 24.02-2.184 30.572-17.47 43.674-15.286 13.103-21.837 17.47-43.674 17.47-19.654 0-32.756-4.367-41.491-10.919z" fill="#999"/>
</svg>
