<svg xmlns="http://www.w3.org/2000/svg" width="1536" height="1792" viewBox="0 0 1536.0001 1792" id="svg5504">
    <defs id="defs5506">
        <clipPath id="a">
            <path id="path3718" d="M0 195.911h208.792V0H0z"/>
        </clipPath>
    </defs>
    <style id="style76">
        .st0{fill:#999}
    </style>
    <g id="g80" transform="translate(-5265.261 -8250.12) scale(21.83727)">
        <path id="path78" d="M247.8 451.8c-.6-1.3-1.4-3.1-1.8-4l-.6-1.7-2 2.2-2 2.2-.2-4.2c-.3-6 .2-12.2 1.2-16.6 2.3-9.8 9.5-18.7 18.8-23.4l2.1-1-.5-1.5c-.3-.8-.6-2.5-.7-3.6l-.2-2.1-2.1-.2c-3.2-.3-4.9-1.2-6-3.5-.6-1.2-.6-1.4-.4-4.6.2-4.2.5-5.1 1.8-6.5 1.6-1.8 2.7-2.1 6.7-1.9 2.9.2 3.5.3 4.8.9.8.4 1.5.8 1.6.8.1 0 1-1.1 2.1-2.6l1.9-2.7 1.2.7c.7.4 1.5.9 1.9 1.1l.7.4-.6 1.5c-.3.8-.7 2.2-.8 2.9l-.2 1.4 1.7.2c6.1.6 10.7 4.3 12.4 9.9.5 1.8.5 5.3 0 7-.5 1.6-.5 1.7-.1 1.7.7 0 5.4 2.3 7.3 3.5 3.7 2.4 8 6.6 10.4 10.2 4.5 6.7 6.4 14 5.6 22-.4 4.8-1.3 8.6-2.9 12.3l-.6 1.4h-5l1.2-2.4c1.3-2.6 2.3-6.2 2.8-9.4.3-2.2.4-8.2.1-9.3l-.2-.7-1.3 1.4c-3.2 3.5-7.9 4.5-14.2 2.8-5.4-1.4-7.6-1.7-12.7-1.7-3.9 0-5.2.1-7.3.6-5.8 1.3-9.9 3.2-15.6 7.3-2.1 1.5-3.8 2.7-3.9 2.7-.1 0 .2-1 .6-2.3.4-1.3 1.1-3.4 1.5-4.8l.8-2.5-.9.9c-.5.5-1.9 1.9-3.1 3.2l-2.1 2.3.5 1.9c.6 2.5 2 5.6 3.5 7.9.6 1 1.1 1.8 1.1 1.9 0 .1-1.2.1-2.6.1h-2.6zm8.8-24.2c4.8-5.1 8.7-9.2 8.8-9.2.1.1-.4 1.6-.9 3.3-3.3 10.4-4 12.4-3.9 12.5 0 0 1.2-.4 2.5-.9 8.5-3.7 18.4-4.2 28.9-1.4 4.7 1.2 6.5 1.2 8.8 0 1.3-.7 1.8-1.1 2.4-2.1 1.1-1.7 1.2-4.1.5-6.3-1.7-4.8-8.3-11-14.5-13.7-3.2-1.4-3.4-1.4-4.1-.7l-.6.6 2.6 3.2c1.4 1.7 2.9 3.6 3.1 4.1.6 1.2.7 3.1.1 4.3-.8 1.7-3.2 2.9-5.1 2.5-.8-.2-1.1-.1-1.9.5-2.2 1.6-4.6 1.2-6.6-1.2-1.6-1.8-2-2.7-2.1-4.5 0-.9-.3-2-.5-2.4-.3-.6-.4-1.3-.4-2.2l.1-1.4-1.3-.3c-1.8-.5-3.9-1.5-5.1-2.4-.6-.4-1.1-.8-1.3-.8-.2 0-1.5.6-2.9 1.3-9.7 5-16 14.3-17 24.8-.1 1-.2 2.3-.3 2.8l-.1.9 1.1-1.1c.5-.5 4.9-5.1 9.7-10.2zm25.9-7.4c.9-.7 1.7-1.3 1.9-1.3.1 0 .4.3.7.7.5.8 1.4.8 1.8.1.3-.5.3-.6-5.6-7.8-3.5-4.3-4.2-5-4.7-5-1.2.1-.9 1 1 3.3l1.8 2.2-1 .8c-1.1 1-1.2 1.2-.5 1.8.5.5.6.4 1.6-.3l1.1-.7.7.6c.4.3.6.8.6.9 0 .2-.8.9-1.7 1.7-.9.7-1.6 1.5-1.6 1.7 0 .3.5 1.1 1.4 2.2.3.6.8.4 2.5-.9zM272.2 406c.6-1.8 2.6-3.2 4.6-3.2 1.1 0 2.7.9 3.8 2.1l1 1.2.9-1.1c2.5-2.8 2.8-6.7.8-10.1-1.5-2.5-4.3-4-8.2-4.4-2.1-.2-2.6-.4-3.7-1.5l-.8-.8-.4.6c-.8 1.2-2.5 5.1-3 6.6-.7 2.3-.4 5.9.5 7.7.9 1.7 3.3 4 4 3.7.1.1.3-.3.5-.8zm-8.9-13.6c.2-.5.7-1.8 1.2-2.8.5-1 .9-2 .9-2.3 0-.9-1-1.3-3.7-1.5-2.4-.2-2.6-.1-3.1.4-.4.4-.6.9-.6 1.6 0 .6-.1 1.7-.2 2.6-.2 2.1.1 2.5 2.2 2.8 3.1.2 3 .2 3.3-.8zm-3.1-2.4c0-1.7.2-1.9 1.6-1.9h1.3v2.8h-2.8v-.9zm6.3 58.3c-.6-.6-.8-1-.8-2 0-1.9 1.1-3 2.9-3 1.7 0 2.9 1.2 2.9 2.9 0 1.8-1.1 2.8-3 2.9-1 0-1.4-.2-2-.8zm19.3.3c-2.3-1.8-1.1-5.3 1.8-5.3 1.8 0 2.8 1.1 2.9 3 0 1.1-.1 1.4-.8 2-.7.6-1 .8-2 .8-.9 0-1.5-.2-1.9-.5z" class="st0"/>
    </g>
</svg>
