<?xml version="1.0" standalone="no"?>
<svg width="1536px" height="1536px" version="1.1" xmlns="http://www.w3.org/2000/svg">
    <path transform="scale(1, -1) translate(0, -1536)" glyph-name="keyboard_o" unicode="&#xf11c;" horiz-adv-x="1920" 

d="M384 368v-96c0 -9 -7 -16 -16 -16h-96c-9 0 -16 7 -16 16v96c0 9 7 16 16 16h96c9 0 16 -7 16 -16zM512 624v-96c0 -9 -7 -16 -16 -16h-224c-9 0 -16 7 -16 16v96c0 9 7 16 16 16h224c9 0 16 -7 16 -16zM384 880v-96c0 -9 -7 -16 -16 -16h-96c-9 0 -16 7 -16 16v96
c0 9 7 16 16 16h96c9 0 16 -7 16 -16zM1408 368v-96c0 -9 -7 -16 -16 -16h-864c-9 0 -16 7 -16 16v96c0 9 7 16 16 16h864c9 0 16 -7 16 -16zM768 624v-96c0 -9 -7 -16 -16 -16h-96c-9 0 -16 7 -16 16v96c0 9 7 16 16 16h96c9 0 16 -7 16 -16zM640 880v-96
c0 -9 -7 -16 -16 -16h-96c-9 0 -16 7 -16 16v96c0 9 7 16 16 16h96c9 0 16 -7 16 -16zM1024 624v-96c0 -9 -7 -16 -16 -16h-96c-9 0 -16 7 -16 16v96c0 9 7 16 16 16h96c9 0 16 -7 16 -16zM896 880v-96c0 -9 -7 -16 -16 -16h-96c-9 0 -16 7 -16 16v96c0 9 7 16 16 16h96
c9 0 16 -7 16 -16zM1280 624v-96c0 -9 -7 -16 -16 -16h-96c-9 0 -16 7 -16 16v96c0 9 7 16 16 16h96c9 0 16 -7 16 -16zM1664 368v-96c0 -9 -7 -16 -16 -16h-96c-9 0 -16 7 -16 16v96c0 9 7 16 16 16h96c9 0 16 -7 16 -16zM1152 880v-96c0 -9 -7 -16 -16 -16h-96
c-9 0 -16 7 -16 16v96c0 9 7 16 16 16h96c9 0 16 -7 16 -16zM1408 880v-96c0 -9 -7 -16 -16 -16h-96c-9 0 -16 7 -16 16v96c0 9 7 16 16 16h96c9 0 16 -7 16 -16zM1664 880v-352c0 -9 -7 -16 -16 -16h-224c-9 0 -16 7 -16 16v96c0 9 7 16 16 16h112v240c0 9 7 16 16 16h96
c9 0 16 -7 16 -16zM1792 128v896h-1664v-896h1664zM1920 1024v-896c0 -71 -57 -128 -128 -128h-1664c-71 0 -128 57 -128 128v896c0 71 57 128 128 128h1664c71 0 128 -57 128 -128z" />
</svg>