<?xml version="1.0" standalone="no"?>
<svg width="1536px" height="1536px" version="1.1" xmlns="http://www.w3.org/2000/svg">
    <path transform="scale(1, -1) translate(0, -1536)" glyph-name="krw" unicode="&#xf159;" horiz-adv-x="1792" 

d="M514 341l81 299h-159l75 -300c1 -2 1 -4 2 -6c0 2 1 5 1 7zM630 768l35 128h-292l32 -128h225zM822 768h139l-35 128h-70zM1271 340l78 300h-162l81 -299c1 -3 1 -5 2 -7c0 2 1 4 1 6zM1382 768l33 128h-297l34 -128h230zM1792 736v-64c0 -18 -14 -32 -32 -32h-213
l-164 -616c-4 -14 -17 -24 -31 -24h-159c-14 0 -27 10 -31 24l-166 616h-209l-167 -616c-4 -14 -16 -24 -31 -24h-159c-14 0 -27 10 -30 24l-160 616h-208c-18 0 -32 14 -32 32v64c0 18 14 32 32 32h175l-33 128h-142c-18 0 -32 14 -32 32v64c0 18 14 32 32 32h109l-89 344
c-3 10 -1 20 5 28c6 7 16 12 26 12h137c15 0 28 -10 31 -24l90 -360h359l97 360c4 14 17 24 31 24h126c15 0 27 -10 31 -24l98 -360h365l93 360c3 14 16 24 31 24h137c10 0 20 -5 26 -12c6 -8 8 -19 5 -28l-91 -344h111c18 0 32 -14 32 -32v-64c0 -18 -14 -32 -32 -32h-145
l-34 -128h179c18 0 32 -14 32 -32z" />
</svg>