<svg width="1536" height="1536" xmlns="http://www.w3.org/2000/svg">
    <path d="M514 1195l81-299H436l75 300c1 2 1 4 2 6 0-2 1-5 1-7zm116-427l35-128H373l32 128h225zm192 0h139l-35-128h-70zm449 428l78-300h-162l81 299c1 3 1 5 2 7 0-2 1-4 1-6zm111-428l33-128h-297l34 128h230zm410 32v64c0 18-14 32-32 32h-213l-164 616c-4 14-17 24-31 24h-159c-14 0-27-10-31-24L996 896H787l-167 616c-4 14-16 24-31 24H430c-14 0-27-10-30-24L240 896H32c-18 0-32-14-32-32v-64c0-18 14-32 32-32h175l-33-128H32c-18 0-32-14-32-32v-64c0-18 14-32 32-32h109L52 168c-3-10-1-20 5-28 6-7 16-12 26-12h137c15 0 28 10 31 24l90 360h359l97-360c4-14 17-24 31-24h126c15 0 27 10 31 24l98 360h365l93-360c3-14 16-24 31-24h137c10 0 20 5 26 12 6 8 8 19 5 28l-91 344h111c18 0 32 14 32 32v64c0 18-14 32-32 32h-145l-34 128h179c18 0 32 14 32 32z"/>
</svg>
