<svg width="1536" height="1536" xmlns="http://www.w3.org/2000/svg">
    <path d="M654 1078c-2 7-51-16-64-21-13-6-72-39-87-49s-72-57-79-60c-36 55-82 120-134 181-18 21-72 89-105 110-5 3-34 6-38 4 16-12 62-69 82-92 25-29 144-195 164-233 21-38 84-164 87-176-10-1-89 26-110 33-20 6-75 19-79 22-4 4-1 16-3 20s-20 13-31 15c-10 3-33 4-47 0-13-3-25-16-28-21 0 0-4-6-5-23 12-4 32-5 54-11s76-22 105-32 85-31 102-35c18-3 63-33 87-41s41-18 42-13 0 27-1 33c-1 5-49 99-56 114-4 8-32 61-77 131 16 7 50 21 64 28 17 8 136 58 142 60s17 48 15 56zM449 592c3 17-2 24-4 28-10 19-35 32-50 38s-40 12-60 12c-9-1-27-4-49-26-12-13-21-48-17-44s33 8 46 5 44-12 58-16c15-5 45-13 55-14 10 0 18 4 21 17zm698 129l63 227-139-42zM39 1521l694-232V257L39 490v1031zm1241-317l102 31-181-657-100-31-216 536 102 31 45-110 211 65zM777 242l573 184V46zm311 1323l158 13-54 160-40-66c-81 52-181 92-276 108-29 6-62 12-91 12h-84c-106 0-299-63-383-124-6-5-8-9-8-16 0-11 8-19 18-19 9 0 56 29 69 35 90 45 216 86 317 86 125 0 210-16 324-65 33-15 62-34 93-51zm448-1079v1079c-773-246-774-246-774-246-16 7-733 249-743 249-8 0-15-5-18-13 0-1-1-2-1-3V474c1-3 2-8 4-10 6-7 14-9 20-11 3-1 64-21 149-50V19l558 198c7-2 629-217 638-217 11 0 20 8 20 21v418z"/>
</svg>
