<?xml version="1.0" standalone="no"?>
<svg width="1536px" height="1536px" version="1.1" xmlns="http://www.w3.org/2000/svg">
    <path transform="scale(1, -1) translate(0, -1536)" glyph-name="language" unicode="&#xf1ab;" 

d="M654 458c-2 -7 -51 16 -64 21c-13 6 -72 39 -87 49s-72 57 -79 60v0c-36 -55 -82 -120 -134 -181c-18 -21 -72 -89 -105 -110c-5 -3 -34 -6 -38 -4c16 12 62 69 82 92c25 29 144 195 164 233c21 38 84 164 87 176c-10 1 -89 -26 -110 -33c-20 -6 -75 -19 -79 -22
c-4 -4 -1 -16 -3 -20s-20 -13 -31 -15c-10 -3 -33 -4 -47 0c-13 3 -25 16 -28 21c0 0 -4 6 -5 23c12 4 32 5 54 11s76 22 105 32s85 31 102 35c18 3 63 33 87 41s41 18 42 13s0 -27 -1 -33c-1 -5 -49 -99 -56 -114c-4 -8 -32 -61 -77 -131c16 -7 50 -21 64 -28
c17 -8 136 -58 142 -60s17 -48 15 -56zM449 944c3 -17 -2 -24 -4 -28c-10 -19 -35 -32 -50 -38s-40 -12 -60 -12c-9 1 -27 4 -49 26c-12 13 -21 48 -17 44s33 -8 46 -5s44 12 58 16c15 5 45 13 55 14c10 0 18 -4 21 -17zM1147 815l63 -227l-139 42zM39 15l694 232v1032
l-694 -233v-1031zM1280 332l102 -31l-181 657l-100 31l-216 -536l102 -31l45 110l211 -65zM777 1294l573 -184v380zM1088 -29l158 -13l-54 -160l-40 66c-81 -52 -181 -92 -276 -108c-29 -6 -62 -12 -91 -12h-84c-106 0 -299 63 -383 124c-6 5 -8 9 -8 16c0 11 8 19 18 19
c9 0 56 -29 69 -35c90 -45 216 -86 317 -86c125 0 210 16 324 65c33 15 62 34 93 51zM1536 1050v-1079c-773 246 -774 246 -774 246c-16 -7 -733 -249 -743 -249c-8 0 -15 5 -18 13c0 1 -1 2 -1 3v1078c1 3 2 8 4 10c6 7 14 9 20 11c3 1 64 21 149 50v384l558 -198
c7 2 629 217 638 217c11 0 20 -8 20 -21v-418z" />
</svg>