<?xml version="1.0" standalone="no"?>
<svg width="1536px" height="1536px" version="1.1" xmlns="http://www.w3.org/2000/svg">
    <path transform="scale(1, -1) translate(0, -1536)" glyph-name="laptop" unicode="&#xf109;" horiz-adv-x="1920" 

d="M416 256c-88 0 -160 72 -160 160v704c0 88 72 160 160 160h1088c88 0 160 -72 160 -160v-704c0 -88 -72 -160 -160 -160h-1088zM384 1120v-704c0 -17 15 -32 32 -32h1088c17 0 32 15 32 32v704c0 17 -15 32 -32 32h-1088c-17 0 -32 -15 -32 -32zM1760 192h160v-96
c0 -53 -72 -96 -160 -96h-1600c-88 0 -160 43 -160 96v96h160h1600zM1040 96c9 0 16 7 16 16s-7 16 -16 16h-160c-9 0 -16 -7 -16 -16s7 -16 16 -16h160z" />
</svg>