<svg width="1536" height="1536" xmlns="http://www.w3.org/2000/svg">
    <path d="M1292 704c0 6 8 34 10 41 27 82 90 99 165 120 167 47 325 136 325 332 0 199-166 339-360 339-322 0-422-394-515-634-77-198-158-314-381-314-198 0-372 190-372 385 0 207 155 399 370 399 95 0 194-20 258-95 31-35 61-73 83-116l84 152c-11 25-27 49-44 70l1 1c-101 117-239 152-388 152-302 0-528-267-528-561 0-285 248-550 536-550 478 0 502 414 664 747 44 92 119 200 233 200 104 0 196-67 196-177 0-238-437-76-499-467-2-11-3-22-3-33 0-148 139-275 286-270 88 3 141 6 211 68h-1c27 25 47 59 68 88l-129 99c-15-28-29-51-54-70v-1c-24-22-67-21-97-21-65 0-119 49-119 116z"/>
</svg>
