<svg width="1536" height="1536" xmlns="http://www.w3.org/2000/svg">
    <path d="M1432 1052c0-141-114-205-234-239-55-15-100-28-120-88-1-5-6-24-6-28 0-48 38-83 85-83 22 0 53-1 71 15h-1c19 14 28 30 39 51l93-71c-15-21-30-46-49-64-47-42-91-49-153-49-105 0-204 86-204 195 0 8 1 15 2 23 22 136 91 178 213 213 60 17 145 44 146 118v5c1 80-66 128-141 128-82 0-135-78-167-144-116-239-134-538-478-538-207 0-393 191-386 396v1c7 214 154 403 380 403 107 0 207-25 279-110 12-16 23-33 31-51l-60-109c-56 106-125 152-245 152-158 0-267-140-267-291 0-139 128-273 268-273 160 0 218 83 274 226 67 172 139 456 371 456 139 0 259-101 259-244zm104-636v960c0 159-129 288-288 288H288c-159 0-288-129-288-288V416c0-159 129-288 288-288h960c159 0 288 129 288 288z"/>
</svg>
