<?xml version="1.0" standalone="no"?>
<svg width="1536px" height="1536px" version="1.1" xmlns="http://www.w3.org/2000/svg">
    <path transform="scale(1, -1) translate(0, -1536)" glyph-name="lastfm" unicode="&#xf202;" horiz-adv-x="1792" 

d="M1292 832c0 -6 8 -34 10 -41c27 -82 90 -99 165 -120c167 -47 325 -136 325 -332c0 -199 -166 -339 -360 -339c-322 0 -422 394 -515 634c-77 198 -158 314 -381 314c-198 0 -372 -190 -372 -385c0 -207 155 -399 370 -399c95 0 194 20 258 95v0c31 35 61 73 83 116
l84 -152c-11 -25 -27 -49 -44 -70l1 -1c-101 -117 -239 -152 -388 -152c-302 0 -528 267 -528 561c0 285 248 550 536 550c478 0 502 -414 664 -747c44 -92 119 -200 233 -200c104 0 196 67 196 177c0 238 -437 76 -499 467c-2 11 -3 22 -3 33c0 148 139 275 286 270
c88 -3 141 -6 211 -68h-1c27 -25 47 -59 68 -88l-129 -99c-15 28 -29 51 -54 70v1c-24 22 -67 21 -97 21c-65 0 -119 -49 -119 -116z" />
</svg>