<?xml version="1.0" standalone="no"?>
<svg width="1536px" height="1536px" version="1.1" xmlns="http://www.w3.org/2000/svg">
    <path transform="scale(1, -1) translate(0, -1536)" glyph-name="lastfm_square" unicode="&#xf203;" 

d="M1432 484c0 141 -114 205 -234 239c-55 15 -100 28 -120 88c-1 5 -6 24 -6 28c0 48 38 83 85 83c22 0 53 1 71 -15h-1c19 -14 28 -30 39 -51l93 71c-15 21 -30 46 -49 64v0c-47 42 -91 49 -153 49c-105 0 -204 -86 -204 -195c0 -8 1 -15 2 -23c22 -136 91 -178 213 -213
c60 -17 145 -44 146 -118v-5c1 -80 -66 -128 -141 -128c-82 0 -135 78 -167 144c-116 239 -134 538 -478 538c-207 0 -393 -191 -386 -396v-1c7 -214 154 -403 380 -403c107 0 207 25 279 110v0c12 16 23 33 31 51l-60 109c-56 -106 -125 -152 -245 -152
c-158 0 -267 140 -267 291c0 139 128 273 268 273c160 0 218 -83 274 -226c67 -172 139 -456 371 -456c139 0 259 101 259 244zM1536 1120v-960c0 -159 -129 -288 -288 -288h-960c-159 0 -288 129 -288 288v960c0 159 129 288 288 288h960c159 0 288 -129 288 -288z" />
</svg>