<?xml version="1.0" standalone="no"?>
<svg width="1536px" height="1536px" version="1.1" xmlns="http://www.w3.org/2000/svg">
    <path transform="scale(1, -1) translate(0, -1536)" glyph-name="leaf" unicode="&#xf06c;" horiz-adv-x="1792" 

d="M1280 832c0 35 -29 64 -64 64c-354 0 -582 -148 -813 -403c-12 -13 -19 -27 -19 -45c0 -35 29 -64 64 -64c18 0 32 7 45 19c49 44 93 92 141 137c181 163 336 228 582 228c35 0 64 29 64 64zM1792 1030c0 -64 -7 -129 -20 -193c-64 -311 -264 -513 -542 -651
c-135 -68 -286 -108 -438 -108c-96 0 -195 16 -286 47c-48 16 -144 79 -184 79c-50 0 -110 -204 -197 -204c-63 0 -82 31 -109 77c-9 17 -16 23 -16 44c0 104 198 185 198 243c0 9 -26 62 -30 82c-6 34 -9 69 -9 104c0 318 253 545 537 639c205 68 641 -11 780 121
c55 51 82 98 166 98c113 0 150 -293 150 -378z" />
</svg>