<?xml version="1.0" standalone="no"?>
<svg width="1536px" height="1536px" version="1.1" xmlns="http://www.w3.org/2000/svg">
    <path transform="scale(1, -1) translate(0, -1536)" glyph-name="leanpub" unicode="&#xf212;" horiz-adv-x="2048" 

d="M1893 1144l155 -1272c-93 0 -173 19 -257 57c-125 57 -255 91 -393 91c-142 0 -273 -47 -374 -148c-101 101 -232 148 -374 148c-138 0 -268 -34 -393 -91c-81 -36 -163 -57 -252 -57h-5l155 1272c143 81 317 127 482 127c135 0 274 -28 387 -106c113 78 252 106 387 106
c165 0 339 -46 482 -127zM1398 157c190 0 320 -51 492 -122l-124 1021c-112 51 -245 78 -368 78c-140 0 -271 -44 -374 -141c-103 97 -234 141 -374 141c-123 0 -256 -27 -368 -78l-124 -1021c172 71 302 122 492 122c137 0 258 -35 374 -108c116 73 237 108 374 108z
M1438 191l-55 907c-144 -3 -258 -52 -359 -155c-105 107 -224 155 -374 155c-112 0 -232 -23 -336 -66l-114 -941c151 62 284 101 450 101c132 0 261 -32 374 -102c113 70 242 105 374 102z" />
</svg>