<svg width="1536" height="1536" xmlns="http://www.w3.org/2000/svg">
    <path d="M1893 392l155 1272c-93 0-173-19-257-57-125-57-255-91-393-91-142 0-273 47-374 148-101-101-232-148-374-148-138 0-268 34-393 91-81 36-163 57-252 57H0L155 392c143-81 317-127 482-127 135 0 274 28 387 106 113-78 252-106 387-106 165 0 339 46 482 127zm-495 987c190 0 320 51 492 122L1766 480c-112-51-245-78-368-78-140 0-271 44-374 141-103-97-234-141-374-141-123 0-256 27-368 78L158 1501c172-71 302-122 492-122 137 0 258 35 374 108 116-73 237-108 374-108zm40-34l-55-907c-144 3-258 52-359 155-105-107-224-155-374-155-112 0-232 23-336 66l-114 941c151-62 284-101 450-101 132 0 261 32 374 102 113-70 242-105 374-102z"/>
</svg>
