<svg width="1536" height="1792" viewBox="0 0 1536 1792" xmlns="http://www.w3.org/2000/svg">
    <path d="m 203.04492,391.89453 c -27.97497,0.49112 -56.03536,6.03874 -81.76367,17.45117 -30.451876,13.40622 -57.323664,34.7889 -77.132812,61.54297 -14.120477,18.97442 -24.992511,40.2417 -32.654297,62.52735 a 3.9393938,3.9393938 0 0 0 -0.002,0.01 C 1.9148,561.5336 -1.9801115,591.6788 0.9608905,621.33422 3.486231,647.5493 11.235857,673.14583 23.183547,696.53735 c 0.0011,0.002 0.0028,0.004 0.0039,0.006 9.31e-4,0.002 9.53e-4,0.004 0.002,0.006 13.689937,27.00553 32.583801,51.10632 54.439453,71.80469 0,0 0.002,0.002 0.002,0.002 0.0013,10e-4 0.0026,0.003 0.0039,0.004 14.396603,13.68892 30.05508,26.03772 46.66796,36.9082 a 3.9393938,3.9393938 0 0 0 0.12305,0.0762 c 37.86726,22.83348 78.66394,41.24125 121.60352,52.55469 3.39853,0.89497 6.82829,1.71604 10.25976,2.52929 -0.67107,22.80275 -0.0804,45.69572 2.44141,68.44336 a 3.9393938,3.9393938 0 0 0 0.004,0.0215 c 4.85374,41.70514 17.40333,82.33772 35.86523,119.92582 4.73885,9.6771 9.91877,19.1308 15.38281,28.414 -35.45363,14.4779 -70.92639,28.9204 -106.35351,43.4922 a 3.9393938,3.9393938 0 0 0 -0.1543,0.066 c -14.33185,6.6188 -24.42477,21.0355 -25.58984,36.8184 -1.20124,14.1011 4.56755,28.4713 15.43359,37.6543 10.83033,9.3221 26.07248,13.136 40.02148,9.4551 6.46733,-1.6705 12.10201,-4.5208 17.55664,-6.625 a 3.9393938,3.9393938 0 0 0 0.0723,-0.029 c 37.7997,-15.4326 75.59874,-30.8663 113.39844,-46.2989 21.04705,23.8027 44.18941,45.7032 68.90625,65.625 -23.5043,31.1275 -47.03978,62.2363 -70.47656,93.4278 a 3.9393938,3.9393938 0 0 0 -0.0899,0.125 c -9.06663,13.1036 -10.36866,30.8589 -3.13476,45.1054 6.42575,13.0651 19.33608,22.5475 33.85546,24.4532 13.82796,1.9561 28.39166,-2.7579 38.14649,-12.9551 3.67788,-3.7686 6.58219,-8.0076 9.33594,-11.6641 h 0.002 0.004 c 16.25021,-21.4635 32.44556,-42.9613 48.66992,-64.4316 a 3.9393938,3.9393938 0 0 0 0.002,0 c 5.78958,-7.6676 11.57759,-15.3345 17.36719,-23.002 38.49723,22.8915 79.37571,41.8595 121.97851,55.8242 16.71733,27.5407 42.16662,49.5285 71.74024,62.2168 39.34241,17.0117 85.19891,18.2699 125.30859,2.9668 25.25588,-9.5414 47.98495,-25.5159 65.5625,-45.9961 h 0.002 c 5.53926,-6.4436 10.52059,-13.3644 14.95312,-20.625 42.06362,-14.1311 82.42861,-33.0858 120.47457,-55.8418 24.6601,32.6478 49.2908,65.3221 74.0391,97.9161 a 3.9393938,3.9393938 0 0 0 0.1093,0.1386 c 10.2006,12.2533 26.9688,18.2638 42.6407,15.1035 13.7052,-2.5959 25.872,-11.7634 31.8867,-24.4414 6.2853,-12.8936 5.978,-28.6276 -1.1231,-41.1836 -3.1225,-5.5452 -7.1232,-10.0033 -10.3593,-14.4687 a 3.9393938,3.9393938 0 0 0 -0.045,-0.061 c -21.2039,-28.0781 -42.4073,-56.1582 -63.6113,-84.2363 23.6161,-19.1161 45.8363,-39.9855 66.1699,-62.6035 41.1755,16.8011 82.3381,33.6466 123.5586,50.3613 a 3.9393938,3.9393938 0 0 0 0.1563,0.059 c 15.003,5.3536 32.4795,2.0107 44.3652,-8.6601 10.4801,-9.2016 16.3064,-23.2739 15.0508,-37.252 -1.1208,-14.0487 -9.1029,-27.2353 -21.252,-34.5273 0,0 3e-4,-9e-4 -0.01,0 -5.6176,-3.4016 -11.5136,-5.2253 -16.6953,-7.4532 a 3.9393938,3.9393938 0 0 0 -0.068,-0.025 c -29.9504,-12.2266 -59.8992,-24.453 -89.8496,-36.6797 21.1992,-35.0085 37.6307,-73.0599 47.2227,-112.97269 v -0.002 c 6.0315,-24.90433 9.1162,-50.42334 9.9648,-75.93945 0.3945,-9.93152 0.4668,-19.87554 0.293,-29.81446 39.7594,-9.48997 77.9385,-24.95552 113.5761,-44.74023 v -0.002 c 7.875,-4.36217 15.7953,-8.84997 23.4121,-13.97657 a 3.9393938,3.9393938 0 0 0 0.041,-0.0273 c 29.325,-20.2735 55.9718,-44.9414 76.7617,-74.21094 v -0.008 c 19.6509,-27.56369 33.7503,-59.41038 39.1699,-93.05664 v -0.01 c 5.563,-34.00868 2.1074,-69.26521 -9.1875,-101.71875 V 532.5 c -8.1117,-23.39998 -19.8682,-45.59523 -35.0723,-65.22461 a 3.9393938,3.9393938 0 0 0 -0.012,-0.0156 c -19.4094,-24.79671 -44.8718,-44.85107 -73.7187,-57.59766 -25.6374,-11.44589 -53.61,-17.21719 -81.5684,-17.70508 h -0.02 c -36.0438,-0.79622 -71.8652,6.46935 -105.4102,18.93555 -23.5121,8.75115 -46.1112,19.94238 -67.3301,33.32226 a 3.9393938,3.9393938 0 0 0 -0.031,0.0195 c -30.407,19.5699 -56.7153,44.84041 -79.3457,72.70312 a 3.9393938,3.9393938 0 0 0 0,0.004 c -0.7222,0.89184 -1.431,1.80066 -2.1465,2.70117 -41.7477,-21.80521 -86.7907,-36.70447 -132.6816,-46.36524 a 3.9393938,3.9393938 0 0 0 -0.002,0 c -59.54638,-12.51326 -120.53319,-16.60379 -181.14844,-15.49023 -52.0071,0.9167 -104.08758,5.47476 -155.26367,15.46484 a 3.9393938,3.9393938 0 0 0 -0.002,0 c -45.6543,8.94436 -90.66056,22.37313 -132.98828,42.13477 -5.64263,2.63184 -11.19861,5.43879 -16.72656,8.29883 -21.20121,-27.35885 -45.89265,-52.21288 -74.21484,-72.36914 a 3.9393938,3.9393938 0 0 0 -0.01,-0.008 c -18.47475,-13.05873 -38.48674,-23.66864 -59.00195,-32.77734 a 3.9393938,3.9393938 0 0 0 -0.0156,-0.006 C 293.35714,403.9888 257.78449,394.30974 221.42383,392.25977 a 3.9393938,3.9393938 0 0 0 -0.006,0 c -6.11559,-0.33518 -12.24097,-0.45333 -18.36133,-0.36524 a 3.9393938,3.9393938 0 0 0 -0.0117,0 z m 3.23047,83.06055 v 0.002 0.002 c 17.56257,-0.045 35.31168,2.68093 52.39453,7.40625 a 3.9393938,3.9393938 0 0 0 0.008,0.002 c 8.95527,2.4566 17.86125,5.49588 26.45899,8.92383 8.28398,3.31383 16.47595,7.06499 24.37305,11.12304 7.02347,3.62954 14.01697,7.48571 20.61914,11.72656 a 3.9393938,3.9393938 0 0 0 0.0117,0.008 c 3.20462,2.04222 6.32949,4.22534 9.44727,6.51562 a 3.9393938,3.9393938 0 0 0 0.004,0.002 c 2.71799,1.99124 5.38076,4.05938 8.01953,6.17773 15.52514,12.53542 29.53581,26.92269 42.1914,42.42187 -31.35197,25.43021 -58.38448,56.22886 -79.08593,90.9336 -19.65082,32.80073 -33.72757,68.77371 -42.4961,105.89062 v -0.006 c -0.86888,3.65431 -1.63015,7.33498 -2.39843,11.01368 -10.99911,-2.94377 -21.87132,-6.38721 -32.53711,-10.42188 l -0.0234,-0.008 c -1.82098,-0.70207 -3.7972,-1.45297 -5.60547,-2.18555 a 3.9393938,3.9393938 0 0 0 -0.0254,-0.01 c -16.97551,-6.73831 -33.41259,-14.87848 -49.37109,-23.89454 -6.1193,-3.49409 -12.10165,-6.9743 -17.52149,-11.02929 a 3.9393938,3.9393938 0 0 0 -0.0352,-0.0273 c -5.76689,-4.21339 -11.39183,-8.58706 -16.7832,-13.20312 v 0.002 c -2.08552,-1.78579 -4.27295,-3.72313 -6.37109,-5.64648 l -0.008,-0.008 c -2.78851,-2.57146 -5.68069,-5.35307 -8.38477,-8.12696 a 3.9393938,3.9393938 0 0 0 -0.006,-0.006 C 114.13723,687.19355 101.34796,669.55352 93.074219,649.90234 a 3.9393938,3.9393938 0 0 0 -0.0039,-0.006 c -4.535672,-10.72231 -7.690557,-22.0246 -9.189453,-33.53515 -0.2039,-1.56661 -0.403441,-3.35748 -0.546875,-5.00195 a 3.9393938,3.9393938 0 0 0 -0.002,-0.0215 c -0.151168,-1.62547 -0.257677,-3.51762 -0.34375,-5.12109 -0.136772,-3.50855 -0.141915,-7.01577 0.002,-10.51172 0.04936,-0.89411 0.100499,-1.99551 0.166016,-2.86133 a 3.9393938,3.9393938 0 0 0 0.002,-0.0293 c 0.334368,-4.90257 0.997416,-9.79507 1.933594,-14.64648 0.265038,-1.30876 0.569834,-2.8053 0.875,-4.10938 a 3.9393938,3.9393938 0 0 0 0.0039,-0.0156 c 2.442213,-10.63296 6.267646,-20.96706 11.101563,-30.82031 0.374145,-0.73425 0.84376,-1.692 1.164062,-2.31641 l 0.0039,-0.008 c 0.872399,-1.68871 1.750162,-3.35457 2.617184,-4.90821 a 3.9393938,3.9393938 0 0 0 0.01,-0.0176 c 6.07835,-11.02013 13.44298,-21.31068 22.375,-29.97461 a 3.9393938,3.9393938 0 0 0 0.008,-0.01 c 10.58632,-10.33914 23.46522,-18.33919 37.41016,-23.32226 a 3.9393938,3.9393938 0 0 0 0.0156,-0.006 c 1.94713,-0.70464 3.92271,-1.35509 5.91992,-1.96485 l 0.0293,-0.008 c 0.001,-4.2e-4 0.003,-0.002 0.004,-0.002 0.90403,-0.26718 2.01503,-0.60078 2.91211,-0.83985 a 3.9393938,3.9393938 0 0 0 0.0391,-0.0117 c 2.867,-0.79582 5.96392,-1.51737 8.80469,-2.08984 1.76797,-0.34461 3.38449,-0.64565 5.14648,-0.92383 a 3.9393938,3.9393938 0 0 0 0.0117,-0.004 c 6.42602,-1.03539 13.04319,-1.615 19.52734,-1.80079 1.06853,-0.0282 2.13627,-0.0486 3.20508,-0.0605 z m 1120.92581,0.004 v 0 c 0,-10e-6 0.01,7e-5 0.012,0 2.4759,0.009 4.9313,0.0582 7.3692,0.14844 0.5523,0.0341 1.2656,0.068 1.7793,0.0977 3.7933,0.2161 7.574,0.55658 11.2578,1.04883 a 3.9393938,3.9393938 0 0 0 0,0.002 c 4.6687,0.6198 9.3657,1.48131 13.8574,2.56641 a 3.9393938,3.9393938 0 0 0 0,0.002 c 7.6865,1.84823 15.1881,4.41129 22.3008,7.75976 1.0784,0.51337 2.3598,1.13395 3.4473,1.70118 a 3.9393938,3.9393938 0 0 0 0.025,0.0137 c 14.5208,7.43638 27.0803,18.6161 36.7949,31.82226 a 3.9393938,3.9393938 0 0 0 0.01,0.01 c 0.9753,1.31805 1.8714,2.59736 2.836,4.01758 7.3009,10.79196 13.2477,22.51226 17.6992,34.76758 4.4814,12.47252 7.1584,25.59375 7.5,38.77343 0.039,1.55908 0.054,3.33717 0.031,4.95899 -0.022,1.15661 -0.048,2.14873 -0.092,3.28711 -3e-4,0.009 3e-4,0.0179 0,0.0273 -0.055,0.94118 -0.092,2.01785 -0.1562,2.81641 a 3.9393938,3.9393938 0 0 0 0,0.0508 c -0.5974,8.80234 -2.1555,17.54384 -4.5996,26.0332 -3.1426,10.90453 -7.8097,21.59721 -13.5625,31.51563 a 3.9393938,3.9393938 0 0 0 0,0.006 c -1.1391,1.97324 -2.3195,3.91259 -3.5117,5.78711 -13.5684,21.29791 -31.9038,39.39093 -52.2168,54.64062 -4.9292,3.65815 -9.7724,7.20904 -14.8594,10.10742 a 3.9393938,3.9393938 0 0 0 -0.035,0.0195 c -15.1847,8.85663 -30.7836,16.96669 -46.8828,23.8711 -14.56,6.25682 -29.473,11.54372 -44.75,15.7539 -0.1995,0.0543 -0.3982,0.10608 -0.5976,0.16016 -7.8241,-39.68889 -21.3205,-78.40306 -41.2305,-113.76563 v -0.006 c -20.7853,-37.0614 -48.5481,-70.12649 -81.291,-97.19335 12.3976,-14.81212 26.053,-28.56624 41.1465,-40.51954 v -0.002 c 7.6686,-6.06485 15.8593,-11.72243 24.3789,-16.52344 a 3.9393938,3.9393938 0 0 0 0.016,-0.008 c 14.7899,-8.42054 30.2754,-15.61334 46.2949,-21.27344 l 0.024,-0.008 c 0,-10e-4 0.01,-0.003 0.01,-0.004 1.2021,-0.41306 2.5877,-0.89904 3.8125,-1.30665 2.2284,-0.74172 4.3272,-1.40105 6.6075,-2.10546 0.8847,-0.26284 2.0337,-0.59881 3.0371,-0.89454 l -0.022,0.008 c 6.4856,-1.872 13.0737,-3.46876 19.6406,-4.72266 a 3.9393938,3.9393938 0 0 0 0.01,0 c 4.1786,-0.80253 8.5767,-1.5 12.7832,-2.02539 4.8485,-0.60633 9.7725,-1.02088 14.5605,-1.23828 2.1552,-0.0973 4.3449,-0.13927 6.5645,-0.17774 z m -544.00784,65.66602 -0.01,0.006 h 0.0488 c 15.08784,0.10158 30.13893,0.35054 45.125,1.20117 a 3.9393938,3.9393938 0 0 0 0.0137,0 c 14.10311,0.752 28.32223,1.89434 42.33789,3.46094 a 3.9393938,3.9393938 0 0 0 0.002,0.002 c 14.74416,1.64011 29.42842,3.77048 44.00781,6.45117 l -0.002,-0.002 c 17.73243,3.26955 35.42319,7.39499 52.74023,12.49414 a 3.9393938,3.9393938 0 0 0 0.002,0 c 17.32348,5.0889 34.47371,11.24039 51.02341,18.53125 12.7549,5.62843 25.3052,11.98658 37.3262,19.10547 5.1463,3.04354 10.1998,6.22628 15.1953,9.57422 18.202,12.1966 35.2353,26.43094 50.0273,42.60351 a 3.9393938,3.9393938 0 0 0 0.01,0.0117 c 2.4314,2.63872 4.8142,5.32628 7.1113,8.01172 a 3.9393938,3.9393938 0 0 0 0.012,0.0137 c 7.9033,9.15187 15.2069,18.79628 21.6328,28.97852 a 3.9393938,3.9393938 0 0 0 0.01,0.01 c 4.0892,6.43318 7.923,13.04042 11.5391,19.77344 0,0.006 0.01,0.0117 0.01,0.0176 0.6148,1.17898 1.3239,2.51421 1.9257,3.70117 a 3.9393938,3.9393938 0 0 0 0.012,0.0117 c 4.4108,8.62972 8.3243,17.51756 11.7578,26.59375 0.6749,1.82391 1.4198,3.7823 2.0586,5.5957 a 3.9393938,3.9393938 0 0 0 0.012,0.0332 c 2.8159,7.77887 5.2841,15.68938 7.4394,23.6914 0.4461,1.72616 0.9527,3.58779 1.3614,5.2793 a 3.9393938,3.9393938 0 0 0 0.01,0.0273 c 5.3934,21.60164 8.5319,43.94816 9.9297,66.30665 0.1736,2.85524 0.2823,5.76037 0.3946,8.71289 7e-4,0.0198 0,0.0387 0,0.0586 0.047,1.98271 0.1233,4.1051 0.1464,6.05664 a 3.9393938,3.9393938 0 0 0 0,0.0254 c 0.1632,8.89445 0.032,17.82004 -0.205,26.76758 -0.1405,4.45621 -0.3597,9.15413 -0.6192,13.60156 -0.5951,9.80867 -1.5611,19.5769 -3.1679,29.16797 -0.2252,1.3089 -0.4721,2.80995 -0.7129,4.13086 a 3.9393938,3.9393938 0 0 0 0,0.0137 c -1.4513,8.12936 -3.2762,16.19281 -5.4512,24.16406 -0.4699,1.68493 -0.9792,3.53961 -1.4805,5.22071 a 3.9393938,3.9393938 0 0 0 -0.01,0.0215 c -2.8766,9.85599 -6.3088,19.56046 -10.1856,29.09375 -0.5258,1.24849 -1.1119,2.69229 -1.6094,3.85938 a 3.9393938,3.9393938 0 0 0 0,0.008 c -7.1466,16.86188 -15.7669,33.10698 -25.5214,48.64648 -3.6804,5.8528 -7.6096,11.7454 -11.6036,17.3828 -6.3974,9.0487 -13.1903,17.8279 -20.2988,26.3516 -8.9637,10.7362 -18.5386,21.1525 -28.498,31.0605 -11.3634,11.3189 -23.4988,22.2553 -36.0059,32.5059 -17.213,14.1231 -35.274,27.1097 -54.09569,39.0117 -10.20961,6.4545 -20.74763,12.6503 -31.33984,18.418 -12.23919,6.662 -24.74167,12.8085 -37.43946,18.4961 -3.1555,-27.8208 -13.7499,-54.7794 -30.88867,-76.9942 l -0.004,-0.01 c -16.54871,-21.5433 -38.87269,-38.5028 -63.99609,-48.7852 h -0.006 c -27.27251,-11.2482 -57.36102,-14.7833 -86.49414,-11.498 a 3.9393938,3.9393938 0 0 0 -0.004,0 c -21.3517,2.4252 -42.32769,8.7617 -61.26171,19.1152 0,0 -0.002,0 -0.002,0 h -0.008 c -19.49528,10.6007 -36.72661,25.382 -49.96875,43.2461 h -0.002 -0.004 c -13.60312,18.2671 -23.02794,39.6265 -27.17187,62.0527 -0.89071,4.7353 -1.47548,9.5198 -1.91407,14.3184 -27.21789,-12.0575 -53.47177,-26.3018 -78.40625,-42.584 h -0.004 C 504.72199,1168.4906 482.57508,1151.4686 462,1132.7227 c -13.35663,-12.182 -26.12865,-25.1588 -37.99414,-38.8243 -21.13091,-24.3268 -39.7179,-51.1721 -54.01367,-80.0605 a 3.9393938,3.9393938 0 0 0 -0.002,0 c -1.90896,-3.8483 -3.71849,-7.6892 -5.48437,-11.6348 h -0.002 c -3.19312,-7.15933 -6.22554,-14.65867 -8.88086,-22.12888 a 3.9393938,3.9393938 0 0 0 -0.002,-0.004 c -4.58451,-12.85607 -8.26368,-26.03201 -10.96289,-39.40429 l -0.004,-0.0176 c 0,0 0,-0.002 0,-0.002 -0.21178,-1.07886 -0.48916,-2.50529 -0.69922,-3.59765 v -0.006 c -9.2e-4,-0.005 -0.003,-0.0109 -0.004,-0.0156 -2.30661,-12.36343 -3.72063,-24.89615 -4.27734,-37.4707 a 3.9393938,3.9393938 0 0 0 0,-0.002 3.9393938,3.9393938 0 0 0 0,-0.002 3.9393938,3.9393938 0 0 0 0,-0.006 c -0.65698,-13.97385 -0.75678,-28.07125 -0.30664,-42.10743 v -0.0137 c 0.0989,-2.79587 0.23571,-5.79521 0.39453,-8.61523 0.67574,-12.03027 1.86536,-23.93938 3.6543,-35.84961 a 3.9393938,3.9393938 0 0 0 0,-0.002 c 0.77989,-5.20582 1.66386,-10.33685 2.67773,-15.52148 1.51553,-7.72797 3.30242,-15.54776 5.39648,-23.18945 a 3.9393938,3.9393938 0 0 0 0.002,-0.002 c 0.75692,-2.76892 1.55929,-5.54083 2.36914,-8.19336 a 3.9393938,3.9393938 0 0 0 0.002,-0.004 c 2.06609,-6.78621 4.4128,-13.55949 6.91797,-20.12695 l 0.002,-0.008 c 2.85231,-7.43403 5.94263,-14.6839 9.42188,-21.82422 l 0.004,-0.006 c 5.14898,-10.51869 11.08928,-20.82116 17.5625,-30.67578 a 3.9393938,3.9393938 0 0 0 0,-0.002 c 1.96357,-2.99401 4.10867,-6.07086 6.16602,-8.93555 l 0.002,-0.004 c 5.84031,-8.11345 12.36076,-15.79391 19.15039,-23.29688 l 0.0117,-0.0137 c 11.21522,-12.28621 23.50122,-23.58813 36.76172,-33.59375 a 3.9393938,3.9393938 0 0 0 0.0117,-0.0117 c 24.10693,-18.32865 50.95788,-32.96699 79.03711,-44.50586 11.18564,-4.5919 22.68036,-8.76186 34.25,-12.45508 a 3.9393938,3.9393938 0 0 0 0.002,0 c 11.4305,-3.6581 23.16422,-6.93947 34.94922,-9.82617 a 3.9393938,3.9393938 0 0 0 0.002,0 c 13.78079,-3.38252 27.88362,-6.27838 41.88868,-8.69726 18.03267,-3.11652 36.2228,-5.4813 54.39648,-7.25 v 0.002 c 18.22117,-1.76646 36.44975,-2.91615 54.7832,-3.56641 11.27822,-0.39776 22.65005,-0.56168 34.00977,-0.62695 z M 538.69141,929.0918 v 0.002 c -23.0983,0.46998 -45.74339,10.49355 -61.50782,27.43164 l -0.006,0.006 c -14.38567,15.24017 -23.03446,35.69771 -23.6875,56.69536 -0.76536,20.7893 6.04911,41.7467 19.22266,57.9375 13.63407,16.9671 33.68333,28.6222 55.32227,31.6504 21.13033,3.1008 43.30015,-1.7679 61.04101,-13.7852 17.95544,-12.0208 31.26983,-30.77 36.28711,-51.875 5.15131,-21.1041 2.23253,-44.04092 -8.42578,-63.05665 -10.46137,-18.92089 -28.054,-33.73759 -48.66016,-40.50586 l -0.004,-0.002 c -9.51497,-3.18394 -19.56066,-4.69386 -29.57813,-4.49804 a 3.9393938,3.9393938 0 0 0 -0.004,0 z m 450.29297,0.54492 c -14.82345,0.21706 -24.99554,5.69114 -25.84376,6.16016 -18.55804,7.35179 -34.40644,21.20874 -43.97656,38.77734 -10e-4,0.003 -0.002,0.005 -0.004,0.008 -0.002,0.003 -0.004,0.006 -0.006,0.01 -9.19009,16.67425 -12.71374,36.34618 -9.70118,55.18158 2.87033,18.4743 11.79941,35.9296 25.33008,48.9102 14.30778,13.8933 33.4424,22.6854 53.40235,24.1426 20.35399,1.6074 41.18929,-4.1271 57.69339,-16.2696 18.1439,-13.1941 30.9068,-33.5184 34.4961,-55.7461 3.6627,-21.6702 -1.1525,-44.61364 -13.5605,-62.83782 -12.3474,-18.36441 -31.8231,-31.73828 -53.545,-36.32032 -8.1065,-1.75328 -16.29411,-2.11406 -24.28321,-2.01172 a 3.9393938,3.9393938 0 0 0 -0.006,0 z M 767.47266,1169.5215 c 2.26398,0.026 4.56781,0.076 6.68945,0.1836 a 3.9393938,3.9393938 0 0 0 0.004,0 c 13.53024,0.6725 27.0037,3.7055 38.66796,10.1504 a 3.9393938,3.9393938 0 0 0 0.008,0 c 1.81364,0.9974 3.58228,2.1031 5.31054,3.2929 0.56821,0.3925 1.38904,0.9805 2.01368,1.4532 a 3.9393938,3.9393938 0 0 0 0.0195,0.014 c 8.75085,6.5365 15.67113,15.5391 19.86328,25.6504 a 3.9393938,3.9393938 0 0 0 0.01,0.022 c 1.05823,2.5105 1.96589,5.1002 2.7461,7.7402 10e-4,0 0.003,0.01 0.004,0.01 0.28766,1.0068 0.62724,2.2193 0.87696,3.2422 0.33516,1.3719 0.69193,2.972 0.96093,4.4082 a 3.9393938,3.9393938 0 0 0 0.002,0.01 c 0.42426,2.2326 0.77624,4.6566 1,6.7715 a 3.9393938,3.9393938 0 0 0 0,0.01 c 0.32632,3.0327 0.50925,6.1261 0.53906,9.1016 a 3.9393938,3.9393938 0 0 0 0,0.025 c 0.1229,7.5774 -0.96697,15.1669 -3.30078,22.3437 -0.3214,0.9839 -0.73399,2.1958 -1.11328,3.1992 a 3.9393938,3.9393938 0 0 0 -0.008,0.02 c -6.1435,16.5169 -18.52684,30.6417 -33.88281,39.3554 a 3.9393938,3.9393938 0 0 0 -0.0176,0.012 c -5.41087,3.104 -11.2388,5.5154 -17.27343,7.2636 -0.47471,0.1247 -1.1385,0.3119 -1.59571,0.4356 -5.8292,1.5461 -11.83156,2.456 -17.85742,2.7051 -1.15355,0.047 -2.54996,0.087 -3.74805,0.088 a 3.9393938,3.9393938 0 0 0 -0.0195,0 c -1.59059,0.01 -3.11149,-0.024 -4.68945,-0.082 h -0.01 c -0.58427,-0.037 -1.34343,-0.072 -1.88868,-0.1055 a 3.9393938,3.9393938 0 0 0 -0.004,0 c -3.63577,-0.2216 -7.26567,-0.6327 -10.875,-1.2109 -0.54441,-0.098 -1.20198,-0.1998 -1.54883,-0.2656 a 3.9393938,3.9393938 0 0 0 -0.0352,-0.012 c -3.66853,-0.6602 -7.16294,-1.5185 -10.74219,-2.6504 -10.30017,-3.2578 -20.14408,-8.7557 -27.77929,-16.3145 a 3.9393938,3.9393938 0 0 0 -0.0117,-0.014 c -3.14768,-3.0886 -6.073,-6.6889 -8.4668,-10.3164 h -0.004 c -1.00711,-1.5317 -1.88425,-2.9826 -2.78125,-4.6113 a 3.9393938,3.9393938 0 0 0 -0.002,-0.01 c -1.37923,-2.4928 -2.63501,-5.225 -3.67382,-7.8144 l -0.002,-0.01 h -0.002 c -3.69208,-9.2816 -5.49078,-19.3442 -5.98242,-29.4922 -0.01,-0.4882 -0.0338,-1.1678 -0.0469,-1.6367 -0.0563,-2.102 -0.0324,-4.2215 0.0488,-6.3535 10e-5,0 -10e-5,-0.01 0,-0.01 0.0315,-0.4952 0.0631,-1.1675 0.0898,-1.6445 v -0.01 c 0.29607,-5.0243 1.08258,-10.162 2.3125,-14.9336 5e-4,0 9.6e-4,3e-4 0.002,-0.01 0.89212,-3.4279 2.06591,-6.7956 3.47265,-10.0762 0.38863,-0.8922 0.90409,-2.0177 1.36524,-2.9375 a 3.9393938,3.9393938 0 0 0 0.0117,-0.023 c 1.97489,-3.999 4.51129,-7.933 7.26562,-11.3262 h 0.002 c 1.56762,-1.9264 3.25008,-3.7528 5.03907,-5.457 l 0.008,-0.01 c 0.003,0 0.005,-0.01 0.008,-0.01 0.63877,-0.601 1.48469,-1.3705 2.19531,-1.9785 a 3.9393938,3.9393938 0 0 0 0.0234,-0.019 c 4.00148,-3.4767 8.48589,-6.4361 13.25586,-8.8848 0.44568,-0.2142 1.02512,-0.506 1.44531,-0.7129 h 0.008 c 10.8182,-5.1629 22.89564,-7.6885 35.05468,-8.3574 2.34142,-0.1228 4.68796,-0.1887 7.03907,-0.2051 z"/>
</svg>
