<svg width="1536" height="1536" xmlns="http://www.w3.org/2000/svg">
    <path d="M1407 826c0-47-9-170-25-210-19-48-30-75-30-129 0-46 10-91 10-136 0-19-1-39-10-55-4-1-9-1-13-1-39 0-78 9-117 9-119 0-232-48-351-48-93 0-183 35-269 69-68 27-143 59-202 103-202 153-272 433-272 674 0 81 25 160 25 241 0 46-22 88-22 132 0 28 16 51 46 51 49 0 96-22 146-22 114 0 225 31 339 31 89 0 201-7 284-36 263-93 461-397 461-673zm128-2c0 333-231 684-547 796-99 35-222 44-326 44-114 0-226-29-339-29-48 0-96 29-146 29-99 0-174-89-174-184 0-47 22-89 22-135 0-81-25-160-25-242 0-284 87-598 323-777 68-52 153-89 232-120 102-41 205-78 316-78 119 0 232 48 349 48 38 0 76-10 115-10 114 0 155 81 155 185 0 45-10 91-10 136 0 36 9 50 21 82 23 58 34 191 34 255z"/>
</svg>
