<?xml version="1.0" standalone="no"?>
<svg width="1536px" height="1536px" version="1.1" xmlns="http://www.w3.org/2000/svg">
    <path transform="scale(1, -1) translate(0, -1536)" glyph-name="lemon_o" unicode="&#xf094;" 

d="M1407 710c0 47 -9 170 -25 210c-19 48 -30 75 -30 129c0 46 10 91 10 136c0 19 -1 39 -10 55c-4 1 -9 1 -13 1c-39 0 -78 -9 -117 -9c-119 0 -232 48 -351 48c-93 0 -183 -35 -269 -69c-68 -27 -143 -59 -202 -103c-202 -153 -272 -433 -272 -674c0 -81 25 -160 25 -241
c0 -46 -22 -88 -22 -132c0 -28 16 -51 46 -51c49 0 96 22 146 22c114 0 225 -31 339 -31c89 0 201 7 284 36c263 93 461 397 461 673zM1535 712c0 -333 -231 -684 -547 -796c-99 -35 -222 -44 -326 -44c-114 0 -226 29 -339 29c-48 0 -96 -29 -146 -29
c-99 0 -174 89 -174 184c0 47 22 89 22 135c0 81 -25 160 -25 242c0 284 87 598 323 777c68 52 153 89 232 120c102 41 205 78 316 78c119 0 232 -48 349 -48c38 0 76 10 115 10c114 0 155 -81 155 -185c0 -45 -10 -91 -10 -136c0 -36 9 -50 21 -82c23 -58 34 -191 34 -255z
" />
</svg>