<svg xmlns="http://www.w3.org/2000/svg" width="1536" height="1796" viewBox="0 0 1536 1796">
    <path d="M469.093 132l-247.737 38.364L18.4 1018.984C6.639 1069.078.554 1116.24.024 1160.442c-.551 44.224 8.502 83.402 27.147 117.495 18.649 34.116 49.543 60.997 92.707 80.704 43.163 19.706 102.54 29.551 178.208 29.551l47.966-196.585c-27.715-2.118-49.321-6.922-64.769-14.402-15.447-7.439-26.337-17.28-32.736-29.55-6.4-12.247-9.368-26.36-8.816-42.336.53-15.978 2.921-33.592 7.202-52.77l222.16-920.465zm382.159 380.586c-63.93 0-123.348 5.038-178.209 15.145-54.882 10.15-103.666 21.616-146.257 34.394L261.5 1668h236.522l71.93-289.245c36.212 6.4 72.443 9.601 108.679 9.601 74.566 0 143.572-13.108 206.971-39.192 63.379-26.106 117.675-62.573 162.98-109.466 45.154-46.871 80.62-102.513 106.196-166.994 25.576-64.416 38.365-135.6 38.365-213.386h.165c0-47.952-6.663-92.898-19.948-135.002-13.35-42.082-33.847-78.848-61.541-110.294-27.802-31.424-63.199-56.212-106.364-74.33-43.14-18.095-94.554-27.15-154.205-27.15zm-30.294 199.73c50.071 0 85.235 16.012 105.492 47.966 20.216 31.953 30.337 70.875 30.337 116.665 0 46.893-6.643 89.745-19.948 128.629-13.35 38.925-31.989 72.212-55.954 99.907-23.987 27.716-53.024 49.301-87.118 64.728-34.094 15.468-71.927 23.175-113.48 23.175-26.636 0-48.992-2.099-67.087-6.375l111.866-465.095c29.812-6.4 61.776-9.601 95.892-9.601z" fill="#1a171b"/>
</svg>
