<?xml version="1.0" encoding="UTF-8" standalone="no"?>
<svg
   xmlns:dc="http://purl.org/dc/elements/1.1/"
   xmlns:cc="http://creativecommons.org/ns#"
   xmlns:rdf="http://www.w3.org/1999/02/22-rdf-syntax-ns#"
   xmlns:svg="http://www.w3.org/2000/svg"
   xmlns="http://www.w3.org/2000/svg"
   xmlns:sodipodi="http://sodipodi.sourceforge.net/DTD/sodipodi-0.dtd"
   xmlns:inkscape="http://www.inkscape.org/namespaces/inkscape"
   viewBox="0 0 1536 1792"
   id="svg2"
   version="1.1"
   inkscape:version="0.91 r13725"
   sodipodi:docname="liberapay.svg"
   width="1536"
   height="1792">
  <metadata
     id="metadata14">
    <rdf:RDF>
      <cc:Work
         rdf:about="">
        <dc:format>image/svg+xml</dc:format>
        <dc:type
           rdf:resource="http://purl.org/dc/dcmitype/StillImage" />
        <dc:title></dc:title>
      </cc:Work>
    </rdf:RDF>
  </metadata>
  <defs
     id="defs12" />
  <sodipodi:namedview
     pagecolor="#ffffff"
     bordercolor="#666666"
     borderopacity="1"
     objecttolerance="10"
     gridtolerance="10"
     guidetolerance="10"
     inkscape:pageopacity="0"
     inkscape:pageshadow="2"
     inkscape:window-width="991"
     inkscape:window-height="717"
     id="namedview10"
     showgrid="false"
     inkscape:zoom="0.13037281"
     inkscape:cx="719.13204"
     inkscape:cy="28.929687"
     inkscape:window-x="0"
     inkscape:window-y="0"
     inkscape:window-maximized="0"
     inkscape:current-layer="svg2" />
  <path
     style="fill:#1a171b"
     d="M 639.72409,123.69261 390.59776,162.27165 186.50232,1015.6515 c -11.82624,50.3732 -17.94576,97.8018 -18.47848,142.2513 -0.55403,44.4708 8.55004,83.8681 27.30152,118.1535 18.75147,34.3067 49.81927,61.3386 93.22467,81.1555 43.40542,19.817 103.11515,29.7168 179.2078,29.7168 l 0,0 48.23545,-197.6874 c -27.87151,-2.1308 -49.59853,-6.9615 -65.13241,-14.4834 -15.53391,-7.4793 -26.48479,-17.377 -32.91996,-29.7147 -6.43517,-12.3163 -9.41869,-26.5078 -8.86468,-42.5744 0.53271,-16.0666 2.93724,-33.7803 7.24157,-53.0646 L 639.72409,123.77571 Z m 384.30211,382.71981 c -64.28771,0 -124.0401,5.06717 -179.20781,15.23132 -55.18901,10.20678 -104.2485,21.73681 -147.07859,34.58584 l -266.77241,1112.07782 237.84778,0 72.33237,-290.8674 c 36.41623,6.4351 72.85178,9.6548 109.2893,9.6548 74.98465,0 144.37745,-13.1814 208.13246,-39.4122 63.7337,-26.252 118.3348,-62.9239 163.8923,-110.0797 45.4085,-47.1343 81.0729,-103.0884 106.7922,-167.9302 25.7194,-64.7778 38.58,-136.35937 38.58,-214.58292 l 0.1662,0 c 0,-48.22116 -6.6995,-93.41856 -20.0599,-135.75856 -13.4244,-42.31868 -34.036,-79.29105 -61.8862,-110.91287 -27.9567,-31.60051 -63.5533,-56.52719 -106.9586,-74.74595 -43.3842,-18.19746 -95.0858,-27.30258 -155.0694,-27.30258 z m -30.46451,200.84965 c 50.35201,0 85.71381,16.10286 106.08471,48.2361 20.3283,32.13312 30.5062,71.27256 30.5062,117.32028 0,47.15568 -6.6783,90.24792 -20.0599,129.34895 -13.4244,39.1438 -32.168,72.6173 -56.2679,100.4675 -24.1212,27.8716 -53.3209,49.5785 -87.60621,65.0911 -34.2854,15.5552 -72.33104,23.3052 -114.11702,23.3052 -26.78478,0 -49.26558,-2.1096 -67.46305,-6.4097 l 112.4939,-467.70453 c 29.98107,-6.43517 62.12257,-9.65489 96.42927,-9.65489 z"
     id="path6"
     inkscape:connector-curvature="0" />
</svg>
