<svg xmlns="http://www.w3.org/2000/svg" width="1536" height="1536" viewBox="0 0 1536.0001 1536">
    <path d="M471.724 119.386l-249.126 38.579-204.096 853.38C6.676 1061.718.557 1109.146.024 1153.595c-.554 44.472 8.55 83.869 27.3 118.154 18.753 34.307 49.82 61.339 93.226 81.156 43.405 19.817 103.115 29.717 179.208 29.717l48.235-197.688c-27.871-2.13-49.598-6.961-65.132-14.483-15.534-7.48-26.485-17.377-32.92-29.715-6.435-12.316-9.42-26.508-8.865-42.574.533-16.067 2.937-33.78 7.242-53.065l223.406-925.628zm384.302 382.72c-64.288 0-124.04 5.067-179.208 15.23-55.19 10.208-104.248 21.738-147.078 34.587L262.967 1664h237.848l72.333-290.867c36.416 6.435 72.85 9.655 109.289 9.655 74.984 0 144.377-13.182 208.132-39.412 63.734-26.252 118.335-62.924 163.893-110.08 45.408-47.134 81.073-103.088 106.792-167.93 25.72-64.778 38.58-136.36 38.58-214.583h.166c0-48.221-6.7-93.419-20.06-135.759-13.424-42.318-34.036-79.29-61.886-110.913-27.957-31.6-63.553-56.527-106.96-74.746-43.383-18.197-95.084-27.302-155.07-27.302zm-30.464 200.85c50.352 0 85.713 16.102 106.084 48.235 20.329 32.133 30.507 71.273 30.507 117.32 0 47.156-6.68 90.248-20.06 129.35-13.425 39.143-32.168 72.617-56.268 100.467-24.121 27.872-53.321 49.578-87.606 65.091-34.286 15.555-72.331 23.305-114.117 23.305-26.785 0-49.266-2.11-67.463-6.41L729.132 712.61c29.98-6.435 62.123-9.655 96.43-9.655z" fill="#1a171b"/>
</svg>
