<?xml version="1.0" encoding="UTF-8" standalone="no"?>
<svg
   xmlns:dc="http://purl.org/dc/elements/1.1/"
   xmlns:cc="http://creativecommons.org/ns#"
   xmlns:rdf="http://www.w3.org/1999/02/22-rdf-syntax-ns#"
   xmlns:svg="http://www.w3.org/2000/svg"
   xmlns="http://www.w3.org/2000/svg"
   height="1792"
   width="1536"
   version="1.1"
   id="svg2"
   viewBox="0 0 1536 1792">
  <metadata
     id="metadata18">
    <rdf:RDF>
      <cc:Work
         rdf:about="">
        <dc:format>image/svg+xml</dc:format>
        <dc:type
           rdf:resource="http://purl.org/dc/dcmitype/StillImage" />
        <dc:title></dc:title>
      </cc:Work>
    </rdf:RDF>
  </metadata>
  <defs
     id="defs16" />
  <path
     id="path6"
     d="M 148.55116,128 C 66.566474,128 0.0546875,194.4957 0.0546875,276.49503 l 0,1239.00797 c 0,81.9859 66.5117865,148.497 148.4964725,148.497 l 1239.00804,0 c 82.0644,0 148.534,-66.4957 148.534,-148.497 l 0,-1239.00797 C 1536.0932,194.4957 1469.6236,128 1387.5592,128 L 148.55116,128 Z M 737.84967,382.69347 592.57812,984.6299 c -2.78913,12.5258 -4.33677,24.0205 -4.68739,34.4613 -0.36652,10.4388 1.5615,19.7102 5.73736,27.7107 4.17573,8.033 11.30736,14.4515 21.412,19.3128 10.08871,4.892 24.21508,8.0254 42.33649,9.4116 l -31.34926,128.4718 0,0 c -49.47131,0 -88.3371,-6.4337 -116.54722,-19.3109 -28.21014,-12.8944 -48.42198,-30.4697 -60.59856,-52.7987 -12.20846,-22.2811 -18.12524,-47.8242 -17.7746,-76.7982 0.33465,-28.9126 4.35513,-59.7586 12.03721,-92.5111 L 575.85351,407.66824 737.84967,382.61859 Z m 249.63157,248.80689 c 39.01606,0 72.64086,5.93266 100.83506,17.77494 28.2261,11.84036 51.3645,28.05437 69.4859,48.59789 18.1055,20.56079 31.5344,44.56406 40.2365,72.07311 8.6951,27.4861 13.0427,56.9363 13.0497,88.2738 l 0,0 0,0 c -0.01,50.8116 -8.3764,97.286 -25.0869,139.4213 -16.7189,42.1718 -39.8891,78.5857 -69.4858,109.2339 -29.6127,30.6809 -65.118,54.496 -106.5725,71.549 -41.45456,17.0531 -86.5961,25.6122 -135.33428,25.6122 -23.6997,0 -47.37706,-2.0716 -71.06081,-6.2629 l -47.02389,189.1463 -154.68382,0 173.47088,-723.09519 c 27.8595,-8.3518 59.74645,-15.83194 95.62271,-22.46346 35.89223,-6.61425 74.74208,-9.93577 116.54725,-9.93577 z M 967.60671,762.1475 c -22.31309,0 -43.22798,2.1081 -62.736,6.2994 l -73.12327,304.0804 c 11.84187,2.7878 26.4538,4.1625 43.87395,4.1625 27.15824,0 51.91357,-5.0303 74.21075,-15.1504 22.28122,-10.0893 41.27821,-24.178 56.96116,-42.2985 15.651,-18.1052 27.8436,-39.8717 36.5616,-65.3245 8.7021,-25.4202 13.0497,-53.4458 13.0497,-84.1094 0,-29.9474 -6.6245,-55.4003 -19.837,-76.3105 -13.2444,-20.8949 -36.2244,-31.349 -68.96089,-31.349 z"
     style="fill:#000000" />
</svg>
