<svg xmlns="http://www.w3.org/2000/svg" width="1536" height="1796" viewBox="0 0 1536 1796">
    <path d="M148.496 132C66.511 132 0 198.496 0 280.495v1239.008C0 1601.49 66.511 1668 148.495 1668h1239.01c82.065 0 148.534-66.496 148.534-148.497V280.495c0-82-66.47-148.495-148.534-148.495zm589.299 254.693L592.523 988.63c-2.789 12.526-4.337 24.02-4.687 34.461-.367 10.439 1.561 19.71 5.737 27.71 4.176 8.034 11.307 14.452 21.412 19.314 10.089 4.892 24.215 8.025 42.337 9.411l-31.35 128.472c-49.471 0-88.337-6.434-116.547-19.31-28.21-12.895-48.422-30.47-60.598-52.8-12.209-22.28-18.126-47.824-17.775-76.798.335-28.912 4.355-59.758 12.037-92.51l132.71-554.912 161.996-25.05zM987.425 635.5c39.016 0 72.64 5.933 100.835 17.775 28.226 11.84 51.365 28.055 69.486 48.598 18.106 20.561 31.535 44.564 40.237 72.073 8.695 27.486 13.042 56.937 13.05 88.274-.01 50.812-8.377 97.286-25.088 139.421-16.718 42.172-39.89 78.586-69.485 109.234-29.613 30.681-65.118 54.496-106.573 71.55-41.454 17.052-86.596 25.611-135.334 25.611-23.7 0-47.377-2.07-71.06-6.262l-47.025 189.146H601.785l173.471-723.095c27.86-8.352 59.747-15.832 95.623-22.464 35.892-6.614 74.742-9.936 116.547-9.936zm-19.874 130.648c-22.313 0-43.228 2.108-62.736 6.299l-73.124 304.08c11.842 2.788 26.454 4.163 43.874 4.163 27.159 0 51.914-5.03 74.211-15.15 22.281-10.09 41.278-24.179 56.96-42.3 15.652-18.104 27.845-39.87 36.563-65.324 8.702-25.42 13.05-53.445 13.05-84.109 0-29.947-6.625-55.4-19.837-76.31-13.245-20.895-36.225-31.35-68.96-31.35z"/>
</svg>
