<svg width="1536" height="1536" xmlns="http://www.w3.org/2000/svg">
    <path d="M896 0c495 0 896 401 896 896s-401 896-896 896S0 1391 0 896 401 0 896 0zm0 128c-130 0-253 33-361 90l194 194c53-18 109-28 167-28 59 0 114 10 167 28l194-194c-108-57-231-90-361-90zM218 1257l194-194c-18-53-28-109-28-167 0-59 10-114 28-167L218 535c-57 108-90 231-90 361s33 253 90 361zm678 407c130 0 253-33 361-90l-194-194c-53 18-108 28-167 28-58 0-114-10-167-28l-194 194c108 57 231 90 361 90zm0-384c212 0 384-172 384-384s-172-384-384-384-384 172-384 384 172 384 384 384zm484-217l194 194c57-108 90-231 90-361s-33-253-90-361l-194 194c18 53 28 109 28 167s-10 114-28 167z"/>
</svg>
