<?xml version="1.0" standalone="no"?>
<svg width="1536px" height="1536px" version="1.1" xmlns="http://www.w3.org/2000/svg">
    <path transform="scale(1, -1) translate(0, -1536)" glyph-name="life_ring" unicode="&#xf1cd;" horiz-adv-x="1792" 

d="M896 1536c495 0 896 -401 896 -896s-401 -896 -896 -896s-896 401 -896 896s401 896 896 896zM896 1408c-130 0 -253 -33 -361 -90l194 -194c53 18 109 28 167 28c59 0 114 -10 167 -28l194 194c-108 57 -231 90 -361 90zM218 279l194 194c-18 53 -28 109 -28 167
c0 59 10 114 28 167l-194 194c-57 -108 -90 -231 -90 -361s33 -253 90 -361zM896 -128c130 0 253 33 361 90l-194 194c-53 -18 -108 -28 -167 -28c-58 0 -114 10 -167 28l-194 -194c108 -57 231 -90 361 -90zM896 256c212 0 384 172 384 384s-172 384 -384 384
s-384 -172 -384 -384s172 -384 384 -384zM1380 473l194 -194c57 108 90 231 90 361s-33 253 -90 361l-194 -194c18 -53 28 -109 28 -167s-10 -114 -28 -167z" />
</svg>