<?xml version="1.0" standalone="no"?>
<svg width="1536px" height="1536px" version="1.1" xmlns="http://www.w3.org/2000/svg">
    <path transform="scale(1, -1) translate(0, -1536)" glyph-name="lightbulb_o" unicode="&#xf0eb;" horiz-adv-x="1024" 

d="M736 960c0 -17 -15 -32 -32 -32s-32 15 -32 32c0 69 -107 96 -160 96c-17 0 -32 15 -32 32s15 32 32 32c93 0 224 -49 224 -160zM896 960c0 200 -203 320 -384 320s-384 -120 -384 -320c0 -64 26 -131 68 -180c19 -22 41 -43 61 -66c71 -85 131 -185 141 -298h228
c10 113 70 213 141 298c20 23 42 44 61 66c42 49 68 116 68 180zM1024 960c0 -103 -34 -192 -103 -268s-160 -183 -168 -290c29 -17 47 -49 47 -82c0 -24 -9 -47 -25 -64c16 -17 25 -40 25 -64c0 -33 -17 -63 -45 -81c8 -14 13 -31 13 -47c0 -65 -51 -96 -109 -96
c-26 -58 -84 -96 -147 -96s-121 38 -147 96c-58 0 -109 31 -109 96c0 16 5 33 13 47c-28 18 -45 48 -45 81c0 24 9 47 25 64c-16 17 -25 40 -25 64c0 33 18 65 47 82c-8 107 -99 214 -168 290s-103 165 -103 268c0 272 259 448 512 448s512 -176 512 -448z" />
</svg>