<?xml version="1.0" standalone="no"?>
<svg width="1536px" height="1536px" version="1.1" xmlns="http://www.w3.org/2000/svg">
    <path transform="scale(1, -1) translate(0, -1536)" glyph-name="link" unicode="&#xf0c1;" horiz-adv-x="1664" 

d="M1456 320c0 26 -10 50 -28 68l-208 208c-18 18 -43 28 -68 28c-29 0 -52 -11 -72 -32c33 -33 72 -61 72 -112c0 -53 -43 -96 -96 -96c-51 0 -79 39 -112 72c-21 -20 -33 -43 -33 -73c0 -25 10 -50 28 -68l206 -207c18 -18 43 -27 68 -27s50 9 68 26l147 146
c18 18 28 42 28 67zM753 1025c0 25 -10 50 -28 68l-206 207c-18 18 -43 28 -68 28s-50 -10 -68 -27l-147 -146c-18 -18 -28 -42 -28 -67c0 -26 10 -50 28 -68l208 -208c18 -18 43 -27 68 -27c29 0 52 10 72 31c-33 33 -72 61 -72 112c0 53 43 96 96 96c51 0 79 -39 112 -72
c21 20 33 43 33 73zM1648 320c0 -76 -31 -150 -85 -203l-147 -146c-54 -54 -127 -83 -203 -83c-77 0 -150 30 -204 85l-206 207c-54 54 -83 127 -83 203c0 79 32 154 88 209l-88 88c-55 -56 -129 -88 -208 -88c-76 0 -150 30 -204 84l-208 208c-55 55 -84 127 -84 204
c0 76 31 150 85 203l147 146c54 54 127 83 203 83c77 0 150 -30 204 -85l206 -207c54 -54 83 -127 83 -203c0 -79 -32 -154 -88 -209l88 -88c55 56 129 88 208 88c76 0 150 -30 204 -84l208 -208c55 -55 84 -127 84 -204z" />
</svg>