<?xml version="1.0" standalone="no"?>
<svg width="1536px" height="1536px" version="1.1" xmlns="http://www.w3.org/2000/svg">
    <path transform="scale(1, -1) translate(0, -1536)" glyph-name="linkedin" unicode="&#xf0e1;" 

d="M349 911v-991h-330v991h330zM370 1217c1 -95 -71 -171 -186 -171v0h-2c-111 0 -182 76 -182 171c0 97 74 171 186 171c113 0 183 -74 184 -171zM1536 488v-568h-329v530c0 133 -48 224 -167 224c-91 0 -145 -61 -169 -120c-8 -22 -11 -51 -11 -81v-553h-329v0
c4 898 0 991 0 991h329v-144h-2c43 68 121 167 299 167c217 0 379 -142 379 -446z" />
</svg>