<?xml version="1.0" standalone="no"?>
<svg width="1536px" height="1536px" version="1.1" xmlns="http://www.w3.org/2000/svg">
    <path transform="scale(1, -1) translate(0, -1536)" glyph-name="linkedin_square" unicode="&#xf08c;" 

d="M237 122h231v694h-231v-694zM483 1030c-1 68 -50 120 -129 120s-131 -52 -131 -120c0 -66 50 -120 128 -120h1v0c81 0 131 54 131 120zM1068 122h231v398c0 213 -114 312 -266 312c-124 0 -179 -69 -209 -117h2v101h-231s3 -65 0 -694v0h231v388c0 20 1 41 7 56
c17 41 55 84 119 84c83 0 116 -63 116 -157v-371zM1536 1120v-960c0 -159 -129 -288 -288 -288h-960c-159 0 -288 129 -288 288v960c0 159 129 288 288 288h960c159 0 288 -129 288 -288z" />
</svg>