<svg width="1536" height="1536" xmlns="http://www.w3.org/2000/svg">
    <path d="M1456 1216c0-26-10-50-28-68l-208-208c-18-18-43-28-68-28-29 0-52 11-72 32 33 33 72 61 72 112 0 53-43 96-96 96-51 0-79-39-112-72-21 20-33 43-33 73 0 25 10 50 28 68l206 207c18 18 43 27 68 27s50-9 68-26l147-146c18-18 28-42 28-67zM753 511c0-25-10-50-28-68L519 236c-18-18-43-28-68-28s-50 10-68 27L236 381c-18 18-28 42-28 67 0 26 10 50 28 68l208 208c18 18 43 27 68 27 29 0 52-10 72-31-33-33-72-61-72-112 0-53 43-96 96-96 51 0 79 39 112 72 21-20 33-43 33-73zm895 705c0 76-31 150-85 203l-147 146c-54 54-127 83-203 83-77 0-150-30-204-85l-206-207c-54-54-83-127-83-203 0-79 32-154 88-209l-88-88c-55 56-129 88-208 88-76 0-150-30-204-84L100 652c-55-55-84-127-84-204 0-76 31-150 85-203L248 99c54-54 127-83 203-83 77 0 150 30 204 85l206 207c54 54 83 127 83 203 0 79-32 154-88 209l88 88c55-56 129-88 208-88 76 0 150 30 204 84l208 208c55 55 84 127 84 204z"/>
</svg>
