<svg width="1536" height="1536" xmlns="http://www.w3.org/2000/svg">
    <path d="M330 1535l202 214-34-236-216-213zm226 226l274-218-11-245-300 215zm-311-638l227 213-48-327-245-204zm250 224l317-214-14-324-352 200zm348 11l95 80-2-239-103-79c0 8 4 22-4 28l-78 52 85 70c10 8 7 76 7 88zM138 606l256 200-68-465L47 168zm1035 663l15-234-230 164 2 240zM417 814l373-194-19-441-423 163zm853 365l20-233-226-142-2 105 144 95c3 2 5 6 4 9l-7 119zm191-139l30-222-179 128-20 228zm-188 167l-71-49-8 117c0 3-1 6-4 8l-234 187c-4 3-10 3-14 0l-98-83 7 161c0 3-1 6-4 8l-293 234c-2 1-4 2-6 2-3-1-6-1-8-3l-228-242c-5-5-54-252-59-277-1-4 2-9 5-11l61-37c-12-11-93-82-95-92l-72-351c-1-4 1-9 6-12l94-45c-16-12-132-96-135-108L21 148c-1-6 2-11 7-13L461 0c2 0 5 0 8 1l317 153c3 2 6 6 6 9l20 463c0 4-2 8-6 10l-118 61 126 85c3 1 5 5 5 8l5 123 121-74c3-2 8-2 11 0l84 56 3-110c0-3 2-7 5-9l206-126c4-2 8-2 11 0l245 135c2 2 4 4 5 7 2 7-31 232-34 255 0 3-2 6-4 7l-191 153c-4 3-9 3-13 0z"/>
</svg>
