<?xml version="1.0" standalone="no"?>
<svg width="1536px" height="1536px" version="1.1" xmlns="http://www.w3.org/2000/svg">
    <path transform="scale(1, -1) translate(0, -1536)" glyph-name="linode" unicode="&#xf2b8;" 

d="M330 1l202 -214l-34 236l-216 213zM556 -225l274 218l-11 245l-300 -215zM245 413l227 -213l-48 327l-245 204zM495 189l317 214l-14 324l-352 -200zM843 178l95 -80l-2 239l-103 79c0 -8 4 -22 -4 -28l-78 -52l85 -70c10 -8 7 -76 7 -88zM138 930l256 -200l-68 465
l-279 173zM1173 267l15 234l-230 -164l2 -240zM417 722l373 194l-19 441l-423 -163zM1270 357l20 233l-226 142l-2 -105l144 -95c3 -2 5 -6 4 -9l-7 -119zM1461 496l30 222l-179 -128l-20 -228zM1273 329l-71 49l-8 -117c0 -3 -1 -6 -4 -8l-234 -187c-4 -3 -10 -3 -14 0
l-98 83l7 -161c0 -3 -1 -6 -4 -8l-293 -234c-2 -1 -4 -2 -6 -2c-3 1 -6 1 -8 3l-228 242c-5 5 -54 252 -59 277c-1 4 2 9 5 11l61 37c-12 11 -93 82 -95 92l-72 351c-1 4 1 9 6 12l94 45c-16 12 -132 96 -135 108l-96 466c-1 6 2 11 7 13l433 135c2 0 5 0 8 -1l317 -153
c3 -2 6 -6 6 -9l20 -463c0 -4 -2 -8 -6 -10l-118 -61l126 -85c3 -1 5 -5 5 -8l5 -123l121 74c3 2 8 2 11 0l84 -56l3 110c0 3 2 7 5 9l206 126c4 2 8 2 11 0l245 -135c2 -2 4 -4 5 -7c2 -7 -31 -232 -34 -255c0 -3 -2 -6 -4 -7l-191 -153c-4 -3 -9 -3 -13 0z" />
</svg>