<?xml version="1.0" standalone="no"?>
<svg width="1536px" height="1536px" version="1.1" xmlns="http://www.w3.org/2000/svg">
    <path transform="scale(1, -1) translate(0, -1536)" glyph-name="linux" unicode="&#xf17c;" 

d="M663 1125v0c-20 -2 -13 -20 -24 -20c-10 -1 -8 22 24 20zM750 1111c-10 -3 -11 16 -29 11v0c29 13 39 -7 29 -11zM399 684c-9 3 -7 -15 -16 -29c-7 -13 -25 -23 -11 -25v0c5 -1 19 11 25 25c5 17 10 26 2 29zM1254 325c0 18 -39 35 -55 42c27 90 15 126 -3 211
c-14 64 -73 151 -119 178c12 -10 34 -39 57 -83c40 -75 80 -186 54 -278c-10 -36 -34 -41 -50 -42c-70 -8 -29 84 -58 209c-33 140 -67 150 -75 161c-41 182 -86 164 -99 232c-11 61 53 111 -34 128c-27 5 -65 32 -80 34s-23 101 33 104c55 4 65 -62 55 -88
c-16 -26 1 -36 28 -27c22 7 8 65 13 73c-14 84 -49 96 -85 103c-138 -11 -76 -163 -90 -149c-20 21 -78 2 -78 15c1 78 -25 123 -61 124c-40 1 -56 -55 -58 -87c-3 -30 17 -93 32 -88c10 3 27 23 9 22c-9 0 -23 22 -25 48c-1 26 9 52 43 51c39 -1 39 -79 35 -82
c-13 -9 -29 -26 -31 -29c-13 -21 -38 -27 -48 -36c-17 -18 -21 -38 -8 -45c46 -26 31 -56 95 -58c42 -2 73 6 102 15c22 7 93 22 108 48c7 11 15 11 20 8c10 -5 12 -24 -13 -30c-35 -10 -70 -29 -102 -41c-31 -13 -41 -18 -70 -23c-66 -12 -115 24 -71 -19
c15 -14 29 -23 67 -22c84 3 177 104 186 59c2 -10 -26 -22 -48 -33c-78 -38 -133 -114 -183 -88c-45 24 -90 135 -89 85c1 -77 -101 -145 -54 -233c-31 -8 -100 -155 -110 -231c-6 -44 4 -98 -7 -128c-15 -44 -83 42 -61 147c4 18 0 22 -5 13c-27 -49 -12 -118 10 -166
c9 -21 32 -30 49 -48c35 -40 173 -142 197 -167c31 -29 22 -97 -42 -104v0c33 -62 65 -68 64 -169c38 20 23 64 7 92c-11 20 -25 29 -22 34c2 3 22 20 33 7c34 -38 98 -45 166 -36c69 8 143 32 177 87c16 26 27 35 34 30c8 -4 11 -22 10 -52c-1 -32 -14 -65 -23 -92
c-9 -31 -12 -52 18 -53c8 56 24 111 28 167c5 64 -41 182 9 241c13 16 29 18 51 18c3 80 126 74 167 41zM626 1152c4 25 -8 43 -14 45c-12 3 -10 -15 -4 -13v0c4 0 9 -6 7 -15c-2 -12 -1 -20 8 -20c1 0 3 0 3 3zM1045 955c-4 19 -18 12 -34 22c-19 12 -23 32 -30 25v0
c-21 -23 26 -71 46 -75c12 -2 21 14 18 28zM867 1168c1 24 -20 36 -25 35c-13 -1 -9 -7 -3 -9v0c8 -2 16 -16 18 -31c0 -2 10 2 10 5zM921 1401c1 5 -12 11 -21 18c-8 8 -16 15 -24 15c-20 -2 -10 -23 -13 -33v0c-4 -11 -19 -20 -9 -28c9 -7 15 11 34 18c5 2 28 -1 33 10z
M1486 60c123 -76 -46 -139 -119 -176c-57 -29 -133 -93 -161 -120c-21 -20 -108 -30 -157 -5c-57 29 -27 75 -115 78c-44 1 -87 1 -130 1c-38 -1 -76 -3 -115 -4c-132 -3 -145 -88 -230 -85c-58 2 -131 48 -257 74c-88 18 -173 23 -191 62s22 83 25 121c3 51 -38 120 -8 146
c26 23 81 6 117 26c38 22 54 39 54 86c14 -48 -1 -87 -32 -106c-19 -12 -54 -18 -83 -15c-23 2 -37 -1 -43 -10c-9 -11 -6 -31 5 -57s24 -43 22 -75c-1 -32 -37 -70 -31 -97c2 -10 12 -19 37 -26c40 -11 113 -22 184 -39c79 -20 161 -56 212 -49c152 21 65 184 41 223v0
c-129 202 -214 334 -282 282c-17 -14 -18 34 -17 53c3 66 36 90 56 141c38 97 67 208 125 265c43 56 111 147 124 195c-11 104 -14 214 -16 310c-2 103 14 193 130 256c28 15 65 21 104 21c69 1 146 -19 195 -55c78 -58 127 -181 121 -269c-4 -69 8 -140 30 -214
c26 -87 67 -148 133 -218c79 -84 141 -249 159 -354c16 -98 -6 -159 -27 -162c-32 -5 -52 -106 -152 -102c-64 3 -70 41 -88 74c-29 51 -58 35 -69 -19c-6 -27 -2 -67 7 -97c18 -63 12 -122 1 -195c-21 -138 97 -164 176 -98c78 65 95 75 193 109c149 51 99 96 19 123
c-72 24 -75 145 -49 168c6 -130 74 -149 102 -167z" />
</svg>