<svg width="1536" height="1536" xmlns="http://www.w3.org/2000/svg">
    <path d="M663 411c-20 2-13 20-24 20-10 1-8-22 24-20zm87 14c-10 3-11-16-29-11 29-13 39 7 29 11zM399 852c-9-3-7 15-16 29-7 13-25 23-11 25 5 1 19-11 25-25 5-17 10-26 2-29zm855 359c0-18-39-35-55-42 27-90 15-126-3-211-14-64-73-151-119-178 12 10 34 39 57 83 40 75 80 186 54 278-10 36-34 41-50 42-70 8-29-84-58-209-33-140-67-150-75-161-41-182-86-164-99-232-11-61 53-111-34-128-27-5-65-32-80-34s-23-101 33-104c55-4 65 62 55 88-16 26 1 36 28 27 22-7 8-65 13-73-14-84-49-96-85-103-138 11-76 163-90 149-20-21-78-2-78-15 1-78-25-123-61-124-40-1-56 55-58 87-3 30 17 93 32 88 10-3 27-23 9-22-9 0-23-22-25-48-1-26 9-52 43-51 39 1 39 79 35 82-13 9-29 26-31 29-13 21-38 27-48 36-17 18-21 38-8 45 46 26 31 56 95 58 42 2 73-6 102-15 22-7 93-22 108-48 7-11 15-11 20-8 10 5 12 24-13 30-35 10-70 29-102 41-31 13-41 18-70 23-66 12-115-24-71 19 15 14 29 23 67 22 84-3 177-104 186-59 2 10-26 22-48 33-78 38-133 114-183 88-45-24-90-135-89-85 1 77-101 145-54 233-31 8-100 155-110 231-6 44 4 98-7 128-15 44-83-42-61-147 4-18 0-22-5-13-27 49-12 118 10 166 9 21 32 30 49 48 35 40 173 142 197 167 31 29 22 97-42 104 33 62 65 68 64 169 38-20 23-64 7-92-11-20-25-29-22-34 2-3 22-20 33-7 34 38 98 45 166 36 69-8 143-32 177-87 16-26 27-35 34-30 8 4 11 22 10 52-1 32-14 65-23 92-9 31-12 52 18 53 8-56 24-111 28-167 5-64-41-182 9-241 13-16 29-18 51-18 3-80 126-74 167-41zM626 384c4-25-8-43-14-45-12-3-10 15-4 13 4 0 9 6 7 15-2 12-1 20 8 20 1 0 3 0 3-3zm419 197c-4-19-18-12-34-22-19-12-23-32-30-25-21 23 26 71 46 75 12 2 21-14 18-28zM867 368c1-24-20-36-25-35-13 1-9 7-3 9 8 2 16 16 18 31 0 2 10-2 10-5zm54-233c1-5-12-11-21-18-8-8-16-15-24-15-20 2-10 23-13 33-4 11-19 20-9 28 9 7 15-11 34-18 5-2 28 1 33-10zm565 1341c123 76-46 139-119 176-57 29-133 93-161 120-21 20-108 30-157 5-57-29-27-75-115-78-44-1-87-1-130-1-38 1-76 3-115 4-132 3-145 88-230 85-58-2-131-48-257-74-88-18-173-23-191-62s22-83 25-121c3-51-38-120-8-146 26-23 81-6 117-26 38-22 54-39 54-86 14 48-1 87-32 106-19 12-54 18-83 15-23-2-37 1-43 10-9 11-6 31 5 57s24 43 22 75c-1 32-37 70-31 97 2 10 12 19 37 26 40 11 113 22 184 39 79 20 161 56 212 49 152-21 65-184 41-223-129-202-214-334-282-282-17 14-18-34-17-53 3-66 36-90 56-141 38-97 67-208 125-265 43-56 111-147 124-195-11-104-14-214-16-310-2-103 14-193 130-256C659 6 696 0 735 0c69-1 146 19 195 55 78 58 127 181 121 269-4 69 8 140 30 214 26 87 67 148 133 218 79 84 141 249 159 354 16 98-6 159-27 162-32 5-52 106-152 102-64-3-70-41-88-74-29-51-58-35-69 19-6 27-2 67 7 97 18 63 12 122 1 195-21 138 97 164 176 98 78-65 95-75 193-109 149-51 99-96 19-123-72-24-75-145-49-168 6 130 74 149 102 167z"/>
</svg>
