<?xml version="1.0" standalone="no"?>
<svg width="1536px" height="1536px" version="1.1" xmlns="http://www.w3.org/2000/svg">
    <path transform="scale(1, -1) translate(0, -1536)" glyph-name="list_ul" unicode="&#xf0ca;" horiz-adv-x="1792" 

d="M384 128c0 -106 -86 -192 -192 -192s-192 86 -192 192s86 192 192 192s192 -86 192 -192zM384 640c0 -106 -86 -192 -192 -192s-192 86 -192 192s86 192 192 192s192 -86 192 -192zM1792 224v-192c0 -17 -15 -32 -32 -32h-1216c-17 0 -32 15 -32 32v192c0 17 15 32 32 32
h1216c17 0 32 -15 32 -32zM384 1152c0 -106 -86 -192 -192 -192s-192 86 -192 192s86 192 192 192s192 -86 192 -192zM1792 736v-192c0 -17 -15 -32 -32 -32h-1216c-17 0 -32 15 -32 32v192c0 17 15 32 32 32h1216c17 0 32 -15 32 -32zM1792 1248v-192
c0 -17 -15 -32 -32 -32h-1216c-17 0 -32 15 -32 32v192c0 17 15 32 32 32h1216c17 0 32 -15 32 -32z" />
</svg>