<?xml version="1.0" standalone="no"?>
<svg width="1536px" height="1536px" version="1.1" xmlns="http://www.w3.org/2000/svg">
    <path transform="scale(1, -1) translate(0, -1536)" glyph-name="list" unicode="&#xf03a;" horiz-adv-x="1792" 

d="M256 224v-192c0 -17 -15 -32 -32 -32h-192c-17 0 -32 15 -32 32v192c0 17 15 32 32 32h192c17 0 32 -15 32 -32zM256 608v-192c0 -17 -15 -32 -32 -32h-192c-17 0 -32 15 -32 32v192c0 17 15 32 32 32h192c17 0 32 -15 32 -32zM256 992v-192c0 -17 -15 -32 -32 -32h-192
c-17 0 -32 15 -32 32v192c0 17 15 32 32 32h192c17 0 32 -15 32 -32zM1792 224v-192c0 -17 -15 -32 -32 -32h-1344c-17 0 -32 15 -32 32v192c0 17 15 32 32 32h1344c17 0 32 -15 32 -32zM256 1376v-192c0 -17 -15 -32 -32 -32h-192c-17 0 -32 15 -32 32v192
c0 17 15 32 32 32h192c17 0 32 -15 32 -32zM1792 608v-192c0 -17 -15 -32 -32 -32h-1344c-17 0 -32 15 -32 32v192c0 17 15 32 32 32h1344c17 0 32 -15 32 -32zM1792 992v-192c0 -17 -15 -32 -32 -32h-1344c-17 0 -32 15 -32 32v192c0 17 15 32 32 32h1344
c17 0 32 -15 32 -32zM1792 1376v-192c0 -17 -15 -32 -32 -32h-1344c-17 0 -32 15 -32 32v192c0 17 15 32 32 32h1344c17 0 32 -15 32 -32z" />
</svg>