<?xml version="1.0" standalone="no"?>
<svg width="1536px" height="1536px" version="1.1" xmlns="http://www.w3.org/2000/svg">
    <path transform="scale(1, -1) translate(0, -1536)" glyph-name="list_alt" unicode="&#xf022;" horiz-adv-x="1792" 

d="M384 352v-64c0 -17 -15 -32 -32 -32h-64c-17 0 -32 15 -32 32v64c0 17 15 32 32 32h64c17 0 32 -15 32 -32zM384 608v-64c0 -17 -15 -32 -32 -32h-64c-17 0 -32 15 -32 32v64c0 17 15 32 32 32h64c17 0 32 -15 32 -32zM384 864v-64c0 -17 -15 -32 -32 -32h-64
c-17 0 -32 15 -32 32v64c0 17 15 32 32 32h64c17 0 32 -15 32 -32zM1536 352v-64c0 -17 -15 -32 -32 -32h-960c-17 0 -32 15 -32 32v64c0 17 15 32 32 32h960c17 0 32 -15 32 -32zM1536 608v-64c0 -17 -15 -32 -32 -32h-960c-17 0 -32 15 -32 32v64c0 17 15 32 32 32h960
c17 0 32 -15 32 -32zM1536 864v-64c0 -17 -15 -32 -32 -32h-960c-17 0 -32 15 -32 32v64c0 17 15 32 32 32h960c17 0 32 -15 32 -32zM1664 160v832c0 17 -15 32 -32 32h-1472c-17 0 -32 -15 -32 -32v-832c0 -17 15 -32 32 -32h1472c17 0 32 15 32 32zM1792 1248v-1088
c0 -88 -72 -160 -160 -160h-1472c-88 0 -160 72 -160 160v1088c0 88 72 160 160 160h1472c88 0 160 -72 160 -160z" />
</svg>