<svg width="1536" height="1536" xmlns="http://www.w3.org/2000/svg">
    <path d="M384 1184v64c0 17-15 32-32 32h-64c-17 0-32-15-32-32v-64c0-17 15-32 32-32h64c17 0 32 15 32 32zm0-256v64c0 17-15 32-32 32h-64c-17 0-32-15-32-32v-64c0-17 15-32 32-32h64c17 0 32 15 32 32zm0-256v64c0 17-15 32-32 32h-64c-17 0-32-15-32-32v-64c0-17 15-32 32-32h64c17 0 32 15 32 32zm1152 512v64c0 17-15 32-32 32H544c-17 0-32-15-32-32v-64c0-17 15-32 32-32h960c17 0 32 15 32 32zm0-256v64c0 17-15 32-32 32H544c-17 0-32-15-32-32v-64c0-17 15-32 32-32h960c17 0 32 15 32 32zm0-256v64c0 17-15 32-32 32H544c-17 0-32-15-32-32v-64c0-17 15-32 32-32h960c17 0 32 15 32 32zm128 704V544c0-17-15-32-32-32H160c-17 0-32 15-32 32v832c0 17 15 32 32 32h1472c17 0 32-15 32-32zm128-1088v1088c0 88-72 160-160 160H160c-88 0-160-72-160-160V288c0-88 72-160 160-160h1472c88 0 160 72 160 160z"/>
</svg>
