<svg width="1536" height="1536" xmlns="http://www.w3.org/2000/svg">
    <path d="M384 1408c0 106-86 192-192 192S0 1514 0 1408s86-192 192-192 192 86 192 192zm0-512c0 106-86 192-192 192S0 1002 0 896s86-192 192-192 192 86 192 192zm1408 416v192c0 17-15 32-32 32H544c-17 0-32-15-32-32v-192c0-17 15-32 32-32h1216c17 0 32 15 32 32zM384 384c0 106-86 192-192 192S0 490 0 384s86-192 192-192 192 86 192 192zm1408 416v192c0 17-15 32-32 32H544c-17 0-32-15-32-32V800c0-17 15-32 32-32h1216c17 0 32 15 32 32zm0-512v192c0 17-15 32-32 32H544c-17 0-32-15-32-32V288c0-17 15-32 32-32h1216c17 0 32 15 32 32z"/>
</svg>
