<?xml version="1.0" standalone="no"?>
<svg width="1536px" height="1536px" version="1.1" xmlns="http://www.w3.org/2000/svg">
    <path transform="scale(1, -1) translate(0, -1536)" glyph-name="list_ol" unicode="&#xf0cb;" horiz-adv-x="1792" 

d="M381 -84c0 -110 -86 -172 -190 -172c-63 0 -127 21 -172 66l57 88c27 -25 68 -45 106 -45c35 0 72 17 72 57c0 56 -64 59 -105 56l-26 56c36 46 69 97 112 136v1c-32 0 -65 -2 -97 -2v-53h-106v152h333v-88l-95 -115c67 -16 111 -68 111 -137zM383 543v-159h-362
c-3 18 -6 36 -6 54c0 185 226 213 226 297c0 34 -21 52 -54 52c-35 0 -64 -30 -81 -58l-85 59c33 69 101 108 177 108c93 0 173 -55 173 -154c0 -148 -217 -181 -220 -259h127v60h105zM1792 224v-192c0 -17 -15 -32 -32 -32h-1216c-18 0 -32 15 -32 32v192c0 18 14 32 32 32
h1216c17 0 32 -14 32 -32zM384 1123v-99h-335v99h107c0 81 1 162 1 243v12h-2c-11 -22 -31 -37 -50 -54l-71 76l136 127h106v-404h108zM1792 736v-192c0 -17 -15 -32 -32 -32h-1216c-18 0 -32 15 -32 32v192c0 18 14 32 32 32h1216c17 0 32 -14 32 -32zM1792 1248v-192
c0 -17 -15 -32 -32 -32h-1216c-18 0 -32 15 -32 32v192c0 17 14 32 32 32h1216c17 0 32 -15 32 -32z" />
</svg>