<svg width="1536" height="1536" xmlns="http://www.w3.org/2000/svg">
    <path d="M381 1620c0 110-86 172-190 172-63 0-127-21-172-66l57-88c27 25 68 45 106 45 35 0 72-17 72-57 0-56-64-59-105-56l-26-56c36-46 69-97 112-136v-1c-32 0-65 2-97 2v53H32v-152h333v88l-95 115c67 16 111 68 111 137zm2-627v159H21c-3-18-6-36-6-54 0-185 226-213 226-297 0-34-21-52-54-52-35 0-64 30-81 58l-85-59c33-69 101-108 177-108 93 0 173 55 173 154 0 148-217 181-220 259h127v-60h105zm1409 319v192c0 17-15 32-32 32H544c-18 0-32-15-32-32v-192c0-18 14-32 32-32h1216c17 0 32 14 32 32zM384 413v99H49v-99h107c0-81 1-162 1-243v-12h-2c-11 22-31 37-50 54l-71-76L170 9h106v404h108zm1408 387v192c0 17-15 32-32 32H544c-18 0-32-15-32-32V800c0-18 14-32 32-32h1216c17 0 32 14 32 32zm0-512v192c0 17-15 32-32 32H544c-18 0-32-15-32-32V288c0-17 14-32 32-32h1216c17 0 32 15 32 32z"/>
</svg>
