<?xml version="1.0" standalone="no"?>
<svg width="1536px" height="1536px" version="1.1" xmlns="http://www.w3.org/2000/svg">
    <path transform="scale(1, -1) translate(0, -1536)" glyph-name="low_vision" unicode="&#xf2a8;" horiz-adv-x="1792" 

d="M335 180c-2 0 -4 1 -6 2c-117 78 -234 206 -308 325c-14 20 -21 44 -21 69c0 52 36 94 65 133c116 158 271 288 452 365c-15 27 -110 193 -110 211c0 12 7 23 17 29c20 11 110 64 128 64c11 0 22 -6 28 -16l124 -229c63 13 128 19 192 19c362 0 684 -205 876 -507
c13 -20 20 -44 20 -69s-7 -49 -20 -69c-119 -187 -293 -342 -497 -429c15 -27 110 -193 110 -211c0 -12 -6 -23 -17 -29c-20 -11 -110 -64 -127 -64c-12 0 -23 6 -29 16l-124 229l-64 119l-444 820l7 7c-34 -14 -67 -29 -99 -47c12 -23 489 -899 489 -906c0 -5 -4 -8 -9 -9
c-22 -5 -50 -3 -72 -3c-11 0 -56 -2 -60 7l-456 841c-29 -21 -56 -44 -82 -68c22 -39 404 -742 404 -748c0 -8 -5 -10 -11 -10c-17 0 -150 41 -155 50l-106 197l-224 413c-28 -34 -54 -69 -78 -106c13 -19 30 -39 41 -59c14 -26 176 -321 176 -327c0 -5 -5 -10 -10 -10z
M1165 282l49 -91c187 76 341 216 450 385c-111 171 -269 313 -459 389c89 -85 139 -202 139 -325c0 -141 -66 -274 -179 -358zM848 896c0 -26 22 -48 48 -48c55 0 108 -22 147 -61s61 -92 61 -147c0 -26 22 -48 48 -48s48 22 48 48c0 168 -136 304 -304 304
c-26 0 -48 -22 -48 -48zM1214 961l-9 4l7 -7z" />
</svg>