<svg width="1536" height="1536" xmlns="http://www.w3.org/2000/svg">
    <path d="M335 1356c-2 0-4-1-6-2-117-78-234-206-308-325-14-20-21-44-21-69 0-52 36-94 65-133 116-158 271-288 452-365-15-27-110-193-110-211 0-12 7-23 17-29 20-11 110-64 128-64 11 0 22 6 28 16l124 229c63-13 128-19 192-19 362 0 684 205 876 507 13 20 20 44 20 69s-7 49-20 69c-119 187-293 342-497 429 15 27 110 193 110 211 0 12-6 23-17 29-20 11-110 64-127 64-12 0-23-6-29-16l-124-229-64-119-444-820 7-7c-34 14-67 29-99 47 12 23 489 899 489 906 0 5-4 8-9 9-22 5-50 3-72 3-11 0-56 2-60-7L380 688c-29 21-56 44-82 68 22 39 404 742 404 748 0 8-5 10-11 10-17 0-150-41-155-50l-106-197-224-413c-28 34-54 69-78 106 13 19 30 39 41 59 14 26 176 321 176 327 0 5-5 10-10 10zm830-102l49 91c187-76 341-216 450-385-111-171-269-313-459-389 89 85 139 202 139 325 0 141-66 274-179 358zM848 640c0 26 22 48 48 48 55 0 108 22 147 61s61 92 61 147c0 26 22 48 48 48s48-22 48-48c0-168-136-304-304-304-26 0-48 22-48 48zm366-65l-9-4 7 7z"/>
</svg>
