<svg xmlns="http://www.w3.org/2000/svg" width="1536" height="1792" viewBox="0 0 1536 1792">
    <path d="M3.555 1692.331V1563.09h168.599L349.288 215.37h-168.6V86.13h677.928v129.24H689.134L512 1546h519.038v-252.074h119.167v398.405z"/>
    <path d="M959.01 556.262L-3.113 918.99l.064 8.12 2.086 259.62 959.328-362.654zm-23.354 33.676l-.523 218.04-913.094 345.178-1.752-218.117z"/>
    <path d="M579.794 947.215c.972-6.28 8.39-61.876 16.486-123.546 8.095-61.67 15.64-113.053 16.764-114.184 2.337-2.35 326.548-126.316 330.356-126.316 1.372 0 2.489 52.784 2.482 117.297l-.011 117.297-181.118 69.345a664364.23 664364.23 0 0 0-183.922 70.435c-1.68.653-2.095-3.492-1.037-10.328zm-560.73 107.083c-.018-56.798-.756-107.757-1.642-113.24l-1.61-9.971 129.839-48.834c101.937-38.34 129.816-47.828 129.739-44.157-.189 8.97-30.557 234.275-31.736 235.454-1.751 1.751-219.23 84.018-222.108 84.018-1.348 0-2.465-46.472-2.482-103.27z"/>
</svg>
