<?xml version="1.0" standalone="no"?>
<svg width="1536px" height="1536px" version="1.1" xmlns="http://www.w3.org/2000/svg">
    <path transform="scale(1, -1) translate(0, -1536)" glyph-name="magic" unicode="&#xf0d0;" horiz-adv-x="1664" 

d="M1190 955l293 293l-107 107l-293 -293zM1637 1248c0 -17 -6 -33 -18 -45l-1286 -1286c-12 -12 -28 -18 -45 -18s-33 6 -45 18l-198 198c-12 12 -18 28 -18 45s6 33 18 45l1286 1286c12 12 28 18 45 18s33 -6 45 -18l198 -198c12 -12 18 -28 18 -45zM286 1438l98 -30
l-98 -30l-30 -98l-30 98l-98 30l98 30l30 98zM636 1276l196 -60l-196 -60l-60 -196l-60 196l-196 60l196 60l60 196zM1566 798l98 -30l-98 -30l-30 -98l-30 98l-98 30l98 30l30 98zM926 1438l98 -30l-98 -30l-30 -98l-30 98l-98 30l98 30l30 98z" />
</svg>