<svg width="1536" height="1536" xmlns="http://www.w3.org/2000/svg">
    <path d="M1190 581l293-293-107-107-293 293zm447-293c0 17-6 33-18 45L333 1619c-12 12-28 18-45 18s-33-6-45-18L45 1421c-12-12-18-28-18-45s6-33 18-45L1331 45c12-12 28-18 45-18s33 6 45 18l198 198c12 12 18 28 18 45zM286 98l98 30-98 30-30 98-30-98-98-30 98-30 30-98zm350 162l196 60-196 60-60 196-60-196-196-60 196-60 60-196zm930 478l98 30-98 30-30 98-30-98-98-30 98-30 30-98zM926 98l98 30-98 30-30 98-30-98-98-30 98-30 30-98z"/>
</svg>
