<?xml version="1.0" standalone="no"?>
<svg width="1536px" height="1536px" version="1.1" xmlns="http://www.w3.org/2000/svg">
    <path transform="scale(1, -1) translate(0, -1536)" glyph-name="magnet" unicode="&#xf076;" 

d="M1536 704v-128c0 -408 -323 -704 -768 -704s-768 296 -768 704v128c0 35 29 64 64 64h384c35 0 64 -29 64 -64v-128c0 -183 213 -192 256 -192s256 9 256 192v128c0 35 29 64 64 64h384c35 0 64 -29 64 -64zM512 1344v-384c0 -35 -29 -64 -64 -64h-384
c-35 0 -64 29 -64 64v384c0 35 29 64 64 64h384c35 0 64 -29 64 -64zM1536 1344v-384c0 -35 -29 -64 -64 -64h-384c-35 0 -64 29 -64 64v384c0 35 29 64 64 64h384c35 0 64 -29 64 -64z" />
</svg>