<?xml version="1.0" standalone="no"?>
<svg width="1536px" height="1536px" version="1.1" xmlns="http://www.w3.org/2000/svg">
    <path transform="scale(1, -1) translate(0, -1536)" glyph-name="male" unicode="&#xf183;" horiz-adv-x="1024" 

d="M1024 832v-416c0 -53 -43 -96 -96 -96s-96 43 -96 96v352h-64v-912c0 -62 -50 -112 -112 -112s-112 50 -112 112v464h-64v-464c0 -62 -50 -112 -112 -112s-112 50 -112 112v912h-64v-352c0 -53 -43 -96 -96 -96s-96 43 -96 96v416c0 106 86 192 192 192h640
c106 0 192 -86 192 -192zM736 1280c0 -124 -100 -224 -224 -224s-224 100 -224 224s100 224 224 224s224 -100 224 -224z" />
</svg>