<?xml version="1.0" standalone="no"?>
<svg width="1536px" height="1536px" version="1.1" xmlns="http://www.w3.org/2000/svg">
    <path transform="scale(1, -1) translate(0, -1536)" glyph-name="map_signs" unicode="&#xf277;" horiz-adv-x="1792" 

d="M1745 1239c13 -13 13 -33 0 -46l-141 -141c-18 -18 -43 -28 -68 -28h-1344c-35 0 -64 29 -64 64v256c0 35 29 64 64 64h576v64c0 35 29 64 64 64h128c35 0 64 -29 64 -64v-64h512c25 0 50 -10 68 -28zM768 320h256v-512c0 -35 -29 -64 -64 -64h-128c-35 0 -64 29 -64 64
v512zM1600 768c35 0 64 -29 64 -64v-256c0 -35 -29 -64 -64 -64h-1344c-25 0 -50 10 -68 28l-141 141c-13 13 -13 33 0 46l141 141c18 18 43 28 68 28h512v192h256v-192h576z" />
</svg>