<?xml version="1.0" standalone="no"?>
<svg width="1536px" height="1536px" version="1.1" xmlns="http://www.w3.org/2000/svg">
    <path transform="scale(1, -1) translate(0, -1536)" glyph-name="map" unicode="&#xf279;" horiz-adv-x="1792" 

d="M512 1536c17 0 32 -15 32 -32v-1472c0 -12 -7 -23 -17 -28l-480 -256c-5 -3 -10 -4 -15 -4c-17 0 -32 15 -32 32v1472c0 12 7 23 17 28l480 256c5 3 10 4 15 4zM1760 1536c17 0 32 -15 32 -32v-1472c0 -12 -7 -23 -17 -28l-480 -256c-5 -3 -10 -4 -15 -4
c-17 0 -32 15 -32 32v1472c0 12 7 23 17 28l480 256c5 3 10 4 15 4zM640 1536c5 0 10 -1 14 -3l512 -256c11 -6 18 -17 18 -29v-1472c0 -17 -15 -32 -32 -32c-5 0 -10 1 -14 3l-512 256c-11 6 -18 17 -18 29v1472c0 17 15 32 32 32z" />
</svg>