<svg xmlns="http://www.w3.org/2000/svg" viewBox="0 0 1536 1792" height="1792" width="1536">
    <path d="M2279.093 181.288a32.595 32.595 0 0 0-22.04-7.761c-22.04 0-50.444 14.9-65.655 23.282l-6.13 3.104a208.063 208.063 0 0 1-82.03 20.643c-29.18.932-54.325 2.639-87.075 5.976-194.016 20.023-280.547 168.716-363.897 312.521-45.322 78.227-92.196 159.093-156.454 221.722a432.345 432.345 0 0 1-42.373 35.931c-66.509 49.59-150.013 84.591-215.28 109.58-62.629 23.903-130.845 45.4-196.888 66.199-60.378 19.013-117.496 36.94-169.958 56.497-23.67 8.77-43.77 15.522-61.542 21.42-47.728 15.521-82.263 27.395-132.552 62.085-19.634 13.426-39.346 27.938-52.772 38.803a553.023 553.023 0 0 0-105.079 110.744 658.18 658.18 0 0 1-88.238 106.244c-10.555 10.399-29.49 15.52-57.662 15.52-33.138 0-73.183-6.829-115.711-14.046-42.528-7.217-88.937-15.521-127.74-15.521-31.586 0-55.644 5.122-73.726 15.521 0 0-30.267 17.694-43.15 40.588l12.573 5.666a260.447 260.447 0 0 1 53.78 38.803 261.378 261.378 0 0 0 55.8 39.734 49.435 49.435 0 0 1 17.384 11.253c-5.355 7.76-13.116 17.772-21.264 28.482-44.78 58.593-70.855 95.61-55.877 115.789a46.564 46.564 0 0 0 23.282 5.277c97.706 0 150.09-25.377 216.522-57.507 19.169-9.312 38.803-18.935 62.085-28.714 38.803-16.84 80.555-43.692 124.791-72.096 58.593-37.64 119.203-76.598 177.874-95.456a483.488 483.488 0 0 1 149.237-20.954c62.085 0 127.43 8.304 190.446 16.375 47.03 6.053 95.611 12.262 143.34 15.521 18.547 1.087 35.698 1.63 52.461 1.63a609.055 609.055 0 0 0 66.82-3.492l5.276-1.863c33.526-20.565 49.203-64.724 64.336-107.407 9.779-27.473 18.005-52.152 31.043-67.828a15.987 15.987 0 0 1 2.56-2.096 3.104 3.104 0 0 1 3.803.621 1.94 1.94 0 0 1 0 1.242c-7.76 166.932-75.045 272.864-142.95 367.078l-46.099 48.35s63.482 0 99.647-13.97c131.93-39.424 231.577-126.343 304.062-264.948a1120.559 1120.559 0 0 0 47.805-109.348c1.242-3.104 12.728-8.847 11.564 7.218 0 4.734-.621 10.01-1.01 15.521 0 3.26-.465 6.597-.62 9.934-1.94 23.281-7.76 72.484-7.76 72.484l40.743-21.807c98.25-62.085 173.993-187.342 231.422-382.212 23.98-81.176 41.442-161.81 56.885-232.82 18.47-85.366 34.38-158.55 52.618-186.953 28.636-44.546 72.329-74.657 114.624-103.915 5.82-3.958 11.564-7.76 17.229-11.951 53.238-37.33 106.088-80.4 117.651-160.723v-1.785c8.847-59.912 1.63-74.813-6.13-82.185z" class="cls-1"/>
</svg>
