<svg xmlns="http://www.w3.org/2000/svg" viewBox="0 0 1536 1792" height="1792" width="1536">
    <path d="M2116.067 204.814H177.333c-90.086 0-163.376 73.29-163.376 163.376v1089.177c0 90.09 73.29 163.376 163.376 163.376h1938.734c90.09 0 163.376-73.285 163.376-163.376V368.19c0-90.086-73.285-163.376-163.376-163.376zm-827.774 1132.467l-283.186.276V912.78l-212.389 272.294-212.39-272.294v424.778H297.144V488H580.33l212.389 283.186L1005.108 488l283.185-.277zm422.768 70.796L1359.089 912.78h212.39V488h283.186v424.779h212.389z"/>
</svg>
