<svg width="1536" height="1536" xmlns="http://www.w3.org/2000/svg">
    <path d="M1472 128c35 0 64 29 64 64v416c0 18-14 32-32 32h-64c-18 0-32-14-32-32V346l-213 214 140 140c12 13 12 33 0 45l-46 46c-12 12-32 12-45 0l-140-141-78 79c79 98 126 223 126 359 0 318-258 576-576 576S0 1406 0 1088s258-576 576-576c136 0 261 47 359 126l78-78-172-172c-12-13-12-33 0-45l46-46c12-12 32-12 45 0l172 172 213-213h-261c-18 0-32-14-32-32v-64c0-18 14-32 32-32h416zM576 1536c247 0 448-201 448-448S823 640 576 640s-448 201-448 448 201 448 448 448z"/>
</svg>
