<svg width="1536" height="1536" xmlns="http://www.w3.org/2000/svg">
    <path d="M1536 416c0-18 14-32 32-32h288c35 0 64 29 64 64v288c0 18-14 32-32 32h-64c-18 0-32-14-32-32V602l-254 255c98 123 147 286 117 461-42 243-240 434-484 468-286 40-539-131-626-380-316-16-565-288-544-613 18-274 235-502 508-533 161-19 311 31 426 122l255-254h-134c-18 0-32-14-32-32V32c0-18 14-32 32-32h288c35 0 64 29 64 64v288c0 18-14 32-32 32h-64c-18 0-32-14-32-32V218l-254 255c40 50 71 107 93 169 124 6 237 52 328 124l255-254h-134c-18 0-32-14-32-32v-64zm-512 416c0-20-2-39-4-58-215 33-380 218-380 442 0 20 2 39 4 58 215-33 380-218 380-442zm-896 0c0 226 169 413 387 443-2-19-3-39-3-59 0-282 204-517 473-566-70-157-227-266-409-266-247 0-448 201-448 448zm960 832c247 0 448-201 448-448 0-226-169-413-387-443 2 19 3 39 3 59 0 282-204 517-473 566 70 157 227 266 409 266z"/>
</svg>
