<?xml version="1.0" standalone="no"?>
<svg width="1536px" height="1536px" version="1.1" xmlns="http://www.w3.org/2000/svg">
    <path transform="scale(1, -1) translate(0, -1536)" glyph-name="mars_stroke_h" unicode="&#xf22b;" horiz-adv-x="2048" 

d="M1901 621c25 -25 25 -65 0 -90l-294 -294c-12 -13 -33 -13 -45 0l-45 45c-13 12 -13 33 0 45l185 185h-294v-224c0 -18 -14 -32 -32 -32h-64c-18 0 -32 14 -32 32v224h-132c-32 -288 -276 -512 -572 -512c-340 0 -611 294 -572 642c30 270 253 486 525 508
c317 25 586 -207 619 -510h132v224c0 18 14 32 32 32h64c18 0 32 -14 32 -32v-224h294l-185 185c-13 12 -13 33 0 45l45 45c12 13 33 13 45 0zM576 128c247 0 448 201 448 448s-201 448 -448 448s-448 -201 -448 -448s201 -448 448 -448z" />
</svg>