<?xml version="1.0" standalone="no"?>
<svg width="1536px" height="1536px" version="1.1" xmlns="http://www.w3.org/2000/svg">
    <path transform="scale(1, -1) translate(0, -1536)" glyph-name="mars_stroke_v" unicode="&#xf22a;" horiz-adv-x="1280" 

d="M640 892c288 -32 512 -276 512 -572c0 -340 -294 -611 -642 -572c-270 30 -486 253 -508 525c-25 317 207 586 510 619v132h-160c-18 0 -32 14 -32 32v64c0 18 14 32 32 32h160v165l-92 -92c-13 -12 -33 -12 -45 0l-46 46c-12 12 -12 32 0 45l202 201c25 25 65 25 90 0
l202 -201c12 -13 12 -33 0 -45l-46 -46c-12 -12 -32 -12 -45 0l-92 92v-165h160c18 0 32 -14 32 -32v-64c0 -18 -14 -32 -32 -32h-160v-132zM576 -128c247 0 448 201 448 448s-201 448 -448 448s-448 -201 -448 -448s201 -448 448 -448z" />
</svg>