<svg width="1536" height="1536" xmlns="http://www.w3.org/2000/svg">
    <path d="M1901 915c25 25 25 65 0 90l-294 294c-12 13-33 13-45 0l-45-45c-13-12-13-33 0-45l185-185h-294v224c0 18-14 32-32 32h-64c-18 0-32-14-32-32v-224h-132c-32 288-276 512-572 512-340 0-611-294-572-642 30-270 253-486 525-508 317-25 586 207 619 510h132V672c0-18 14-32 32-32h64c18 0 32 14 32 32v224h294l-185-185c-13-12-13-33 0-45l45-45c12-13 33-13 45 0zM576 1408c247 0 448-201 448-448S823 512 576 512 128 713 128 960s201 448 448 448z"/>
</svg>
