<?xml version="1.0" standalone="no"?>
<svg width="1536px" height="1536px" version="1.1" xmlns="http://www.w3.org/2000/svg">
    <path transform="scale(1, -1) translate(0, -1536)" glyph-name="mars" unicode="&#xf222;" 

d="M1472 1408c35 0 64 -29 64 -64v-416c0 -18 -14 -32 -32 -32h-64c-18 0 -32 14 -32 32v262l-382 -383c79 -98 126 -223 126 -359c0 -318 -258 -576 -576 -576s-576 258 -576 576s258 576 576 576c136 0 261 -47 359 -126l382 382h-261c-18 0 -32 14 -32 32v64
c0 18 14 32 32 32h416zM576 0c247 0 448 201 448 448s-201 448 -448 448s-448 -201 -448 -448s201 -448 448 -448z" />
</svg>