<?xml version="1.0" standalone="no"?>
<svg width="1536px" height="1536px" version="1.1" xmlns="http://www.w3.org/2000/svg">
    <path transform="scale(1, -1) translate(0, -1536)" glyph-name="mars_double" unicode="&#xf227;" horiz-adv-x="1920" 

d="M1536 1120c0 18 14 32 32 32h288c35 0 64 -29 64 -64v-288c0 -18 -14 -32 -32 -32h-64c-18 0 -32 14 -32 32v134l-254 -255c98 -123 147 -286 117 -461c-42 -243 -240 -434 -484 -468c-286 -40 -539 131 -626 380c-316 16 -565 288 -544 613c18 274 235 502 508 533
c161 19 311 -31 426 -122l255 254h-134c-18 0 -32 14 -32 32v64c0 18 14 32 32 32h288c35 0 64 -29 64 -64v-288c0 -18 -14 -32 -32 -32h-64c-18 0 -32 14 -32 32v134l-254 -255c40 -50 71 -107 93 -169c124 -6 237 -52 328 -124l255 254h-134c-18 0 -32 14 -32 32v64z
M1024 704c0 20 -2 39 -4 58c-215 -33 -380 -218 -380 -442c0 -20 2 -39 4 -58c215 33 380 218 380 442zM128 704c0 -226 169 -413 387 -443c-2 19 -3 39 -3 59c0 282 204 517 473 566c-70 157 -227 266 -409 266c-247 0 -448 -201 -448 -448zM1088 -128
c247 0 448 201 448 448c0 226 -169 413 -387 443c2 -19 3 -39 3 -59c0 -282 -204 -517 -473 -566c70 -157 227 -266 409 -266z" />
</svg>