<svg width="1536" height="1536" xmlns="http://www.w3.org/2000/svg">
    <path d="M640 644c288 32 512 276 512 572 0 340-294 611-642 572-270-30-486-253-508-525-25-317 207-586 510-619V512H352c-18 0-32-14-32-32v-64c0-18 14-32 32-32h160V219l-92 92c-13 12-33 12-45 0l-46-46c-12-12-12-32 0-45L531 19c25-25 65-25 90 0l202 201c12 13 12 33 0 45l-46 46c-12 12-32 12-45 0l-92-92v165h160c18 0 32 14 32 32v64c0 18-14 32-32 32H640v132zm-64 1020c247 0 448-201 448-448S823 768 576 768s-448 201-448 448 201 448 448 448z"/>
</svg>
