<svg xmlns="http://www.w3.org/2000/svg" width="1536" height="1792" viewBox="0 0 1536 1792">
    <path d="M288 128C129 128 0 257 0 416v960c0 159 129 288 288 288h960c159 0 288-129 288-288V416c0-159-129-288-288-288H288zm478.38 219.105h3.45c140.347 1.148 275.434 16.34 354.104 52.473 0 0 156.027 69.805 156.027 307.95 0 0 1.957 175.702-21.76 297.69-15.053 77.44-134.816 162.191-272.367 178.616-71.725 8.558-142.346 16.423-217.65 12.969-123.152-5.642-220.329-29.395-220.329-29.395 0 11.989.739 23.404 2.217 34.08 16.01 121.539 120.515 128.819 219.508 132.213 99.915 3.418 188.88-24.633 188.88-24.633l4.106 90.327s-69.885 37.53-194.382 44.431c-68.65 3.774-153.892-1.726-253.174-28.006-215.325-56.993-252.197-286.524-258.022-519.412-1.728-69.147-.665-134.348-.662-188.88.01-238.144 156.033-307.95 156.033-307.95 78.674-36.133 213.675-51.326 354.022-52.473zM607.544 533.18c-50.528 0-91.234 17.76-122.314 52.408-30.14 34.649-45.145 81.48-45.145 140.412v288.354h114.238V734.476c0-59 24.824-88.944 74.477-88.944 54.9 0 82.42 35.524 82.42 105.766V904.49h113.566V751.3c0-70.242 27.516-105.764 82.414-105.764 49.652 0 74.477 29.945 74.477 88.944v279.876h114.238V726.003c0-58.933-14.473-106.234-45.139-140.412-31.086-34.648-71.792-52.408-122.314-52.408-58.466 0-102.735 22.468-132 67.414L768 648.295l-28.455-47.7c-29.271-44.946-73.542-67.415-132.002-67.415z"/>
</svg>
