<svg xmlns="http://www.w3.org/2000/svg" width="1536" height="1536" viewBox="0 0 1536.0001 1536">
    <path d="M773.62 128h5.224c212.734 1.74 417.487 24.77 536.733 79.538 0 0 236.512 105.803 236.512 466.776 0 0 2.963 266.335-32.988 451.242-22.826 117.381-204.352 245.837-412.847 270.735-108.73 12.973-215.75 24.904-329.903 19.667-186.672-8.552-333.98-44.559-333.98-44.559 0 18.172 1.12 35.48 3.361 51.66 24.27 184.226 182.676 195.254 332.734 200.4 151.44 5.183 286.296-37.331 286.296-37.331l6.22 136.914s-105.924 56.875-294.632 67.337c-104.058 5.72-233.26-2.613-383.752-42.445-326.385-86.387-382.516-434.295-391.104-787.31C-1.115 855.815.486 756.975.486 674.315c0-360.974 236.511-466.776 236.511-466.776 119.246-54.77 323.888-77.8 536.621-79.539zM354.05 702.75c-64.649 0-117.053 52.42-117.053 117.066 0 64.647 52.404 117.065 117.053 117.065 64.656 0 117.065-52.418 117.065-117.065 0-64.648-52.409-117.065-117.065-117.065zm422.02 0c-64.647 0-117.064 52.42-117.064 117.066 0 64.647 52.418 117.065 117.064 117.065 64.65 0 117.066-52.418 117.066-117.065 0-64.648-52.418-117.065-117.066-117.065zm422.017 0c-64.647 0-117.065 52.42-117.065 117.066 0 64.647 52.418 117.065 117.066 117.065 64.647 0 117.05-52.418 117.05-117.065 0-64.648-52.403-117.065-117.05-117.065z"/>
</svg>
