<svg xmlns="http://www.w3.org/2000/svg" width="1536" height="1536" viewBox="0 0 1536.0001 1536">
    <path d="M1519.108 1125.552c-22.816 117.38-204.35 245.842-412.845 270.738-108.72 12.972-215.764 24.895-329.909 19.66-186.67-8.552-333.969-44.556-333.969-44.556 0 18.172 1.121 35.475 3.363 51.657 24.268 184.225 182.673 195.26 332.723 200.406 151.448 5.18 286.3-37.34 286.3-37.34l6.222 136.916s-105.93 56.885-294.64 67.346c-104.057 5.72-233.263-2.617-383.752-42.45-326.383-86.388-382.274-434.304-391.103-787.31C-1.122 855.808.49 756.977.494 674.318c.01-360.972 236.51-466.78 236.51-466.78C356.256 152.77 560.886 129.739 773.62 128h5.228c212.733 1.74 417.496 24.77 536.742 79.539 0 0 236.5 105.806 236.5 466.779 0 0 2.966 266.327-32.983 451.234zm-245.988-423.23c0-89.33-21.94-161.026-68.423-212.833-47.12-52.518-108.818-79.44-185.399-79.44-88.62 0-155.724 34.058-200.083 102.185l-43.14 72.303-43.132-72.303c-44.367-68.127-111.473-102.185-200.085-102.185-76.589 0-138.287 26.922-185.399 79.44-45.685 52.519-68.43 123.504-68.43 212.833v437.077H452.19v-424.23c0-89.428 37.626-134.818 112.888-134.818 83.215 0 124.93 53.844 124.93 160.314V972.87h172.14V740.665c0-106.47 41.706-160.314 124.92-160.314 75.262 0 112.89 45.39 112.89 134.818v424.23h173.16V702.322z"/>
</svg>
