<svg xmlns="http://www.w3.org/2000/svg" width="1536" height="1792" viewBox="0 0 1536 1792">
    <path d="M765.571 128h5.17c210.52 1.722 413.144 24.512 531.149 78.71 0 0 234.051 104.703 234.051 461.92 0 0 2.933 263.564-32.644 446.547-22.589 116.16-202.226 243.279-408.552 267.918-107.6 12.839-213.506 24.646-326.471 19.463-184.73-8.464-330.505-44.096-330.505-44.096 0 17.984 1.108 35.11 3.326 51.122 24.017 182.31 180.775 193.224 329.272 198.315 149.864 5.13 283.317-36.941 283.317-36.941l6.156 135.49s-104.822 56.283-291.567 66.636c-102.975 5.66-230.833-2.586-379.76-42.004C65.525 1645.592 9.978 1301.304 1.48 951.961c-2.583-103.72-1-201.53-1-283.33 0-357.218 234.05-461.92 234.05-461.92 118.006-54.2 320.519-76.99 531.038-78.712zM350.367 696.77c-63.977 0-115.836 51.875-115.836 115.848 0 63.975 51.86 115.847 115.836 115.847 63.983 0 115.847-51.872 115.847-115.847 0-63.976-51.864-115.847-115.847-115.847zm417.629 0c-63.974 0-115.846 51.875-115.846 115.848 0 63.975 51.873 115.847 115.846 115.847 63.977 0 115.848-51.872 115.848-115.847 0-63.976-51.873-115.847-115.848-115.847zm417.626 0c-63.974 0-115.847 51.875-115.847 115.848 0 63.975 51.873 115.847 115.848 115.847s115.832-51.872 115.832-115.847c0-63.976-51.857-115.847-115.832-115.847z"/>
</svg>
