<?xml version="1.0" standalone="no"?>
<svg width="1536px" height="1536px" version="1.1" xmlns="http://www.w3.org/2000/svg">
    <path transform="scale(1, -1) translate(0, -1536)" glyph-name="mastodon" unicode="&#xf2e1;" horiz-adv-x="1792" 

d="M1635.96 461.714c-24.5713 -126.409 -220.07 -264.753 -444.602 -291.564c-117.083 -13.9697 -232.361 -26.8105 -355.286 -21.1729c-201.031 9.21094 -359.659 47.9844 -359.659 47.9844c0 -19.5703 1.20703 -38.2041 3.62109 -55.6309
c26.1348 -198.396 196.725 -210.28 358.317 -215.822c163.098 -5.58008 308.324 40.2119 308.324 40.2119l6.7002 -147.447s-114.08 -61.2598 -317.304 -72.5264c-112.062 -6.16016 -251.207 2.81836 -413.272 45.7148c-351.491 93.0332 -411.681 467.712 -421.188 847.872
c-2.82279 112.874 -1.08437 219.308 -1.08203 308.325c0.0101978 388.739 254.703 502.685 254.703 502.685c128.428 58.9814 348.798 83.7842 577.896 85.6572h5.62891c229.098 -1.87305 449.612 -26.6758 578.03 -85.6572c0 0 254.693 -113.945 254.693 -502.685
c0 0 3.19531 -286.814 -35.5205 -485.944zM1371.05 917.5c0 96.2002 -23.6274 173.412 -73.6855 229.204c-50.7451 56.5576 -117.189 85.5508 -199.66 85.5508c-95.4375 0 -167.703 -36.6777 -215.475 -110.045l-46.459 -77.8652l-46.4492 77.8652
c-47.7812 73.3672 -120.048 110.045 -215.476 110.045c-82.4805 0 -148.924 -28.9932 -199.66 -85.5508c-49.2002 -56.5576 -73.6943 -133.004 -73.6943 -229.204v-470.698h186.481v456.863c0 96.3066 40.5205 145.188 121.572 145.188
c89.6162 0 134.54 -57.9863 134.54 -172.646v-250.068h185.381v250.068c0 114.66 44.9141 172.646 134.529 172.646c81.0518 0 121.573 -48.8818 121.573 -145.188v-456.863h186.481v470.698z" />
</svg>