<svg xmlns="http://www.w3.org/2000/svg" width="1536" height="1792" viewBox="0 0 1536 1792">
    <path d="M1503.302 1111.386c-22.579 116.159-202.224 243.284-408.55 267.921-107.588 12.837-213.519 24.636-326.476 19.455-184.728-8.463-330.494-44.092-330.494-44.092 0 17.983 1.11 35.106 3.328 51.12 24.015 182.308 180.772 193.228 329.261 198.32 149.872 5.127 283.321-36.951 283.321-36.951l6.157 135.491s-104.827 56.293-291.574 66.646c-102.974 5.66-230.836-2.59-379.759-42.009C65.529 1641.797 10.219 1297.502 1.482 948.17-1.11 844.449.485 746.646.49 664.847.5 307.631 234.539 202.924 234.539 202.924c118.011-54.199 320.512-76.99 531.033-78.71h5.173c210.52 1.721 413.152 24.511 531.157 78.71 0 0 234.04 104.706 234.04 461.923 0 0 2.935 263.556-32.64 446.539zm-243.429-418.827c0-88.4-21.711-159.35-67.71-210.618-46.63-51.972-107.687-78.613-183.47-78.613-87.699 0-154.104 33.703-198.002 101.121L768 576l-42.683-71.55c-43.907-67.42-110.313-101.124-198.003-101.124-75.792 0-136.849 26.642-183.47 78.614-45.21 51.973-67.718 122.219-67.718 210.618v432.53h171.359V705.273c0-88.498 37.234-133.415 111.713-133.415 82.35 0 123.63 53.283 123.63 158.646v229.788h170.35V730.505c0-105.363 41.272-158.646 123.62-158.646 74.478 0 111.715 44.917 111.715 133.415v419.816h171.358V692.56z"/>
</svg>
