<?xml version="1.0" standalone="no"?>
<svg width="1536px" height="1536px" version="1.1" xmlns="http://www.w3.org/2000/svg">
    <path transform="scale(1, -1) translate(0, -1536)" glyph-name="mastodon_alt" unicode="&#xf2e2;" horiz-adv-x="1792" 

d="M833.131 1536h5.62695c229.098 -1.87305 449.601 -26.6748 578.019 -85.6562c0 0 254.705 -113.941 254.705 -502.681c0 0 3.18945 -286.822 -35.5264 -485.952c-24.5811 -126.409 -220.071 -264.747 -444.603 -291.559
c-117.093 -13.9707 -232.346 -26.8184 -355.28 -21.1797c-201.031 9.20996 -359.67 47.9863 -359.67 47.9863c0 -19.5693 1.20703 -38.208 3.62012 -55.6348c26.1357 -198.396 196.727 -210.272 358.328 -215.814c163.088 -5.58105 308.318 40.2031 308.318 40.2031
l6.69824 -147.446s-114.071 -61.25 -317.295 -72.5166c-112.062 -6.16016 -251.204 2.81348 -413.269 45.709c-351.492 93.0332 -411.94 467.703 -421.189 847.87c-2.80957 112.873 -1.08594 219.316 -1.08594 308.334c0 388.739 254.704 502.681 254.704 502.681
c128.418 58.9814 348.801 83.7832 577.898 85.6562zM381.288 917.039c-69.6211 0 -126.056 -56.4492 -126.056 -126.07c0 -69.6201 56.4346 -126.07 126.056 -126.07c69.6299 0 126.07 56.4502 126.07 126.07c0 69.6211 -56.4404 126.07 -126.07 126.07zM835.771 917.039
c-69.6201 0 -126.069 -56.4492 -126.069 -126.07c0 -69.6201 56.4492 -126.07 126.069 -126.07c69.6211 0 126.07 56.4502 126.07 126.07c0 69.6211 -56.4492 126.07 -126.07 126.07zM1290.25 917.039c-69.6201 0 -126.07 -56.4492 -126.07 -126.07
c0 -69.6201 56.4502 -126.07 126.07 -126.07s126.055 56.4502 126.055 126.07c0 69.6211 -56.4346 126.07 -126.055 126.07z" />
</svg>