<svg width="1536" height="1536" xmlns="http://www.w3.org/2000/svg">
    <path d="M833.131 0h5.627c229.098 1.873 449.6 26.675 578.019 85.656 0 0 254.705 113.941 254.705 502.681 0 0 3.19 286.822-35.526 485.952-24.582 126.41-220.071 264.747-444.603 291.56-117.093 13.97-232.346 26.818-355.28 21.179-201.031-9.21-359.67-47.986-359.67-47.986 0 19.569 1.207 38.208 3.62 55.634 26.135 198.396 196.727 210.272 358.328 215.814 163.088 5.581 308.318-40.203 308.318-40.203l6.698 147.446s-114.071 61.25-317.295 72.517c-112.062 6.16-251.204-2.814-413.27-45.71-351.491-93.032-411.94-467.702-421.188-847.87C-1.196 783.799.528 677.356.528 588.338c0-388.74 254.704-502.681 254.704-502.681C383.65 26.674 604.033 1.873 833.13 0zM381.288 618.961c-69.621 0-126.056 56.45-126.056 126.07 0 69.62 56.435 126.07 126.056 126.07 69.63 0 126.07-56.45 126.07-126.07 0-69.621-56.44-126.07-126.07-126.07zm454.483 0c-69.62 0-126.069 56.45-126.069 126.07 0 69.62 56.45 126.07 126.069 126.07 69.621 0 126.07-56.45 126.07-126.07 0-69.621-56.45-126.07-126.07-126.07zm454.479 0c-69.62 0-126.07 56.45-126.07 126.07 0 69.62 56.45 126.07 126.07 126.07s126.055-56.45 126.055-126.07c0-69.621-56.435-126.07-126.055-126.07z"/>
</svg>
