<svg width="1536" height="1536" xmlns="http://www.w3.org/2000/svg">
    <path d="M1635.96 1074.286c-24.571 126.409-220.07 264.753-444.602 291.564-117.083 13.97-232.361 26.81-355.286 21.173-201.031-9.211-359.659-47.984-359.659-47.984 0 19.57 1.207 38.204 3.621 55.63 26.135 198.396 196.725 210.28 358.317 215.822 163.098 5.58 308.324-40.211 308.324-40.211l6.7 147.447s-114.08 61.26-317.304 72.526c-112.062 6.16-251.207-2.818-413.272-45.715C71.31 1651.505 11.12 1276.826 1.611 896.666-1.21 783.792.527 677.358.53 588.341.54 199.602 255.232 85.656 255.232 85.656 383.66 26.675 604.03 1.872 833.128 0h5.63c229.097 1.873 449.611 26.676 578.03 85.657 0 0 254.692 113.945 254.692 502.685 0 0 3.195 286.814-35.52 485.944zM1371.05 618.5c0-96.2-23.627-173.412-73.686-229.204-50.745-56.558-117.189-85.55-199.66-85.55-95.437 0-167.703 36.677-215.475 110.044l-46.459 77.865-46.449-77.865c-47.78-73.367-120.048-110.045-215.476-110.045-82.48 0-148.924 28.993-199.66 85.551-49.2 56.558-73.694 133.004-73.694 229.204v470.698h186.481V632.335c0-96.307 40.52-145.188 121.572-145.188 89.616 0 134.54 57.986 134.54 172.646v250.068h185.381V659.793c0-114.66 44.914-172.646 134.529-172.646 81.052 0 121.573 48.882 121.573 145.188v456.863h186.481V618.5z"/>
</svg>
