<?xml version="1.0" standalone="no"?>
<svg width="1536px" height="1536px" version="1.1" xmlns="http://www.w3.org/2000/svg">
    <path transform="scale(1, -1) translate(0, -1536)" glyph-name="meanpath" unicode="&#xf20c;" 

d="M1311 694v-114c0 -32 -19 -52 -51 -52h-202c-32 0 -52 20 -52 52v114c0 32 20 52 52 52h202c32 0 51 -20 51 -52zM821 464v250c0 71 -47 118 -118 118h-133c-45 0 -78 -19 -96 -52c-18 33 -51 52 -96 52h-130c-70 0 -118 -47 -118 -118v-250c0 -15 7 -22 21 -22h55
c15 0 22 7 22 22v230c0 32 19 52 52 52h94c32 0 52 -20 52 -52v-230c0 -15 6 -22 21 -22h54c15 0 22 7 22 22v230c0 32 20 52 52 52h97c32 0 51 -20 51 -52v-230c0 -15 7 -22 22 -22h55c14 0 21 7 21 22zM1410 560v154c0 71 -48 118 -119 118h-264c-71 0 -119 -47 -119 -118
v-410c0 -15 8 -21 22 -21h55c15 0 21 6 21 21v180c19 -26 49 -42 94 -42h191c71 0 119 48 119 118zM1536 1176v-1072c0 -128 -104 -232 -232 -232h-1072c-128 0 -232 104 -232 232v1072c0 128 104 232 232 232h1072c128 0 232 -104 232 -232z" />
</svg>