<svg width="1536" height="1536" xmlns="http://www.w3.org/2000/svg">
    <path d="M1311 842v114c0 32-19 52-51 52h-202c-32 0-52-20-52-52V842c0-32 20-52 52-52h202c32 0 51 20 51 52zm-490 230V822c0-71-47-118-118-118H570c-45 0-78 19-96 52-18-33-51-52-96-52H248c-70 0-118 47-118 118v250c0 15 7 22 21 22h55c15 0 22-7 22-22V842c0-32 19-52 52-52h94c32 0 52 20 52 52v230c0 15 6 22 21 22h54c15 0 22-7 22-22V842c0-32 20-52 52-52h97c32 0 51 20 51 52v230c0 15 7 22 22 22h55c14 0 21-7 21-22zm589-96V822c0-71-48-118-119-118h-264c-71 0-119 47-119 118v410c0 15 8 21 22 21h55c15 0 21-6 21-21v-180c19 26 49 42 94 42h191c71 0 119-48 119-118zm126-616v1072c0 128-104 232-232 232H232c-128 0-232-104-232-232V360c0-128 104-232 232-232h1072c128 0 232 104 232 232z"/>
</svg>
