<svg xmlns="http://www.w3.org/2000/svg" width="1536" height="1796">
    <path d="M0 132v1536h1536V132H0zm257.185 346.585h299.169l231.23 507.123 203.293-507.123h285.185v17.338l-82.37 78.985a24.062 24.062 0 0 0-9.153 23.107v580.339a24.062 24.062 0 0 0 9.153 23.107l80.447 78.985v17.339H869.477v-17.339l83.338-80.908c8.19-8.187 8.185-10.601 8.185-23.123V707.338l-231.708 588.523h-31.307L428.2 707.338v394.431a54.428 54.428 0 0 0 14.938 45.277l108.4 131.477v17.339H244.185v-17.339l108.384-131.477a52.497 52.497 0 0 0 13.97-45.277V645.692a39.953 39.953 0 0 0-13-33.707l-96.354-116.062v-17.338z" fill="#12100e"/>
</svg>
