<svg xmlns="http://www.w3.org/2000/svg" width="1536" height="1796">
    <path d="M182.14 536.878a59.535 59.535 0 0 0-19.361-50.206L19.36 313.821V288h445.311l344.202 755.239L1111.484 288H1536v25.82l-122.622 117.625a35.866 35.866 0 0 0-13.624 34.427v864.257a35.864 35.864 0 0 0 13.624 34.426l119.754 117.626V1508H930.779v-25.82l124.056-120.493c12.19-12.193 12.19-15.78 12.19-34.428V628.683l-344.919 876.449h-46.61l-401.569-876.45v587.407a81.059 81.059 0 0 0 22.23 67.42L457.5 1479.311v25.82H0v-25.82l161.344-195.802a78.19 78.19 0 0 0 20.796-67.42V536.878z"/>
</svg>
