<?xml version="1.0" standalone="no"?>
<svg width="1536px" height="1536px" version="1.1" xmlns="http://www.w3.org/2000/svg">
    <path transform="scale(1, -1) translate(0, -1536)" glyph-name="medium" unicode="&#xf23a;" horiz-adv-x="1792" 

d="M597 1115v-1173c0 -31 -15 -60 -49 -60c-12 0 -23 3 -33 8l-465 233c-28 14 -50 50 -50 80v1140c0 25 12 48 39 48c16 0 30 -8 44 -15l511 -256c1 -1 3 -4 3 -5zM661 1014l534 -866l-534 266v600zM1792 996v-1054c0 -33 -19 -56 -52 -56c-17 0 -33 5 -47 13l-441 220z
M1789 1116c0 -4 -517 -843 -557 -907l-390 634l324 527c11 18 31 28 52 28c9 0 18 -2 26 -6l541 -270c2 -1 4 -3 4 -6z" />
</svg>