<?xml version="1.0" standalone="no"?>
<svg width="1536px" height="1536px" version="1.1" xmlns="http://www.w3.org/2000/svg">
    <path transform="scale(1, -1) translate(0, -1536)" glyph-name="medkit" unicode="&#xf0fa;" horiz-adv-x="1792" 

d="M1280 416v192c0 18 -14 32 -32 32h-224v224c0 18 -14 32 -32 32h-192c-18 0 -32 -14 -32 -32v-224h-224c-18 0 -32 -14 -32 -32v-192c0 -18 14 -32 32 -32h224v-224c0 -18 14 -32 32 -32h192c18 0 32 14 32 32v224h224c18 0 32 14 32 32zM640 1152h512v128h-512v-128z
M256 1152v-1280h-32c-123 0 -224 101 -224 224v832c0 123 101 224 224 224h32zM1440 1152v-1280h-1088v1280h160v160c0 53 43 96 96 96h576c53 0 96 -43 96 -96v-160h160zM1792 928v-832c0 -123 -101 -224 -224 -224h-32v1280h32c123 0 224 -101 224 -224z" />
</svg>