<svg width="1536" height="1536" xmlns="http://www.w3.org/2000/svg">
    <path d="M1280 1120V928c0-18-14-32-32-32h-224V672c0-18-14-32-32-32H800c-18 0-32 14-32 32v224H544c-18 0-32 14-32 32v192c0 18 14 32 32 32h224v224c0 18 14 32 32 32h192c18 0 32-14 32-32v-224h224c18 0 32-14 32-32zM640 384h512V256H640v128zm-384 0v1280h-32c-123 0-224-101-224-224V608c0-123 101-224 224-224h32zm1184 0v1280H352V384h160V224c0-53 43-96 96-96h576c53 0 96 43 96 96v160h160zm352 224v832c0 123-101 224-224 224h-32V384h32c123 0 224 101 224 224z"/>
</svg>
