<?xml version="1.0" standalone="no"?>
<svg width="1536px" height="1536px" version="1.1" xmlns="http://www.w3.org/2000/svg">
    <path transform="scale(1, -1) translate(0, -1536)" glyph-name="meetup" unicode="&#xf2e0;" horiz-adv-x="1920" 

d="M1334 302c-11 72 -143 16 -151 95c-11 112 153 354 140 448c-12 84 -68 102 -117 103c-47 1 -59 -7 -75 -16c-10 -6 -23 -17 -41 1c-22 21 -39 41 -68 45c-43 7 -62 -7 -93 -34c-12 -10 -42 -45 -70 -32c-12 6 -54 27 -84 40c-57 25 -140 -16 -170 -70
c-45 -80 -133 -396 -146 -438c-30 -93 38 -170 129 -165c39 2 64 16 89 61c14 26 146 377 156 394c7 12 31 28 51 18c20 -11 24 -33 21 -53c-4 -34 -98 -248 -101 -272c-12 -80 94 -93 135 -14c13 25 160 324 173 344c15 22 26 29 41 28c11 0 29 -3 25 -38
c-5 -33 -123 -253 -136 -307c-16 -72 23 -145 87 -177c40 -20 219 -55 205 39zM383 86c4 -20 -8 -39 -28 -43c-19 -4 -38 8 -42 28c-4 19 8 39 27 43s39 -8 43 -28zM953 -177c16 -23 10 -54 -12 -70c-23 -16 -54 -10 -70 13c-15 23 -9 54 13 70c23 16 54 10 69 -13zM177 635
c-24 -36 -72 -45 -107 -20c-35 24 -44 73 -20 108c24 36 72 45 107 21c35 -25 44 -73 20 -109zM1467 -42c25 -37 16 -88 -21 -114c-37 -25 -87 -16 -112 21s-16 88 20 114c37 26 87 16 113 -21zM1579 562c92 -151 53 -350 -92 -452c-61 -43 -130 -62 -199 -60
c-42 -165 -243 -226 -368 -114c-4 -3 -9 -6 -13 -10c-137 -95 -323 -61 -418 78c-34 50 -51 107 -53 164c-229 38 -315 329 -144 489c-99 164 2 376 187 402c88 232 377 342 573 190c236 78 477 -103 458 -354c144 -44 185 -234 69 -333zM455 1222c18 -27 12 -64 -15 -83
c-26 -18 -63 -12 -81 15s-12 64 15 83c26 18 63 12 81 -15zM614 1503c5 -22 -9 -44 -31 -49s-44 9 -49 32c-4 22 10 44 32 49s44 -9 48 -32zM1800 555c6 -27 -11 -53 -37 -58c-26 -6 -52 11 -57 37c-6 27 11 53 37 59c26 5 52 -12 57 -38zM1136 1448c21 -36 10 -84 -27 -106
c-36 -22 -83 -10 -104 26c-22 37 -10 85 26 107s83 10 105 -27zM1882 792c5 -20 -8 -39 -27 -44c-20 -4 -39 9 -43 28c-4 20 8 40 28 44c19 4 38 -8 42 -28zM1691 1033c20 -30 13 -71 -16 -92c-30 -20 -71 -13 -91 17s-13 71 17 92c29 21 70 13 90 -17z" />
</svg>