<svg width="1536" height="1536" xmlns="http://www.w3.org/2000/svg">
    <path d="M1334 1234c-11-72-143-16-151-95-11-112 153-354 140-448-12-84-68-102-117-103-47-1-59 7-75 16-10 6-23 17-41-1-22-21-39-41-68-45-43-7-62 7-93 34-12 10-42 45-70 32-12-6-54-27-84-40-57-25-140 16-170 70-45 80-133 396-146 438-30 93 38 170 129 165 39-2 64-16 89-61 14-26 146-377 156-394 7-12 31-28 51-18 20 11 24 33 21 53-4 34-98 248-101 272-12 80 94 93 135 14 13-25 160-324 173-344 15-22 26-29 41-28 11 0 29 3 25 38-5 33-123 253-136 307-16 72 23 145 87 177 40 20 219 55 205-39zm-951 216c4 20-8 39-28 43-19 4-38-8-42-28-4-19 8-39 27-43s39 8 43 28zm570 263c16 23 10 54-12 70-23 16-54 10-70-13-15-23-9-54 13-70 23-16 54-10 69 13zM177 901c-24 36-72 45-107 20-35-24-44-73-20-108 24-36 72-45 107-21 35 25 44 73 20 109zm1290 677c25 37 16 88-21 114-37 25-87 16-112-21s-16-88 20-114c37-26 87-16 113 21zm112-604c92 151 53 350-92 452-61 43-130 62-199 60-42 165-243 226-368 114-4 3-9 6-13 10-137 95-323 61-418-78-34-50-51-107-53-164-229-38-315-329-144-489-99-164 2-376 187-402 88-232 377-342 573-190 236-78 477 103 458 354 144 44 185 234 69 333zM455 314c18 27 12 64-15 83-26 18-63 12-81-15s-12-64 15-83c26-18 63-12 81 15zM614 33c5 22-9 44-31 49s-44-9-49-32c-4-22 10-44 32-49s44 9 48 32zm1186 948c6 27-11 53-37 58-26 6-52-11-57-37-6-27 11-53 37-59 26-5 52 12 57 38zM1136 88c21 36 10 84-27 106-36 22-83 10-104-26-22-37-10-85 26-107s83-10 105 27zm746 656c5 20-8 39-27 44-20 4-39-9-43-28-4-20 8-40 28-44 19-4 38 8 42 28zm-191-241c20 30 13 71-16 92-30 20-71 13-91-17s-13-71 17-92c29-21 70-13 90 17z"/>
</svg>
