<?xml version="1.0" standalone="no"?>
<svg width="1536px" height="1536px" version="1.1" xmlns="http://www.w3.org/2000/svg">
    <path transform="scale(1, -1) translate(0, -1536)" glyph-name="meh_o" unicode="&#xf11a;" 

d="M1152 448c0 -35 -29 -64 -64 -64h-640c-35 0 -64 29 -64 64s29 64 64 64h640c35 0 64 -29 64 -64zM640 896c0 -71 -57 -128 -128 -128s-128 57 -128 128s57 128 128 128s128 -57 128 -128zM1152 896c0 -71 -57 -128 -128 -128s-128 57 -128 128s57 128 128 128
s128 -57 128 -128zM1408 640c0 353 -287 640 -640 640s-640 -287 -640 -640s287 -640 640 -640s640 287 640 640zM1536 640c0 -424 -344 -768 -768 -768s-768 344 -768 768s344 768 768 768s768 -344 768 -768z" />
</svg>