<svg width="1536" height="1536" xmlns="http://www.w3.org/2000/svg">
    <path d="M830 316c190 94 322 290 322 516 0 296-224 540-512 572v132h96c18 0 32 14 32 32v64c0 18-14 32-32 32h-96v96c0 18-14 32-32 32h-64c-18 0-32-14-32-32v-96h-96c-18 0-32-14-32-32v-64c0-18 14-32 32-32h96v-132C224 1372 0 1128 0 832c0-226 132-422 322-516C217 255 135 159 94 43c-8-21 8-43 30-43h69c13 0 24 8 29 20 58 139 195 236 354 236s296-97 354-236c5-12 16-20 37-20h61c22 0 38 22 30 43-41 116-123 212-228 273zm-254 964c247 0 448-201 448-448S823 384 576 384 128 585 128 832s201 448 448 448z"/>
</svg>
