<?xml version="1.0" standalone="no"?>
<svg width="1536px" height="1536px" version="1.1" xmlns="http://www.w3.org/2000/svg">
    <path transform="scale(1, -1) translate(0, -1536)" glyph-name="mercury" unicode="&#xf223;" horiz-adv-x="1280" 

d="M830 1220c190 -94 322 -290 322 -516c0 -296 -224 -540 -512 -572v-132h96c18 0 32 -14 32 -32v-64c0 -18 -14 -32 -32 -32h-96v-96c0 -18 -14 -32 -32 -32h-64c-18 0 -32 14 -32 32v96h-96c-18 0 -32 14 -32 32v64c0 18 14 32 32 32h96v132c-288 32 -512 276 -512 572
c0 226 132 422 322 516c-105 61 -187 157 -228 273c-8 21 8 43 30 43h69c13 0 24 -8 29 -20c58 -139 195 -236 354 -236s296 97 354 236c5 12 16 20 37 20h61c22 0 38 -22 30 -43c-41 -116 -123 -212 -228 -273zM576 256c247 0 448 201 448 448s-201 448 -448 448
s-448 -201 -448 -448s201 -448 448 -448z" />
</svg>