<?xml version="1.0" standalone="no"?>
<svg width="1536px" height="1536px" version="1.1" xmlns="http://www.w3.org/2000/svg">
    <path transform="scale(1, -1) translate(0, -1536)" glyph-name="microchip" unicode="&#xf2db;" 

d="M192 256v-128h-112c-9 0 -16 7 -16 16v16h-48c-9 0 -16 7 -16 16v32c0 9 7 16 16 16h48v16c0 9 7 16 16 16h112zM192 512v-128h-112c-9 0 -16 7 -16 16v16h-48c-9 0 -16 7 -16 16v32c0 9 7 16 16 16h48v16c0 9 7 16 16 16h112zM192 768v-128h-112c-9 0 -16 7 -16 16v16
h-48c-9 0 -16 7 -16 16v32c0 9 7 16 16 16h48v16c0 9 7 16 16 16h112zM192 1024v-128h-112c-9 0 -16 7 -16 16v16h-48c-9 0 -16 7 -16 16v32c0 9 7 16 16 16h48v16c0 9 7 16 16 16h112zM192 1280v-128h-112c-9 0 -16 7 -16 16v16h-48c-9 0 -16 7 -16 16v32c0 9 7 16 16 16
h48v16c0 9 7 16 16 16h112zM1280 1440v-1472c0 -53 -43 -96 -96 -96h-832c-53 0 -96 43 -96 96v1472c0 53 43 96 96 96h832c53 0 96 -43 96 -96zM1536 208v-32c0 -9 -7 -16 -16 -16h-48v-16c0 -9 -7 -16 -16 -16h-112v128h112c9 0 16 -7 16 -16v-16h48c9 0 16 -7 16 -16z
M1536 464v-32c0 -9 -7 -16 -16 -16h-48v-16c0 -9 -7 -16 -16 -16h-112v128h112c9 0 16 -7 16 -16v-16h48c9 0 16 -7 16 -16zM1536 720v-32c0 -9 -7 -16 -16 -16h-48v-16c0 -9 -7 -16 -16 -16h-112v128h112c9 0 16 -7 16 -16v-16h48c9 0 16 -7 16 -16zM1536 976v-32
c0 -9 -7 -16 -16 -16h-48v-16c0 -9 -7 -16 -16 -16h-112v128h112c9 0 16 -7 16 -16v-16h48c9 0 16 -7 16 -16zM1536 1232v-32c0 -9 -7 -16 -16 -16h-48v-16c0 -9 -7 -16 -16 -16h-112v128h112c9 0 16 -7 16 -16v-16h48c9 0 16 -7 16 -16z" />
</svg>