<svg width="1536" height="1536" xmlns="http://www.w3.org/2000/svg">
    <path d="M271 945l-101 101c-27-66-42-138-42-214V704c0-35 29-64 64-64s64 29 64 64v128c0 39 6 77 15 113zm1114-602l-361 361v128c0 176-144 320-320 320-38 0-75-7-109-19l-96 96c61 32 131 51 205 51 247 0 448-201 448-448V704c0-35 29-64 64-64s64 29 64 64v128c0 296-224 540-512 572v132h256c35 0 64 29 64 64s-29 64-64 64H384c-35 0-64-29-64-64s29-64 64-64h256v-132c-85-9-165-38-235-81l-254 254c-13 13-33 13-46 0l-82-82c-13-13-13-33 0-46L1257 215c13-13 33-13 46 0l82 82c13 13 13 33 0 46zm-380-132L384 832V320C384 144 528 0 704 0c138 0 256 89 301 211z"/>
</svg>
