<?xml version="1.0" standalone="no"?>
<svg width="1536px" height="1536px" version="1.1" xmlns="http://www.w3.org/2000/svg">
    <path transform="scale(1, -1) translate(0, -1536)" glyph-name="microphone" unicode="&#xf130;" horiz-adv-x="1152" 

d="M1152 832v-128c0 -296 -224 -540 -512 -572v-132h256c35 0 64 -29 64 -64s-29 -64 -64 -64h-640c-35 0 -64 29 -64 64s29 64 64 64h256v132c-288 32 -512 276 -512 572v128c0 35 29 64 64 64s64 -29 64 -64v-128c0 -247 201 -448 448 -448s448 201 448 448v128
c0 35 29 64 64 64s64 -29 64 -64zM896 1216v-512c0 -176 -144 -320 -320 -320s-320 144 -320 320v512c0 176 144 320 320 320s320 -144 320 -320z" />
</svg>