<?xml version="1.0" standalone="no"?>
<svg width="1536px" height="1536px" version="1.1" xmlns="http://www.w3.org/2000/svg">
    <path transform="scale(1, -1) translate(0, -1536)" glyph-name="microphone_slash" unicode="&#xf131;" horiz-adv-x="1408" 

d="M271 591l-101 -101c-27 66 -42 138 -42 214v128c0 35 29 64 64 64s64 -29 64 -64v-128c0 -39 6 -77 15 -113zM1385 1193l-361 -361v-128c0 -176 -144 -320 -320 -320c-38 0 -75 7 -109 19l-96 -96c61 -32 131 -51 205 -51c247 0 448 201 448 448v128c0 35 29 64 64 64
s64 -29 64 -64v-128c0 -296 -224 -540 -512 -572v-132h256c35 0 64 -29 64 -64s-29 -64 -64 -64h-640c-35 0 -64 29 -64 64s29 64 64 64h256v132c-85 9 -165 38 -235 81l-254 -254c-13 -13 -33 -13 -46 0l-82 82c-13 13 -13 33 0 46l1234 1234c13 13 33 13 46 0l82 -82
c13 -13 13 -33 0 -46zM1005 1325l-621 -621v512c0 176 144 320 320 320c138 0 256 -89 301 -211z" />
</svg>