<svg width="1536" height="1536" xmlns="http://www.w3.org/2000/svg">
    <path d="M192 1280v128H80c-9 0-16-7-16-16v-16H16c-9 0-16-7-16-16v-32c0-9 7-16 16-16h48v-16c0-9 7-16 16-16h112zm0-256v128H80c-9 0-16-7-16-16v-16H16c-9 0-16-7-16-16v-32c0-9 7-16 16-16h48v-16c0-9 7-16 16-16h112zm0-256v128H80c-9 0-16-7-16-16v-16H16c-9 0-16-7-16-16v-32c0-9 7-16 16-16h48v-16c0-9 7-16 16-16h112zm0-256v128H80c-9 0-16-7-16-16v-16H16c-9 0-16-7-16-16v-32c0-9 7-16 16-16h48v-16c0-9 7-16 16-16h112zm0-256v128H80c-9 0-16-7-16-16v-16H16c-9 0-16-7-16-16v-32c0-9 7-16 16-16h48v-16c0-9 7-16 16-16h112zM1280 96v1472c0 53-43 96-96 96H352c-53 0-96-43-96-96V96c0-53 43-96 96-96h832c53 0 96 43 96 96zm256 1232v32c0 9-7 16-16 16h-48v16c0 9-7 16-16 16h-112v-128h112c9 0 16 7 16 16v16h48c9 0 16 7 16 16zm0-256v32c0 9-7 16-16 16h-48v16c0 9-7 16-16 16h-112v-128h112c9 0 16 7 16 16v16h48c9 0 16 7 16 16zm0-256v32c0 9-7 16-16 16h-48v16c0 9-7 16-16 16h-112V768h112c9 0 16 7 16 16v16h48c9 0 16 7 16 16zm0-256v32c0 9-7 16-16 16h-48v16c0 9-7 16-16 16h-112V512h112c9 0 16 7 16 16v16h48c9 0 16 7 16 16zm0-256v32c0 9-7 16-16 16h-48v16c0 9-7 16-16 16h-112V256h112c9 0 16 7 16 16v16h48c9 0 16 7 16 16z"/>
</svg>
