<?xml version="1.0" standalone="no"?>
<svg width="1536px" height="1536px" version="1.1" xmlns="http://www.w3.org/2000/svg">
    <path transform="scale(1, -1) translate(0, -1536)" glyph-name="mixcloud" unicode="&#xf289;" horiz-adv-x="2304" 

d="M1645 438c0 80 -51 148 -121 175c-5 -31 -13 -62 -23 -92c-10 -32 -40 -52 -72 -52c-8 0 -16 1 -24 3c-41 14 -62 57 -49 97c15 46 23 94 23 143c0 250 -204 454 -455 454c-180 0 -342 -107 -414 -267c70 -18 135 -54 188 -106c30 -30 30 -79 0 -109s-79 -30 -109 0
c-48 48 -112 75 -180 75c-141 0 -256 -114 -256 -255s115 -255 256 -255h1046c105 0 190 85 190 189zM1798 438c0 -189 -154 -342 -343 -342h-1046c-226 0 -409 183 -409 408c0 205 152 374 349 403c83 244 314 412 575 412c315 0 575 -241 605 -548
c153 -33 269 -170 269 -333zM2048 438c0 -114 -33 -224 -97 -319c-15 -22 -39 -33 -64 -33v0c-15 0 -30 4 -43 13c-35 23 -44 71 -20 106c47 69 71 149 71 233c0 83 -24 164 -71 233c-24 35 -15 82 20 106s83 14 107 -21c64 -94 97 -204 97 -318zM2304 438
c0 -159 -46 -312 -134 -443c-15 -22 -39 -34 -64 -34v0c-14 0 -29 4 -42 13c-35 24 -45 71 -21 106c70 106 108 230 108 358s-38 252 -108 357c-24 35 -14 83 21 106c35 24 82 15 106 -21c88 -130 134 -283 134 -442z" />
</svg>