<svg width="1536" height="1536" xmlns="http://www.w3.org/2000/svg">
    <path d="M1645 1098c0-80-51-148-121-175-5 31-13 62-23 92-10 32-40 52-72 52-8 0-16-1-24-3-41-14-62-57-49-97 15-46 23-94 23-143 0-250-204-454-455-454-180 0-342 107-414 267 70 18 135 54 188 106 30 30 30 79 0 109s-79 30-109 0c-48-48-112-75-180-75-141 0-256 114-256 255s115 255 256 255h1046c105 0 190-85 190-189zm153 0c0 189-154 342-343 342H409c-226 0-409-183-409-408 0-205 152-374 349-403 83-244 314-412 575-412 315 0 575 241 605 548 153 33 269 170 269 333zm250 0c0 114-33 224-97 319-15 22-39 33-64 33-15 0-30-4-43-13-35-23-44-71-20-106 47-69 71-149 71-233 0-83-24-164-71-233-24-35-15-82 20-106s83-14 107 21c64 94 97 204 97 318zm256 0c0 159-46 312-134 443-15 22-39 34-64 34-14 0-29-4-42-13-35-24-45-71-21-106 70-106 108-230 108-358s-38-252-108-357c-24-35-14-83 21-106 35-24 82-15 106 21 88 130 134 283 134 442z"/>
</svg>
