<?xml version="1.0" standalone="no"?>
<svg width="1536px" height="1536px" version="1.1" xmlns="http://www.w3.org/2000/svg">
    <path transform="scale(1, -1) translate(0, -1536)" glyph-name="mobile" unicode="&#xf10b;" horiz-adv-x="768" 

d="M464 128c0 44 -36 80 -80 80s-80 -36 -80 -80s36 -80 80 -80s80 36 80 80zM672 288v704c0 17 -15 32 -32 32h-512c-17 0 -32 -15 -32 -32v-704c0 -17 15 -32 32 -32h512c17 0 32 15 32 32zM480 1136c0 9 -7 16 -16 16h-160c-9 0 -16 -7 -16 -16s7 -16 16 -16h160
c9 0 16 7 16 16zM768 1152v-1024c0 -70 -58 -128 -128 -128h-512c-70 0 -128 58 -128 128v1024c0 70 58 128 128 128h512c70 0 128 -58 128 -128z" />
</svg>