<?xml version="1.0" standalone="no"?>
<svg width="1536px" height="1536px" version="1.1" xmlns="http://www.w3.org/2000/svg">
    <path transform="scale(1, -1) translate(0, -1536)" glyph-name="money" unicode="&#xf0d6;" horiz-adv-x="1920" 

d="M768 384h384v96h-128v448h-114l-148 -137l77 -80c24 21 39 32 55 57h2v-288h-128v-96zM1280 640c0 -182 -110 -416 -320 -416s-320 234 -320 416s110 416 320 416s320 -234 320 -416zM1792 384v512c-141 0 -256 115 -256 256h-1152c0 -141 -115 -256 -256 -256v-512
c141 0 256 -115 256 -256h1152c0 141 115 256 256 256zM1920 1216v-1152c0 -35 -29 -64 -64 -64h-1792c-35 0 -64 29 -64 64v1152c0 35 29 64 64 64h1792c35 0 64 -29 64 -64z" />
</svg>