<?xml version="1.0" standalone="no"?>
<svg width="1536px" height="1536px" version="1.1" xmlns="http://www.w3.org/2000/svg">
    <path transform="scale(1, -1) translate(0, -1536)" glyph-name="moon_o" unicode="&#xf186;" 

d="M1262 233c-36 -6 -73 -9 -110 -9c-371 0 -672 301 -672 672c0 127 37 251 104 357c-266 -79 -456 -323 -456 -613c0 -353 287 -640 640 -640c193 0 374 88 494 233zM1465 318c-125 -271 -399 -446 -697 -446c-423 0 -768 345 -768 768c0 415 325 752 739 767
c28 1 51 -15 61 -39c11 -25 4 -54 -15 -72c-114 -104 -177 -246 -177 -400c0 -300 244 -544 544 -544c79 0 155 17 228 51c25 11 53 6 72 -13s24 -48 13 -72z" />
</svg>