<?xml version="1.0" standalone="no"?>
<svg width="1536px" height="1536px" version="1.1" xmlns="http://www.w3.org/2000/svg">
    <path transform="scale(1, -1) translate(0, -1536)" glyph-name="motorcycle" unicode="&#xf21c;" horiz-adv-x="2304" 

d="M2301 500c32 -281 -197 -517 -476 -499c-214 14 -392 185 -414 399c-16 152 44 289 146 381l-71 107c-126 -105 -206 -262 -206 -438c0 -36 -28 -66 -64 -66h-256v0h-69c-31 -217 -217 -384 -443 -384c-247 0 -448 201 -448 448s201 448 448 448c53 0 104 -10 152 -27
l24 45c-77 69 -178 110 -304 110h-64c-35 0 -64 29 -64 64s29 64 64 64h128c224 0 338 -92 384 -128h512h115l-85 128h-222c-39 0 -70 35 -63 75c5 31 35 53 66 53h253c21 0 41 -11 53 -28l70 -105l114 114c12 12 29 19 46 19h101c35 0 64 -29 64 -64v-128
c0 -35 -29 -64 -64 -64h-179l115 -172c81 39 175 55 275 36c191 -35 340 -195 362 -388zM448 128c155 0 284 110 314 256h-314c-22 0 -43 12 -55 31c-11 19 -12 43 -1 63l147 277c-29 8 -59 13 -91 13c-176 0 -320 -144 -320 -320s144 -320 320 -320zM1856 128
c176 0 320 144 320 320s-144 320 -320 320c-43 0 -83 -9 -121 -24l174 -260c20 -30 12 -70 -17 -89c-11 -8 -24 -11 -36 -11c-21 0 -41 10 -53 29l-174 260c-57 -58 -93 -137 -93 -225c0 -176 144 -320 320 -320z" />
</svg>