<?xml version="1.0" standalone="no"?>
<svg width="1536px" height="1536px" version="1.1" xmlns="http://www.w3.org/2000/svg">
    <path transform="scale(1, -1) translate(0, -1536)" glyph-name="mouse_pointer" unicode="&#xf245;" horiz-adv-x="1280" 

d="M1133 493c19 -18 24 -46 14 -69c-10 -24 -33 -40 -59 -40h-382l201 -476c14 -33 -2 -70 -34 -84l-177 -75c-33 -14 -70 2 -84 34l-191 452l-312 -312c-12 -12 -28 -19 -45 -19c-8 0 -17 2 -24 5c-24 10 -40 33 -40 59v1504c0 26 16 49 40 59c7 3 16 5 24 5
c17 0 33 -6 45 -19z" />
</svg>