<svg width="1536" height="1792" viewBox="0 0 1536 1792" xmlns="http://www.w3.org/2000/svg">
    <path d="M 639.99654,256 C 286.66064,256 0,542.6055 0,895.99995 0,1249.3945 286.66064,1536 639.99654,1536 993.33281,1536 1280,1249.3945 1280,895.99995 1280,542.6055 993.33281,256 639.99654,256 Z m -6.08401,16.0688 c 342.15728,0 619.44147,275.1651 619.44147,614.61592 0,339.45128 -277.28419,614.60958 -619.44147,614.60958 -342.15762,0 -619.448318,-275.1583 -619.448318,-614.60958 0,-339.45082 277.290698,-614.61592 619.448318,-614.61592 z m -145.11074,69.3407 c -0.15021,0 -0.29715,0.01 -0.44638,0.01 l 0.42092,1.5215 z m 17.57675,1.2454 c -2.9545,-0.01 -5.93348,0.2097 -8.90952,0.6613 l -0.13388,0.02 -4.2283,-0.058 -4.27305,-0.1413 v 0 h -0.0523 C 405.0493,341.0386 320.13374,396.9377 299.002,480.3288 c -4.93592,20.2778 -6.95096,39.4941 -7.30885,59.1138 v 0.026 215.3408 c 12.48248,-4.3151 25.36953,-7.3395 38.61021,-8.8015 l 1.90697,-0.2038 v 11.4912 h 0.30042 v -6.4776 c 0,-7.799 6.6783,-14.0143 14.76429,-14.0143 H 365.821 c 3.00673,0 5.81723,0.8625 8.16339,2.3433 0.1306,-70.544 -0.35627,-140.8488 0.57404,-211.6301 v -0.038 -0.033 c 1.33978,-24.9885 11.56165,-50.5563 28.13201,-69.8864 16.57037,-19.3301 39.58753,-32.4313 66.34026,-32.1249 l 1.68363,0.02 v 1.6949 c 0.384,78.2403 -0.78206,156.4972 0.61878,234.6452 4.41411,62.564 63.50659,114.512 125.83732,109.2078 h 0.0522 0.0523 c 39.6881,-0.9696 79.49016,2.3012 118.56667,-2.4846 58.89101,-11.1451 99.80231,-71.7385 94.31914,-130.8297 v -0.082 -211.7199 l 1.58793,-0.1157 c 27.81887,-2.0449 52.29303,10.5469 70.01379,30.0577 17.72076,19.5109 28.79717,45.9464 30.02591,71.96 v 0.026 0.033 c 0.90255,69.0559 0.47545,137.6711 0.57406,206.4813 1.68036,-0.6022 3.48805,-0.9631 5.38262,-0.9631 h 18.9162 c 8.22346,0 15.04479,6.1969 15.04479,14.0274 v 10.2395 h 1.16738 v -12.9999 -1.9261 l 1.90042,0.2103 c 13.68998,1.5117 27.00976,4.6688 39.88571,9.2255 V 526.4971 c -2.8014,-25.0734 -6.78544,-55.5441 -20.05784,-79.3235 l -0.0328,-0.045 -0.0328,-0.038 C 939.827,376.2081 858.45305,337.837 781.74105,343.6091 l -0.17307,0.013 -0.17307,-0.026 c -21.63984,-2.7666 -45.18011,12.1467 -51.16778,32.6834 0.37225,92.1686 0.63642,184.3723 -0.0523,276.5347 v 0.053 0.053 c -2.64983,39.6516 -41.20355,69.8176 -79.91204,64.9109 -26.77136,1.1655 -57.61525,0.072 -76.37863,-23.6444 -12.59415,-13.4243 -16.77837,-29.7756 -17.98492,-46.6338 -1.20818,-16.8755 0.48981,-34.3585 -0.22205,-50.415 v -0.04 -0.039 c 0.0654,-74.7776 -0.23837,-149.4969 0.42744,-224.1681 -9.53615,-19.1297 -29.05807,-30.1803 -49.73952,-30.2245 z m 143.89898,375.1624 c 0.0326,-0.001 0.0587,10e-4 0.0881,0 h -0.29389 c 0.0686,0 0.13714,0 0.20245,0 z m 267.46557,19.157 c -6.45202,0 -11.44769,4.6994 -11.44769,10.4065 v 569.0161 c 0,5.7071 4.99567,10.3999 11.44769,10.3999 h 18.9162 c 2.36934,0 4.41051,-0.7912 6.212,-1.8746 -2.29651,2.7233 -5.22325,5.672 -9.10119,8.577 -10.73682,8.0431 -20.96684,15.78 -31.95182,23.0537 -9.80782,6.494 -20.37583,13.5544 -30.40242,18.4119 -8.03245,3.8917 -14.7003,4.4748 -14.7003,4.4748 h -0.075 H 747.723 c 0.65176,2.6832 1.02696,5.4245 1.02696,8.2302 0,5.5563 -1.33097,10.892 -3.763,15.9276 0.37258,0.04 0.73372,0.1085 1.11611,0.1085 h 116.15619 c 0.73535,0 3.99613,-0.6554 7.40451,-1.6628 3.40805,-1.0075 7.22395,-2.3427 9.98742,-3.5631 14.06584,-6.212 23.34304,-14.2006 39.91112,-24.1256 17.32598,-11.1553 49.81598,-37.4598 49.81598,-37.4598 l 0.0656,-0.059 0.0755,-0.046 c 4.40227,-2.8711 5.924,-8.2314 3.96675,-12.8332 104.35616,-23.6424 184.25016,-142.8357 184.25016,-287.0631 0,-152.06715 -88.7663,-276.5071 -201.43151,-290.241 v 567.5139 c -0.44311,-0.059 -0.84214,-0.1216 -1.29471,-0.1742 -1.36916,-0.1545 -2.71385,-0.2564 -3.76921,-0.2432 -0.91104,0 -1.39627,0.1742 -1.53047,0.2005 -0.15673,0.4217 -0.87152,1.9409 -1.90696,3.8326 0.0718,-0.4757 0.30694,-0.9 0.30694,-1.3931 v -569.008 c 0,-5.7071 -4.99599,-10.4065 -11.44801,-10.4065 z m -570.47388,3.4152 c -6.29658,0 -11.19918,4.6865 -11.19918,10.4259 v 569.0479 c 0,5.7394 4.9026,10.4259 11.19918,10.4259 h 18.54591 c 6.29658,0 11.19919,-4.6865 11.19919,-10.4259 V 750.8154 c 0,-5.7394 -4.90261,-10.4259 -11.19919,-10.4259 z m -18.49528,9.3796 c -112.66522,13.7336 -201.43161,138.17353 -201.43161,290.2407 0,152.0671 88.76639,276.5008 201.43161,290.2347 z m 84.84174,101.54894 V 1219.0783 H 873.48871 V 851.31804 Z m 314.04815,28.4976 h 46.12315 0.20245 69.79697 v 63.27391 h -69.79697 v 49.61271 h 64.1848 v 61.32214 h -64.1848 v 73.2377 h 69.79697 v 63.2739 h -69.79697 -46.32723 z m -132.24687,0.20379 h 46.32722 v 247.44647 h 69.79697 v 63.2739 h -69.79697 -0.20246 -46.12313 z m -155.44888,2.22756 h 59.08269 c 12.28035,3.3e-4 21.58106,0.85626 27.90866,2.5681 6.32728,1.71218 12.25879,5.30713 17.79977,10.78517 5.9903,5.8899 10.4671,13.76413 13.42519,23.625 2.95743,9.86154 4.43861,21.22816 4.43861,34.10218 0,14.92903 -2.04151,28.21952 -6.12255,39.86092 -4.08104,11.64214 -9.71868,20.20104 -16.90702,25.67944 v 1.6434 c 10.3332,3.972 18.61283,12.0862 24.82812,24.3439 6.21494,12.2584 9.31769,28.7947 9.31769,49.6127 0,15.2028 -1.56803,28.5551 -4.7129,40.0598 -3.14518,11.5046 -7.38165,21.0289 -12.69798,28.5616 -6.29005,9.0398 -13.19563,15.476 -20.72096,19.3109 -7.52567,3.8352 -17.09315,5.7522 -28.69953,5.7522 h -66.93979 z m 41.78023,56.08371 v 64.7186 h 5.2804 c 7.18868,3e-4 12.22582,-0.1381 15.10881,-0.4109 2.88297,-0.2728 5.85869,-1.7115 8.92878,-4.31414 3.36951,-2.8761 5.69118,-6.8474 6.96434,-11.9152 1.27251,-5.0659 1.90631,-10.95876 1.90697,-17.66744 -6.6e-4,-4.92845 -0.68834,-10.00615 -2.07285,-15.20874 -1.38548,-5.20424 -3.5403,-8.97011 -6.46051,-11.29892 -2.77065,-2.19108 -6.04646,-3.38918 -9.82806,-3.59494 -3.78128,-0.20379 -9.41924,-0.30569 -16.90702,-0.30897 z m 0,117.1045 v 76.6271 h 2.25113 c 10.9324,0 18.49202,-0.138 22.6854,-0.4108 4.19304,-0.2729 8.46314,-2.1227 12.80606,-5.5468 3.81884,-3.0131 6.60778,-7.4295 8.36748,-13.2507 1.75971,-5.8205 2.64037,-12.4283 2.64037,-19.8243 0,-9.4503 -1.04753,-16.8453 -3.14388,-22.1869 -2.09702,-5.3413 -5.2458,-9.3813 -9.43917,-12.1207 -2.54599,-1.7802 -6.04221,-2.7732 -10.49746,-2.979 -4.45557,-0.2038 -10.42693,-0.3089 -17.91473,-0.3089 z m 170.65301,279.0896 c -25.71369,0 -48.9627,6.1323 -65.63234,15.8953 -16.66996,9.7629 -26.59501,22.9666 -26.59501,37.2543 0,14.2881 9.92505,27.4977 26.59501,37.261 16.66964,9.7629 39.91865,15.8954 65.63234,15.8954 25.71336,0 48.9689,-6.1325 65.63853,-15.8954 15.08071,-8.8324 24.61556,-20.4896 26.30145,-33.2101 0.0326,-0.1808 0.0489,-0.3593 0.0686,-0.5391 0.13388,-1.1636 0.22204,-2.3321 0.22204,-3.5118 0,-0.7573 -0.036,-1.5093 -0.0947,-2.2598 -0.036,-0.4769 -0.0947,-0.9509 -0.15347,-1.4252 -0.0326,-0.138 -0.0326,-0.2794 -0.0522,-0.4171 -1.70484,-12.6995 -11.23478,-24.3317 -26.29492,-33.1522 -16.66997,-9.763 -39.92517,-15.8953 -65.63887,-15.8953 z" color="#000"/>
</svg>
