<svg width="1536" height="1792" viewBox="0 0 1536 1792" xmlns="http://www.w3.org/2000/svg">
    <path d="m 420.82876,256 c -0.17487,0 -0.34595,0.0116 -0.51969,0.0116 l 0.49006,1.77141 z m 20.46372,1.44996 c -3.43977,-0.0117 -6.90806,0.24414 -10.3729,0.76991 l -0.15587,0.0233 -4.9228,-0.0675 -4.97489,-0.16451 v 0 h -0.0609 c -97.48509,-2.44298 -196.34793,62.63748 -220.95054,159.72547 -5.74664,23.60841 -8.09264,45.98096 -8.50932,68.82317 v 0.0303 250.71028 c 14.53272,-5.02386 29.53645,-8.545 44.95189,-10.24713 l 2.22019,-0.23729 v 13.37862 h 0.34977 v -7.54153 c 0,-9.07997 7.7752,-16.31613 17.1893,-16.31613 h 21.59212 c 3.50058,0 6.7727,1.00416 9.50421,2.72817 0.15206,-82.13076 -0.41478,-163.98304 0.66833,-246.39009 v -0.0442 -0.0384 c 1.55983,-29.09283 13.46063,-58.86011 32.75266,-81.36516 19.29203,-22.50504 46.08973,-37.7581 77.23657,-37.40137 l 1.96016,0.0233 v 1.97328 c 0.44707,91.09118 -0.91052,182.20169 0.72042,273.18541 5.13912,72.84006 73.93746,133.32046 146.50594,127.14505 h 0.0608 0.0609 c 46.20682,-1.12886 92.54634,2.67917 138.04112,-2.8927 68.56378,-12.97566 116.19472,-83.52146 109.81094,-152.31832 v -0.0955 -246.49465 l 1.84875,-0.1347 c 32.38809,-2.38077 60.88211,12.27922 81.51348,34.99464 20.63137,22.71555 33.52707,53.49305 34.95762,83.77935 v 0.0303 0.0384 c 1.0508,80.39825 0.55355,160.28342 0.66835,240.39561 1.95636,-0.7011 4.06096,-1.12128 6.26671,-1.12128 h 22.02321 c 9.57415,0 17.51587,7.21472 17.51587,16.33138 v 11.92132 h 1.35913 v -15.13512 -2.24245 l 2.21256,0.24484 c 15.93854,1.75999 31.44608,5.43565 46.43684,10.74078 V 471.48802 c -3.2615,-29.19167 -7.8999,-64.66715 -23.35227,-92.35229 l -0.0382,-0.0524 -0.0382,-0.0442 C 945.93436,296.51423 851.19483,251.84072 761.88297,258.56088 l -0.2015,0.0151 -0.20149,-0.0303 c -25.19416,-3.22101 -52.6009,14.14178 -59.57203,38.05161 0.43339,107.30718 0.74095,214.65523 -0.0609,321.95519 v 0.0617 0.0617 c -3.08507,46.16434 -47.97119,81.28506 -93.03751,75.57244 -31.16852,1.35693 -67.0785,0.0838 -88.92374,-27.52797 -14.66271,-15.62922 -19.5342,-34.6662 -20.93891,-54.29334 -1.40662,-19.64728 0.57025,-40.00184 -0.25853,-58.69561 v -0.0466 -0.0454 c 0.0761,-87.05973 -0.27752,-174.05159 0.49765,-260.98744 -11.10246,-22.27173 -33.83082,-35.13738 -57.90918,-35.18884 z M 608.8267,694.23234 c 0.038,-9.4e-4 0.0683,9.4e-4 0.10257,0 h -0.34216 0.2357 z m 311.39648,22.30352 c -7.51176,0 -13.32795,5.47127 -13.32795,12.11575 V 1391.128 c 0,6.6444 5.81619,12.108 13.32795,12.108 h 22.02316 c 2.7585,0 5.13493,-0.9212 7.23232,-2.1825 -2.67371,3.1706 -6.08117,6.6037 -10.59605,9.9858 -12.50033,9.3642 -24.41062,18.3718 -37.19986,26.8403 -11.41876,7.5605 -23.72254,15.7805 -35.39599,21.436 -9.35178,4.5309 -17.1148,5.2098 -17.1148,5.2098 h -0.0873 -126.80715 c 0.75881,3.1239 1.19565,6.3154 1.19565,9.582 0,6.4689 -1.54958,12.6809 -4.38107,18.5437 0.43377,0.046 0.85422,0.1262 1.29943,0.1262 h 135.2347 c 0.85613,0 4.65249,-0.763 8.62071,-1.9359 3.9678,-1.1729 8.41046,-2.7275 11.62783,-4.1484 16.37614,-7.2323 27.17711,-16.5329 46.46647,-28.0881 20.17175,-12.9876 57.99819,-43.6125 57.99819,-43.6125 l 0.0764,-0.068 0.0879,-0.053 c 5.12534,-3.3427 6.89701,-9.5834 4.61827,-14.941 121.49651,-27.5257 214.51301,-166.2964 214.51301,-334.213 0,-177.04395 -103.346,-321.92302 -234.51638,-337.91269 v 660.72699 c -0.51588,-0.068 -0.98045,-0.1416 -1.50736,-0.2028 -1.59403,-0.18 -3.15959,-0.2986 -4.38829,-0.2833 -1.06068,0 -1.6256,0.2029 -1.78185,0.2335 -0.18248,0.491 -1.01466,2.2597 -2.22017,4.4621 0.0836,-0.5538 0.35735,-1.0478 0.35735,-1.6219 V 728.65161 c 0,-6.64448 -5.81657,-12.11575 -13.32833,-12.11575 z M 256.04963,720.512 c -7.33079,0 -13.03864,5.45625 -13.03864,12.13834 v 662.51336 c 0,6.6821 5.70785,12.1383 13.03864,12.1383 h 21.59205 c 7.33079,0 13.03864,-5.4562 13.03864,-12.1383 V 732.65034 c 0,-6.68209 -5.70785,-12.13834 -13.03864,-12.13834 z m -21.53311,10.92018 C 103.34617,747.42152 0,892.30056 0,1069.3446 0,1246.3885 103.34617,1391.2603 234.51652,1407.25 Z m 98.77689,118.22825 V 1277.8249 H 868.70008 V 849.66043 Z m 365.6302,33.17829 h 53.69883 0.23569 81.26104 v 73.66657 h -81.26104 v 57.76151 h 74.72708 v 71.3943 h -74.72708 v 85.2669 h 81.26104 v 73.6665 h -81.26104 -53.93641 z m -153.96827,0.23727 h 53.93641 v 288.08931 h 81.26105 v 73.6665 h -81.26105 -0.23571 -53.69881 z m -180.98118,2.59342 h 68.78696 c 14.29737,3.9e-4 25.12572,0.99691 32.49262,2.98991 7.36653,1.9934 14.27228,6.17882 20.72337,12.55662 6.9742,6.85731 12.18631,16.02488 15.63026,27.50538 3.44317,11.48129 5.16765,24.71486 5.16765,39.70343 0,17.38109 -2.37683,32.85455 -7.12819,46.40805 -4.75134,13.5543 -11.31495,23.519 -19.68396,29.8972 v 1.9133 c 12.03041,4.6245 21.66996,14.0714 28.9061,28.3424 7.23573,14.2718 10.84811,33.5242 10.84811,57.7615 0,17.6999 -1.82558,33.2453 -5.48699,46.6396 -3.66178,13.3942 -8.59408,24.4829 -14.7836,33.2528 -7.32319,10.5246 -15.36301,18.0179 -24.12436,22.4827 -8.76175,4.4652 -19.90068,6.697 -33.41339,6.697 h -77.93458 z m 48.64259,65.2954 v 75.34859 h 6.1477 c 8.36941,3e-4 14.2339,-0.1608 17.5904,-0.4784 3.35651,-0.3176 6.82099,-1.9926 10.39534,-5.0228 3.92293,-3.3485 6.62595,-7.972 8.10822,-13.8722 1.48152,-5.898 2.21942,-12.75874 2.22018,-20.56932 -7.6e-4,-5.73793 -0.80139,-11.64964 -2.41331,-17.70675 -1.61305,-6.05904 -4.12178,-10.44344 -7.52164,-13.15475 -3.22573,-2.55097 -7.03958,-3.94585 -11.44231,-4.18541 -4.40234,-0.23726 -10.96633,-0.3559 -19.68397,-0.35972 z m 0,136.33879 v 89.213 h 2.62088 c 12.72803,0 21.52931,-0.1607 26.41145,-0.4783 4.88173,-0.3177 9.8532,-2.4713 14.90943,-6.4578 4.44609,-3.508 7.6931,-8.6498 9.74184,-15.4271 2.04874,-6.7766 3.07403,-14.4697 3.07403,-23.0805 0,-11.0025 -1.21958,-19.6121 -3.66024,-25.831 -2.44147,-6.2186 -6.10743,-10.9222 -10.98955,-14.1115 -2.96417,-2.0726 -7.03463,-3.2287 -12.22165,-3.4683 -5.1874,-0.2373 -12.13954,-0.3597 -20.85721,-0.3597 z m 198.68257,324.9297 c -29.93714,0 -57.00477,7.1395 -76.41238,18.506 -19.40799,11.3666 -30.9632,26.739 -30.9632,43.3734 0,16.6348 11.55521,32.0141 30.9632,43.3811 19.40761,11.3664 46.47524,18.5062 76.41238,18.5062 29.93675,0 57.01199,-7.1398 76.41959,-18.5062 17.5577,-10.2832 28.65863,-23.8551 30.62143,-38.6648 0.0379,-0.2105 0.0569,-0.4183 0.0798,-0.6277 0.15587,-1.3547 0.25852,-2.7151 0.25852,-4.0886 0,-0.8817 -0.0419,-1.7573 -0.11027,-2.6309 -0.0419,-0.5553 -0.11025,-1.1072 -0.17867,-1.6594 -0.038,-0.1606 -0.038,-0.3252 -0.0608,-0.4856 -1.98487,-14.7854 -13.08008,-28.3281 -30.61383,-38.5975 -19.408,-11.3665 -46.48283,-18.506 -76.41998,-18.506 z" color="#000"/>
</svg>
