<?xml version="1.0" standalone="no"?>
<svg width="1536px" height="1536px" version="1.1" xmlns="http://www.w3.org/2000/svg">
    <path transform="scale(1, -1) translate(0, -1536)" glyph-name="newspaper_o" unicode="&#xf1ea;" horiz-adv-x="2048" 

d="M1024 1024h-384v-384h384v384zM1152 384v-128h-640v128h640zM1152 1152v-640h-640v640h640v0zM1792 384v-128h-512v128h512zM1792 640v-128h-512v128h512zM1792 896v-128h-512v128h512zM1792 1152v-128h-512v128h512zM256 192v960h-128v-960c0 -35 29 -64 64 -64
s64 29 64 64zM1920 192v1088h-1536v-1088c0 -22 -4 -44 -11 -64h1483c35 0 64 29 64 64zM2048 1408v-1216c0 -106 -86 -192 -192 -192h-1664c-106 0 -192 86 -192 192v1088h256v128h1792z" />
</svg>