<svg xmlns="http://www.w3.org/2000/svg" width="1536" height="1792">
    <path d="M257.078 128C114.657 128 0 242.657 0 385.078v1021.844C0 1549.342 114.657 1664 257.078 1664h1021.844c142.421 0 257.078-114.657 257.078-257.078V385.078C1536 242.657 1421.343 128 1278.922 128H257.078zm509.3 439.057c148.561 0 274.896 100 315.024 236.011 34.642-71.242 107.892-120.812 191.858-120.812 116.952 0 213.119 96.166 213.119 213.119 0 116.952-96.166 213.121-213.12 213.121-83.964 0-157.214-49.57-191.857-120.812-40.128 136.01-166.463 236.013-315.023 236.013-148.56 0-274.893-100.002-315.022-236.013-34.642 71.241-107.891 120.812-191.857 120.812-116.952 0-213.121-96.168-213.121-213.121 0-116.952 96.168-213.12 213.121-213.12 83.966 0 157.216 49.572 191.857 120.815 40.128-136.011 166.46-236.013 315.022-236.013zm0 126.72c-112.09 0-201.599 89.508-201.599 201.6 0 112.09 89.509 201.6 201.6 201.6s201.601-89.51 201.601-201.6c0-112.092-89.51-201.6-201.601-201.6zM259.5 808.978c-48.468 0-86.4 37.93-86.4 86.397 0 48.469 37.932 86.4 86.4 86.4 48.469 0 86.4-37.931 86.4-86.4 0-48.467-37.931-86.397-86.4-86.397zm1013.76 0c-48.469 0-86.4 37.93-86.4 86.397 0 48.469 37.931 86.4 86.4 86.4 48.468 0 86.4-37.931 86.4-86.4 0-48.467-37.932-86.397-86.4-86.397z"/>
</svg>
