<svg xmlns="http://www.w3.org/2000/svg" width="1536" height="1792" viewBox="0 0 1536 1792">
    <path d="M257.078 128C114.657 128 0 242.657 0 385.078v1021.844C0 1549.342 114.657 1664 257.078 1664h1021.844c142.421 0 257.078-114.657 257.078-257.078V385.078C1536 242.657 1421.343 128 1278.922 128zm514.503 439.057c144.683 0 267.72 97.39 306.8 229.85 33.737-69.383 105.075-117.658 186.849-117.658 113.899 0 207.555 93.655 207.555 207.555 0 113.898-93.655 207.557-207.556 207.557-81.772 0-153.11-48.276-186.848-117.658-39.08 132.459-162.117 229.851-306.799 229.851s-267.716-97.391-306.798-229.851c-33.737 69.38-105.074 117.658-186.848 117.658-113.899 0-207.557-93.658-207.557-207.557 0-113.9 93.657-207.556 207.557-207.556 81.774 0 153.112 48.277 186.848 117.66 39.08-132.46 162.115-229.851 306.798-229.851zm0 123.412c-109.164 0-196.336 87.171-196.336 196.337 0 109.163 87.172 196.336 196.337 196.336 109.165 0 196.338-87.173 196.338-196.336 0-109.166-90.592-196.337-196.338-196.337zM277.936 802.662c-47.203 0-84.144 36.94-84.144 84.142 0 47.203 36.941 84.144 84.144 84.144 47.204 0 84.144-36.94 84.144-84.144 0-47.202-36.94-84.142-84.144-84.142zm987.294 0c-47.204 0-84.144 36.94-84.144 84.142 0 47.203 36.94 84.144 84.144 84.144 47.203 0 84.144-36.94 84.144-84.144 0-47.202-36.942-84.142-84.144-84.142z"/>
</svg>
