<svg xmlns="http://www.w3.org/2000/svg" width="1536" height="1792" viewBox="0 0 1536 1792">
    <path overflow="visible" font-weight="400" d="M896 487.423c-224.716 0-408.575 183.859-408.575 408.575 0 224.717 183.859 408.579 408.575 408.579 224.716 0 408.575-183.862 408.575-408.579 0-224.716-183.859-408.575-408.575-408.575zm0 157.696c139.491 0 250.88 111.388 250.88 250.88 0 139.49-111.389 250.88-250.88 250.88-139.491 0-250.88-111.39-250.88-250.88 0-139.492 111.389-250.88 250.88-250.88zm-630.784-14.337C119.674 630.782 0 750.458 0 895.998c0 145.542 119.675 265.216 265.216 265.216 145.542 0 265.216-119.675 265.216-265.216S410.757 630.782 265.216 630.782zm0 157.699c60.317 0 107.52 47.203 107.52 107.517 0 60.317-47.203 107.52-107.52 107.52-60.315 0-107.52-47.203-107.52-107.52 0-60.315 47.205-107.517 107.52-107.517zm1261.568-157.699c-145.542 0-265.216 119.676-265.216 265.216 0 145.542 119.676 265.216 265.216 265.216 145.542 0 265.216-119.675 265.216-265.216s-119.675-265.216-265.216-265.216zm0 157.699c60.316 0 107.52 47.203 107.52 107.517 0 60.317-47.204 107.52-107.52 107.52-60.317 0-107.52-47.203-107.52-107.52 0-60.315 47.203-107.517 107.52-107.517z" style="line-height:normal;text-indent:0;text-align:start;text-decoration-line:none;text-decoration-style:solid;text-decoration-color:#000;text-transform:none;isolation:auto;mix-blend-mode:normal" color="#000" font-family="sans-serif"/>
</svg>
