<svg xmlns="http://www.w3.org/2000/svg" width="1536" height="1792">
    <path style="line-height:normal;text-indent:0;text-align:start;text-decoration-line:none;text-decoration-style:solid;text-decoration-color:#000;text-transform:none;block-progression:tb;isolation:auto;mix-blend-mode:normal" d="M768 544.078c-192.614 0-350.207 157.593-350.207 350.207s157.593 350.21 350.207 350.21 350.207-157.596 350.207-350.21c0-192.614-157.593-350.207-350.207-350.207zm0 135.168c119.564 0 215.04 95.475 215.04 215.04 0 119.563-95.476 215.04-215.04 215.04s-215.04-95.477-215.04-215.04c0-119.565 95.476-215.04 215.04-215.04zm-540.672-12.289C102.578 666.957 0 769.536 0 894.285c0 124.75 102.579 227.328 227.328 227.328 124.75 0 227.328-102.579 227.328-227.328 0-124.75-102.579-227.328-227.328-227.328zm0 135.17c51.7 0 92.16 40.46 92.16 92.158 0 51.7-40.46 92.16-92.16 92.16-51.699 0-92.16-40.46-92.16-92.16 0-51.699 40.461-92.158 92.16-92.158zm1081.344-135.17c-124.75 0-227.328 102.579-227.328 227.328 0 124.75 102.579 227.328 227.328 227.328 124.75 0 227.328-102.579 227.328-227.328 0-124.75-102.579-227.328-227.328-227.328zm0 135.17c51.699 0 92.16 40.46 92.16 92.158 0 51.7-40.461 92.16-92.16 92.16-51.7 0-92.16-40.46-92.16-92.16 0-51.699 40.46-92.158 92.16-92.158z" color="#000" font-weight="400" font-family="sans-serif" white-space="normal" overflow="visible"/>
</svg>
