<svg xmlns="http://www.w3.org/2000/svg" width="1536" height="1792" viewBox="0 0 1536 1792">
    <path d="M768 1761.391c-23.851 0-46.112-6.36-66.783-17.49L489.74 1618.286c-31.801-17.491-15.9-23.851-6.36-27.031 42.932-14.31 50.882-17.491 95.404-42.932 4.77-3.18 11.13-1.59 15.9 1.59l162.187 96.994c6.36 3.18 14.31 3.18 19.08 0l634.435-367.305c6.36-3.18 9.54-9.54 9.54-17.49V529.093c0-7.95-3.18-14.31-9.54-17.49L775.95 145.887c-6.36-3.18-14.31-3.18-19.08 0L122.435 511.602c-6.36 3.18-9.54 11.13-9.54 17.491v733.019c0 6.36 3.18 14.31 9.54 17.49l173.317 100.174c93.813 47.702 152.646-7.95 152.646-63.602V592.696c0-9.54 7.95-19.081 19.08-19.081h81.093c9.54 0 19.081 7.95 19.081 19.08v723.479c0 125.615-68.372 198.758-187.627 198.758-36.572 0-65.193 0-146.286-39.752l-166.956-95.404C25.44 1355.926 0 1311.404 0 1263.702V530.683c0-47.702 25.441-92.223 66.783-116.074L701.217 47.304c39.752-22.26 93.814-22.26 133.566 0l634.434 367.305C1510.56 438.459 1536 482.98 1536 530.683v733.019c0 47.702-25.441 92.223-66.783 116.074l-634.434 367.305c-20.671 9.54-44.522 14.31-66.783 14.31zm195.578-504.05c-278.261 0-335.503-127.204-335.503-235.329 0-9.54 7.95-19.08 19.08-19.08h82.684c9.54 0 17.49 6.36 17.49 15.9 12.72 84.274 49.292 125.615 217.839 125.615 133.565 0 190.807-30.211 190.807-101.764 0-41.341-15.9-71.553-224.199-92.223-173.316-17.491-281.44-55.653-281.44-193.988 0-128.795 108.124-205.118 289.39-205.118 203.529 0 303.703 69.963 316.423 222.609 0 4.77-1.59 9.54-4.77 14.31-3.18 3.18-7.95 6.36-12.72 6.36h-82.684c-7.95 0-15.9-6.36-17.49-14.31-19.081-87.453-68.373-116.075-198.758-116.075-146.286 0-163.777 50.882-163.777 89.044 0 46.112 20.671 60.422 217.839 85.863 195.577 25.441 287.801 62.013 287.801 198.758-1.59 139.926-116.074 219.429-318.012 219.429z"/>
</svg>
