<svg xmlns="http://www.w3.org/2000/svg" viewBox="0 0 1536 1792" height="1792" width="1536">
    <path d="M1946.662 1455.578c-32.435-.463-60.537-2.226-89.2-5.598-81.756-9.617-153.943-31.353-217.6-65.519-48.886-26.239-93.219-60.518-130.46-100.876-37.72-40.878-67.551-86.968-89.54-138.345-28.409-66.376-43.744-141.278-46.15-225.402-.407-14.258-.406-32.53 0-46.362l.108-3.612-2.017-4.538c-2.465-5.545-.88-1.799-16.126-38.138-10.609-25.289-13.705-32.56-18.413-43.25l-5.66-12.85-6.588-12.8c-7.768-15.095-6.98-13.525-14.455-28.8-4.375-8.94-7.41-14.972-11.626-23.1-5.665-10.924-5.734-11.05-9.994-18.3l-4.29-7.3-6.678-8.9c-3.672-4.895-6.776-9.03-6.898-9.19l-.22-.29-1.095 1.49c-.601.82-3.69 4.937-6.862 9.15l-5.768 7.661-4.396 7.49c-4.39 7.48-4.403 7.503-10.092 18.489-4.286 8.277-7.288 14.255-12.128 24.15-4.836 9.89-8.16 16.51-13.407 26.7l-6.977 13.55-5.853 13.3c-4.925 11.19-7.94 18.278-19.015 44.683-7.24 17.261-13.907 33.056-14.818 35.1a45746.9 45746.9 0 0 0-7.235 16.267l-5.58 12.55-7.42 18.55a56173.169 56173.169 0 0 1-13.172 32.9l-5.753 14.35-7.495 16.85c-7.408 16.655-7.645 17.208-20.484 47.813-7.144 17.03-13.368 31.835-13.83 32.9-2.421 5.57-13.599 30.881-14.303 32.387-.45.962-4.168 8.252-8.263 16.2-5.766 11.193-9.001 17.628-14.354 28.55-5.739 11.712-8.113 16.42-14.016 27.8-3.91 7.535-7.435 14.285-7.835 15-.83 1.482-14.382 24.572-15.495 26.4-1.045 1.718-3.002 4.663-4.218 6.35-.575.797-4.4 5.905-8.499 11.35a2380.657 2380.657 0 0 0-14.28 19.2c-6.833 9.308-8.038 10.906-10.002 13.26-1.255 1.504-15.157 17.296-16.8 19.085-2.244 2.442-4.752 4.842-12.604 12.064-10.988 10.105-11.437 10.503-14.847 13.153-2.963 2.303-2.98 2.315-14.296 10.018-7.95 5.41-10.17 6.797-14.868 9.284-2.534 1.342-3.894 1.98-13.358 6.271-8.107 3.676-11.134 4.936-15.048 6.267-5.036 1.712-6.996 2.227-17.83 4.684-9.8 2.223-12.275 2.705-16.75 3.258-5.805.717-6.868.756-20.75.756-11.062 0-12.747-.02-14.65-.177-5.077-.417-9.199-.974-13.4-1.813-1.985-.396-16.52-3.687-18.64-4.22-4.566-1.15-9.75-2.861-14.26-4.71-1.866-.765-15.599-6.959-18.75-8.457-4.629-2.2-8.934-4.656-13.45-7.67-3.77-2.517-15.17-10.305-16.566-11.319a110.113 110.113 0 0 1-7.484-5.972c-2.983-2.615-17.279-15.822-19.433-17.953-2.997-2.966-3.833-3.882-11.87-13.009-10.23-11.62-9.123-10.24-18.712-23.3a2341.026 2341.026 0 0 0-13.98-18.8c-9.18-12.19-9.868-13.142-12.286-17.016-1.014-1.625-14.65-24.839-15.822-26.934-.507-.908-4.107-7.793-8-15.3-5.847-11.275-8.263-16.069-13.887-27.552-5.287-10.793-8.49-17.165-14.33-28.5-4.135-8.029-7.864-15.34-8.287-16.248-.422-.908-3.872-8.693-7.665-17.3-6.231-14.14-8.178-18.705-20.183-47.318-13.1-31.222-13.39-31.898-20.555-48-3.997-8.983-7.548-17.007-7.892-17.832-.344-.825-6.37-15.855-13.394-33.4l-12.77-31.9-7.333-16.5c-7.199-16.197-7.576-17.077-20.503-47.9-11.04-26.32-14.1-33.51-18.916-44.45l-5.742-13.05-7.026-13.65c-5.28-10.257-8.613-16.894-13.407-26.7-4.86-9.938-7.751-15.694-12.126-24.136-5.729-11.057-5.755-11.105-10.086-18.479l-4.342-7.393-5.625-7.47a2009.924 2009.924 0 0 1-6.863-9.152c-.681-.926-1.272-1.646-1.312-1.601-.04.044-3.147 4.175-6.903 9.179l-6.828 9.097-4.32 7.353c-4.305 7.329-4.338 7.39-10.071 18.453-4.39 8.472-7.274 14.212-12.183 24.249-4.824 9.864-8.174 16.536-13.406 26.7l-6.975 13.55-5.75 13.057c-4.375 9.937-7.808 17.965-14.367 33.6-4.74 11.299-9.123 21.78-9.74 23.293-.618 1.512-20.176 50.686-43.462 109.275-23.286 58.589-42.38 106.525-42.429 106.525-.08 0-183.218-111.938-183.384-112.088-.037-.034 6.41-16.352 14.328-36.262l14.396-36.2.251-1.85c1.14-8.399 2.966-15.852 5.694-23.25.6-1.629 13.855-34.814 14.978-37.5.298-.715 3.817-8.658 7.82-17.65 7.178-16.132 7.452-16.772 20.554-48 9.816-23.395 14.406-34.206 17.6-41.45 5.565-12.621 5.275-11.943 7.67-17.95a522.663 522.663 0 0 1 2.082-5.184c.017-.019.111.01.21.066.158.088.251-.05.789-1.166.335-.696 3.913-7.679 7.95-15.516 5.675-11.014 8.888-17.406 14.15-28.15 3.744-7.645 8.139-16.465 9.765-19.6l7.178-13.84c2.321-4.478 4.538-8.708 4.925-9.4 1.175-2.1 15.146-25.863 16.056-27.31 2.409-3.827 2.75-4.298 12.381-17.1a2406.424 2406.424 0 0 0 14.089-18.95c7.055-9.614 7.911-10.75 9.886-13.117 1.669-2 15.203-17.365 17.119-19.433 2.439-2.634 4.49-4.59 13.147-12.547 9.381-8.622 9.985-9.16 12.95-11.54 2.995-2.405 4.217-3.282 11.5-8.25 12.74-8.693 14.906-10.043 20.948-13.063 1.62-.81 14.905-6.888 18.302-8.373 5.49-2.4 11.945-4.546 17.95-5.965 2.501-.59 14.6-3.326 16.15-3.65 4.358-.914 8.82-1.541 14.05-1.976 1.665-.139 3.919-.174 13.45-.21 11.543-.043 13.845 0 17.85.328 3.585.295 8.321.964 12 1.696 1.757.349 15.402 3.437 17.9 4.051 5.203 1.278 10.4 2.993 15.6 5.148 2.595 1.074 17.68 7.964 20.05 9.157 5.754 2.896 7.72 4.113 18.45 11.42 9.996 6.808 11.517 7.905 15.056 10.853 2.1 1.75 2.612 2.212 11.644 10.504 8.195 7.524 11.814 11.03 14.465 14.017 4.664 5.254 14.573 16.542 15.581 17.75 1.991 2.385 3.07 3.815 9.957 13.2a2393.385 2393.385 0 0 0 14.088 18.95c4.076 5.417 7.78 10.351 8.23 10.964 1.065 1.446 3.071 4.415 4.175 6.178 1.01 1.614 15.01 25.43 16.066 27.331.39.702 3.907 7.442 7.816 14.977 5.892 11.358 8.28 16.093 13.967 27.7 5.305 10.826 8.548 17.276 14.304 28.45 4.095 7.947 7.815 15.24 8.267 16.206.453.967 3.934 8.82 7.737 17.45 6.235 14.153 8.218 18.803 20.193 47.344 13.084 31.185 13.386 31.89 20.542 47.972 3.995 8.978 7.595 17.123 8.002 18.1.406.978 6.476 16.11 13.49 33.628l12.752 31.85 7.12 16c6.996 15.72 7.354 16.555 20.404 47.663 11.19 26.676 14.19 33.724 19.046 44.75l5.764 13.087 6.978 13.55c5.263 10.22 8.558 16.782 13.409 26.7 4.812 9.84 7.851 15.893 12.075 24.05 5.626 10.866 5.657 10.923 10.058 18.426l4.414 7.526 5.9 7.836c3.245 4.31 6.328 8.425 6.85 9.146.523.72.973 1.307 1 1.304.028 0 3.143-4.134 6.923-9.179l6.872-9.173 4.313-7.343c4.298-7.319 4.332-7.38 10.09-18.493 4.412-8.513 7.287-14.236 12.159-24.2 4.804-9.827 8.104-16.397 13.359-26.603l6.978-13.554 5.661-12.846c4.745-10.768 7.787-17.913 18.794-44.147a35746.85 35746.85 0 0 1 13.584-32.35c.247-.578 3.585-8.093 7.417-16.7l6.967-15.65 8.483-21.2c4.666-11.66 10.64-26.578 13.278-33.15l4.794-11.95 7.46-16.769c7.389-16.608 7.586-17.068 20.624-48.15 12.973-30.928 16.277-38.611 26.822-62.381 1.34-3.021 2.233-4.795 9.737-19.35 5.647-10.954 8.693-17.014 13.823-27.5 5.455-11.151 7.828-15.86 13.885-27.55 4.018-7.755 7.703-14.81 8.19-15.676.971-1.73 14.248-24.353 15.403-26.247 2.415-3.96 3.546-5.536 12.538-17.477a2283.598 2283.598 0 0 0 13.729-18.45c10.288-14.017 8.486-11.774 19.565-24.35 7.944-9.017 9.624-10.847 12.36-13.462 2.12-2.026 16.398-15.156 18.342-16.867a108.7 108.7 0 0 1 7.75-6.18c1.634-1.183 1.677-1.214 9.9-6.81 12.922-8.795 14.015-9.412 27.777-15.67 10.393-4.726 11.62-5.248 15.876-6.76 5.046-1.795 7.592-2.476 18.472-4.946 11.128-2.527 13.573-2.983 19.275-3.598 4.544-.49 5.142-.507 18.45-.507 13.51 0 13.974.014 18.9.556 5.555.61 7.731 1.02 18.85 3.541 11.38 2.581 14.194 3.355 19.9 5.473 3.294 1.223 4.947 1.932 13.05 5.6 10.355 4.685 13.591 6.292 18.05 8.962 2.42 1.45 4.096 2.56 12.236 8.106 9.175 6.253 9.846 6.732 13.164 9.4 2.736 2.199 2.755 2.216 13.3 11.905 7.71 7.084 9.812 9.086 12.138 11.559 1.691 1.798 15.66 17.637 17.52 19.864 1.971 2.363 2.947 3.658 10.196 13.534a2350.678 2350.678 0 0 0 14.097 18.95c4.079 5.417 7.832 10.428 8.339 11.134 1.004 1.398 2.99 4.357 3.752 5.591.264.426.508.773.544.77.035-.003.59-.779 1.232-1.725a387.15 387.15 0 0 1 3.253-4.67c20.405-28.865 43.706-55.108 71.033-80.005a501.574 501.574 0 0 1 48.746-39.108c66.216-46.645 144.453-77.5 234.25-92.387 38.376-6.362 77.857-9.75 121.2-10.4 64.165-.964 124.74 5.439 183.2 19.363 46.534 11.084 91.981 26.942 135.625 47.324 6.843 3.196 9.492 4.484 18.4 8.944l8.775 4.393v111.6c0 109.791 0 111.598-.19 111.463-.732-.526-13.435-8.968-15.394-10.23-30.473-19.63-58.906-35.16-88.216-48.18-59.958-26.635-121.37-40.662-188.15-42.974-12.012-.416-27.093-.377-37.75.097-48.063 2.14-89.938 11.814-127.432 29.441-24.044 11.304-46.07 25.967-66.018 43.947-6.354 5.729-14.14 13.517-20.255 20.262-23.874 26.336-43.008 57.323-56.994 92.3-15.642 39.117-25.076 83.723-28.194 133.3-.842 13.385-1.147 23.662-1.146 38.6 0 13.134.18 20.412.795 32.3 1.36 26.3 4.635 52.104 9.6 75.667 12.86 61.03 37.375 111.859 73.835 153.083 6.804 7.693 15.18 16.144 22.811 23.013 16.267 14.644 34.407 27.352 53.648 37.582 2.689 1.43 9.582 4.875 12.3 6.148 36.018 16.866 76.515 26.493 122 29.001 7.505.414 12.11.55 21 .622 32.541.262 65.418-2.519 96.55-8.167 34.741-6.303 67.61-15.973 100.6-29.597 36.506-15.075 73.104-34.93 110.725-60.069l5.875-3.926v223.169l-8.775 4.393c-8.673 4.342-11.231 5.588-17.675 8.608-63.124 29.585-130.236 49.696-198.65 59.53-29.752 4.277-58.09 6.6-90.25 7.396-4.063.1-24.33.198-28.6.137z"/>
</svg>
