<svg width="1536" height="1536" xmlns="http://www.w3.org/2000/svg">
    <path d="M2304 768h-128v640h128v384h-384v-128h-896v128H640v-384h128v-128H384v128H0v-384h128V384H0V0h384v128h896V0h384v384h-128v128h384V384h384v384zm-256-256v128h128V512h-128zm-640-384v128h128V128h-128zm-1280 0v128h128V128H128zm128 1152v-128H128v128h128zm1280-128h-128v128h128v-128zm-1152 0h896v-128h128V384h-128V256H384v128H256v640h128v128zm512 512v-128H768v128h128zm1280 0v-128h-128v128h128zm-128-256V768h-128V640h-384v384h128v384h-384v-128H896v128h128v128h896v-128h128z"/>
</svg>
