<svg xmlns="http://www.w3.org/2000/svg" viewBox="0 0 28 28" width="28" height="28" aria-label="Observable" fill="currentColor">
    <path d="m 14,22.6667 c -1.1542,0 -2.1542,-0.2514 -3,-0.754 C 10.15721,21.412 9.48339,20.7027 9.05521,19.8654 8.59997,18.9942 8.26672,18.0729 8.06354,17.1239 7.84796,16.0947 7.74294,15.0483 7.75,14 7.75,13.1699 7.80417,12.3764 7.91354,11.6176 8.02188,10.8598 8.22292,10.0894 8.51563,9.30748 8.80833,8.52555 9.18542,7.84763 9.64479,7.27274 10.12304,6.68378 10.74141,6.20438 11.45208,5.87163 12.1979,5.51244 13.0458,5.33333 14,5.33333 c 1.1542,0 2.1542,0.25134 3,0.754 0.8428,0.50067 1.5166,1.21 1.9448,2.04726 0.4521,0.86185 0.7823,1.77571 0.9917,2.74151 C 20.1448,11.841 20.25,12.883 20.25,14 c 0,0.8301 -0.0542,1.6236 -0.1635,2.3824 -0.1166,0.7878 -0.3226,1.5622 -0.6146,2.3101 -0.3021,0.7819 -0.6771,1.4599 -1.1292,2.0348 -0.4521,0.5748 -1.05,1.0419 -1.7948,1.4011 -0.7448,0.3592 -1.5937,0.5383 -2.5479,0.5383 z m 2.2063,-6.3722 C 16.804,15.6944 17.1365,14.864 17.125,14 c 0,-0.8927 -0.299,-1.6575 -0.8958,-2.2945 C 15.6313,11.0685 14.8885,10.75 14,10.75 c -0.8885,0 -1.6312,0.3185 -2.2292,0.9555 -0.58548,0.6068 -0.90882,1.435 -0.8958,2.2945 0,0.8927 0.29896,1.6575 0.8958,2.2945 0.598,0.637 1.3407,0.9555 2.2292,0.9555 0.8885,0 1.624,-0.3185 2.2063,-0.9555 z M 14,27 C 20.9031,27 26.5,21.1792 26.5,14 26.5,6.82075 20.9031,1 14,1 7.09687,1 1.5,6.82075 1.5,14 1.5,21.1792 7.09687,27 14,27 Z" fill="#000"/>
</svg>
