<svg width="1536" height="1536" xmlns="http://www.w3.org/2000/svg">
    <path d="M927 580c0 88-71 159-159 159s-159-71-159-159 71-159 159-159 159 71 159 159zm214 363c-18-36-69-67-136-14 0 0-91 72-237 72s-237-72-237-72c-67-53-118-22-136 14-32 64 4 95 85 148 69 44 165 61 226 67l-51 52c-72 72-142 142-191 190-29 29-29 76 0 105l9 9c29 29 76 29 105 0l191-191c72 73 142 143 191 191 29 29 76 29 105 0l9-9c29-29 29-76 0-105l-191-190-52-52c62-6 156-23 225-67 81-53 117-84 85-148zm-49-363c0-179-145-324-324-324S444 401 444 580s145 324 324 324 324-145 324-324zm444-164v960c0 159-129 288-288 288H288c-159 0-288-129-288-288V416c0-159 129-288 288-288h960c159 0 288 129 288 288z"/>
</svg>
