<svg width="1536" height="1536" xmlns="http://www.w3.org/2000/svg">
    <path d="M640 907c-250 0-454-203-454-453C186 203 390 0 640 0s454 203 454 454c0 250-204 453-454 453zm0-677c-123 0-223 100-223 224 0 123 100 223 223 223s223-100 223-223c0-124-100-224-223-224zm523 732c44 90-6 133-120 207-96 61-228 85-315 94l73 72 267 267c40 41 40 107 0 147l-12 13c-41 40-107 40-148 0-67-68-165-166-267-268l-267 268c-41 40-107 40-147 0l-12-13c-41-40-41-106 0-147 68-68 165-166 267-267l72-72c-86-9-220-32-317-94-114-74-164-117-120-207 26-51 97-94 191-20 0 0 127 101 332 101s332-101 332-101c94-74 165-31 191 20z"/>
</svg>
