<?xml version="1.0" standalone="no"?>
<svg width="1536px" height="1536px" version="1.1" xmlns="http://www.w3.org/2000/svg">
    <path transform="scale(1, -1) translate(0, -1536)" glyph-name="odnoklassnike_square" unicode="&#xf264;" 

d="M927 956c0 -88 -71 -159 -159 -159s-159 71 -159 159s71 159 159 159s159 -71 159 -159zM1141 593c-18 36 -69 67 -136 14c0 0 -91 -72 -237 -72s-237 72 -237 72c-67 53 -118 22 -136 -14c-32 -64 4 -95 85 -148c69 -44 165 -61 226 -67l-51 -52
c-72 -72 -142 -142 -191 -190c-29 -29 -29 -76 0 -105l9 -9c29 -29 76 -29 105 0l191 191c72 -73 142 -143 191 -191c29 -29 76 -29 105 0l9 9c29 29 29 76 0 105l-191 190l-52 52c62 6 156 23 225 67c81 53 117 84 85 148zM1092 956c0 179 -145 324 -324 324
s-324 -145 -324 -324s145 -324 324 -324s324 145 324 324zM1536 1120v-960c0 -159 -129 -288 -288 -288h-960c-159 0 -288 129 -288 288v960c0 159 129 288 288 288h960c159 0 288 -129 288 -288z" />
</svg>