<?xml version="1.0" standalone="no"?>
<svg width="1536px" height="1536px" version="1.1" xmlns="http://www.w3.org/2000/svg">
    <path transform="scale(1, -1) translate(0, -1536)" glyph-name="odnoklassniki" unicode="&#xf263;" horiz-adv-x="1280" 

d="M640 629c-250 0 -454 203 -454 453c0 251 204 454 454 454s454 -203 454 -454c0 -250 -204 -453 -454 -453zM640 1306c-123 0 -223 -100 -223 -224c0 -123 100 -223 223 -223s223 100 223 223c0 124 -100 224 -223 224zM1163 574c44 -90 -6 -133 -120 -207
c-96 -61 -228 -85 -315 -94l73 -72l267 -267c40 -41 40 -107 0 -147l-12 -13c-41 -40 -107 -40 -148 0c-67 68 -165 166 -267 268l-267 -268c-41 -40 -107 -40 -147 0l-12 13c-41 40 -41 106 0 147c68 68 165 166 267 267l72 72c-86 9 -220 32 -317 94
c-114 74 -164 117 -120 207c26 51 97 94 191 20c0 0 127 -101 332 -101s332 101 332 101c94 74 165 31 191 -20z" />
</svg>