<?xml version="1.0" standalone="no"?>
<svg width="1536px" height="1536px" version="1.1" xmlns="http://www.w3.org/2000/svg">
    <path transform="scale(1, -1) translate(0, -1536)" glyph-name="opencart" unicode="&#xf23d;" horiz-adv-x="2304" 

d="M1524 -25c0 -91 -73 -164 -164 -164s-165 73 -165 164s74 165 165 165s164 -74 164 -165zM775 -25c0 -91 -74 -164 -165 -164s-164 73 -164 164s73 165 164 165s165 -74 165 -165zM0 1469c295 -311 572 -357 1660 -357s610 -242 -62 -842c213 370 945 698 -255 680
c-1151 -17 -1219 333 -1343 519z" />
</svg>