<svg width="1536" height="1536" xmlns="http://www.w3.org/2000/svg">
    <path d="M1493 228c-105-70-228-110-359-110-213 0-401 109-533 273-96 120-163 290-168 484v42c5 194 72 364 168 484 132 164 320 273 533 273 131 0 254-40 359-110-158 142-368 228-597 228-14 0-29 0-43-1C378 1769 0 1377 0 896 0 401 401 0 896 0h3c228 1 436 87 594 228zm299 668c0 261-112 495-290 659-68 41-143 63-222 63-92 0-179-30-255-84 203-74 353-331 353-638 0-306-149-563-352-638 76-53 162-83 254-83 81 0 157 23 226 65 176 164 286 397 286 656z"/>
</svg>
