<?xml version="1.0" standalone="no"?>
<svg width="1536px" height="1536px" version="1.1" xmlns="http://www.w3.org/2000/svg">
    <path transform="scale(1, -1) translate(0, -1536)" glyph-name="opera" unicode="&#xf26a;" horiz-adv-x="1792" 

d="M1493 1308c-105 70 -228 110 -359 110c-213 0 -401 -109 -533 -273c-96 -120 -163 -290 -168 -484v-42c5 -194 72 -364 168 -484c132 -164 320 -273 533 -273c131 0 254 40 359 110c-158 -142 -368 -228 -597 -228c-14 0 -29 0 -43 1c-475 22 -853 414 -853 895
c0 495 401 896 896 896h3c228 -1 436 -87 594 -228zM1792 640c0 -261 -112 -495 -290 -659c-68 -41 -143 -63 -222 -63c-92 0 -179 30 -255 84c203 74 353 331 353 638c0 306 -149 563 -352 638c76 53 162 83 254 83c81 0 157 -23 226 -65c176 -164 286 -397 286 -656z" />
</svg>