<?xml version="1.0" standalone="no"?>
<svg width="1536px" height="1536px" version="1.1" xmlns="http://www.w3.org/2000/svg">
    <path transform="scale(1, -1) translate(0, -1536)" glyph-name="optin_monster" unicode="&#xf23c;" horiz-adv-x="2296" 

d="M478 -139c-10 -21 -39 -50 -64 -60c-35 -12 -78 11 -80 35c-2 31 75 87 108 93c32 6 47 -42 36 -68zM1819 -139c9 -21 38 -50 64 -60c34 -12 78 11 79 35c3 31 -75 87 -108 93c-31 6 -46 -42 -35 -68zM1867 -30c18 -36 89 -89 134 -101c61 -17 119 12 119 55
c0 66 -125 154 -183 160c-55 7 -91 -71 -70 -114zM428 -30c-18 -36 -88 -89 -133 -101c-61 -17 -119 12 -119 55c0 66 125 154 183 160c55 7 91 -71 69 -114zM1158 1094h1c-27 0 -53 -5 -76 -15c35 -11 61 -43 61 -80c0 -47 -41 -85 -92 -85c-34 0 -64 18 -80 43
c-3 -14 -5 -27 -5 -42c0 -99 85 -179 191 -179s192 80 192 179s-86 179 -192 179zM1462 1312c-132 145 -301 177 -466 87c93 208 452 180 466 -87zM2212 73c5 -7 -1 -25 -11 -42c4 -13 7 -26 7 -40c3 -117 -164 -237 -272 -241c-64 -3 -128 31 -158 87
c-420 -15 -840 -18 -1259 0c-31 -56 -95 -89 -159 -87c-107 4 -274 124 -272 241c1 14 3 27 7 40c-10 17 -16 35 -11 42c4 6 17 6 31 1c12 19 26 35 41 51c-4 17 -4 32 2 38c7 6 23 4 39 -4c17 12 37 24 59 34c0 18 5 32 13 37c12 6 33 2 51 -16c21 3 42 3 61 -2
c13 -3 26 -10 38 -19v73c-6 0 -11 0 -18 2c-65 12 -136 57 -152 132c-6 25 -6 52 0 81c12 50 55 79 93 95c3 22 30 52 55 59c28 7 46 -17 52 -38h13c18 -2 47 -6 60 -23c2 -2 4 -5 5 -7c20 2 41 5 61 7c-9 7 -19 13 -30 17c-19 33 -51 41 -91 43c0 3 0 6 1 10
c-73 2 -163 21 -203 66c-46 51 -54 138 -45 204c8 65 35 140 90 179c31 21 80 3 84 -36c2 -17 5 -75 21 -84c18 -9 47 -13 76 -12c30 29 62 54 98 74c-55 5 -107 -6 -162 -14l47 46c46 44 107 82 163 111c87 44 185 77 282 86c-69 29 -148 44 -221 61
c283 60 646 82 904 -139c67 -57 120 -134 158 -222c41 -5 93 -6 121 9h1c16 9 19 66 21 84c4 38 53 57 84 35c55 -39 82 -114 91 -178c8 -66 1 -153 -46 -204c-40 -45 -127 -65 -199 -67v-10c-41 -1 -75 -9 -95 -43c-11 -4 -21 -10 -31 -17c21 -2 42 -5 62 -7c1 3 3 6 5 8
c14 16 43 21 60 23h13c6 20 25 44 52 38s52 -37 55 -59c40 -16 82 -45 93 -95c7 -30 6 -56 1 -81c-17 -75 -88 -121 -153 -132c-5 -1 -12 -2 -17 -2c0 -25 0 -49 -1 -73c12 9 24 16 38 19c19 5 40 5 61 2c18 18 40 22 51 16c8 -5 14 -19 14 -37c21 -10 42 -22 59 -34
c16 8 31 10 38 4c6 -6 7 -21 2 -38c15 -16 30 -33 41 -51c14 5 26 5 31 -1zM1937 1025c0 -23 -5 -43 -9 -54c64 -25 97 -82 112 -132c4 39 -10 146 -51 189c-27 27 -52 19 -52 -3zM1859 925v0c48 -58 63 -154 47 -233c40 8 76 23 97 45c7 8 14 18 18 28
c-4 79 -38 158 -110 181c-12 -12 -34 -18 -52 -21v0zM1822 921c-14 0 -30 0 -44 1c28 -76 46 -158 53 -239c13 0 28 1 43 3c22 90 -1 191 -52 235zM258 839c15 50 48 107 112 132c-4 11 -9 31 -9 54c0 22 -26 30 -52 3c-42 -43 -55 -150 -51 -189zM294 737
c21 -23 57 -37 97 -45c-16 79 -1 175 47 233v0v0v0c-18 3 -40 9 -52 21c-72 -23 -105 -102 -110 -181c5 -10 11 -20 18 -28zM471 683c9 82 34 162 73 235c-19 -4 -37 -11 -55 -18l-45 -19v1c-27 -52 -37 -127 -20 -196c17 -2 32 -3 47 -3zM1434 644v0
c13 -66 18 -132 28 -198c4 -23 11 -28 33 -17c59 30 84 145 85 211c-48 3 -97 3 -146 4zM1152 1285c-155 0 -282 -126 -282 -281c0 -156 127 -282 282 -282s282 126 282 282c0 155 -127 281 -282 281zM1380 646c-70 1 -141 1 -211 0v1c-1 -19 1 -141 16 -152
c41 -20 146 -17 189 -4c20 6 9 137 6 155zM1112 447c17 9 9 168 5 199v1c-72 -1 -143 -1 -214 -3c-7 -34 -17 -181 7 -191c48 -21 154 -19 202 -6zM718 636c-20 -73 1 -167 82 -203c20 -9 32 -9 36 16c7 32 9 136 18 193v0c-45 -1 -91 -3 -136 -6zM591 510
c2 -18 -14 -29 -34 -36c162 -174 343 -317 577 -394c250 71 428 222 604 396c-18 7 -32 19 -30 34c1 4 2 6 3 9v0v1v-1c-33 3 -66 7 -98 10c-35 -122 -133 -196 -173 -117c-10 19 -13 43 -17 62c-14 -31 -49 -30 -91 -33c-49 -4 -117 -5 -163 11c-11 -48 -41 -48 -99 -53
c-52 -5 -180 -15 -203 40c-4 -106 -130 -37 -167 26c-12 21 -20 42 -26 65c-29 -3 -58 -6 -87 -10c2 -3 3 -7 4 -10zM507 -118c2 9 3 19 3 30c-21 86 -69 184 -124 200c-83 25 -255 -87 -245 -202c47 -72 148 -132 219 -135c66 -3 133 41 147 107zM510 53
c12 -33 24 -77 27 -119c124 72 256 132 392 174c-143 76 -252 177 -360 285c-8 -5 -19 -9 -29 -13c-1 -3 -1 -6 -2 -9c17 -10 29 -22 22 -37c-8 -15 -32 -28 -56 -34c-8 -10 -19 -18 -29 -24h-1c-1 -50 -1 -100 1 -150c14 -25 26 -51 35 -73zM579 -113
c382 -15 764 -13 1145 0c-136 79 -274 153 -428 196c-51 -23 -103 -42 -156 -57c-8 -3 -8 -3 -16 0c-44 14 -86 30 -129 49c-149 -43 -286 -108 -416 -188h-1v-1c1 0 1 0 1 1zM1763 -67c3 42 16 87 28 120c8 22 19 47 33 71l-1 -1c2 51 3 102 3 153c-11 6 -21 15 -30 25
c-24 5 -48 19 -56 33c-7 15 5 28 22 38c-1 2 -2 6 -2 9c-11 3 -20 7 -28 12c-117 -109 -242 -210 -383 -284c144 -43 281 -104 414 -176zM2155 -90c11 115 -161 227 -245 202c-54 -16 -103 -114 -124 -200c0 -11 1 -21 3 -30c14 -66 81 -110 147 -107c71 3 172 63 219 135z
" />
</svg>