<svg width="1536" height="1536" xmlns="http://www.w3.org/2000/svg">
    <path d="M478 1675c-10 21-39 50-64 60-35 12-78-11-80-35-2-31 75-87 108-93 32-6 47 42 36 68zm1341 0c9 21 38 50 64 60 34 12 78-11 79-35 3-31-75-87-108-93-31-6-46 42-35 68zm48-109c18 36 89 89 134 101 61 17 119-12 119-55 0-66-125-154-183-160-55-7-91 71-70 114zm-1439 0c-18 36-88 89-133 101-61 17-119-12-119-55 0-66 125-154 183-160 55-7 91 71 69 114zm730-1124h1c-27 0-53 5-76 15 35 11 61 43 61 80 0 47-41 85-92 85-34 0-64-18-80-43-3 14-5 27-5 42 0 99 85 179 191 179s192-80 192-179-86-179-192-179zm304-218c-132-145-301-177-466-87 93-208 452-180 466 87zm750 1239c5 7-1 25-11 42 4 13 7 26 7 40 3 117-164 237-272 241-64 3-128-31-158-87-420 15-840 18-1259 0-31 56-95 89-159 87-107-4-274-124-272-241 1-14 3-27 7-40-10-17-16-35-11-42 4-6 17-6 31-1 12-19 26-35 41-51-4-17-4-32 2-38 7-6 23-4 39 4 17-12 37-24 59-34 0-18 5-32 13-37 12-6 33-2 51 16 21-3 42-3 61 2 13 3 26 10 38 19v-73c-6 0-11 0-18-2-65-12-136-57-152-132-6-25-6-52 0-81 12-50 55-79 93-95 3-22 30-52 55-59 28-7 46 17 52 38h13c18 2 47 6 60 23 2 2 4 5 5 7 20-2 41-5 61-7-9-7-19-13-30-17-19-33-51-41-91-43 0-3 0-6 1-10-73-2-163-21-203-66-46-51-54-138-45-204 8-65 35-140 90-179 31-21 80-3 84 36 2 17 5 75 21 84 18 9 47 13 76 12 30-29 62-54 98-74-55-5-107 6-162 14l47-46c46-44 107-82 163-111 87-44 185-77 282-86-69-29-148-44-221-61 283-60 646-82 904 139 67 57 120 134 158 222 41 5 93 6 121-9h1c16-9 19-66 21-84 4-38 53-57 84-35 55 39 82 114 91 178 8 66 1 153-46 204-40 45-127 65-199 67v10c-41 1-75 9-95 43-11 4-21 10-31 17 21 2 42 5 62 7 1-3 3-6 5-8 14-16 43-21 60-23h13c6-20 25-44 52-38s52 37 55 59c40 16 82 45 93 95 7 30 6 56 1 81-17 75-88 121-153 132-5 1-12 2-17 2 0 25 0 49-1 73 12-9 24-16 38-19 19-5 40-5 61-2 18-18 40-22 51-16 8 5 14 19 14 37 21 10 42 22 59 34 16-8 31-10 38-4 6 6 7 21 2 38 15 16 30 33 41 51 14-5 26-5 31 1zm-275-952c0 23-5 43-9 54 64 25 97 82 112 132 4-39-10-146-51-189-27-27-52-19-52 3zm-78 100c48 58 63 154 47 233 40-8 76-23 97-45 7-8 14-18 18-28-4-79-38-158-110-181-12 12-34 18-52 21zm-37 4c-14 0-30 0-44-1 28 76 46 158 53 239 13 0 28-1 43-3 22-90-1-191-52-235zM258 697c15-50 48-107 112-132-4-11-9-31-9-54 0-22-26-30-52-3-42 43-55 150-51 189zm36 102c21 23 57 37 97 45-16-79-1-175 47-233-18-3-40-9-52-21-72 23-105 102-110 181 5 10 11 20 18 28zm177 54c9-82 34-162 73-235-19 4-37 11-55 18l-45 19v-1c-27 52-37 127-20 196 17 2 32 3 47 3zm963 39c13 66 18 132 28 198 4 23 11 28 33 17 59-30 84-145 85-211-48-3-97-3-146-4zm-282-641c-155 0-282 126-282 281 0 156 127 282 282 282s282-126 282-282c0-155-127-281-282-281zm228 639c-70-1-141-1-211 0v-1c-1 19 1 141 16 152 41 20 146 17 189 4 20-6 9-137 6-155zm-268 199c17-9 9-168 5-199v-1c-72 1-143 1-214 3-7 34-17 181 7 191 48 21 154 19 202 6zM718 900c-20 73 1 167 82 203 20 9 32 9 36-16 7-32 9-136 18-193-45 1-91 3-136 6zm-127 126c2 18-14 29-34 36 162 174 343 317 577 394 250-71 428-222 604-396-18-7-32-19-30-34 1-4 2-6 3-9v-1 1c-33-3-66-7-98-10-35 122-133 196-173 117-10-19-13-43-17-62-14 31-49 30-91 33-49 4-117 5-163-11-11 48-41 48-99 53-52 5-180 15-203-40-4 106-130 37-167-26-12-21-20-42-26-65-29 3-58 6-87 10 2 3 3 7 4 10zm-84 628c2-9 3-19 3-30-21-86-69-184-124-200-83-25-255 87-245 202 47 72 148 132 219 135 66 3 133-41 147-107zm3-171c12 33 24 77 27 119 124-72 256-132 392-174-143-76-252-177-360-285-8 5-19 9-29 13-1 3-1 6-2 9 17 10 29 22 22 37-8 15-32 28-56 34-8 10-19 18-29 24h-1c-1 50-1 100 1 150 14 25 26 51 35 73zm69 166c382 15 764 13 1145 0-136-79-274-153-428-196-51 23-103 42-156 57-8 3-8 3-16 0-44-14-86-30-129-49-149 43-286 108-416 188h-1v1c1 0 1 0 1-1zm1184-46c3-42 16-87 28-120 8-22 19-47 33-71l-1 1c2-51 3-102 3-153-11-6-21-15-30-25-24-5-48-19-56-33-7-15 5-28 22-38-1-2-2-6-2-9-11-3-20-7-28-12-117 109-242 210-383 284 144 43 281 104 414 176zm392 23c11-115-161-227-245-202-54 16-103 114-124 200 0 11 1 21 3 30 14 66 81 110 147 107 71-3 172-63 219-135z"/>
</svg>
