<svg xmlns="http://www.w3.org/2000/svg" width="2048" height="2048" viewBox="0 0 2048 2048">
    <g transform="matrix(3.5135 0 0 3.64947 -60.57 -1683.771)">
        <path d="m 342.40437,845.27818 c 40.32082,-14.97419 61.36968,-43.81349 61.36968,-93.44762 0,-49.63413 -41.82527,-93.37059 -94.0866,-93.45552 -55.14896,-0.0896 -96.75182,43.64 -96.0866,93.45552 0.66523,49.81551 24.42164,82.95509 62.44642,94.93898 L 208.68924,1012.4797 C 118.536,989.14196 26.84508,882.78774 26.84508,751.83056 c 0,-155.10914 124.63284,-280.84993 280.84238,-280.84993 156.20954,0 282.84239,125.74079 282.84239,280.84993 0,132.99462 -90.82075,237.8649 -182.89748,261.11524 z" fill="none" stroke="#000" stroke-width="19.212" stroke-linecap="round" stroke-linejoin="round"/>
        <g style="line-height:125%;-inkscape-font-specification:'Courier 10 Pitch'">
            <path style="line-height:100%;-inkscape-font-specification:OpenSymbol" d="m -185.04297,486.45963 c 1.52341,0.51565 2.99997,1.61721 4.42969,3.30468 1.45309,1.68752 2.90621,4.00783 4.35937,6.96094 l 7.20704,14.34375 h -7.62891 l -6.71484,-13.46484 c -1.73441,-3.51561 -3.42191,-5.84764 -5.0625,-6.9961 -1.61722,-1.14841 -3.83206,-1.72263 -6.64454,-1.72265 h -7.73437 V 511.069 h -7.10156 v -52.48828 h 16.03125 c 5.99997,5e-5 10.47653,1.25396 13.42968,3.76172 2.95309,2.50786 4.42965,6.29301 4.42969,11.35547 -4e-5,3.30472 -0.77348,6.0469 -2.32031,8.22656 -1.52348,2.17971 -3.75004,3.69143 -6.67969,4.53516 m -17.78906,-22.04297 v 18.63281 h 8.92969 c 3.42184,3e-5 5.99997,-0.78513 7.73437,-2.35547 1.75778,-1.59372 2.63669,-3.92575 2.63672,-6.99609 -3e-5,-3.07027 -0.87894,-5.37887 -2.63672,-6.92578 -1.7344,-1.57027 -4.31253,-2.35543 -7.73437,-2.35547 h -8.92969" font-family="OpenSymbol" transform="translate(685.4 692.863) scale(.62188)" font-weight="400" font-size="72" letter-spacing="0" word-spacing="0"/>
        </g>
        <circle cy="994.911" cx="565.55" fill="none" stroke="#000" stroke-width="3.973" stroke-linecap="round" stroke-linejoin="round" r="23.014"/>
    </g>
</svg>
