<?xml version="1.0" standalone="no"?>
<svg width="1536px" height="1536px" version="1.1" xmlns="http://www.w3.org/2000/svg">
    <path transform="scale(1, -1) translate(0, -1536)" glyph-name="pagelines" unicode="&#xf18c;" horiz-adv-x="1408" 

d="M1402 433c-201 -499 -683 -197 -683 -197c-148 -299 -392 -491 -674 -492c-25 0 -45 20 -45 45s20 44 45 44c235 1 440 156 574 402c-150 -58 -433 -102 -590 300c398 164 581 -41 651 -166c36 89 62 186 79 291c0 0 -510 -80 -546 358c435 175 557 -280 557 -280
c6 61 12 192 12 195c0 0 -388 269 -139 603c455 -157 224 -593 224 -593c2 -6 2 -87 0 -122c0 0 165 325 498 210c-15 -489 -518 -388 -518 -388c-16 -100 -41 -195 -73 -283c0 0 303 335 628 73z" />
</svg>