<?xml version="1.0" standalone="no"?>
<svg width="1536px" height="1536px" version="1.1" xmlns="http://www.w3.org/2000/svg">
    <path transform="scale(1, -1) translate(0, -1536)" glyph-name="paint_brush" unicode="&#xf1fc;" horiz-adv-x="1792" 

d="M1615 1536c91 0 175 -68 175 -163c0 -53 -21 -104 -45 -151c-78 -148 -340 -637 -465 -752c-61 -57 -133 -91 -218 -91c-169 0 -307 144 -307 312c0 80 33 158 92 212l638 579c35 32 81 54 130 54zM706 502c52 -101 147 -177 257 -206l1 -71c6 -285 -192 -481 -478 -481
c-339 0 -486 270 -486 577c37 -25 166 -128 208 -128c25 0 46 14 55 37c85 222 218 262 443 272z" />
</svg>