<?xml version="1.0" standalone="no"?>
<svg width="1536px" height="1536px" version="1.1" xmlns="http://www.w3.org/2000/svg">
    <path transform="scale(1, -1) translate(0, -1536)" glyph-name="paperclip" unicode="&#xf0c6;" horiz-adv-x="1408" 

d="M1404 151c0 -156 -119 -275 -275 -275c-88 0 -173 38 -235 100l-777 776c-71 72 -113 170 -113 271c0 212 167 381 379 381c102 0 200 -41 273 -113l605 -606c6 -6 10 -14 10 -22c0 -21 -56 -77 -77 -77c-9 0 -17 4 -23 10l-606 607c-48 47 -113 77 -181 77
c-142 0 -252 -115 -252 -256c0 -68 28 -133 76 -181l776 -777c38 -38 91 -63 145 -63c85 0 148 63 148 148c0 55 -25 107 -63 145l-581 581c-16 15 -38 24 -60 24c-38 0 -67 -28 -67 -67c0 -22 10 -43 25 -59l410 -410c6 -6 10 -14 10 -22c0 -21 -57 -78 -78 -78
c-8 0 -16 4 -22 10l-410 410c-40 39 -63 94 -63 149c0 110 86 196 196 196c56 0 110 -23 149 -63l581 -581c63 -62 100 -147 100 -235z" />
</svg>