<?xml version="1.0" standalone="no"?>
<svg width="1536px" height="1536px" version="1.1" xmlns="http://www.w3.org/2000/svg">
    <path transform="scale(1, -1) translate(0, -1536)" glyph-name="paper_plane_o" unicode="&#xf1d9;" horiz-adv-x="1792" 

d="M1764 1525c21 -15 31 -39 27 -64l-256 -1536c-3 -19 -15 -35 -32 -45c-9 -5 -20 -8 -31 -8c-8 0 -16 2 -24 5l-527 215l-298 -327c-12 -14 -29 -21 -47 -21c-8 0 -16 1 -23 4c-25 10 -41 34 -41 60v452l-472 193c-23 9 -38 30 -40 55c-2 24 11 47 32 59l1664 960
c21 13 48 12 68 -2zM1422 26l221 1323l-1434 -827l336 -137l863 639l-478 -797z" />
</svg>