<svg width="1536" height="1536" xmlns="http://www.w3.org/2000/svg">
    <path d="M1404 1385c0 156-119 275-275 275-88 0-173-38-235-100L117 784C46 712 4 614 4 513c0-212 167-381 379-381 102 0 200 41 273 113l605 606c6 6 10 14 10 22 0 21-56 77-77 77-9 0-17-4-23-10L565 333c-48-47-113-77-181-77-142 0-252 115-252 256 0 68 28 133 76 181l776 777c38 38 91 63 145 63 85 0 148-63 148-148 0-55-25-107-63-145L633 659c-16-15-38-24-60-24-38 0-67 28-67 67 0 22 10 43 25 59l410 410c6 6 10 14 10 22 0 21-57 78-78 78-8 0-16-4-22-10L441 851c-40-39-63-94-63-149 0-110 86-196 196-196 56 0 110 23 149 63l581 581c63 62 100 147 100 235z"/>
</svg>
