<?xml version="1.0" standalone="no"?>
<svg width="1536px" height="1536px" version="1.1" xmlns="http://www.w3.org/2000/svg">
    <path transform="scale(1, -1) translate(0, -1536)" glyph-name="paper_plane" unicode="&#xf1d8;" horiz-adv-x="1792" 

d="M1764 1525c21 -15 31 -39 27 -64l-256 -1536c-3 -19 -15 -35 -32 -45c-9 -5 -20 -8 -31 -8c-8 0 -16 2 -24 5l-453 185l-242 -295c-12 -15 -30 -23 -49 -23c-7 0 -15 1 -22 4c-25 9 -42 33 -42 60v349l864 1059l-1069 -925l-395 162c-23 9 -38 30 -40 55
c-1 24 11 47 32 59l1664 960c10 6 21 9 32 9c13 0 26 -4 36 -11z" />
</svg>