<?xml version="1.0" standalone="no"?>
<svg width="1536px" height="1536px" version="1.1" xmlns="http://www.w3.org/2000/svg">
    <path transform="scale(1, -1) translate(0, -1536)" glyph-name="paragraph" unicode="&#xf1dd;" horiz-adv-x="1280" 

d="M1278 1347v-73c0 -34 -27 -93 -61 -93c-17 0 -37 3 -54 -1c-16 -4 -28 -15 -32 -31c-5 -19 -3 -43 -3 -64v-1152c0 -34 -27 -61 -61 -61h-108c-34 0 -61 27 -61 61v1218h-143v-1218c0 -34 -27 -61 -61 -61h-108c-34 0 -61 27 -61 61v496c-97 8 -180 28 -245 59
c-84 39 -148 99 -192 179c-42 77 -64 164 -64 259c0 111 30 207 88 286c59 79 129 132 209 159c75 25 233 37 417 37h479c34 0 61 -27 61 -61z" />
</svg>