<?xml version="1.0" standalone="no"?>
<svg width="1536px" height="1536px" version="1.1" xmlns="http://www.w3.org/2000/svg">
    <path transform="scale(1, -1) translate(0, -1536)" glyph-name="pause_circle" unicode="&#xf28b;" 

d="M704 352v576c0 18 -14 32 -32 32h-256c-18 0 -32 -14 -32 -32v-576c0 -18 14 -32 32 -32h256c18 0 32 14 32 32zM1152 352v576c0 18 -14 32 -32 32h-256c-18 0 -32 -14 -32 -32v-576c0 -18 14 -32 32 -32h256c18 0 32 14 32 32zM1536 640c0 -424 -344 -768 -768 -768
s-768 344 -768 768s344 768 768 768s768 -344 768 -768z" />
</svg>