<svg width="1536" height="1536" xmlns="http://www.w3.org/2000/svg">
    <path d="M780 472c0 112-58 245-187 245-162 0-260-204-260-344 0-112 58-245 187-245 163 0 260 204 260 344zM438 955c0 97-51 198-161 198C117 1153 0 957 0 812c0-97 52-199 161-199 160 0 277 197 277 342zm394-27c245 0 576 353 576 589 0 127-104 147-206 147-134 0-242-90-370-90-134 0-248 89-393 89-97 0-183-33-183-146 0-237 331-589 576-589zm239-211c-129 0-187-133-187-245 0-140 97-344 260-344 129 0 187 133 187 245 0 140-98 344-260 344zm432-104c109 0 161 102 161 199 0 145-117 341-277 341-110 0-161-101-161-198 0-145 117-342 277-342z"/>
</svg>
