<?xml version="1.0" standalone="no"?>
<svg width="1536px" height="1536px" version="1.1" xmlns="http://www.w3.org/2000/svg">
    <path transform="scale(1, -1) translate(0, -1536)" glyph-name="paw" unicode="&#xf1b0;" horiz-adv-x="1664" 

d="M780 1064c0 -112 -58 -245 -187 -245c-162 0 -260 204 -260 344c0 112 58 245 187 245c163 0 260 -204 260 -344zM438 581c0 -97 -51 -198 -161 -198c-160 0 -277 196 -277 341c0 97 52 199 161 199c160 0 277 -197 277 -342zM832 608c245 0 576 -353 576 -589
c0 -127 -104 -147 -206 -147c-134 0 -242 90 -370 90c-134 0 -248 -89 -393 -89c-97 0 -183 33 -183 146c0 237 331 589 576 589zM1071 819c-129 0 -187 133 -187 245c0 140 97 344 260 344c129 0 187 -133 187 -245c0 -140 -98 -344 -260 -344zM1503 923
c109 0 161 -102 161 -199c0 -145 -117 -341 -277 -341c-110 0 -161 101 -161 198c0 145 117 342 277 342z" />
</svg>