<?xml version="1.0" standalone="no"?>
<svg width="1536px" height="1536px" version="1.1" xmlns="http://www.w3.org/2000/svg">
    <path transform="scale(1, -1) translate(0, -1536)" glyph-name="_469" unicode="&#xf1ed;" 

d="M1519 890v0c13 -60 10 -129 -4 -204c-65 -330 -284 -444 -565 -444h-44c-34 0 -62 -25 -68 -59l-4 -19l-55 -346l-2 -15c-7 -34 -35 -59 -69 -59h-251c-28 0 -46 23 -42 51c18 112 35 224 53 336s36 223 54 335c3 24 19 37 43 37c40 0 80 1 131 0c72 -1 155 3 236 21
c108 24 206 68 287 144c73 68 122 152 155 246c15 44 27 88 35 133c2 12 5 10 12 5c55 -41 86 -96 98 -162zM1347 1172c0 -82 -19 -160 -46 -236c-52 -151 -150 -259 -302 -315c-81 -29 -166 -41 -252 -42c-60 -1 -120 0 -180 0c-65 0 -106 -32 -118 -96
c-14 -76 -69 -430 -85 -530c-1 -7 -4 -10 -12 -10h-295c-30 0 -52 26 -48 55l232 1471c6 38 40 67 79 67h598c43 0 142 -19 209 -45c142 -55 220 -167 220 -319z" />
</svg>