<svg width="1536" height="1536" xmlns="http://www.w3.org/2000/svg">
    <path d="M1519 646c13 60 10 129-4 204-65 330-284 444-565 444h-44c-34 0-62 25-68 59l-4 19-55 346-2 15c-7 34-35 59-69 59H457c-28 0-46-23-42-51 18-112 35-224 53-336s36-223 54-335c3-24 19-37 43-37 40 0 80-1 131 0 72 1 155-3 236-21 108-24 206-68 287-144 73-68 122-152 155-246 15-44 27-88 35-133 2-12 5-10 12-5 55 41 86 96 98 162zm-172-282c0 82-19 160-46 236-52 151-150 259-302 315-81 29-166 41-252 42-60 1-120 0-180 0-65 0-106 32-118 96-14 76-69 430-85 530-1 7-4 10-12 10H57c-30 0-52-26-48-55L241 67c6-38 40-67 79-67h598c43 0 142 19 209 45 142 55 220 167 220 319z"/>
</svg>
