<?xml version="1.0" standalone="no"?>
<svg width="1536px" height="1536px" version="1.1" xmlns="http://www.w3.org/2000/svg">
    <path transform="scale(1, -1) translate(0, -1536)" glyph-name="pencil" unicode="&#xf040;" 

d="M363 0l91 91l-235 235l-91 -91v-107h128v-128h107zM886 928c0 13 -9 22 -22 22c-6 0 -12 -2 -17 -7l-542 -542c-5 -5 -7 -11 -7 -17c0 -13 9 -22 22 -22c6 0 12 2 17 7l542 542c5 5 7 11 7 17zM832 1120l416 -416l-832 -832h-416v416zM1515 1024c0 -34 -14 -67 -37 -90
l-166 -166l-416 416l166 165c23 24 56 38 90 38s67 -14 91 -38l235 -234c23 -24 37 -57 37 -91z" />
</svg>