<?xml version="1.0" standalone="no"?>
<svg width="1536px" height="1536px" version="1.1" xmlns="http://www.w3.org/2000/svg">
    <path transform="scale(1, -1) translate(0, -1536)" glyph-name="edit" unicode="&#xf044;" horiz-adv-x="1792" 

d="M888 352l116 116l-152 152l-116 -116v-56h96v-96h56zM1328 1072c-9 9 -24 8 -33 -1l-350 -350c-9 -9 -10 -24 -1 -33s24 -8 33 1l350 350c9 9 10 24 1 33zM1408 478v-190c0 -159 -129 -288 -288 -288h-832c-159 0 -288 129 -288 288v832c0 159 129 288 288 288h832
c40 0 80 -8 117 -25c9 -4 16 -13 18 -23c2 -11 -1 -21 -9 -29l-49 -49c-9 -9 -21 -12 -32 -8c-15 4 -30 6 -45 6h-832c-88 0 -160 -72 -160 -160v-832c0 -88 72 -160 160 -160h832c88 0 160 72 160 160v126c0 8 3 16 9 22l64 64c10 10 23 12 35 7s20 -16 20 -29zM1312 1216
l288 -288l-672 -672h-288v288zM1756 1084l-92 -92l-288 288l92 92c37 37 99 37 136 0l152 -152c37 -37 37 -99 0 -136z" />
</svg>