<svg width="1536" height="1536" xmlns="http://www.w3.org/2000/svg">
    <path d="M888 1184l116-116-152-152-116 116v56h96v96h56zm440-720c-9-9-24-8-33 1L945 815c-9 9-10 24-1 33s24 8 33-1l350-350c9-9 10-24 1-33zm80 594v190c0 159-129 288-288 288H288c-159 0-288-129-288-288V416c0-159 129-288 288-288h832c40 0 80 8 117 25 9 4 16 13 18 23 2 11-1 21-9 29l-49 49c-9 9-21 12-32 8-15-4-30-6-45-6H288c-88 0-160 72-160 160v832c0 88 72 160 160 160h832c88 0 160-72 160-160v-126c0-8 3-16 9-22l64-64c10-10 23-12 35-7s20 16 20 29zm-96-738l288 288-672 672H640V992zm444 132l-92 92-288-288 92-92c37-37 99-37 136 0l152 152c37 37 37 99 0 136z"/>
</svg>
