<?xml version="1.0" standalone="no"?>
<svg width="1536px" height="1536px" version="1.1" xmlns="http://www.w3.org/2000/svg">
    <path transform="scale(1, -1) translate(0, -1536)" glyph-name="percent" unicode="&#xf295;" 

d="M1280 256c0 70 -58 128 -128 128s-128 -58 -128 -128s58 -128 128 -128s128 58 128 128zM512 1024c0 70 -58 128 -128 128s-128 -58 -128 -128s58 -128 128 -128s128 58 128 128zM1536 256c0 -212 -172 -384 -384 -384s-384 172 -384 384s172 384 384 384
s384 -172 384 -384zM1440 1344c0 -14 -5 -27 -13 -38l-1056 -1408c-12 -16 -31 -26 -51 -26h-160c-35 0 -64 29 -64 64c0 14 5 27 13 38l1056 1408c12 16 31 26 51 26h160c35 0 64 -29 64 -64zM768 1024c0 -212 -172 -384 -384 -384s-384 172 -384 384s172 384 384 384
s384 -172 384 -384z" />
</svg>