<svg width="1536" height="1536" xmlns="http://www.w3.org/2000/svg">
    <path d="M1280 1280c0-70-58-128-128-128s-128 58-128 128 58 128 128 128 128-58 128-128zM512 512c0-70-58-128-128-128s-128 58-128 128 58 128 128 128 128-58 128-128zm1024 768c0 212-172 384-384 384s-384-172-384-384 172-384 384-384 384 172 384 384zm-96-1088c0 14-5 27-13 38L371 1638c-12 16-31 26-51 26H160c-35 0-64-29-64-64 0-14 5-27 13-38L1165 154c12-16 31-26 51-26h160c35 0 64 29 64 64zM768 512c0 212-172 384-384 384S0 724 0 512s172-384 384-384 384 172 384 384z"/>
</svg>
