<svg width="1536" height="1536" xmlns="http://www.w3.org/2000/svg">
    <path d="M1408 1240c0 36-16 106-31 139-21 49-77 81-122 106-59 32-119 51-186 51-93 0-177-38-262-69-61-22-120-49-175-83-170-105-375-310-480-480-34-55-61-114-83-175C38 644 0 560 0 467c0-67 19-127 51-186 25-45 57-101 106-122 33-15 103-31 139-31 7 0 14 0 21 3 21 7 43 56 53 76 32 57 63 115 96 171 16 26 46 58 46 89 0 61-181 150-181 204 0 27 25 62 39 86 101 182 227 308 409 409 24 14 59 39 86 39 54 0 143-181 204-181 31 0 63 30 89 46 56 33 114 64 171 96 20 10 69 32 76 53 3 7 3 14 3 21z"/>
</svg>
