<svg width="1536" height="1536" xmlns="http://www.w3.org/2000/svg">
    <path d="M1280 1193c0-5 0-11-2-16-6-18-152-92-180-108-19-11-42-33-65-33-44 0-109 131-148 131-20 0-45-18-63-28-132-74-223-165-297-297-10-18-28-43-28-63 0-39 131-104 131-148 0-23-22-46-33-65-16-28-90-174-108-180-5-2-11-2-16-2-26 0-77 12-101 22-66 30-114 156-114 225 0 67 27 128 50 190 80 219 318 457 537 537 62 23 123 50 190 50 69 0 195-48 225-114 10-24 22-75 22-101zm256-777v960c0 159-129 288-288 288H288c-159 0-288-129-288-288V416c0-159 129-288 288-288h960c159 0 288 129 288 288z"/>
</svg>
