<?xml version="1.0" standalone="no"?>
<svg width="1536px" height="1536px" version="1.1" xmlns="http://www.w3.org/2000/svg">
    <path transform="scale(1, -1) translate(0, -1536)" glyph-name="phone_square" unicode="&#xf098;" 

d="M1280 343c0 5 0 11 -2 16c-6 18 -152 92 -180 108c-19 11 -42 33 -65 33c-44 0 -109 -131 -148 -131c-20 0 -45 18 -63 28c-132 74 -223 165 -297 297c-10 18 -28 43 -28 63c0 39 131 104 131 148c0 23 -22 46 -33 65c-16 28 -90 174 -108 180c-5 2 -11 2 -16 2
c-26 0 -77 -12 -101 -22c-66 -30 -114 -156 -114 -225c0 -67 27 -128 50 -190c80 -219 318 -457 537 -537c62 -23 123 -50 190 -50c69 0 195 48 225 114c10 24 22 75 22 101zM1536 1120v-960c0 -159 -129 -288 -288 -288h-960c-159 0 -288 129 -288 288v960
c0 159 129 288 288 288h960c159 0 288 -129 288 -288z" />
</svg>