<?xml version="1.0" standalone="no"?>
<svg width="1536px" height="1536px" version="1.1" xmlns="http://www.w3.org/2000/svg">
    <path transform="scale(1, -1) translate(0, -1536)" glyph-name="phone" unicode="&#xf095;" horiz-adv-x="1408" 

d="M1408 296c0 -36 -16 -106 -31 -139c-21 -49 -77 -81 -122 -106c-59 -32 -119 -51 -186 -51c-93 0 -177 38 -262 69c-61 22 -120 49 -175 83c-170 105 -375 310 -480 480c-34 55 -61 114 -83 175c-31 85 -69 169 -69 262c0 67 19 127 51 186c25 45 57 101 106 122
c33 15 103 31 139 31c7 0 14 0 21 -3c21 -7 43 -56 53 -76c32 -57 63 -115 96 -171c16 -26 46 -58 46 -89c0 -61 -181 -150 -181 -204c0 -27 25 -62 39 -86c101 -182 227 -308 409 -409c24 -14 59 -39 86 -39c54 0 143 181 204 181c31 0 63 -30 89 -46
c56 -33 114 -64 171 -96c20 -10 69 -32 76 -53c3 -7 3 -14 3 -21z" />
</svg>