<svg xmlns="http://www.w3.org/2000/svg" width="1536" height="1792" viewBox="0 0 1536 1792">
    <path d="M1149.385 291.38C514.605 291.38 0 562.083 0 896c0 333.92 514.607 604.62 1149.385 604.62 634.776 0 1149.39-270.701 1149.39-604.62 0-333.916-514.614-604.62-1149.39-604.62zm-100.221 164h124.573l-35.207 166.587h111.94c61.385 1.168 107.117 13.382 137.214 36.636 30.693 23.251 39.725 67.452 27.087 132.569l-60.488 290.439h-126.38l57.773-277.35c6.013-29.079 4.205-49.72-5.418-61.929-9.623-12.212-30.384-18.318-62.286-18.318l-100.201-.871-74.025 358.468h-124.58zM478.326 621.968h241.93c71.01.576 122.467 20.36 154.37 59.311 31.901 38.952 42.428 92.156 31.593 159.612-4.206 30.823-13.538 61.05-27.982 90.705-13.848 29.655-33.091 56.402-57.772 80.247-30.096 30.232-62.293 49.418-96.598 57.564-34.302 8.146-69.816 12.205-106.522 12.205H509.02l-34.304 165.718H349.231l129.097-625.362zm1070.217 0h241.935c71.01.576 122.467 20.36 154.37 59.311 31.901 38.952 42.428 92.156 31.593 159.612-4.205 30.823-13.544 61.05-27.988 90.705-13.848 29.655-33.093 56.402-57.773 80.247-30.097 30.232-62.285 49.418-96.59 57.564-34.303 8.146-69.817 12.205-106.522 12.205h-108.335l-34.302 165.718h-125.478zm-925.78 99.435c-7.221.576-14.134.871-20.76.871h-18.24l-53.98 260.787a68.65 68.65 0 0 0 10.83.87h12.64c57.775.576 105.927-4.936 144.437-16.571 38.51-12.21 64.402-54.651 77.636-127.34 10.833-61.053 0-96.237-32.497-105.535-31.903-9.297-71.914-13.658-120.066-13.08zm1070.216 0c-7.222.576-14.135.871-20.76.871h-18.24L1600 983.061a68.694 68.694 0 0 0 10.835.87h12.633c57.776.576 105.926-4.936 144.437-16.571 38.512-12.21 64.403-54.651 77.638-127.34 10.832-61.053 0-96.237-32.499-105.535-31.902-9.297-71.913-13.658-120.065-13.08z"/>
</svg>
