<svg xmlns="http://www.w3.org/2000/svg" width="1536" height="1792">
    <path d="M767.998 492.007C343.85 492.007 0 672.887 0 896.003 0 1119.123 343.851 1300 767.998 1300 1192.144 1300 1536 1119.122 1536 896.003c0-223.116-343.856-403.996-768.002-403.996zM701.032 601.59h83.238L760.745 712.9h74.796c41.017.781 71.574 8.942 91.684 24.48 20.509 15.536 26.544 45.07 18.099 88.58l-40.417 194.066h-84.444l38.602-185.32c4.018-19.43 2.81-33.222-3.62-41.38-6.43-8.16-20.302-12.24-41.618-12.24l-66.953-.582-49.462 239.522H614.17l86.862-418.436zM319.609 712.9h161.653c47.447.385 81.83 13.604 103.147 39.631 21.316 26.027 28.35 61.577 21.11 106.65-2.81 20.595-9.046 40.792-18.697 60.607-9.253 19.815-22.111 37.687-38.602 53.62-20.11 20.2-41.623 33.02-64.545 38.463-22.92 5.443-46.65 8.155-71.176 8.155h-72.382l-22.921 110.73H233.35L319.61 712.9zm715.099 0h161.657c47.447.385 81.83 13.604 103.147 39.631 21.316 26.027 28.35 61.577 21.11 106.65-2.81 20.595-9.05 40.792-18.701 60.607-9.253 19.815-22.112 37.687-38.603 53.62-20.11 20.2-41.618 33.02-64.54 38.463-22.92 5.443-46.65 8.155-71.176 8.155h-72.387l-22.92 110.73h-83.842l86.255-417.856zm-618.589 66.441c-4.825.385-9.444.582-13.871.582H390.06l-36.068 174.253c2.413.385 4.823.581 7.236.581h8.446c38.604.385 70.778-3.298 96.51-11.072 25.732-8.158 43.032-36.517 51.875-85.086 7.238-40.795 0-64.304-21.714-70.517-21.317-6.212-48.052-9.126-80.226-8.74zm715.099 0c-4.826.385-9.445.582-13.872.582h-12.187l-36.068 174.253a45.9 45.9 0 0 0 7.24.581h8.441c38.605.385 70.778-3.298 96.51-11.072 25.733-8.158 43.033-36.517 51.876-85.086 7.238-40.795 0-64.304-21.715-70.517-21.316-6.212-48.051-9.126-80.225-8.74z"/>
</svg>
