<?xml version="1.0" standalone="no"?>
<svg width="1536px" height="1536px" version="1.1" xmlns="http://www.w3.org/2000/svg">
    <path transform="scale(1, -1) translate(0, -1536)" glyph-name="picture_o" unicode="&#xf03e;" horiz-adv-x="1920" 

d="M640 960c0 -106 -86 -192 -192 -192s-192 86 -192 192s86 192 192 192s192 -86 192 -192zM1664 576v-448h-1408v192l320 320l160 -160l512 512zM1760 1280h-1600c-17 0 -32 -15 -32 -32v-1216c0 -17 15 -32 32 -32h1600c17 0 32 15 32 32v1216c0 17 -15 32 -32 32z
M1920 1248v-1216c0 -88 -72 -160 -160 -160h-1600c-88 0 -160 72 -160 160v1216c0 88 72 160 160 160h1600v0c88 0 160 -72 160 -160z" />
</svg>