<svg width="1536" height="1536" xmlns="http://www.w3.org/2000/svg">
    <path d="M1536 896c0 424-344 768-768 768-76 0-148-11-218-32 29-46 62-105 78-164 0 0 9-34 54-211 26 51 104 96 187 96 247 0 415-225 415-527 0-227-193-440-487-440-364 0-548 262-548 480 0 132 50 250 157 294 17 7 33 0 38-20 4-13 12-47 16-61 5-20 3-26-11-43-31-37-51-84-51-151 0-194 145-368 378-368 206 0 320 126 320 295 0 221-98 408-244 408-80 0-140-66-121-148 23-97 68-202 68-272 0-63-34-116-104-116-82 0-148 85-148 199 0 0 0 73 25 122-84 356-99 418-99 418-14 58-15 123-13 177C189 1481 0 1211 0 896c0-424 344-768 768-768s768 344 768 768z"/>
</svg>
