<?xml version="1.0" standalone="no"?>
<svg width="1536px" height="1536px" version="1.1" xmlns="http://www.w3.org/2000/svg">
    <path transform="scale(1, -1) translate(0, -1536)" glyph-name="pinterest" unicode="&#xf0d2;" 

d="M1536 640c0 -424 -344 -768 -768 -768c-76 0 -148 11 -218 32c29 46 62 105 78 164c0 0 9 34 54 211c26 -51 104 -96 187 -96c247 0 415 225 415 527c0 227 -193 440 -487 440c-364 0 -548 -262 -548 -480c0 -132 50 -250 157 -294c17 -7 33 0 38 20c4 13 12 47 16 61
c5 20 3 26 -11 43c-31 37 -51 84 -51 151c0 194 145 368 378 368c206 0 320 -126 320 -295c0 -221 -98 -408 -244 -408c-80 0 -140 66 -121 148c23 97 68 202 68 272c0 63 -34 116 -104 116c-82 0 -148 -85 -148 -199c0 0 0 -73 25 -122c-84 -356 -99 -418 -99 -418
c-14 -58 -15 -123 -13 -177c-271 119 -460 389 -460 704c0 424 344 768 768 768s768 -344 768 -768z" />
</svg>