<?xml version="1.0" standalone="no"?>
<svg width="1536px" height="1536px" version="1.1" xmlns="http://www.w3.org/2000/svg">
    <path transform="scale(1, -1) translate(0, -1536)" glyph-name="pinterest_p" unicode="&#xf231;" horiz-adv-x="1280" 

d="M0 939c0 369 338 597 680 597c314 0 600 -216 600 -547c0 -311 -159 -656 -513 -656c-84 0 -190 42 -231 120c-76 -301 -70 -346 -238 -576l-14 -5l-9 10c-6 63 -15 125 -15 188c0 204 94 499 140 697c-25 51 -32 113 -32 169c0 101 70 229 184 229
c84 0 129 -64 129 -143c0 -130 -88 -252 -88 -378c0 -86 71 -146 154 -146c230 0 301 332 301 509c0 237 -168 366 -395 366c-264 0 -468 -190 -468 -458c0 -129 79 -195 79 -226c0 -26 -19 -118 -52 -118c-5 0 -12 2 -17 3c-143 43 -195 234 -195 365z" />
</svg>