<?xml version="1.0" standalone="no"?>
<svg width="1536px" height="1536px" version="1.1" xmlns="http://www.w3.org/2000/svg">
    <path transform="scale(1, -1) translate(0, -1536)" glyph-name="pinterest_square" unicode="&#xf0d3;" 

d="M1248 1408c159 0 288 -129 288 -288v-960c0 -159 -129 -288 -288 -288h-725c33 47 87 128 108 210c0 0 9 34 53 209c27 -51 104 -95 186 -95c244 0 410 223 410 521c0 225 -191 435 -481 435c-361 0 -543 -259 -543 -475c0 -130 50 -246 156 -290c17 -7 33 0 38 19
c3 13 11 47 15 61c5 19 3 26 -11 42c-30 37 -50 83 -50 150c0 192 144 363 374 363c204 0 316 -124 316 -291c0 -219 -97 -404 -241 -404c-79 0 -139 66 -120 147c23 96 67 200 67 269c0 62 -33 114 -102 114c-81 0 -146 -84 -146 -196c0 0 0 -72 24 -121
c-83 -352 -98 -414 -98 -414c-22 -92 -13 -199 -7 -254h-183c-159 0 -288 129 -288 288v960c0 159 129 288 288 288h960z" />
</svg>