<svg width="1536" height="1536" xmlns="http://www.w3.org/2000/svg">
    <path d="M1248 128c159 0 288 129 288 288v960c0 159-129 288-288 288H523c33-47 87-128 108-210 0 0 9-34 53-209 27 51 104 95 186 95 244 0 410-223 410-521 0-225-191-435-481-435-361 0-543 259-543 475 0 130 50 246 156 290 17 7 33 0 38-19 3-13 11-47 15-61 5-19 3-26-11-42-30-37-50-83-50-150 0-192 144-363 374-363 204 0 316 124 316 291 0 219-97 404-241 404-79 0-139-66-120-147 23-96 67-200 67-269 0-62-33-114-102-114-81 0-146 84-146 196 0 0 0 72 24 121-83 352-98 414-98 414-22 92-13 199-7 254H288c-159 0-288-129-288-288V416c0-159 129-288 288-288h960z"/>
</svg>
