<?xml version="1.0" standalone="no"?>
<svg width="1536px" height="1536px" version="1.1" xmlns="http://www.w3.org/2000/svg">
    <path transform="scale(1, -1) translate(0, -1536)" glyph-name="plane" unicode="&#xf072;" horiz-adv-x="1408" 

d="M1376 1376c64 -64 0 -224 -96 -320l-161 -161l160 -696c3 -12 -2 -25 -12 -33l-128 -96c-5 -4 -12 -6 -19 -6c-2 0 -4 0 -7 1c-9 2 -17 7 -21 16l-279 508l-259 -259l53 -194c3 -11 0 -22 -8 -31l-96 -96c-6 -6 -15 -9 -23 -9h-2c-10 1 -18 5 -24 13l-189 252l-252 189
c-8 5 -12 14 -13 23s3 18 9 25l96 97c6 6 15 9 23 9c3 0 6 0 8 -1l194 -53l259 259l-508 279c-9 5 -15 14 -17 24c-1 9 2 20 9 27l128 128c8 7 20 11 30 8l665 -159l160 160c96 96 256 160 320 96z" />
</svg>