<?xml version="1.0" standalone="no"?>
<svg width="1536px" height="1536px" version="1.1" xmlns="http://www.w3.org/2000/svg">
    <path transform="scale(1, -1) translate(0, -1536)" glyph-name="play_circle_o" unicode="&#xf01d;" 

d="M1184 640c0 -23 -12 -44 -32 -55l-544 -320c-10 -6 -21 -9 -32 -9s-22 3 -32 8c-20 12 -32 33 -32 56v640c0 23 12 44 32 56c20 11 45 11 64 -1l544 -320c20 -11 32 -32 32 -55zM1312 640c0 300 -244 544 -544 544s-544 -244 -544 -544s244 -544 544 -544
s544 244 544 544zM1536 640c0 -424 -344 -768 -768 -768s-768 344 -768 768s344 768 768 768s768 -344 768 -768z" />
</svg>