<svg xmlns="http://www.w3.org/2000/svg" viewBox="0 0 1536 1792" height="1792" width="1536">
    <path d="M30.59 1757.847c-10.85-10.85-11.693-13.27-11.693-33.598 0-24.243 8.174-57.357 23.198-93.982 8.056-19.636 122.372-221.054 159.066-280.263 5.275-8.511 20.723-46.424 34.33-84.25 84.307-234.366 163.814-400.475 267.472-558.807 117.661-179.72 255.743-324.698 405.537-425.79 25.11-16.946 40.373-18.83 52.032-6.419 4.112 4.378 7.477 9.794 7.477 12.036 0 8.419 7.116 3.174 40.07-29.533 84.15-83.52 197.245-136.44 394.487-184.595C1505.483 47.52 1716.228 8.87 1750.306 8.87c18.486 0 29.261 10.53 29.261 28.595 0 11.17-2.707 15.233-22.762 34.166-44.34 41.86-62.203 73.848-115.18 206.262-39.552 98.86-69 159.177-101.295 207.481l-22.363 33.448 11.302 9.442c10.15 8.48 11.25 11.165 10.806 26.342-.686 23.383-22.18 85.673-43.077 124.831-83.556 156.578-266.21 337.088-496.708 490.878-190.86 127.343-384.5 214.891-546.419 247.048l-29.676 5.894-124.888 134.455C168.324 1698.728 153.377 1714 121.073 1739.85c-27.328 21.868-43.882 29.689-62.836 29.689-13.56 0-17.71-1.755-27.648-11.692zm78.114-85.455c9.431-8.038 76.917-79.203 149.967-158.144 73.05-78.94 135.257-144.257 138.236-145.146 2.98-.89 21.666-4.824 41.525-8.743 183.172-36.15 415.249-150.157 624.334-306.701 106.384-79.65 216.951-181.755 286.075-264.18 39.597-47.216 90.284-120.954 90.284-131.342 0-6.136-1.026-5.97-14.614 2.366-23.569 14.46-100.287 52.583-129.061 64.133-66.212 26.58-172.73 57.966-196.722 57.966-13.856 0-27.555-13.369-27.555-26.89 0-16.015 11.295-26.763 37.006-35.212 99.215-32.605 199.782-85.602 267.626-141.034 62.309-50.909 122.276-127.968 160.479-206.218 10.582-21.676 35.024-78.871 54.315-127.1 34.11-85.278 48.603-117.131 66.78-146.773 5.257-8.576 7.43-15.235 5.382-16.501-1.888-1.167-30.154 2.717-62.812 8.632-238.28 43.153-391.348 92.168-487.258 156.027-85.201 56.73-135.007 129.324-182.593 266.139-15.857 45.592-23.503 55.723-42.05 55.723-7.281 0-14.027-3.769-23.248-12.99-23.947-23.947-30.022-66.686-17.126-120.481 8.295-34.6 8.568-39.77 1.901-36.04-2.724 1.525-24.911 20.835-49.305 42.911-133.638 120.941-261.233 295.84-363.305 497.992-55.832 110.574-88.62 188.077-144.648 341.906-16.481 45.251-33.575 87.807-37.986 94.567-24.824 38.045-153.259 263.878-159.388 280.26-7.213 19.28-9.058 29.488-5.329 29.488 1.068 0 9.658-6.577 19.09-14.615z" stroke-width="3.439"/>
</svg>
