<?xml version="1.0" standalone="no"?>
<svg width="1536px" height="1536px" version="1.1" xmlns="http://www.w3.org/2000/svg">
    <path transform="scale(1, -1) translate(0, -1536)" glyph-name="plus_square_o" unicode="&#xf196;" horiz-adv-x="1408" 

d="M1152 736v-64c0 -18 -14 -32 -32 -32h-352v-352c0 -18 -14 -32 -32 -32h-64c-18 0 -32 14 -32 32v352h-352c-18 0 -32 14 -32 32v64c0 18 14 32 32 32h352v352c0 18 14 32 32 32h64c18 0 32 -14 32 -32v-352h352c18 0 32 -14 32 -32zM1280 288v832c0 88 -72 160 -160 160
h-832c-88 0 -160 -72 -160 -160v-832c0 -88 72 -160 160 -160h832c88 0 160 72 160 160zM1408 1120v-832c0 -159 -129 -288 -288 -288h-832c-159 0 -288 129 -288 288v832c0 159 129 288 288 288h832c159 0 288 -129 288 -288z" />
</svg>