<svg width="1536" height="1536" xmlns="http://www.w3.org/2000/svg">
    <path d="M1152 800v64c0 18-14 32-32 32H768v352c0 18-14 32-32 32h-64c-18 0-32-14-32-32V896H288c-18 0-32-14-32-32v-64c0-18 14-32 32-32h352V416c0-18 14-32 32-32h64c18 0 32 14 32 32v352h352c18 0 32 14 32 32zm128 448V416c0-88-72-160-160-160H288c-88 0-160 72-160 160v832c0 88 72 160 160 160h832c88 0 160-72 160-160zm128-832v832c0 159-129 288-288 288H288c-159 0-288-129-288-288V416c0-159 129-288 288-288h832c159 0 288 129 288 288z"/>
</svg>
