<?xml version="1.0" standalone="no"?>
<svg width="1536px" height="1536px" version="1.1" xmlns="http://www.w3.org/2000/svg">
    <path transform="scale(1, -1) translate(0, -1536)" glyph-name="plus_circle" unicode="&#xf055;" 

d="M1216 576v128c0 35 -29 64 -64 64h-256v256c0 35 -29 64 -64 64h-128c-35 0 -64 -29 -64 -64v-256h-256c-35 0 -64 -29 -64 -64v-128c0 -35 29 -64 64 -64h256v-256c0 -35 29 -64 64 -64h128c35 0 64 29 64 64v256h256c35 0 64 29 64 64zM1536 640
c0 -424 -344 -768 -768 -768s-768 344 -768 768s344 768 768 768s768 -344 768 -768z" />
</svg>