<?xml version="1.0" standalone="no"?>
<svg width="1536px" height="1536px" version="1.1" xmlns="http://www.w3.org/2000/svg">
    <path transform="scale(1, -1) translate(0, -1536)" glyph-name="podcast" unicode="&#xf2ce;" 

d="M994 344c0 -66 -7 -132 -17 -197c-15 -104 -30 -211 -55 -313c-18 -73 -86 -90 -152 -90s-134 17 -152 90c-25 102 -40 209 -55 313c-10 65 -17 131 -17 197c0 135 109 168 224 168s224 -33 224 -168zM1536 768c0 -324 -200 -601 -484 -714c-11 -4 -23 6 -21 18
c3 21 6 43 10 66c2 16 4 32 6 47c1 6 4 10 9 12c208 106 352 322 352 571c0 365 -306 659 -675 639c-338 -18 -607 -306 -605 -644c2 -249 147 -464 356 -568c5 -2 8 -7 9 -12c2 -14 4 -29 6 -45c4 -24 7 -46 11 -68c2 -12 -11 -22 -22 -17c-297 116 -504 412 -487 753
c19 387 331 704 718 728c446 28 817 -326 817 -766zM994 800c0 -124 -100 -224 -224 -224s-224 100 -224 224s100 224 224 224s224 -100 224 -224zM1282 768c0 -165 -79 -313 -200 -406c-10 -8 -24 -1 -26 12c-3 28 -11 61 -29 92c-4 6 -3 14 3 20c76 70 124 170 124 282
c0 226 -197 407 -428 382c-177 -20 -321 -166 -338 -344c-13 -126 37 -242 122 -320c6 -6 7 -14 3 -20c-18 -31 -26 -64 -29 -93c-2 -12 -16 -19 -26 -11c-124 96 -203 247 -200 417c6 266 222 488 487 500c294 14 537 -220 537 -511z" />
</svg>