<svg xmlns="http://www.w3.org/2000/svg" viewBox="0 0 1536 1792" height="1792" width="1536">
    <path d="M1004.124 1783.444c-28.858-3.41-54.7-12.072-77.198-25.879-33.918-20.814-59.552-51.855-77.842-94.26-4.61-10.689-7.453-18.443-14.485-39.506-2.064-6.18-4.43-13.182-5.257-15.56-12.918-37.098-20.449-88.687-24.646-168.829-1.414-27.006-2.023-43.131-3.209-84.977-.557-19.662-.679-23.217-.796-23.335-.057-.057-.866.246-1.808.663-8.68 3.84-21.704 8.484-32.574 11.613-47.32 13.622-99.844 15.082-154.652 4.299-8.888-1.749-21.125-4.636-27.663-6.527-22.218-6.428-43.117-16.18-59.82-27.914-8.767-6.159-17.214-13.69-23.323-20.795-.866-1.007-1.64-1.853-1.72-1.88-.08-.023-1.403.96-2.94 2.192-26.165 20.984-53.588 33.179-83.273 37.03-6.347.823-9.007.966-17.895.968-8.61 0-10.435-.092-16.553-.784-32.728-3.73-64.38-18.514-93.675-43.751-8.985-7.74-19.453-18.207-28.157-28.15-42.593-48.665-83.154-124.577-121.99-228.32-29.928-79.943-58.555-176.208-83.164-279.653C29.08 655.913 11.52 560.33 7.32 509.682c-1.71-20.625-2.246-57.293-1.218-83.334 4.695-118.861 37.405-212.404 98.091-280.517 5.577-6.26 15.102-15.97 21.207-21.622 27.298-25.269 58.827-45.691 94.396-61.143 43.733-19 93.814-30.392 148.774-33.846 14.083-.885 19.54-1.035 37.69-1.037 16.47-.002 20.527.08 32.936.692C514.83 32.583 598.89 49.17 682.795 76.943l3.883 1.285 2.773-1.619c16.08-9.386 34.45-18.226 52.367-25.199 41.859-16.29 86.64-25.446 136.006-27.81 20.382-.975 48.76-.495 76.592 1.298 27.6 1.778 57.052 5.2 81.182 9.435l2.948.517 2.93-.88c16.104-4.839 36.638-9.981 55.23-13.832C1166.633 5.654 1236.819.895 1303.139 6.142c88.887 7.033 169.64 31.913 239.448 73.777 21.742 13.038 42.709 27.955 62.508 44.474 11.246 9.382 20.324 17.67 31.529 28.782 15.255 15.13 27.56 28.813 40.808 45.381 9.506 11.888 15.043 20.464 20.936 32.423 2.54 5.153 3.637 7.573 5.57 12.275 17.48 42.516 23.517 99.71 18.025 170.731-5.681 73.477-23.445 159.13-51.882 250.175-1.99 6.37-1.89 6.06-6.131 19.105-15.174 46.674-33.81 95.933-54.582 144.278-28.888 67.231-62.738 134.05-99.236 195.887-1.095 1.855-2.03 3.44-2.078 3.525-.221.39 16.278-.637 26.155-1.63 18.2-1.83 35.694-4.551 59.433-9.247 13.3-2.63 19.398-3.616 27.22-4.398 31.01-3.1 55.962 2.457 76.298 16.992 4.865 3.477 11.063 9.189 14.998 13.82 11.398 13.42 18.12 29.36 19.848 47.07.408 4.178.273 14.698-.234 18.585-1.373 10.475-3.823 19.029-8.258 28.84-10.717 23.703-32.078 47.429-63.636 70.677-17.345 12.777-36.476 24.443-57.375 34.987-15.414 7.777-25.662 12.141-40.284 17.155-37.612 12.898-85.826 21.571-132.435 23.824-16.278.787-35.102.679-46.422-.266l-7.558-.631c-1.352-.114-2.494-.17-2.537-.127-.045.045-.701 5.446-1.463 12.007-1.24 10.68-1.396 12.371-1.487 16.164-.15 6.18-.57 17.951-.964 27.058-5.117 117.867-20.868 204.863-48.832 269.711-2.874 6.667-5 11.229-8.414 18.068-12.12 24.271-25.719 44.522-42.553 63.365-3.583 4.01-14.38 14.794-18.28 18.26-17.08 15.17-34.063 26.699-54.721 37.145-23.19 11.727-49.337 20.773-83.42 28.86-24.228 5.75-39.615 8.571-55.711 10.217-3.253.333-4.503.348-26.971.329-21.93-.024-23.752-.045-26.325-.347zm44.086-45.28c17.475-.8 33.105-2.995 53.014-7.444 69.839-15.606 115.244-39.958 146.331-78.48 18.914-23.437 32.605-52.867 42.104-90.509 4.815-19.081 7.956-36.53 14.083-78.234 8.964-61.01 23.196-173.594 31.72-250.918.552-5.021 1.043-9.167 1.09-9.213.045-.045 1.32.274 2.83.714 14.468 4.206 31.656 6.653 52.796 7.517 8.946.366 25.629.202 36.135-.354 46.021-2.437 93.258-11.715 127.162-24.977 15.175-5.936 35.096-16.18 52.214-26.85 18.558-11.568 34.054-23.438 46.315-35.476 8.532-8.377 14.454-15.53 18.896-22.823 5.553-9.118 8.183-17.405 8.203-25.848 0-5.218-.698-9.013-2.547-13.62-1.652-4.115-4.206-7.922-7.575-11.29-6.589-6.587-15.108-10.342-26.726-11.779-3.532-.436-13.972-.433-18.326.01-7.336.742-11.94 1.472-22.39 3.556-14.617 2.914-24.83 4.75-35.616 6.399-29.162 4.459-53.29 6.328-75.827 5.873-25.4-.514-45.764-4.445-59.4-11.468-2.485-1.28-6.285-3.643-6.285-3.908 0-.08 1.309-2.153 2.908-4.606 77.007-118.134 141.908-254.196 186.404-390.789 32.715-100.427 52.446-196.299 56.274-273.429.866-17.452.9-35.9.09-50.916-2.517-46.817-12.698-82.481-30.306-106.156-3.2-4.303-9.452-12.01-15.148-18.672-14.275-16.697-30.984-33.622-47.099-47.705-45.205-39.51-97.04-69.02-155.2-88.354-45.178-15.018-93.448-23.749-145.316-26.282-10.34-.506-15.312-.605-30.343-.606-17.214 0-26.243.25-40.456 1.121-50.337 3.087-102.446 11.844-148.255 24.915-9.831 2.805-21.453 6.572-25.106 8.14l-1.593.683-4.372-1.044c-32.706-7.81-66.681-12.582-101.624-14.28-10.927-.531-17.736-.654-30.912-.56-12.669.091-15.265.168-24.5.733-66.083 4.035-124.628 22.732-174.534 55.74-1.95 1.29-3.636 2.368-3.747 2.398-.114.034-2.173-.657-4.582-1.526-37.349-13.48-78.16-25.267-118.142-34.12-73.456-16.267-141.92-22.377-202.63-18.085-81.557 5.767-148.557 30.2-199.517 72.76-36.245 30.268-64.105 69.532-83.253 117.331-17.957 44.824-28.156 96.548-30.853 156.468-.825 18.336-.859 42.675-.09 62.414.526 13.446 1.078 20.877 2.426 32.676 7.075 61.943 27.907 166.53 52.138 261.759 40.42 158.855 87.025 287.696 134.708 372.41 16.563 29.425 33.71 54.245 50.523 73.133 9.242 10.382 19.37 19.997 28.62 27.167 27.491 21.314 55.953 30.002 84.541 25.808 17.06-2.503 34.326-9.977 50.485-21.851 6.907-5.076 12.473-9.867 19.257-16.577 6.884-6.808 9.924-10.19 19.997-22.24 35.512-42.485 72.646-84.788 111.85-127.418 10.64-11.571 20.515-22.134 20.69-22.134.07 0 1.858.89 3.98 1.978 25.919 13.283 53.742 21.303 82.18 23.69 4.462.374 8.544.61 10.596.61 1.27 0 1.797.069 1.845.217.033.12.102.747.147 1.395l.08 1.179-1.85 2.192c-3.205 3.798-8.374 10.206-15.227 18.877-11.507 14.561-15.813 19.48-20.793 23.75-12.874 11.043-32.893 17.963-81.843 28.294-15.932 3.362-24.064 5.451-33.625 8.64-17.49 5.831-29.442 12.529-37.842 21.204-6.724 6.944-10.764 15.033-11.95 23.922-.312 2.336-.264 7.774.09 10.114.685 4.54 2.01 8.696 4.117 12.911 6.347 12.698 19.054 23.797 38.172 33.343 11.586 5.785 23.678 10.146 36.826 13.281 21.837 5.207 40.325 7.97 61.55 9.197 8.911.515 24.381.388 33.8-.278 45.558-3.22 85.775-17.478 120.592-42.755 5.978-4.34 12.802-9.84 17.658-14.234.82-.743 1.535-1.35 1.586-1.35.057 0 .09 15.424.09 34.275.002 46.595.408 77.557 1.498 114.325.89 30.058 2.388 62.825 3.885 85.063 4.029 59.8 9.369 98.514 16.715 121.178 1.558 4.809 5.517 14.602 9.85 24.367 13.733 30.956 29.97 54.626 50.093 73.025 27.404 25.055 61.139 39.085 101.163 42.071 6.691.499 18.155.653 25.07.337zm-17.116-49.797c-52.379-2.472-87.842-28.754-112.556-83.413-3.76-8.317-8.074-18.831-9.313-22.696-6.136-19.154-11.514-62.617-14.882-120.285-2.2-37.687-3.38-72.6-4.28-126.644-.291-17.416-.291-92.932-.002-112.293.37-24.76.875-50.311 1.25-63.193.31-10.611.202-13.993-.52-16.424-.102-.333-.413-1.967-.696-3.631-1.059-6.217-2.438-11.687-4.394-17.426-8.668-25.431-26.903-47.467-48.063-58.079-6.12-3.07-16.111-6.785-22.414-8.337-6.117-1.506-11.25-2.134-17.277-2.115-5.197.012-9.267.454-13.852 1.49-.987.223-1.82.382-1.85.353-.09-.079 1.562-6.35 2.8-10.648 3.175-11.018 7.727-24.318 15.377-44.934 10.81-29.135 11.166-30.014 21.428-52.906 6.331-14.124 6.918-15.446 9.549-21.525 9.96-23.01 16.837-42.078 22.374-62.03 18.416-66.365 19.866-141.702 4.5-233.788-3.5-20.97-8.729-47.068-11.502-57.4-13.634-50.797-46.54-83.532-94.711-94.222-28.308-6.281-61.446-4.88-98.305 4.158-31.28 7.67-64.497 20.76-93.794 36.962-1.23.681-1.744.887-1.782.717-.07-.277.647-8.314 1.274-14.438 8.431-82.294 29.178-156.747 60.195-216.016 30.94-59.122 71.644-102.975 121.764-131.185 17.81-10.024 37.159-18.224 56.968-24.141 5.557-1.66 8.39-2.443 13.485-3.726 19.714-4.962 40.81-8.172 62.587-9.525 14.889-.925 32.292-1.02 48.583-.26 105.75 4.916 198.96 39.709 279.48 104.32 14.51 11.644 26.597 22.537 41.25 37.179 11.335 11.324 17.61 18.04 27.304 29.227 40.162 46.342 75.376 103.5 97.044 157.52 3.044 7.587 7.295 19.159 7.103 19.331-.033.034-1.983-.12-4.324-.341-29.651-2.798-56.493-2.733-79.338.193-29.759 3.81-54.008 12.104-73.638 25.185-10.276 6.847-19.461 15.268-26.833 24.6-14.911 18.878-23.707 42.4-26.245 70.194-.995 10.898-1.026 23.038-.09 35.27 4.28 55.813 28.613 126.659 73.55 214.14 10.82 21.066 18.826 35.9 37.923 70.268 16.836 30.301 18.705 33.836 22.223 42.036 10.637 24.797 22.14 44.519 39.392 67.542 3.99 5.325 5.67 7.476 14.409 18.448 8.152 10.235 13.304 17.002 13.1 17.206-.044.045-1.47.498-3.176 1.02-8.728 2.662-15.619 5.403-21.847 8.69-13.013 6.868-23.585 16.345-31.402 28.151-8.904 13.446-14.27 29.173-16.668 48.842-.99 8.128-1.295 15.084-1.16 26.514l.115 9.138-.52 5.644c-4.597 50.037-19.992 177.942-31.3 260.055-5.026 36.507-9.586 66.656-12.43 82.191-6.658 36.367-15.595 62.669-28.44 83.7-10.024 16.41-23.094 29.974-39.362 40.848-9.108 6.087-19.855 11.772-31.444 16.632-16.782 7.039-36.737 13.066-60.34 18.225-13.115 2.866-24.857 4.582-36.825 5.38-4.873.323-15.116.457-19.45.253zM674.677 1252.57c-16.189-.509-31.796-2.396-48.497-5.865-4.142-.86-12.757-2.897-15.31-3.619-7.837-2.215-17.003-5.881-23.415-9.365-2.368-1.287-5.642-3.255-6.466-3.886l-.413-.317 1.19-.541c5.344-2.43 14.984-5.533 23.84-7.67 3.524-.852 7.543-1.738 14.523-3.201 35.254-7.394 57.226-13.62 73.652-20.871 14.404-6.359 25.394-13.777 35.797-24.163 5.499-5.49 10.012-10.729 18.49-21.459 13.734-17.383 20.578-25.645 28.576-34.494 6.265-6.932 12.458-11.514 17.5-12.95 2.541-.723 5.822-.655 9.195.19 2.834.71 9.086 3.067 11.942 4.503 7.208 3.62 14.528 11.518 19.577 21.12 6.243 11.875 8.204 25.097 5.188 34.985-1.044 3.422-2.257 5.648-5.465 10.025-29.187 39.837-66.72 64.577-111.673 73.607-15.35 3.084-32.23 4.474-48.231 3.97zm-283.198-23.85c-7.602-.461-14.568-2.417-22.192-6.233-12.958-6.484-26.564-17.985-40.566-34.29-58.517-68.138-119.56-218.252-171.232-421.078-23.405-91.87-43.795-193.746-50.832-253.979-1.175-10.055-1.704-16.404-2.089-25.069-.966-21.784-1.028-44.315-.17-63.451 2.19-48.922 9.774-91.553 22.853-128.46 16.714-47.165 42.15-84.367 76.728-112.22 38.914-31.345 90.205-50.618 152.23-57.2 18.273-1.94 33.755-2.63 55.24-2.466 11.992.09 15.271.178 24.377.637 60.552 3.055 128.694 15.754 196.838 36.683 5.907 1.814 15.196 4.782 15.45 4.937.078.045-1.05 1.306-2.515 2.792-8.173 8.287-14.51 15.252-21.493 23.62-30.333 36.356-55.418 80.748-74.64 132.09C528.21 381.814 514.09 447.49 508.45 515.82c-.874 10.585-1.48 20.58-2.031 33.541-.297 6.949-.297 31.2-.003 36.134 2.038 34.108 2.708 47.83 3.36 68.812.296 9.522.293 47.154 0 55.93-1.223 36.244-3.198 60.935-7.386 92.325-1.445 10.832-1.91 15.282-2.412 23.08a267.049 267.049 0 0 0 3.55 63.748c8.212 46.296 28.864 89.522 59.457 124.446 5.859 6.688 14.875 15.784 21.32 21.509 3.375 2.998 3.743 3.377 3.544 3.652-.123.169-2.715 2.978-5.762 6.245-38.581 41.36-84.139 93.048-123.257 139.843-3.696 4.422-7.622 9.05-8.724 10.285-11.466 12.848-22.073 21.592-32.951 27.163-7.825 4.007-14.81 5.925-22.476 6.171-1.236.045-2.676.045-3.198.012zm1002.777-46.922c-18.46-.758-33.397-2.972-43.744-6.486-3.35-1.138-5.998-2.292-7.929-3.456l-1.494-.9-.159-4.476c-.177-4.967.057-13.28.51-17.875 1.15-11.796 3.729-21.133 7.752-28.062 3.556-6.123 8.048-10.339 14.695-13.79 4.41-2.29 8.456-3.734 18.676-6.665 3.812-1.094 7.856-2.29 8.987-2.659l2.057-.67 1.145.918c8.287 6.651 20.26 12.83 33.043 17.051 42.405 14.006 103.88 12.781 185.556-3.697 2.068-.417 3.76-.741 3.76-.721 0 .113-4.786 4.322-7.192 6.33-15.43 12.872-34.616 25.089-56.172 35.769-8.95 4.434-13.856 6.557-21.698 9.39-18.08 6.532-41.646 12.107-66.218 15.665-14.544 2.107-27.54 3.354-43.482 4.172-4.705.241-23.52.35-28.092.163zm-663.563-137.91c-20.21-.35-41.33-4.751-60.425-12.59-28.87-11.85-54.49-31.15-74.935-56.45-25.625-31.708-41.343-70.76-45.126-112.12-.615-6.713-.726-9.01-.824-17.03-.165-13.428.35-21.05 2.53-37.348 7.74-57.844 9.834-116.62 6.573-184.559-.339-7.05-.918-17.58-1.807-32.85-.237-4.088-.433-7.913-.433-8.5v-1.065l1.34-1.111c6.387-5.302 18.497-13.04 30.213-19.306 28.238-15.103 59.696-26.702 88.002-32.448 9.133-1.854 17.181-3.014 26.366-3.8 4.362-.373 16.61-.525 20.953-.258 33.145 2.027 54.941 14.995 67.733 40.297 4.792 9.479 7.337 17.436 10.701 33.46 10.327 49.186 15.86 91.963 17.157 132.67.231 7.202.12 30.239-.17 35.721-.711 13.39-1.539 23.234-2.794 33.196-4.049 32.155-11.507 60.466-24.274 92.151-3.782 9.385-6.456 15.524-17.814 40.89-7.018 15.673-9.746 22.394-16.948 41.753-13.285 35.712-18.157 50.324-22.594 67.771-.273 1.078-.475 1.557-.656 1.563-.144.01-1.387-.012-2.766-.034zm6.675-431.943c11.788-.934 23.296-6.47 31.919-15.355 7.22-7.441 9.67-14.479 7.354-21.122-4.022-11.528-22.348-20.525-47.071-23.108-4.178-.436-14.14-.437-17.802-.002-6.983.831-11.932 2.143-16.255 4.308-2.45 1.227-4.094 2.384-5.878 4.137l-1.552 1.525h-.98c-1.155 0-.944-.618-1.706 5-.48 3.54-.51 4.033-.344 5.669.686 6.74 5.135 14.75 12.25 22.057 11.68 11.993 25.948 18.008 40.065 16.89zm655.54 394.974l-4.195-5.265 2.148-3.677c6.404-10.967 12.372-23.082 16.972-34.453 11.14-27.54 17.495-56.33 19.521-88.434.927-14.686.927-32.01 0-48.583-1-17.89-2.417-32.385-6.561-67.168-1.971-16.542-2.497-21.117-3.278-28.527-3.398-32.226-3.81-51.855-1.643-78.148 1.244-15.09 2.78-27.206 6.664-52.559 3.273-21.365 4.468-29.813 5.677-40.11 2.103-17.924 3.025-34.545 2.794-50.313-.102-7.287-.102-7.687.255-9.508.47-2.441.64-7.617.353-10.746-1.992-21.732-17.287-63.969-37.401-103.277-24.409-47.7-53.741-91.081-88.204-130.447-13.902-15.879-30.81-33.13-46.266-47.204-42-38.243-88.154-68.81-138.104-91.463-4.007-1.817-4.488-2.078-4.064-2.194 1.015-.278 13.246-2.624 18.204-3.491 62.828-10.989 124.192-13.012 181.278-5.979 106.193 13.084 194.207 56.842 261.517 130.016 8.272 8.993 20.144 23.127 23.963 28.527 8.562 12.11 14.915 32.313 17.94 57.055 1.785 14.604 2.458 28.342 2.282 46.594-.117 12.161-.351 18.28-1.16 30.343-3.406 50.725-14.13 111.275-30.944 174.707-37.66 142.08-102.597 292.305-182.325 421.786-4.969 8.07-10.762 17.307-11.02 17.571-.162.165-1.13-.947-4.402-5.053zm-37.386-53.378c-1.64-2.938-6.501-12.59-8.022-15.93a515.113 515.113 0 0 1-3.313-7.56c-4.437-10.333-6.52-14.293-25.097-47.7-21.414-38.509-31.179-56.819-43.428-81.432-35.914-72.163-55.872-129.93-60.69-175.658-1.212-11.514-1.368-23.703-.427-33.282 1.624-16.504 6.246-30.069 13.883-40.745 14.312-20.008 40.894-31.553 79.725-34.627 6.372-.504 9.615-.635 18.24-.733 12.936-.147 23.415.293 38.036 1.6 4.92.44 15.343 1.554 16.209 1.733l.476.102v1.588c0 4.287-.617 14.925-1.308 22.59-1.08 11.957-2.308 21.223-6.127 46.248-5.74 37.604-7.382 52.138-8.653 76.591-.3 5.763-.402 21.892-.177 28.095.724 20.077 1.841 32.144 7.002 75.64 3.559 29.994 4.833 43.17 5.717 59.13.835 15.086.835 30.45 0 43.223-1.993 30.479-8.556 57.201-20.18 82.167l-.584 1.255-1.28-2.292zM1294.92 591.01c11.942-1.48 24.077-8.88 32.874-20.047 5.322-6.754 8.024-13.97 6.896-18.41-.944-3.71-3.592-6.586-8.124-8.82-6.21-3.064-14.07-4.389-24.79-4.18-13.395.26-26.505 3.173-36.76 8.165-7.878 3.835-12.713 8.49-14.01 13.486-.358 1.381-.358 3.693 0 5.188.885 3.698 4.5 8.915 8.886 12.824 10.025 8.935 22.96 13.29 35.029 11.794z" stroke-width=".173"/>
</svg>
