<?xml version="1.0" standalone="no"?>
<svg width="1536px" height="1536px" version="1.1" xmlns="http://www.w3.org/2000/svg">
    <path transform="scale(1, -1) translate(0, -1536)" glyph-name="power_off" unicode="&#xf011;" 

d="M1536 640c0 -423 -345 -768 -768 -768s-768 345 -768 768c0 243 112 467 307 613c57 43 137 32 179 -25c43 -56 31 -137 -25 -179c-130 -98 -205 -247 -205 -409c0 -282 230 -512 512 -512s512 230 512 512c0 162 -75 311 -205 409c-56 42 -68 123 -25 179
c42 57 123 68 179 25c195 -146 307 -370 307 -613zM896 1408v-640c0 -70 -58 -128 -128 -128s-128 58 -128 128v640c0 70 58 128 128 128s128 -58 128 -128z" />
</svg>