<?xml version="1.0" standalone="no"?>
<svg width="1536px" height="1536px" version="1.1" xmlns="http://www.w3.org/2000/svg">
    <path transform="scale(1, -1) translate(0, -1536)" glyph-name="print" unicode="&#xf02f;" horiz-adv-x="1664" 

d="M384 0h896v256h-896v-256zM384 640h896v384h-160c-53 0 -96 43 -96 96v160h-640v-640zM1536 576c0 35 -29 64 -64 64s-64 -29 -64 -64s29 -64 64 -64s64 29 64 64zM1664 576v-416c0 -17 -15 -32 -32 -32h-224v-160c0 -53 -43 -96 -96 -96h-960c-53 0 -96 43 -96 96v160
h-224c-17 0 -32 15 -32 32v416c0 105 87 192 192 192h64v544c0 53 43 96 96 96h672c53 0 126 -30 164 -68l152 -152c38 -38 68 -111 68 -164v-256h64c105 0 192 -87 192 -192z" />
</svg>