<?xml version="1.0" standalone="no"?>
<svg width="1536px" height="1536px" version="1.1" xmlns="http://www.w3.org/2000/svg">
    <path transform="scale(1, -1) translate(0, -1536)" glyph-name="product_hunt" unicode="&#xf288;" horiz-adv-x="1792" 

d="M1150 774c0 -74 -60 -134 -135 -134v0h-253v269h253v0c75 0 135 -60 135 -135zM1329 774c0 174 -140 314 -314 314v0h-433v-896h180v269h253v0c174 0 314 140 314 313zM1792 640c0 -495 -401 -896 -896 -896s-896 401 -896 896s401 896 896 896s896 -401 896 -896z" />
</svg>