<svg xmlns="http://www.w3.org/2000/svg" height="1792" width="1536">
    <path d="M878.06 149.08c-121.29 2.972-238.87 38.074-343.868 88.772-52.56 22.795-103.572 48.983-147.727 82.658-114.621 84.212-196.661 196.441-255.491 314.581C40.599 817.619 4.799 1018.39 16.27 1215.967c1.244 15.445 1.504 31.122 5.057 46.314 3.411 9.225 17.781 14.533 26.998 7.953 10.46-7.189 9.651-20.008 11.873-30.278 2.911-27.075.097-54.391 3.945-81.35 12.923-148.052 66.255-291.947 141.153-425.322 59.392-103.928 134.569-202.537 233.27-282.216 87.74-70.05 188.816-126.784 294.672-174.591 55.35-24.263 112.826-46.578 173.962-57.518 20.661-3.442 42.036-2.953 62.796-5.93 16.18-3.4 33.196-14.24 33.376-29.731-.467-13.111-15.118-21.726-28.737-24.549-30.849-9.592-64.218-9.382-96.576-9.67zM770.746 303.05c-20.283 1.388-33.074 17.338-42.517 30.991-29.285 40.022-29.157 90.648-60.728 129.601-20.425 19.988-44.343 37.32-64.336 57.775-76.718 72.879-138.009 158.426-173.345 252.051-27.509 69.355-42.109 141.715-61.393 212.897-10.621 35.354-27.307 69.355-49.4 100.51a867.579 743.5 0 0 0-74.929 197.396c-2.915 19.336-4.848 39.863 3.385 58.432 7.99 10.233 27.739 8.793 34.869-1.513 19.626-18.146 33.067-40.295 49.303-60.53 11.914-16.139 24.118-32.634 41.003-45.406 12.159 21.762 11.9 46.505 19.989 69.512 19.883 69.492 48.584 137.278 86.785 200.929 11.376 17.728 24.33 35.898 44.163 47.512 11.264 5.449 27.848.553 30.42-10.898 3.371-13.853-3.202-27.749-8.043-40.758-14.999-34.423-23.97-70.5-32.492-106.433-13.646-62.058-21.926-124.952-26.138-187.977-1.286-27.799-1.686-55.934 3.822-83.352 11.062-25.06 33.619-44.329 52.912-64.783 37.903-36.418 78.776-71.124 125.683-99.006 2.663-.741 9.287-6.427 8.792-2.34-2.867 60.099-13.356 120.001-12.071 180.328-1.532 118.082 1.951 236.508 18.942 353.793 5.963 35.457 12.625 71.252 27.226 104.943 6.03 9.123 23.865 10.884 30.223 1.172 8.384-11.016 5.425-24.861 7.747-37.218 2.81-51.974.243-104.096 3.182-156.02 5.466-148.491 21.076-297.029 57.048-442.471 10.181-38.709 21.445-77.767 43.3-112.987 7.19-10.547 19.221-16.975 31.338-22.704 31.017-16.658 60.575-35.189 90.833-52.822-23.639-20.065-58.008-29.484-77.394-53.257-7.971-17.724 2.897-36.607 9.066-53.699 18.107-42.404 38.694-84.193 64.626-123.561 11.28-15.939 29.324-31.483 52.613-31.207 28.054-.807 55.089 7.72 82.018 14.267 86.963 25.051 164.386 80.328 198.761 154.063 32.366 67.502 27.693 146.265-10.849 211.311-17.913 31.614-43.936 58.916-69.174 86.27-18.224 20.716-36.38 42.648-44.375 67.995-1.521 11.793 14.671 22.664 27.303 16.446 15.685-5.387 27.132-16.796 42.371-22.915 42.772-22.305 85.748-46.739 115.78-81.791 66.149-71.551 94.909-164.867 90.956-255.265-3.594-79.951-35.302-161.15-99.955-220.15-20.913-18.856-48.283-33.348-62.102-57.239-9.727-17.635-8.894-37.745-16.974-55.851-8.51-22.353-22.287-44.867-45.616-58.277-15.055-7.05-36.694-2.051-43.568 11.928-10.769 16.329-8.851 35.981-12.124 53.707-12.815-1.925-25.997-1.244-38.949-2.594-89.716-5.503-180.984-12.75-270.037 2.118-19.205 3.842-38.865 13.196-58.655 9.133-10.853-6.743-9.335-19.893-10.462-30.019-.152-16.035 1.014-34.963-13.434-47.165-4.238-3.108-9.775-5.029-15.394-4.872zm942.36 238.785c-15.866 1.38-24.796 15.288-27.716 27.412-18.213 67.507-6.882 137.342-14.755 205.652-10.762 135.483-53.041 270.879-135.678 387.624-78.117 112.638-185.074 209.676-309.202 285.978-72.882 45.413-149.278 86.835-229.662 121.791-32.796 13.591-66.809 27.208-103.548 30.435-20.103 2.346-41.778 7.341-55.142 21.369-7.081 7.63-5.735 19.218 2.783 25.606 12.043 9.592 29.571 10.704 44.997 12.939 62.846 5.225 125.117-9.666 183.531-28.156 34.811-10.972 68.858-23.788 100.898-39.872 110.384-54.748 212.661-121.799 301.69-200.15 70.693-62.426 133.736-131.662 183.664-207.512 37.653-58.02 65.384-120.525 84.604-184.773 22.309-65.508 38.836-133.254 37.449-201.813.899-68.926-3.034-138.494-21.3-205.826-5.474-16.789-12.138-34.748-27.718-46.718-4.342-2.562-9.575-4.183-14.894-3.987zM772.335 619.68c-.361 24.371-6.483 48.441-13.641 71.992-6.831 20.703-15.301 41.546-28.069 60.227-13.158 12.134-33.374 14.651-50.891 19.616-17.096 3.611-34.863 6.198-52.092 4.013 16.496-38.484 48.314-70.068 77.803-101.737 19.86-20.043 41.197-39.776 66.889-54.111z"/>
</svg>
