<?xml version="1.0" standalone="no"?>
<svg width="1536px" height="1536px" version="1.1" xmlns="http://www.w3.org/2000/svg">
    <path transform="scale(1, -1) translate(0, -1536)" glyph-name="puzzle_piece" unicode="&#xf12e;" horiz-adv-x="1664" 

d="M1664 438c0 -103 -59 -189 -168 -189c-122 0 -154 111 -264 111c-80 0 -110 -50 -110 -124c0 -78 32 -153 31 -230v-5c-11 0 -22 0 -33 -1c-103 -10 -207 -30 -311 -30c-71 0 -145 28 -145 110c0 110 111 142 111 264c0 109 -86 168 -189 168c-105 0 -202 -58 -202 -173
c0 -127 97 -182 97 -251c0 -35 -22 -66 -46 -89c-31 -29 -75 -35 -117 -35c-82 0 -164 11 -245 24c-18 3 -37 5 -55 8l-13 2c-2 1 -5 1 -5 2v1024c4 -3 63 -10 73 -12c81 -13 163 -24 245 -24c42 0 86 6 117 35c24 23 46 54 46 89c0 69 -97 124 -97 251
c0 115 97 173 203 173c102 0 188 -59 188 -168c0 -122 -111 -154 -111 -264c0 -82 74 -110 145 -110c115 0 229 26 343 32v-2c-3 -4 -10 -63 -12 -73c-13 -81 -24 -163 -24 -245c0 -42 6 -86 35 -117c23 -24 54 -46 89 -46c69 0 124 97 251 97c115 0 173 -97 173 -202z" />
</svg>