<svg width="1536" height="1536" xmlns="http://www.w3.org/2000/svg">
    <path d="M1664 1098c0 103-59 189-168 189-122 0-154-111-264-111-80 0-110 50-110 124 0 78 32 153 31 230v5c-11 0-22 0-33 1-103 10-207 30-311 30-71 0-145-28-145-110 0-110 111-142 111-264 0-109-86-168-189-168-105 0-202 58-202 173 0 127 97 182 97 251 0 35-22 66-46 89-31 29-75 35-117 35-82 0-164-11-245-24-18-3-37-5-55-8l-13-2c-2-1-5-1-5-2V512c4 3 63 10 73 12 81 13 163 24 245 24 42 0 86-6 117-35 24-23 46-54 46-89 0-69-97-124-97-251C384 58 481 0 587 0c102 0 188 59 188 168 0 122-111 154-111 264 0 82 74 110 145 110 115 0 229-26 343-32v2c-3 4-10 63-12 73-13 81-24 163-24 245 0 42 6 86 35 117 23 24 54 46 89 46 69 0 124-97 251-97 115 0 173 97 173 202z"/>
</svg>
