<svg xmlns="http://www.w3.org/2000/svg" xmlns:xlink="http://www.w3.org/1999/xlink" width="1536" height="1792" viewBox="0 0 1536 1792">
    <defs>
        <linearGradient id="a">
            <stop offset="0" stop-color="#b8b8b8" stop-opacity=".498"/>
            <stop offset="1" stop-color="#7f7f7f" stop-opacity="0"/>
        </linearGradient>
        <radialGradient gradientTransform="matrix(0 -1.0395 4.56904 0 628.562 1233.856)" gradientUnits="userSpaceOnUse" xlink:href="#a" id="b" fy="132.286" fx="61.519" r="29.037" cy="132.286" cx="61.519"/>
    </defs>
    <path d="M758.853 119.533c-63.336.294-123.818 5.695-177.038 15.113-156.779 27.697-185.242 85.673-185.242 192.587v141.2h370.484v47.064H257.53c-107.675 0-201.957 64.717-231.448 187.833-34.016 141.12-35.525 229.182 0 376.534 26.336 109.683 89.23 187.834 196.905 187.834h127.382v-169.264c0-122.285 105.804-230.15 231.447-230.15H951.87c103.01 0 185.249-84.82 185.249-188.27V327.232c0-100.405-84.707-175.83-185.249-192.587-63.644-10.595-129.681-15.408-193.017-15.113zM558.498 233.098c38.269 0 69.522 31.764 69.522 70.817 0 38.916-31.253 70.382-69.522 70.382-38.406 0-69.522-31.466-69.522-70.382 0-39.053 31.116-70.817 69.522-70.817zm624.82 282.399v164.516c0 127.548-108.137 234.905-231.448 234.905H581.815c-101.364 0-185.242 86.751-185.242 188.264v352.786c0 100.405 87.307 159.458 185.242 188.264 117.276 34.484 229.736 40.716 370.055 0 93.272-27.005 185.249-81.35 185.249-188.264v-141.2H767.057v-47.07h555.304c107.674 0 147.796-75.104 185.243-187.834 38.68-116.053 37.034-227.658 0-376.534-26.61-107.19-77.432-187.833-185.243-187.833zm-208.13 893.4c38.405 0 69.521 31.473 69.521 70.389 0 39.053-31.116 70.817-69.522 70.817-38.269 0-69.515-31.764-69.515-70.818 0-38.915 31.246-70.388 69.515-70.388z"/>
    <path d="M1388.641 1169.908a155.66 30.184 0 1 1-311.32 0 155.66 30.184 0 1 1 311.32 0z" opacity=".444" fill="url(#b)"/>
</svg>
