<svg width="1536" height="1536" xmlns="http://www.w3.org/2000/svg">
    <path d="M270 806c-7-17-8-34-8-52 0-28 18-73 35-94-1-26 10-79 30-96 0-185 143-418 310-498C740 17 848 0 961 0c88 0 184 21 266 55 235 99 288 283 338 518l1 5c29 44 55 96 55 150 0 27-18 54-18 78 0 2 6 10 7 12 86 127 164 265 164 423 0 35-19 157-75 157-39 0-82-95-96-121-1-1-2-1-3-1l-5 4c-32 83-67 161-132 223 57 55 149 50 166 145-5 11-3 23-11 34-57 86-210 97-302 97-122 0-221-32-336-66-24-7-60-3-86-6-61 67-210 85-296 85-76 0-370-5-370-135 0-56 12-72 51-108 31-6 54-23 90-25 5 0 9-1 14-2 1-1 2-1 2-4l-2-3c-69-16-166-190-181-262l-5-3c-7 0-10 15-12 20-22 51-74 106-132 112h-1c-8 0-5-8-11-10-14-33-23-63-23-100 0-200 96-348 252-466z"/>
</svg>
