<?xml version="1.0" standalone="no"?>
<svg width="1536px" height="1536px" version="1.1" xmlns="http://www.w3.org/2000/svg">
    <path transform="scale(1, -1) translate(0, -1536)" glyph-name="qq" unicode="&#xf1d6;" horiz-adv-x="1792" 

d="M270 730c-7 17 -8 34 -8 52c0 28 18 73 35 94c-1 26 10 79 30 96c0 185 143 418 310 498c103 49 211 66 324 66c88 0 184 -21 266 -55c235 -99 288 -283 338 -518l1 -5c29 -44 55 -96 55 -150c0 -27 -18 -54 -18 -78c0 -2 6 -10 7 -12c86 -127 164 -265 164 -423
c0 -35 -19 -157 -75 -157c-39 0 -82 95 -96 121c-1 1 -2 1 -3 1l-5 -4c-32 -83 -67 -161 -132 -223c57 -55 149 -50 166 -145c-5 -11 -3 -23 -11 -34c-57 -86 -210 -97 -302 -97c-122 0 -221 32 -336 66c-24 7 -60 3 -86 6c-61 -67 -210 -85 -296 -85c-76 0 -370 5 -370 135
c0 56 12 72 51 108c31 6 54 23 90 25c5 0 9 1 14 2c1 1 2 1 2 4l-2 3c-69 16 -166 190 -181 262l-5 3c-7 0 -10 -15 -12 -20c-22 -51 -74 -106 -132 -112h-1c-8 0 -5 8 -11 10c-14 33 -23 63 -23 100c0 200 96 348 252 466z" />
</svg>