<svg xmlns="http://www.w3.org/2000/svg" width="1536" height="1792" viewBox="0 0 1536.0001 1792">
    <path d="M0 128v768h768V768H128V256h512v576h128V128zM0 1664v-640h640v640H64v-128h448v-384H128v512zM896 768V128h640v640H960V640h448V256h-384v512z"/>
    <path d="M256 384h256v256H256zM1152 384h128v128h-128zM256 1280h128v128H256zM768 1024h128v128H768zM1152 1152h128v128h-128zM1152 1408h128v128h-128zM1024 896v128h256v128h128V896zM1536 1280h-128v256h-128v128h256zM1024 1152H896v128H768v128h256zM768 1536h384v128H768z"/>
</svg>
