<svg xmlns="http://www.w3.org/2000/svg" width="1536" height="1792" viewBox="0 0 1536 1792">
    <path d="M0 128v768h768V768H128V256h512v576h128V128zm0 1536v-640h640v640H64v-128h448v-384H128v512zm896-896V128h640v640H960V640h448V256h-384v512z"/>
    <path d="M256 384h256v256H256zm896 0h128v128h-128zm-896 896h128v128H256zm512-256h128v128H768zm384 128h128v128h-128zm0 256h128v128h-128zm-128-512v128h256v128h128V896zm512 384h-128v256h-128v128h256zm-512-128H896v128H768v128h256zm-256 384h384v128H768z"/>
</svg>
