<svg width="1536" height="1536" xmlns="http://www.w3.org/2000/svg">
    <path d="M880 1200v160c0 18-14 32-32 32H688c-18 0-32-14-32-32v-160c0-18 14-32 32-32h160c18 0 32 14 32 32zm256-496c0 142-99 198-172 239-52 30-84 49-84 81v32c0 18-14 32-32 32H688c-18 0-32-14-32-32v-68c0-123 88-162 159-194 60-28 97-47 97-92 0-58-73-101-139-101-35 0-72 11-95 27-22 15-43 37-80 83-6 8-15 12-25 12-7 0-14-2-19-6l-108-82c-13-10-16-29-7-43 82-129 197-192 349-192 164 0 348 130 348 304zM768 256c-353 0-640 287-640 640s287 640 640 640 640-287 640-640-287-640-640-640zm768 640c0 424-344 768-768 768S0 1320 0 896s344-768 768-768 768 344 768 768z"/>
</svg>
