<?xml version="1.0" standalone="no"?>
<svg width="1536px" height="1536px" version="1.1" xmlns="http://www.w3.org/2000/svg">
    <path transform="scale(1, -1) translate(0, -1536)" glyph-name="question" unicode="&#xf128;" horiz-adv-x="1024" 

d="M704 280v-240c0 -22 -18 -40 -40 -40h-240c-22 0 -40 18 -40 40v240c0 22 18 40 40 40h240c22 0 40 -18 40 -40zM1020 880c0 -190 -129 -263 -224 -316c-59 -34 -96 -103 -96 -132v0c0 -22 -17 -48 -40 -48h-240c-22 0 -36 34 -36 56v45c0 121 120 225 208 265
c77 35 109 68 109 132c0 56 -73 106 -154 106c-45 0 -86 -14 -108 -29c-24 -17 -48 -41 -107 -115c-8 -10 -20 -16 -31 -16c-9 0 -17 3 -25 8l-164 125c-17 13 -21 35 -10 53c108 179 260 266 464 266c214 0 454 -171 454 -400z" />
</svg>