<svg width="1536" height="1536" xmlns="http://www.w3.org/2000/svg">
    <path d="M896 1376v-192c0-18-14-32-32-32H672c-18 0-32 14-32 32v192c0 18 14 32 32 32h192c18 0 32-14 32-32zm256-672c0-183-192-320-364-320-163 0-285 70-371 213-9 14-5 32 8 42l132 100c5 4 12 6 19 6 9 0 19-4 25-12 47-60 67-78 86-92 17-12 50-24 86-24 64 0 123 41 123 85 0 52-27 78-88 106-71 32-168 115-168 212v36c0 18 14 32 32 32h192c18 0 32-14 32-32 0-23 29-72 76-99 76-43 180-101 180-253zm384 192c0 424-344 768-768 768S0 1320 0 896s344-768 768-768 768 344 768 768z"/>
</svg>
