<?xml version="1.0" standalone="no"?>
<svg width="1536px" height="1536px" version="1.1" xmlns="http://www.w3.org/2000/svg">
    <path transform="scale(1, -1) translate(0, -1536)" glyph-name="question_circle" unicode="&#xf059;" 

d="M896 160v192c0 18 -14 32 -32 32h-192c-18 0 -32 -14 -32 -32v-192c0 -18 14 -32 32 -32h192c18 0 32 14 32 32zM1152 832c0 183 -192 320 -364 320c-163 0 -285 -70 -371 -213c-9 -14 -5 -32 8 -42l132 -100c5 -4 12 -6 19 -6c9 0 19 4 25 12c47 60 67 78 86 92
c17 12 50 24 86 24c64 0 123 -41 123 -85c0 -52 -27 -78 -88 -106c-71 -32 -168 -115 -168 -212v-36c0 -18 14 -32 32 -32h192c18 0 32 14 32 32v0c0 23 29 72 76 99c76 43 180 101 180 253zM1536 640c0 -424 -344 -768 -768 -768s-768 344 -768 768s344 768 768 768
s768 -344 768 -768z" />
</svg>