<?xml version="1.0" standalone="no"?>
<svg width="1536px" height="1536px" version="1.1" xmlns="http://www.w3.org/2000/svg">
    <path transform="scale(1, -1) translate(0, -1536)" glyph-name="question_circle_o" unicode="&#xf29c;" 

d="M880 336v-160c0 -18 -14 -32 -32 -32h-160c-18 0 -32 14 -32 32v160c0 18 14 32 32 32h160v0c18 0 32 -14 32 -32zM1136 832c0 -142 -99 -198 -172 -239c-52 -30 -84 -49 -84 -81v-32c0 -18 -14 -32 -32 -32h-160c-18 0 -32 14 -32 32v68c0 123 88 162 159 194
c60 28 97 47 97 92c0 58 -73 101 -139 101c-35 0 -72 -11 -95 -27c-22 -15 -43 -37 -80 -83c-6 -8 -15 -12 -25 -12c-7 0 -14 2 -19 6l-108 82c-13 10 -16 29 -7 43c82 129 197 192 349 192v0c164 0 348 -130 348 -304zM768 1280c-353 0 -640 -287 -640 -640
s287 -640 640 -640s640 287 640 640s-287 640 -640 640zM1536 640c0 -424 -344 -768 -768 -768s-768 344 -768 768s344 768 768 768v0c424 0 768 -344 768 -768z" />
</svg>