<?xml version="1.0" standalone="no"?>
<svg width="1536px" height="1536px" version="1.1" xmlns="http://www.w3.org/2000/svg">
    <path transform="scale(1, -1) translate(0, -1536)" glyph-name="quora" unicode="&#xf2c4;" horiz-adv-x="1792" 

d="M1255 749c0 417 -130 631 -435 631c-300 0 -430 -214 -430 -631c0 -415 130 -627 430 -627c48 0 91 5 131 17v0c-62 122 -135 245 -277 245c-27 0 -54 -4 -79 -16l-49 97c59 51 154 91 276 91c191 0 288 -92 366 -209c45 100 67 235 67 402zM1645 117h117
c7 -72 -29 -373 -356 -373c-198 0 -302 115 -381 249v0c-65 -18 -135 -27 -205 -27c-400 0 -791 319 -791 783c0 468 392 787 791 787c407 0 794 -317 794 -787c0 -262 -122 -475 -299 -612c57 -86 116 -143 198 -143c90 0 126 69 132 123z" />
</svg>