<?xml version="1.0" encoding="UTF-8" standalone="no"?>
<svg
   width="1733.7535"
   height="1792"
   version="1.1"
   id="svg386"
   sodipodi:docname="quora.svg"
   inkscape:version="1.2.2 (b0a8486541, 2022-12-01)"
   xmlns:inkscape="http://www.inkscape.org/namespaces/inkscape"
   xmlns:sodipodi="http://sodipodi.sourceforge.net/DTD/sodipodi-0.dtd"
   xmlns="http://www.w3.org/2000/svg"
   xmlns:svg="http://www.w3.org/2000/svg">
  <defs
     id="defs390" />
  <sodipodi:namedview
     id="namedview388"
     pagecolor="#ffffff"
     bordercolor="#666666"
     borderopacity="1.0"
     inkscape:showpageshadow="2"
     inkscape:pageopacity="0.0"
     inkscape:pagecheckerboard="0"
     inkscape:deskcolor="#d1d1d1"
     showgrid="false"
     inkscape:zoom="0.15364583"
     inkscape:cx="741.9661"
     inkscape:cy="768"
     inkscape:window-width="1920"
     inkscape:window-height="1011"
     inkscape:window-x="0"
     inkscape:window-y="0"
     inkscape:window-maximized="1"
     inkscape:current-layer="svg386" />
  <path
     d="m 1226,787 c 0,-417 -130,-631 -435,-631 -300,0 -430,214 -430,631 0,415 130,627 430,627 48,0 91,-5 131,-17 -62,-122 -135,-245 -277,-245 -27,0 -54,4 -79,16 l -49,-97 c 59,-51 154,-91 276,-91 191,0 288,92 366,209 45,-100 67,-235 67,-402 z m 390,632 h 117 c 7,72 -29,373 -356,373 -198,0 -302,-115 -381,-249 -65,18 -135,27 -205,27 C 391,1570 0,1251 0,787 0,319 392,0 791,0 c 407,0 794,317 794,787 0,262 -122,475 -299,612 57,86 116,143 198,143 90,0 126,-69 132,-123 z"
     id="path384" />
</svg>
