<?xml version="1.0" encoding="UTF-8" standalone="no"?>
<svg
   width="1664"
   height="1408"
   version="1.1"
   id="svg4"
   sodipodi:docname="quote-left.svg"
   inkscape:version="1.2.2 (b0a8486541, 2022-12-01)"
   xmlns:inkscape="http://www.inkscape.org/namespaces/inkscape"
   xmlns:sodipodi="http://sodipodi.sourceforge.net/DTD/sodipodi-0.dtd"
   xmlns="http://www.w3.org/2000/svg"
   xmlns:svg="http://www.w3.org/2000/svg">
  <defs
     id="defs8" />
  <sodipodi:namedview
     id="namedview6"
     pagecolor="#ffffff"
     bordercolor="#666666"
     borderopacity="1.0"
     inkscape:showpageshadow="2"
     inkscape:pageopacity="0.0"
     inkscape:pagecheckerboard="0"
     inkscape:deskcolor="#d1d1d1"
     showgrid="false"
     inkscape:zoom="0.15364583"
     inkscape:cx="768"
     inkscape:cy="637.83051"
     inkscape:window-width="1920"
     inkscape:window-height="1011"
     inkscape:window-x="0"
     inkscape:window-y="0"
     inkscape:window-maximized="1"
     inkscape:current-layer="svg4" />
  <path
     d="m 768,832 v 384 c 0,106 -86,192 -192,192 H 192 C 86,1408 0,1322 0,1216 V 512 C 0,230 230,0 512,0 h 64 c 35,0 64,29 64,64 v 128 c 0,35 -29,64 -64,64 H 512 C 371,256 256,371 256,512 v 32 c 0,53 43,96 96,96 h 224 c 106,0 192,86 192,192 z m 896,0 v 384 c 0,106 -86,192 -192,192 h -384 c -106,0 -192,-86 -192,-192 V 512 C 896,230 1126,0 1408,0 h 64 c 35,0 64,29 64,64 v 128 c 0,35 -29,64 -64,64 h -64 c -141,0 -256,115 -256,256 v 32 c 0,53 43,96 96,96 h 224 c 106,0 192,86 192,192 z"
     id="path2" />
</svg>
