<?xml version="1.0" standalone="no"?>
<svg width="1536px" height="1536px" version="1.1" xmlns="http://www.w3.org/2000/svg">
    <path transform="scale(1, -1) translate(0, -1536)" glyph-name="quote_left" unicode="&#xf10d;" horiz-adv-x="1664" 

d="M768 576v-384c0 -106 -86 -192 -192 -192h-384c-106 0 -192 86 -192 192v704c0 282 230 512 512 512h64c35 0 64 -29 64 -64v-128c0 -35 -29 -64 -64 -64h-64c-141 0 -256 -115 -256 -256v-32c0 -53 43 -96 96 -96h224c106 0 192 -86 192 -192zM1664 576v-384
c0 -106 -86 -192 -192 -192h-384c-106 0 -192 86 -192 192v704c0 282 230 512 512 512h64c35 0 64 -29 64 -64v-128c0 -35 -29 -64 -64 -64h-64c-141 0 -256 -115 -256 -256v-32c0 -53 43 -96 96 -96h224c106 0 192 -86 192 -192z" />
</svg>