<?xml version="1.0" encoding="UTF-8" standalone="no"?>
<svg
   width="1664"
   height="1408"
   version="1.1"
   id="svg250"
   sodipodi:docname="quote-right.svg"
   inkscape:version="1.2.2 (b0a8486541, 2022-12-01)"
   xmlns:inkscape="http://www.inkscape.org/namespaces/inkscape"
   xmlns:sodipodi="http://sodipodi.sourceforge.net/DTD/sodipodi-0.dtd"
   xmlns="http://www.w3.org/2000/svg"
   xmlns:svg="http://www.w3.org/2000/svg">
  <defs
     id="defs254" />
  <sodipodi:namedview
     id="namedview252"
     pagecolor="#ffffff"
     bordercolor="#666666"
     borderopacity="1.0"
     inkscape:showpageshadow="2"
     inkscape:pageopacity="0.0"
     inkscape:pagecheckerboard="0"
     inkscape:deskcolor="#d1d1d1"
     showgrid="false"
     inkscape:zoom="0.15364583"
     inkscape:cx="768"
     inkscape:cy="637.83051"
     inkscape:window-width="1920"
     inkscape:window-height="1011"
     inkscape:window-x="0"
     inkscape:window-y="0"
     inkscape:window-maximized="1"
     inkscape:current-layer="svg250" />
  <path
     d="m 768,192 v 704 c 0,282 -230,512 -512,512 h -64 c -35,0 -64,-29 -64,-64 v -128 c 0,-35 29,-64 64,-64 h 64 c 141,0 256,-115 256,-256 v -32 c 0,-53 -43,-96 -96,-96 H 192 C 86,768 0,682 0,576 V 192 C 0,86 86,0 192,0 h 384 c 106,0 192,86 192,192 z m 896,0 v 704 c 0,282 -230,512 -512,512 h -64 c -35,0 -64,-29 -64,-64 v -128 c 0,-35 29,-64 64,-64 h 64 c 141,0 256,-115 256,-256 v -32 c 0,-53 -43,-96 -96,-96 H 1088 C 982,768 896,682 896,576 V 192 C 896,86 982,0 1088,0 h 384 c 106,0 192,86 192,192 z"
     id="path248" />
</svg>
