<?xml version="1.0" standalone="no"?>
<svg width="1536px" height="1536px" version="1.1" xmlns="http://www.w3.org/2000/svg">
    <path transform="scale(1, -1) translate(0, -1536)" glyph-name="quote_right" unicode="&#xf10e;" horiz-adv-x="1664" 

d="M768 1216v-704c0 -282 -230 -512 -512 -512h-64c-35 0 -64 29 -64 64v128c0 35 29 64 64 64h64c141 0 256 115 256 256v32c0 53 -43 96 -96 96h-224c-106 0 -192 86 -192 192v384c0 106 86 192 192 192h384c106 0 192 -86 192 -192zM1664 1216v-704
c0 -282 -230 -512 -512 -512h-64c-35 0 -64 29 -64 64v128c0 35 29 64 64 64h64c141 0 256 115 256 256v32c0 53 -43 96 -96 96h-224c-106 0 -192 86 -192 192v384c0 106 86 192 192 192h384c106 0 192 -86 192 -192z" />
</svg>