<?xml version="1.0" standalone="no"?>
<svg width="1536px" height="1536px" version="1.1" xmlns="http://www.w3.org/2000/svg">
    <path transform="scale(1, -1) translate(0, -1536)" glyph-name="random" unicode="&#xf074;" horiz-adv-x="1792" 

d="M666 1055c-56 -86 -97 -179 -137 -273c-58 121 -122 242 -273 242h-224c-18 0 -32 14 -32 32v192c0 18 14 32 32 32h224c178 0 309 -83 410 -225zM1792 256c0 -8 -3 -17 -9 -23l-320 -320c-6 -6 -15 -9 -23 -9c-17 0 -32 15 -32 32v192c-297 0 -480 -35 -665 225
c55 86 96 179 136 273c58 -121 122 -242 273 -242h256v192c0 18 14 32 32 32c9 0 17 -4 24 -10l319 -319c6 -6 9 -15 9 -23zM1792 1152c0 -8 -3 -17 -9 -23l-320 -320c-6 -6 -15 -9 -23 -9c-17 0 -32 14 -32 32v192h-256c-133 0 -196 -91 -252 -199
c-29 -56 -54 -114 -78 -171c-111 -258 -241 -526 -566 -526h-224c-18 0 -32 14 -32 32v192c0 18 14 32 32 32h224c133 0 196 91 252 199c29 56 54 114 78 171c111 258 241 526 566 526h256v192c0 18 14 32 32 32c9 0 17 -4 24 -10l319 -319c6 -6 9 -15 9 -23z" />
</svg>