<svg width="1536" height="1536" xmlns="http://www.w3.org/2000/svg">
    <path d="M666 481c-56 86-97 179-137 273-58-121-122-242-273-242H32c-18 0-32-14-32-32V288c0-18 14-32 32-32h224c178 0 309 83 410 225zm1126 799c0 8-3 17-9 23l-320 320c-6 6-15 9-23 9-17 0-32-15-32-32v-192c-297 0-480 35-665-225 55-86 96-179 136-273 58 121 122 242 273 242h256V960c0-18 14-32 32-32 9 0 17 4 24 10l319 319c6 6 9 15 9 23zm0-896c0 8-3 17-9 23l-320 320c-6 6-15 9-23 9-17 0-32-14-32-32V512h-256c-133 0-196 91-252 199-29 56-54 114-78 171-111 258-241 526-566 526H32c-18 0-32-14-32-32v-192c0-18 14-32 32-32h224c133 0 196-91 252-199 29-56 54-114 78-171 111-258 241-526 566-526h256V64c0-18 14-32 32-32 9 0 17 4 24 10l319 319c6 6 9 15 9 23z"/>
</svg>
