<svg width="1536" height="1536" xmlns="http://www.w3.org/2000/svg">
    <path d="M1143 1733c-4-1-7-2-11-4 0 0-329-193-440-505-37-6-115-24-175-37 87 283 329 499 626 546zm-641-606l168 28c-57-171-64-366-64-366-67 65-103 154-121 224 3 39 8 77 17 114zm110-609c-31 46-56 96-77 148 33-35 60-58 74-68-2-30 3-80 3-80zm1437 434c0-436-352-790-784-790-200 0-382 76-521 201-21 41-35 93-45 160 213-181 593-136 593-136 95 4 84 88 83 114-346-29-516 70-684 213 0 0 33 320 109 450 438 20 771-218 771-218 42-30 79-33 87 19 6 42 9 99-39 121-146 68-307 111-467 134-104 15-162 19-317 16 148 344 518 438 518 438 116 19 204 4 263-15 256-130 433-398 433-707zm74-37c-7 68-18 147-40 212-90 267-215 441-500 600-26 18-54 35-82 44-51 18-106 22-163 16-24 2-48 3-73 3-381 0-703-260-800-615-3 0-6-1-9-1-23 180 110 423 110 423s8 12 54 82c-255-135-262-533-262-533-61-23-273-95-310-154 0 0 166 91 309 109-1-1 2-32 2-32 9-122 51-217 94-290 28-137 90-261 176-365 15-62 39-136 81-214 18-34 35-56 81-77 304-142 604-178 912-18 295 154 455 476 420 810z"/>
</svg>
