<?xml version="1.0" standalone="no"?>
<svg width="1536px" height="1536px" version="1.1" xmlns="http://www.w3.org/2000/svg">
    <path transform="scale(1, -1) translate(0, -1536)" glyph-name="ravelry" unicode="&#xf2d9;" horiz-adv-x="2176" 

d="M1143 -197c-4 1 -7 2 -11 4c0 0 -329 193 -440 505c-37 6 -115 24 -175 37v0c87 -283 329 -499 626 -546zM502 409l168 -28c-57 171 -64 366 -64 366c-67 -65 -103 -154 -121 -224v0c3 -39 8 -77 17 -114zM612 1018v0c-31 -46 -56 -96 -77 -148c33 35 60 58 74 68
c-2 30 3 80 3 80zM2049 584c0 436 -352 790 -784 790c-200 0 -382 -76 -521 -201c-21 -41 -35 -93 -45 -160c213 181 593 136 593 136c95 -4 84 -88 83 -114c-346 29 -516 -70 -684 -213c0 0 33 -320 109 -450c438 -20 771 218 771 218c42 30 79 33 87 -19
c6 -42 9 -99 -39 -121c-146 -68 -307 -111 -467 -134c-104 -15 -162 -19 -317 -16c148 -344 518 -438 518 -438c116 -19 204 -4 263 15v0c256 130 433 398 433 707zM2123 621c-7 -68 -18 -147 -40 -212c-90 -267 -215 -441 -500 -600c-26 -18 -54 -35 -82 -44
c-51 -18 -106 -22 -163 -16c-24 -2 -48 -3 -73 -3c-381 0 -703 260 -800 615c-3 0 -6 1 -9 1c-23 -180 110 -423 110 -423s8 -12 54 -82c-255 135 -262 533 -262 533c-61 23 -273 95 -310 154c0 0 166 -91 309 -109c-1 1 2 32 2 32c9 122 51 217 94 290
c28 137 90 261 176 365c15 62 39 136 81 214c18 34 35 56 81 77c304 142 604 178 912 18v0c295 -154 455 -476 420 -810z" />
</svg>