<svg xmlns="http://www.w3.org/2000/svg" width="1536" height="1792" viewBox="0 0 1536 1792">
    <path d="M1433.752 625.76a1727.28 1727.28 0 0 0-55.54-17.486c3.086-12.685 5.828-25.37 8.571-38.055 42.17-204.332 14.4-368.552-79.196-422.72-90.166-51.769-237.244 2.057-386.036 131.65-14.742 12.685-29.141 26.056-42.855 39.427a1036.625 1036.625 0 0 0-28.456-26.4C694.25 153.67 537.914 95.388 444.32 149.9c-89.825 52.111-116.566 206.732-78.854 400.093 3.771 19.199 7.886 38.055 12.685 57.254-21.941 6.17-43.54 13.028-63.768 20.227C131.307 690.9 0 791.007 0 894.545c0 106.965 139.878 214.274 330.154 279.413 15.428 5.143 30.855 10.285 46.626 14.742-5.143 20.57-9.6 40.798-13.714 61.711-35.998 190.276-7.885 341.125 81.939 392.894 92.566 53.483 248.215-1.372 399.75-134.05 12-10.628 23.999-21.6 35.998-33.256 15.085 14.742 30.855 28.799 46.626 42.512 146.735 126.165 291.756 177.248 381.237 125.48 92.566-53.483 122.736-215.646 83.653-413.121a1439.38 1439.38 0 0 0-10.286-46.284c10.971-3.085 21.6-6.514 32.227-9.942 197.818-65.482 341.125-171.42 341.125-280.1 0-103.88-135.079-204.674-321.583-268.785zm-463.86-291.071c127.535-111.08 246.5-154.62 300.669-123.422 57.94 33.255 80.224 167.648 43.883 344.21-2.4 11.657-4.8 22.97-7.885 34.284-76.11-17.142-153.25-29.484-230.73-36.34-44.57-63.769-93.253-124.794-146.05-182.048 13.37-12.685 26.399-24.685 40.112-36.684zM524.2 982.997c15.77 30.17 31.884 59.997 49.026 89.481 17.484 29.827 35.312 59.654 54.168 88.795-53.483-5.828-106.623-14.399-159.077-25.713 15.085-49.368 33.94-100.451 55.883-152.563zm0-173.476c-21.6-51.083-39.77-101.138-54.855-149.478 49.37-10.97 101.824-19.885 156.335-26.741-18.17 28.455-35.998 57.596-52.797 87.08-16.8 29.142-33.256 58.969-48.683 89.139zm39.083 86.738c22.628-47.312 47.312-93.595 73.368-139.193 26.055-45.597 54.168-89.823 83.652-133.364 51.426-3.771 103.88-5.828 157.363-5.828 53.483 0 106.28 2.057 157.363 5.828a2395.214 2395.214 0 0 1 83.31 132.679c26.399 45.254 51.083 91.538 74.396 138.507a2274.875 2274.875 0 0 1-74.053 139.878c-26.056 45.597-53.826 89.824-82.967 133.707-51.083 3.771-104.223 5.485-158.049 5.485-53.825 0-105.937-1.714-156.334-4.8a2084.756 2084.756 0 0 1-84.338-133.706c-26.399-45.598-50.74-91.881-73.71-139.193zm619.167 175.533c17.485-30.17 33.941-60.682 50.055-91.538 21.941 49.712 41.14 100.11 57.94 151.878-53.14 12-106.966 21.256-161.135 27.427 18.513-28.798 35.998-58.282 53.14-87.767zm49.369-262.271c-16.113-30.17-32.57-60.34-49.712-89.824a2228.799 2228.799 0 0 0-52.454-86.395c55.197 6.856 107.994 16.113 157.363 27.427-15.77 50.74-34.284 100.109-55.197 148.792zM878.353 423.827c35.998 39.084 69.94 80.224 101.48 122.736a2248.815 2248.815 0 0 0-203.989 0c33.599-44.226 68.225-85.367 102.51-122.736zM480.66 213.667c57.597-33.598 185.476 14.399 320.212 133.707 8.57 7.542 17.141 15.77 26.055 23.999-53.14 57.254-102.166 118.28-147.078 182.047-77.481 6.857-154.277 18.856-230.387 35.655-4.457-17.484-8.228-35.312-12-53.14-32.226-165.934-10.97-291.07 43.198-322.268zm-83.995 903.723c-14.4-4.114-28.456-8.571-42.512-13.37-73.025-22.97-155.992-59.312-215.989-106.966-34.627-24-57.94-61.026-64.454-102.51 0-62.739 108.337-142.963 264.672-197.474 19.542-6.857 39.426-13.028 59.311-18.857 23.313 74.396 51.426 147.421 83.996 218.046-32.913 71.653-61.369 145.706-85.024 221.131zm399.75 335.982c-56.569 51.769-122.051 92.91-193.361 121.022-38.056 18.17-81.939 19.885-121.023 4.457-54.511-31.541-77.138-152.563-46.283-315.412 3.771-19.199 7.885-38.398 12.685-57.254 76.796 16.456 154.278 27.77 232.788 33.598 45.255 64.111 94.966 125.48 148.106 183.076-10.97 10.628-21.942 20.914-32.912 30.513zm83.995-83.31c-34.97-37.712-69.939-79.538-103.88-124.45 32.913 1.371 66.854 2.057 101.137 2.057 35.313 0 69.94-.686 104.223-2.4-31.54 43.54-65.482 85.024-101.48 124.793zm448.09 102.852c-3.085 41.826-23.655 80.91-56.568 107.308-54.511 31.542-170.734-9.6-296.213-117.25-14.399-12.343-28.798-25.713-43.54-39.427 52.454-57.94 100.795-119.308 144.678-183.762a1690.067 1690.067 0 0 0 233.816-35.998 1027.384 1027.384 0 0 1 9.257 41.827c16.799 74.053 19.541 151.192 8.57 227.302zm62.397-368.552c-9.6 3.086-19.199 6.171-29.141 8.914-23.999-74.739-53.483-147.764-87.424-218.731 32.912-69.94 60.682-141.936 83.995-215.646 17.828 5.143 34.97 10.628 51.426 16.114 159.763 54.854 271.872 136.45 271.872 198.846 0 67.196-119.651 153.935-290.728 210.503zm-513.23-365.466c86.739 0 157.02 70.282 157.02 157.02 0 86.738-70.281 157.02-157.02 157.02-86.738 0-157.02-70.282-157.02-157.02 0-86.738 70.282-157.02 157.02-157.02"/>
</svg>
