<?xml version="1.0" standalone="no"?>
<svg width="1536px" height="1536px" version="1.1" xmlns="http://www.w3.org/2000/svg">
    <path transform="scale(1, -1) translate(0, -1536)" glyph-name="rebel" unicode="&#xf1d0;" horiz-adv-x="1792" 

d="M19 662c10 286 156 550 421 724c1 0 7 2 4 -3c-21 -20 -402 -469 -51 -818c180 -179 325 -9 325 -9c139 181 -2 455 -2 455c-36 90 -165 145 -165 145l104 115c88 -38 156 -140 156 -140c3 107 -79 222 -79 222l161 183l160 -181c-74 -104 -79 -226 -79 -226
c50 83 157 142 157 142l103 -115c-99 -32 -164 -144 -164 -144c-57 -103 -98 -323 2 -460c117 -161 317 10 317 10c371 332 -38 813 -38 813c-22 20 3 10 3 10c181 -132 414 -305 420 -740c7 -526 -361 -901 -876 -901c-503 0 -894 420 -879 918z" />
</svg>