<svg width="1536" height="1536" xmlns="http://www.w3.org/2000/svg">
    <path d="M19 874c10-286 156-550 421-724 1 0 7-2 4 3-21 20-402 469-51 818 180 179 325 9 325 9 139-181-2-455-2-455-36-90-165-145-165-145l104-115c88 38 156 140 156 140 3-107-79-222-79-222L893 0l160 181c-74 104-79 226-79 226 50-83 157-142 157-142l103 115c-99 32-164 144-164 144-57 103-98 323 2 460 117 161 317-10 317-10 371-332-38-813-38-813-22-20 3-10 3-10 181 132 414 305 420 740 7 526-361 901-876 901-503 0-894-420-879-918z"/>
</svg>
