<?xml version="1.0" standalone="no"?>
<svg width="1536px" height="1536px" version="1.1" xmlns="http://www.w3.org/2000/svg">
    <path transform="scale(1, -1) translate(0, -1536)" glyph-name="recycle" unicode="&#xf1b8;" horiz-adv-x="1792" 

d="M836 367l-15 -368l-2 -22l-420 29c-52 4 -95 53 -114 97c-40 93 12 203 42 292c0 0 77 -12 509 -28zM449 953l180 -379l-147 92c-225 -257 -246 -448 -246 -448l-190 357c-39 58 -4 121 -4 121s35 63 114 188l-140 86zM1680 436l-188 -359c-26 -65 -98 -71 -98 -71
s-71 -7 -219 -12l8 -164l-230 367l211 362l7 -173c339 -41 509 50 509 50zM895 1360c0 0 -47 -62 -265 -435l-317 187l-19 12l225 356c28 44 91 60 140 55c100 -9 172 -106 236 -175zM1550 1053l212 -363c27 -45 11 -108 -15 -150c-54 -84 -174 -104 -264 -129
c0 0 -34 71 -265 436l313 195zM1407 1279l142 83l-220 -373l-419 20l151 86c-120 319 -279 429 -279 429l405 -1c70 6 108 -54 108 -54s39 -61 112 -190z" />
</svg>