<svg width="1536" height="1536" xmlns="http://www.w3.org/2000/svg">
    <path d="M836 1169l-15 368-2 22-420-29c-52-4-95-53-114-97-40-93 12-203 42-292 0 0 77 12 509 28zM449 583l180 379-147-92c-225 257-246 448-246 448L46 961c-39-58-4-121-4-121s35-63 114-188L16 566zm1231 517l-188 359c-26 65-98 71-98 71s-71 7-219 12l8 164-230-367 211-362 7 173c339 41 509-50 509-50zM895 176s-47 62-265 435L313 424l-19-12L519 56c28-44 91-60 140-55 100 9 172 106 236 175zm655 307l212 363c27 45 11 108-15 150-54 84-174 104-264 129 0 0-34-71-265-436l313-195zm-143-226l142-83-220 373-419-20 151-86C941 122 782 12 782 12l405 1c70-6 108 54 108 54s39 61 112 190z"/>
</svg>
