<?xml version="1.0" standalone="no"?>
<svg width="1536px" height="1536px" version="1.1" xmlns="http://www.w3.org/2000/svg">
    <path transform="scale(1, -1) translate(0, -1536)" glyph-name="reddit_square" unicode="&#xf1a2;" 

d="M939 407c7 -7 7 -19 0 -26c-49 -49 -143 -53 -171 -53s-122 4 -171 53c-7 7 -7 19 0 26c7 8 19 8 26 0c31 -31 98 -42 145 -42s114 11 145 42c7 8 19 8 26 0zM676 563c0 -42 -35 -77 -77 -77s-77 35 -77 77c0 43 35 77 77 77s77 -34 77 -77zM1014 563
c0 -42 -35 -77 -77 -77s-77 35 -77 77c0 43 35 77 77 77s77 -34 77 -77zM1229 666c0 56 -46 102 -103 102c-28 0 -54 -12 -73 -31c-70 48 -164 79 -267 82l54 243l171 -39c1 -42 35 -76 77 -76s77 35 77 77s-35 77 -77 77c-30 0 -56 -17 -69 -43l-189 42
c-10 3 -19 -4 -21 -13l-60 -268c-103 -4 -196 -35 -265 -83c-19 20 -45 32 -74 32c-57 0 -103 -46 -103 -102c0 -41 24 -76 58 -93c-3 -15 -5 -32 -5 -48c0 -163 183 -295 409 -295s410 132 410 295c0 17 -2 33 -6 49c33 17 56 52 56 92zM1536 1120v-960
c0 -159 -129 -288 -288 -288h-960c-159 0 -288 129 -288 288v960c0 159 129 288 288 288h960c159 0 288 -129 288 -288z" />
</svg>