<svg width="1536" height="1536" xmlns="http://www.w3.org/2000/svg">
    <path d="M939 1129c7 7 7 19 0 26-49 49-143 53-171 53s-122-4-171-53c-7-7-7-19 0-26 7-8 19-8 26 0 31 31 98 42 145 42s114-11 145-42c7-8 19-8 26 0zM676 973c0 42-35 77-77 77s-77-35-77-77c0-43 35-77 77-77s77 34 77 77zm338 0c0 42-35 77-77 77s-77-35-77-77c0-43 35-77 77-77s77 34 77 77zm215-103c0-56-46-102-103-102-28 0-54 12-73 31-70-48-164-79-267-82l54-243 171 39c1 42 35 76 77 76s77-35 77-77-35-77-77-77c-30 0-56 17-69 43l-189-42c-10-3-19 4-21 13l-60 268c-103 4-196 35-265 83-19-20-45-32-74-32-57 0-103 46-103 102 0 41 24 76 58 93-3 15-5 32-5 48 0 163 183 295 409 295s410-132 410-295c0-17-2-33-6-49 33-17 56-52 56-92zm307-454v960c0 159-129 288-288 288H288c-159 0-288-129-288-288V416c0-159 129-288 288-288h960c159 0 288 129 288 288z"/>
</svg>
