<?xml version="1.0" standalone="no"?>
<svg width="1536px" height="1536px" version="1.1" xmlns="http://www.w3.org/2000/svg">
    <path transform="scale(1, -1) translate(0, -1536)" glyph-name="reddit_alien" unicode="&#xf281;" horiz-adv-x="1792" 

d="M1792 690c0 -78 -44 -145 -109 -178c8 -31 12 -63 12 -96c0 -316 -357 -572 -797 -572c-439 0 -796 256 -796 572c0 32 4 64 11 94c-67 33 -113 101 -113 180c0 110 89 199 199 199c57 0 108 -24 145 -63c135 94 315 155 515 162l116 521c4 18 23 30 41 26l369 -81
c24 48 75 82 133 82c83 0 150 -67 150 -149c0 -83 -67 -150 -150 -150c-82 0 -149 67 -149 149l-334 74l-104 -472c201 -6 383 -66 519 -160c36 38 87 61 143 61c110 0 199 -89 199 -199zM418 491c0 -83 67 -150 149 -150c83 0 150 67 150 150c0 82 -67 149 -150 149
c-82 0 -149 -67 -149 -149zM1228 136c15 15 15 37 0 52c-14 14 -37 14 -51 0c-60 -61 -189 -82 -281 -82s-221 21 -281 82c-14 14 -37 14 -51 0c-15 -14 -15 -37 0 -52c95 -95 278 -102 332 -102s237 7 332 102zM1225 341c82 0 149 67 149 150c0 82 -67 149 -149 149
c-83 0 -150 -67 -150 -149c0 -83 67 -150 150 -150z" />
</svg>