<svg width="1536" height="1536" xmlns="http://www.w3.org/2000/svg">
    <path d="M1792 846c0 78-44 145-109 178 8 31 12 63 12 96 0 316-357 572-797 572-439 0-796-256-796-572 0-32 4-64 11-94C46 993 0 925 0 846c0-110 89-199 199-199 57 0 108 24 145 63 135-94 315-155 515-162L975 27c4-18 23-30 41-26l369 81c24-48 75-82 133-82 83 0 150 67 150 149 0 83-67 150-150 150-82 0-149-67-149-149l-334-74-104 472c201 6 383 66 519 160 36-38 87-61 143-61 110 0 199 89 199 199zM418 1045c0 83 67 150 149 150 83 0 150-67 150-150 0-82-67-149-150-149-82 0-149 67-149 149zm810 355c15-15 15-37 0-52-14-14-37-14-51 0-60 61-189 82-281 82s-221-21-281-82c-14-14-37-14-51 0-15 14-15 37 0 52 95 95 278 102 332 102s237-7 332-102zm-3-205c82 0 149-67 149-150 0-82-67-149-149-149-83 0-150 67-150 149 0 83 67 150 150 150z"/>
</svg>
