<?xml version="1.0" standalone="no"?>
<svg width="1536px" height="1536px" version="1.1" xmlns="http://www.w3.org/2000/svg">
    <path transform="scale(1, -1) translate(0, -1536)" glyph-name="reddit" unicode="&#xf1a1;" horiz-adv-x="1792" 

d="M1095 369c9 -9 9 -23 0 -31c-57 -57 -167 -62 -199 -62s-142 5 -199 62c-9 8 -9 22 0 31c8 8 22 8 30 0c36 -37 114 -49 169 -49s132 12 169 49c8 8 22 8 30 0zM788 550c0 -49 -40 -89 -89 -89c-50 0 -90 40 -90 89c0 50 40 90 90 90c49 0 89 -40 89 -90zM1183 550
c0 -49 -40 -89 -90 -89c-49 0 -89 40 -89 89c0 50 40 90 89 90c50 0 90 -40 90 -90zM1434 670c0 66 -54 119 -120 119c-34 0 -64 -14 -86 -36c-81 56 -190 92 -311 96l63 283l200 -45c0 -49 40 -89 89 -89c50 0 90 41 90 90s-40 90 -90 90c-35 0 -65 -21 -80 -50l-221 49
c-11 3 -22 -5 -25 -16l-69 -312c-120 -5 -228 -41 -309 -97c-22 23 -53 37 -87 37c-66 0 -120 -53 -120 -119c0 -48 28 -88 68 -108c-4 -18 -6 -37 -6 -56c0 -190 214 -344 477 -344c264 0 478 154 478 344c0 19 -2 39 -7 57c39 20 66 60 66 107zM1792 640
c0 -495 -401 -896 -896 -896s-896 401 -896 896s401 896 896 896s896 -401 896 -896z" />
</svg>