<svg width="1536" height="1536" xmlns="http://www.w3.org/2000/svg">
    <path d="M1511 1056c0 2 0 5-1 7-85 354-377 601-746 601-195 0-384-77-526-212l-129 129c-12 12-28 19-45 19-35 0-64-29-64-64v-448c0-35 29-64 64-64h448c35 0 64 29 64 64 0 17-7 33-19 45l-137 137c94 88 219 138 348 138 178 0 343-92 436-244 24-39 36-77 53-117 5-14 15-23 30-23h192c18 0 32 15 32 32zm25-800v448c0 35-29 64-64 64h-448c-35 0-64-29-64-64 0-17 7-33 19-45l138-138c-95-88-220-137-349-137-178 0-343 92-436 244-24 39-36 77-53 117-5 14-15 23-30 23H50c-18 0-32-15-32-32v-7c86-355 381-601 750-601 196 0 387 78 529 212l130-129c12-12 28-19 45-19 35 0 64 29 64 64z"/>
</svg>
