<?xml version="1.0" standalone="no"?>
<svg width="1536px" height="1536px" version="1.1" xmlns="http://www.w3.org/2000/svg">
    <path transform="scale(1, -1) translate(0, -1536)" glyph-name="refresh" unicode="&#xf021;" 

d="M1511 480c0 -2 0 -5 -1 -7c-85 -354 -377 -601 -746 -601c-195 0 -384 77 -526 212l-129 -129c-12 -12 -28 -19 -45 -19c-35 0 -64 29 -64 64v448c0 35 29 64 64 64h448c35 0 64 -29 64 -64c0 -17 -7 -33 -19 -45l-137 -137c94 -88 219 -138 348 -138
c178 0 343 92 436 244c24 39 36 77 53 117c5 14 15 23 30 23h192c18 0 32 -15 32 -32zM1536 1280v-448c0 -35 -29 -64 -64 -64h-448c-35 0 -64 29 -64 64c0 17 7 33 19 45l138 138c-95 88 -220 137 -349 137c-178 0 -343 -92 -436 -244c-24 -39 -36 -77 -53 -117
c-5 -14 -15 -23 -30 -23h-199c-18 0 -32 15 -32 32v7c86 355 381 601 750 601c196 0 387 -78 529 -212l130 129c12 12 28 19 45 19c35 0 64 -29 64 -64z" />
</svg>