<svg width="1536" height="1536" xmlns="http://www.w3.org/2000/svg">
    <path d="M1042 703c0-58-20-99-60-121-20-11-48-18-117-18H742v281h162c88 0 138-52 138-142zm52 285l205 373c5 10 5 22-1 31-5 10-16 16-27 16h-152c-12 0-23-6-28-17l-194-365H742v350c0 18-14 32-32 32H576c-18 0-32-14-32-32V416c0-18 14-32 32-32h294c105 0 151 9 190 24 113 42 183 153 183 289 0 123-61 227-158 275 3 5 6 10 9 16zM896 160c-406 0-736 330-736 736s330 736 736 736 736-330 736-736-330-736-736-736zm896 736c0 495-401 896-896 896S0 1391 0 896 401 0 896 0s896 401 896 896z"/>
</svg>
