<?xml version="1.0" standalone="no"?>
<svg width="1536px" height="1536px" version="1.1" xmlns="http://www.w3.org/2000/svg">
    <path transform="scale(1, -1) translate(0, -1536)" glyph-name="registered" unicode="&#xf25d;" horiz-adv-x="1792" 

d="M1042 833c0 58 -20 99 -60 121c-20 11 -48 18 -117 18h-123v-281h162c88 0 138 52 138 142zM1094 548l205 -373c5 -10 5 -22 -1 -31c-5 -10 -16 -16 -27 -16h-152c-12 0 -23 6 -28 17l-194 365h-155v-350c0 -18 -14 -32 -32 -32h-134c-18 0 -32 14 -32 32v960
c0 18 14 32 32 32h294c105 0 151 -9 190 -24c113 -42 183 -153 183 -289c0 -123 -61 -227 -158 -275c3 -5 6 -10 9 -16zM896 1376c-406 0 -736 -330 -736 -736s330 -736 736 -736s736 330 736 736s-330 736 -736 736zM1792 640c0 -495 -401 -896 -896 -896
s-896 401 -896 896s401 896 896 896v0c495 0 896 -401 896 -896z" />
</svg>