<?xml version="1.0" standalone="no"?>
<svg width="1536px" height="1536px" version="1.1" xmlns="http://www.w3.org/2000/svg">
    <path transform="scale(1, -1) translate(0, -1536)" glyph-name="renren" unicode="&#xf18b;" 

d="M1133 -34c-109 -60 -234 -94 -368 -94c-133 0 -258 34 -367 94c177 112 320 281 367 479c48 -198 191 -367 368 -479zM638 1394v-485c0 -342 -189 -636 -457 -766c-113 134 -181 306 -181 495c0 380 276 695 638 756zM1536 638c0 -189 -68 -361 -181 -495
c-268 130 -457 424 -457 766v485c362 -61 638 -376 638 -756z" />
</svg>