<?xml version="1.0" standalone="no"?>
<svg width="1536px" height="1536px" version="1.1" xmlns="http://www.w3.org/2000/svg">
    <path transform="scale(1, -1) translate(0, -1536)" glyph-name="repeat" unicode="&#xf01e;" 

d="M1536 1280v-448c0 -35 -29 -64 -64 -64h-448c-26 0 -49 16 -59 40c-10 23 -5 51 14 69l138 138c-94 87 -218 137 -349 137c-282 0 -512 -230 -512 -512s230 -512 512 -512c159 0 306 72 404 199c5 7 14 11 23 12c9 0 18 -3 25 -9l137 -138c12 -11 12 -30 2 -43
c-146 -176 -362 -277 -591 -277c-423 0 -768 345 -768 768s345 768 768 768c197 0 388 -79 529 -212l130 129c18 19 46 24 70 14c23 -10 39 -33 39 -59z" />
</svg>