<svg width="1536" height="1536" xmlns="http://www.w3.org/2000/svg">
    <path d="M640 1082v70c0 26-16 49-39 59-8 3-17 5-25 5-17 0-33-6-45-19L19 685c-25-25-25-65 0-90L531 83c18-19 46-24 70-14 23 10 39 33 39 59v69L243 595c-25 25-25 65 0 90zm1152 38c0 208-157 514-164 527-5 11-16 17-28 17-3 0-6 0-9-1-15-5-24-19-23-34 29-273-5-453-106-565-85-95-223-146-438-163v251c0 26-16 49-39 59-8 3-17 5-25 5-17 0-33-6-45-19L403 685c-25-25-25-65 0-90L915 83c18-19 46-24 70-14 23 10 39 33 39 59v262c276 19 473 92 599 221 151 155 169 365 169 509z"/>
</svg>
