<?xml version="1.0" standalone="no"?>
<svg width="1536px" height="1536px" version="1.1" xmlns="http://www.w3.org/2000/svg">
    <path transform="scale(1, -1) translate(0, -1536)" glyph-name="reply_all" unicode="&#xf122;" horiz-adv-x="1792" 

d="M640 454v-70c0 -26 -16 -49 -39 -59c-8 -3 -17 -5 -25 -5c-17 0 -33 6 -45 19l-512 512c-25 25 -25 65 0 90l512 512c18 19 46 24 70 14c23 -10 39 -33 39 -59v-69l-397 -398c-25 -25 -25 -65 0 -90zM1792 416c0 -208 -157 -514 -164 -527c-5 -11 -16 -17 -28 -17
c-3 0 -6 0 -9 1c-15 5 -24 19 -23 34c29 273 -5 453 -106 565c-85 95 -223 146 -438 163v-251c0 -26 -16 -49 -39 -59c-8 -3 -17 -5 -25 -5c-17 0 -33 6 -45 19l-512 512c-25 25 -25 65 0 90l512 512c18 19 46 24 70 14c23 -10 39 -33 39 -59v-262c276 -19 473 -92 599 -221
c151 -155 169 -365 169 -509z" />
</svg>