<?xml version="1.0" standalone="no"?>
<svg width="1536px" height="1536px" version="1.1" xmlns="http://www.w3.org/2000/svg">
    <path transform="scale(1, -1) translate(0, -1536)" glyph-name="reply" unicode="&#xf112;" horiz-adv-x="1792" 

d="M1792 416c0 -140 -70 -323 -127 -451c-11 -23 -22 -55 -37 -76c-7 -10 -14 -17 -28 -17c-20 0 -32 16 -32 35c0 16 4 34 5 50c3 41 5 82 5 123c0 477 -283 560 -714 560h-224v-256c0 -35 -29 -64 -64 -64c-17 0 -33 7 -45 19l-512 512c-12 12 -19 28 -19 45s7 33 19 45
l512 512c12 12 28 19 45 19c35 0 64 -29 64 -64v-256h224c328 0 736 -58 875 -403c42 -106 53 -221 53 -333z" />
</svg>