<svg xmlns="http://www.w3.org/2000/svg" width="1536" height="1536" viewBox="0 0 1536 1536">
    <path d="M905.006 1533.51c-110.9-12.102-174.616-59.034-279.289-205.724-51.851-72.667-127.086-190.643-171.456-268.862l-27.517-48.51H294.338l.037 178.012c.018 109.774 2.486 187.037 6.433 201.552 10.604 39.001 29.738 54.088 78.097 61.58 90.06 13.95 80.209 9.013 80.209 40.198v27.686H.102v-27.952c0-15.374 1.09-27.953 2.424-27.953 17.846 0 94.702-19.33 105.82-26.613 8.1-5.308 19.497-22.013 25.329-37.124 9.86-25.554 10.602-57.107 10.602-451.176 0-335.417-1.614-428.257-7.748-445.575-10.881-30.716-35.948-49.627-76.05-57.37C-5.3 432.898.102 436.61.102 404.097v-29.311h273.255c289.721 0 314.42 1.88 385.834 29.35 77.95 29.986 142.016 95.76 164.908 169.304 17.026 54.698 17.084 136.807.129 190.95-16.153 51.598-63.353 121.44-105.186 155.645-34.159 27.929-107.28 66.762-125.71 66.762-8.6 0-6.79 6.008 11.084 36.78 65.617 112.965 205.799 301.877 270.478 364.502 37.63 36.435 90.04 67.279 129.222 76.047l31.69 7.09v25.691c0 21.27-2.278 26.533-13.24 30.583-21.438 7.918-75.022 10.662-117.566 6.02zM483.292 916.06c45.593-8.648 100.291-36.081 128.821-64.611 78.642-78.642 87.177-234.455 17.198-313.954-52.684-59.853-98.517-74.27-236.404-74.368h-98.57v452.305l13.242 2.55c26.997 5.2 145.089 3.955 175.713-1.853zm652.828-282.508c-89.663-18.883-148.972-84.523-164.685-182.265-7.872-48.964-7.964-215.002-.147-264.812 12.737-81.169 60.806-145.642 127.068-170.433C1162.637-8.01 1246.952-5.15 1303.568 23c41.203 20.486 97.098 83.67 97.098 109.76 0 5.775-80.929 39.844-84.412 35.534-1.074-1.324-10.272-14.732-20.442-29.786-24.068-35.627-57.199-52.073-104.903-52.073-48.784 0-83.22 22.526-106.308 69.543-16.027 32.636-16.468 36.232-18.334 149.584-1.538 93.37-.055 122.5 7.512 148.562 18.4 63.294 65.089 95.07 132.518 90.193 68.934-4.986 111.379-56.501 111.802-135.693l.184-33.837h-117.695V292.4h217.735l-.055 63.26c-.092 120.248-18.929 180.485-71.152 227.438-16.29 14.645-44.128 31.95-62.393 38.784-37.855 14.164-109.904 19.82-148.61 11.67z"/>
</svg>
