<svg width="1536" height="1536" xmlns="http://www.w3.org/2000/svg">
    <path d="M1280 1504c0 17-15 32-32 32H288c-37 0-32-39-32-64V896H64c-35 0-64-29-64-64 0-15 5-30 15-41l320-384c12-14 30-22 49-22s37 8 49 22l320 384c10 11 15 26 15 41 0 35-29 64-64 64H512v384h576c9 0 19 4 25 11l160 192c4 6 7 14 7 21zm640-416c0 15-5 30-15 41l-320 384c-12 14-30 23-49 23s-37-9-49-23l-320-384c-10-11-15-26-15-41 0-35 29-64 64-64h192V640H832c-9 0-19-4-25-12L647 436c-4-5-7-13-7-20 0-17 15-32 32-32h960c37 0 32 39 32 64v576h192c35 0 64 29 64 64z"/>
</svg>
