<?xml version="1.0" standalone="no"?>
<svg width="1536px" height="1536px" version="1.1" xmlns="http://www.w3.org/2000/svg">
    <path transform="scale(1, -1) translate(0, -1536)" glyph-name="retweet" unicode="&#xf079;" horiz-adv-x="1920" 

d="M1280 32c0 -17 -15 -32 -32 -32h-960c-37 0 -32 39 -32 64v160v416h-192c-35 0 -64 29 -64 64c0 15 5 30 15 41l320 384c12 14 30 22 49 22s37 -8 49 -22l320 -384c10 -11 15 -26 15 -41c0 -35 -29 -64 -64 -64h-192v-384h576c9 0 19 -4 25 -11l160 -192
c4 -6 7 -14 7 -21zM1920 448c0 -15 -5 -30 -15 -41l-320 -384c-12 -14 -30 -23 -49 -23s-37 9 -49 23l-320 384c-10 11 -15 26 -15 41c0 35 29 64 64 64h192v384h-576c-9 0 -19 4 -25 12l-160 192c-4 5 -7 13 -7 20c0 17 15 32 32 32h960c37 0 32 -39 32 -64v-160v-416h192
c35 0 64 -29 64 -64z" />
</svg>