<svg xmlns="http://www.w3.org/2000/svg" width="1536" height="1536" viewBox="0 0 1536 1536">
    <path style="line-height:normal;font-variant-ligatures:normal;font-variant-position:normal;font-variant-caps:normal;font-variant-numeric:normal;font-variant-alternates:normal;font-feature-settings:normal;text-indent:0;text-align:start;text-decoration-line:none;text-decoration-style:solid;text-decoration-color:#000;text-transform:none;text-orientation:mixed;white-space:normal;shape-padding:0;isolation:auto;mix-blend-mode:normal;solid-color:#000;solid-opacity:1" d="M238.688 0C108.02 0 1.213 103.937 1.213 232.215V851.98C.42 859.726-.012 867.565 0 875.506v.033c.001 7.822.446 15.521 1.213 23.084v405.174c0 121.913 96.492 221.758 218.23 231.373v.832h19.244c130.678 0 237.473-103.93 237.473-232.205v-196.522l124.947-.12 228.858 318.712c42.47 59.138 110.135 90.768 178.91 90.768 43.246 0 86.931-12.514 125.05-38.586 98.695-67.48 122.649-200.282 53.473-296.606l-146.261-203.687c124.471-102.013 203.428-254.965 203.428-424.211C1244.564 248.234 989.886 0 677.794 0H238.688zm91.437 38.484h347.67c291.722 0 528.283 231.14 528.283 515.06 0 156.394-72.552 298.005-187.371 392.976l-103.34-143.915c68.217-62.164 110.955-150.744 110.955-249.064 0-188.12-156.522-340.572-348.525-340.572h-220.6c-3.35-36.636-16.467-71.958-38.685-102.895-23.193-32.296-53.986-56.378-88.387-71.59zm126.994 212.97h220.678c171.706 0 310.039 135.282 310.039 302.087 0 85.529-36.396 162.746-94.986 217.705l-13.88-19.328c-33.915-47.235-83.93-76.917-137.732-86.953 39.884-21.929 66.852-63.84 66.852-111.416 0-70.458-58.868-127.613-130.295-127.613l-240.121-.004v255.461l170.08-.174a220.873 220.873 0 0 0-32.73 18.517c-55.009 37.61-86.786 95.515-92.176 156.084l-224.916.221v-411.7c37.252-2.997 74.188-15.338 106.953-37.71 47.778-32.625 79.674-81.43 89.81-137.455a211.822 211.822 0 0 0 2.424-17.723zM39.7 318.081c5.72 12.591 12.735 24.733 21.018 36.266 38.219 53.22 97.07 84.16 158.728 89.783v423.775a19.245 19.245 0 0 0 0 14.774v421.113a19.245 19.245 0 1 0 38.487 0V894.527l225.052-.22c3.43 35.535 16.064 70.715 38.553 102.037l51.953 72.35-135.816.132v234.969c0 106.937-88.561 193.674-198.906 193.717h-.08c-110.37 0-198.989-86.754-198.989-193.717V896.896l-.11-1.021a191.415 191.415 0 0 1-1.105-20.37v-.03a189.321 189.321 0 0 1 1.102-20.729l.113-1.033V318.082zm436.46 146.337l201.635.004c51.066 0 91.809 40.05 91.809 89.127 0 46.553-37.132 85.723-85.356 88.914-2.091.134-4.207.197-6.672.197h-.01l-201.406.207V464.418z" color="#000" font-weight="400" font-family="sans-serif" overflow="visible" fill-rule="evenodd" stroke-width="38.486"/>
</svg>
