<svg width="1536" height="1536" xmlns="http://www.w3.org/2000/svg">
    <path d="M1111 996v-4l-24-320c-1-18-17-32-34-32H867c-17 0-33 14-34 32l-24 320v4c-1 16 14 28 29 28h244c15 0 30-12 29-28zm759 467c0 29-8 73-46 73h-704c17 0 31-14 30-32l-20-256c-1-18-17-32-34-32H824c-17 0-33 14-34 32l-20 256c-1 18 13 32 30 32H96c-38 0-46-44-46-73 0-40 11-80 26-116L493 303c10-25 37-47 64-47h339c-17 0-33 14-34 32l-15 192c-1 18 12 32 30 32h166c18 0 31-14 30-32l-15-192c-1-18-17-32-34-32h339c27 0 54 22 64 47l417 1044c15 36 26 76 26 116z"/>
</svg>
