<?xml version="1.0" standalone="no"?>
<svg width="1536px" height="1536px" version="1.1" xmlns="http://www.w3.org/2000/svg">
    <path transform="scale(1, -1) translate(0, -1536)" glyph-name="road" unicode="&#xf018;" horiz-adv-x="1920" 

d="M1111 540v4l-24 320c-1 18 -17 32 -34 32h-186c-17 0 -33 -14 -34 -32l-24 -320v-4c-1 -16 14 -28 29 -28h244c15 0 30 12 29 28zM1870 73c0 -29 -8 -73 -46 -73h-704c17 0 31 14 30 32l-20 256c-1 18 -17 32 -34 32h-272c-17 0 -33 -14 -34 -32l-20 -256
c-1 -18 13 -32 30 -32h-704c-38 0 -46 44 -46 73c0 40 11 80 26 116l417 1044c10 25 37 47 64 47h339c-17 0 -33 -14 -34 -32l-15 -192c-1 -18 12 -32 30 -32h166c18 0 31 14 30 32l-15 192c-1 18 -17 32 -34 32h339c27 0 54 -22 64 -47l417 -1044c15 -36 26 -76 26 -116z
" />
</svg>