<?xml version="1.0" standalone="no"?>
<svg width="1536px" height="1536px" version="1.1" xmlns="http://www.w3.org/2000/svg">
    <path transform="scale(1, -1) translate(0, -1536)" glyph-name="rocket" unicode="&#xf135;" horiz-adv-x="1664" 

d="M1440 1088c0 53 -43 96 -96 96s-96 -43 -96 -96s43 -96 96 -96s96 43 96 96zM1664 1376c0 -332 -92 -553 -329 -791c-58 -57 -124 -116 -195 -176l-20 -379c-1 -10 -7 -20 -16 -26l-384 -224c-5 -3 -10 -4 -16 -4c-8 0 -16 3 -23 9l-64 64c-8 9 -11 21 -8 32l85 276
l-281 281l-276 -85c-3 -1 -6 -1 -9 -1c-8 0 -17 3 -23 9l-64 64c-10 11 -12 27 -5 39l224 384c6 9 16 15 26 16l379 20c60 71 119 137 176 195c250 249 441 329 789 329c18 0 34 -14 34 -32z" />
</svg>