<svg xmlns="http://www.w3.org/2000/svg" height="1536" width="1536">
    <path d="M701.995 1760.02c-4.314-.367-7.338-1.106-11.2-2.74a79.534 79.534 0 0 0-3.128-1.232c-7.472-2.72-14.51-6.787-20.975-12.122-1.688-1.393-64.023-63.65-65.99-65.909-8.035-9.22-13.531-20.537-15.706-32.343-1.767-9.589-1.423-19.396 1.003-28.603.195-.742 17.32-56.434 38.055-123.76 20.735-67.326 37.721-122.523 37.748-122.66.044-.222-13.493-13.791-120.09-120.37l-120.14-120.121-91.158 28.082a1890047.24 1890047.24 0 0 1-142.662 43.947c-6.71 2.068-12.988 3.959-13.95 4.201-2.845.716-5.57 1.155-9.001 1.45-2.039.177-8.013.238-10.251.107-14.982-.881-28.762-6.363-39.704-15.796-1.572-1.356-64.295-64.058-65.892-65.87-2.765-3.14-4.836-5.907-6.883-9.201-2.281-3.672-4.515-8.226-5.933-12.101a67.156 67.156 0 0 0-1.625-4.05c-1.249-2.897-2.15-6.366-2.535-9.751-.224-1.978-.12-12.052.155-15.002.873-9.355 3.478-17.918 7.788-25.602.278-.495 48.948-83.948 108.155-185.452 69.216-118.663 108.009-185.074 108.657-186.015 10.726-15.576 27.374-26.198 45.629-29.114 3.07-.49 4.393-.584 19.001-1.352 12.16-.64 71.957-3.794 256.922-13.554 19.801-1.045 45.409-2.394 56.905-2.997 11.495-.604 20.953-1.132 21.016-1.174.063-.042 2.897-3.34 6.298-7.327 50.208-58.882 98.363-112.212 142.047-157.313 5.015-5.179 15.117-15.49 15.868-16.198.377-.356 2.644-2.584 5.037-4.95 19.712-19.496 41.957-40.52 61.804-58.412 87.465-78.85 168.301-134.584 252.421-174.035 54.126-25.383 110.663-44.474 171.715-57.98 61.387-13.58 128.96-21.834 205.067-25.05 25.985-1.097 52.487-1.647 76.756-1.592 6.463.015 17.624-.01 24.802-.053 13.392-.082 14.383-.064 16.901.3 11.248 1.63 21.048 8.53 25.9 18.236 1.57 3.14 2.477 6.114 2.973 9.745.198 1.448.227 6.432.138 24.015-.023 4.566-.01 10.461.037 13.102.112 6.842-.101 25.983-.447 40.053-2.613 106.45-15.62 199.509-39.867 285.224-16.891 59.712-39.625 116.773-68.314 171.464-45.298 86.353-106.555 169.534-187.99 255.27-19.325 20.347-33.064 34.061-56.208 56.108-42.585 40.566-89.12 82.303-143.927 129.086l-6.118 5.222-.059.625c-.032.344-4.173 78.752-9.202 174.24-5.029 95.488-9.216 174.357-9.306 175.265-1.713 17.38-10.706 34.048-24.603 45.604-1.466 1.22-3.791 2.956-5.45 4.072-.945.635-358.041 209.046-370.18 216.047-5.45 3.143-10.83 5.287-16.652 6.637-3.922.909-8.248 1.486-12.051 1.609-2.025.065-11.068.135-11.601.09zm190.516-174.77c100.053-58.362 181.997-106.192 182.098-106.288.169-.16.896-13.695 10.1-188.123l9.918-187.95 2.606-2.206c23.733-20.086 31.389-26.607 43.848-37.351 53.615-46.232 99.73-88.213 141.61-128.914 11.24-10.924 25.116-25.085 38.908-39.708 64.645-68.54 115.187-134.63 154.608-202.165 13.36-22.89 25.928-46.93 36.77-70.334 17.885-38.605 32.564-78.07 44.387-119.332 25.182-87.886 37.67-184.47 38.521-297.909l.067-8.935-8.442.063c-15.207.113-26.745.283-37.845.557-55.844 1.375-105.9 5.23-152.012 11.706-64.302 9.03-121.847 23.28-175.865 43.548-81.572 30.608-157.728 75.91-238.12 141.65-33.748 27.597-68.476 58.95-105.856 95.569-11.301 11.07-19.382 19.273-33.057 33.554-45.512 47.53-90.876 98.28-144.994 162.212l-10.54 12.451-.713.079c-.393.044-7.172.416-15.065.828-7.893.411-25.85 1.355-39.904 2.097a2578050.89 2578050.89 0 0 1-139.261 7.35 7485527.247 7485527.247 0 0 1-166.385 8.777c-8.435.444-14.714.815-14.769.872-.131.135-212.529 364.266-212.529 364.356 0 .132 58.052 58.127 58.184 58.127.071 0 8.082-2.449 17.802-5.443a1840245.289 1840245.289 0 0 1 109.13-33.61 414638.206 414638.206 0 0 1 53.254-16.401c13.752-4.237 78.537-24.189 91.607-28.213l10.2-3.14 149.13 149.137L739.03 1351.3l-43.436 141.012-43.436 141.011 29.068 29.078c19.963 19.97 29.116 29.06 29.219 29.022.083-.031 82.012-47.808 182.065-106.171zm425.385-990.623c-.247-.019-1.283-.084-2.3-.144-21.541-1.272-42.584-8.202-60.798-20.023-8.264-5.363-15.55-11.408-22.575-18.727-10.891-11.348-19.607-24.768-25.59-39.403-9.55-23.36-11.832-49.248-6.532-74.106 1.82-8.533 4.71-17.315 8.395-25.502 1.568-3.485 4.363-8.835 6.454-12.351a126.499 126.499 0 0 1 32.586-36.349 125.575 125.575 0 0 1 65.11-24.9c4.038-.342 5.708-.405 10.75-.403 5.01 0 6.577.062 10.651.404 14.275 1.199 28.025 4.784 41.404 10.797 2.035.915 6.795 3.323 9.06 4.584 14.058 7.827 26.44 18.22 36.655 30.765 7.076 8.692 13.195 18.72 17.641 28.91 8.516 19.521 11.908 40.384 10.046 61.798-1.703 19.574-8.153 38.744-18.724 55.648-2.965 4.74-6.653 9.79-10.415 14.258-3.148 3.74-8.35 9.142-11.71 12.162-12.242 11.001-25.794 19.241-40.84 24.833a125.108 125.108 0 0 1-31.066 7.204c-4.512.456-5.978.523-11.951.552-3.19.015-6.003.012-6.251-.01zm8.3-68.05c12.018-.633 23.024-4.69 32.485-11.974 3.921-3.019 8.047-7.197 11.033-11.174 10.01-13.332 13.732-30.16 10.33-46.704-1.4-6.806-4.38-13.943-8.29-19.852-8.576-12.958-21.805-21.927-36.805-24.952-2.148-.434-4.017-.71-6.552-.971-1.978-.204-8.636-.17-10.701.054-12.746 1.38-23.59 6.162-33.053 14.576-6.467 5.75-11.935 13.554-15.129 21.595-2.645 6.659-3.944 13.122-4.09 20.351-.09 4.427.227 8.226 1.026 12.301 3.636 18.562 16.072 34.125 33.474 41.894 8.09 3.612 17.362 5.326 26.273 4.856z" stroke-width=".1"/>
</svg>
