<?xml version="1.0" standalone="no"?>
<svg width="1536px" height="1536px" version="1.1" xmlns="http://www.w3.org/2000/svg">
    <path transform="scale(1, -1) translate(0, -1536)" glyph-name="rss_square" unicode="&#xf143;" 

d="M512 256c0 71 -57 128 -128 128s-128 -57 -128 -128s57 -128 128 -128s128 57 128 128zM863 162c-17 310 -263 556 -573 573c-9 1 -18 -3 -24 -9s-10 -14 -10 -23v-128c0 -17 13 -31 30 -32c205 -15 370 -180 385 -385c1 -17 15 -30 32 -30h128c9 0 17 4 23 10
s10 15 9 24zM1247 161c-17 520 -438 941 -958 958c-10 1 -17 -2 -23 -9c-6 -6 -10 -14 -10 -23v-128c0 -17 14 -31 31 -32c415 -15 753 -353 768 -768c1 -17 15 -31 32 -31h128c9 0 17 4 23 10c7 6 10 14 9 23zM1536 1120v-960c0 -159 -129 -288 -288 -288h-960
c-159 0 -288 129 -288 288v960c0 159 129 288 288 288h960c159 0 288 -129 288 -288z" />
</svg>