<svg width="1536" height="1536" xmlns="http://www.w3.org/2000/svg">
    <path d="M512 1280c0-71-57-128-128-128s-128 57-128 128 57 128 128 128 128-57 128-128zm351 94c-17-310-263-556-573-573-9-1-18 3-24 9s-10 14-10 23v128c0 17 13 31 30 32 205 15 370 180 385 385 1 17 15 30 32 30h128c9 0 17-4 23-10s10-15 9-24zm384 1c-17-520-438-941-958-958-10-1-17 2-23 9-6 6-10 14-10 23v128c0 17 14 31 31 32 415 15 753 353 768 768 1 17 15 31 32 31h128c9 0 17-4 23-10 7-6 10-14 9-23zm289-959v960c0 159-129 288-288 288H288c-159 0-288-129-288-288V416c0-159 129-288 288-288h960c159 0 288 129 288 288z"/>
</svg>
