<?xml version="1.0" standalone="no"?>
<svg width="1536px" height="1536px" version="1.1" xmlns="http://www.w3.org/2000/svg">
    <path transform="scale(1, -1) translate(0, -1536)" glyph-name="rss" unicode="&#xf09e;" horiz-adv-x="1408" 

d="M384 192c0 -106 -86 -192 -192 -192s-192 86 -192 192s86 192 192 192s192 -86 192 -192zM896 69c1 -18 -5 -35 -17 -48c-12 -14 -29 -21 -47 -21h-135c-33 0 -60 25 -63 58c-29 305 -271 547 -576 576c-33 3 -58 30 -58 63v135c0 18 7 35 21 47c11 11 27 17 43 17h5
c213 -17 414 -110 565 -262c152 -151 245 -352 262 -565zM1408 67c1 -17 -5 -34 -18 -47c-12 -13 -28 -20 -46 -20h-143c-34 0 -62 26 -64 60c-33 581 -496 1044 -1077 1078c-34 2 -60 30 -60 63v143c0 18 7 34 20 46c12 12 28 18 44 18h3c350 -18 679 -165 927 -414
c249 -248 396 -577 414 -927z" />
</svg>