<?xml version="1.0" standalone="no"?>
<svg width="1536px" height="1536px" version="1.1" xmlns="http://www.w3.org/2000/svg">
    <path transform="scale(1, -1) translate(0, -1536)" glyph-name="rub" unicode="&#xf158;" horiz-adv-x="1280" 

d="M1043 971c0 134 -95 224 -236 224h-320v0v-448h320c141 0 236 90 236 224zM1280 971c0 -257 -186 -437 -453 -437h-340v-118h505c18 0 32 -14 32 -32v-128c0 -18 -14 -32 -32 -32h-505v-192c0 -18 -14 -32 -32 -32h-167c-18 0 -32 14 -32 32v192h-224
c-18 0 -32 14 -32 32v128c0 18 14 32 32 32h224v118h-224c-18 0 -32 14 -32 32v149c0 18 14 32 32 32h224v629c0 18 14 32 32 32h539v0c267 0 453 -180 453 -437z" />
</svg>