<svg width="1536" height="1536" xmlns="http://www.w3.org/2000/svg">
    <path d="M949 893c0 33-23 64-58 64-33 0-64-24-64-58 0-33 24-64 59-64 32 0 63 23 63 58zm15 58l350-581c-47 44-485 447-497 468l-349 580c46-43 485-448 496-467zm647-55c0 131-36 260-104 371-10-5-52-35-60-35-7 0-13 6-13 13 0 13 47 37 59 44-99 150-252 258-426 301l-16-67c-1-9-7-10-15-10-7 0-11 10-10 15l16 68c-48 10-97 15-146 15-131 0-260-37-372-105 6-10 44-65 44-73 0-7-6-13-13-13-14 0-44 60-53 72-151-100-260-255-302-432l69-15c8-2 10-8 10-15s-10-11-16-10l-68 15c-9-46-14-92-14-139 0-134 38-266 109-379 10 6 58 39 66 39 7 0 13-5 13-12 0-14-53-41-65-49 102-149 257-256 433-296l15 67c2 8 8 10 15 10s11-10 10-16l-15-66c44-8 89-13 134-13 134 0 265 38 379 109-7 10-39 57-39 65 0 7 5 13 12 13 14 0 41-52 48-64 148 100 254 253 295 427l-56 12c-9 2-10 8-10 16 0 7 10 11 15 10l57-13c9 46 14 93 14 140zm85 0c0-442-358-800-800-800S96 454 96 896s358 800 800 800 800-358 800-800zm96 0c0 495-401 896-896 896S0 1391 0 896 401 0 896 0s896 401 896 896z"/>
</svg>
