<?xml version="1.0" standalone="no"?>
<svg width="1536px" height="1536px" version="1.1" xmlns="http://www.w3.org/2000/svg">
    <path transform="scale(1, -1) translate(0, -1536)" glyph-name="safari" unicode="&#xf267;" horiz-adv-x="1792" 

d="M949 643c0 -33 -23 -64 -58 -64c-33 0 -64 24 -64 58c0 33 24 64 59 64c32 0 63 -23 63 -58zM964 585l350 581c-47 -44 -485 -447 -497 -468l-349 -580c46 43 485 448 496 467zM1611 640c0 -131 -36 -260 -104 -371c-10 5 -52 35 -60 35c-7 0 -13 -6 -13 -13
c0 -13 47 -37 59 -44c-99 -150 -252 -258 -426 -301l-16 67c-1 9 -7 10 -15 10c-7 0 -11 -10 -10 -15l16 -68c-48 -10 -97 -15 -146 -15c-131 0 -260 37 -372 105c6 10 44 65 44 73c0 7 -6 13 -13 13c-14 0 -44 -60 -53 -72c-151 100 -260 255 -302 432l69 15
c8 2 10 8 10 15s-10 11 -16 10l-68 -15c-9 46 -14 92 -14 139c0 134 38 266 109 379c10 -6 58 -39 66 -39c7 0 13 5 13 12c0 14 -53 41 -65 49c102 149 257 256 433 296l15 -67c2 -8 8 -10 15 -10s11 10 10 16l-15 66c44 8 89 13 134 13v0c134 0 265 -38 379 -109
c-7 -10 -39 -57 -39 -65c0 -7 5 -13 12 -13c14 0 41 52 48 64c148 -100 254 -253 295 -427l-56 -12c-9 -2 -10 -8 -10 -16c0 -7 10 -11 15 -10l57 13c9 -46 14 -93 14 -140zM1696 640c0 442 -358 800 -800 800s-800 -358 -800 -800s358 -800 800 -800s800 358 800 800z
M1792 640c0 -495 -401 -896 -896 -896s-896 401 -896 896s401 896 896 896s896 -401 896 -896z" />
</svg>