<svg xmlns="http://www.w3.org/2000/svg" width="1536" height="1792" viewBox="0 0 1536 1792">
    <path d="M1629.092 1337.556c-7.31-5.203-6.095-22.02 17.947-74.394 9.439-20.564 30.974-55.185 68.413-88.27 4.337 13.607 6.982 26.654 6.907 38.802-.484 81.035-58.302 111.298-93.267 123.862zm-307.755 70.153c-9.8 5.128-18.785 8.35-22.961 5.864-3.062-1.829 4.042-8.58 4.042-8.58s49.973-53.755 69.654-78.234c11.449-14.234 24.723-31.13 39.188-50.028a90.2 90.2 0 0 1 .181 5.61c-.147 64.405-62.36 107.888-90.104 125.368zm-399.49-190.613c-23.117 56.358-71.5 200.54-100.948 192.813-25.279-6.633-40.673-116.236-5.047-224.102 17.93-54.297 56.236-119.177 78.739-144.359 36.227-40.522 76.114-53.775 85.805-37.346 12.353 20.934-44.055 177.667-58.55 212.994zm-483.538 328.719c-66.372 72.408-159.102 99.772-198.865 76.724-42.937-24.897-25.932-131.497 55.52-208.335 49.645-46.826 113.733-89.956 156.25-116.522 9.674-5.822 23.89-14.373 41.165-24.724 2.864-1.632 4.48-2.536 4.48-2.536l-.064-.11c3.336-1.993 6.751-4.042 10.28-6.149 29.637 109.368.9 205.654-68.766 281.652zm1544.536-520.712c-80.527.425-150.273 19.756-208.738 48.572-21.384-42.675-43.025-80.219-46.659-108.135-4.244-32.59-9.16-52.03-4.038-90.853 5.127-38.822 27.588-93.797 27.26-97.914-.328-4.118-5.039-23.895-51.483-24.232-46.448-.332-86.18 8.934-90.853 21.199-4.677 12.265-13.619 39.866-19.184 68.644-8.134 42.116-92.732 192.317-140.767 270.896-15.71-30.666-29.068-57.708-31.853-79.092-4.24-32.589-9.16-52.03-4.037-90.857 5.127-38.818 27.588-93.8 27.26-97.918-.329-4.118-5.035-23.891-51.484-24.228-46.448-.332-86.18 8.934-90.852 21.2-4.677 12.264-9.67 40.92-19.184 68.643-9.515 27.727-121.97 278.283-151.421 343.225-15.008 33.09-28.068 59.673-37.288 77.83-.025-.046-.059-.1-.059-.1s-.567 1.207-1.547 3.247c-7.891 15.453-12.59 24.004-12.59 24.004l.14.32c-6.26 11.348-12.968 21.888-16.291 21.888-2.322 0-6.97-30.209 1.014-71.672 16.732-86.915 56.93-222.462 56.53-227.131-.21-2.394 7.47-26.011-26.25-38.36-32.779-11.996-44.45 8.012-47.441 8.076-2.898.063-5.052 7.07-5.052 7.07s36.518-152.43-69.654-152.43c-66.377 0-158.352 72.61-203.66 138.428a59582.653 59582.653 0 0 0-154.698 84.665 67905.909 67905.909 0 0 0-74.504 40.989c-1.64-1.817-3.276-3.638-4.963-5.439-128.739-137.351-366.727-234.5-356.628-419.154 3.671-67.13 27.005-243.888 457.294-458.3 352.474-175.64 634.647-127.308 683.413-20.19 69.662 153.036-150.807 437.46-516.855 478.49-139.467 15.634-212.902-38.414-231.169-58.55-19.226-21.19-22.095-22.144-29.275-18.17-11.693 6.482-4.281 25.19 0 36.341 10.932 28.446 55.778 78.886 132.241 103.976 67.265 22.074 231.01 34.2 429.026-42.398 221.79-85.788 394.974-324.436 344.105-523.916-51.732-202.883-388.126-269.58-706.501-156.469-189.482 67.315-394.605 172.97-542.088 310.918C18.701 562.243-9.263 705.003 2.26 764.655c40.943 211.951 333.08 349.976 450.065 452.269-5.775 3.184-11.188 6.175-16.114 8.892-58.651 29.014-281.339 145.553-337.04 268.687-63.184 139.674 10.058 239.885 58.549 253.377 150.236 41.806 304.405-33.387 387.258-156.967 82.835-123.552 72.72-284.428 34.7-357.863-.47-.913-.992-1.804-1.476-2.709a15362.632 15362.632 0 0 1 45.893-27.066c29.851-17.527 59.151-33.88 84.581-47.719-14.225 38.987-24.648 85.717-30.07 153.205-6.367 79.286 26.125 181.768 68.645 222.088 18.721 17.75 41.245 18.167 55.52 18.167 49.478 0 72.056-41.162 96.91-89.844 30.49-59.706 57.54-129.212 57.54-129.212s-33.952 187.76 58.554 187.76c33.704 0 67.61-43.705 82.71-65.99l.062.375s.88-1.45 2.596-4.36c3.5-5.352 5.48-8.758 5.48-8.758s.068-.353.177-.967c13.548-23.525 43.596-77.158 88.661-165.6 58.221-114.268 114.066-257.416 114.066-257.416s5.195 35 22.209 92.872c10.01 34.052 31.277 71.693 48.055 107.79-13.506 18.739-21.809 29.502-21.809 29.502l.227.56c-10.793 14.326-22.894 29.787-35.554 44.862-45.952 54.73-100.687 117.229-108.018 135.27-8.631 21.254-6.591 36.887 10.095 49.465 12.189 9.185 33.888 10.61 56.53 9.084 41.296-2.775 70.352-13.018 84.686-19.257 22.348-7.902 48.371-20.332 72.796-38.284 45.077-33.14 72.266-80.547 69.654-143.344-1.447-34.608-12.484-68.91-26.444-101.292 4.092-5.88 8.193-11.815 12.307-17.826 71.063-103.887 126.184-218.046 126.184-218.046s5.195 34.995 22.213 92.871c8.61 29.296 25.598 61.25 40.875 92.594-66.819 54.293-108.258 117.377-122.647 158.765-26.604 76.54-5.767 111.222 33.317 119.117 17.703 3.58 42.705-4.533 61.515-12.495 23.403-7.76 51.525-20.686 77.792-39.993 45.077-33.14 88.417-79.546 85.805-142.34-1.194-28.588-8.946-56.963-19.466-84.223 56.64-23.592 129.974-36.711 223.38-25.805 200.38 23.4 239.69 148.515 232.179 200.881-7.517 52.37-49.549 81.153-63.601 89.848-14.049 8.689-18.34 11.705-17.157 18.17 1.707 9.397 8.206 9.035 20.185 7.016 16.497-2.785 105.225-42.595 109.023-139.257 4.825-122.718-112.75-257.516-321.012-256.406" fill="#100f0d"/>
</svg>
