<svg xmlns="http://www.w3.org/2000/svg" width="1536" height="1792" viewBox="0 0 1536 1792">
    <path d="M896 0C401.152 0 0 401.152 0 896c0 494.847 401.152 896 896 896 494.847 0 896-401.153 896-896 0-494.848-401.153-896-896-896zm249.875 217.784c156.843.1 284.892 58.797 312.153 165.714 39.9 156.468-95.94 343.652-269.897 410.945-155.325 60.079-283.758 50.569-336.514 33.254-59.975-19.68-95.16-59.239-103.73-81.548-3.363-8.749-9.177-23.426 0-28.507 5.63-3.118 7.882-2.368 22.968 14.254 14.327 15.788 71.92 58.18 181.31 45.916 287.12-32.179 460.047-255.275 405.411-375.307-38.25-84.02-259.578-121.93-536.051 15.831C484.022 586.515 465.72 725.161 462.841 777.812c-7.916 144.832 178.747 221.045 279.724 328.778a313.78 313.78 0 0 1 6.938 7.666c30.552-11.37 72.848-17.77 140.114-18.93 163.333-2.813 255.582 104.864 251.792 201.122-2.975 75.815-72.572 107.043-85.509 109.224-9.398 1.592-14.503 1.862-15.837-5.508-.93-5.068 2.435-7.425 13.46-14.247 11.022-6.816 43.993-29.399 49.885-70.475 5.897-41.064-24.947-139.205-182.12-157.562-55.701-6.508-99.53-2.067-137.125 7.851 27.255 60.088 32.475 180.883-30.239 274.428-64.985 96.933-185.91 155.906-303.752 123.12-38.033-10.582-95.482-89.193-45.923-198.739 46.968-103.838 247.671-205.41 275.092-218.908v-.479c-92.995-80.068-319.21-187.988-351.1-353.087-9.042-46.79 12.892-158.761 150.438-287.416 115.684-108.208 276.575-191.08 425.192-243.876 81.942-29.111 165.406-43.039 242.004-42.99zm-427.94 976.678a925.72 925.72 0 0 1-8.196 4.466l.147.281s-93.427 44.131-158.36 112.776c-60.36 63.8-77.233 143.874-43.554 163.395 31.189 18.097 103.926-3.375 155.984-60.17 17.067-18.615 31.003-38.783 41.387-60.33a220.527 220.527 0 0 0 10.733-26.507c13.464-40.723 14.896-85.69 1.86-133.91z" fill="#100f0d" fill-rule="evenodd" stroke-width=".436"/>
</svg>
