<?xml version="1.0" standalone="no"?>
<svg width="1536px" height="1536px" version="1.1" xmlns="http://www.w3.org/2000/svg">
    <path transform="scale(1, -1) translate(0, -1536)" glyph-name="scissors" unicode="&#xf0c4;" horiz-adv-x="1792" 

d="M960 640c35 0 64 -29 64 -64s-29 -64 -64 -64s-64 29 -64 64s29 64 64 64zM1260 576l507 -398c18 -13 27 -35 25 -56c-3 -22 -16 -41 -35 -51l-128 -64c-9 -5 -19 -7 -29 -7c-11 0 -22 3 -31 8l-690 387l-110 -66c-4 -2 -8 -4 -12 -5c9 -31 13 -64 10 -97
c-9 -103 -78 -201 -188 -271c-85 -54 -183 -84 -277 -84c-90 0 -166 27 -222 78c-57 53 -86 129 -79 207c9 102 78 201 187 271c85 54 184 84 278 84c56 0 107 -11 151 -31c6 9 13 16 22 22l122 73l-122 73c-9 6 -16 13 -22 22c-44 -20 -95 -31 -151 -31
c-94 0 -193 30 -278 84c-109 70 -178 169 -187 271c-7 78 22 154 79 206c56 52 132 79 222 79c94 0 192 -30 277 -84c110 -69 179 -168 188 -271c3 -33 -1 -66 -10 -97c4 -1 8 -3 12 -5l110 -66l690 387c9 5 20 8 31 8c10 0 20 -2 29 -7l128 -64c19 -10 32 -29 35 -51
c2 -21 -7 -43 -25 -56zM579 836c61 56 23 157 -85 225c-61 39 -132 59 -192 59c-46 0 -87 -12 -113 -36c-61 -56 -23 -157 85 -225c61 -39 131 -59 192 -59c46 0 87 12 113 36zM494 91c108 68 146 169 85 225c-26 24 -67 36 -113 36c-61 0 -131 -20 -192 -59
c-108 -68 -146 -169 -85 -225c26 -24 67 -36 113 -36c60 0 131 20 192 59zM672 704l96 -58v11c0 23 13 44 33 56l14 8l-79 47l-26 -26c-8 -8 -14 -16 -22 -23c-3 -3 -5 -4 -7 -6zM896 480l96 -32l736 576l-128 64l-768 -431v-113l-160 -96l9 -8c2 -3 4 -4 7 -6
c8 -8 14 -16 22 -24l26 -26zM1600 64l128 64l-520 408l-177 -138c-3 -4 -8 -5 -13 -7z" />
</svg>