<svg width="1536" height="1536" xmlns="http://www.w3.org/2000/svg">
    <path d="M960 896c35 0 64 29 64 64s-29 64-64 64-64-29-64-64 29-64 64-64zm300 64l507 398c18 13 27 35 25 56-3 22-16 41-35 51l-128 64c-9 5-19 7-29 7-11 0-22-3-31-8l-690-387-110 66c-4 2-8 4-12 5 9 31 13 64 10 97-9 103-78 201-188 271-85 54-183 84-277 84-90 0-166-27-222-78-57-53-86-129-79-207 9-102 78-201 187-271 85-54 184-84 278-84 56 0 107 11 151 31 6-9 13-16 22-22l122-73-122-73c-9-6-16-13-22-22-44 20-95 31-151 31-94 0-193-30-278-84C79 742 10 643 1 541c-7-78 22-154 79-206 56-52 132-79 222-79 94 0 192 30 277 84 110 69 179 168 188 271 3 33-1 66-10 97 4 1 8 3 12 5l110 66 690-387c9-5 20-8 31-8 10 0 20 2 29 7l128 64c19 10 32 29 35 51 2 21-7 43-25 56zM579 700c61-56 23-157-85-225-61-39-132-59-192-59-46 0-87 12-113 36-61 56-23 157 85 225 61 39 131 59 192 59 46 0 87-12 113-36zm-85 745c108-68 146-169 85-225-26-24-67-36-113-36-61 0-131 20-192 59-108 68-146 169-85 225 26 24 67 36 113 36 60 0 131-20 192-59zm178-613l96 58v-11c0-23 13-44 33-56l14-8-79-47-26 26c-8 8-14 16-22 23-3 3-5 4-7 6zm224 224l96 32 736-576-128-64-768 431v113l-160 96 9 8c2 3 4 4 7 6 8 8 14 16 22 24l26 26zm704 416l128-64-520-408-177 138c-3 4-8 5-13 7z"/>
</svg>
