<svg width="1536" height="1536" xmlns="http://www.w3.org/2000/svg">
    <path d="M1500 1549c0 119-96 216-216 216s-217-97-217-216c0-120 97-217 217-217s216 97 216 217zm-233-281c-152 20-270 150-270 308 0 49 12 97 33 138-90 48-212 78-379 78-532 0-615-376-615-426 0-51 30-218 218-218s214 161 214 194c0 0 0 34-23 81 64 60 215 60 215 60 151 0 265-74 265-184 0-111-128-165-420-302-292-138-402-239-402-490C103 255 271 0 690 0s577 235 577 396-137 201-188 201c-50 0-235 17-235-261-33-37-177-37-177-37-145 0-209 110-209 177 0 68 27 152 329 252 463 154 480 355 480 540z"/>
</svg>
