<?xml version="1.0" standalone="no"?>
<svg width="1536px" height="1536px" version="1.1" xmlns="http://www.w3.org/2000/svg">
    <path transform="scale(1, -1) translate(0, -1536)" glyph-name="scribd" unicode="&#xf28a;" 

d="M1500 -13c0 -119 -96 -216 -216 -216s-217 97 -217 216c0 120 97 217 217 217s216 -97 216 -217zM1267 268c-152 -20 -270 -150 -270 -308c0 -49 12 -97 33 -138c-90 -48 -212 -78 -379 -78c-532 0 -615 376 -615 426c0 51 30 218 218 218s214 -161 214 -194
c0 0 0 -34 -23 -81c64 -60 215 -60 215 -60c151 0 265 74 265 184c0 111 -128 165 -420 302c-292 138 -402 239 -402 490c0 252 168 507 587 507s577 -235 577 -396s-137 -201 -188 -201c-50 0 -235 -17 -235 261c-33 37 -177 37 -177 37c-145 0 -209 -110 -209 -177
c0 -68 27 -152 329 -252c463 -154 480 -355 480 -540z" />
</svg>