<svg xmlns="http://www.w3.org/2000/svg" width="1536" height="1796" viewBox="0 0 1536 1796">
    <path d="M761.502 1665.972c-31.489-4.222-113.53-28.438-130.88-38.658-4.713-2.89-12.21-9.776-16.708-15.33l-7.926-9.998-6.854 4.22c-14.138 9.11-14.138 9.11-151.23-60.208-70.26-35.77-133.664-67.762-140.733-71.095-20.992-9.998-30.203-24.883-45.411-73.983-5.141-16.663-6.64-19.107-12.21-21.33-17.78-6.664-84.397-49.1-121.027-77.315-27.204-20.884-66.19-59.987-70.045-70.43-9.64-25.55-31.488-90.868-37.7-112.196C3.213 1059.662 0 1031.446 0 941.466c0-60.21.428-68.207 4.07-76.205 4.927-11.33 23.563-29.105 45.84-43.546 29.132-18.662 128.738-68.43 192.785-96.2l8.354-3.556-4.712-8.664c-2.785-4.666-15.423-23.55-28.704-41.547l-23.777-33.103-10.282-.223c-20.563-.666-28.275-3.332-48.624-15.996-20.35-12.664-20.35-12.886-38.557-40.88C39.843 494.232 4.498 418.25.857 376.26-3 330.269 23.99 246.732 52.695 215.405c8.568-9.33 17.35-15.996 28.489-21.773 15.637-7.998 16.708-8.22 39.628-8.22 19.493.222 25.919 1.11 35.987 5.332 27.204 11.109 44.34 28.883 49.053 50.21 2.356 10.666 2.142 16.886-1.285 42.88-9.211 68.652-1.714 126.86 20.778 163.298 3.855 6.22 15.422 18.218 27.846 28.438 19.493 16.663 38.129 37.77 38.129 43.768 0 6.887 4.07.888 10.924-15.552 9.211-22.662 70.046-137.97 78.186-147.967l5.783-7.554-2.356-25.772c-8.354-85.76-8.354-112.198-.429-138.636 5.356-17.996 17.137-32.66 31.917-39.103 26.347-11.775 95.107-16.885 120.384-8.887 14.78 4.888 27.847 14.442 35.344 26.217 4.712 7.332 5.998 12.664 7.069 27.327l1.285 18.44 52.48-8.22c70.902-11.11 95.322-16.22 116.1-24.44 25.704-10.441 37.272-13.107 56.55-13.107 29.132 0 45.198 5.554 104.747 36.88 136.877 71.985 176.291 97.09 219.132 139.525 23.563 23.328 28.918 31.549 49.482 73.762 16.708 34.436 18.207 36.658 37.7 56.876l20.564 20.884 22.92-6.22c27.632-7.555 36.843-7.777 49.267-1.556 9.64 4.888 21.85 20.884 21.85 28.66 0 2 4.283 9.33 9.21 15.997 7.283 9.553 24.205 35.103 38.986 58.875.214.445 5.355-1.333 11.352-3.776 13.495-5.333 27.633-5.777 38.557-.89 4.285 1.778 16.71 10.22 27.42 18.886 10.923 8.442 20.563 15.33 21.634 15.33 1.285 0 12.638 7.109 25.276 15.552 12.852 8.664 27.204 16.663 31.917 17.996 4.926 1.333 13.71 5.11 19.492 8.442 13.067 7.554 27.633 10.664 64.262 13.553 15.423 1.11 31.488 3.11 35.772 4.443 18.208 5.332 45.198 30.66 54.623 51.1 8.14 17.996 4.712 44.212-8.997 65.763-3.855 5.999-17.136 20.662-29.56 32.215-12.424 11.553-23.349 23.328-24.205 26.217-.857 3.11.642 24.439 3.427 47.322 7.711 66.874 4.284 101.533-13.067 127.527-7.925 11.998-28.703 26.217-58.478 39.992-12.638 5.998-25.276 12.886-27.847 15.33-2.57 2.443-7.925 13.996-11.78 25.55-8.783 25.994-17.35 43.99-26.134 54.432-8.354 9.553-9.854 17.107-12.638 56.654-3.642 53.543-10.282 71.095-37.272 99.089-19.92 20.662-36.415 30.215-69.83 39.769-11.14 3.332-49.483 15.774-85.255 27.994-35.558 11.997-66.19 21.995-67.903 21.995-1.714 0-5.57 4.665-8.997 10.664-14.138 25.328-34.059 48.878-63.833 75.539-48.197 42.88-116.1 83.315-162.797 97.31-8.996 2.668-16.28 6.889-24.633 14.22-42.842 38.214-87.61 56.21-154.229 62.209-28.275 2.444-41.984 2.444-63.19-.222zm59.977-59.765c13.067-1.333 31.489-4.221 41.342-6.665 17.993-4.443 49.696-16.885 49.696-19.551 0-.89-9.425-6.443-20.778-12.664-11.353-6-36.844-21.995-56.336-35.548-70.474-48.433-117.17-94.2-124.24-121.306-9.21-35.103-8.782-157.298 1.071-321.706 1.714-28.66 2.57-52.655 1.928-53.322-2.784-2.888-130.451-99.755-130.88-99.311-2.356 2.222-19.92 147.967-25.276 210.176-4.712 53.988-6.426 144.856-3.427 170.406 2.57 21.329 9.853 45.768 31.917 105.088 24.419 65.985 44.34 109.753 63.19 139.524l8.997 13.775 25.705 8.665c44.126 14.885 82.47 23.994 103.89 24.439 5.355.222 20.35-.89 33.201-2zm-261.117-92.646c-15.208-35.103-28.489-69.762-46.91-122.861-13.924-40.436-15.21-45.101-16.923-69.985-5.783-75.094 3.642-212.62 25.276-365.696 3.856-28.883 7.283-54.433 7.283-56.654-.214-2.89-11.138-12.22-33.416-28.438-29.774-21.551-49.053-32.438-57.407-32.438-5.14 0-83.754 100.422-120.384 153.744-33.844 49.322-63.619 102.422-68.331 121.75-2.142 9.554 42.413 189.514 64.262 259.498 16.493 51.989-.857 38.214 137.091 108.199 65.976 33.326 120.17 60.43 120.384 60.208.428-.222-4.713-12.441-10.925-27.327zm429.483 17.996c27.204-8.442 80.542-37.991 113.315-63.32 20.992-15.995 45.626-37.77 44.34-39.101-.642-.445-23.562 2.22-50.98 5.998-27.633 3.555-58.264 6.665-68.332 6.665-45.197-.222-82.683-18.218-99.606-47.99-7.925-14.218-21.635-50.877-30.417-81.76-6.64-23.993-7.711-30.881-9.21-64.651-1.5-29.771-3-42.213-7.284-58.653-5.998-22.218-17.779-47.99-25.49-55.322-8.569-8.22-48.625-36.214-57.836-40.435-4.927-2.222-13.066-6.665-17.993-9.776l-8.783-5.776-1.285 10.442c-3.641 31.104-6.64 123.75-6.64 206.176 0 107.532-1.5 99.09 22.277 123.084 49.053 49.323 155.728 117.085 185.717 117.752 3.641.222 11.781-1.333 18.207-3.333zm98.75-183.07c26.775-3.555 58.477-8.665 70.687-11.11 31.488-6.442 91.894-24.438 138.377-41.323 22.063-7.776 49.696-16.885 61.477-19.996 39.2-10.886 51.41-20.44 55.48-43.99 1.5-8.22 1.285-8.442-3.428-7.11-47.768 14.664-86.753 21.107-143.09 23.329-94.036 3.999-148.444-7.11-226.63-45.323-23.348-11.553-56.764-33.104-74.114-47.545-4.713-3.777-8.569-6.666-8.783-6.443-.428.444 2.356 12.22 5.784 26.216 4.926 20.218 6.64 33.326 7.925 62.208 1.928 39.103 6.212 57.32 22.063 97.09 5.57 13.997 7.283 16.44 13.067 18.218 11.996 3.555 31.274 2.666 81.184-4.221zm-856.181-50.433c-.643-2.222-9.64-37.548-19.708-78.427-10.067-40.88-19.278-76.428-20.35-78.65-4.07-7.998-2.57-30.437 3.428-48.655 17.565-54.21 74.972-143.08 163.868-253.722 10.71-13.33 19.492-24.883 19.492-25.772 0-3.11-40.913-24.217-53.765-27.55-7.283-2-19.279-5.998-26.776-8.886-13.28-5.11-13.495-5.11-21.635-1.111-4.498 2.222-28.275 13.33-53.123 24.66-75.829 34.438-138.163 67.097-159.369 83.538l-7.069 5.777 1.071 71.317c1.071 77.983 2.356 88.203 16.708 138.192 5.57 19.55 25.49 78.427 35.773 105.532 3.213 8.22 32.773 35.992 58.264 55.098 19.92 14.664 61.69 42.436 63.833 42.436.428 0 .214-1.778-.643-3.777zm1076.384-139.747c32.345-3.555 65.975-11.331 87.61-19.996 16.065-6.665 39.628-20.44 46.697-27.327 5.14-5.11 12.21-17.774 10.71-19.33-.428-.443-10.71 0-23.134 1.334-43.912 4-92.323 4.888-118.456 2.222-32.56-3.333-56.122-10.22-86.968-25.772-58.906-29.55-104.96-72.206-127.024-117.53-10.924-22.661-13.066-31.104-13.066-52.21 0-63.32 43.483-117.308 184.003-229.06 21.85-17.33 40.056-32.216 40.7-33.104.427-.89-7.284-13.997-17.138-29.327l-18.207-27.772-11.139-2.444c-10.71-2.221-13.067-1.777-43.698 8.665-40.913 13.997-52.266 16.219-104.104 21.995-23.134 2.444-48.196 6.443-55.694 8.887-16.922 5.332-39.628 21.107-56.336 38.658-19.064 20.218-75.186 92.424-90.609 116.64-18.85 29.55-19.493 33.105-11.138 52.434 3.641 8.665 12.852 27.105 20.35 41.102 7.496 13.997 16.493 33.104 20.134 42.657 6.212 15.996 8.783 25.55 22.492 88.647 7.497 33.77 14.566 48.878 32.345 68.43 30.632 33.547 75.186 60.652 131.522 80.204 48.625 16.662 104.961 20.44 180.148 11.997zm-417.702-108.198c0-.445-1.285-5.777-2.999-11.775-1.713-6-6.212-25.773-10.067-44.213-8.354-41.546-14.138-58.431-29.347-86.425-16.493-30.882-34.272-70.651-36.843-82.87-3.213-13.997.428-36.66 8.783-57.765 9.639-23.773 35.343-62.431 74.329-111.976 53.98-68.207 86.968-98.2 126.167-115.307 19.064-8.22 39.414-12.442 79.9-16.663 18.206-2 35.343-4 38.128-4.666 4.926-1.11 4.926-1.11-1.928-9.331-11.139-13.108-22.706-33.104-36.2-62.21-10.069-21.55-15.424-30.214-25.706-41.545-28.918-30.882-62.976-53.766-150.158-100.2-34.916-18.44-67.69-36.214-72.83-39.324-14.352-8.665-37.272-17.108-46.911-17.108-4.713 0-18.422 4-30.846 8.887-25.49 9.998-60.834 17.33-143.732 29.994-29.346 4.665-53.98 8.886-54.622 9.33-2.785 2.667-2.142 37.77 1.07 61.765 6.641 50.433 23.778 108.198 41.985 142.413 9.425 17.996 10.71 29.326 4.284 39.324-4.927 7.776-26.776 27.105-34.273 30.438-8.568 3.555-12.21 26.216-11.353 72.873.429 33.325 1.071 37.769 6.855 56.654 9.21 29.326 13.495 66.652 12.424 105.976l-1.071 32.215 86.539 65.54c111.815 84.649 133.236 100.2 152.729 110.865 8.782 4.888 24.205 14.886 34.273 22.218 16.28 11.997 21.42 15.107 21.42 12.886zm504.455-41.547c60.834-3.777 104.104-12.886 147.802-30.66l25.705-10.664.642-13.108c.643-12.22-2.784-47.323-4.712-49.322-.429-.667-4.713 1.11-9.21 3.332-22.493 11.998-54.195 15.552-74.973 8.443-33.845-11.553-71.545-51.322-85.468-89.536-4.713-12.886-5.355-17.996-4.713-33.992.643-15.775 1.928-21.33 7.712-34.215 8.354-18.44 24.205-39.547 38.557-51.322 5.997-4.888 10.924-9.331 11.138-9.998 0-.888-3.213-2.666-7.283-4-4.07-1.554-13.709-7.997-21.42-14.218l-14.138-11.108-18.85 16.44c-10.282 9.11-37.914 31.993-61.477 50.656-69.83 55.543-84.183 67.985-113.743 98.645-23.563 24.439-29.346 31.992-36.2 46.434-6.998 13.14-6.566 17.604-4.285 27.327 9.64 25.994 41.77 57.543 79.684 77.983 44.341 23.994 67.261 27.549 145.232 22.883zm140.947-187.736c27.205-16.218 74.972-53.543 62.55-48.878-2.358.889-9.855 2.222-16.495 2.889-14.995 1.11-28.49-4.888-38.557-17.33-6.427-7.776-7.283-8.22-14.352-6.22-18.422 5.33-43.912 23.105-51.624 36.213-4.284 7.11-4.498 8.665-1.928 15.108 1.5 4 8.14 12.442 14.566 19.107 10.925 11.109 12.21 11.775 19.922 10.664 4.712-.666 16.493-5.998 25.918-11.553zM525.875 732.402c-3.855-35.77-4.712-38.66-38.128-113.086-9.425-20.663-10.068-21.773-16.494-21.773-7.926 0-16.494-4.222-23.134-11.553-2.57-3.11-12.853-27.55-22.706-54.877-13.067-36.214-18.422-48.434-19.921-46.434-4.07 5.11-28.918 57.987-34.488 72.873-9.639 26.66-13.28 43.1-19.706 89.757-3.642 25.55-6.427 47.99-6.427 49.99 0 2.665 4.07 4.665 14.566 7.553 7.926 2.222 18.208 6.22 22.92 9.33 4.713 2.89 13.924 8.22 20.35 11.777 6.426 3.554 16.065 8.886 21.42 12.219 5.356 3.11 23.777 10.664 41.128 16.885 23.348 8.22 35.558 13.997 47.125 21.995l15.637 10.887.643-11.11c.428-6.22-.857-26.215-2.785-44.433zM210.35 568.216c11.781-6.443 27.418-21.33 27.418-26.217 0-1.11-11.138-11.553-24.633-23.106-39.628-34.436-55.48-63.985-66.618-124.64-4.927-26.881-4.927-80.425 0-114.195 3.641-24.44 3.641-25.55-.214-27.772-14.352-8.887-29.347-9.998-42.842-3.333-8.568 4.222-10.281 6.666-20.992 29.55-21.849 46.656-28.703 86.647-19.492 114.64 10.496 31.994 40.27 89.758 75.186 145.746 26.133 41.546 39.842 47.1 72.187 29.327zm309.742-38.436c19.92-5.11 27.846-7.998 36.629-13.997 2.142-1.777 1.285-5.776-4.713-21.773-11.567-29.771-22.277-69.096-28.489-102.866-6.64-36.436-7.711-79.316-3.213-124.417 2.57-27.105 2.142-69.984-.857-73.095-4.927-5.11-72.401.223-79.47 6.443-4.499 3.777-5.784 29.105-3.213 62.653-2.013 41.426 16.474 98.632 14.137 133.748-1.928 24.884 0 32.66 21.85 93.757 14.137 39.547 16.707 45.1 20.777 45.1 2.357 0 14.352-2.443 26.562-5.553z"/>
</svg>
