<?xml version="1.0" encoding="UTF-8" standalone="no"?>
<svg
   xmlns:osb="http://www.openswatchbook.org/uri/2009/osb"
   xmlns:dc="http://purl.org/dc/elements/1.1/"
   xmlns:cc="http://creativecommons.org/ns#"
   xmlns:rdf="http://www.w3.org/1999/02/22-rdf-syntax-ns#"
   xmlns:svg="http://www.w3.org/2000/svg"
   xmlns="http://www.w3.org/2000/svg"
   xmlns:xlink="http://www.w3.org/1999/xlink"
   version="1.1"
   id="svg4709"
   viewBox="0 0 1536 1792"
   height="1792"
   width="1536">
  <defs
     id="defs4711">
    <clipPath
       clipPathUnits="userSpaceOnUse"
       id="clipPath5481">
      <path
         id="path5483"
         d="M 156.57365,979.1261 17.577645,1059.26 -121.31833,978.95285 -121.21831,818.51184 17.777694,738.37796 156.67367,818.68509 Z"
         transform="matrix(0.56385847,0,0,0.55876433,69.193477,460.66794)" />
    </clipPath>
    <clipPath
       id="clipPath5481-0"
       clipPathUnits="userSpaceOnUse">
      <path
         transform="matrix(0.56385847,0,0,0.55876433,69.193477,460.66794)"
         d="M 156.57365,979.1261 17.577645,1059.26 -121.31833,978.95285 -121.21831,818.51184 17.777694,738.37796 156.67367,818.68509 Z"
         id="path5483-1" />
    </clipPath>
    <linearGradient
       id="linearGradient6103"
       osb:paint="solid">
      <stop
         style=""
         offset="0"
         id="stop6105" />
    </linearGradient>
    <linearGradient
       id="linearGradient6097"
       osb:paint="solid">
      <stop
         style=""
         offset="0"
         id="stop6099" />
    </linearGradient>
    <linearGradient
       id="linearGradient6091"
       osb:paint="solid">
      <stop
         style=""
         offset="0"
         id="stop6093" />
    </linearGradient>
    <linearGradient
       id="linearGradient6085"
       osb:paint="solid">
      <stop
         style=""
         offset="0"
         id="stop6087" />
    </linearGradient>
    <linearGradient
       id="linearGradient6073"
       osb:paint="solid">
      <stop
         style=""
         offset="0"
         id="stop6075" />
    </linearGradient>
    <linearGradient
       id="linearGradient6067"
       osb:paint="solid">
      <stop
         style=""
         offset="0"
         id="stop6069" />
    </linearGradient>
    <linearGradient
       xlink:href="#linearGradient6073"
       id="linearGradient6083"
       x1="1170"
       y1="5141.3608"
       x2="9167.3252"
       y2="5141.3608"
       gradientUnits="userSpaceOnUse" />
    <clipPath
       id="clipPath4564"
       clipPathUnits="userSpaceOnUse">
      <path
         id="path4566"
         d="M 79.181641,0 158,45.154297 157.81836,135.1543 78.818359,180 0,134.8457 0.18164062,44.845703 Z" />
    </clipPath>
  </defs>
  <metadata
     id="metadata4714">
    <rdf:RDF>
      <cc:Work
         rdf:about="">
        <dc:format>image/svg+xml</dc:format>
        <dc:type
           rdf:resource="http://purl.org/dc/dcmitype/StillImage" />
        <dc:title></dc:title>
      </cc:Work>
    </rdf:RDF>
  </metadata>
  <g
     transform="translate(0,1612)"
     id="layer3" />
  <g
     transform="translate(0,1612)"
     id="layer11" />
  <g
     id="layer1"
     transform="translate(0,739.63785)">
    <g
       id="g5428"
       transform="translate(40.973077,782.01865)">
      <path
         d=""
         id="path4592" />
    </g>
    <g
       transform="matrix(0.01262673,0,0,0.01262673,29.079103,901.13719)"
       id="g6348">
      <g
         transform="matrix(1.5140368,0,0,1.5703487,-2531.038,-2890.42)"
         id="layer5">
        <path
           d="M 39983.679,2909.6331 C 38336.574,2696.742 34045.137,1475.4193 33137.548,959.99856 c -246.505,-145.6623 -638.673,-493.011 -873.974,-773.1309 l -414.577,-504.216 -358.553,212.8913 c -739.517,459.3967 -739.517,459.3967 -7910.586,-3036.49966 -3675.174,-1803.9722 -6991.793,-3417.4623 -7361.551,-3585.5343 -1098.07,-504.216 -1579.877,-1254.937 -2375.418,-3731.197 -268.914,-840.36 -347.348,-963.613 -638.673,-1075.661 -929.997,-336.144 -4414.6892,-2476.26 -6330.7092,-3899.269 -1423.0092,-1053.25 -3462.2819,-3025.295 -3663.9683,-3551.919 -504.2159,-1288.552 -1647.1051,-4582.762 -1972.0442,-5658.423 -918.79332,-3025.296 -1086.86513,-4448.303 -1086.86513,-8986.246 0,-3036.5 22.40948,-3439.873 212.89111,-3843.245 257.71017,-571.444 1232.52752,-1467.83 2397.82632,-2196.141 1523.8522,-941.202 6734.0824,-3451.077 10084.3164,-4851.676 l 436.987,-179.276 -246.506,-436.988 c -145.662,-235.3 -806.745,-1187.709 -1501.442,-2095.296 l -1243.732,-1669.515 -537.8307,-11.205 c -1075.6604,-33.614 -1479.033,-168.071 -2543.4887,-806.746 C 6145.195,-50357.967 6145.195,-50369.171 5192.7873,-51780.976 2234.7212,-56184.461 385.92975,-60016.501 195.44835,-62134.207 -6.2380091,-64453.6 1405.5662,-68666.604 2907.0089,-70246.48 c 448.1919,-470.602 907.5885,-806.746 1490.2378,-1098.069 817.9502,-403.373 873.9742,-414.578 2072.8873,-414.578 1019.6365,11.205 1355.7803,56.022 1882.4058,268.915 1423.0091,560.24 2319.3922,1456.624 2565.8972,2532.284 123.254,537.83 112.049,851.564 -67.228,2162.526 -481.806,3462.281 -89.638,6397.938 1086.865,8235.523 201.687,313.735 806.745,918.795 1456.624,1434.215 1019.636,840.36 1994.453,1904.816 1994.453,2207.346 0,347.348 212.892,44.819 571.445,-784.337 481.807,-1142.889 3663.968,-6958.179 4089.75,-7462.394 l 302.53,-380.962 -123.252,-1299.757 c -436.988,-4325.051 -436.988,-5658.423 -22.41,-6991.793 280.12,-907.589 896.384,-1647.104 1669.514,-1972.044 1378.19,-593.853 4974.93,-851.564 6297.096,-448.192 773.13,246.506 1456.623,728.312 1848.792,1322.166 246.504,369.757 313.734,638.674 369.758,1378.189 l 67.228,929.999 2745.176,-414.577 c 3708.787,-560.24 4986.133,-817.95 6072.998,-1232.527 1344.578,-526.627 1949.635,-661.084 2958.067,-661.084 1523.852,0 2364.212,280.12 5479.145,1859.996 7159.865,3630.355 9221.547,4896.497 11462.507,7036.612 1232.528,1176.503 1512.647,1591.082 2588.307,3719.993 873.975,1736.742 952.409,1848.791 1972.044,2868.428 l 1075.661,1053.25 1198.913,-313.736 c 1445.419,-380.961 1927.227,-392.166 2577.104,-78.432 504.216,246.504 1142.889,1053.252 1142.889,1445.418 0,100.844 224.097,470.603 481.806,806.746 380.963,481.807 1266.141,1770.358 2039.273,2969.271 11.205,22.409 280.119,-67.228 593.854,-190.481 705.903,-268.915 1445.418,-291.325 2016.863,-44.819 224.097,89.638 873.974,515.42 1434.214,952.408 571.444,425.782 1075.661,773.13 1131.685,773.13 67.228,0 661.082,358.553 1322.165,784.336 672.288,436.987 1423.01,840.359 1669.515,907.589 257.71,67.228 717.106,257.71 1019.637,425.782 683.491,380.963 1445.418,537.83 3361.439,683.492 806.744,56.024 1647.104,156.868 1871.201,224.096 952.406,268.914 2364.211,1546.262 2857.222,2577.104 425.783,907.586 246.506,2229.753 -470.602,3316.618 -201.686,302.531 -896.383,1042.047 -1546.262,1624.697 -649.876,582.649 -1221.322,1176.503 -1266.142,1322.166 -44.819,156.866 33.615,1232.527 179.277,2386.621 403.373,3372.643 224.096,5120.591 -683.493,6431.551 -414.576,605.061 -1501.442,1322.167 -3058.909,2016.865 -661.082,302.53 -1322.166,649.878 -1456.622,773.131 -134.459,123.253 -414.578,705.902 -616.265,1288.551 -459.396,1310.961 -907.588,2218.55 -1366.985,2745.175 -436.987,481.806 -515.421,862.77 -661.083,2857.224 -190.482,2700.355 -537.83,3585.534 -1949.634,4997.337 -1042.045,1042.047 -1904.814,1523.853 -3652.764,2005.66 -582.649,168.072 -2588.308,795.541 -4459.508,1411.804 -1859.997,605.059 -3462.283,1109.275 -3551.921,1109.275 -89.638,0 -291.323,235.301 -470.601,537.83 -739.517,1277.347 -1781.562,2465.055 -3339.03,3809.6305 -2521.078,2162.5255 -6072.999,4201.7984 -8515.645,4907.70056 -470.601,134.4576 -851.564,347.3487 -1288.551,717.1069 C 49115.588,1710.72 46773.785,2618.3085 43289.094,2920.8379 c -1479.034,123.2528 -2196.14,123.2528 -3305.415,-11.2048 z m 3137.343,-3014.09014 c 683.492,-67.2288 1647.105,-212.8913 2162.526,-336.1439 941.202,-224.0959 2599.512,-851.56446 2599.512,-986.02206 0,-44.8191 -493.011,-324.9391 -1086.865,-638.6733 -593.854,-302.5296 -1927.224,-1109.2748 -2946.861,-1792.7674 -3686.378,-2442.6453 -6129.024,-4750.8333 -6498.782,-6117.8183 -481.807,-1770.357 -459.397,-7932.996 56.024,-16224.544 89.638,-1445.419 134.457,-2655.537 100.842,-2689.152 -145.66,-145.663 -6823.719,-5030.952 -6846.13,-5008.543 -123.252,112.048 -1042.046,7462.394 -1322.166,10599.736 -246.505,2722.766 -336.144,7305.528 -179.276,8594.079 134.457,1075.661 515.42,2308.188 1669.514,5299.868 1277.347,3327.825 2319.394,5535.1695 3305.416,7036.6121 l 470.601,694.6974 1344.575,436.987 c 2308.189,750.72136 4313.848,1210.117964 5434.326,1232.5275641 280.12,11.2048 1064.455,-44.8192001 1736.744,-100.8431041 z M 29462.375,-4776.857 c -795.54,-1770.357 -1490.238,-3518.305 -2453.85,-6196.252 -728.312,-2039.272 -795.54,-2274.574 -885.179,-3529.51 -302.529,-3787.222 190.482,-10722.99 1322.166,-18443.095 201.687,-1456.623 380.963,-2745.174 380.963,-2857.222 -11.203,-145.663 -582.649,-616.264 -1747.947,-1434.215 -1557.468,-1086.865 -2565.899,-1635.9 -3002.887,-1635.9 -268.915,0 -4381.074,5064.568 -6297.094,7753.719 -1770.357,2487.465 -3327.825,5165.411 -3574.331,6140.228 -112.048,481.807 2218.55,9557.692 3361.439,13087.202 862.77,2621.923 -44.819,1927.225 7171.07,5456.736 3451.077,1680.7186 6285.891,3047.7037 6297.095,3036.499 22.41,-11.2048 -246.506,-627.4686 -571.445,-1378.19 z m 22465.617,907.5885 c 1423.008,-425.7822 4213.004,-1916.0201 5927.337,-3193.3665 1098.07,-806.745 2386.623,-1904.815 2319.392,-1972.044 -33.614,-22.41 -1232.527,112.048 -2666.74,302.529 -1445.419,179.277 -3047.705,336.144 -3574.33,336.144 -2364.213,-11.204 -4325.053,-918.793 -5210.231,-2420.235 -414.577,-717.108 -1131.685,-2565.899 -1591.081,-4123.366 -347.349,-1210.117 -403.373,-1557.466 -481.806,-3260.595 -78.432,-1501.443 -156.868,-2128.912 -380.964,-2958.066 -313.733,-1120.48 -929.997,-2420.236 -1333.37,-2789.995 -448.192,-414.577 -2543.489,-1826.381 -3025.295,-2039.272 -257.71,-112.048 -683.493,-336.144 -941.203,-493.011 l -459.396,-291.325 -67.229,526.625 c -190.482,1568.671 -347.348,6241.072 -347.348,10398.051 0,5423.122 -78.435,4997.339 1165.298,6207.457 2565.897,2487.465 8145.887,5904.927 9714.558,5938.5414 190.481,11.2048 616.264,-67.2287 952.408,-168.0719 z m 5165.411,-9232.7515 c 1400.599,-179.277 3058.909,-436.987 3697.582,-560.24 1647.106,-324.938 4806.858,-1232.527 7238.298,-2084.092 1154.094,-392.168 2599.513,-851.564 3215.777,-1008.433 2050.478,-549.033 2689.151,-1030.84 2902.041,-2218.548 78.436,-414.577 67.23,-425.783 -179.276,-358.554 -2498.669,739.517 -4537.943,1064.456 -7484.804,1176.504 -4918.905,201.685 -7764.923,-358.553 -11854.673,-2285.778 -1221.323,-582.651 -2969.272,-1669.515 -3876.86,-2397.827 -246.504,-190.481 -448.192,-336.143 -459.397,-324.938 -22.409,22.409 123.253,616.264 302.529,1322.165 257.711,1019.637 347.349,1680.719 414.58,3137.343 100.841,1972.044 324.937,2890.838 1154.092,4896.496 291.325,705.902 380.964,829.155 683.493,918.793 627.469,179.277 1635.9,134.458 4246.618,-212.891 z m -44785.57,-2543.488 c -33.614,-112.048 -504.216,-1893.611 -1030.841,-3955.293 -526.626,-2061.683 -1008.432,-3854.45 -1064.456,-3966.498 -212.8913,-403.373 -134.458,-1535.057 179.276,-2453.851 918.794,-2733.97 3921.68,-7215.889 8571.67,-12795.877 560.239,-672.288 1019.636,-1254.937 1019.636,-1299.756 0,-156.867 -2140.116,-1221.324 -2812.404,-1389.396 -380.963,-100.842 -1008.431,-302.528 -1400.599,-448.19 -694.698,-257.711 -705.902,-257.711 -1131.685,-56.026 -235.301,112.05 -1479.032,672.288 -2778.789,1243.733 -3966.4979,1736.745 -7227.0935,3383.849 -8336.3683,4213.004 l -369.7583,291.325 56.0241,3596.739 c 56.0239,3932.884 123.2527,4448.305 873.974,6969.384 291.3246,986.022 1333.3707,3955.293 1871.201,5322.277 168.0719,414.578 1714.3337,1815.178 3047.7044,2778.79 1042.0461,739.517 3226.9811,2140.116 3339.0291,2140.116 22.41,0 11.204,-89.639 -33.614,-190.481 z m 56304.101,-7047.817 c 1691.923,-179.277 3451.076,-571.445 4582.761,-1008.432 840.359,-336.143 2072.887,-1030.842 2442.644,-1378.19 268.916,-257.71 638.675,-896.383 560.24,-974.817 -22.409,-22.41 -560.24,0 -1210.117,67.229 -2296.983,201.686 -4829.267,246.505 -6196.253,112.048 -1703.128,-168.072 -2935.655,-515.421 -4549.147,-1299.757 -3081.319,-1490.238 -5490.35,-3641.559 -6644.444,-5927.336 -571.445,-1142.89 -683.493,-1568.674 -683.493,-2633.128 0,-3193.367 2274.574,-5916.132 9624.92,-11552.144 1142.89,-873.975 2095.298,-1624.696 2128.912,-1669.515 22.41,-44.819 -380.964,-705.903 -896.382,-1479.033 l -952.41,-1400.6 -582.649,-123.253 c -560.24,-112.048 -683.492,-89.638 -2285.778,436.988 -2140.116,705.901 -2733.971,817.949 -5445.531,1109.274 -1210.118,123.253 -2521.08,324.94 -2913.248,448.192 -885.178,268.916 -2072.887,1064.456 -2946.861,1949.635 -997.226,1019.636 -3932.883,4661.195 -4739.628,5882.517 -986.023,1490.237 -1019.637,1669.516 -582.65,2644.332 190.482,436.987 672.288,1366.985 1064.456,2072.888 392.168,705.902 862.769,1669.515 1053.25,2151.321 324.94,806.745 459.397,1288.552 1176.505,4470.713 392.169,1703.13 761.925,2465.056 1691.923,3451.077 1602.287,1691.924 3932.884,3058.909 6879.745,4044.931 2543.489,840.36 5490.352,1030.842 9423.235,605.06 z m -21849.352,-5456.736 c 0,-22.409 -67.231,-291.324 -156.869,-593.854 -89.638,-302.53 -324.939,-1299.756 -526.625,-2229.754 -436.987,-2095.298 -739.516,-2946.861 -1535.057,-4358.666 -862.769,-1557.467 -1792.767,-3563.125 -1927.226,-4179.389 -168.072,-705.902 22.411,-1848.791 459.397,-2913.247 504.216,-1198.914 1848.792,-3148.547 3888.065,-5647.217 2823.608,-3439.873 4549.147,-4952.52 6599.625,-5815.289 997.226,-414.577 2061.682,-627.469 4179.389,-840.36 952.407,-100.844 1848.791,-201.686 1994.455,-235.301 257.709,-56.024 257.709,-56.024 -100.845,-470.601 -582.649,-661.084 -1187.708,-1669.515 -1893.61,-3137.343 -526.626,-1086.866 -806.746,-1523.853 -1344.576,-2095.297 -1512.648,-1557.466 -3294.21,-2711.56 -7854.562,-5053.363 -1826.382,-929.999 -3540.716,-1826.382 -3809.631,-1983.249 -750.721,-436.987 -1949.635,-862.769 -2453.85,-862.769 -246.506,0 -963.612,201.686 -1613.49,448.192 -1333.372,504.216 -3182.163,873.974 -7518.418,1512.647 -1535.058,235.3 -2823.61,448.192 -2857.224,470.602 -145.662,134.457 -112.048,1904.815 56.024,3114.932 347.349,2543.488 1243.732,5456.737 2196.14,7182.275 493.012,907.589 560.24,1479.034 224.096,1983.249 -257.711,392.168 -1400.599,1366.985 -1792.767,1535.057 -448.191,179.277 -638.673,1322.166 -593.855,3675.173 22.41,1680.719 56.024,1904.815 358.555,2857.223 481.806,1479.034 705.901,3361.439 649.878,5344.688 l -56.025,1624.695 4526.738,3305.415 c 5848.904,4269.027 6969.384,5053.363 7989.02,5591.193 459.396,246.505 1266.141,750.721 1792.767,1120.48 851.564,605.058 1120.481,761.926 1120.481,649.878 z m 26387.293,-2095.297 c 3182.163,-190.481 5445.531,-649.878 7731.31,-1546.261 l 1344.575,-537.831 33.616,-661.082 c 33.612,-616.265 -145.663,-2386.622 -246.508,-2487.466 -22.409,-33.614 -246.505,56.024 -481.806,168.072 -1176.503,605.06 -2834.813,784.336 -3921.678,425.783 -1770.358,-582.649 -3742.402,-2588.308 -4470.714,-4515.533 -246.505,-649.878 -280.119,-907.59 -246.505,-1714.334 33.614,-795.541 100.843,-1075.661 403.373,-1725.539 436.986,-929.998 1266.143,-1994.454 2016.863,-2588.307 313.734,-246.506 571.445,-470.602 582.649,-504.217 0,-44.818 -168.072,-134.457 -380.963,-201.685 -212.891,-78.435 -717.107,-403.373 -1120.478,-717.108 l -739.518,-560.239 -986.022,829.155 c -537.831,459.396 -1983.249,1613.49 -3215.775,2554.694 -3652.765,2801.198 -4403.486,3428.667 -5949.747,4974.928 -1232.529,1232.529 -1535.059,1613.491 -1893.611,2341.803 -366.016,662.742 -343.397,887.816 -224.097,1378.19 504.216,1310.961 2184.935,2902.042 4168.185,3932.883 2319.392,1210.118 3518.305,1389.395 7596.851,1154.094 z m 7372.755,-9468.052 c 1423.01,-817.951 3921.68,-2700.356 3271.803,-2465.056 -123.255,44.819 -515.422,112.049 -862.769,145.663 -784.337,56.024 -1490.239,-246.506 -2016.865,-873.974 -336.145,-392.168 -380.962,-414.578 -750.722,-313.734 -963.613,268.914 -2296.983,1165.298 -2700.355,1826.381 -224.097,358.554 -235.301,436.987 -100.843,761.927 78.433,201.686 425.782,627.467 761.926,963.611 571.444,560.239 638.673,593.855 1042.047,537.831 246.504,-33.615 862.769,-302.53 1355.778,-582.649 z m -52864.227,-4459.509 c -201.685,-1803.972 -246.505,-1949.635 -1994.454,-5703.242 -493.01,-1042.046 -526.625,-1098.07 -862.769,-1098.07 -414.576,0 -862.769,-212.89 -1210.118,-582.649 -134.457,-156.867 -672.288,-1389.396 -1187.709,-2767.585 -683.491,-1826.382 -963.611,-2442.645 -1042.045,-2341.802 -212.89,257.711 -1512.648,2924.452 -1803.972,3675.173 -504.216,1344.576 -694.697,2173.73 -1030.841,4526.738 -190.482,1288.552 -336.145,2420.235 -336.145,2521.078 0,134.458 212.892,235.301 761.926,380.964 414.579,112.048 952.408,313.733 1198.914,470.602 246.506,145.661 728.312,414.577 1064.456,593.853 336.144,179.277 840.359,448.192 1120.479,616.264 280.12,156.868 1243.733,537.83 2151.321,851.565 1221.323,414.577 1859.996,705.902 2465.056,1109.275 l 817.949,549.035 33.615,-560.24 c 22.409,-313.735 -44.819,-1322.166 -145.663,-2240.959 z m -16504.664,-8280.344 c 616.263,-324.941 1434.214,-1075.661 1434.214,-1322.166 0,-56.024 -582.65,-582.649 -1288.552,-1165.3 -2072.8872,-1736.743 -2902.0419,-3226.981 -3484.6913,-6285.89 -257.7104,-1355.78 -257.7104,-4056.136 0,-5759.265 190.4814,-1232.528 190.4814,-1288.552 -11.2049,-1400.6 -750.7213,-448.192 -1535.0571,-504.216 -2240.9592,-168.072 -448.1919,212.892 -537.8302,336.144 -1098.07,1490.238 -1142.8892,2353.007 -1501.4427,4369.87 -1019.6363,5781.675 549.0348,1613.491 2106.5014,4526.738 3932.8832,7350.346 1366.9851,2095.297 2084.0921,2375.417 3776.0165,1479.034 z m 16202.135,-1938.43 c 1042.046,-257.712 1456.623,-403.373 1916.02,-705.902 112.048,-89.639 67.228,-291.325 -246.505,-1098.07 -605.06,-1501.443 -1165.3,-3484.692 -1490.238,-5187.821 -347.349,-1837.587 -403.373,-4000.112 -168.072,-6274.686 134.457,-1366.985 112.048,-3529.51 -44.82,-3686.377 -257.71,-257.711 -3787.221,11.204 -4156.979,324.938 -235.3,190.482 -302.53,1467.829 -168.072,3159.752 -105.272,2089.23 861.739,4974.256 739.517,6745.288 -100.843,1254.938 0,1647.106 1142.889,4728.424 739.516,1994.454 873.975,2274.574 1086.866,2274.574 123.253,0 750.721,-123.253 1389.394,-280.12 z"
           id="path4588" />
      </g>
    </g>
  </g>
  <g
     transform="translate(0,1612)"
     id="layer7" />
</svg>
