<?xml version="1.0" standalone="no"?>
<svg width="1536px" height="1536px" version="1.1" xmlns="http://www.w3.org/2000/svg">
    <path transform="scale(1, -1) translate(0, -1536)" glyph-name="search" unicode="&#xf002;" horiz-adv-x="1664" 

d="M1152 704c0 247 -201 448 -448 448s-448 -201 -448 -448s201 -448 448 -448s448 201 448 448zM1664 -128c0 -70 -58 -128 -128 -128c-34 0 -67 14 -90 38l-343 342c-117 -81 -257 -124 -399 -124c-389 0 -704 315 -704 704s315 704 704 704s704 -315 704 -704
c0 -142 -43 -282 -124 -399l343 -343c23 -23 37 -56 37 -90z" />
</svg>