<?xml version="1.0" standalone="no"?>
<svg width="1536px" height="1536px" version="1.1" xmlns="http://www.w3.org/2000/svg">
    <path transform="scale(1, -1) translate(0, -1536)" glyph-name="search_plus" unicode="&#xf00e;" horiz-adv-x="1664" 

d="M1024 736v-64c0 -17 -15 -32 -32 -32h-224v-224c0 -17 -15 -32 -32 -32h-64c-17 0 -32 15 -32 32v224h-224c-17 0 -32 15 -32 32v64c0 17 15 32 32 32h224v224c0 17 15 32 32 32h64c17 0 32 -15 32 -32v-224h224c17 0 32 -15 32 -32zM1152 704c0 247 -201 448 -448 448
s-448 -201 -448 -448s201 -448 448 -448s448 201 448 448zM1664 -128c0 -71 -57 -128 -128 -128c-34 0 -67 14 -90 38l-343 342c-117 -81 -257 -124 -399 -124c-389 0 -704 315 -704 704s315 704 704 704s704 -315 704 -704c0 -142 -43 -282 -124 -399l343 -343
c23 -23 37 -56 37 -90z" />
</svg>