<svg width="1536" height="1536" xmlns="http://www.w3.org/2000/svg">
    <path d="M1500 1371V638c0-28-23-51-50-51h-93c-27 0-50 23-50 51v733c0 27 23 50 50 50h93c27 0 50-23 50-50zm-284 0V840c0-27-23-50-50-50h-101c-27 0-50 23-50 50v531c0 27 23 50 50 50h101c27 0 50-23 50-50zm-292 0V942c0-27-23-50-50-50H773c-27 0-50 23-50 50v429c0 27 23 50 50 50h101c27 0 50-23 50-50zm-292 0v-362c0-27-23-50-50-50H481c-27 0-50 23-50 50v362c0 27 23 50 50 50h101c27 0 50-23 50-50zm1416-146c0 222-181 402-402 402H402c-221 0-402-180-402-402 0-155 91-297 231-363-7-24-10-49-10-73 0-151 123-274 274-274 66 0 130 24 180 67 60-244 280-417 532-417 302 0 548 246 548 548 0 41-4 82-14 122 180 44 307 206 307 390z"/>
</svg>
