<?xml version="1.0" standalone="no"?>
<svg width="1536px" height="1536px" version="1.1" xmlns="http://www.w3.org/2000/svg">
    <path transform="scale(1, -1) translate(0, -1536)" glyph-name="sellsy" unicode="&#xf213;" horiz-adv-x="2048" 

d="M1500 165v733c0 28 -23 51 -50 51h-93c-27 0 -50 -23 -50 -51v-733c0 -27 23 -50 50 -50h93c27 0 50 23 50 50zM1216 165v531c0 27 -23 50 -50 50h-101c-27 0 -50 -23 -50 -50v-531c0 -27 23 -50 50 -50h101c27 0 50 23 50 50zM924 165v429c0 27 -23 50 -50 50h-101
c-27 0 -50 -23 -50 -50v-429c0 -27 23 -50 50 -50h101c27 0 50 23 50 50zM632 165v362c0 27 -23 50 -50 50h-101c-27 0 -50 -23 -50 -50v-362c0 -27 23 -50 50 -50h101c27 0 50 23 50 50zM2048 311c0 -222 -181 -402 -402 -402h-1244c-221 0 -402 180 -402 402
c0 155 91 297 231 363c-7 24 -10 49 -10 73c0 151 123 274 274 274c66 0 130 -24 180 -67c60 244 280 417 532 417c302 0 548 -246 548 -548c0 -41 -4 -82 -14 -122c180 -44 307 -206 307 -390z" />
</svg>