<?xml version="1.0" standalone="no"?>
<svg width="1536px" height="1536px" version="1.1" xmlns="http://www.w3.org/2000/svg">
    <path transform="scale(1, -1) translate(0, -1536)" glyph-name="server" unicode="&#xf233;" horiz-adv-x="1792" 

d="M128 128h1024v128h-1024v-128zM128 640h1024v128h-1024v-128zM1696 192c0 53 -43 96 -96 96s-96 -43 -96 -96s43 -96 96 -96s96 43 96 96zM128 1152h1024v128h-1024v-128zM1696 704c0 53 -43 96 -96 96s-96 -43 -96 -96s43 -96 96 -96s96 43 96 96zM1696 1216
c0 53 -43 96 -96 96s-96 -43 -96 -96s43 -96 96 -96s96 43 96 96zM1792 384v-384h-1792v384h1792zM1792 896v-384h-1792v384h1792zM1792 1408v-384h-1792v384h1792z" />
</svg>