<svg xmlns="http://www.w3.org/2000/svg" width="1536" height="1792" viewBox="0 0 1536 1792">
    <path d="M859.152 128c-113.27.002-224.206 46.45-290.304 135.078-57.167 76.64-77.984 173.904-83.584 282.842-125.178 2.571-230.643 16.971-317.171 60.449-89.6 45.02-156.602 137.468-164.93 237.318H1.672c-.31 2.453.263 5.003 0 7.463 0 1.027-.722 1.956-.746 2.985h.746c-9.146 94.137 19.193 193.098 86.569 258.961 41.634 40.704 93.717 66.637 150.75 85.823l-20.896 58.21-1.493 2.985-.746 2.985c-24.452 79.475-23.598 169.424 20.15 242.543 43.754 73.12 117.331 115.903 199.257 141.048 28.164 8.79 58.91 5.224 89.555 5.224 98.003.001 191.49-26.577 266.423-83.584 33.147-25.215 61.319-56.862 85.823-91.047 65.387 61.038 144.579 114.829 238.811 161.944 7.686 4.799 16.043 7.177 24.628 9.702 77.255 18.92 152.77 22.76 224.632-4.478 71.538-27.115 127.818-90.503 153.734-160.451h.747v-.747c31.494-85.522 25.68-182.883-11.195-267.17-8.58-19.615-23.014-37.266-34.329-55.97 19.076-8.443 37.67-17.913 55.225-30.599 75.12-54.284 106.674-153.784 99.256-244.781l-2.192-20.15c-5.985-92.148-62.669-178.545-140.302-228.363-76.343-48.99-172.608-76.359-288.066-96.27-14.202-96.228-34.537-182.488-74.628-251.499C1069.169 195.13 966.614 128.002 859.199 128zm.094 119.592c135.976 0 214.228 134.68 234.753 404.067h55.785c242.448 37.2 362.415 114.194 359.849 230.928 20.525 137.26-67.358 200.752-263.625 190.49 150.087 132.127 203.95 255.289 161.617 369.457-33.353 91.079-112.864 121.228-238.578 90.44-138.542-69.27-236.683-148.828-294.41-238.624H838.07c-53.878 159.067-158.408 238.625-313.627 238.625h-53.872c-129.562-39.767-176.406-118.02-140.488-234.754l67.352-186.664h-19.217c-189.853-26.939-275.8-110.95-257.841-252.058 5.13-129.562 135.31-194.99 390.587-196.273 70.553-7.697 100.073-30.151 88.528-67.352 0-232.186 86.576-348.282 259.754-348.282zm-40.58 190.91c-47.278-3.083-70.28 60.942-69.078 192.028l-3.87 107.744c-3.85 53.878-21.174 80.786-51.961 80.786l-304.018 17.35c-47.463 1.284-71.177 20.498-71.177 57.698 0 35.918 25.649 55.178 76.961 57.744 178.308-8.98 261.69 3.215 250.145 36.568l-53.872 115.44c-91.079 137.26-113.533 218.077-67.352 242.45 61.574 37.201 148.78-59.005 261.666-288.625 26.938-24.374 49.393-24.374 67.352 0 79.533 84.664 144.961 153.916 196.273 207.793 52.595 53.878 94.938 69.943 127.008 48.135 38.484-41.049 28.224-85.328-30.784-132.791-57.726-48.747-123.783-115.434-198.185-200.098-7.697-28.222-5.808-42.352 5.737-42.352 251.428 16.676 372.024.657 361.761-48.089 7.697-53.877-101.334-80.831-327.106-80.831-34.635 6.414-62.849-1.91-84.656-25.001V595.874c0-105.19-25.02-157.163-75.049-155.88a58.818 58.818 0 0 0-9.794-1.493z" color="#000"/>
</svg>
