<svg xmlns="http://www.w3.org/2000/svg" width="1536" height="1792" viewBox="0 0 1536 1792">
    <path d="M877.745 128c161.027 0 253.695 159.492 278.001 478.507h66.062c287.114 44.053 429.182 135.232 426.143 273.471 24.306 162.547-79.767 237.736-312.192 225.584 177.737 156.468 241.523 302.32 191.392 437.52-39.498 107.859-133.657 143.562-282.53 107.102-164.066-82.031-280.287-176.246-348.65-282.585h-43.303c-63.804 188.371-187.59 282.586-371.405 282.586h-63.797c-153.43-47.093-208.905-139.762-166.37-278.002l79.76-221.052H308.1C83.27 1119.229-18.51 1019.74 2.757 852.637 8.832 699.206 162.995 621.724 465.3 620.205c83.551-9.115 118.51-35.706 104.838-79.76C570.138 265.484 672.663 128 877.745 128zM829.69 354.08c-55.987-3.65-83.227 72.17-81.804 227.405l-4.582 127.594c-4.56 63.804-25.075 95.669-61.534 95.669l-360.026 20.546c-56.207 1.52-84.29 24.274-84.29 68.328 0 42.535 30.374 65.343 91.14 68.382 211.156-10.635 309.9 3.807 296.228 43.304l-63.797 136.708c-107.858 162.547-134.449 258.252-79.76 287.115 72.917 44.055 176.19-69.875 309.872-341.797 31.9-28.864 58.492-28.864 79.76 0 94.185 100.261 171.667 182.271 232.432 246.074 62.284 63.804 112.428 82.828 150.406 57.003 45.574-48.612 33.424-101.048-36.455-157.255-68.361-57.727-146.587-136.7-234.696-236.961-9.115-33.422-6.878-50.155 6.794-50.155 297.747 19.748 440.56.778 428.407-56.948 9.115-63.803-120.003-95.722-387.368-95.722-41.016 7.595-74.428-2.262-100.252-29.607V540.445c0-124.569-29.63-186.117-88.875-184.597a69.654 69.654 0 0 0-11.598-1.768z" color="#000"/>
</svg>
