<?xml version="1.0" standalone="no"?>
<svg width="1536px" height="1536px" version="1.1" xmlns="http://www.w3.org/2000/svg">
    <path transform="scale(1, -1) translate(0, -1536)" glyph-name="share_alt_square" unicode="&#xf1e1;" 

d="M1280 341c0 118 -96 214 -213 214c-56 0 -107 -22 -145 -58l-241 120c1 8 2 15 2 23s-1 15 -2 23l241 120c38 -36 89 -58 145 -58c117 0 213 96 213 214c0 117 -96 213 -213 213c-118 0 -214 -96 -214 -213c0 -8 1 -15 2 -23l-241 -120c-38 35 -89 57 -145 57
c-117 0 -213 -95 -213 -213s96 -213 213 -213c56 0 107 22 145 57l241 -120c-1 -8 -2 -15 -2 -23c0 -117 96 -213 214 -213c117 0 213 96 213 213zM1536 1120v-960c0 -159 -129 -288 -288 -288h-960c-159 0 -288 129 -288 288v960c0 159 129 288 288 288h960
c159 0 288 -129 288 -288z" />
</svg>