<?xml version="1.0" standalone="no"?>
<svg width="1536px" height="1536px" version="1.1" xmlns="http://www.w3.org/2000/svg">
    <path transform="scale(1, -1) translate(0, -1536)" glyph-name="share_alt" unicode="&#xf1e0;" 

d="M1216 512c177 0 320 -143 320 -320s-143 -320 -320 -320s-320 143 -320 320c0 11 1 23 2 34l-360 180c-57 -53 -134 -86 -218 -86c-177 0 -320 143 -320 320s143 320 320 320c84 0 161 -33 218 -86l360 180c-1 11 -2 23 -2 34c0 177 143 320 320 320s320 -143 320 -320
s-143 -320 -320 -320c-84 0 -161 33 -218 86l-360 -180c1 -11 2 -23 2 -34s-1 -23 -2 -34l360 -180c57 53 134 86 218 86z" />
</svg>