<?xml version="1.0" standalone="no"?>
<svg width="1536px" height="1536px" version="1.1" xmlns="http://www.w3.org/2000/svg">
    <path transform="scale(1, -1) translate(0, -1536)" glyph-name="uniF1E0" unicode="&#xf064;" horiz-adv-x="1792" 

d="M1792 896c0 -17 -7 -33 -19 -45l-512 -512c-12 -12 -28 -19 -45 -19c-35 0 -64 29 -64 64v256h-224c-431 0 -714 -83 -714 -560c0 -41 2 -82 5 -123c1 -16 5 -34 5 -50c0 -19 -12 -35 -32 -35c-14 0 -21 7 -28 17c-15 21 -26 53 -37 76c-57 128 -127 311 -127 451
c0 112 11 227 53 333c139 345 547 403 875 403h224v256c0 35 29 64 64 64c17 0 33 -7 45 -19l512 -512c12 -12 19 -28 19 -45z" />
</svg>