<?xml version="1.0" standalone="no"?>
<svg width="1536px" height="1536px" version="1.1" xmlns="http://www.w3.org/2000/svg">
    <path transform="scale(1, -1) translate(0, -1536)" glyph-name="share_square_o" unicode="&#xf045;" horiz-adv-x="1664" 

d="M1408 547v-259c0 -159 -129 -288 -288 -288h-832c-159 0 -288 129 -288 288v832c0 159 129 288 288 288h255v0v0c17 0 32 -14 32 -32c0 -16 -11 -29 -26 -32c-50 -17 -95 -37 -133 -60c-5 -2 -10 -4 -16 -4h-112c-88 0 -160 -72 -160 -160v-832c0 -88 72 -160 160 -160
h832c88 0 160 72 160 160v214c0 12 7 23 18 29c20 9 38 22 54 37c9 9 23 13 35 8s21 -16 21 -29zM1645 1043l-384 -384c-12 -13 -28 -19 -45 -19c-8 0 -17 2 -25 5c-23 10 -39 33 -39 59v192h-160c-220 0 -360 -42 -438 -131c-81 -93 -105 -243 -74 -473
c2 -14 -7 -28 -20 -34c-4 -1 -8 -2 -12 -2c-10 0 -20 5 -26 13c-7 10 -166 235 -166 435c0 268 84 576 736 576h160v192c0 26 16 49 39 59c8 3 17 5 25 5c17 0 33 -7 45 -19l384 -384c25 -25 25 -65 0 -90z" />
</svg>