<svg width="1536" height="1536" xmlns="http://www.w3.org/2000/svg">
    <path d="M1280 1195c0-118-96-214-213-214-56 0-107 22-145 58L681 919c1-8 2-15 2-23s-1-15-2-23l241-120c38 36 89 58 145 58 117 0 213-96 213-214 0-117-96-213-213-213-118 0-214 96-214 213 0 8 1 15 2 23L614 740c-38-35-89-57-145-57-117 0-213 95-213 213s96 213 213 213c56 0 107-22 145-57l241 120c-1 8-2 15-2 23 0 117 96 213 214 213 117 0 213-96 213-213zm256-779v960c0 159-129 288-288 288H288c-159 0-288-129-288-288V416c0-159 129-288 288-288h960c159 0 288 129 288 288z"/>
</svg>
