<svg width="1536" height="1536" xmlns="http://www.w3.org/2000/svg">
    <path d="M1408 989v259c0 159-129 288-288 288H288c-159 0-288-129-288-288V416c0-159 129-288 288-288h255c17 0 32 14 32 32 0 16-11 29-26 32-50 17-95 37-133 60-5 2-10 4-16 4H288c-88 0-160 72-160 160v832c0 88 72 160 160 160h832c88 0 160-72 160-160v-214c0-12 7-23 18-29 20-9 38-22 54-37 9-9 23-13 35-8s21 16 21 29zm237-496l-384 384c-12 13-28 19-45 19-8 0-17-2-25-5-23-10-39-33-39-59V640H992c-220 0-360 42-438 131-81 93-105 243-74 473 2 14-7 28-20 34-4 1-8 2-12 2-10 0-20-5-26-13-7-10-166-235-166-435 0-268 84-576 736-576h160V64c0-26 16-49 39-59 8-3 17-5 25-5 17 0 33 7 45 19l384 384c25 25 25 65 0 90z"/>
</svg>
