<?xml version="1.0" standalone="no"?>
<svg width="1536px" height="1536px" version="1.1" xmlns="http://www.w3.org/2000/svg">
    <path transform="scale(1, -1) translate(0, -1536)" glyph-name="share_square" unicode="&#xf14d;" 

d="M1005 435l352 352c25 25 25 65 0 90l-352 352c-18 19 -46 24 -69 14c-24 -10 -40 -33 -40 -59v-160c-574 0 -640 -329 -640 -576c0 -201 161 -396 167 -404c7 -8 16 -12 25 -12c4 0 9 1 13 3c13 5 21 19 19 33c-30 241 -11 391 62 473c61 69 167 99 354 99v-160
c0 -26 16 -49 40 -59c7 -3 16 -5 24 -5c17 0 33 7 45 19zM1536 1120v-960c0 -159 -129 -288 -288 -288h-960c-159 0 -288 129 -288 288v960c0 159 129 288 288 288h960c159 0 288 -129 288 -288z" />
</svg>