<svg width="1536" height="1536" xmlns="http://www.w3.org/2000/svg">
    <path d="M1811 1555c25-25 65-25 90 0l128 128-90 90-83-83-83 83c-12 13-29 19-45 19s-33-6-45-19l-83-83-83 83c-25 25-65 25-90 0l-83-83-83 83c-25 25-65 25-90 0l-83-83-83 83c-25 25-65 25-90 0l-83-83-83 83c-25 25-65 25-90 0l-83-83-83 83c-25 25-65 25-90 0l-83-83-83 83c-25 25-65 25-90 0L19 1645l90-90 83 83 83-83c25-25 65-25 90 0l83 83 83-83c25-25 65-25 90 0l83 83 83-83c25-25 65-25 90 0l83 83 83-83c25-25 65-25 90 0l83 83 83-83c25-25 65-25 90 0l83 83 83-83c25-25 65-25 90 0l83 83zm-1574-38c-25 25-65 25-90 0L19 1389l90-90 83 82 83-82c25-25 65-25 90 0l83 82 64-64v-293L302 710c-23-35-7-83 33-97l177-58V256h128V128h256V0h256v128h256v128h128v299l177 58c40 14 56 62 33 97l-210 314v293l19-18c25-25 65-25 90 0l83 82 83-82c25-25 65-25 90 0l128 128-90 90-83-83-83 83c-12 13-29 19-45 19s-33-6-45-19l-83-83-83 83c-25 25-65 25-90 0l-83-83-83 83c-25 25-65 25-90 0l-83-83-83 83c-25 25-65 25-90 0l-83-83-83 83c-25 25-65 25-90 0l-83-83-83 83c-25 25-65 25-90 0l-83-83zM640 384v128l384-128 384 128V384h-128V256H768v128H640z"/>
</svg>
