<?xml version="1.0" standalone="no"?>
<svg width="1536px" height="1536px" version="1.1" xmlns="http://www.w3.org/2000/svg">
    <path transform="scale(1, -1) translate(0, -1536)" glyph-name="ship" unicode="&#xf21a;" horiz-adv-x="2048" 

d="M1811 -19c25 25 65 25 90 0l128 -128l-90 -90l-83 83l-83 -83c-12 -13 -29 -19 -45 -19s-33 6 -45 19l-83 83l-83 -83c-25 -25 -65 -25 -90 0l-83 83l-83 -83c-25 -25 -65 -25 -90 0l-83 83l-83 -83c-25 -25 -65 -25 -90 0l-83 83l-83 -83c-25 -25 -65 -25 -90 0l-83 83
l-83 -83c-25 -25 -65 -25 -90 0l-83 83l-83 -83c-25 -25 -65 -25 -90 0l-128 128l90 90l83 -83l83 83c25 25 65 25 90 0l83 -83l83 83c25 25 65 25 90 0l83 -83l83 83c25 25 65 25 90 0l83 -83l83 83c25 25 65 25 90 0l83 -83l83 83c25 25 65 25 90 0l83 -83l83 83
c25 25 65 25 90 0l83 -83zM237 19c-25 -25 -65 -25 -90 0l-128 128l90 90l83 -82l83 82c25 25 65 25 90 0l83 -82l64 64v293l-210 314c-23 35 -7 83 33 97l177 58v299h128v128h256v128h256v-128h256v-128h128v-299l177 -58c40 -14 56 -62 33 -97l-210 -314v-293l19 18
c25 25 65 25 90 0l83 -82l83 82c25 25 65 25 90 0l128 -128l-90 -90l-83 83l-83 -83c-12 -13 -29 -19 -45 -19s-33 6 -45 19l-83 83l-83 -83c-25 -25 -65 -25 -90 0l-83 83l-83 -83c-25 -25 -65 -25 -90 0l-83 83l-83 -83c-25 -25 -65 -25 -90 0l-83 83l-83 -83
c-25 -25 -65 -25 -90 0l-83 83l-83 -83c-25 -25 -65 -25 -90 0l-83 83zM640 1152v-128l384 128l384 -128v128h-128v128h-512v-128h-128z" />
</svg>