<svg width="1536" height="1536" xmlns="http://www.w3.org/2000/svg">
    <path d="M0 0h1536v1392l-776 338L0 1392V0zm1436 1327V401H100v926l661 294zm0-1026V100H100v201h1336zM181 599v115h-37V599h37zm0 148v115h-37V747h37zm0 148v115h-37V895h37zm0 148v115h-37v-115h37zm0 148v115h-37v-115h37zm26 143l15-34 105 47-15 33zm136 60l15-34 105 46-15 34zm135 60l15-34 105 46-15 34zm136 59l15-33 104 46-15 34zm183 13l105-46 15 33-105 47zm135-60l105-46 15 34-105 46zm136-60l105-46 15 34-105 46zm135-59l105-47 15 34-105 46zM259 147v36H145v-36h114zm162 0v36H306v-36h115zm162 0v36H468v-36h115zm161 0v36H630v-36h114zm162 0v36H792v-36h114zm162 0v36H953v-36h115zm162 0v36h-115v-36h115zm161 0v36h-114v-36h114zM181 487v79h-37V451h115v36h-78zm240-36v36H306v-36h115zm162 0v36H468v-36h115zm161 0v36H630v-36h114zm162 0v36H792v-36h114zm162 0v36H953v-36h115zm162 0v36h-115v-36h115zm125 115v-79h-78v-36h115v115h-37zm0 148V599h37v115h-37zm0 148V747h37v115h-37zm0 148V895h37v115h-37zm0 148v-115h37v115h-37zm0 148v-115h37v115h-37zm-595-35c-172 0-313-140-313-313 0-172 141-313 313-313 173 0 313 141 313 313 0 173-140 313-313 313zM595 890c0 152 266 41 266 130 0 45-82 49-112 49-42 0-102-9-123-51h-3l-31 63c51 32 100 42 162 42 67 0 175-20 175-107 0-165-269-56-269-130 0-45 71-51 102-51 37 0 100 11 122 45h3l30-58c-52-21-94-41-152-41-69 0-170 22-170 109z"/>
</svg>
