<?xml version="1.0" standalone="no"?>
<svg width="1536px" height="1536px" version="1.1" xmlns="http://www.w3.org/2000/svg">
    <path transform="scale(1, -1) translate(0, -1536)" glyph-name="shirtsinbulk" unicode="&#xf214;" 

d="M0 1536h1536v-1392l-776 -338l-760 338v1392zM1436 209v926h-1336v-926l661 -294zM1436 1235v201h-1336v-201h1336zM181 937v-115h-37v115h37zM181 789v-115h-37v115h37zM181 641v-115h-37v115h37zM181 493v-115h-37v115h37zM181 345v-115h-37v115h37zM207 202l15 34
l105 -47l-15 -33zM343 142l15 34l105 -46l-15 -34zM478 82l15 34l105 -46l-15 -34zM614 23l15 33l104 -46l-15 -34zM797 10l105 46l15 -33l-105 -47zM932 70l105 46l15 -34l-105 -46zM1068 130l105 46l15 -34l-105 -46zM1203 189l105 47l15 -34l-105 -46zM259 1389v-36h-114
v36h114zM421 1389v-36h-115v36h115zM583 1389v-36h-115v36h115zM744 1389v-36h-114v36h114zM906 1389v-36h-114v36h114zM1068 1389v-36h-115v36h115zM1230 1389v-36h-115v36h115zM1391 1389v-36h-114v36h114zM181 1049v-79h-37v115h115v-36h-78zM421 1085v-36h-115v36h115z
M583 1085v-36h-115v36h115zM744 1085v-36h-114v36h114zM906 1085v-36h-114v36h114zM1068 1085v-36h-115v36h115zM1230 1085v-36h-115v36h115zM1355 970v79h-78v36h115v-115h-37zM1355 822v115h37v-115h-37zM1355 674v115h37v-115h-37zM1355 526v115h37v-115h-37zM1355 378
v115h37v-115h-37zM1355 230v115h37v-115h-37zM760 265c-172 0 -313 140 -313 313c0 172 141 313 313 313c173 0 313 -141 313 -313c0 -173 -140 -313 -313 -313zM595 646c0 -152 266 -41 266 -130c0 -45 -82 -49 -112 -49c-42 0 -102 9 -123 51h-3l-31 -63
c51 -32 100 -42 162 -42c67 0 175 20 175 107c0 165 -269 56 -269 130c0 45 71 51 102 51c37 0 100 -11 122 -45h3l30 58c-52 21 -94 41 -152 41c-69 0 -170 -22 -170 -109z" />
</svg>