<?xml version="1.0" standalone="no"?>
<svg width="1536px" height="1536px" version="1.1" xmlns="http://www.w3.org/2000/svg">
    <path transform="scale(1, -1) translate(0, -1536)" glyph-name="shopping_basket" unicode="&#xf291;" horiz-adv-x="2048" 

d="M1920 768c71 0 128 -57 128 -128s-57 -128 -128 -128h-15l-115 -662c-11 -61 -64 -106 -126 -106h-1280c-62 0 -115 45 -126 106l-115 662h-15c-71 0 -128 57 -128 128s57 128 128 128h1792zM485 -32c35 3 62 34 59 69l-32 416c-3 35 -34 62 -69 59s-62 -34 -59 -69
l32 -416c3 -33 31 -59 64 -59h5zM896 32v416c0 35 -29 64 -64 64s-64 -29 -64 -64v-416c0 -35 29 -64 64 -64s64 29 64 64zM1280 32v416c0 35 -29 64 -64 64s-64 -29 -64 -64v-416c0 -35 29 -64 64 -64s64 29 64 64zM1632 27l32 416c3 35 -24 66 -59 69s-66 -24 -69 -59
l-32 -416c-3 -35 24 -66 59 -69h5c33 0 61 26 64 59zM476 1244l-93 -412h-132l101 441c26 117 129 199 249 199h167c0 35 29 64 64 64h384c35 0 64 -29 64 -64h167c120 0 223 -82 249 -199l101 -441h-132l-93 412c-14 59 -65 100 -125 100h-167c0 -35 -29 -64 -64 -64h-384
c-35 0 -64 29 -64 64h-167c-60 0 -111 -41 -125 -100z" />
</svg>