<svg width="1536" height="1536" xmlns="http://www.w3.org/2000/svg">
    <path d="M1757 1408l35 313c2 18-4 36-16 50-12 13-30 21-48 21H64c-18 0-36-8-48-21-12-14-18-32-16-50l35-313h1722zm-93-839l86 775H42l86-775c4-32 31-57 64-57h256v128c0 71 57 128 128 128s128-57 128-128V512h384v128c0 71 57 128 128 128s128-57 128-128V512h256c33 0 60 25 64 57zm-384-185v256c0 35-29 64-64 64s-64-29-64-64V384c0-141-115-256-256-256S640 243 640 384v256c0 35-29 64-64 64s-64-29-64-64V384C512 172 684 0 896 0s384 172 384 384z"/>
</svg>
