<?xml version="1.0" standalone="no"?>
<svg width="1536px" height="1536px" version="1.1" xmlns="http://www.w3.org/2000/svg">
    <path transform="scale(1, -1) translate(0, -1536)" glyph-name="shopping_cart" unicode="&#xf07a;" horiz-adv-x="1664" 

d="M640 0c0 -70 -58 -128 -128 -128s-128 58 -128 128s58 128 128 128s128 -58 128 -128zM1536 0c0 -70 -58 -128 -128 -128s-128 58 -128 128s58 128 128 128s128 -58 128 -128zM1664 1088v-512c0 -32 -25 -60 -57 -64l-1044 -122c5 -23 13 -46 13 -70
c0 -23 -14 -44 -24 -64h920c35 0 64 -29 64 -64s-29 -64 -64 -64h-1024c-35 0 -64 29 -64 64c0 31 45 106 61 137l-177 823h-204c-35 0 -64 29 -64 64s29 64 64 64h256c67 0 69 -80 79 -128h1201c35 0 64 -29 64 -64z" />
</svg>