<svg width="1536" height="1536" xmlns="http://www.w3.org/2000/svg">
    <path d="M1920 768c71 0 128 57 128 128s-57 128-128 128h-15l-115 662c-11 61-64 106-126 106H384c-62 0-115-45-126-106l-115-662h-15C57 1024 0 967 0 896s57-128 128-128h1792zM485 1568c35-3 62-34 59-69l-32-416c-3-35-34-62-69-59s-62 34-59 69l32 416c3 33 31 59 64 59h5zm411-64v-416c0-35-29-64-64-64s-64 29-64 64v416c0 35 29 64 64 64s64-29 64-64zm384 0v-416c0-35-29-64-64-64s-64 29-64 64v416c0 35 29 64 64 64s64-29 64-64zm352 5l32-416c3-35-24-66-59-69s-66 24-69 59l-32 416c-3 35 24 66 59 69h5c33 0 61-26 64-59zM476 292l-93 412H251l101-441C378 146 481 64 601 64h167c0-35 29-64 64-64h384c35 0 64 29 64 64h167c120 0 223 82 249 199l101 441h-132l-93-412c-14-59-65-100-125-100h-167c0 35-29 64-64 64H832c-35 0-64-29-64-64H601c-60 0-111 41-125 100z"/>
</svg>
