<?xml version="1.0" standalone="no"?>
<svg width="1536px" height="1536px" version="1.1" xmlns="http://www.w3.org/2000/svg">
    <path transform="scale(1, -1) translate(0, -1536)" glyph-name="shopping_bag" unicode="&#xf290;" horiz-adv-x="1792" 

d="M1757 128l35 -313c2 -18 -4 -36 -16 -50c-12 -13 -30 -21 -48 -21h-1664c-18 0 -36 8 -48 21c-12 14 -18 32 -16 50l35 313h1722zM1664 967l86 -775h-1708l86 775c4 32 31 57 64 57h256v-128c0 -71 57 -128 128 -128s128 57 128 128v128h384v-128c0 -71 57 -128 128 -128
s128 57 128 128v128h256c33 0 60 -25 64 -57zM1280 1152v-256c0 -35 -29 -64 -64 -64s-64 29 -64 64v256c0 141 -115 256 -256 256s-256 -115 -256 -256v-256c0 -35 -29 -64 -64 -64s-64 29 -64 64v256c0 212 172 384 384 384s384 -172 384 -384z" />
</svg>