<svg width="1536" height="1536" xmlns="http://www.w3.org/2000/svg">
    <path d="M1433 249c13 13 13 33 0 46L807 921c-13 13-33 13-46 0l-82-82c-13-13-13-33 0-46l44-44c-97-122-109-289-35-422-46-44-108-71-176-71-141 0-256 115-256 256v1280H0V512C0 230 230 0 512 0c144 0 274 60 367 156 126-51 272-32 382 55l44-44c13-13 33-13 46 0zm-89 263c35 0 64 29 64 64s-29 64-64 64-64-29-64-64 29-64 64-64zm256 128c-35 0-64-29-64-64s29-64 64-64 64 29 64 64-29 64-64 64zm256-128c35 0 64 29 64 64s-29 64-64 64-64-29-64-64 29-64 64-64zm-640 128c35 0 64 29 64 64s-29 64-64 64-64-29-64-64 29-64 64-64zm192 64c0-35 29-64 64-64s64 29 64 64-29 64-64 64-64-29-64-64zm320-64c35 0 64 29 64 64s-29 64-64 64-64-29-64-64 29-64 64-64zm-640 128c35 0 64 29 64 64s-29 64-64 64-64-29-64-64 29-64 64-64zm256 128c-35 0-64-29-64-64s29-64 64-64 64 29 64 64-29 64-64 64zm256-128c35 0 64 29 64 64s-29 64-64 64-64-29-64-64 29-64 64-64zm-384 256c-35 0-64-29-64-64s29-64 64-64 64 29 64 64-29 64-64 64zm256-128c35 0 64 29 64 64s-29 64-64 64-64-29-64-64 29-64 64-64zm-384 128c35 0 64 29 64 64s-29 64-64 64-64-29-64-64 29-64 64-64zm256 0c35 0 64 29 64 64s-29 64-64 64-64-29-64-64 29-64 64-64zm-128 128c35 0 64 29 64 64s-29 64-64 64-64-29-64-64 29-64 64-64zm-128 128c35 0 64 29 64 64s-29 64-64 64-64-29-64-64 29-64 64-64z"/>
</svg>
