<?xml version="1.0" standalone="no"?>
<svg width="1536px" height="1536px" version="1.1" xmlns="http://www.w3.org/2000/svg">
    <path transform="scale(1, -1) translate(0, -1536)" glyph-name="shower" unicode="&#xf2cc;" horiz-adv-x="1920" 

d="M1433 1287c13 -13 13 -33 0 -46l-626 -626c-13 -13 -33 -13 -46 0l-82 82c-13 13 -13 33 0 46l44 44c-97 122 -109 289 -35 422c-46 44 -108 71 -176 71c-141 0 -256 -115 -256 -256v-1280h-256v1280c0 282 230 512 512 512c144 0 274 -60 367 -156
c126 51 272 32 382 -55l44 44c13 13 33 13 46 0zM1344 1024c35 0 64 -29 64 -64s-29 -64 -64 -64s-64 29 -64 64s29 64 64 64zM1600 896c-35 0 -64 29 -64 64s29 64 64 64s64 -29 64 -64s-29 -64 -64 -64zM1856 1024c35 0 64 -29 64 -64s-29 -64 -64 -64s-64 29 -64 64
s29 64 64 64zM1216 896c35 0 64 -29 64 -64s-29 -64 -64 -64s-64 29 -64 64s29 64 64 64zM1408 832c0 35 29 64 64 64s64 -29 64 -64s-29 -64 -64 -64s-64 29 -64 64zM1728 896c35 0 64 -29 64 -64s-29 -64 -64 -64s-64 29 -64 64s29 64 64 64zM1088 768c35 0 64 -29 64 -64
s-29 -64 -64 -64s-64 29 -64 64s29 64 64 64zM1344 640c-35 0 -64 29 -64 64s29 64 64 64s64 -29 64 -64s-29 -64 -64 -64zM1600 768c35 0 64 -29 64 -64s-29 -64 -64 -64s-64 29 -64 64s29 64 64 64zM1216 512c-35 0 -64 29 -64 64s29 64 64 64s64 -29 64 -64
s-29 -64 -64 -64zM1472 640c35 0 64 -29 64 -64s-29 -64 -64 -64s-64 29 -64 64s29 64 64 64zM1088 512c35 0 64 -29 64 -64s-29 -64 -64 -64s-64 29 -64 64s29 64 64 64zM1344 512c35 0 64 -29 64 -64s-29 -64 -64 -64s-64 29 -64 64s29 64 64 64zM1216 384
c35 0 64 -29 64 -64s-29 -64 -64 -64s-64 29 -64 64s29 64 64 64zM1088 256c35 0 64 -29 64 -64s-29 -64 -64 -64s-64 29 -64 64s29 64 64 64z" />
</svg>