<?xml version="1.0" standalone="no"?>
<svg width="1536px" height="1536px" version="1.1" xmlns="http://www.w3.org/2000/svg">
    <path transform="scale(1, -1) translate(0, -1536)" glyph-name="sign_in" unicode="&#xf090;" 

d="M1184 640c0 -17 -7 -33 -19 -45l-544 -544c-12 -12 -28 -19 -45 -19c-35 0 -64 29 -64 64v288h-448c-35 0 -64 29 -64 64v384c0 35 29 64 64 64h448v288c0 35 29 64 64 64c17 0 33 -7 45 -19l544 -544c12 -12 19 -28 19 -45zM1536 992v-704c0 -159 -129 -288 -288 -288
h-320c-17 0 -32 15 -32 32c0 28 -13 96 32 96h320c88 0 160 72 160 160v704c0 88 -72 160 -160 160h-288c-25 0 -64 -5 -64 32c0 28 -13 96 32 96h320c159 0 288 -129 288 -288z" />
</svg>