<?xml version="1.0" standalone="no"?>
<svg width="1536px" height="1536px" version="1.1" xmlns="http://www.w3.org/2000/svg">
    <path transform="scale(1, -1) translate(0, -1536)" glyph-name="signal" unicode="&#xf012;" horiz-adv-x="1792" 

d="M256 96v-192c0 -18 -14 -32 -32 -32h-192c-18 0 -32 14 -32 32v192c0 18 14 32 32 32h192c18 0 32 -14 32 -32zM640 224v-320c0 -18 -14 -32 -32 -32h-192c-18 0 -32 14 -32 32v320c0 18 14 32 32 32h192c18 0 32 -14 32 -32zM1024 480v-576c0 -18 -14 -32 -32 -32h-192
c-18 0 -32 14 -32 32v576c0 18 14 32 32 32h192c18 0 32 -14 32 -32zM1408 864v-960c0 -18 -14 -32 -32 -32h-192c-18 0 -32 14 -32 32v960c0 18 14 32 32 32h192c18 0 32 -14 32 -32zM1792 1376v-1472c0 -18 -14 -32 -32 -32h-192c-18 0 -32 14 -32 32v1472
c0 18 14 32 32 32h192c18 0 32 -14 32 -32z" />
</svg>