<?xml version="1.0" standalone="no"?>
<svg width="1536px" height="1536px" version="1.1" xmlns="http://www.w3.org/2000/svg">
    <path transform="scale(1, -1) translate(0, -1536)" glyph-name="sign_language" unicode="&#xf2a7;" horiz-adv-x="1664" 

d="M831 863c21 0 41 -6 59 -18l222 -148c41 -27 78 -60 110 -97l146 -170c25 -29 36 -68 29 -106l-72 -413c-8 -42 -42 -74 -85 -79l-527 -56l-352 -32h-9c-52 0 -96 42 -96 96c0 50 42 90 92 96l260 32h-448c-55 0 -99 46 -96 101c3 52 49 91 101 91l442 1l-521 64
c-54 6 -93 55 -85 110c8 48 52 80 100 80h10l481 -60l-351 94c-50 13 -88 59 -80 110c8 48 49 81 95 81c7 0 13 -1 20 -2l448 -96l217 -37c2 0 4 -1 6 -1c30 0 45 41 18 59l-186 125c-46 31 -57 93 -24 137c18 25 47 38 76 38zM761 661l186 -125l-218 37l-5 2l-36 38
l-238 262c-2 2 -3 5 -5 7c-31 41 -24 101 19 134c40 31 97 21 132 -16l142 -147c-3 -3 -6 -5 -9 -8c-21 -29 -29 -64 -23 -99c6 -34 26 -65 55 -85zM1648 1115l15 -266c3 -49 -1 -99 -11 -147l-48 -219c-8 -38 -32 -69 -67 -87l-106 -54c1 40 -12 78 -39 109l-146 170
c-34 39 -73 74 -117 103l-222 148c-22 15 -48 23 -76 23c-34 0 -65 -14 -88 -37l-235 312c-33 44 -23 106 23 137c43 30 102 16 134 -26l266 -352l-262 455c-28 47 -12 108 37 134c46 24 104 5 130 -40l241 -420l-136 337c-19 48 -6 106 40 130c49 26 109 5 132 -45
l193 -415l101 -196c16 -31 63 -18 61 16l-12 224c-3 55 40 101 95 102c52 0 94 -44 97 -96z" />
</svg>