<svg width="1536" height="1536" xmlns="http://www.w3.org/2000/svg">
    <path d="M256 1440v192c0 18-14 32-32 32H32c-18 0-32-14-32-32v-192c0-18 14-32 32-32h192c18 0 32 14 32 32zm384-128v320c0 18-14 32-32 32H416c-18 0-32-14-32-32v-320c0-18 14-32 32-32h192c18 0 32 14 32 32zm384-256v576c0 18-14 32-32 32H800c-18 0-32-14-32-32v-576c0-18 14-32 32-32h192c18 0 32 14 32 32zm384-384v960c0 18-14 32-32 32h-192c-18 0-32-14-32-32V672c0-18 14-32 32-32h192c18 0 32 14 32 32zm384-512v1472c0 18-14 32-32 32h-192c-18 0-32-14-32-32V160c0-18 14-32 32-32h192c18 0 32 14 32 32z"/>
</svg>
