<svg width="1536" height="1536" xmlns="http://www.w3.org/2000/svg">
    <path d="M831 673c21 0 41 6 59 18l222 148c41 27 78 60 110 97l146 170c25 29 36 68 29 106l-72 413c-8 42-42 74-85 79l-527 56-352 32h-9c-52 0-96-42-96-96 0-50 42-90 92-96l260-32H160c-55 0-99-46-96-101 3-52 49-91 101-91l442-1-521-64c-54-6-93-55-85-110 8-48 52-80 100-80h10l481 60-351-94c-50-13-88-59-80-110 8-48 49-81 95-81 7 0 13 1 20 2l448 96 217 37c2 0 4 1 6 1 30 0 45-41 18-59L779 848c-46-31-57-93-24-137 18-25 47-38 76-38zm-70 202l186 125-218-37-5-2-36-38-238-262c-2-2-3-5-5-7-31-41-24-101 19-134 40-31 97-21 132 16l142 147c-3 3-6 5-9 8-21 29-29 64-23 99 6 34 26 65 55 85zm887-454l15 266c3 49-1 99-11 147l-48 219c-8 38-32 69-67 87l-106 54c1-40-12-78-39-109l-146-170c-34-39-73-74-117-103L907 664c-22-15-48-23-76-23-34 0-65 14-88 37L508 366c-33-44-23-106 23-137 43-30 102-16 134 26l266 352-262-455c-28-47-12-108 37-134 46-24 104-5 130 40l241 420-136-337c-19-48-6-106 40-130 49-26 109-5 132 45l193 415 101 196c16 31 63 18 61-16l-12-224c-3-55 40-101 95-102 52 0 94 44 97 96z"/>
</svg>
