<?xml version="1.0" standalone="no"?>
<svg width="1536px" height="1536px" version="1.1" xmlns="http://www.w3.org/2000/svg">
    <path transform="scale(1, -1) translate(0, -1536)" glyph-name="simplybuilt" unicode="&#xf215;" horiz-adv-x="2048" 

d="M863 504c0 150 -121 271 -271 271c-149 0 -270 -121 -270 -271c0 -149 121 -270 270 -270c150 0 271 121 271 270zM1726 505c0 149 -121 270 -270 270c-150 0 -271 -121 -271 -270c0 -150 121 -271 271 -271c149 0 270 121 270 271zM2048 1314v-1348
c0 -59 -48 -107 -108 -107h-1832c-60 0 -108 48 -108 107v1348c0 59 48 107 108 107h431c59 0 108 -48 108 -107v-161h754v161c0 59 49 107 108 107h431c60 0 108 -48 108 -107z" />
</svg>