<svg xmlns="http://www.w3.org/2000/svg" width="1536" height="1792" viewBox="0 0 1536 1792">
    <path d="M425.044 1792c28.583 0 51.556-23.35 51.556-52.183 0-28.708-22.991-51.896-51.556-51.896-28.439 0-51.43 23.242-51.43 51.896 0 28.762 22.991 52.183 51.43 52.183zm416.407-1.057c28.547 0 51.681-23.511 51.681-52.667 0-28.816-23.134-52.237-51.68-52.237-28.332 0-51.288 23.421-51.288 52.237 0 29.156 22.956 52.667 51.287 52.667zM323.33 1636.741s-30.249-1.541-30.249-33.026v-2.868c0-30.983 30.25-33.098 30.25-33.098h617.773s30.375 2.867 30.375 33.098v2.868c0 30.213-30.375 33.026-30.375 33.026zM752.532 276.47c75.48 0 136.837-62.075 136.837-138.503C889.37 61.645 828.011 0 752.532 0c-75.46 0-136.855 61.644-136.855 137.948 0 76.429 61.394 138.521 136.855 138.521zM10.071 1485.765C3.601 1498.04 0 1511.875 0 1526.874c0 48.635 39.137 88.238 87.629 88.238 34.747 0 64.601-20.411 78.848-49.782l298.654-518.963-124.042-125.26z"/>
    <path d="M609.817 1462.47c-12.956 29.442-40.463 49.835-72.504 49.835-44.298 0-80.389-39.621-80.389-88.185 0-15.178 3.369-29.048 9.283-41.341l119.83-230.935-233.676-254.822c-89.69-98.9-25.77-205.793-25.77-205.793l125.8-243.766-333.617.412c-36.898 0-66.233-32.704-66.233-72.666 0-39.585 29.335-72.253 66.233-72.253h1009.845c36.45 0 65.874 32.668 65.874 72.666 0 39.961-29.425 72.253-65.874 72.253H743.357L559.57 801.042l187.102 202.89c65.498 68.992 23.1 146.622 23.1 146.622z"/>
</svg>
