<svg width="1536" height="1536" xmlns="http://www.w3.org/2000/svg">
    <path d="M1430 583s-1-1 0 0zm260 204c194 0 358 145 358 343 0 211-168 366-376 366-531 0-629-799-1151-799-202 0-349 129-349 336 0 214 160 343 367 343 136 0 291-57 401-136 18-13 54-52 73-52s35 16 35 35c0 25-42 61-60 77-131 114-321 196-495 196-267 0-493-189-493-464s216-477 489-477c593 0 712 787 1158 787 134 0 235-87 235-224 0-127-98-223-224-223-56 0-112 37-150 37-27 0-51-23-51-50 0-37 17-76 17-116 0-213-163-367-374-367-170 0-256 118-284 118-20 0-36-16-36-36 0-18 13-33 25-46 81-92 207-140 329-140 254 0 445 187 445 441 0 22-1 44-4 66 38-10 77-15 115-15z"/>
</svg>
