<?xml version="1.0" standalone="no"?>
<svg width="1536px" height="1536px" version="1.1" xmlns="http://www.w3.org/2000/svg">
    <path transform="scale(1, -1) translate(0, -1536)" glyph-name="skyatlas" unicode="&#xf216;" horiz-adv-x="2048" 

d="M1430 953c0 0 -1 1 0 0v0zM1690 749c194 0 358 -145 358 -343c0 -211 -168 -366 -376 -366c-531 0 -629 799 -1151 799c-202 0 -349 -129 -349 -336c0 -214 160 -343 367 -343c136 0 291 57 401 136c18 13 54 52 73 52s35 -16 35 -35c0 -25 -42 -61 -60 -77
c-131 -114 -321 -196 -495 -196c-267 0 -493 189 -493 464s216 477 489 477c593 0 712 -787 1158 -787c134 0 235 87 235 224c0 127 -98 223 -224 223c-56 0 -112 -37 -150 -37c-27 0 -51 23 -51 50c0 37 17 76 17 116c0 213 -163 367 -374 367c-170 0 -256 -118 -284 -118
c-20 0 -36 16 -36 36c0 18 13 33 25 46c81 92 207 140 329 140c254 0 445 -187 445 -441c0 -22 -1 -44 -4 -66c38 10 77 15 115 15z" />
</svg>