<?xml version="1.0" standalone="no"?>
<svg width="1536px" height="1536px" version="1.1" xmlns="http://www.w3.org/2000/svg">
    <path transform="scale(1, -1) translate(0, -1536)" glyph-name="skype" unicode="&#xf17e;" 

d="M1173 473c0 174 -169 234 -311 266l-104 24c-76 18 -133 31 -133 89c0 53 56 77 144 77c157 0 160 -115 257 -115c65 0 104 51 104 109c0 115 -191 190 -380 190c-173 0 -374 -75 -374 -278c0 -168 112 -228 258 -263l146 -36c89 -22 144 -32 144 -96
c0 -51 -57 -90 -145 -90c-185 0 -195 154 -302 154c-70 0 -101 -50 -101 -105c0 -123 188 -223 413 -223c188 0 384 94 384 297zM1536 256c0 -212 -172 -384 -384 -384c-88 0 -169 30 -234 80c-48 -10 -99 -16 -150 -16c-389 0 -704 315 -704 704c0 51 6 102 16 150
c-50 65 -80 146 -80 234c0 212 172 384 384 384c88 0 169 -30 234 -80c48 10 99 16 150 16c389 0 704 -315 704 -704c0 -51 -6 -102 -16 -150c50 -65 80 -146 80 -234z" />
</svg>