<svg width="1536" height="1536" xmlns="http://www.w3.org/2000/svg">
    <path d="M1173 1063c0-174-169-234-311-266l-104-24c-76-18-133-31-133-89 0-53 56-77 144-77 157 0 160 115 257 115 65 0 104-51 104-109 0-115-191-190-380-190-173 0-374 75-374 278 0 168 112 228 258 263l146 36c89 22 144 32 144 96 0 51-57 90-145 90-185 0-195-154-302-154-70 0-101 50-101 105 0 123 188 223 413 223 188 0 384-94 384-297zm363 217c0 212-172 384-384 384-88 0-169-30-234-80-48 10-99 16-150 16-389 0-704-315-704-704 0-51 6-102 16-150C30 681 0 600 0 512c0-212 172-384 384-384 88 0 169 30 234 80 48-10 99-16 150-16 389 0 704 315 704 704 0 51-6 102-16 150 50 65 80 146 80 234z"/>
</svg>
