<?xml version="1.0" standalone="no"?>
<svg width="1536px" height="1536px" version="1.1" xmlns="http://www.w3.org/2000/svg">
    <path transform="scale(1, -1) translate(0, -1536)" glyph-name="slack" unicode="&#xf198;" horiz-adv-x="1664" 

d="M1519 760c82 0 145 -60 145 -142c0 -64 -33 -109 -93 -130l-172 -59l56 -167c5 -15 7 -31 7 -47c0 -79 -64 -145 -143 -145c-63 0 -119 39 -139 99l-55 165l-310 -106l55 -164c5 -15 8 -31 8 -47c0 -78 -64 -145 -144 -145c-63 0 -118 39 -138 99l-55 163l-153 -53
c-16 -5 -33 -9 -50 -9c-81 0 -142 60 -142 141c0 62 40 118 99 138l156 53l-105 313l-156 -54c-16 -5 -32 -8 -48 -8c-80 0 -142 61 -142 141c0 62 40 118 99 138l157 53l-53 159c-5 15 -8 31 -8 47c0 79 64 145 144 145c63 0 118 -39 138 -99l54 -160l310 105l-54 160
c-5 15 -8 31 -8 47c0 79 65 145 144 145c63 0 119 -40 139 -99l53 -161l162 55c14 4 28 6 43 6c78 0 145 -58 145 -138c0 -62 -48 -114 -104 -133l-157 -54l105 -316l164 56c15 5 31 8 46 8zM725 498l310 105l-105 315l-310 -107z" />
</svg>