<svg xmlns="http://www.w3.org/2000/svg" width="1536" height="1792">
    <path d="M837.263 1028.012l66.177-197.846-205.046-68.578-66.177 197.846 205.046 68.578zM979.22 192.395C451.173 33.981 222.81 156.735 64.396 684.781c-158.414 528.047-35.66 756.41 492.386 914.824 528.047 158.414 756.41 35.66 914.824-492.386 158.414-528.047 35.66-756.41-492.386-914.824zm276.367 672.745c-13.373 41.832-58.977 63.777-100.81 50.405l-99.436-33.26-66.178 197.845 99.438 33.26c41.832 13.373 63.777 58.977 50.404 100.81-13.373 41.832-58.977 63.776-100.809 50.404l-99.437-33.26-34.289 103.209c-13.372 41.832-58.976 63.777-100.809 50.404-41.832-13.372-63.777-58.976-50.404-100.809l34.289-103.209-205.047-68.92-34.289 103.21c-13.372 41.831-58.976 63.776-100.809 50.403-41.832-13.372-63.777-58.976-50.404-100.808l34.289-103.21-99.438-33.26c-41.832-13.372-63.777-58.976-50.404-100.808 10.972-31.889 41.832-52.805 73.72-54.177 14.745-2.057 26.403 3.43 126.526 36.69l66.177-197.847-99.437-33.26c-41.832-13.372-63.777-58.976-50.404-100.809 10.972-31.888 41.832-52.804 73.72-54.176 14.745-2.057 26.403 3.43 126.526 36.69l34.289-103.21c12.686-37.032 54.176-63.777 100.808-50.404 41.833 13.372 63.777 58.976 50.405 100.809l-34.29 103.208 205.047 68.92 34.288-103.21c12.687-37.03 54.177-63.776 100.81-50.404 41.832 13.373 63.776 58.977 50.404 100.81l-34.289 103.208 99.437 33.26c41.832 14.402 63.777 60.006 50.405 101.495z"/>
</svg>
