<svg width="1536" height="1536" xmlns="http://www.w3.org/2000/svg">
    <path d="M873 740c0 111-97 202-216 202s-216-91-216-202c0-112 97-202 216-202s216 90 216 202zm502 0c0 111-96 202-216 202-119 0-216-91-216-202 0-112 97-202 216-202 120 0 216 90 216 202zm225 180V253c0-115-37-160-143-160H345c-111 0-142 38-142 160v673c237 124 440 102 551 98 47-1 77 8 95 27 3 3 6 6 10 9 21 20 41 36 61 51 4-55 35-90 118-87 113 5 321 27 562-104zm163-5c-64 79-186 176-372 252 197 671-481 778-470 434 0 6-1-185-1-327-15-3-30-7-48-11 0 143-1 344-1 338 11 344-667 237-470-434-186-76-308-173-372-252-32-48 3-99 56-62 7 5 15 10 22 15V174C107 78 179 0 268 0h1257c89 0 161 78 161 174v694l21-15c53-37 88 14 56 62z"/>
</svg>
