<svg width="1536" height="1536" xmlns="http://www.w3.org/2000/svg">
    <path d="M352 1408v128H0v-128h352zm352-128c35 0 64 29 64 64v256c0 35-29 64-64 64H448c-35 0-64-29-64-64v-256c0-35 29-64 64-64h256zm160-384v128H0V896h864zM224 384v128H0V384h224zm1312 1024v128H800v-128h736zM576 256c35 0 64 29 64 64v256c0 35-29 64-64 64H320c-35 0-64-29-64-64V320c0-35 29-64 64-64h256zm640 512c35 0 64 29 64 64v256c0 35-29 64-64 64H960c-35 0-64-29-64-64V832c0-35 29-64 64-64h256zm320 128v128h-224V896h224zm0-512v128H672V384h864z"/>
</svg>
