<?xml version="1.0" standalone="no"?>
<svg width="1536px" height="1536px" version="1.1" xmlns="http://www.w3.org/2000/svg">
    <path transform="scale(1, -1) translate(0, -1536)" glyph-name="slideshare" unicode="&#xf1e7;" horiz-adv-x="1792" 

d="M873 796c0 -111 -97 -202 -216 -202s-216 91 -216 202c0 112 97 202 216 202s216 -90 216 -202zM1375 796c0 -111 -96 -202 -216 -202c-119 0 -216 91 -216 202c0 112 97 202 216 202c120 0 216 -90 216 -202zM1600 616v667c0 115 -37 160 -143 160h-1112
c-111 0 -142 -38 -142 -160v-673c237 -124 440 -102 551 -98c47 1 77 -8 95 -27c3 -3 6 -6 10 -9c21 -20 41 -36 61 -51c4 55 35 90 118 87c113 -5 321 -27 562 104zM1763 621c-64 -79 -186 -176 -372 -252c197 -671 -481 -778 -470 -434c0 -6 -1 185 -1 327
c-15 3 -30 7 -48 11c0 -143 -1 -344 -1 -338c11 -344 -667 -237 -470 434c-186 76 -308 173 -372 252c-32 48 3 99 56 62c7 -5 15 -10 22 -15v694c0 96 72 174 161 174h1257c89 0 161 -78 161 -174v-694l21 15c53 37 88 -14 56 -62z" />
</svg>