<?xml version="1.0" standalone="no"?>
<svg width="1536px" height="1536px" version="1.1" xmlns="http://www.w3.org/2000/svg">
    <path transform="scale(1, -1) translate(0, -1536)" glyph-name="sliders" unicode="&#xf1de;" 

d="M352 128v-128h-352v128h352zM704 256c35 0 64 -29 64 -64v-256c0 -35 -29 -64 -64 -64h-256c-35 0 -64 29 -64 64v256c0 35 29 64 64 64h256zM864 640v-128h-864v128h864zM224 1152v-128h-224v128h224zM1536 128v-128h-736v128h736zM576 1280c35 0 64 -29 64 -64v-256
c0 -35 -29 -64 -64 -64h-256c-35 0 -64 29 -64 64v256c0 35 29 64 64 64h256zM1216 768c35 0 64 -29 64 -64v-256c0 -35 -29 -64 -64 -64h-256c-35 0 -64 29 -64 64v256c0 35 29 64 64 64h256zM1536 640v-128h-224v128h224zM1536 1152v-128h-864v128h864z" />
</svg>