<svg width="1536" height="1536" xmlns="http://www.w3.org/2000/svg">
    <path d="M848 128c180-2 329 99 404 261 23 49 27 125 27 179 0 64-5 127-9 191 8 4 19 7 28 7 36 0 66-27 102-27 34 0 83 24 83 64 0 96-201 78-201 162 0 15 6 29 12 43 48 105 139 206 247 251 26 11 52 17 80 23 18 4 28 17 28 35 0 68-173 96-219 103-20 31-5 104-58 104-41 0-82-13-126-13-21 0-42 1-62 5-119 20-159 148-354 148-188 0-233-128-349-148-21-4-42-5-63-5-45 0-88 15-124 15-56 0-39-74-60-106-46-7-219-35-219-103 0-18 10-31 28-35 28-6 54-12 80-23 107-44 200-146 247-251 6-14 12-28 12-43 0-84-202-68-202-161 0-39 46-64 81-64 31 0 62 26 101 26 11 0 22-2 32-7-4-63-9-126-9-190 0-54 4-131 27-180 88-190 237-259 436-261z"/>
</svg>
