<?xml version="1.0" standalone="no"?>
<svg width="1536px" height="1536px" version="1.1" xmlns="http://www.w3.org/2000/svg">
    <path transform="scale(1, -1) translate(0, -1536)" glyph-name="snapchat_square" unicode="&#xf2ad;" 

d="M1280 388c0 14 -8 24 -22 27c-91 19 -160 83 -198 167c-4 8 -7 16 -7 25c0 45 124 36 124 100c0 27 -33 44 -57 44c-22 0 -40 -16 -63 -16c-4 0 -8 1 -12 2c3 38 5 77 5 115c0 34 -2 82 -17 114c-48 104 -140 165 -255 165c-125 0 -220 -47 -275 -165
c-15 -32 -18 -80 -18 -115c0 -38 3 -76 6 -114c-5 -1 -10 -2 -15 -2c-22 0 -41 16 -62 16c-25 0 -55 -17 -55 -45c0 -62 124 -54 124 -99c0 -9 -3 -17 -7 -25c-39 -84 -106 -147 -198 -167c-14 -3 -22 -13 -22 -27c0 -47 106 -64 138 -69c9 -24 5 -66 40 -66
c26 0 51 10 77 10c106 0 134 -95 256 -95c127 0 151 95 258 95c26 0 52 -9 78 -9c34 0 31 42 39 65c32 5 138 22 138 69zM1536 1120v-960c0 -159 -129 -288 -288 -288h-960c-159 0 -288 129 -288 288v960c0 159 129 288 288 288h960c159 0 288 -129 288 -288z" />
</svg>