<?xml version="1.0" standalone="no"?>
<svg width="1536px" height="1536px" version="1.1" xmlns="http://www.w3.org/2000/svg">
    <path transform="scale(1, -1) translate(0, -1536)" glyph-name="snapchat" unicode="&#xf2ab;" 

d="M1279 388c0 14 -8 24 -22 27c-91 20 -160 83 -198 167c-3 8 -7 16 -7 25c0 45 125 36 125 100c0 27 -33 44 -57 44c-23 0 -41 -16 -63 -16c-4 0 -8 1 -12 2c2 38 5 76 5 114c0 35 -2 83 -17 114c-48 104 -141 165 -255 165c-125 0 -220 -46 -275 -165
c-15 -31 -17 -79 -17 -114c0 -38 3 -76 5 -114c-4 -2 -9 -2 -14 -2c-23 0 -41 15 -62 15c-25 0 -56 -16 -56 -44c0 -62 125 -54 125 -99c0 -9 -4 -17 -7 -25c-39 -84 -106 -147 -198 -167c-14 -3 -22 -13 -22 -27c0 -46 106 -63 137 -68c9 -24 5 -66 41 -66c25 0 50 9 77 9
c105 0 133 -95 255 -95c127 0 151 95 257 95c27 0 52 -8 78 -8c35 0 31 42 40 65c31 5 137 22 137 68zM1536 640c0 -424 -344 -768 -768 -768s-768 344 -768 768s344 768 768 768s768 -344 768 -768z" />
</svg>