<svg width="1536" height="1536" xmlns="http://www.w3.org/2000/svg">
    <path d="M1279 1148c0-14-8-24-22-27-91-20-160-83-198-167-3-8-7-16-7-25 0-45 125-36 125-100 0-27-33-44-57-44-23 0-41 16-63 16-4 0-8-1-12-2 2-38 5-76 5-114 0-35-2-83-17-114-48-104-141-165-255-165-125 0-220 46-275 165-15 31-17 79-17 114 0 38 3 76 5 114-4 2-9 2-14 2-23 0-41-15-62-15-25 0-56 16-56 44 0 62 125 54 125 99 0 9-4 17-7 25-39 84-106 147-198 167-14 3-22 13-22 27 0 46 106 63 137 68 9 24 5 66 41 66 25 0 50-9 77-9 105 0 133 95 255 95 127 0 151-95 257-95 27 0 52 8 78 8 35 0 31-42 40-65 31-5 137-22 137-68zm257-252c0 424-344 768-768 768S0 1320 0 896s344-768 768-768 768 344 768 768z"/>
</svg>
