<svg width="1536" height="1536" xmlns="http://www.w3.org/2000/svg">
    <path d="M1280 1148c0-14-8-24-22-27-91-19-160-83-198-167-4-8-7-16-7-25 0-45 124-36 124-100 0-27-33-44-57-44-22 0-40 16-63 16-4 0-8-1-12-2 3-38 5-77 5-115 0-34-2-82-17-114-48-104-140-165-255-165-125 0-220 47-275 165-15 32-18 80-18 115 0 38 3 76 6 114-5 1-10 2-15 2-22 0-41-16-62-16-25 0-55 17-55 45 0 62 124 54 124 99 0 9-3 17-7 25-39 84-106 147-198 167-14 3-22 13-22 27 0 47 106 64 138 69 9 24 5 66 40 66 26 0 51-10 77-10 106 0 134 95 256 95 127 0 151-95 258-95 26 0 52 9 78 9 34 0 31-42 39-65 32-5 138-22 138-69zm256-732v960c0 159-129 288-288 288H288c-159 0-288-129-288-288V416c0-159 129-288 288-288h960c159 0 288 129 288 288z"/>
</svg>
