<?xml version="1.0" standalone="no"?>
<svg width="1536px" height="1536px" version="1.1" xmlns="http://www.w3.org/2000/svg">
    <path transform="scale(1, -1) translate(0, -1536)" glyph-name="snapchat_ghost" unicode="&#xf2ac;" horiz-adv-x="1664" 

d="M848 1408c180 2 329 -99 404 -261c23 -49 27 -125 27 -179c0 -64 -5 -127 -9 -191c8 -4 19 -7 28 -7c36 0 66 27 102 27c34 0 83 -24 83 -64c0 -96 -201 -78 -201 -162c0 -15 6 -29 12 -43c48 -105 139 -206 247 -251c26 -11 52 -17 80 -23c18 -4 28 -17 28 -35
c0 -68 -173 -96 -219 -103c-20 -31 -5 -104 -58 -104c-41 0 -82 13 -126 13c-21 0 -42 -1 -62 -5c-119 -20 -159 -148 -354 -148c-188 0 -233 128 -349 148c-21 4 -42 5 -63 5c-45 0 -88 -15 -124 -15c-56 0 -39 74 -60 106c-46 7 -219 35 -219 103c0 18 10 31 28 35
c28 6 54 12 80 23c107 44 200 146 247 251c6 14 12 28 12 43c0 84 -202 68 -202 161c0 39 46 64 81 64c31 0 62 -26 101 -26c11 0 22 2 32 7c-4 63 -9 126 -9 190c0 54 4 131 27 180c88 190 237 259 436 261z" />
</svg>