<?xml version="1.0" standalone="no"?>
<svg width="1536px" height="1536px" version="1.1" xmlns="http://www.w3.org/2000/svg">
    <path transform="scale(1, -1) translate(0, -1536)" glyph-name="snowflake_o" unicode="&#xf2dc;" horiz-adv-x="1664" 

d="M1566 419l-167 -33l186 -107c30 -17 41 -57 23 -87s-57 -41 -87 -23l-186 106l55 -160c28 -80 -94 -121 -121 -42l-102 300l-271 156v-313l208 -238c56 -63 -41 -148 -96 -84l-112 128v-214c0 -35 -29 -64 -64 -64s-64 29 -64 64v214l-112 -128c-55 -64 -152 21 -96 84
l208 238v313l-271 -156l-102 -300c-27 -79 -149 -38 -121 42l55 160l-186 -106c-30 -18 -69 -7 -87 23s-7 70 23 87l186 107l-167 33c-83 17 -58 142 25 126l310 -62l271 157l-271 157l-310 -62c-4 -1 -9 -1 -13 -1c-76 0 -87 112 -12 127l167 33l-186 107
c-30 17 -41 57 -23 87c18 31 57 41 87 23l186 -106l-55 160c-28 80 94 121 121 42l102 -300l271 -156v313l-208 238c-56 63 41 148 96 84l112 -128v214c0 35 29 64 64 64s64 -29 64 -64v-214l112 128c55 64 152 -21 96 -84l-208 -238v-313l271 156l102 300
c27 79 149 38 121 -42l-55 -160l186 106c30 18 69 7 87 -23s7 -70 -23 -87l-186 -107l167 -33c75 -15 64 -127 -12 -127c-4 0 -9 0 -13 1l-310 62l-271 -157l271 -157l310 62c83 16 108 -109 25 -126z" />
</svg>