<svg width="1536" height="1536" xmlns="http://www.w3.org/2000/svg">
    <path d="M1566 1117l-167 33 186 107c30 17 41 57 23 87s-57 41-87 23l-186-106 55 160c28 80-94 121-121 42l-102-300-271-156v313l208 238c56 63-41 148-96 84l-112-128v214c0 35-29 64-64 64s-64-29-64-64v-214l-112 128c-55 64-152-21-96-84l208-238v-313l-271 156-102 300c-27 79-149 38-121-42l55-160-186 106c-30 18-69 7-87-23s-7-70 23-87l186-107-167-33c-83-17-58-142 25-126l310 62 271-157-271-157-310 62c-4 1-9 1-13 1-76 0-87-112-12-127l167-33L79 535c-30-17-41-57-23-87 18-31 57-41 87-23l186 106-55-160c-28-80 94-121 121-42l102 300 271 156V472L560 234c-56-63 41-148 96-84l112 128V64c0-35 29-64 64-64s64 29 64 64v214l112-128c55-64 152 21 96 84L896 472v313l271-156 102-300c27-79 149-38 121 42l-55 160 186-106c30-18 69-7 87 23s7 70-23 87l-186 107 167 33c75 15 64 127-12 127-4 0-9 0-13-1l-310-62-271 157 271 157 310-62c83-16 108 109 25 126z"/>
</svg>
