<svg xmlns="http://www.w3.org/2000/svg" width="1536" height="1796">
    <path style="marker:none" d="M1051.347 1152.113c103.937-115.682 29.842-287.282-165.5-383.287 6.986 6.246 44.078-23.73 82.94-66.96 38.853-43.228 64.693-83.335 57.736-89.587-195.342-96.005-437.94-80.061-541.885 35.61-103.935 115.68-29.843 287.276 165.51 383.28-6.989-6.245-44.088 23.73-82.95 66.96-38.836 43.229-64.694 83.337-57.734 89.588 195.35 96.005 437.945 80.062 541.882-35.604zm-904.288-804.58c-227.76 253.5-65.39 629.529 362.694 839.913-15.262-13.694-96.631 51.996-181.76 146.726-85.134 94.73-141.78 182.626-126.535 196.322 428.073 210.383 959.695 175.447 1187.484-78.024 227.761-253.5 65.383-629.536-362.693-839.92 15.244 13.697 96.614-51.996 181.742-146.726 85.134-94.73 141.78-182.625 126.538-196.32C906.453 59.123 374.842 94.059 147.06 347.535z" fill-rule="evenodd"/>
</svg>
