<svg xmlns="http://www.w3.org/2000/svg" width="1536" height="1796" viewBox="0 0 1536 1796">
    <path d="M492.227 643.861H974.85v622.123H492.364V643.86zm560.252 356.282h341.207v667.342h-341.207zm-961.616 265.84h319.146V644H90.932l-.137 622.122zm886.59 401.502H93.33l.137-326.272h883.987v326.34zm77.56-1023.623h341.209v279.2h-341.208v-279.2zM1454.87 427.9L763.275 138.49c-13.43-9.25-95.375-9.25-111.475 0L26.459 430.71c-19.664 9.113-30.01 30.49-25.352 51.73C5.903 503.953 93.193 565 93.193 565h1303.166s93.386-66.94 93.386-92.632c0-21.72-14.936-39.465-34.942-44.536z"/>
</svg>
