<svg xmlns="http://www.w3.org/2000/svg" width="1536" height="1536" viewBox="0 0 1536.0001 1536">
    <path d="M492.227 640.308H974.85v622.123H492.364V640.307zm560.252 356.282h341.207v667.342h-341.207V996.59zM90.863 1262.43h319.146V640.447H90.932l-.137 622.122zm886.59 401.502H93.33l.137-326.272h883.987V1664zm77.56-1023.623h341.209v279.2h-341.208v-279.2zm399.858-215.962l-691.596-289.41c-13.43-9.25-95.375-9.25-111.475 0L26.459 427.157c-19.664 9.113-30.01 30.49-25.352 51.73 4.796 21.513 92.086 82.56 92.086 82.56h1303.166s93.386-66.94 93.386-92.632c0-21.72-14.936-39.465-34.942-44.536z"/>
</svg>
