<svg xmlns="http://www.w3.org/2000/svg" width="1536" height="1792">
    <path d="M550.325 675.7h415.82v536.01H550.443V675.7zm482.703 306.966h293.978v574.97h-293.978v-574.97zM204.517 1211.71h274.97V675.819H204.576l-.118 536.009zm763.871 345.926H206.642l.118-281.11h761.628v281.169zm66.824-881.935h293.979v240.554h-293.979V675.701zm344.51-186.069l-595.867-249.35c-11.57-7.97-82.173-7.97-96.045 0l-538.783 251.77c-16.942 7.852-25.856 26.27-21.842 44.57 4.132 18.536 79.339 71.133 79.339 71.133h1122.785s80.46-57.674 80.46-79.81c0-18.714-12.869-34.003-30.106-38.372z"/>
</svg>
