<svg width="1536" height="1536" xmlns="http://www.w3.org/2000/svg">
    <path d="M1191 408h177l-72-218-12-47c-1-8-2-14-2-20h-4l-3 20c-3 12-4 27-11 47zM736 1440c0 9-4 17-10 24l-319 319c-7 6-15 9-23 9s-16-3-23-9L41 1463c-9-10-12-23-7-35s17-20 30-20h192V32c0-18 14-32 32-32h192c18 0 32 14 32 32v1376h192c18 0 32 14 32 32zm836 119v233H988v-90l369-529c8-12 16-22 21-27l11-9v-3c-4 0-8 1-14 1-8 2-18 3-30 3h-232v115H993v-229h567v89l-369 530c-6 9-14 18-21 26l-11 11v2l14-2c9-2 18-2 30-2h248v-119h121zm89-897v106h-288V662h75l-47-144h-243l-47 144h75v106H899V662h70L1199 0h162l230 662h70z"/>
</svg>
