<svg width="1536" height="1536" xmlns="http://www.w3.org/2000/svg">
    <path d="M1346 1313c0-82-67-169-147-169-70 0-114 57-114 131 0 72 46 133 141 133 65 0 120-39 120-95zm-610 127c0 9-4 17-10 24l-319 319c-7 6-15 9-23 9s-16-3-23-9L41 1463c-9-10-12-23-7-35s17-20 30-20h192V32c0-18 14-32 32-32h192c18 0 32 14 32 32v1376h192c18 0 32 14 32 32zm750-69c0 202-110 421-348 421-45 0-82-7-108-16-16-5-30-10-42-15l39-113c9 4 20 8 31 11 20 7 46 13 75 13 120 0 182-100 201-204h-2c-28 30-87 51-146 51-145 0-240-114-240-244 0-138 106-251 253-251 159 0 287 130 287 347zm-30-717v114H987V654h167V222c0-13 1-26 1-36v-16h-2l-7 12c-5 8-13 18-26 31l-62 58-82-86L1168 0h123v654h165z"/>
</svg>
