<?xml version="1.0" standalone="no"?>
<svg width="1536px" height="1536px" version="1.1" xmlns="http://www.w3.org/2000/svg">
    <path transform="scale(1, -1) translate(0, -1536)" glyph-name="sort_amount_asc" unicode="&#xf160;" horiz-adv-x="1792" 

d="M736 96c0 -9 -4 -17 -10 -24l-319 -319c-7 -6 -15 -9 -23 -9s-16 3 -23 9l-320 320c-9 10 -12 23 -7 35s17 20 30 20h192v1376c0 18 14 32 32 32h192c18 0 32 -14 32 -32v-1376h192v0c18 0 32 -14 32 -32zM1792 -32v-192c0 -18 -14 -32 -32 -32h-832c-18 0 -32 14 -32 32
v192c0 18 14 32 32 32h832c18 0 32 -14 32 -32zM1600 480v-192c0 -18 -14 -32 -32 -32h-640c-18 0 -32 14 -32 32v192c0 18 14 32 32 32h640c18 0 32 -14 32 -32zM1408 992v-192c0 -18 -14 -32 -32 -32h-448c-18 0 -32 14 -32 32v192c0 18 14 32 32 32h448
c18 0 32 -14 32 -32zM1216 1504v-192c0 -18 -14 -32 -32 -32h-256c-18 0 -32 14 -32 32v192c0 18 14 32 32 32h256c18 0 32 -14 32 -32z" />
</svg>