<svg width="1536" height="1536" xmlns="http://www.w3.org/2000/svg">
    <path d="M1216 1568v192c0 18-14 32-32 32H928c-18 0-32-14-32-32v-192c0-18 14-32 32-32h256c18 0 32 14 32 32zm-480-128c0 9-4 17-10 24l-319 319c-7 6-15 9-23 9s-16-3-23-9L41 1463c-9-10-12-23-7-35s17-20 30-20h192V32c0-18 14-32 32-32h192c18 0 32 14 32 32v1376h192c18 0 32 14 32 32zm672-384v192c0 18-14 32-32 32H928c-18 0-32-14-32-32v-192c0-18 14-32 32-32h448c18 0 32 14 32 32zm192-512v192c0 18-14 32-32 32H928c-18 0-32-14-32-32V544c0-18 14-32 32-32h640c18 0 32 14 32 32zm192-512v192c0 18-14 32-32 32H928c-18 0-32-14-32-32V32c0-18 14-32 32-32h832c18 0 32 14 32 32z"/>
</svg>
