<?xml version="1.0" standalone="no"?>
<svg width="1536px" height="1536px" version="1.1" xmlns="http://www.w3.org/2000/svg">
    <path transform="scale(1, -1) translate(0, -1536)" glyph-name="sort_alphabet_desc" unicode="&#xf15e;" horiz-adv-x="1664" 

d="M1191 104h177l-72 218l-12 47c-1 8 -2 14 -2 20h-4l-3 -20c-3 -12 -4 -27 -11 -47zM736 96c0 -9 -4 -17 -10 -24l-319 -319c-7 -6 -15 -9 -23 -9s-16 3 -23 9l-320 320c-9 10 -12 23 -7 35s17 20 30 20h192v1376c0 18 14 32 32 32h192c18 0 32 -14 32 -32v-1376h192v0
c18 0 32 -14 32 -32zM1661 -150v-106h-288v106h75l-47 144h-243l-47 -144h75v-106h-287v106h70l230 662h162l230 -662h70zM1572 1001v-233h-584v90l369 529c8 12 16 22 21 27l11 9v3c-4 0 -8 -1 -14 -1c-8 -2 -18 -3 -30 -3h-232v-115h-120v229h567v-89l-369 -530
c-6 -9 -14 -18 -21 -26l-11 -10v-3l14 3c9 1 18 1 30 1h248v119h121z" />
</svg>