<?xml version="1.0" standalone="no"?>
<svg width="1536px" height="1536px" version="1.1" xmlns="http://www.w3.org/2000/svg">
    <path transform="scale(1, -1) translate(0, -1536)" glyph-name="sort_numeric_desc" unicode="&#xf163;" 

d="M1346 1247c0 82 -67 169 -147 169c-70 0 -114 -57 -114 -131c0 -72 46 -133 141 -133c65 0 120 39 120 95zM736 96c0 -9 -4 -17 -10 -24l-319 -319c-7 -6 -15 -9 -23 -9s-16 3 -23 9l-320 320c-9 10 -12 23 -7 35s17 20 30 20h192v1376c0 18 14 32 32 32h192
c18 0 32 -14 32 -32v-1376h192v0c18 0 32 -14 32 -32zM1456 -142v-114h-469v114h167v432c0 13 1 26 1 36v16h-2l-7 -12c-5 -8 -13 -18 -26 -31l-62 -58l-82 86l192 185h123v-654h165zM1486 1189c0 -202 -110 -421 -348 -421c-45 0 -82 7 -108 16c-16 5 -30 10 -42 15l39 113
c9 -4 20 -8 31 -11c20 -7 46 -13 75 -13c120 0 182 100 201 204h-2c-28 -30 -87 -51 -146 -51c-145 0 -240 114 -240 244c0 138 106 251 253 251c159 0 287 -130 287 -347z" />
</svg>