<svg width="1536" height="1536" xmlns="http://www.w3.org/2000/svg">
    <path d="M784 1372l16-241-16-523c-1-13-11-24-24-24-12 0-23 11-23 24l-14 523 14 241c1 13 11 23 23 23 13 0 23-10 24-23zm296-29l11-211-12-586c0-10-5-19-13-24-5-3-10-5-16-5s-11 2-16 5c-8 5-13 14-13 24l-1 6-10 579s0 1 11 236v1c0 6 2 12 6 17 6 7 14 11 23 11 8 0 15-4 20-9 6-5 9-12 9-20zM35 1003l20 128-20 126c-1 5-4 9-9 9s-8-4-9-9L0 1131l17-128c1-5 4-9 9-9s8 4 9 9zm86-79l26 207-26 203c-1 5-5 9-10 9s-9-4-9-10l-23-202 23-207c0-5 4-9 9-9s9 4 10 9zm280 453zM213 886l25 245-25 237c0 6-5 11-11 11s-11-5-12-11l-21-237 21-245c1-7 6-12 12-12s11 5 11 12zm94-7l23 252-23 244c-1 8-7 13-14 13s-13-5-13-13l-21-244 21-252c0-8 6-13 13-13s13 5 14 13zm94 18l21 234-21 246c-1 9-8 16-16 16s-15-7-15-16l-20-246 20-234c0-8 7-15 15-15s15 7 16 15zm383 475zM495 751l21 380-21 246c0 10-8 18-17 18-10 0-17-8-18-18l-18-246 18-380c1-10 8-18 18-18 9 0 17 8 17 18zm94-86l19 468-19 244c0 11-9 19-19 19-11 0-19-8-20-19l-16-244 16-468c1-11 9-19 20-19 10 0 19 8 19 19zm98-40l18 506-18 242c-1 12-10 21-22 21-11 0-20-9-21-21l-16-242 16-506c0-12 10-22 21-22 12 0 21 10 22 22zm392 742zM881 621l15 510-15 239c0 14-11 25-25 25s-24-11-25-25l-14-239 14-510c0-14 11-25 25-25s25 11 25 25zm99 19l14 492-14 236c0 15-12 27-27 27s-27-12-28-27l-12-236 12-492c1-16 13-28 28-28s26 12 27 28zm212 492l-14 231c0 17-14 31-31 31s-31-14-32-31l-6-114-6-117 12-636v-3c1-9 5-18 12-24 5-4 12-7 20-7 5 0 11 2 15 5 9 5 15 15 16 26zm1112-19c0 156-127 282-283 282h-786c-17-2-31-15-31-33V463c0-17 6-25 28-33 55-22 117-34 181-34 261 0 475 200 498 455 34-14 71-22 110-22 156 0 283 127 283 284z"/>
</svg>
