<?xml version="1.0" standalone="no"?>
<svg width="1536px" height="1536px" version="1.1" xmlns="http://www.w3.org/2000/svg">
    <path transform="scale(1, -1) translate(0, -1536)" glyph-name="soundcloud" unicode="&#xf1be;" horiz-adv-x="2304" 

d="M784 164l16 241l-16 523c-1 13 -11 24 -24 24c-12 0 -23 -11 -23 -24l-14 -523l14 -241c1 -13 11 -23 23 -23c13 0 23 10 24 23zM1080 193l11 211l-12 586c0 10 -5 19 -13 24c-5 3 -10 5 -16 5s-11 -2 -16 -5c-8 -5 -13 -14 -13 -24l-1 -6l-10 -579s0 -1 11 -236v-1
c0 -6 2 -12 6 -17c6 -7 14 -11 23 -11c8 0 15 4 20 9c6 5 9 12 9 20zM35 533l20 -128l-20 -126c-1 -5 -4 -9 -9 -9s-8 4 -9 9l-17 126l17 128c1 5 4 9 9 9s8 -4 9 -9zM121 612l26 -207l-26 -203c-1 -5 -5 -9 -10 -9s-9 4 -9 10l-23 202l23 207c0 5 4 9 9 9s9 -4 10 -9z
M401 159v0v0zM213 650l25 -245l-25 -237c0 -6 -5 -11 -11 -11s-11 5 -12 11l-21 237l21 245c1 7 6 12 12 12s11 -5 11 -12zM307 657l23 -252l-23 -244c-1 -8 -7 -13 -14 -13s-13 5 -13 13l-21 244l21 252c0 8 6 13 13 13s13 -5 14 -13zM401 639l21 -234l-21 -246
c-1 -9 -8 -16 -16 -16s-15 7 -15 16l-20 246l20 234c0 8 7 15 15 15s15 -7 16 -15zM784 164v0v0zM495 785l21 -380l-21 -246v0c0 -10 -8 -18 -17 -18c-10 0 -17 8 -18 18l-18 246l18 380c1 10 8 18 18 18c9 0 17 -8 17 -18zM589 871l19 -468l-19 -244v0
c0 -11 -9 -19 -19 -19c-11 0 -19 8 -20 19l-16 244l16 468c1 11 9 19 20 19c10 0 19 -8 19 -19zM687 911l18 -506l-18 -242v0c-1 -12 -10 -21 -22 -21c-11 0 -20 9 -21 21l-16 242l16 506c0 12 10 22 21 22c12 0 21 -10 22 -22zM1079 169v0v0v0v0v0v0zM881 915l15 -510
l-15 -239v0c0 -14 -11 -25 -25 -25s-24 11 -25 25l-14 239l14 510c0 14 11 25 25 25s25 -11 25 -25zM980 896l14 -492l-14 -236v0c0 -15 -12 -27 -27 -27s-27 12 -28 27l-12 236l12 492c1 16 13 28 28 28s26 -12 27 -28zM1192 404l-14 -231v0v0c0 -17 -14 -31 -31 -31
s-31 14 -32 31l-6 114l-6 117l12 636v3c1 9 5 18 12 24c5 4 12 7 20 7c5 0 11 -2 15 -5c9 -5 15 -15 16 -26zM2304 423c0 -156 -127 -282 -283 -282h-786c-17 2 -31 15 -31 33v899c0 17 6 25 28 33c55 22 117 34 181 34c261 0 475 -200 498 -455c34 14 71 22 110 22
c156 0 283 -127 283 -284z" />
</svg>