<?xml version="1.0" standalone="no"?>
<svg width="1536px" height="1536px" version="1.1" xmlns="http://www.w3.org/2000/svg">
    <path transform="scale(1, -1) translate(0, -1536)" glyph-name="space_shuttle" unicode="&#xf197;" horiz-adv-x="2176" 

d="M620 416c-69 -40 -163 -64 -268 -64h-128v64h-64c-18 0 -32 36 -32 80c0 18 3 35 7 49c-77 2 -135 15 -135 31s58 29 135 31c-4 14 -7 31 -7 49c0 44 14 80 32 80h64v64h128c105 0 199 -24 268 -64h1113c74 -13 141 -24 187 -32c192 -32 256 -96 256 -128
s-64 -96 -256 -128c-46 -8 -113 -19 -187 -32h-1113zM1739 668c32 -22 53 -55 53 -92s-21 -70 -53 -92l81 -30c41 29 68 73 68 122s-27 93 -68 122zM625 400h1015s-217 -38 -456 -80c-128 0 -224 -96 -224 -96l-288 -288s-97 -64 -160 -64h-96l-93 464h29
c102 0 199 23 273 64zM352 816h-29l93 464h96c65 0 128 -32 160 -64l288 -288c0 0 96 -96 224 -96c239 -42 456 -80 456 -80h-1015c-74 41 -171 64 -273 64z" />
</svg>