<svg width="1536" height="1536" xmlns="http://www.w3.org/2000/svg">
    <path d="M620 1120c-69 40-163 64-268 64H224v-64h-64c-18 0-32-36-32-80 0-18 3-35 7-49-77-2-135-15-135-31s58-29 135-31c-4-14-7-31-7-49 0-44 14-80 32-80h64v-64h128c105 0 199 24 268 64h1113c74 13 141 24 187 32 192 32 256 96 256 128s-64 96-256 128c-46 8-113 19-187 32H620zm1119-252c32 22 53 55 53 92s-21 70-53 92l81 30c41-29 68-73 68-122s-27-93-68-122zM625 1136h1015s-217 38-456 80c-128 0-224 96-224 96l-288 288s-97 64-160 64h-96l-93-464h29c102 0 199-23 273-64zM352 720h-29l93-464h96c65 0 128 32 160 64l288 288s96 96 224 96c239 42 456 80 456 80H625c-74-41-171-64-273-64z"/>
</svg>
