<svg xmlns="http://www.w3.org/2000/svg" viewBox="0 0 1536 1792" height="1792" width="1536">
    <path d="M139.577 1624.404c-27.713-6.505-68.288-30.388-88.046-51.824-10.035-10.886-24.608-33.224-32.385-49.639-12.804-27.027-14.135-33.853-14.093-72.293.04-36.788 1.668-45.923 12.215-68.523 22.6-48.423 53.845-78.195 103.49-98.609 22.413-9.216 29.222-9.393 445.33-11.593l422.57-2.234 18.57-12.292c43.534-28.816 52.467-91.602 18.533-130.251-29.076-33.115-11.754-31.422-350.534-34.255-298.058-2.493-304.513-2.733-339.578-12.64C176.58 1035.308 59.406 916.158 15.206 754.402c-13.641-49.919-13.812-152.906-.343-206.318 44.919-178.123 182.703-306.428 362.36-337.432 34.025-5.871 89.281-6.703 374.494-5.634l334.579 1.254 30.118 14.267c73.38 34.76 116.576 114.698 102.597 189.868-14.007 75.318-70.226 132.78-143.378 146.551-14.799 2.786-145.579 4.569-339.579 4.63-300.407.093-316.407.504-334.225 8.593-37.135 16.86-58.148 64.474-46.14 104.551 8.41 28.073 37.045 54.215 66.191 60.432 16.156 3.446 111.669 5.05 300.67 5.05 235.772 0 282.12 1.058 311.434 7.105 262.2 54.09 418.153 311.561 342.114 564.817-40.764 135.77-148.472 246.776-284.439 293.149-70.284 23.971-73.677 24.125-520.901 23.64-231.596-.25-421.474-2.242-431.181-4.521zm1208.105 1.276c0-2.031 15.113-17.033 33.586-33.336 86.424-76.278 142.15-164.834 170.706-271.272l12.587-46.915 156.298-2.234c175.409-2.507 171.87-1.85 200.505-37.277l13.878-17.17v-601.54l-13.83-17.17c-7.605-9.444-21.68-21.662-31.276-27.15l-17.448-9.98-266.707-.072c-160.758-.045-267.735-1.734-269.293-4.256-1.422-2.3 5.331-16.43 15.006-31.398 26.953-41.702 36.841-74.82 39.402-131.974 3.029-67.602-11.521-119.985-46.148-166.14-5.869-7.823-10.67-16.368-10.67-18.99 0-3.331 95.381-4.766 316.844-4.766 345.294 0 351.57.389 416.64 25.653 101.518 39.42 180.255 129.356 212.247 242.435 7.71 27.251 8.216 54.685 8.216 444.58 0 389.896-.507 417.33-8.216 444.58-31.992 113.08-110.729 203.016-212.247 242.435-64.936 25.215-71.939 25.653-409.937 25.653-170.579 0-310.143-1.662-310.143-3.693z" stroke-width="4.468"/>
</svg>
