<svg xmlns="http://www.w3.org/2000/svg" width="1536" height="1792" viewBox="0 0 1536 1792">
    <path d="M2048 836c0 25-10 50-28 68l-724 724-136 136c-18 18-43 28-68 28s-50-10-68-28l-136-136-362-362c-18-18-28-43-28-68s10-50 28-68l136-136c18-18 43-28 68-28s50 10 68 28l294 295 656-657c18-18 43-28 68-28s50 10 68 28l136 136c18 18 28 43 28 68z"/>
    <g style="line-height:125%">
        <path d="M-.839 656.087v-72.773h48.267l158.169-454.456h110.644l158.168 454.456h48.268v72.773H324.409v-72.773h51.98l-32.673-98.762H177.379l-32.673 98.762h51.98v72.773zm200.495-247.278H321.44l-49.753-149.257q-3.713-11.882-5.94-23.02-2.228-11.881-2.97-17.08l-.743-5.94h-2.228q-2.228 20.05-9.653 46.04zm368.701 247.278v-72.773h63.119v-380.94h-63.12v-73.516h242.08q59.406 0 94.307 14.11 36.387 14.108 57.921 46.781 22.278 31.931 22.278 75 0 37.13-17.08 66.832-17.079 29.703-47.525 46.04v1.485q42.327 12.624 63.862 46.782 21.535 34.159 21.535 77.97 0 52.724-29.703 91.338t-75 51.98q-31.189 8.91-78.713 8.91zm160.396-311.882h92.822q30.446 0 47.525-18.564 17.08-19.307 17.08-50.495 0-43.812-30.447-60.149-17.079-8.168-45.297-8.168h-81.683zm0 233.911h98.02q23.02 0 37.871-5.94 20.05-8.169 31.189-28.218 11.138-20.792 11.138-46.04 0-34.158-20.792-54.95-20.05-21.535-55.693-21.535H728.753zm401.058 8.169q-77.97-79.456-77.97-196.04 0-116.585 77.97-193.07 78.713-77.228 193.812-77.228 27.476 0 59.406 5.198 32.674 5.198 66.832 16.337 34.159 10.396 56.436 32.673 23.02 22.278 23.02 51.238v71.287h-88.367v-40.84q0-18.565-20.05-31.188-20.049-12.624-44.554-17.08-23.762-4.455-48.267-4.455-77.228 0-126.98 50.495-49.01 49.753-49.01 132.178 0 88.367 51.237 142.575 51.238 53.465 129.95 53.465 20.793 0 44.555-3.713 23.763-3.712 46.783-16.336 23.02-12.624 23.02-31.931v-40.842H1536v72.03q0 27.475-22.277 49.01-21.535 21.535-55.693 32.673-33.416 11.14-66.832 16.337-33.416 5.94-63.862 5.94-118.812 0-197.525-78.712z" style="-inkscape-font-specification:'Museo Slab, Semi-Bold';font-variant-ligatures:normal;font-variant-caps:normal;font-variant-numeric:normal;font-feature-settings:normal;text-align:start" aria-label="ABC" font-weight="600" font-size="1084.105" font-family="Museo Slab" letter-spacing="0" word-spacing="0" stroke-width="3.868"/>
    </g>
</svg>
