<?xml version="1.0" standalone="no"?>
<svg width="1536px" height="1536px" version="1.1" xmlns="http://www.w3.org/2000/svg">
    <path transform="scale(1, -1) translate(0, -1536)" glyph-name="spinner" unicode="&#xf110;" horiz-adv-x="1792" 

d="M526 142c0 -70 -57 -128 -128 -128c-70 0 -128 58 -128 128c0 71 58 128 128 128c71 0 128 -57 128 -128zM1024 -64c0 -71 -57 -128 -128 -128s-128 57 -128 128s57 128 128 128s128 -57 128 -128zM320 640c0 -71 -57 -128 -128 -128s-128 57 -128 128s57 128 128 128
s128 -57 128 -128zM1522 142c0 -70 -58 -128 -128 -128c-71 0 -128 58 -128 128c0 71 57 128 128 128c70 0 128 -57 128 -128zM558 1138c0 -88 -72 -160 -160 -160s-160 72 -160 160s72 160 160 160s160 -72 160 -160zM1728 640c0 -71 -57 -128 -128 -128s-128 57 -128 128
s57 128 128 128s128 -57 128 -128zM1088 1344c0 -106 -86 -192 -192 -192s-192 86 -192 192s86 192 192 192s192 -86 192 -192zM1618 1138c0 -124 -101 -224 -224 -224c-124 0 -224 100 -224 224c0 123 100 224 224 224c123 0 224 -101 224 -224z" />
</svg>