<svg width="1536" height="1536" xmlns="http://www.w3.org/2000/svg">
    <path d="M526 1394c0 70-57 128-128 128-70 0-128-58-128-128 0-71 58-128 128-128 71 0 128 57 128 128zm498 206c0 71-57 128-128 128s-128-57-128-128 57-128 128-128 128 57 128 128zM320 896c0 71-57 128-128 128S64 967 64 896s57-128 128-128 128 57 128 128zm1202 498c0 70-58 128-128 128-71 0-128-58-128-128 0-71 57-128 128-128 70 0 128 57 128 128zM558 398c0 88-72 160-160 160s-160-72-160-160 72-160 160-160 160 72 160 160zm1170 498c0 71-57 128-128 128s-128-57-128-128 57-128 128-128 128 57 128 128zm-640-704c0 106-86 192-192 192s-192-86-192-192S790 0 896 0s192 86 192 192zm530 206c0 124-101 224-224 224-124 0-224-100-224-224 0-123 100-224 224-224 123 0 224 101 224 224z"/>
</svg>
