<?xml version="1.0" standalone="no"?>
<svg width="1536px" height="1536px" version="1.1" xmlns="http://www.w3.org/2000/svg">
    <path transform="scale(1, -1) translate(0, -1536)" glyph-name="spotify" unicode="&#xf1bc;" 

d="M1127 326c0 28 -11 39 -30 51c-129 77 -279 115 -447 115c-98 0 -192 -13 -287 -34c-23 -5 -42 -20 -42 -52c0 -25 19 -49 49 -49c9 0 25 5 37 8c78 16 160 27 243 27c147 0 286 -36 397 -103c12 -7 20 -11 33 -11c25 0 47 20 47 48zM1223 541c0 27 -10 46 -35 61
c-153 91 -347 141 -548 141c-129 0 -217 -18 -303 -42c-32 -9 -48 -31 -48 -64s27 -60 60 -60c14 0 22 4 37 8c70 19 154 33 251 33c190 0 363 -50 488 -124c11 -6 22 -13 38 -13c34 0 60 27 60 60zM1331 789c0 37 -16 56 -40 70c-173 101 -410 148 -636 148
c-133 0 -255 -15 -364 -47c-28 -8 -54 -32 -54 -74c0 -41 31 -73 72 -73c15 0 29 5 40 8c97 27 202 37 307 37c208 0 424 -46 563 -129c14 -8 24 -12 40 -12c38 0 72 30 72 72zM1536 640c0 -424 -344 -768 -768 -768s-768 344 -768 768s344 768 768 768s768 -344 768 -768z
" />
</svg>