<svg width="1536" height="1536" xmlns="http://www.w3.org/2000/svg">
    <path d="M1127 1210c0-28-11-39-30-51-129-77-279-115-447-115-98 0-192 13-287 34-23 5-42 20-42 52 0 25 19 49 49 49 9 0 25-5 37-8 78-16 160-27 243-27 147 0 286 36 397 103 12 7 20 11 33 11 25 0 47-20 47-48zm96-215c0-27-10-46-35-61-153-91-347-141-548-141-129 0-217 18-303 42-32 9-48 31-48 64s27 60 60 60c14 0 22-4 37-8 70-19 154-33 251-33 190 0 363 50 488 124 11 6 22 13 38 13 34 0 60-27 60-60zm108-248c0-37-16-56-40-70-173-101-410-148-636-148-133 0-255 15-364 47-28 8-54 32-54 74 0 41 31 73 72 73 15 0 29-5 40-8 97-27 202-37 307-37 208 0 424 46 563 129 14 8 24 12 40 12 38 0 72-30 72-72zm205 149c0 424-344 768-768 768S0 1320 0 896s344-768 768-768 768 344 768 768z"/>
</svg>
