<?xml version="1.0" standalone="no"?>
<svg width="1536px" height="1536px" version="1.1" xmlns="http://www.w3.org/2000/svg">
    <path transform="scale(1, -1) translate(0, -1536)" glyph-name="star" unicode="&#xf005;" horiz-adv-x="1664" 

d="M1664 889c0 -18 -13 -35 -26 -48l-363 -354l86 -500c1 -7 1 -13 1 -20c0 -26 -12 -50 -41 -50c-14 0 -28 5 -40 12l-449 236l-449 -236c-13 -7 -26 -12 -40 -12c-29 0 -42 24 -42 50c0 7 1 13 2 20l86 500l-364 354c-12 13 -25 30 -25 48c0 30 31 42 56 46l502 73
l225 455c9 19 26 41 49 41s40 -22 49 -41l225 -455l502 -73c24 -4 56 -16 56 -46z" />
</svg>