<?xml version="1.0" standalone="no"?>
<svg width="1536px" height="1536px" version="1.1" xmlns="http://www.w3.org/2000/svg">
    <path transform="scale(1, -1) translate(0, -1536)" glyph-name="star_half_o" unicode="&#xf123;" horiz-adv-x="1664" 

d="M1186 579l257 250l-356 52l-66 10l-30 60l-159 322v-963l59 -31l318 -168l-60 355l-12 66zM1638 841l-363 -354l86 -500c7 -44 -9 -70 -40 -70c-11 0 -25 4 -40 12l-449 236l-449 -236c-15 -8 -29 -12 -40 -12c-31 0 -47 26 -40 70l86 500l-364 354c-43 43 -29 85 31 94
l502 73l225 455c13 27 31 41 49 41v0c18 0 35 -14 49 -41l225 -455l502 -73c60 -9 74 -51 30 -94z" />
</svg>