<?xml version="1.0" standalone="no"?>
<svg width="1536px" height="1536px" version="1.1" xmlns="http://www.w3.org/2000/svg">
    <path transform="scale(1, -1) translate(0, -1536)" glyph-name="steam" unicode="&#xf1b6;" horiz-adv-x="1792" 

d="M1582 954c0 -135 -110 -244 -244 -244c-135 0 -244 109 -244 244s109 244 244 244c134 0 244 -109 244 -244zM812 212c0 139 -111 250 -250 250c-18 0 -36 -2 -54 -6l104 -42c102 -41 152 -156 111 -258s-157 -152 -259 -110c-41 16 -82 33 -123 49
c42 -79 125 -133 221 -133c139 0 250 111 250 250zM1642 953c0 168 -137 305 -305 305c-169 0 -306 -137 -306 -305c0 -169 137 -305 306 -305c168 0 305 136 305 305zM1792 953c0 -252 -204 -455 -455 -455l-437 -319c-16 -172 -162 -307 -338 -307
c-162 0 -299 115 -332 268l-230 92v429l389 -157c51 31 110 48 173 48c12 0 24 -1 35 -2l284 407c2 249 206 451 456 451c251 0 455 -204 455 -455z" />
</svg>