<?xml version="1.0" standalone="no"?>
<svg width="1536px" height="1536px" version="1.1" xmlns="http://www.w3.org/2000/svg">
    <path transform="scale(1, -1) translate(0, -1536)" glyph-name="steam_square" unicode="&#xf1b7;" 

d="M1242 889c0 106 -87 193 -194 193c-106 0 -193 -87 -193 -193c0 -107 87 -193 193 -193c107 0 194 86 194 193zM632 301c0 -110 -88 -198 -198 -198c-76 0 -142 43 -175 106c33 -13 65 -26 98 -40c80 -32 172 7 205 88c32 80 -7 172 -88 204l-82 33c13 3 28 5 42 5
c110 0 198 -88 198 -198zM1536 1120v-960c0 -159 -129 -288 -288 -288h-960c-159 0 -288 129 -288 288v153l172 -69c26 -121 134 -212 262 -212c140 0 255 107 268 243l345 252c200 0 361 162 361 360c0 200 -161 361 -361 361c-197 0 -358 -160 -360 -357l-225 -322
c-9 1 -18 1 -28 1c-50 0 -97 -13 -137 -37l-297 119v468c0 159 129 288 288 288h960c159 0 288 -129 288 -288zM1289 887c0 -133 -108 -241 -242 -241c-133 0 -241 108 -241 241c0 134 108 242 241 242c134 0 242 -108 242 -242z" />
</svg>