<svg width="1536" height="1536" xmlns="http://www.w3.org/2000/svg">
    <path d="M1242 647c0-106-87-193-194-193-106 0-193 87-193 193 0 107 87 193 193 193 107 0 194-86 194-193zm-610 588c0 110-88 198-198 198-76 0-142-43-175-106 33 13 65 26 98 40 80 32 172-7 205-88 32-80-7-172-88-204l-82-33c13-3 28-5 42-5 110 0 198 88 198 198zm904-819v960c0 159-129 288-288 288H288c-159 0-288-129-288-288v-153l172 69c26 121 134 212 262 212 140 0 255-107 268-243l345-252c200 0 361-162 361-360 0-200-161-361-361-361-197 0-358 160-360 357L462 967c-9-1-18-1-28-1-50 0-97 13-137 37L0 884V416c0-159 129-288 288-288h960c159 0 288 129 288 288zm-247 233c0 133-108 241-242 241-133 0-241-108-241-241 0-134 108-242 241-242 134 0 242 108 242 242z"/>
</svg>
