<svg width="1536" height="1536" xmlns="http://www.w3.org/2000/svg">
    <path d="M1582 582c0 135-110 244-244 244-135 0-244-109-244-244s109-244 244-244c134 0 244 109 244 244zm-770 742c0-139-111-250-250-250-18 0-36 2-54 6l104 42c102 41 152 156 111 258s-157 152-259 110c-41-16-82-33-123-49 42 79 125 133 221 133 139 0 250-111 250-250zm830-741c0-168-137-305-305-305-169 0-306 137-306 305 0 169 137 305 306 305 168 0 305-136 305-305zm150 0c0 252-204 455-455 455l-437 319c-16 172-162 307-338 307-162 0-299-115-332-268L0 1304V875l389 157c51-31 110-48 173-48 12 0 24 1 35 2l284-407c2-249 206-451 456-451 251 0 455 204 455 455z"/>
</svg>
