<svg width="1536" height="1536" xmlns="http://www.w3.org/2000/svg">
    <path d="M1280 704c0-35-29-64-64-64s-64 29-64 64 29 64 64 64 64-29 64-64zm128 0c0 84-53 154-128 181v395c0 212-201 384-448 384s-448-172-448-384v-132C167 1121 0 961 0 768V256c0-35 29-64 64-64 6 0 11 1 16 2 22-39 64-66 112-66 71 0 128 57 128 128s-57 128-128 128c-23 0-45-7-64-18v402c0 141 144 256 320 256s320-115 320-256V366c-19 11-41 18-64 18-71 0-128-57-128-128s57-128 128-128c48 0 90 27 112 66 5-1 10-2 16-2 35 0 64 29 64 64v512c0 193-167 353-384 380v132c0 141 144 256 320 256s320-115 320-256V885c-75-27-128-97-128-181 0-106 86-192 192-192s192 86 192 192z"/>
</svg>
