<?xml version="1.0" standalone="no"?>
<svg width="1536px" height="1536px" version="1.1" xmlns="http://www.w3.org/2000/svg">
    <path transform="scale(1, -1) translate(0, -1536)" glyph-name="stethoscope" unicode="&#xf0f1;" horiz-adv-x="1408" 

d="M1280 832c0 35 -29 64 -64 64s-64 -29 -64 -64s29 -64 64 -64s64 29 64 64zM1408 832c0 -84 -53 -154 -128 -181v-395c0 -212 -201 -384 -448 -384s-448 172 -448 384v132c-217 27 -384 187 -384 380v512c0 35 29 64 64 64c6 0 11 -1 16 -2c22 39 64 66 112 66
c71 0 128 -57 128 -128s-57 -128 -128 -128c-23 0 -45 7 -64 18v-402c0 -141 144 -256 320 -256s320 115 320 256v402c-19 -11 -41 -18 -64 -18c-71 0 -128 57 -128 128s57 128 128 128c48 0 90 -27 112 -66c5 1 10 2 16 2c35 0 64 -29 64 -64v-512
c0 -193 -167 -353 -384 -380v-132c0 -141 144 -256 320 -256s320 115 320 256v395c-75 27 -128 97 -128 181c0 106 86 192 192 192s192 -86 192 -192z" />
</svg>