<?xml version="1.0" standalone="no"?>
<svg width="1536px" height="1536px" version="1.1" xmlns="http://www.w3.org/2000/svg">
    <path transform="scale(1, -1) translate(0, -1536)" glyph-name="street_view" unicode="&#xf21d;" 

d="M1408 0c0 -176 -365 -256 -704 -256s-704 80 -704 256c0 136 203 200 373 229c35 6 68 -17 74 -52s-17 -68 -52 -74c-206 -36 -264 -92 -267 -104c10 -34 202 -127 576 -127s566 93 576 129c-3 10 -61 66 -267 102c-35 6 -58 39 -52 74s39 58 74 52
c170 -29 373 -93 373 -229zM1024 896v-384c0 -35 -29 -64 -64 -64h-64v-384c0 -35 -29 -64 -64 -64h-256c-35 0 -64 29 -64 64v384h-64c-35 0 -64 29 -64 64v384c0 71 57 128 128 128h384c71 0 128 -57 128 -128zM928 1280c0 -124 -100 -224 -224 -224s-224 100 -224 224
s100 224 224 224s224 -100 224 -224z" />
</svg>