<svg width="1536" height="1536" xmlns="http://www.w3.org/2000/svg">
    <path d="M1408 1536c0 176-365 256-704 256S0 1712 0 1536c0-136 203-200 373-229 35-6 68 17 74 52s-17 68-52 74c-206 36-264 92-267 104 10 34 202 127 576 127s566-93 576-129c-3-10-61-66-267-102-35-6-58-39-52-74s39-58 74-52c170 29 373 93 373 229zm-384-896v384c0 35-29 64-64 64h-64v384c0 35-29 64-64 64H576c-35 0-64-29-64-64v-384h-64c-35 0-64-29-64-64V640c0-71 57-128 128-128h384c71 0 128 57 128 128zm-96-384c0 124-100 224-224 224S480 380 480 256 580 32 704 32s224 100 224 224z"/>
</svg>
