<svg width="1536" height="1536" xmlns="http://www.w3.org/2000/svg">
    <path d="M1760 896c18 0 32 14 32 32v64c0 18-14 32-32 32H32c-18 0-32-14-32-32v-64c0-18 14-32 32-32h1728zM483 832c-19-24-36-51-51-80-32-65-48-128-48-188 0-122 45-224 134-309s220-127 393-127c38 0 93 7 167 19 44 8 103 24 177 48 7 26 14 66 21 118 9 79 14 140 14 183 0 14-2 29-5 45l-12 3-84-6-14-2c-34-101-69-169-103-205-59-61-130-91-210-91-76 0-137 20-182 59s-67 88-67 146c0 49 22 95 66 140s137 88 279 129c48 14 105 36 173 66 36 17 68 34 95 52H483zm507 256h411c5 28 7 59 7 92 0 72-13 143-41 212-15 37-38 71-71 104-24 23-60 50-109 81-50 30-100 53-153 66-53 14-120 21-203 21-55 0-121-2-195-23l-140-40c-39-11-62-20-72-28-4-4-8-11-8-22v-13c0-8 2-60-2-156-2-50 2-85 2-105v-44l102-2c37 85 54 136 65 154 24 39 51 70 80 94s64 43 105 57c40 15 85 22 132 22 42 0 89-9 139-27 51-17 92-46 122-86 31-40 47-83 47-129 0-56-27-108-81-157-22-19-68-43-137-71z"/>
</svg>
