<?xml version="1.0" standalone="no"?>
<svg width="1536px" height="1536px" version="1.1" xmlns="http://www.w3.org/2000/svg">
    <path transform="scale(1, -1) translate(0, -1536)" glyph-name="strikethrough" unicode="&#xf0cc;" horiz-adv-x="1792" 

d="M1760 640c18 0 32 -14 32 -32v-64c0 -18 -14 -32 -32 -32h-1728c-18 0 -32 14 -32 32v64c0 18 14 32 32 32h1728zM483 704c-19 24 -36 51 -51 80c-32 65 -48 128 -48 188c0 122 45 224 134 309s220 127 393 127c38 0 93 -7 167 -19c44 -8 103 -24 177 -48
c7 -26 14 -66 21 -118c9 -79 14 -140 14 -183c0 -14 -2 -29 -5 -45l-12 -3l-84 6l-14 2c-34 101 -69 169 -103 205c-59 61 -130 91 -210 91c-76 0 -137 -20 -182 -59s-67 -88 -67 -146c0 -49 22 -95 66 -140s137 -88 279 -129c48 -14 105 -36 173 -66c36 -17 68 -34 95 -52
h-743zM990 448h411c5 -28 7 -59 7 -92c0 -72 -13 -143 -41 -212c-15 -37 -38 -71 -71 -104c-24 -23 -60 -50 -109 -81c-50 -30 -100 -53 -153 -66c-53 -14 -120 -21 -203 -21c-55 0 -121 2 -195 23l-140 40c-39 11 -62 20 -72 28c-4 4 -8 11 -8 22v13c0 8 2 60 -2 156
c-2 50 2 85 2 105v44l102 2c37 -85 54 -136 65 -154c24 -39 51 -70 80 -94s64 -43 105 -57c40 -15 85 -22 132 -22c42 0 89 9 139 27c51 17 92 46 122 86c31 40 47 83 47 129c0 56 -27 108 -81 157c-22 19 -68 43 -137 71z" />
</svg>