<?xml version="1.0" standalone="no"?>
<svg width="1536px" height="1536px" version="1.1" xmlns="http://www.w3.org/2000/svg">
    <path transform="scale(1, -1) translate(0, -1536)" glyph-name="stumbleupon_circle" unicode="&#xf1a3;" 

d="M866 697l90 27v62c0 106 -90 191 -196 191s-196 -84 -196 -190v-283c0 -26 -21 -47 -47 -47s-46 21 -46 47v120h-151v-122c0 -109 88 -196 197 -196c107 0 196 86 196 193v280c0 26 21 47 47 47c25 0 46 -21 46 -47v-54zM1199 502v122h-150v-126c0 -26 -21 -47 -47 -47
c-25 0 -46 21 -46 47v123l-90 -26l-60 28v-123c0 -107 89 -194 197 -194s196 87 196 196zM1536 640c0 -424 -344 -768 -768 -768s-768 344 -768 768s344 768 768 768s768 -344 768 -768z" />
</svg>