<?xml version="1.0" standalone="no"?>
<svg width="1536px" height="1536px" version="1.1" xmlns="http://www.w3.org/2000/svg">
    <path transform="scale(1, -1) translate(0, -1536)" glyph-name="stumbleupon" unicode="&#xf1a4;" horiz-adv-x="1920" 

d="M1062 824v118c0 56 -46 102 -102 102s-102 -46 -102 -102v-612c0 -234 -194 -423 -429 -423c-237 0 -429 192 -429 429v266h328v-262c0 -57 46 -102 102 -102s102 45 102 102v620c0 229 196 413 428 413c233 0 428 -185 428 -416v-136l-195 -58zM1592 602h328v-266
c0 -237 -192 -429 -429 -429c-236 0 -429 190 -429 425v268l131 -61l195 58v-270c0 -56 46 -101 102 -101s102 45 102 101v275z" />
</svg>