<svg width="1536" height="1536" xmlns="http://www.w3.org/2000/svg">
    <path d="M897 1369v167H649l-159-252-24-42c-6-7-9-14-11-21h-3c-2 7-6 14-9 21-6 12-15 28-25 44l-155 250H5v-167h128l197-291-185-272H8V638h276l139 228c9 14 16 29 23 42 6 7 9 14 11 21h3c2-7 6-14 11-21l25-42 140-228h257v168H768l-184 267 204 296h109zm639 217v206h-514l-4-27c-1-15-3-33-3-46 0-273 350-296 350-441 0-52-47-87-100-87-39 0-72 18-97 39-13 11-25 25-36 38l-105-92c18-25 38-46 63-66 42-34 103-65 188-65 145 0 246 85 246 218 0 239-332 259-346 403h232v-80h126z"/>
</svg>
