<?xml version="1.0" standalone="no"?>
<svg width="1536px" height="1536px" version="1.1" xmlns="http://www.w3.org/2000/svg">
    <path transform="scale(1, -1) translate(0, -1536)" glyph-name="subway" unicode="&#xf239;" 

d="M1088 1536c247 0 448 -143 448 -320v-896c0 -173 -191 -313 -431 -319l213 -202c21 -20 7 -55 -22 -55h-1056c-29 0 -43 35 -22 55l213 202c-240 6 -431 146 -431 319v896c0 177 201 320 448 320h640zM288 224c88 0 160 72 160 160s-72 160 -160 160s-160 -72 -160 -160
s72 -160 160 -160zM704 768v512h-544v-512h544zM1248 224c88 0 160 72 160 160s-72 160 -160 160s-160 -72 -160 -160s72 -160 160 -160zM1408 768v512h-576v-512h576z" />
</svg>