<?xml version="1.0" standalone="no"?>
<svg width="1536px" height="1536px" version="1.1" xmlns="http://www.w3.org/2000/svg">
    <path transform="scale(1, -1) translate(0, -1536)" glyph-name="suitcase" unicode="&#xf0f2;" horiz-adv-x="1792" 

d="M640 1152h512v128h-512v-128zM288 1152v-1280h-64c-123 0 -224 101 -224 224v832c0 123 101 224 224 224h64zM1408 1152v-1280h-1024v1280h128v160c0 53 43 96 96 96h576c53 0 96 -43 96 -96v-160h128zM1792 928v-832c0 -123 -101 -224 -224 -224h-64v1280h64
c123 0 224 -101 224 -224z" />
</svg>