<svg width="1536" height="1536" xmlns="http://www.w3.org/2000/svg">
    <path d="M1472 896c0-318-258-576-576-576S320 578 320 896s258 576 576 576 576-258 576-576zm276 277c-3 10-11 17-20 20l-292 96v306c0 10-5 20-13 26-9 6-19 8-29 4l-292-94-180 248c-6 8-16 13-26 13s-20-5-26-13l-180-248-292 94c-10 4-20 2-29-4-8-6-13-16-13-26v-306l-292-96c-9-3-17-10-20-20s-2-21 4-29l180-248L48 648c-6-9-7-19-4-29s11-17 20-20l292-96V197c0-10 5-20 13-26 9-6 19-8 29-4l292 94L870 13c12-16 40-16 52 0l180 248 292-94c10-4 20-2 29 4 8 6 13 16 13 26v306l292 96c9 3 17 10 20 20s2 20-4 29l-180 248 180 248c6 8 7 19 4 29z"/>
</svg>
