<?xml version="1.0" standalone="no"?>
<svg width="1536px" height="1536px" version="1.1" xmlns="http://www.w3.org/2000/svg">
    <path transform="scale(1, -1) translate(0, -1536)" glyph-name="sun_o" unicode="&#xf185;" horiz-adv-x="1792" 

d="M1472 640c0 318 -258 576 -576 576s-576 -258 -576 -576s258 -576 576 -576s576 258 576 576zM1748 363c-3 -10 -11 -17 -20 -20l-292 -96v-306c0 -10 -5 -20 -13 -26c-9 -6 -19 -8 -29 -4l-292 94l-180 -248c-6 -8 -16 -13 -26 -13s-20 5 -26 13l-180 248l-292 -94
c-10 -4 -20 -2 -29 4c-8 6 -13 16 -13 26v306l-292 96c-9 3 -17 10 -20 20s-2 21 4 29l180 248l-180 248c-6 9 -7 19 -4 29s11 17 20 20l292 96v306c0 10 5 20 13 26c9 6 19 8 29 4l292 -94l180 248c12 16 40 16 52 0l180 -248l292 94c10 4 20 2 29 -4c8 -6 13 -16 13 -26
v-306l292 -96c9 -3 17 -10 20 -20s2 -20 -4 -29l-180 -248l180 -248c6 -8 7 -19 4 -29z" />
</svg>