<?xml version="1.0" standalone="no"?>
<svg width="1536px" height="1536px" version="1.1" xmlns="http://www.w3.org/2000/svg">
    <path transform="scale(1, -1) translate(0, -1536)" glyph-name="superpowers" unicode="&#xf2dd;" horiz-adv-x="1792" 

d="M1473 607c18 320 -227 585 -544 604c-315 19 -594 -221 -612 -538c-18 -320 227 -585 545 -604c315 -19 594 220 611 538zM1792 1536l-349 -348c159 -155 245 -371 231 -593c-22 -372 -308 -669 -675 -719l-999 -132l347 347c-159 155 -244 371 -231 593
c23 373 308 670 676 720c333 44 667 88 1000 132z" />
</svg>