<?xml version="1.0" standalone="no"?>
<svg width="1536px" height="1536px" version="1.1" xmlns="http://www.w3.org/2000/svg">
    <path transform="scale(1, -1) translate(0, -1536)" glyph-name="superscript" unicode="&#xf12b;" 

d="M897 167v-167h-248l-159 252l-24 42c-6 7 -9 14 -11 21h-3c-2 -7 -6 -14 -9 -21c-6 -12 -15 -28 -25 -44l-155 -250h-258v167h128l197 291l-185 272h-137v168h276l139 -228c9 -14 16 -29 23 -42c6 -7 9 -14 11 -21h3c2 7 6 14 11 21l25 42l140 228h257v-168h-125
l-184 -267l204 -296h109zM1534 846v-206h-514l-3 27c-2 14 -4 33 -4 46c0 273 350 296 350 441c0 52 -47 87 -100 87c-38 0 -72 -18 -97 -39c-13 -11 -25 -25 -36 -38l-105 92c18 25 38 46 63 66c42 33 103 65 188 65c145 0 246 -85 246 -218c0 -240 -332 -260 -346 -403
h232v80h126z" />
</svg>