<svg xmlns="http://www.w3.org/2000/svg" width="1536" height="1792" viewBox="0 0 1536 1792">
    <path d="M768 128A768 768 0 0 0 0 896a768 768 0 0 0 768 768 768 768 0 0 0 768-768 768 768 0 0 0-768-768zm5.837 154.395c199.396 0 376.745 95.942 488.331 244.094a116.97 116.97 0 0 1 20.877-1.843c12.495.034 25.202 2.073 37.693 6.325 61.492 20.934 94.2 87.66 73.266 149.152-6.572 19.305-17.659 35.77-31.679 48.632 14.67 52.393 22.527 107.606 22.527 164.628 0 146.813-52.021 281.667-138.594 387.123a118.292 118.292 0 0 1 10.37 59.023c-6.541 65.417-62.8 112.518-128.218 107.285-20.905-2.09-39.936-9.399-55.99-20.46-88.335 49.667-190.202 78.016-298.583 78.016-245.773 0-458.038-145.76-554.943-355.396-19.094-.638-38.346-5.874-56.044-16.163-54.95-32.709-73.268-104.669-40.559-160.928 10.475-17.597 24.981-31.425 41.702-41.036a617.84 617.84 0 0 1-1.143-37.464c0-336.98 274.007-610.988 610.987-610.988zm0 78.5c-294.555 0-532.487 237.933-532.487 532.488 0 7.77.177 15.497.505 23.185 14.178 2.25 28.2 7.104 41.363 14.757 20.666 12.792 36.147 30.952 45.685 51.555l446.736-41.26c7.08-27.818 24.348-52.955 50.542-69.17 19.278-12.695 41.09-18.801 62.765-18.863 20.91-.059 41.686 5.517 59.94 16.215l223.979-186.031c-9.326-24.656-10.448-52.596-1.279-79.532 4.997-14.678 12.619-27.7 22.14-38.76-97.383-124.61-249.123-204.583-419.889-204.583zm449.724 382.81L999.65 929.668c14.146 36.823 8.215 78.557-14.782 110.318l121.674 175.458c13.517-3.805 27.956-5.32 42.802-4.133 15.305 1.53 29.608 5.855 42.472 12.402 71.743-90.715 114.534-205.43 114.534-330.33 0-46.251-5.87-91.104-16.902-133.861-14.695.83-29.796-1.093-44.596-6.131a118.108 118.108 0 0 1-21.29-9.686zM782.721 1019.8l-446.106 41.202a114.997 114.997 0 0 1-12.838 31.25 115 115 0 0 1-29.585 33.035c86.055 178.053 268.268 300.583 479.645 300.583 91.237 0 177.04-22.835 252.027-63.102a118.28 118.28 0 0 1-4.739-44.172c1.748-21.849 9.341-41.65 21.107-58.144l-121.806-175.66c-47.717 13.06-101.027-5.708-129.57-50.107a119.627 119.627 0 0 1-8.135-14.885z"/>
</svg>
