<?xml version="1.0" standalone="no"?>
<svg width="1536px" height="1536px" version="1.1" xmlns="http://www.w3.org/2000/svg">
    <path transform="scale(1, -1) translate(0, -1536)" glyph-name="tablet" unicode="&#xf10a;" horiz-adv-x="1152" 

d="M640 128c0 35 -29 64 -64 64s-64 -29 -64 -64s29 -64 64 -64s64 29 64 64zM1024 288v960c0 17 -15 32 -32 32h-832c-17 0 -32 -15 -32 -32v-960c0 -17 15 -32 32 -32h832c17 0 32 15 32 32zM1152 1248v-1088c0 -88 -72 -160 -160 -160h-832c-88 0 -160 72 -160 160v1088
c0 88 72 160 160 160h832c88 0 160 -72 160 -160z" />
</svg>