<?xml version="1.0" standalone="no"?>
<svg width="1536px" height="1536px" version="1.1" xmlns="http://www.w3.org/2000/svg">
    <path transform="scale(1, -1) translate(0, -1536)" glyph-name="table" unicode="&#xf0ce;" horiz-adv-x="1664" 

d="M512 160v192c0 18 -14 32 -32 32h-320c-18 0 -32 -14 -32 -32v-192c0 -18 14 -32 32 -32h320c18 0 32 14 32 32zM512 544v192c0 18 -14 32 -32 32h-320c-18 0 -32 -14 -32 -32v-192c0 -18 14 -32 32 -32h320c18 0 32 14 32 32zM1024 160v192c0 18 -14 32 -32 32h-320
c-18 0 -32 -14 -32 -32v-192c0 -18 14 -32 32 -32h320c18 0 32 14 32 32zM512 928v192c0 18 -14 32 -32 32h-320c-18 0 -32 -14 -32 -32v-192c0 -18 14 -32 32 -32h320c18 0 32 14 32 32zM1024 544v192c0 18 -14 32 -32 32h-320c-18 0 -32 -14 -32 -32v-192
c0 -18 14 -32 32 -32h320c18 0 32 14 32 32zM1536 160v192c0 18 -14 32 -32 32h-320c-18 0 -32 -14 -32 -32v-192c0 -18 14 -32 32 -32h320c18 0 32 14 32 32zM1024 928v192c0 18 -14 32 -32 32h-320c-18 0 -32 -14 -32 -32v-192c0 -18 14 -32 32 -32h320c18 0 32 14 32 32z
M1536 544v192c0 18 -14 32 -32 32h-320c-18 0 -32 -14 -32 -32v-192c0 -18 14 -32 32 -32h320c18 0 32 14 32 32zM1536 928v192c0 18 -14 32 -32 32h-320c-18 0 -32 -14 -32 -32v-192c0 -18 14 -32 32 -32h320c18 0 32 14 32 32zM1664 1248v-1088c0 -88 -72 -160 -160 -160
h-1344c-88 0 -160 72 -160 160v1088c0 88 72 160 160 160h1344c88 0 160 -72 160 -160z" />
</svg>