<svg width="1536" height="1536" xmlns="http://www.w3.org/2000/svg">
    <path d="M512 1376v-192c0-18-14-32-32-32H160c-18 0-32 14-32 32v192c0 18 14 32 32 32h320c18 0 32-14 32-32zm0-384V800c0-18-14-32-32-32H160c-18 0-32 14-32 32v192c0 18 14 32 32 32h320c18 0 32-14 32-32zm512 384v-192c0-18-14-32-32-32H672c-18 0-32 14-32 32v192c0 18 14 32 32 32h320c18 0 32-14 32-32zM512 608V416c0-18-14-32-32-32H160c-18 0-32 14-32 32v192c0 18 14 32 32 32h320c18 0 32-14 32-32zm512 384V800c0-18-14-32-32-32H672c-18 0-32 14-32 32v192c0 18 14 32 32 32h320c18 0 32-14 32-32zm512 384v-192c0-18-14-32-32-32h-320c-18 0-32 14-32 32v192c0 18 14 32 32 32h320c18 0 32-14 32-32zm-512-768V416c0-18-14-32-32-32H672c-18 0-32 14-32 32v192c0 18 14 32 32 32h320c18 0 32-14 32-32zm512 384V800c0-18-14-32-32-32h-320c-18 0-32 14-32 32v192c0 18 14 32 32 32h320c18 0 32-14 32-32zm0-384V416c0-18-14-32-32-32h-320c-18 0-32 14-32 32v192c0 18 14 32 32 32h320c18 0 32-14 32-32zm128-320v1088c0 88-72 160-160 160H160c-88 0-160-72-160-160V288c0-88 72-160 160-160h1344c88 0 160 72 160 160z"/>
</svg>
