<svg width="1536" height="1536" xmlns="http://www.w3.org/2000/svg">
    <path d="M384 1152c0-71-57-128-128-128s-128 57-128 128 57 128 128 128 128-57 128-128zm192-448c0-71-57-128-128-128s-128 57-128 128 57 128 128 128 128-57 128-128zm428 481l101-382c8-34-12-69-46-78s-69 12-78 46l-101 382c-79 6-148 61-170 142-27 103 35 208 137 235 103 27 208-35 235-137 21-81-13-163-78-208zm660-33c0-71-57-128-128-128s-128 57-128 128 57 128 128 128 128-57 128-128zm-640-640c0-71-57-128-128-128s-128 57-128 128 57 128 128 128 128-57 128-128zm448 192c0-71-57-128-128-128s-128 57-128 128 57 128 128 128 128-57 128-128zm320 448c0 172-49 338-141 483-12 18-32 29-54 29H195c-22 0-42-11-54-29C49 1491 0 1324 0 1152c0-494 402-896 896-896s896 402 896 896z"/>
</svg>
