<?xml version="1.0" standalone="no"?>
<svg width="1536px" height="1536px" version="1.1" xmlns="http://www.w3.org/2000/svg">
    <path transform="scale(1, -1) translate(0, -1536)" glyph-name="tachometer" unicode="&#xf0e4;" horiz-adv-x="1792" 

d="M384 384c0 71 -57 128 -128 128s-128 -57 -128 -128s57 -128 128 -128s128 57 128 128zM576 832c0 71 -57 128 -128 128s-128 -57 -128 -128s57 -128 128 -128s128 57 128 128zM1004 351l101 382c8 34 -12 69 -46 78v0c-34 9 -69 -12 -78 -46l-101 -382
c-79 -6 -148 -61 -170 -142c-27 -103 35 -208 137 -235c103 -27 208 35 235 137c21 81 -13 163 -78 208zM1664 384c0 71 -57 128 -128 128s-128 -57 -128 -128s57 -128 128 -128s128 57 128 128zM1024 1024c0 71 -57 128 -128 128s-128 -57 -128 -128s57 -128 128 -128
s128 57 128 128zM1472 832c0 71 -57 128 -128 128s-128 -57 -128 -128s57 -128 128 -128s128 57 128 128zM1792 384c0 -172 -49 -338 -141 -483c-12 -18 -32 -29 -54 -29h-1402c-22 0 -42 11 -54 29c-92 144 -141 311 -141 483c0 494 402 896 896 896s896 -402 896 -896z
" />
</svg>