<?xml version="1.0" standalone="no"?>
<svg width="1536px" height="1536px" version="1.1" xmlns="http://www.w3.org/2000/svg">
    <path transform="scale(1, -1) translate(0, -1536)" glyph-name="tags" unicode="&#xf02c;" horiz-adv-x="1920" 

d="M448 1088c0 71 -57 128 -128 128s-128 -57 -128 -128s57 -128 128 -128s128 57 128 128zM1515 512c0 -34 -14 -67 -37 -90l-491 -492c-24 -23 -57 -37 -91 -37s-67 14 -90 37l-715 716c-51 50 -91 147 -91 218v416c0 70 58 128 128 128h416c71 0 168 -40 219 -91
l715 -714c23 -24 37 -57 37 -91zM1899 512c0 -34 -14 -67 -37 -90l-491 -492c-24 -23 -57 -37 -91 -37c-52 0 -78 24 -112 59l470 470c23 23 37 56 37 90s-14 67 -37 91l-715 714c-51 51 -148 91 -219 91h224c71 0 168 -40 219 -91l715 -714c23 -24 37 -57 37 -91z" />
</svg>