<?xml version="1.0" standalone="no"?>
<svg width="1536px" height="1536px" version="1.1" xmlns="http://www.w3.org/2000/svg">
    <path transform="scale(1, -1) translate(0, -1536)" glyph-name="tasks" unicode="&#xf0ae;" horiz-adv-x="1792" 

d="M1024 128h640v128h-640v-128zM640 640h1024v128h-1024v-128zM1280 1152h384v128h-384v-128zM1792 320v-256c0 -35 -29 -64 -64 -64h-1664c-35 0 -64 29 -64 64v256c0 35 29 64 64 64h1664c35 0 64 -29 64 -64zM1792 832v-256c0 -35 -29 -64 -64 -64h-1664
c-35 0 -64 29 -64 64v256c0 35 29 64 64 64h1664c35 0 64 -29 64 -64zM1792 1344v-256c0 -35 -29 -64 -64 -64h-1664c-35 0 -64 29 -64 64v256c0 35 29 64 64 64h1664c35 0 64 -29 64 -64z" />
</svg>