<?xml version="1.0" standalone="no"?>
<svg width="1536px" height="1536px" version="1.1" xmlns="http://www.w3.org/2000/svg">
    <path transform="scale(1, -1) translate(0, -1536)" glyph-name="taxi" unicode="&#xf1ba;" horiz-adv-x="2048" 

d="M1824 640c124 0 224 -100 224 -224v-384c0 -18 -14 -32 -32 -32h-96v-64c0 -106 -86 -192 -192 -192s-192 86 -192 192v64h-1024v-64c0 -106 -86 -192 -192 -192s-192 86 -192 192v64h-96c-18 0 -32 14 -32 32v384c0 124 100 224 224 224h28l105 419
c31 126 153 221 283 221h128v224c0 18 14 32 32 32h448c18 0 32 -14 32 -32v-224h128c130 0 252 -95 283 -221l105 -419h28zM320 160c88 0 160 72 160 160s-72 160 -160 160s-160 -72 -160 -160s72 -160 160 -160zM516 640h1016l-89 357c-3 11 -23 27 -35 27h-768
c-12 0 -32 -16 -35 -27zM1728 160c88 0 160 72 160 160s-72 160 -160 160s-160 -72 -160 -160s72 -160 160 -160z" />
</svg>