<svg width="1536" height="1536" xmlns="http://www.w3.org/2000/svg">
    <path d="M1824 896c124 0 224 100 224 224v384c0 18-14 32-32 32h-96v64c0 106-86 192-192 192s-192-86-192-192v-64H512v64c0 106-86 192-192 192s-192-86-192-192v-64H32c-18 0-32-14-32-32v-384c0-124 100-224 224-224h28l105-419c31-126 153-221 283-221h128V32c0-18 14-32 32-32h448c18 0 32 14 32 32v224h128c130 0 252 95 283 221l105 419h28zM320 1376c88 0 160-72 160-160s-72-160-160-160-160 72-160 160 72 160 160 160zm196-480h1016l-89-357c-3-11-23-27-35-27H640c-12 0-32 16-35 27zm1212 480c88 0 160-72 160-160s-72-160-160-160-160 72-160 160 72 160 160 160z"/>
</svg>
