<?xml version="1.0" standalone="no"?>
<svg width="1536px" height="1536px" version="1.1" xmlns="http://www.w3.org/2000/svg">
    <path transform="scale(1, -1) translate(0, -1536)" glyph-name="television" unicode="&#xf26c;" horiz-adv-x="2048" 

d="M1792 288v960c0 17 -15 32 -32 32h-1600c-17 0 -32 -15 -32 -32v-960c0 -17 15 -32 32 -32h1600c17 0 32 15 32 32zM1920 1248v-960c0 -88 -72 -160 -160 -160h-736v-128h352c18 0 32 -14 32 -32v-64c0 -18 -14 -32 -32 -32h-832c-18 0 -32 14 -32 32v64
c0 18 14 32 32 32h352v128h-736c-88 0 -160 72 -160 160v960c0 88 72 160 160 160h1600c88 0 160 -72 160 -160z" />
</svg>