<?xml version="1.0" standalone="no"?>
<svg width="1536px" height="1536px" version="1.1" xmlns="http://www.w3.org/2000/svg">
    <path transform="scale(1, -1) translate(0, -1536)" glyph-name="telegram" unicode="&#xf2c6;" horiz-adv-x="1792" 

d="M1189 229l147 693c13 61 -22 85 -62 70l-864 -333c-59 -23 -58 -56 -10 -71l221 -69l513 323c24 16 46 7 28 -9l-415 -375v0v0v0v0l-16 -228c23 0 33 10 45 22l108 104l224 -165c41 -23 70 -11 81 38zM1792 640c0 -495 -401 -896 -896 -896s-896 401 -896 896
s401 896 896 896s896 -401 896 -896z" />
</svg>