<?xml version="1.0" standalone="no"?>
<svg width="1536px" height="1536px" version="1.1" xmlns="http://www.w3.org/2000/svg">
    <path transform="scale(1, -1) translate(0, -1536)" glyph-name="tecent_weibo" unicode="&#xf1d5;" horiz-adv-x="1280" 

d="M842 964c0 -106 -87 -193 -193 -193c-41 0 -79 13 -111 35c-36 -39 -76 -88 -115 -146c-163 -245 -232 -534 -202 -859c2 -29 -19 -54 -47 -57h-5c-26 0 -49 20 -52 47c-39 438 100 748 223 931c45 67 90 121 132 165c-11 24 -16 50 -16 77c0 107 86 193 193 193
c106 0 193 -86 193 -193zM1223 953c0 -321 -261 -582 -583 -582c-44 0 -88 5 -131 14c-28 7 -45 35 -39 63c7 27 34 45 62 39c35 -9 72 -13 108 -13c264 0 479 215 479 479s-215 479 -479 479s-479 -215 -479 -479c0 -77 18 -150 52 -218c13 -26 3 -57 -22 -70
c-26 -13 -57 -3 -70 23c-42 81 -64 173 -64 265c0 322 262 583 583 583c322 0 583 -261 583 -583z" />
</svg>