<svg width="1536" height="1536" xmlns="http://www.w3.org/2000/svg">
    <path d="M842 572c0 106-87 193-193 193-41 0-79-13-111-35-36 39-76 88-115 146-163 245-232 534-202 859 2 29-19 54-47 57h-5c-26 0-49-20-52-47-39-438 100-748 223-931 45-67 90-121 132-165-11-24-16-50-16-77 0-107 86-193 193-193 106 0 193 86 193 193zm381 11c0 321-261 582-583 582-44 0-88-5-131-14-28-7-45-35-39-63 7-27 34-45 62-39 35 9 72 13 108 13 264 0 479-215 479-479S904 104 640 104 161 319 161 583c0 77 18 150 52 218 13 26 3 57-22 70-26 13-57 3-70-23-42-81-64-173-64-265C57 261 319 0 640 0c322 0 583 261 583 583z"/>
</svg>
