<?xml version="1.0" standalone="no"?>
<svg width="1536px" height="1536px" version="1.1" xmlns="http://www.w3.org/2000/svg">
    <path transform="scale(1, -1) translate(0, -1536)" glyph-name="terminal" unicode="&#xf120;" horiz-adv-x="1664" 

d="M585 553l-466 -466c-13 -13 -33 -13 -46 0l-50 50c-13 13 -13 33 0 46l393 393l-393 393c-13 13 -13 33 0 46l50 50c13 13 33 13 46 0l466 -466c13 -13 13 -33 0 -46zM1664 96v-64c0 -18 -14 -32 -32 -32h-960c-18 0 -32 14 -32 32v64c0 18 14 32 32 32h960
c18 0 32 -14 32 -32z" />
</svg>