<svg xmlns="http://www.w3.org/2000/svg" width="1536" height="1792" viewBox="0 0 1536 1792">
    <path d="M815.279 280.89H23.156L0 584.271h24.652c17.736-227.225 37.217-267.005 249.95-267.005h75.727c26.194 4.105 26.194 20.774 26.194 52.344v746.742c0 49.577-4.15 64.704-119.702 64.704h-38.94v33.135c65.816-1.27 134.398-2.608 201.688-2.608 67.086 0 135.872 1.338 201.642 2.608v-33.135H582.93c-113.828 0-117.933-15.127-117.933-64.704v-746.72c0-30.299 0-46.741 24.698-52.343h75.272c209.898 0 230.446 39.553 248.158 267.004h24.698"/>
    <path d="M1503.621 1166.361h-24.652c-30.073 203.412-47.808 313.974-289.094 313.974H999.48c-54.793 0-57.379-6.918-57.379-54.113v-383.44h129.409c129.408 0 141.746 47.422 141.746 163.2h22.044v-356.86h-22.044c0 113.828-12.36 160.366-141.746 160.366H942.079V669.524c0-46.312 2.609-53.229 57.38-53.229h187.558c212.28 0 236.977 84.367 256.21 265.734h24.72l-32.908-303.404h-694.58v37.67c97.16 0 112.717 0 112.717 61.665v740.301c0 61.665-15.354 61.665-112.716 61.665v33.135h713.856"/>
    <path d="M1873.432 695.06l202.958-293.426c20.32-28.802 61.665-88.086 174.223-89.583v-33.112c-31.411 2.608-83.529 2.608-116.436 2.608-45.2 0-101.49 0-135.668-2.608v33.135c43.93 4.105 54.725 31.57 54.725 53.682 0 16.397-6.713 27.464-16.443 41.095l-181.095 262.673-202.958-297.078c-9.525-14.946-10.863-19.277-10.863-23.382 0-12.36 14.946-35.72 60.373-37.013v-33.112c-43.93 2.608-111.016 2.608-156.216 2.608-35.516 0-104.076 0-137.21-2.608v33.135c75.34 0 99.993 2.834 130.293 45.426l264.623 388.657-238.633 348.605c-58.875 85.252-148.006 86.749-174.223 86.749v33.135c31.343-2.609 83.528-2.609 116.436-2.609 37.013 0 101.49 0 135.668 2.609v-33.135c-42.433-4.105-54.725-31.57-54.725-53.682 0-17.735 6.713-27.465 13.63-37.217l219.423-320.233 238.633 350.76c10.795 15.172 10.795 19.277 10.795 23.382 0 10.795-12.292 34.404-60.327 37.217v33.134c43.93-2.608 111.016-2.608 156.216-2.608 35.516 0 104.076 0 137.369 2.608v-33.134c-87.86 0-101.694-6.713-128.955-45.427"/>
</svg>
