<svg xmlns="http://www.w3.org/2000/svg" width="1536" height="1792" viewBox="0 0 1536 1792">
    <path d="M1576.358 1788.352c-7.734-1.643-18.214-11.59-58.692-55.713-114.304-124.595-269.404-284.965-368.147-380.658-84.425-81.817-226.647-214.063-230.21-214.063-1.538 0-122.063 119.379-267.832 265.286-189.984 190.162-268.076 270.051-275.772 282.115-5.904 9.257-14.03 25.495-18.058 36.085-6.233 16.39-10.725 22.732-30.202 42.641-12.583 12.864-24.322 23.388-26.085 23.388-4.581 0-51.156-35.125-84.289-63.567-15.525-13.328-38.205-35.692-50.398-49.698-28.25-32.45-60.895-75.998-63.06-84.12-1.405-5.271 2.082-10.045 21.834-29.889 12.929-12.989 26.62-24.393 30.425-25.343 3.805-.95 17.143-6.627 29.638-12.616l22.72-10.889 267.958-267.508c147.377-147.129 267.959-268.542 267.959-269.806 0-1.263-24.959-28.364-55.463-60.222-61.71-64.45-130.948-138.934-192.91-207.53-22.576-24.992-43.895-48.429-47.378-52.083l-6.332-6.644-80.849 80.817-80.849 80.817-21.367-.028-21.367-.027-22.72-18.9C143.221 730.554 60.1 646.438 18.837 591.772c-9.073-12.02-9.738-14.194-9.738-31.85v-18.948l215.57-216.73c118.564-119.2 238.063-239.281 265.555-266.846l49.984-50.117h43.03l21.646 17.477c58.329 47.094 144.625 134.02 192.241 193.644l13.844 17.335v40.916l-80.187 81.54c-44.103 44.847-80.187 82.093-80.187 82.768 0 .676 24.958 23.935 55.463 51.687 85.839 78.094 162.916 150.242 216.056 202.237 26.669 26.094 50.165 47.444 52.214 47.444 3.521 0 150.06-145.787 231.056-229.87 48.054-49.885 86.324-106.08 124.692-183.093l13.316-26.729 85.943-86.415c59.459-59.785 92.88-91.292 108.453-102.239 12.38-8.702 23.812-15.823 25.405-15.823 1.592 0 52.68 49.796 113.528 110.658 80.91 80.927 110.188 111.821 108.972 114.988-6.494 16.925-33.773 47.643-113.708 128.042-89.13 89.649-90.097 90.515-115.277 103.269-64.106 32.47-128.492 74.339-166.543 108.3-26.534 23.68-253.121 251.858-253.072 254.848.041 2.524 107.41 118.44 189.841 204.952 102.663 107.746 235.31 237.36 390.752 381.814 47.831 44.45 66.9 63.874 69.024 70.307 10.416 31.561-31.833 103.303-91.624 155.582-47.54 41.567-92.053 63.1-118.728 57.432zM270.121 1731.76c-6.35-7.017-5.761-8.724 7.517-21.756 6.568-6.445 17.57-21.43 24.45-33.3 6.88-11.868 17.921-28.796 24.537-37.617 6.615-8.82 238.88-243.134 516.144-520.696 360.671-361.059 509.221-508.078 522.056-516.675 35.91-24.054 105.855-53.4 167.827-70.415 16.906-4.641 34.433-10.056 38.948-12.033 8.9-3.896 167.94-164.873 178.894-181.073 3.675-5.435 6.682-11.455 6.682-13.379 0-1.923-43.889-47.373-97.53-101l-97.531-97.502-10.054 5.174c-5.53 2.846-49.496 44.323-97.705 92.171l-87.65 86.997-16.144 30.738c-23.98 45.66-59.72 103.727-83.654 135.91-17.379 23.37-112.94 120.274-533.243 540.73l-512.07 512.256-24.997 12.3c-13.747 6.765-26.767 12.3-28.932 12.3-5.339 0-35.614 29.181-35.614 34.327 0 6.553 44.639 63.63 69.496 88.86 12.496 12.684 32.911 31.051 45.368 40.816 21.894 17.164 32.33 22.95 23.205 12.867zm1421.578-27.553c14.307-12.562 16.052-17.228 8.748-23.39-3.346-2.823-18.112-15.172-32.812-27.441-24.116-20.127-84.551-80.305-133.751-133.182-15.586-16.75-16.436-18.088-5.241-8.237 7.35 6.467 35.015 32.308 61.477 57.425 46.075 43.733 89.838 83.9 111.91 102.714l10.34 8.814 7.652-7.33c4.208-4.032 10.815-11.896 14.682-17.477l7.032-10.146-49.08-50.974c-26.993-28.035-49.537-52.434-50.098-54.22-.561-1.785 2.446-.131 6.682 3.676 39.308 35.324 97.992 85.293 100.168 85.293 5.16 0 16.148-28.646 15.276-39.822-.787-10.088-4.101-13.64-70.321-75.348-208.9-194.67-363.2-349.492-529.736-531.525l-10.87-11.882-11.577 3.47c-22.987 6.886-66.594 40.848-66.594 51.863 0 3.196 6.142 12.153 14.033 20.468l14.033 14.785-15.417-14.657c-12.797-12.166-16.204-14.164-20.047-11.755-10.346 6.484-7.169 13.704 18.43 41.883 23.347 25.701 19.809 23.71-13.199-7.426-13.623-12.851-14.35-13.182-18.042-8.203-6.732 9.08-4.3 14.075 15.536 31.898 23.56 21.17 94.24 95.222 90.886 95.222-1.323 0-25.146-21.95-52.941-48.78-38.423-37.088-50.768-47.598-51.504-43.847-1.54 7.844 9.04 20.185 47.621 55.552 95.46 87.506 145.287 136.178 348.827 340.737 121.418 122.027 221.222 220.265 223.762 220.251 2.522-.013 8.882-3.797 14.135-8.41zm-82.157-135.755c-46.78-40.673-399.892-390.937-452.264-448.617-4.318-4.755-6.63-8.646-5.136-8.646 5.495 0 53.03 46.163 128.244 124.544 42.455 44.242 106.66 108.174 142.677 142.07 66.682 62.752 219.396 214.508 215.863 214.508-1.069 0-14.292-10.736-29.384-23.859zm-109.306-82.388c-3.324-4.24-3.23-4.334 1.01-1.01 4.452 3.492 5.868 5.687 3.668 5.687-.555 0-2.66-2.105-4.678-4.677zm52.463-29.065c-32.551-27.894-50.712-45.243-58.18-55.578l-5.633-7.797 8.722 5.124c11.184 6.571 53.964 46.648 70.683 66.217 7.088 8.297 12.493 15.052 12.012 15.012-.481-.04-12.903-10.38-27.604-22.978zm-100.76-14.353c-28.425-24.389-75.727-72.446-90.782-92.232-3.356-4.41 23.032 20.134 58.64 54.543 35.609 34.409 64.743 62.975 64.743 63.481 0 2.01-2.569-.024-32.602-25.792zm-254.884-246.592c-42.235-43.414-74.14-77.438-78.353-83.557-2.014-2.924 19.23 17.802 47.206 46.059 44.08 44.52 65.024 67.568 61.4 67.568-.55 0-14.163-13.532-30.253-30.07zm102.093 6.077c-13.352-14.78-12.285-17.24 1.5-3.457 6.175 6.176 10.554 11.904 9.729 12.728-.824.824-5.877-3.348-11.229-9.271zM826.744 892.502c2.21-4.128-9.881-17.058-80.761-86.363-150.9-147.548-170.33-166.17-171.82-164.68-.812.812.533 5.497 2.988 10.411 5.072 10.153 238.728 245.487 243.736 245.487 1.792 0 4.428-2.184 5.857-4.855zm13.627-15.469c0-2.357-14.637-18.294-32.527-35.415-17.89-17.122-54.663-54.585-81.72-83.252-51.348-54.404-148.869-149.682-153.206-149.682-2.959 0-3.298 10.806-.464 14.786 7.417 10.418 260.592 257.85 263.835 257.85 2.245 0 4.082-1.929 4.082-4.287zm12.83-9.612c6.22-6.22 2.955-11.656-22.853-38.065-27.873-28.52-25.673-27.74 8.972 3.183 11.94 10.659 23.282 19.379 25.203 19.379 4.235 0 13.269-7.821 13.269-11.487 0-1.452-22.553-25.645-50.117-53.763-27.565-28.117-55.518-57.715-62.12-65.773-16.816-20.527 50.963 43.108 84.56 79.389 14.144 15.274 27.95 28.966 30.68 30.427 4.032 2.158 7.222.573 17.017-8.456 6.63-6.111 12.006-13.063 11.946-15.449-.06-2.385-3.643-8.471-7.964-13.524-10.224-11.96-7.74-14.28 3.562-3.326 4.826 4.677 10.489 8.504 12.584 8.504 4.549 0 37.366-31.915 37.366-36.338 0-5.928-237.608-232.227-273.36-260.35l-7.364-5.792-16.457 9.03c-9.051 4.968-17.75 11.08-19.33 13.584-2.435 3.862 9.079 16.508 75.845 83.303 43.293 43.312 78.099 79.367 77.344 80.12-2.285 2.286-92.445-83.956-126.688-121.18-17.641-19.178-33.575-34.902-35.408-34.941-5.03-.108-24.732 18.645-24.732 23.54 0 2.355 23.268 27.173 51.707 55.153 46.776 46.018 71.983 73.59 67.278 73.59-.96 0-28.724-26.461-61.698-58.803-36.384-35.687-61.985-58.804-65.122-58.804-2.843 0-5.873 2.215-6.732 4.923-1.2 3.78 12.575 19.132 59.36 66.154 60.692 61 79.978 82.627 67.937 76.183-5.142-2.752-48.6-43.677-110.57-104.129-19.933-19.445-23.822-22.171-27.397-19.205-2.29 1.902-4.165 5.8-4.165 8.662 0 5.558 265.802 277.468 271.235 277.468 1.653 0 4.448-1.443 6.212-3.207zm-586.067-82.487c3.647-5.9-4.643-17.62-18.23-25.77-41.421-24.849-96.992-72.958-133.964-115.979-32.052-37.295-61.205-79.808-59.968-87.45 1.525-9.428 207.778-224.103 323.027-336.218 101.935-99.164 176.59-169.471 179.897-169.422 4.394.067 44.305 29.032 70.042 50.832 34.305 29.059 86.2 84.056 113.156 119.92 13.702 18.23 25.503 34.684 26.225 36.566 1.496 3.899 15.662 9.508 18.03 7.14.86-.86 1.564-6.579 1.564-12.707 0-10.02-2.214-13.817-21.944-37.644-41.436-50.04-165.76-170.45-188.371-182.441-3.211-1.703-10.428-3.117-16.038-3.143-9.992-.045-15.447 5.234-268.667 259.94L33.425 548.544l-.135 13.412c-.133 13.185.324 13.952 27.039 45.44 44.798 52.8 149.34 154.257 181.239 175.89 7.385 5.009 22.872 6.007 25.565 1.648z" stroke-width="2.673"/>
</svg>
