<svg width="1536" height="1536" xmlns="http://www.w3.org/2000/svg">
    <path d="M81 129l54 27c7 3 190 5 211 5 88 0 176-4 264-4 265 0 533-6 798 3 22 1 43-13 56-31l42-1c9 0 19 1 28 1 2 112 2 224 2 336 0 36 1 74-5 109-22 8-45 15-68 18-23-40-39-84-54-128-7-20-32-155-33-157-7-9-16-15-27-19-8-3-56-2-66-2-123 0-265-7-386 7-5 44-9 91-8 136l1 152v-52c1 163 3 325 3 487 0 77-12 158 10 232 76 39 166 45 244 80 2 16 5 33 5 50 0 9-1 19-3 29l-34 1c-142 4-282-18-425-18-101 0-202 18-303 18-1-17-3-35-3-52v-9c38-61 175-62 238-99 25-56 18-529 18-617 0-14-5-29-5-44 0-41 7-276-8-293-14-15-145-12-162-12-42 0-277 22-301 38-47 31-48 232-108 237-18-11-43-27-56-44V130zm1229 1282c35 0 168 119 195 140 15 12 26 29 26 49s-11 37-26 49c-27 21-160 140-195 140-46 0-30-107-30-125H256c0 18 16 125-30 125-35 0-168-119-195-140-15-12-26-29-26-49s11-37 26-49c27-21 160-140 195-140 46 0 30 107 30 125h1024c0-18-16-125 30-125z"/>
</svg>
