<svg width="1536" height="1536" xmlns="http://www.w3.org/2000/svg">
    <path d="M1744 1408c44 0 58 28 31 63l-126 162c-27 35-71 35-98 0l-126-162c-27-35-13-63 31-63h80V384h-80c-44 0-58-28-31-63l126-162c27-35 71-35 98 0l126 162c27 35 13 63-31 63h-80v1024h80zM81 129l54 27c7 3 190 5 211 5 88 0 176-4 264-4 72 0 143 1 215 1h293c40 0 63 9 90-29l42-1c9 0 19 1 28 1 2 112 2 224 2 336 0 35 1 74-5 109-22 8-45 15-68 18-23-40-39-84-54-128-7-20-31-155-33-157-21-26-44-21-75-21-91 0-186-4-276 7-5 44-9 91-8 136 1 281 4 562 4 843 0 77-12 158 10 232 76 39 166 45 244 80 2 16 5 33 5 50 0 9-1 19-3 29l-34 1c-142 4-282-18-425-18-101 0-202 18-303 18-1-17-3-35-3-52v-9c38-61 175-62 238-99 22-49 19-320 19-383 0-202-6-404-6-606V398c0-18 4-90-8-104-14-15-145-12-162-12-37 0-144 17-173 38-48 33-48 233-108 237-18-11-43-27-56-44V130z"/>
</svg>
