<?xml version="1.0" standalone="no"?>
<svg width="1536px" height="1536px" version="1.1" xmlns="http://www.w3.org/2000/svg">
    <path transform="scale(1, -1) translate(0, -1536)" glyph-name="text_width" unicode="&#xf035;" 

d="M81 1407l54 -27c7 -3 190 -5 211 -5c88 0 176 4 264 4c265 0 533 6 798 -3c22 -1 43 13 56 31l42 1c9 0 19 -1 28 -1c2 -112 2 -224 2 -336c0 -36 1 -74 -5 -109c-22 -8 -45 -15 -68 -18c-23 40 -39 84 -54 128c-7 20 -32 155 -33 157c-7 9 -16 15 -27 19
c-8 3 -56 2 -66 2c-123 0 -265 7 -386 -7c-5 -44 -9 -91 -8 -136l1 -152v52c1 -163 3 -325 3 -487c0 -77 -12 -158 10 -232c76 -39 166 -45 244 -80c2 -16 5 -33 5 -50c0 -9 -1 -19 -3 -29l-34 -1c-142 -4 -282 18 -425 18c-101 0 -202 -18 -303 -18c-1 17 -3 35 -3 52v9
c38 61 175 62 238 99c25 56 18 529 18 617c0 14 -5 29 -5 44c0 41 7 276 -8 293c-14 15 -145 12 -162 12c-42 0 -277 -22 -301 -38c-47 -31 -48 -232 -108 -237c-18 11 -43 27 -56 44v383zM1310 125c35 0 168 -119 195 -140c15 -12 26 -29 26 -49s-11 -37 -26 -49
c-27 -21 -160 -140 -195 -140c-46 0 -30 107 -30 125h-1024c0 -18 16 -125 -30 -125c-35 0 -168 119 -195 140c-15 12 -26 29 -26 49s11 37 26 49c27 21 160 140 195 140c46 0 30 -107 30 -125h1024c0 18 -16 125 30 125z" />
</svg>