<?xml version="1.0" standalone="no"?>
<svg width="1536px" height="1536px" version="1.1" xmlns="http://www.w3.org/2000/svg">
    <path transform="scale(1, -1) translate(0, -1536)" glyph-name="text_height" unicode="&#xf034;" horiz-adv-x="1792" 

d="M1744 128c44 0 58 -28 31 -63l-126 -162c-27 -35 -71 -35 -98 0l-126 162c-27 35 -13 63 31 63h80v1024h-80c-44 0 -58 28 -31 63l126 162c27 35 71 35 98 0l126 -162c27 -35 13 -63 -31 -63h-80v-1024h80zM81 1407l54 -27c7 -3 190 -5 211 -5c88 0 176 4 264 4
c72 0 143 -1 215 -1h293c40 0 63 -9 90 29l42 1c9 0 19 -1 28 -1c2 -112 2 -224 2 -336c0 -35 1 -74 -5 -109c-22 -8 -45 -15 -68 -18c-23 40 -39 84 -54 128c-7 20 -31 155 -33 157c-21 26 -44 21 -75 21c-91 0 -186 4 -276 -7c-5 -44 -9 -91 -8 -136c1 -281 4 -562 4 -843
c0 -77 -12 -158 10 -232c76 -39 166 -45 244 -80c2 -16 5 -33 5 -50c0 -9 -1 -19 -3 -29l-34 -1c-142 -4 -282 18 -425 18c-101 0 -202 -18 -303 -18c-1 17 -3 35 -3 52v9c38 61 175 62 238 99c22 49 19 320 19 383c0 202 -6 404 -6 606v117c0 18 4 90 -8 104
c-14 15 -145 12 -162 12c-37 0 -144 -17 -173 -38c-48 -33 -48 -233 -108 -237c-18 11 -43 27 -56 44v383z" />
</svg>