<?xml version="1.0" standalone="no"?>
<svg width="1536px" height="1536px" version="1.1" xmlns="http://www.w3.org/2000/svg">
    <path transform="scale(1, -1) translate(0, -1536)" glyph-name="th_large" unicode="&#xf009;" horiz-adv-x="1664" 

d="M768 512v-384c0 -70 -58 -128 -128 -128h-512c-70 0 -128 58 -128 128v384c0 70 58 128 128 128h512c70 0 128 -58 128 -128zM768 1280v-384c0 -70 -58 -128 -128 -128h-512c-70 0 -128 58 -128 128v384c0 70 58 128 128 128h512c70 0 128 -58 128 -128zM1664 512v-384
c0 -70 -58 -128 -128 -128h-512c-70 0 -128 58 -128 128v384c0 70 58 128 128 128h512c70 0 128 -58 128 -128zM1664 1280v-384c0 -70 -58 -128 -128 -128h-512c-70 0 -128 58 -128 128v384c0 70 58 128 128 128h512c70 0 128 -58 128 -128z" />
</svg>