<?xml version="1.0" standalone="no"?>
<svg width="1536px" height="1536px" version="1.1" xmlns="http://www.w3.org/2000/svg">
    <path transform="scale(1, -1) translate(0, -1536)" glyph-name="th_list" unicode="&#xf00b;" horiz-adv-x="1792" 

d="M512 288v-192c0 -53 -43 -96 -96 -96h-320c-53 0 -96 43 -96 96v192c0 53 43 96 96 96h320c53 0 96 -43 96 -96zM512 800v-192c0 -53 -43 -96 -96 -96h-320c-53 0 -96 43 -96 96v192c0 53 43 96 96 96h320c53 0 96 -43 96 -96zM1792 288v-192c0 -53 -43 -96 -96 -96h-960
c-53 0 -96 43 -96 96v192c0 53 43 96 96 96h960c53 0 96 -43 96 -96zM512 1312v-192c0 -53 -43 -96 -96 -96h-320c-53 0 -96 43 -96 96v192c0 53 43 96 96 96h320c53 0 96 -43 96 -96zM1792 800v-192c0 -53 -43 -96 -96 -96h-960c-53 0 -96 43 -96 96v192c0 53 43 96 96 96
h960c53 0 96 -43 96 -96zM1792 1312v-192c0 -53 -43 -96 -96 -96h-960c-53 0 -96 43 -96 96v192c0 53 43 96 96 96h960c53 0 96 -43 96 -96z" />
</svg>