<svg width="1536" height="1536" xmlns="http://www.w3.org/2000/svg">
    <path d="M768 1024v384c0 70-58 128-128 128H128c-70 0-128-58-128-128v-384c0-70 58-128 128-128h512c70 0 128 58 128 128zm0-768v384c0 70-58 128-128 128H128C58 768 0 710 0 640V256c0-70 58-128 128-128h512c70 0 128 58 128 128zm896 768v384c0 70-58 128-128 128h-512c-70 0-128-58-128-128v-384c0-70 58-128 128-128h512c70 0 128 58 128 128zm0-768v384c0 70-58 128-128 128h-512c-70 0-128-58-128-128V256c0-70 58-128 128-128h512c70 0 128 58 128 128z"/>
</svg>
