<svg width="1536" height="1536" xmlns="http://www.w3.org/2000/svg">
    <path d="M512 1248v192c0 53-43 96-96 96H96c-53 0-96-43-96-96v-192c0-53 43-96 96-96h320c53 0 96 43 96 96zm0-512v192c0 53-43 96-96 96H96c-53 0-96-43-96-96V736c0-53 43-96 96-96h320c53 0 96 43 96 96zm1280 512v192c0 53-43 96-96 96H736c-53 0-96-43-96-96v-192c0-53 43-96 96-96h960c53 0 96 43 96 96zM512 224v192c0 53-43 96-96 96H96c-53 0-96-43-96-96V224c0-53 43-96 96-96h320c53 0 96 43 96 96zm1280 512v192c0 53-43 96-96 96H736c-53 0-96-43-96-96V736c0-53 43-96 96-96h960c53 0 96 43 96 96zm0-512v192c0 53-43 96-96 96H736c-53 0-96-43-96-96V224c0-53 43-96 96-96h960c53 0 96 43 96 96z"/>
</svg>
