<?xml version="1.0" standalone="no"?>
<svg width="1536px" height="1536px" version="1.1" xmlns="http://www.w3.org/2000/svg">
    <path transform="scale(1, -1) translate(0, -1536)" glyph-name="themeisle" unicode="&#xf2b2;" horiz-adv-x="1792" 

d="M852 1227c0 -36 -23 -76 -62 -76c-40 0 -62 40 -62 76c0 35 22 76 62 76c39 0 62 -41 62 -76zM688 -149v114c0 39 -31 73 -71 73s-70 -34 -70 -73v-114c0 -39 30 -74 70 -74s71 34 71 74zM860 -149v114c0 39 -30 73 -70 73s-71 -34 -71 -73v-114c0 -39 31 -74 71 -74
s70 35 70 74zM1034 -149v114c0 39 -31 73 -71 73s-71 -34 -71 -73v-114c0 -39 31 -74 71 -74s71 34 71 74zM1208 -149v114c0 39 -31 73 -71 73s-71 -34 -71 -73v-114c0 -39 31 -74 71 -74s71 35 71 74zM1476 535c-108 -207 -316 -359 -555 -359c-338 0 -562 296 -562 618
c0 59 7 117 21 174c-70 -118 -104 -254 -104 -390c0 -211 87 -426 250 -563c18 34 52 57 91 57c35 0 68 -20 86 -50c19 30 51 50 87 50c35 0 68 -20 86 -50c19 30 52 50 87 50s68 -20 87 -50c18 30 51 50 86 50c38 0 73 -23 90 -56c152 127 240 322 250 519zM1326 564
c0 50 -22 75 -72 75c-16 0 -32 -3 -47 -6c-50 -10 -99 -19 -149 -19c-158 0 -226 92 -226 243c0 69 13 137 30 204c-53 -81 -83 -178 -83 -275c0 -189 120 -371 324 -371c75 0 149 27 210 70c7 26 13 52 13 79zM884 1223c0 63 -44 129 -113 129s-113 -66 -113 -129
c0 -64 44 -130 113 -130s113 66 113 130zM1513 884c0 188 -121 370 -324 370c-106 0 -205 -53 -276 -129c-25 -83 -48 -180 -48 -268c0 -133 53 -210 193 -210c48 0 95 9 142 19c18 3 35 6 53 6c69 0 104 -40 104 -108c0 -15 -1 -31 -4 -46c101 91 160 230 160 366z
M1792 667c0 -126 -40 -358 -127 -454c-80 -87 -306 -214 -423 -247l-4 -1v-114c0 -57 -44 -107 -102 -107c-35 0 -68 20 -86 50c-19 -30 -52 -50 -87 -50s-68 20 -87 50c-18 -30 -51 -50 -86 -50c-36 0 -68 20 -87 50c-18 -30 -51 -50 -86 -50c-66 0 -103 55 -103 115
c-57 -43 -125 -68 -198 -68c-77 0 -152 29 -211 80c36 1 72 8 106 20c-73 20 -138 66 -182 127c23 -5 47 -7 71 -7c58 0 115 16 164 46c-77 77 -198 206 -240 306c-20 47 -24 110 -24 160c0 174 71 560 302 560c37 0 66 -17 81 -52c13 19 27 37 42 54c7 9 20 19 25 29
c28 44 41 74 76 119c113 144 286 243 472 243c21 0 42 -1 62 -4c38 41 91 64 146 64c51 0 104 -21 140 -57c3 -3 5 -8 5 -12c0 -13 -36 -47 -45 -57c15 -5 55 -24 55 -42c0 -10 -10 -18 -16 -25c110 -97 173 -235 197 -378c15 18 36 30 60 30c37 0 73 -25 100 -49
c73 -65 90 -186 90 -279z" />
</svg>