<svg width="1536" height="1536" xmlns="http://www.w3.org/2000/svg">
    <path d="M852 309c0 36-23 76-62 76-40 0-62-40-62-76 0-35 22-76 62-76 39 0 62 41 62 76zM688 1685v-114c0-39-31-73-71-73s-70 34-70 73v114c0 39 30 74 70 74s71-34 71-74zm172 0v-114c0-39-30-73-70-73s-71 34-71 73v114c0 39 31 74 71 74s70-35 70-74zm174 0v-114c0-39-31-73-71-73s-71 34-71 73v114c0 39 31 74 71 74s71-34 71-74zm174 0v-114c0-39-31-73-71-73s-71 34-71 73v114c0 39 31 74 71 74s71-35 71-74zm268-684c-108 207-316 359-555 359-338 0-562-296-562-618 0-59 7-117 21-174-70 118-104 254-104 390 0 211 87 426 250 563 18-34 52-57 91-57 35 0 68 20 86 50 19-30 51-50 87-50 35 0 68 20 86 50 19-30 52-50 87-50s68 20 87 50c18-30 51-50 86-50 38 0 73 23 90 56 152-127 240-322 250-519zm-150-29c0-50-22-75-72-75-16 0-32 3-47 6-50 10-99 19-149 19-158 0-226-92-226-243 0-69 13-137 30-204-53 81-83 178-83 275 0 189 120 371 324 371 75 0 149-27 210-70 7-26 13-52 13-79zM884 313c0-63-44-129-113-129s-113 66-113 129c0 64 44 130 113 130s113-66 113-130zm629 339c0-188-121-370-324-370-106 0-205 53-276 129-25 83-48 180-48 268 0 133 53 210 193 210 48 0 95-9 142-19 18-3 35-6 53-6 69 0 104 40 104 108 0 15-1 31-4 46 101-91 160-230 160-366zm279 217c0 126-40 358-127 454-80 87-306 214-423 247l-4 1v114c0 57-44 107-102 107-35 0-68-20-86-50-19 30-52 50-87 50s-68-20-87-50c-18 30-51 50-86 50-36 0-68-20-87-50-18 30-51 50-86 50-66 0-103-55-103-115-57 43-125 68-198 68-77 0-152-29-211-80 36-1 72-8 106-20-73-20-138-66-182-127 23 5 47 7 71 7 58 0 115-16 164-46-77-77-198-206-240-306-20-47-24-110-24-160 0-174 71-560 302-560 37 0 66 17 81 52 13-19 27-37 42-54 7-9 20-19 25-29 28-44 41-74 76-119C639 159 812 60 998 60c21 0 42 1 62 4 38-41 91-64 146-64 51 0 104 21 140 57 3 3 5 8 5 12 0 13-36 47-45 57 15 5 55 24 55 42 0 10-10 18-16 25 110 97 173 235 197 378 15-18 36-30 60-30 37 0 73 25 100 49 73 65 90 186 90 279z"/>
</svg>
