<?xml version="1.0" standalone="no"?>
<svg width="1536px" height="1536px" version="1.1" xmlns="http://www.w3.org/2000/svg">
    <path transform="scale(1, -1) translate(0, -1536)" glyph-name="thermometer_half" unicode="&#xf2c9;" horiz-adv-x="1024" 

d="M640 192c0 -106 -86 -192 -192 -192s-192 86 -192 192c0 80 50 153 128 181v395h128v-395c78 -28 128 -101 128 -181zM768 192c0 105 -50 197 -128 256v768c0 106 -86 192 -192 192s-192 -86 -192 -192v-768c-78 -59 -128 -151 -128 -256c0 -177 143 -320 320 -320
s320 143 320 320zM896 192c0 -247 -201 -448 -448 -448s-448 201 -448 448c0 122 49 232 128 313v711c0 177 143 320 320 320s320 -143 320 -320v-711c79 -81 128 -191 128 -313zM1024 768v-128h-192v128h192zM1024 1024v-128h-192v128h192zM1024 1280v-128h-192v128h192z
" />
</svg>