<?xml version="1.0" standalone="no"?>
<svg width="1536px" height="1536px" version="1.1" xmlns="http://www.w3.org/2000/svg">
    <path transform="scale(1, -1) translate(0, -1536)" glyph-name="thumbs_o_down" unicode="&#xf088;" 

d="M256 1088c0 35 -29 64 -64 64s-64 -29 -64 -64s29 -64 64 -64s64 29 64 64zM1408 512c0 37 -28 127 -75 128c21 24 35 71 35 103c0 47 -19 87 -53 119c12 21 18 45 18 69c0 46 -23 103 -65 126c3 18 5 37 5 56c0 117 -74 167 -185 167h-128c-118 0 -232 -35 -342 -73
c-54 -19 -146 -55 -202 -55h-32v-640h32c79 0 198 -171 243 -229c25 -31 49 -62 77 -91c97 -102 64 -255 128 -320c137 0 160 75 160 192c0 118 -96 203 -96 320h352c67 0 128 60 128 128zM1536 511c0 -138 -118 -255 -256 -255h-176c30 -62 48 -122 48 -192
c0 -66 -4 -126 -35 -186c-49 -97 -149 -134 -253 -134c-34 0 -66 14 -90 37c-100 98 -69 256 -128 321c-38 40 -73 83 -107 127c-30 39 -98 129 -137 155h-274c-71 0 -128 57 -128 128v640c0 71 57 128 128 128h288c28 0 109 30 138 40c144 50 269 88 423 88h112
c182 0 313 -108 312 -295v-5c39 -50 60 -114 60 -178c0 -14 -1 -29 -3 -43c25 -44 38 -94 38 -144c0 -23 -3 -47 -9 -69c32 -48 49 -105 49 -163z" />
</svg>