<?xml version="1.0" standalone="no"?>
<svg width="1536px" height="1536px" version="1.1" xmlns="http://www.w3.org/2000/svg">
    <path transform="scale(1, -1) translate(0, -1536)" glyph-name="thumbs_up" unicode="&#xf164;" horiz-adv-x="1664" 

d="M256 192c0 35 -29 64 -64 64c-36 0 -64 -29 -64 -64c0 -36 28 -64 64 -64c35 0 64 28 64 64zM416 704v-640c0 -35 -29 -64 -64 -64h-288c-35 0 -64 29 -64 64v640c0 35 29 64 64 64h288c35 0 64 -29 64 -64zM1600 704c0 -53 -21 -110 -55 -149c11 -32 15 -62 15 -76
c2 -50 -13 -97 -43 -137c11 -37 11 -77 0 -117c-10 -37 -29 -70 -54 -94c6 -75 -11 -136 -49 -181c-43 -51 -109 -77 -197 -78h-36h-76h-17c-143 0 -278 47 -386 84c-63 22 -123 43 -158 44c-34 1 -64 29 -64 64v641c0 33 28 61 61 64c37 3 133 122 177 180
c36 46 70 89 101 120c39 39 50 99 62 157c11 59 23 121 66 163c12 12 28 19 45 19c224 0 224 -179 224 -256c0 -82 -29 -140 -56 -192c-11 -22 -21 -32 -29 -64h277c104 0 192 -88 192 -192z" />
</svg>