<svg width="1536" height="1536" xmlns="http://www.w3.org/2000/svg">
    <path d="M256 576c0 35-29 64-64 64-36 0-64-29-64-64 0-36 28-64 64-64 35 0 64 28 64 64zm160 512V448c0-35-29-64-64-64H64c-35 0-64 29-64 64v640c0 35 29 64 64 64h288c35 0 64-29 64-64zm1129-149c34 38 55 96 55 149-1 104-88 192-192 192h-277c8 32 18 42 29 64 26 52 56 110 56 192 0 77 0 256-224 256-17 0-33-7-45-19-43-42-55-104-66-163-12-58-23-118-62-157-31-31-65-74-101-120-44-58-140-177-177-180-33-3-61-31-61-64V448c0-35 30-63 64-64 35-1 95-22 158-44 108-37 243-84 386-84h129c88 1 154 27 197 78 38 45 55 106 49 181 25 24 44 57 54 94 11 40 11 80 0 117 30 40 45 87 43 137 0 14-4 44-15 76z"/>
</svg>
