<?xml version="1.0" standalone="no"?>
<svg width="1536px" height="1536px" version="1.1" xmlns="http://www.w3.org/2000/svg">
    <path transform="scale(1, -1) translate(0, -1536)" glyph-name="thumbs_o_up" unicode="&#xf087;" 

d="M256 192c0 35 -29 64 -64 64s-64 -29 -64 -64s29 -64 64 -64s64 29 64 64zM1408 768c0 68 -61 128 -128 128h-352c0 117 96 202 96 320c0 117 -23 192 -160 192c-64 -65 -31 -218 -128 -320c-28 -29 -52 -60 -77 -91c-45 -58 -164 -229 -243 -229h-32v-640h32
c56 0 148 -36 202 -55c110 -38 224 -73 342 -73h121c113 0 192 45 192 167c0 19 -2 38 -5 56c42 23 65 80 65 126c0 24 -6 48 -18 69c34 32 53 72 53 119c0 32 -14 79 -35 103c47 1 75 91 75 128zM1536 769c0 -58 -17 -115 -49 -163c6 -22 9 -46 9 -69
c0 -50 -13 -100 -38 -144c2 -14 3 -29 3 -43c0 -64 -21 -128 -60 -178c2 -189 -127 -300 -312 -300h-36h-93c-142 0 -274 42 -406 88c-29 10 -110 40 -138 40h-288c-71 0 -128 57 -128 128v640c0 71 57 128 128 128h274c39 26 107 116 137 155c34 44 69 87 107 128
c60 64 28 222 128 320c24 23 56 37 90 37c104 0 204 -37 253 -134c31 -61 35 -119 35 -186c0 -70 -18 -130 -48 -192h176c138 0 256 -117 256 -255z" />
</svg>