<svg width="1536" height="1536" xmlns="http://www.w3.org/2000/svg">
    <path d="M256 448c0-35-29-64-64-64s-64 29-64 64 29 64 64 64 64-29 64-64zm1152 576c0-37-28-127-75-128 21-24 35-71 35-103 0-47-19-87-53-119 12-21 18-45 18-69 0-46-23-103-65-126 3-18 5-37 5-56 0-117-74-167-185-167H960c-118 0-232 35-342 73-54 19-146 55-202 55h-32v640h32c79 0 198 171 243 229 25 31 49 62 77 91 97 102 64 255 128 320 137 0 160-75 160-192 0-118-96-203-96-320h352c67 0 128-60 128-128zm128 1c0 138-118 255-256 255h-176c30 62 48 122 48 192 0 66-4 126-35 186-49 97-149 134-253 134-34 0-66-14-90-37-100-98-69-256-128-321-38-40-73-83-107-127-30-39-98-129-137-155H128c-71 0-128-57-128-128V384c0-71 57-128 128-128h288c28 0 109-30 138-40 144-50 269-88 423-88h112c182 0 313 108 312 295v5c39 50 60 114 60 178 0 14-1 29-3 43 25 44 38 94 38 144 0 23-3 47-9 69 32 48 49 105 49 163z"/>
</svg>
