<?xml version="1.0" standalone="no"?>
<svg width="1536px" height="1536px" version="1.1" xmlns="http://www.w3.org/2000/svg">
    <path transform="scale(1, -1) translate(0, -1536)" glyph-name="thumbs_down" unicode="&#xf165;" horiz-adv-x="1664" 

d="M256 960c0 -35 -29 -64 -64 -64c-36 0 -64 29 -64 64c0 36 28 64 64 64c35 0 64 -28 64 -64zM416 448v640c0 35 -29 64 -64 64h-288c-35 0 -64 -29 -64 -64v-640c0 -35 29 -64 64 -64h288c35 0 64 29 64 64zM1545 597c34 -38 55 -96 55 -149c-1 -104 -88 -192 -192 -192
h-277c8 -32 18 -42 29 -64c26 -52 56 -110 56 -192c0 -77 0 -256 -224 -256c-17 0 -33 7 -45 19c-43 42 -55 104 -66 163c-12 58 -23 118 -62 157c-31 31 -65 74 -101 120c-44 58 -140 177 -177 180c-33 3 -61 31 -61 64v641c0 35 30 63 64 64c35 1 95 22 158 44
c108 37 243 84 386 84h17h76h36c88 -1 154 -27 197 -78c38 -45 55 -106 49 -181c25 -24 44 -57 54 -94c11 -40 11 -80 0 -117c30 -40 45 -87 43 -137c0 -14 -4 -44 -15 -76z" />
</svg>