<svg width="1536" height="1536" xmlns="http://www.w3.org/2000/svg">
    <path d="M256 1344c0-35-29-64-64-64s-64 29-64 64 29 64 64 64 64-29 64-64zm1152-576c0-68-61-128-128-128H928c0-117 96-202 96-320 0-117-23-192-160-192-64 65-31 218-128 320-28 29-52 60-77 91-45 58-164 229-243 229h-32v640h32c56 0 148 36 202 55 110 38 224 73 342 73h121c113 0 192-45 192-167 0-19-2-38-5-56 42-23 65-80 65-126 0-24-6-48-18-69 34-32 53-72 53-119 0-32-14-79-35-103 47-1 75-91 75-128zm128-1c0 58-17 115-49 163 6 22 9 46 9 69 0 50-13 100-38 144 2 14 3 29 3 43 0 64-21 128-60 178 2 189-127 300-312 300H960c-142 0-274-42-406-88-29-10-110-40-138-40H128c-71 0-128-57-128-128V768c0-71 57-128 128-128h274c39-26 107-116 137-155 34-44 69-87 107-128 60-64 28-222 128-320 24-23 56-37 90-37 104 0 204 37 253 134 31 61 35 119 35 186 0 70-18 130-48 192h176c138 0 256 117 256 255z"/>
</svg>
