<?xml version="1.0" standalone="no"?>
<svg width="1536px" height="1536px" version="1.1" xmlns="http://www.w3.org/2000/svg">
    <path transform="scale(1, -1) translate(0, -1536)" glyph-name="ticket" unicode="&#xf145;" horiz-adv-x="1792" 

d="M1024 1084l316 -316l-572 -572l-316 316zM813 105l618 618c25 25 25 65 0 90l-362 362c-24 24 -66 24 -90 0l-618 -618c-25 -25 -25 -65 0 -90l362 -362c12 -12 28 -18 45 -18s33 6 45 18zM1702 742l-907 -908c-50 -49 -132 -49 -181 0l-126 126c75 75 75 197 0 272
s-197 75 -272 0l-125 126c-50 49 -50 131 0 181l907 906c49 50 131 50 181 0l125 -125c-75 -75 -75 -197 0 -272s197 -75 272 0l126 -125c49 -50 49 -132 0 -181z" />
</svg>