<?xml version="1.0" standalone="no"?>
<svg width="1536px" height="1536px" version="1.1" xmlns="http://www.w3.org/2000/svg">
    <path transform="scale(1, -1) translate(0, -1536)" glyph-name="remove" unicode="&#xf00d;" horiz-adv-x="1408" 

d="M1298 214c0 -25 -10 -50 -28 -68l-136 -136c-18 -18 -43 -28 -68 -28s-50 10 -68 28l-294 294l-294 -294c-18 -18 -43 -28 -68 -28s-50 10 -68 28l-136 136c-18 18 -28 43 -28 68s10 50 28 68l294 294l-294 294c-18 18 -28 43 -28 68s10 50 28 68l136 136
c18 18 43 28 68 28s50 -10 68 -28l294 -294l294 294c18 18 43 28 68 28s50 -10 68 -28l136 -136c18 -18 28 -43 28 -68s-10 -50 -28 -68l-294 -294l294 -294c18 -18 28 -43 28 -68z" />
</svg>