<svg width="1536" height="1536" xmlns="http://www.w3.org/2000/svg">
    <path d="M1149 1122c0-17-7-33-19-45L949 896l181-181c12-12 19-28 19-45s-7-34-19-46l-90-90c-12-12-29-19-46-19s-33 7-45 19L768 715 587 534c-12-12-28-19-45-19s-34 7-46 19l-90 90c-12 12-19 29-19 46s7 33 19 45l181 181-181 181c-12 12-19 28-19 45s7 34 19 46l90 90c12 12 29 19 46 19s33-7 45-19l181-181 181 181c12 12 28 19 45 19s34-7 46-19l90-90c12-12 19-29 19-46zm387-226c0 424-344 768-768 768S0 1320 0 896s344-768 768-768 768 344 768 768z"/>
</svg>
