<?xml version="1.0" standalone="no"?>
<svg width="1536px" height="1536px" version="1.1" xmlns="http://www.w3.org/2000/svg">
    <path transform="scale(1, -1) translate(0, -1536)" glyph-name="times_circle_o" unicode="&#xf05c;" 

d="M1097 457l-146 -146c-13 -13 -33 -13 -46 0l-137 137l-137 -137c-13 -13 -33 -13 -46 0l-146 146c-13 13 -13 33 0 46l137 137l-137 137c-13 13 -13 33 0 46l146 146c13 13 33 13 46 0l137 -137l137 137c13 13 33 13 46 0l146 -146c13 -13 13 -33 0 -46l-137 -137
l137 -137c13 -13 13 -33 0 -46zM1312 640c0 300 -244 544 -544 544s-544 -244 -544 -544s244 -544 544 -544s544 244 544 544zM1536 640c0 -424 -344 -768 -768 -768s-768 344 -768 768s344 768 768 768s768 -344 768 -768z" />
</svg>