<?xml version="1.0" standalone="no"?>
<svg width="1536px" height="1536px" version="1.1" xmlns="http://www.w3.org/2000/svg">
    <path transform="scale(1, -1) translate(0, -1536)" glyph-name="times_circle" unicode="&#xf057;" 

d="M1149 414c0 17 -7 33 -19 45l-181 181l181 181c12 12 19 28 19 45s-7 34 -19 46l-90 90c-12 12 -29 19 -46 19s-33 -7 -45 -19l-181 -181l-181 181c-12 12 -28 19 -45 19s-34 -7 -46 -19l-90 -90c-12 -12 -19 -29 -19 -46s7 -33 19 -45l181 -181l-181 -181
c-12 -12 -19 -28 -19 -45s7 -34 19 -46l90 -90c12 -12 29 -19 46 -19s33 7 45 19l181 181l181 -181c12 -12 28 -19 45 -19s34 7 46 19l90 90c12 12 19 29 19 46zM1536 640c0 -424 -344 -768 -768 -768s-768 344 -768 768s344 768 768 768s768 -344 768 -768z" />
</svg>