<?xml version="1.0" standalone="no"?>
<svg width="1536px" height="1536px" version="1.1" xmlns="http://www.w3.org/2000/svg">
    <path transform="scale(1, -1) translate(0, -1536)" glyph-name="tint" unicode="&#xf043;" horiz-adv-x="1024" 

d="M512 384c0 25 -8 49 -20 69c-13 20 -66 88 -87 155c-3 11 -13 16 -21 16s-18 -5 -21 -16c-21 -67 -74 -135 -87 -155c-12 -20 -20 -44 -20 -69c0 -71 57 -128 128 -128s128 57 128 128zM1024 512c0 -283 -229 -512 -512 -512s-512 229 -512 512c0 101 31 195 81 275
c51 80 265 351 346 621c13 43 53 64 85 64s73 -21 85 -64c81 -270 295 -541 346 -621s81 -174 81 -275z" />
</svg>