<svg xmlns="http://www.w3.org/2000/svg" width="1536" height="1792" viewBox="0 0 1536 1792">
    <path d="M115.66 277.232C51.585 277.232 0 328.815 0 392.89v1006.22c0 64.075 51.585 115.658 115.66 115.658h2072.68c64.075 0 115.66-51.583 115.66-115.658V392.89c0-64.075-51.585-115.658-115.66-115.658zM756.499 529.52c57.679 0 91.95 46.812 91.95 85.265.001 45.976-32.6 84.43-91.95 84.43-52.664 0-90.281-44.305-90.281-84.43 0-38.453 31.766-85.265 90.28-85.265zm915.45 40.962h199.787v158.827l-44.303 210.654H1717.09l-45.141-210.654zM534.227 610.606v126.226h79.413v108.67h-79.413v148.795c0 28.422-5.852 66.874 26.75 66.874 10.866 0 36.78-7.523 52.663-14.21v106.998c-25.078 10.031-81.92 15.884-101.147 15.884-125.389 0-129.57-68.547-132.077-175.546V845.502h-45.139v-108.67h45.139v-76.906zm677.792 119.538c130.405 0 197.28 100.31 197.28 219.012 0 132.913-82.757 214.836-190.591 214.836-69.382 0-102.821-27.588-108.673-32.603v84.43h45.141v109.505H905.234v-109.505h35.108v-367.81h-35.108V736.833h191.426l14.211 29.257c15.883-11.703 50.992-35.945 101.147-35.945zm-569.206 6.688h193.935v308.457h40.125v109.507h-234.06V1045.29h35.108V845.502h-35.108zm526.575 111.178c-32.601 0-62.696 40.96-59.353 106.998 0 56.843 28.423 100.311 60.188 100.311 35.109 0 59.35-40.96 59.35-104.49 0-50.156-23.404-102.82-60.185-102.82zm594.516 132.912c59.351 0 99.475 40.961 99.475 88.61 0 46.811-38.452 86.1-99.475 86.1-54.335 0-95.297-42.632-95.297-86.1 0-41.797 35.11-88.61 95.297-88.61z" stroke-width="1.125"/>
</svg>
