<?xml version="1.0" standalone="no"?>
<svg width="1536px" height="1536px" version="1.1" xmlns="http://www.w3.org/2000/svg">
    <path transform="scale(1, -1) translate(0, -1536)" glyph-name="toggle_off" unicode="&#xf204;" horiz-adv-x="2048" 

d="M1152 640c0 282 -230 512 -512 512s-512 -230 -512 -512s230 -512 512 -512s512 230 512 512zM1920 640c0 282 -230 512 -512 512h-386c156 -117 258 -303 258 -512s-102 -395 -258 -512h386c282 0 512 230 512 512zM2048 640c0 -353 -287 -640 -640 -640h-768
c-353 0 -640 287 -640 640s287 640 640 640h768c353 0 640 -287 640 -640z" />
</svg>