<svg xmlns="http://www.w3.org/2000/svg" width="1536" height="1792">
    <path fill="#010101" d="M928.41 845.944c-52.674-48.03-119.29-86.763-187.457-125.497-30.985-17.043-125.488-91.412-92.954-196.767l-58.871-24.79c92.954-144.09 213.794-286.63 362.52-419.873-119.29 40.283-224.638 102.257-303.65 212.26C694.477 193.67 770.389 97.61 854.048 0 739.404 82.115 640.253 175.076 578.283 299.024l43.379-173.527c-61.97 111.553-105.348 224.656-122.39 337.758l-91.404-37.184-15.493 12.395c80.56 144.089 38.731 220.007-1.549 246.346-80.56 54.227-196.752 123.948-255.623 184.372C23.658 983.836-8.876 1092.29 1.969 1236.38c10.844 184.372 145.628 337.758 323.79 398.182 79.01 26.34 151.824 29.438 232.384 29.438 130.136 0 263.37-34.086 360.972-116.201 103.798-85.214 164.218-215.36 164.218-348.603 0-134.794-55.772-263.39-154.923-353.252zm-639.833 732.842c-144.079-69.72-240.131-220.008-246.328-342.406C29.855 986.935 149.146 914.115 260.69 822.704c61.969-51.129 148.726-75.918 198.301-167.33 9.296-20.141 15.493-63.523 3.099-110.003-4.648-15.494-27.886-71.27-37.182-83.665L562.79 522.13c-3.098 65.073-4.648 117.75 7.746 165.78 13.943 52.678 82.11 128.597 109.996 216.91 54.223 167.329 40.28 385.787 1.549 556.215-6.197 27.889-26.337 61.974-51.125 92.961 9.296-17.043 17.042-34.085 21.69-52.678 38.73-137.892 55.772-201.415 37.181-353.251-3.098-15.493-9.295-65.073-32.534-119.3-32.534-82.115-82.11-159.583-88.306-176.625-10.845-26.34-26.337-137.892-27.886-213.81 1.549 65.072 6.197 184.372 23.238 230.852 4.648 15.494 49.576 85.214 82.11 170.429 21.689 58.875 26.337 113.102 30.984 128.596 15.493 69.72-3.098 187.47-27.886 299.024-7.746 40.283-29.435 86.763-57.322 122.398 15.493-21.69 27.887-49.579 37.182-82.115 18.59-65.073 26.337-148.738 24.788-201.415-1.55-30.987-15.493-97.61-38.731-158.034-13.943-32.536-34.083-66.622-48.026-89.862-15.493-23.24-15.493-74.369-21.69-133.244 1.55 63.523-4.647 96.06 10.845 140.99 9.296 26.34 43.379 63.524 52.674 99.159 13.943 48.03 27.886 100.707 26.337 133.244 0 37.184-1.55 105.355-18.59 179.724-10.845 55.777-35.633 103.807-75.913 134.793 17.041-21.69 26.337-43.381 30.984-65.072 6.197-32.536 7.747-63.523 10.845-102.257 3.099-32.536 1.55-74.369-7.746-119.3-12.394-55.776-32.534-111.553-41.83-150.287 1.55 43.382 18.591 97.61 26.338 154.935 6.197 41.833 3.098 83.665 1.549 120.85-1.55 43.381-15.493 119.3-34.083 156.483-18.591-7.746-24.788-18.592-37.182-34.085-15.492-20.142-24.788-41.833-34.083-66.622-7.746-18.592-15.492-40.283-20.14-63.523-4.648-37.185-3.099-94.51 38.73-153.386 32.535-46.48 38.732-49.58 49.576-103.806-15.492 48.03-26.337 52.678-60.42 92.96-38.73 44.932-44.928 110.004-44.928 162.682 0 21.691 9.296 46.48 17.042 69.72 9.295 24.79 18.59 49.58 30.985 68.172 9.295 15.494 21.689 26.34 32.533 34.086-40.28-10.846-82.109-26.34-108.446-48.03-65.068-55.777-122.39-150.287-130.135-233.952-6.197-68.17 55.772-167.33 144.078-216.908 74.363-43.382 91.405-91.412 106.897-170.429-21.689 68.172-43.378 127.047-114.643 162.682-102.25 55.776-154.923 145.639-150.276 232.402 7.747 110.004 51.125 185.922 139.431 246.347 20.14 13.944 48.027 27.888 77.462 38.733-109.995-26.339-123.939-41.832-161.12-85.214 0-3.099-9.296-9.296-9.296-10.845-49.575-55.777-111.544-151.836-133.234-240.15-7.746-30.986-15.492-63.523-6.197-94.51 40.28-145.638 128.587-201.415 216.893-261.84 21.69-15.493 43.379-29.437 63.519-44.93 49.575-38.734 61.969-139.442 72.814-196.768-20.14 69.721-41.83 156.484-80.56 184.373-20.14 15.493-44.928 27.888-65.068 41.832-91.405 61.974-182.81 120.85-224.64 271.136-9.294 38.734-3.098 66.622 6.198 103.806 23.238 91.412 85.208 190.57 137.882 249.445l9.295 9.297c23.239 26.338 52.674 46.48 88.306 60.424-32.534-7.747-61.969-18.592-89.855-32.536z"/>
</svg>
