<svg xmlns="http://www.w3.org/2000/svg" width="1536" height="1792">
    <path fill="#010101" d="M375.574 1306.082c40.125-142.847 126.796-199.022 213.467-256.803 22.47-14.445 41.73-28.89 62.595-43.335 48.15-36.916 60.991-138.032 70.621-194.207-20.865 69.015-41.73 154.081-78.646 181.366-19.26 16.05-43.335 27.286-64.2 41.73-91.486 60.991-179.762 120.377-221.492 268.038-9.63 36.916-3.21 65.806 6.42 101.116 17.655 69.016 57.78 142.847 97.906 199.022 9.63 4.815 20.865 8.025 30.495 12.84-44.94-56.175-94.696-138.03-113.956-215.072-4.815-32.1-11.235-64.2-3.21-94.695z"/>
    <path fill="#010101" d="M624.351 1230.646c72.226-41.73 89.881-89.881 105.931-168.527-22.47 67.41-41.73 125.191-112.351 160.502-101.116 52.965-154.081 142.846-149.266 227.912 4.815 72.226 25.68 130.006 64.2 176.552 14.445 4.815 28.89 9.63 43.336 12.84-48.15-54.57-88.276-130.006-93.091-195.812-4.815-65.806 56.175-163.712 141.241-213.467zm19.26-439.775c38.52-33.705 32.1-109.14-4.815-205.442l70.62 30.496c12.841-118.771 57.782-242.358 125.192-359.524l-43.335 173.342c52.965-104.326 133.216-187.787 224.702-260.013C938.935 142.445 855.473 128 768.803 128 343.473 128 0 471.473 0 896.803c0 240.752 110.746 455.824 284.088 597.065-32.1-70.62-48.15-147.661-48.15-223.097 1.604-213.467 255.197-354.708 407.673-479.9zm11.235 765.593c-4.815-36.915-3.21-93.09 36.916-150.872 32.1-46.545 38.52-49.755 49.755-102.72-14.445 46.545-25.68 51.36-59.385 91.485-36.916 43.336-43.336 107.536-43.336 158.897 0 22.47 8.025 46.545 17.655 69.016 4.815 12.84 9.63 24.075 14.446 35.31 8.025 1.605 16.05 1.605 22.47 3.21-8.025-12.84-12.84-27.285-19.26-41.73-6.42-17.656-16.05-38.52-19.26-62.596z"/>
    <path fill="#010101" d="M1133.141 219.486c-33.705-17.655-67.41-33.705-104.326-46.546C959.8 256.401 898.81 338.257 860.288 420.113c70.621-101.116 165.317-160.502 272.853-200.627zM869.919 1418.433c-1.606-30.496-14.446-96.301-38.52-155.687-12.841-32.1-33.706-65.806-46.546-88.276-14.445-22.47-14.445-72.225-22.47-130.006 1.604 62.596-4.816 94.696 11.235 139.636 9.63 27.286 41.73 62.596 51.36 97.906 12.84 46.546 27.285 99.511 27.285 130.007 0 36.915-1.605 104.326-17.655 176.551-4.815 27.286-14.445 51.36-25.68 73.831 6.42 0 14.445-1.605 20.865-1.605 6.42-14.445 12.84-28.89 17.655-44.94 17.655-62.596 24.076-144.452 22.47-197.417z"/>
    <path fill="#010101" d="M906.834 1262.746c-1.605-14.445-8.025-64.2-32.1-117.166-33.706-80.25-81.856-158.897-88.276-173.342-11.235-25.68-25.68-134.821-27.286-210.257 1.605 62.596 6.42 179.762 22.47 226.307 4.816 16.05 49.756 85.066 80.251 168.527 22.47 57.78 27.286 110.746 30.496 126.796 14.445 69.016-3.21 184.577-27.286 295.323-4.815 25.68-17.655 56.176-33.705 85.066 6.42 0 12.84-1.605 17.655-1.605 8.025-16.05 16.05-32.1 20.866-48.15 38.52-138.032 54.57-200.627 36.915-351.499zm-107.536 295.323c3.21-32.1 1.605-73.83-8.025-117.166-12.84-54.57-32.1-109.141-41.73-149.267 1.604 41.73 17.655 96.301 25.68 152.477 6.42 41.73 3.21 81.856 1.605 118.771 0 27.285-6.42 65.806-16.05 101.116h24.074c0-1.605 1.606-3.21 1.606-4.815 8.025-32.1 9.63-64.2 12.84-101.116z"/>
    <path fill="#010101" d="M1536 896.803c0-288.903-158.897-539.286-393.229-670.897C993.505 360.727 874.734 505.179 784.853 649.63c0 1.605-12.84 101.116 4.815 162.107 16.05 51.36 80.25 126.796 109.14 213.467 52.966 162.106 40.126 378.783 0 545.705-6.42 27.285-24.074 59.386-48.15 88.276 19.26-1.605 36.916-4.815 54.57-8.025 6.42-12.84 12.841-25.68 19.261-40.126 44.94-120.376 52.966-261.617 35.31-412.489-1.605-14.445-25.68-144.451-48.15-199.021-32.1-80.251-86.67-136.427-102.721-187.787-24.075-72.226-11.235-160.502-11.235-162.107l35.31 16.05c-4.815 33.706 1.605 109.141 36.916 128.402 149.266 93.09 292.112 194.206 346.683 296.927 86.67 157.292 70.62 308.163 0 426.935C1410.809 1379.912 1536 1153.605 1536 896.803z"/>
</svg>
