<svg width="1536" height="1536" xmlns="http://www.w3.org/2000/svg">
    <path d="M857 544v117c0 17-15 31-32 31H527v812c0 18-14 32-31 32H361c-18 0-32-14-32-32V692H32c-18 0-32-14-32-31V544c0-18 14-32 32-32h793c17 0 32 14 32 32zm1038-3l77 961c1 9-2 17-8 24-6 6-14 10-23 10h-134c-16 0-30-13-31-29l-46-588-189 425c-5 12-16 19-29 19h-120c-12 0-23-7-29-19l-188-427-45 590c-1 16-15 29-31 29H964c-9 0-17-4-23-10-6-7-9-15-9-24l78-961c1-16 15-29 31-29h142c13 0 24 8 29 19l220 520c7 16 14 34 20 51 7-17 13-35 20-51l221-520c5-11 16-19 29-19h141c17 0 31 13 32 29z"/>
</svg>
