<?xml version="1.0" standalone="no"?>
<svg width="1536px" height="1536px" version="1.1" xmlns="http://www.w3.org/2000/svg">
    <path transform="scale(1, -1) translate(0, -1536)" glyph-name="tardemark" unicode="&#xf25c;" horiz-adv-x="1973"

d="M857 992v-117c0 -17 -15 -31 -32 -31h-298v-812c0 -18 -14 -32 -31 -32h-135c-18 0 -32 14 -32 32v812h-297c-18 0 -32 14 -32 31v117c0 18 14 32 32 32h793c17 0 32 -14 32 -32zM1895 995l77 -961c1 -9 -2 -17 -8 -24c-6 -6 -14 -10 -23 -10h-134c-16 0 -30 13 -31 29
l-46 588l-189 -425c-5 -12 -16 -19 -29 -19h-120c-12 0 -23 7 -29 19l-188 427l-45 -590c-1 -16 -15 -29 -31 -29h-135c-9 0 -17 4 -23 10c-6 7 -9 15 -9 24l78 961c1 16 15 29 31 29h142c13 0 24 -8 29 -19l220 -520c7 -16 14 -34 20 -51c7 17 13 35 20 51l221 520
c5 11 16 19 29 19h141c17 0 31 -13 32 -29z" />
</svg>
