<?xml version="1.0" standalone="no"?>
<svg width="1536px" height="1536px" version="1.1" xmlns="http://www.w3.org/2000/svg">
    <path transform="scale(1, -1) translate(0, -1536)" glyph-name="train" unicode="&#xf238;" 

d="M1088 1536c247 0 448 -143 448 -320v-896c0 -173 -191 -313 -431 -319l213 -202c21 -20 7 -55 -22 -55h-1056c-29 0 -43 35 -22 55l213 202c-240 6 -431 146 -431 319v896c0 177 201 320 448 320h640zM768 192c106 0 192 86 192 192s-86 192 -192 192s-192 -86 -192 -192
s86 -192 192 -192zM1344 768v512h-1152v-512h1152z" />
</svg>