<?xml version="1.0" standalone="no"?>
<svg width="1536px" height="1536px" version="1.1" xmlns="http://www.w3.org/2000/svg">
    <path transform="scale(1, -1) translate(0, -1536)" glyph-name="transgender_alt" unicode="&#xf225;" horiz-adv-x="1792" 

d="M1280 1504c0 18 14 32 32 32h288c35 0 64 -29 64 -64v-288c0 -18 -14 -32 -32 -32h-64c-18 0 -32 14 -32 32v134l-254 -255c78 -98 126 -223 126 -359c0 -296 -224 -540 -512 -572v-132h96c18 0 32 -14 32 -32v-64c0 -18 -14 -32 -32 -32h-96v-96c0 -18 -14 -32 -32 -32
h-64c-18 0 -32 14 -32 32v96h-96c-18 0 -32 14 -32 32v64c0 18 14 32 32 32h96v132c-288 32 -512 276 -512 572c0 136 48 261 126 359l-52 53l-101 -111c-12 -13 -32 -14 -45 -3l-48 44c-13 11 -14 32 -2 45l105 115l-111 112v-134c0 -18 -14 -32 -32 -32h-64
c-18 0 -32 14 -32 32v288c0 35 29 64 64 64h288c18 0 32 -14 32 -32v-64c0 -18 -14 -32 -32 -32h-133l106 -107l86 94c12 13 32 14 45 3l48 -44c13 -11 14 -32 2 -45l-90 -99l57 -56c98 78 223 126 359 126s261 -48 359 -126l255 254h-134c-18 0 -32 14 -32 32v64zM832 256
c247 0 448 201 448 448s-201 448 -448 448s-448 -201 -448 -448s201 -448 448 -448z" />
</svg>