<svg width="1536" height="1536" xmlns="http://www.w3.org/2000/svg">
    <path d="M1280 32c0-18 14-32 32-32h288c35 0 64 29 64 64v288c0 18-14 32-32 32h-64c-18 0-32-14-32-32V218l-254 255c78 98 126 223 126 359 0 296-224 540-512 572v132h96c18 0 32 14 32 32v64c0 18-14 32-32 32h-96v96c0 18-14 32-32 32h-64c-18 0-32-14-32-32v-96h-96c-18 0-32-14-32-32v-64c0-18 14-32 32-32h96v-132c-288-32-512-276-512-572 0-136 48-261 126-359l-52-53-101 111c-12 13-32 14-45 3l-48-44c-13-11-14-32-2-45l105-115-111-112v134c0 18-14 32-32 32H32c-18 0-32-14-32-32V64C0 29 29 0 64 0h288c18 0 32 14 32 32v64c0 18-14 32-32 32H219l106 107 86-94c12-13 32-14 45-3l48 44c13 11 14 32 2 45l-90 99 57 56c98-78 223-126 359-126s261 48 359 126l255-254h-134c-18 0-32-14-32-32V32zM832 1280c247 0 448-201 448-448s-201-448-448-448-448 201-448 448 201 448 448 448z"/>
</svg>
