<svg width="1536" height="1536" xmlns="http://www.w3.org/2000/svg">
    <path d="M1024 32c0-18 14-32 32-32h288c35 0 64 29 64 64v288c0 18-14 32-32 32h-64c-18 0-32-14-32-32V218l-254 255c78 98 126 223 126 359 0 296-224 540-512 572v132h96c18 0 32 14 32 32v64c0 18-14 32-32 32h-96v96c0 18-14 32-32 32h-64c-18 0-32-14-32-32v-96h-96c-18 0-32-14-32-32v-64c0-18 14-32 32-32h96v-132C210 1371-23 1102 2 786c21-272 237-495 507-526 162-19 312 31 426 122l255-254h-134c-18 0-32-14-32-32V32zM576 1280c247 0 448-201 448-448S823 384 576 384 128 585 128 832s201 448 448 448z"/>
</svg>
