<?xml version="1.0" standalone="no"?>
<svg width="1536px" height="1536px" version="1.1" xmlns="http://www.w3.org/2000/svg">
    <path transform="scale(1, -1) translate(0, -1536)" glyph-name="transgender" unicode="&#xf224;" 

d="M1024 1504c0 18 14 32 32 32h288c35 0 64 -29 64 -64v-288c0 -18 -14 -32 -32 -32h-64c-18 0 -32 14 -32 32v134l-254 -255c78 -98 126 -223 126 -359c0 -296 -224 -540 -512 -572v-132h96c18 0 32 -14 32 -32v-64c0 -18 -14 -32 -32 -32h-96v-96c0 -18 -14 -32 -32 -32
h-64c-18 0 -32 14 -32 32v96h-96c-18 0 -32 14 -32 32v64c0 18 14 32 32 32h96v132c-302 33 -535 302 -510 618c21 272 237 495 507 526c162 19 312 -31 426 -122l255 254h-134c-18 0 -32 14 -32 32v64zM576 256c247 0 448 201 448 448s-201 448 -448 448
s-448 -201 -448 -448s201 -448 448 -448z" />
</svg>