<?xml version="1.0" standalone="no"?>
<svg width="1536px" height="1536px" version="1.1" xmlns="http://www.w3.org/2000/svg">
    <path transform="scale(1, -1) translate(0, -1536)" glyph-name="trash" unicode="&#xf1f8;" horiz-adv-x="1408" 

d="M512 160v704c0 18 -14 32 -32 32h-64c-18 0 -32 -14 -32 -32v-704c0 -18 14 -32 32 -32h64c18 0 32 14 32 32zM768 160v704c0 18 -14 32 -32 32h-64c-18 0 -32 -14 -32 -32v-704c0 -18 14 -32 32 -32h64c18 0 32 14 32 32zM1024 160v704c0 18 -14 32 -32 32h-64
c-18 0 -32 -14 -32 -32v-704c0 -18 14 -32 32 -32h64c18 0 32 14 32 32zM480 1152h448l-48 117c-3 4 -12 10 -17 11h-317c-6 -1 -14 -7 -17 -11zM1408 1120v-64c0 -18 -14 -32 -32 -32h-96v-948c0 -110 -72 -204 -160 -204h-832c-88 0 -160 90 -160 200v952h-96
c-18 0 -32 14 -32 32v64c0 18 14 32 32 32h309l70 167c20 49 80 89 133 89h320c53 0 113 -40 133 -89l70 -167h309c18 0 32 -14 32 -32z" />
</svg>