<svg width="1536" height="1536" xmlns="http://www.w3.org/2000/svg">
    <path d="M512 736v576c0 18-14 32-32 32h-64c-18 0-32-14-32-32V736c0-18 14-32 32-32h64c18 0 32 14 32 32zm256 0v576c0 18-14 32-32 32h-64c-18 0-32-14-32-32V736c0-18 14-32 32-32h64c18 0 32 14 32 32zm256 0v576c0 18-14 32-32 32h-64c-18 0-32-14-32-32V736c0-18 14-32 32-32h64c18 0 32 14 32 32zm128 724V512H256v948c0 48 27 76 32 76h832c5 0 32-28 32-76zM480 384h448l-48-117c-3-4-12-10-17-11H546c-6 1-14 7-17 11zm928 32v64c0 18-14 32-32 32h-96v948c0 110-72 204-160 204H288c-88 0-160-90-160-200V512H32c-18 0-32-14-32-32v-64c0-18 14-32 32-32h309l70-167c20-49 80-89 133-89h320c53 0 113 40 133 89l70 167h309c18 0 32 14 32 32z"/>
</svg>
