<?xml version="1.0" standalone="no"?>
<svg width="1536px" height="1536px" version="1.1" xmlns="http://www.w3.org/2000/svg">
    <path transform="scale(1, -1) translate(0, -1536)" glyph-name="tree" unicode="&#xf1bb;" 

d="M1504 64c0 -35 -29 -64 -64 -64h-462c3 -64 11 -131 11 -196c0 -33 -27 -60 -61 -60h-320c-34 0 -61 27 -61 60c0 65 8 132 11 196h-462c-35 0 -64 29 -64 64c0 17 7 33 19 45l402 403h-229c-35 0 -64 29 -64 64c0 17 7 33 19 45l402 403h-197c-35 0 -64 29 -64 64
c0 17 7 33 19 45l384 384c12 12 28 19 45 19s33 -7 45 -19l384 -384c12 -12 19 -28 19 -45c0 -35 -29 -64 -64 -64h-197l402 -403c12 -12 19 -28 19 -45c0 -35 -29 -64 -64 -64h-229l402 -403c12 -12 19 -28 19 -45z" />
</svg>