<?xml version="1.0" standalone="no"?>
<svg width="1536px" height="1536px" version="1.1" xmlns="http://www.w3.org/2000/svg">
    <path transform="scale(1, -1) translate(0, -1536)" glyph-name="tripadvisor" unicode="&#xf262;" horiz-adv-x="2304" 

d="M651 539c0 -52 -42 -94 -93 -94c-52 0 -94 42 -94 94c0 51 42 93 94 93c51 0 93 -42 93 -93zM1805 540c0 -52 -42 -94 -94 -94s-94 42 -94 94s42 93 94 93s94 -41 94 -93zM765 539c0 106 -87 193 -193 193c-107 0 -193 -87 -193 -193c0 -107 86 -193 193 -193
c106 0 193 86 193 193zM1918 540c0 106 -86 193 -193 193c-106 0 -193 -87 -193 -193c0 -107 87 -193 193 -193c107 0 193 86 193 193zM850 539c0 -154 -124 -279 -278 -279s-279 125 -279 279c0 153 125 278 279 278s278 -125 278 -278zM2004 540
c0 -154 -125 -278 -279 -278c-153 0 -278 124 -278 278s125 278 278 278c154 0 279 -124 279 -278zM1040 537c0 255 -207 462 -462 462c-254 0 -461 -207 -461 -462s207 -462 461 -462c255 0 462 207 462 462zM1708 1110c-165 72 -351 111 -556 111s-409 -39 -573 -110
c317 -1 573 -257 573 -574c0 311 247 564 556 573zM2187 537c0 255 -206 462 -461 462s-462 -207 -462 -462s207 -462 462 -462s461 207 461 462zM1921 1103h383c-60 -70 -104 -164 -115 -229c69 -95 110 -211 110 -337c0 -317 -257 -573 -573 -573c-180 0 -340 82 -445 211
c0 0 -47 -56 -129 -179c-14 29 -85 130 -128 180c-105 -130 -266 -212 -446 -212c-316 0 -573 256 -573 573c0 126 41 242 110 337c-11 65 -55 159 -115 229h365c196 131 481 213 787 213s573 -82 769 -213z" />
</svg>