<svg width="1536" height="1536" xmlns="http://www.w3.org/2000/svg">
    <path d="M651 997c0 52-42 94-93 94-52 0-94-42-94-94 0-51 42-93 94-93 51 0 93 42 93 93zm1154-1c0 52-42 94-94 94s-94-42-94-94 42-93 94-93 94 41 94 93zm-1040 1c0-106-87-193-193-193-107 0-193 87-193 193 0 107 86 193 193 193 106 0 193-86 193-193zm1153-1c0-106-86-193-193-193-106 0-193 87-193 193 0 107 87 193 193 193 107 0 193-86 193-193zm-1068 1c0 154-124 279-278 279s-279-125-279-279c0-153 125-278 279-278s278 125 278 278zm1154-1c0 154-125 278-279 278-153 0-278-124-278-278s125-278 278-278c154 0 279 124 279 278zm-964 3c0-255-207-462-462-462-254 0-461 207-461 462s207 462 461 462c255 0 462-207 462-462zm668-573c-165-72-351-111-556-111s-409 39-573 110c317 1 573 257 573 574 0-311 247-564 556-573zm479 573c0-255-206-462-461-462s-462 207-462 462 207 462 462 462 461-207 461-462zm-266-566h383c-60 70-104 164-115 229 69 95 110 211 110 337 0 317-257 573-573 573-180 0-340-82-445-211 0 0-47 56-129 179-14-29-85-130-128-180-105 130-266 212-446 212-316 0-573-256-573-573 0-126 41-242 110-337-11-65-55-159-115-229h365c196-131 481-213 787-213s573 82 769 213z"/>
</svg>
