<svg width="1536" height="1536" xmlns="http://www.w3.org/2000/svg">
    <path d="M640 1408c0-70-58-128-128-128s-128 58-128 128 58 128 128 128 128-58 128-128zM256 896h384V640H482c-4 0-19 6-22 9L265 844c-3 3-9 18-9 22v30zm1280 512c0-70-58-128-128-128s-128 58-128 128 58 128 128 128 128-58 128-128zm256-1088v1024c0 74-78 64-128 64 0 141-115 256-256 256s-256-115-256-256H768c0 141-115 256-256 256s-256-115-256-256h-64c-50 0-128 10-128-64 0-35 29-64 64-64V960c0-71-10-150 45-205l198-198c25-25 73-45 109-45h160V320c0-35 29-64 64-64h1024c35 0 64 29 64 64z"/>
</svg>
