<?xml version="1.0" standalone="no"?>
<svg width="1536px" height="1536px" version="1.1" xmlns="http://www.w3.org/2000/svg">
    <path transform="scale(1, -1) translate(0, -1536)" glyph-name="truck" unicode="&#xf0d1;" horiz-adv-x="1792" 

d="M640 128c0 70 -58 128 -128 128s-128 -58 -128 -128s58 -128 128 -128s128 58 128 128zM256 640h384v256h-158c-4 0 -19 -6 -22 -9l-195 -195c-3 -3 -9 -18 -9 -22v-30zM1536 128c0 70 -58 128 -128 128s-128 -58 -128 -128s58 -128 128 -128s128 58 128 128zM1792 1216
v-1024c0 -74 -78 -64 -128 -64c0 -141 -115 -256 -256 -256s-256 115 -256 256h-384c0 -141 -115 -256 -256 -256s-256 115 -256 256h-64c-50 0 -128 -10 -128 64c0 35 29 64 64 64v320c0 71 -10 150 45 205l198 198c25 25 73 45 109 45h160v192c0 35 29 64 64 64h1024
c35 0 64 -29 64 -64z" />
</svg>