<?xml version="1.0" standalone="no"?>
<svg width="1536px" height="1536px" version="1.1" xmlns="http://www.w3.org/2000/svg">
    <path transform="scale(1, -1) translate(0, -1536)" glyph-name="try" unicode="&#xf195;" horiz-adv-x="1152" 

d="M1152 704c0 -388 -316 -704 -704 -704h-160c-18 0 -32 14 -32 32v611l-215 -66c-3 -1 -6 -1 -9 -1c-7 0 -13 2 -19 6c-8 6 -13 16 -13 26v128c0 14 9 26 23 31l233 71v93l-215 -66c-3 -1 -6 -1 -9 -1c-7 0 -13 2 -19 6c-8 6 -13 16 -13 26v128c0 14 9 26 23 31l233 71
v250c0 18 14 32 32 32h160c18 0 32 -14 32 -32v-181l375 116c9 3 20 1 28 -5s13 -16 13 -26v-128c0 -14 -9 -26 -23 -31l-393 -121v-93l375 116c9 3 20 1 28 -5s13 -16 13 -26v-128c0 -14 -9 -26 -23 -31l-393 -121v-487c250 17 448 225 448 479c0 18 14 32 32 32h160
c18 0 32 -14 32 -32z" />
</svg>