<svg width="1536" height="1536" xmlns="http://www.w3.org/2000/svg">
    <path d="M1152 832c0 388-316 704-704 704H288c-18 0-32-14-32-32V893L41 959c-3 1-6 1-9 1-7 0-13-2-19-6-8-6-13-16-13-26V800c0-14 9-26 23-31l233-71v-93L41 671c-3 1-6 1-9 1-7 0-13-2-19-6-8-6-13-16-13-26V512c0-14 9-26 23-31l233-71V160c0-18 14-32 32-32h160c18 0 32 14 32 32v181l375-116c9-3 20-1 28 5s13 16 13 26v128c0 14-9 26-23 31L480 536v93l375-116c9-3 20-1 28 5s13 16 13 26v128c0 14-9 26-23 31L480 824v487c250-17 448-225 448-479 0-18 14-32 32-32h160c18 0 32 14 32 32z"/>
</svg>
