<?xml version="1.0" standalone="no"?>
<svg width="1536px" height="1536px" version="1.1" xmlns="http://www.w3.org/2000/svg">
    <path transform="scale(1, -1) translate(0, -1536)" glyph-name="tty" unicode="&#xf1e4;" horiz-adv-x="1792" 

d="M448 224v-192c0 -18 -14 -32 -32 -32h-192c-18 0 -32 14 -32 32v192c0 18 14 32 32 32h192c18 0 32 -14 32 -32zM256 608v-192c0 -18 -14 -32 -32 -32h-192c-18 0 -32 14 -32 32v192c0 18 14 32 32 32h192c18 0 32 -14 32 -32zM832 224v-192c0 -18 -14 -32 -32 -32h-192
c-18 0 -32 14 -32 32v192c0 18 14 32 32 32h192c18 0 32 -14 32 -32zM640 608v-192c0 -18 -14 -32 -32 -32h-192c-18 0 -32 14 -32 32v192c0 18 14 32 32 32h192c18 0 32 -14 32 -32zM66 768c-37 0 -66 29 -66 65v129h514v-129c0 -36 -29 -65 -65 -65h-383zM1216 224v-192
c0 -18 -14 -32 -32 -32h-192c-18 0 -32 14 -32 32v192c0 18 14 32 32 32h192c18 0 32 -14 32 -32zM1024 608v-192c0 -18 -14 -32 -32 -32h-192c-18 0 -32 14 -32 32v192c0 18 14 32 32 32h192c18 0 32 -14 32 -32zM1600 224v-192c0 -18 -14 -32 -32 -32h-192
c-18 0 -32 14 -32 32v192c0 18 14 32 32 32h192c18 0 32 -14 32 -32zM1408 608v-192c0 -18 -14 -32 -32 -32h-192c-18 0 -32 14 -32 32v192c0 18 14 32 32 32h192c18 0 32 -14 32 -32zM1792 1016v-13h-514v10c0 37 -32 104 -382 102c-350 -1 -382 -65 -382 -102v-10h-514v13
c0 67 120 392 896 392c775 0 896 -325 896 -392zM1792 608v-192c0 -18 -14 -32 -32 -32h-192c-18 0 -32 14 -32 32v192c0 18 14 32 32 32h192c18 0 32 -14 32 -32zM1792 962v-129c0 -36 -29 -65 -65 -65h-384c-36 0 -65 29 -65 65v129h514z" />
</svg>