<svg width="1536" height="1536" xmlns="http://www.w3.org/2000/svg">
    <path d="M448 1312v192c0 18-14 32-32 32H224c-18 0-32-14-32-32v-192c0-18 14-32 32-32h192c18 0 32 14 32 32zM256 928v192c0 18-14 32-32 32H32c-18 0-32-14-32-32V928c0-18 14-32 32-32h192c18 0 32 14 32 32zm576 384v192c0 18-14 32-32 32H608c-18 0-32-14-32-32v-192c0-18 14-32 32-32h192c18 0 32 14 32 32zM640 928v192c0 18-14 32-32 32H416c-18 0-32-14-32-32V928c0-18 14-32 32-32h192c18 0 32 14 32 32zM66 768c-37 0-66-29-66-65V574h514v129c0 36-29 65-65 65H66zm1150 544v192c0 18-14 32-32 32H992c-18 0-32-14-32-32v-192c0-18 14-32 32-32h192c18 0 32 14 32 32zm-192-384v192c0 18-14 32-32 32H800c-18 0-32-14-32-32V928c0-18 14-32 32-32h192c18 0 32 14 32 32zm576 384v192c0 18-14 32-32 32h-192c-18 0-32-14-32-32v-192c0-18 14-32 32-32h192c18 0 32 14 32 32zm-192-384v192c0 18-14 32-32 32h-192c-18 0-32-14-32-32V928c0-18 14-32 32-32h192c18 0 32 14 32 32zm384-408v13h-514v-10c0-37-32-104-382-102-350 1-382 65-382 102v10H0v-13c0-67 120-392 896-392 775 0 896 325 896 392zm0 408v192c0 18-14 32-32 32h-192c-18 0-32-14-32-32V928c0-18 14-32 32-32h192c18 0 32 14 32 32zm0-354v129c0 36-29 65-65 65h-384c-36 0-65-29-65-65V574h514z"/>
</svg>
