<?xml version="1.0" standalone="no"?>
<svg width="1536px" height="1536px" version="1.1" xmlns="http://www.w3.org/2000/svg">
    <path transform="scale(1, -1) translate(0, -1536)" glyph-name="tumblr_square" unicode="&#xf174;" 

d="M1136 75l-62 183c-24 -12 -69 -22 -103 -22c-102 -3 -123 71 -123 126v398h257v194h-256v326h-188c-3 0 -8 -3 -9 -10c-11 -99 -58 -275 -252 -345v-165h130v-418c0 -143 105 -347 384 -342c94 2 199 41 222 75zM1536 1120v-960c0 -159 -129 -288 -288 -288h-960
c-159 0 -288 129 -288 288v960c0 159 129 288 288 288h960c159 0 288 -129 288 -288z" />
</svg>