<?xml version="1.0" standalone="no"?>
<svg width="1536px" height="1536px" version="1.1" xmlns="http://www.w3.org/2000/svg">
    <path transform="scale(1, -1) translate(0, -1536)" glyph-name="twitter_square" unicode="&#xf081;" 

d="M1280 926c-38 -17 -78 -28 -121 -34c44 26 77 68 93 117c-41 -24 -86 -42 -134 -51c-38 41 -93 66 -153 66c-116 0 -210 -94 -210 -210c0 -16 1 -33 5 -48c-175 9 -330 92 -434 220c-18 -31 -29 -68 -29 -106c0 -73 34 -137 91 -175c-35 1 -68 11 -100 26v-2
c0 -102 77 -187 173 -206c-18 -5 -32 -8 -51 -8c-13 0 -26 2 -39 4c27 -83 104 -144 196 -146c-72 -56 -162 -90 -261 -90c-17 0 -34 1 -50 3c93 -59 203 -94 322 -94c386 0 598 320 598 598c0 9 0 18 -1 27c41 29 77 66 105 109zM1536 1120v-960
c0 -159 -129 -288 -288 -288h-960c-159 0 -288 129 -288 288v960c0 159 129 288 288 288h960c159 0 288 -129 288 -288z" />
</svg>