<svg width="1536" height="1536" xmlns="http://www.w3.org/2000/svg">
    <path d="M1280 610c-38 17-78 28-121 34 44-26 77-68 93-117-41 24-86 42-134 51-38-41-93-66-153-66-116 0-210 94-210 210 0 16 1 33 5 48-175-9-330-92-434-220-18 31-29 68-29 106 0 73 34 137 91 175-35-1-68-11-100-26v2c0 102 77 187 173 206-18 5-32 8-51 8-13 0-26-2-39-4 27 83 104 144 196 146-72 56-162 90-261 90-17 0-34-1-50-3 93 59 203 94 322 94 386 0 598-320 598-598 0-9 0-18-1-27 41-29 77-66 105-109zm256-194v960c0 159-129 288-288 288H288c-159 0-288-129-288-288V416c0-159 129-288 288-288h960c159 0 288 129 288 288z"/>
</svg>
