<?xml version="1.0" standalone="no"?>
<svg width="1536px" height="1536px" version="1.1" xmlns="http://www.w3.org/2000/svg">
    <path transform="scale(1, -1) translate(0, -1536)" glyph-name="twitter" unicode="&#xf099;" horiz-adv-x="1664" 

d="M1620 1128c-44 -64 -99 -121 -162 -167c1 -14 1 -28 1 -42c0 -427 -325 -919 -919 -919c-183 0 -353 53 -496 145c26 -3 51 -4 78 -4c151 0 290 51 401 138c-142 3 -261 96 -302 224c20 -3 40 -5 61 -5c29 0 58 4 85 11c-148 30 -259 160 -259 317v4
c43 -24 93 -39 146 -41c-87 58 -144 157 -144 269c0 60 16 115 44 163c159 -196 398 -324 666 -338c-5 24 -8 49 -8 74c0 178 144 323 323 323c93 0 177 -39 236 -102c73 14 143 41 205 78c-24 -75 -75 -138 -142 -178c65 7 128 25 186 50z" />
</svg>