<?xml version="1.0" standalone="no"?>
<svg width="1536px" height="1536px" version="1.1" xmlns="http://www.w3.org/2000/svg">
    <path transform="scale(1, -1) translate(0, -1536)" glyph-name="umbrella" unicode="&#xf0e9;" horiz-adv-x="1664" 

d="M896 708v-580c0 -139 -117 -256 -256 -256s-256 117 -256 256c0 35 29 64 64 64s64 -29 64 -64c0 -67 61 -128 128 -128s128 61 128 128v580c21 7 42 11 64 11s43 -4 64 -11zM1664 681c0 -17 -15 -32 -32 -32c-9 0 -16 4 -23 10c-58 54 -112 92 -195 92
c-95 0 -177 -59 -231 -134c-12 -17 -21 -35 -32 -52c-7 -11 -15 -17 -28 -17c-14 0 -22 6 -29 17c-11 17 -20 35 -32 52c-54 75 -135 134 -230 134s-176 -59 -230 -134c-12 -17 -21 -35 -32 -52c-7 -11 -15 -17 -29 -17c-13 0 -21 6 -28 17c-11 17 -20 35 -32 52
c-54 75 -136 134 -231 134c-83 0 -137 -38 -195 -92c-7 -6 -14 -10 -23 -10c-17 0 -32 15 -32 32c0 3 0 5 1 7c92 378 457 592 831 592c372 0 741 -214 831 -592c1 -2 1 -4 1 -7zM896 1408v-98c-21 1 -43 2 -64 2s-43 -1 -64 -2v98c0 35 29 64 64 64s64 -29 64 -64z" />
</svg>