<?xml version="1.0" standalone="no"?>
<svg width="1536px" height="1536px" version="1.1" xmlns="http://www.w3.org/2000/svg">
    <path transform="scale(1, -1) translate(0, -1536)" glyph-name="underline" unicode="&#xf0cd;" 

d="M48 1313c-18 1 -33 1 -45 4l-3 88c13 1 26 1 40 1c35 0 73 -1 112 -4c94 -5 150 -7 166 -7c57 0 113 1 168 3c54 2 103 4 146 5c42 0 71 1 86 2l-1 -14l2 -64v-9c-40 -6 -81 -9 -124 -9c-40 0 -66 -8 -79 -25c-9 -10 -13 -54 -13 -132c0 -24 1 -43 1 -58l1 -229l14 -280
c4 -81 20 -148 51 -202c23 -39 55 -70 96 -92c60 -32 119 -47 177 -47c68 0 132 9 191 28c35 11 68 27 99 51c31 23 53 44 65 64c26 40 43 79 53 114c14 49 21 125 21 229c0 179 -13 184 -28 410l-4 59c-3 43 -10 73 -24 88c-22 23 -48 35 -77 34l-100 -2l-14 3l2 86h84
l205 -10c68 -3 133 3 196 10l18 -2c4 -25 6 -42 6 -51s-2 -19 -4 -31c-27 -7 -55 -12 -84 -13c-47 -7 -74 -12 -79 -17c-9 -9 -15 -22 -15 -41c0 -13 2 -33 3 -58c0 0 8 -18 22 -396c5 -151 -5 -253 -15 -304s-24 -92 -41 -122c-26 -44 -64 -85 -112 -123
c-49 -37 -109 -67 -182 -89s-158 -33 -255 -33c-110 0 -205 15 -284 46s-139 72 -179 122s-68 115 -83 195c-11 55 -16 134 -16 237v333c0 126 -6 197 -17 213c-16 23 -65 37 -147 39zM1536 -96v64c0 18 -14 32 -32 32h-1472c-18 0 -32 -14 -32 -32v-64c0 -18 14 -32 32 -32
h1472c18 0 32 14 32 32z" />
</svg>