<svg width="1536" height="1536" xmlns="http://www.w3.org/2000/svg">
    <path d="M48 223c-18-1-33-1-45-4l-3-88c13-1 26-1 40-1 35 0 73 1 112 4 94 5 150 7 166 7 57 0 113-1 168-3 54-2 103-4 146-5 42 0 71-1 86-2l-1 14 2 64v9c-40 6-81 9-124 9-40 0-66 8-79 25-9 10-13 54-13 132 0 24 1 43 1 58l1 229 14 280c4 81 20 148 51 202 23 39 55 70 96 92 60 32 119 47 177 47 68 0 132-9 191-28 35-11 68-27 99-51 31-23 53-44 65-64 26-40 43-79 53-114 14-49 21-125 21-229 0-179-13-184-28-410l-4-59c-3-43-10-73-24-88-22-23-48-35-77-34l-100 2-14-3 2-86h84l205 10c68 3 133-3 196-10l18 2c4 25 6 42 6 51s-2 19-4 31c-27 7-55 12-84 13-47 7-74 12-79 17-9 9-15 22-15 41 0 13 2 33 3 58 0 0 8 18 22 396 5 151-5 253-15 304s-24 92-41 122c-26 44-64 85-112 123-49 37-109 67-182 89s-158 33-255 33c-110 0-205-15-284-46s-139-72-179-122-68-115-83-195c-11-55-16-134-16-237V475c0-126-6-197-17-213-16-23-65-37-147-39zm1488 1409v-64c0-18-14-32-32-32H32c-18 0-32 14-32 32v64c0 18 14 32 32 32h1472c18 0 32-14 32-32z"/>
</svg>
