<?xml version="1.0" standalone="no"?>
<svg width="1536px" height="1536px" version="1.1" xmlns="http://www.w3.org/2000/svg">
    <path transform="scale(1, -1) translate(0, -1536)" glyph-name="undo" unicode="&#xf0e2;" 

d="M1536 640c0 -423 -345 -768 -768 -768c-229 0 -445 101 -591 277c-10 13 -9 32 2 43l137 138c7 6 16 9 25 9c9 -1 18 -5 23 -12c98 -127 245 -199 404 -199c282 0 512 230 512 512s-230 512 -512 512c-131 0 -255 -50 -348 -137l137 -138c19 -18 24 -46 14 -69
c-10 -24 -33 -40 -59 -40h-448c-35 0 -64 29 -64 64v448c0 26 16 49 40 59c23 10 51 5 69 -14l130 -129c141 133 332 212 529 212c423 0 768 -345 768 -768z" />
</svg>