<svg xmlns="http://www.w3.org/2000/svg" width="1536" height="1792" viewBox="0 0 1536 1792">
    <path d="M1660.004 901.572l113.187-191.728c4.546-9.562 5.173-20.536 1.726-30.412L1550.738 37.309c-6.898-19.596-27.434-30.726-47.344-25.867L844.498 171.973a40.475 40.475 0 0 0-27.748 24.142L746.674 371.54H533c-11.13 0-21.947 4.703-29.472 12.855L21.935 906.118c-14.893 16.147-14.109 41.23 1.726 56.28l505.107 481.592c7.368 7.211 17.401 11.13 27.591 11.13h230.293l70.232 175.424c5.173 13.012 16.774 22.261 30.413 24.613l700.753 120.397c2.196.47 4.547.626 6.741.626 18.656 0 35.117-12.854 39.192-31.51l142.19-651.371c2.194-10.034.469-20.537-5.017-29.473zM746.674 371.54l565.619-103.624-297.703 585.216H339.076zm40.132 1083.582l-447.73-441.46h675.514l351.16 528.466zm724.896-4.077L1175.12 933.396l294.254-585.215 190.63 553.548z" stroke-width="40.133"/>
</svg>
