<svg width="1536" height="1536" xmlns="http://www.w3.org/2000/svg">
    <path d="M1374 657c-8-34-42-55-77-47-143 34-273 62-401 62s-258-28-401-62c-35-8-69 13-77 47-8 35 13 69 47 77 106 25 205 47 303 58-4 338-41 432-83 540l-9 21c-13 33 4 70 37 83 7 3 15 4 23 4 26 0 50-15 60-41l8-20c28-72 54-139 71-259h42c17 120 43 187 71 259l8 20c10 26 34 41 60 41 8 0 16-1 23-4 33-13 50-50 37-83l-9-21c-42-108-79-202-83-540 98-11 197-33 303-58 34-8 55-42 47-77zm-350-145c0-71-57-128-128-128s-128 57-128 128 57 128 128 128 128-57 128-128zm576 384c0 389-315 704-704 704s-704-315-704-704 315-704 704-704 704 315 704 704zM896 128c-423 0-768 345-768 768s345 768 768 768 768-345 768-768-345-768-768-768zm896 768c0 495-401 896-896 896S0 1391 0 896 401 0 896 0s896 401 896 896z"/>
</svg>
