<?xml version="1.0" standalone="no"?>
<svg width="1536px" height="1536px" version="1.1" xmlns="http://www.w3.org/2000/svg">
    <path transform="scale(1, -1) translate(0, -1536)" glyph-name="universal_access" unicode="&#xf29a;" horiz-adv-x="1792" 

d="M1374 879c-8 34 -42 55 -77 47c-143 -34 -273 -62 -401 -62s-258 28 -401 62c-35 8 -69 -13 -77 -47c-8 -35 13 -69 47 -77c106 -25 205 -47 303 -58c-4 -338 -41 -432 -83 -540l-9 -21c-13 -33 4 -70 37 -83c7 -3 15 -4 23 -4c26 0 50 15 60 41l8 20
c28 72 54 139 71 259h42c17 -120 43 -187 71 -259l8 -20c10 -26 34 -41 60 -41c8 0 16 1 23 4c33 13 50 50 37 83l-9 21c-42 108 -79 202 -83 540c98 11 197 33 303 58c34 8 55 42 47 77zM1024 1024c0 71 -57 128 -128 128s-128 -57 -128 -128s57 -128 128 -128
s128 57 128 128zM1600 640c0 -389 -315 -704 -704 -704s-704 315 -704 704s315 704 704 704s704 -315 704 -704zM896 1408c-423 0 -768 -345 -768 -768s345 -768 768 -768s768 345 768 768s-345 768 -768 768zM1792 640c0 -495 -401 -896 -896 -896s-896 401 -896 896
s401 896 896 896v0c495 0 896 -401 896 -896z" />
</svg>