<?xml version="1.0" standalone="no"?>
<svg width="1536px" height="1536px" version="1.1" xmlns="http://www.w3.org/2000/svg">
    <path transform="scale(1, -1) translate(0, -1536)" glyph-name="unlock_alt" unicode="&#xf13e;" horiz-adv-x="1152" 

d="M1056 768c53 0 96 -43 96 -96v-576c0 -53 -43 -96 -96 -96h-960c-53 0 -96 43 -96 96v576c0 53 43 96 96 96h32v320c0 247 201 448 448 448s448 -201 448 -448c0 -35 -29 -64 -64 -64h-64c-35 0 -64 29 -64 64c0 141 -115 256 -256 256s-256 -115 -256 -256v-320h736z
" />
</svg>