<svg width="1536" height="1536" xmlns="http://www.w3.org/2000/svg">
    <path d="M1280 1472c0-35-29-64-64-64s-64 29-64 64 29 64 64 64 64-29 64-64zm256 0c0-35-29-64-64-64s-64 29-64 64 29 64 64 64 64-29 64-64zm128-224v320c0 53-43 96-96 96H96c-53 0-96-43-96-96v-320c0-53 43-96 96-96h427c27 74 98 128 181 128h256c83 0 154-54 181-128h427c53 0 96 43 96 96zm-325-648c-10 24-33 40-59 40h-256v448c0 35-29 64-64 64H704c-35 0-64-29-64-64V640H384c-26 0-49-16-59-40-10-23-5-51 14-69L787 83c12-13 29-19 45-19s33 6 45 19l448 448c19 18 24 46 14 69z"/>
</svg>
