<?xml version="1.0" standalone="no"?>
<svg width="1536px" height="1536px" version="1.1" xmlns="http://www.w3.org/2000/svg">
    <path transform="scale(1, -1) translate(0, -1536)" glyph-name="upload" unicode="&#xf093;" horiz-adv-x="1664" 

d="M1280 64c0 35 -29 64 -64 64s-64 -29 -64 -64s29 -64 64 -64s64 29 64 64zM1536 64c0 35 -29 64 -64 64s-64 -29 -64 -64s29 -64 64 -64s64 29 64 64zM1664 288v-320c0 -53 -43 -96 -96 -96h-1472c-53 0 -96 43 -96 96v320c0 53 43 96 96 96h427c27 -74 98 -128 181 -128
h256c83 0 154 54 181 128h427c53 0 96 -43 96 -96zM1339 936c-10 -24 -33 -40 -59 -40h-256v-448c0 -35 -29 -64 -64 -64h-256c-35 0 -64 29 -64 64v448h-256c-26 0 -49 16 -59 40c-10 23 -5 51 14 69l448 448c12 13 29 19 45 19s33 -6 45 -19l448 -448
c19 -18 24 -46 14 -69z" />
</svg>