<?xml version="1.0" standalone="no"?>
<svg width="1536px" height="1536px" version="1.1" xmlns="http://www.w3.org/2000/svg">
    <path transform="scale(1, -1) translate(0, -1536)" glyph-name="usb" unicode="&#xf287;" horiz-adv-x="2304" 

d="M2288 731c10 -5 16 -16 16 -27s-6 -22 -16 -27l-320 -192c-5 -3 -10 -5 -16 -5c-5 0 -11 1 -16 4c-10 6 -16 16 -16 28v128h-858c32 -50 59 -109 83 -165c48 -108 97 -219 167 -219h96v96c0 18 14 32 32 32h320c18 0 32 -14 32 -32v-320c0 -18 -14 -32 -32 -32h-320
c-18 0 -32 14 -32 32v96h-96c-153 0 -222 157 -284 295c-47 107 -96 217 -164 217h-360c-29 -110 -129 -192 -248 -192c-141 0 -256 115 -256 256s115 256 256 256c119 0 219 -82 248 -192h104c68 0 117 110 164 217c62 138 131 295 284 295h107c27 75 97 128 181 128
c106 0 192 -86 192 -192s-86 -192 -192 -192c-84 0 -154 53 -181 128h-107c-70 0 -119 -111 -167 -219c-24 -56 -51 -115 -83 -165h1114v128c0 12 6 22 16 28s23 5 32 -1z" />
</svg>