<svg width="1536" height="1536" xmlns="http://www.w3.org/2000/svg">
    <path d="M978 1185c0 204-146 365-358 400v175c0 18-14 32-32 32H453c-17 0-32-14-32-32v-175c-234-33-362-173-367-179-10-12-11-29-2-41l103-135c5-7 14-11 23-12s18 2 24 9c2 1 142 135 319 135 98 0 204-52 204-165 0-96-118-143-253-197C292 929 68 839 68 588c0-184 144-336 353-376V32c0-18 15-32 32-32h135c18 0 32 14 32 32v176c203 23 311 133 315 137 10 11 12 26 5 38l-81 146c-5 9-13 15-23 16-10 2-19-1-27-7-1-1-122-108-272-108-127 0-215 63-215 154 0 106 122 153 264 208 184 71 392 152 392 393z"/>
</svg>
