<?xml version="1.0" standalone="no"?>
<svg width="1536px" height="1536px" version="1.1" xmlns="http://www.w3.org/2000/svg">
    <path transform="scale(1, -1) translate(0, -1536)" glyph-name="usd" unicode="&#xf155;" horiz-adv-x="1024" 

d="M978 351c0 -204 -146 -365 -358 -400v-175c0 -18 -14 -32 -32 -32h-135c-17 0 -32 14 -32 32v175c-234 33 -362 173 -367 179c-10 12 -11 29 -2 41l103 135c5 7 14 11 23 12s18 -2 24 -9c2 -1 142 -135 319 -135c98 0 204 52 204 165c0 96 -118 143 -253 197
c-180 71 -404 161 -404 412c0 184 144 336 353 376v180c0 18 15 32 32 32h135c18 0 32 -14 32 -32v-176c203 -23 311 -133 315 -137c10 -11 12 -26 5 -38l-81 -146c-5 -9 -13 -15 -23 -16c-10 -2 -19 1 -27 7c-1 1 -122 108 -272 108c-127 0 -215 -63 -215 -154
c0 -106 122 -153 264 -208c184 -71 392 -152 392 -393z" />
</svg>