<?xml version="1.0" standalone="no"?>
<svg width="1536px" height="1536px" version="1.1" xmlns="http://www.w3.org/2000/svg">
    <path transform="scale(1, -1) translate(0, -1536)" glyph-name="user_circle_o" unicode="&#xf2be;" horiz-adv-x="1792" 

d="M896 1536c495 0 896 -401 896 -896c0 -492 -399 -896 -896 -896c-496 0 -896 403 -896 896c0 495 401 896 896 896zM1515 185c93 128 149 285 149 455c0 423 -345 768 -768 768s-768 -345 -768 -768c0 -170 56 -327 149 -455c36 179 123 327 306 327
c81 -79 191 -128 313 -128s232 49 313 128c183 0 270 -148 306 -327zM1280 832c0 212 -172 384 -384 384s-384 -172 -384 -384s172 -384 384 -384s384 172 384 384z" />
</svg>