<svg width="1536" height="1536" xmlns="http://www.w3.org/2000/svg">
    <path d="M384 1344c0 35-29 64-64 64s-64-29-64-64 29-64 64-64 64 29 64 64zm1024 61c0 163-107 259-267 259H267c-160 0-267-96-267-259 0-199 40-513 278-565-16 38-22 79-22 120v203c-77 27-128 100-128 181 0 106 86 192 192 192s192-86 192-192c0-81-52-154-128-181V960c0-33 3-66 25-93 84 66 188 104 295 104s211-38 295-104c22 27 25 60 25 93v64c-141 0-256 115-256 256v89c-20 18-32 44-32 71 0 53 43 96 96 96s96-43 96-96c0-27-12-53-32-71v-89c0-70 58-128 128-128s128 58 128 128v89c-20 18-32 44-32 71 0 53 43 96 96 96s96-43 96-96c0-27-12-53-32-71v-89c0-91-49-176-128-221 0-73 7-151-22-219 238 52 278 366 278 565zm-320-893c0 212-172 384-384 384S320 724 320 512s172-384 384-384 384 172 384 384z"/>
</svg>
