<?xml version="1.0" standalone="no"?>
<svg width="1536px" height="1536px" version="1.1" xmlns="http://www.w3.org/2000/svg">
    <path transform="scale(1, -1) translate(0, -1536)" glyph-name="user_secret" unicode="&#xf21b;" 

d="M576 0l96 448l-96 128l-128 64zM832 0l128 640l-128 -64l-96 -128zM992 1010c-1 2 -2 4 -4 6c-9 7 -81 8 -96 8c-57 0 -111 -8 -167 -19c-7 -2 -14 -2 -21 -2s-14 0 -21 2c-56 11 -110 19 -167 19c-15 0 -87 -1 -96 -8c-2 -2 -3 -4 -4 -6c1 -9 2 -18 4 -27
c6 -8 11 -5 15 -17c26 -71 38 -126 128 -126c129 0 93 119 135 119h12c42 0 6 -119 135 -119c90 0 102 55 128 126c4 12 9 9 15 17c2 9 3 18 4 27zM1408 131c0 -163 -107 -259 -267 -259h-874c-160 0 -267 96 -267 259c0 181 32 455 218 545l-90 220h214
c-14 41 -22 84 -22 128c0 11 1 22 2 32c-39 8 -194 40 -194 96c0 59 170 91 210 99c21 75 71 189 122 248c20 23 45 37 76 37c60 0 108 -62 168 -62s108 62 168 62c31 0 56 -14 76 -37c51 -59 101 -173 122 -248c40 -8 210 -40 210 -99c0 -56 -155 -88 -194 -96
c5 -54 -2 -108 -20 -160h214l-82 -225c179 -93 210 -362 210 -540z" />
</svg>