<svg width="1536" height="1536" xmlns="http://www.w3.org/2000/svg">
    <path d="M704 896c-212 0-384-172-384-384s172-384 384-384 384 172 384 384-172 384-384 384zm960 128h352c17 0 32 15 32 32v192c0 17-15 32-32 32h-352v352c0 17-15 32-32 32h-192c-17 0-32-15-32-32v-352h-352c-17 0-32-15-32-32v-192c0-17 15-32 32-32h352V672c0-17 15-32 32-32h192c17 0 32 15 32 32v352zm-736 224c0 70 58 128 128 128h256v238c-49 36-111 50-171 50H267c-160 0-267-96-267-259 0-226 53-573 346-573 16 0 27 7 39 17 98 75 193 122 319 122s221-47 319-122c12-10 23-17 39-17 85 0 160 32 217 96h-223c-70 0-128 58-128 128v192z"/>
</svg>
