<?xml version="1.0" standalone="no"?>
<svg width="1536px" height="1536px" version="1.1" xmlns="http://www.w3.org/2000/svg">
    <path transform="scale(1, -1) translate(0, -1536)" glyph-name="user_times" unicode="&#xf235;" horiz-adv-x="2048" 

d="M704 640c-212 0 -384 172 -384 384s172 384 384 384s384 -172 384 -384s-172 -384 -384 -384zM1781 320l249 -249c6 -6 9 -14 9 -23c0 -8 -3 -16 -9 -22l-136 -136c-6 -6 -14 -9 -22 -9c-9 0 -17 3 -23 9l-249 249l-249 -249c-6 -6 -14 -9 -23 -9c-8 0 -16 3 -22 9
l-136 136c-6 6 -9 14 -9 22c0 9 3 17 9 23l249 249l-249 249c-6 6 -9 14 -9 23c0 8 3 16 9 22l136 136c6 6 14 9 22 9c9 0 17 -3 23 -9l249 -249l249 249c6 6 14 9 23 9c8 0 16 -3 22 -9l136 -136c6 -6 9 -14 9 -22c0 -9 -3 -17 -9 -23zM1283 320l-181 -181
c-24 -24 -37 -57 -37 -91c0 -33 13 -66 37 -90l83 -83c-14 -2 -29 -3 -44 -3h-874c-160 0 -267 96 -267 259c0 226 53 573 346 573c16 0 27 -7 39 -17c96 -76 194 -122 319 -122s223 46 319 122c12 10 23 17 39 17c19 0 38 -2 57 -6c-33 -32 -54 -58 -54 -106
c0 -34 13 -67 37 -91z" />
</svg>