<?xml version="1.0" standalone="no"?>
<svg width="1536px" height="1536px" version="1.1" xmlns="http://www.w3.org/2000/svg">
    <path transform="scale(1, -1) translate(0, -1536)" glyph-name="users" unicode="&#xf0c0;" horiz-adv-x="1920" 

d="M593 640c-104 -3 -198 -48 -265 -128h-134c-100 0 -194 48 -194 159c0 81 -3 353 124 353c21 0 125 -85 260 -85c46 0 90 8 133 23c-3 -22 -5 -44 -5 -66c0 -91 29 -181 81 -256zM1664 3c0 -162 -107 -259 -267 -259h-874c-160 0 -267 97 -267 259c0 226 53 573 346 573
c34 0 158 -139 358 -139s324 139 358 139c293 0 346 -347 346 -573zM640 1280c0 -141 -115 -256 -256 -256s-256 115 -256 256s115 256 256 256s256 -115 256 -256zM1344 896c0 -212 -172 -384 -384 -384s-384 172 -384 384s172 384 384 384s384 -172 384 -384zM1920 671
c0 -111 -94 -159 -194 -159h-134c-67 80 -161 125 -265 128c52 75 81 165 81 256c0 22 -2 44 -5 66c43 -15 87 -23 133 -23c135 0 239 85 260 85c127 0 124 -272 124 -353zM1792 1280c0 -141 -115 -256 -256 -256s-256 115 -256 256s115 256 256 256s256 -115 256 -256z" />
</svg>