<?xml version="1.0" standalone="no"?>
<svg width="1536px" height="1536px" version="1.1" xmlns="http://www.w3.org/2000/svg">
    <path transform="scale(1, -1) translate(0, -1536)" glyph-name="user_o" unicode="&#xf2c0;" 

d="M1201 752c141 -41 335 -180 335 -635c0 -206 -153 -373 -341 -373h-854c-188 0 -341 167 -341 373c0 455 194 594 335 635c-50 79 -79 172 -79 272c0 282 230 512 512 512s512 -230 512 -512c0 -100 -29 -193 -79 -272zM768 1408c-212 0 -384 -172 -384 -384
s172 -384 384 -384s384 172 384 384s-172 384 -384 384zM1195 -128c117 0 213 109 213 245c0 315 -106 512 -304 522c-90 -79 -207 -127 -336 -127s-246 48 -336 127c-198 -10 -304 -207 -304 -522c0 -136 96 -245 213 -245h854z" />
</svg>