<?xml version="1.0" standalone="no"?>
<svg width="1536px" height="1536px" version="1.1" xmlns="http://www.w3.org/2000/svg">
    <path transform="scale(1, -1) translate(0, -1536)" glyph-name="user_md" unicode="&#xf0f0;" horiz-adv-x="1408" 

d="M384 192c0 -35 -29 -64 -64 -64s-64 29 -64 64s29 64 64 64s64 -29 64 -64zM1408 131c0 -163 -107 -259 -267 -259h-874c-160 0 -267 96 -267 259c0 199 40 513 278 565c-16 -38 -22 -79 -22 -120v-203c-77 -27 -128 -100 -128 -181c0 -106 86 -192 192 -192
s192 86 192 192c0 81 -52 154 -128 181v203c0 33 3 66 25 93c84 -66 188 -104 295 -104s211 38 295 104c22 -27 25 -60 25 -93v-64c-141 0 -256 -115 -256 -256v-89c-20 -18 -32 -44 -32 -71c0 -53 43 -96 96 -96s96 43 96 96c0 27 -12 53 -32 71v89c0 70 58 128 128 128
s128 -58 128 -128v-89c-20 -18 -32 -44 -32 -71c0 -53 43 -96 96 -96s96 43 96 96c0 27 -12 53 -32 71v89c0 91 -49 176 -128 221c0 73 7 151 -22 219c238 -52 278 -366 278 -565zM1088 1024c0 -212 -172 -384 -384 -384s-384 172 -384 384s172 384 384 384
s384 -172 384 -384z" />
</svg>