<svg width="1536" height="1536" xmlns="http://www.w3.org/2000/svg">
    <path d="M593 896c-104 3-198 48-265 128H194C94 1024 0 976 0 865c0-81-3-353 124-353 21 0 125 85 260 85 46 0 90-8 133-23-3 22-5 44-5 66 0 91 29 181 81 256zm1071 637c0 162-107 259-267 259H523c-160 0-267-97-267-259 0-226 53-573 346-573 34 0 158 139 358 139s324-139 358-139c293 0 346 347 346 573zM640 256c0 141-115 256-256 256S128 397 128 256 243 0 384 0s256 115 256 256zm704 384c0 212-172 384-384 384S576 852 576 640s172-384 384-384 384 172 384 384zm576 225c0 111-94 159-194 159h-134c-67-80-161-125-265-128 52-75 81-165 81-256 0-22-2-44-5-66 43 15 87 23 133 23 135 0 239-85 260-85 127 0 124 272 124 353zm-128-609c0 141-115 256-256 256s-256-115-256-256S1395 0 1536 0s256 115 256 256z"/>
</svg>
