<svg width="1536" height="1536" xmlns="http://www.w3.org/2000/svg">
    <path d="M704 896c-212 0-384-172-384-384s172-384 384-384 384 172 384 384-172 384-384 384zm1077 320l249 249c6 6 9 14 9 23 0 8-3 16-9 22l-136 136c-6 6-14 9-22 9-9 0-17-3-23-9l-249-249-249 249c-6 6-14 9-23 9-8 0-16-3-22-9l-136-136c-6-6-9-14-9-22 0-9 3-17 9-23l249-249-249-249c-6-6-9-14-9-23 0-8 3-16 9-22l136-136c6-6 14-9 22-9 9 0 17 3 23 9l249 249 249-249c6-6 14-9 23-9 8 0 16 3 22 9l136 136c6 6 9 14 9 22 0 9-3 17-9 23zm-498 0l-181 181c-24 24-37 57-37 91 0 33 13 66 37 90l83 83c-14 2-29 3-44 3H267c-160 0-267-96-267-259 0-226 53-573 346-573 16 0 27 7 39 17 96 76 194 122 319 122s223-46 319-122c12-10 23-17 39-17 19 0 38 2 57 6-33 32-54 58-54 106 0 34 13 67 37 91z"/>
</svg>
