<?xml version="1.0" standalone="no"?>
<svg width="1536px" height="1536px" version="1.1" xmlns="http://www.w3.org/2000/svg">
    <path transform="scale(1, -1) translate(0, -1536)" glyph-name="user_circle" unicode="&#xf2bd;" horiz-adv-x="1792" 

d="M1523 197c-26 187 -102 353 -272 376c-88 -96 -215 -157 -355 -157s-267 61 -355 157c-170 -23 -246 -189 -272 -376c139 -196 368 -325 627 -325s488 129 627 325zM1280 896c0 212 -172 384 -384 384s-384 -172 -384 -384s172 -384 384 -384s384 172 384 384zM1792 640
c0 -493 -400 -896 -896 -896c-495 0 -896 402 -896 896c0 495 401 896 896 896s896 -401 896 -896z" />
</svg>