<?xml version="1.0" standalone="no"?>
<svg width="1536px" height="1536px" version="1.1" xmlns="http://www.w3.org/2000/svg">
    <path transform="scale(1, -1) translate(0, -1536)" glyph-name="user_plus" unicode="&#xf234;" horiz-adv-x="2048" 

d="M704 640c-212 0 -384 172 -384 384s172 384 384 384s384 -172 384 -384s-172 -384 -384 -384zM1664 512h352c17 0 32 -15 32 -32v-192c0 -17 -15 -32 -32 -32h-352v-352c0 -17 -15 -32 -32 -32h-192c-17 0 -32 15 -32 32v352h-352c-17 0 -32 15 -32 32v192
c0 17 15 32 32 32h352v352c0 17 15 32 32 32h192c17 0 32 -15 32 -32v-352zM928 288c0 -70 58 -128 128 -128h256v-238c-49 -36 -111 -50 -171 -50h-874c-160 0 -267 96 -267 259c0 226 53 573 346 573c16 0 27 -7 39 -17c98 -75 193 -122 319 -122s221 47 319 122
c12 10 23 17 39 17c85 0 160 -32 217 -96h-223c-70 0 -128 -58 -128 -128v-192z" />
</svg>