<svg width="1536" height="1536" xmlns="http://www.w3.org/2000/svg">
    <path d="M576 1536l96-448-96-128-128-64zm256 0l128-640-128 64-96 128zM992 526c-1-2-2-4-4-6-9-7-81-8-96-8-57 0-111 8-167 19-7 2-14 2-21 2s-14 0-21-2c-56-11-110-19-167-19-15 0-87 1-96 8-2 2-3 4-4 6 1 9 2 18 4 27 6 8 11 5 15 17 26 71 38 126 128 126 129 0 93-119 135-119h12c42 0 6 119 135 119 90 0 102-55 128-126 4-12 9-9 15-17 2-9 3-18 4-27zm416 879c0 163-107 259-267 259H267c-160 0-267-96-267-259 0-181 32-455 218-545l-90-220h214c-14-41-22-84-22-128 0-11 1-22 2-32-39-8-194-40-194-96 0-59 170-91 210-99 21-75 71-189 122-248 20-23 45-37 76-37 60 0 108 62 168 62S812 0 872 0c31 0 56 14 76 37 51 59 101 173 122 248 40 8 210 40 210 99 0 56-155 88-194 96 5 54-2 108-20 160h214l-82 225c179 93 210 362 210 540z"/>
</svg>
