<?xml version="1.0" standalone="no"?>
<svg width="1536px" height="1536px" version="1.1" xmlns="http://www.w3.org/2000/svg">
    <path transform="scale(1, -1) translate(0, -1536)" glyph-name="venus" unicode="&#xf221;" horiz-adv-x="1280" 

d="M1152 960c0 -296 -224 -540 -512 -572v-260h224c18 0 32 -14 32 -32v-64c0 -18 -14 -32 -32 -32h-224v-224c0 -18 -14 -32 -32 -32h-64c-18 0 -32 14 -32 32v224h-224c-18 0 -32 14 -32 32v64c0 18 14 32 32 32h224v260c-303 33 -535 302 -510 619
c22 272 238 495 508 525c348 39 642 -232 642 -572zM128 960c0 -247 201 -448 448 -448s448 201 448 448s-201 448 -448 448s-448 -201 -448 -448z" />
</svg>