<?xml version="1.0" standalone="no"?>
<svg width="1536px" height="1536px" version="1.1" xmlns="http://www.w3.org/2000/svg">
    <path transform="scale(1, -1) translate(0, -1536)" glyph-name="venu_mars" unicode="&#xf228;" horiz-adv-x="2048" 

d="M1664 1504c0 18 14 32 32 32h288c35 0 64 -29 64 -64v-288c0 -18 -14 -32 -32 -32h-64c-18 0 -32 14 -32 32v134l-254 -255c98 -123 147 -286 117 -461c-42 -240 -237 -431 -478 -467c-152 -23 -295 14 -409 90c-75 -50 -162 -83 -256 -93v-132h96c18 0 32 -14 32 -32
v-64c0 -18 -14 -32 -32 -32h-96v-96c0 -18 -14 -32 -32 -32h-64c-18 0 -32 14 -32 32v96h-96c-18 0 -32 14 -32 32v64c0 18 14 32 32 32h96v132c-314 35 -553 323 -506 654c34 249 232 449 480 487c153 23 296 -14 410 -90c92 61 202 97 320 97c136 0 261 -48 359 -126
l255 254h-134c-18 0 -32 14 -32 32v64zM896 391c79 81 128 191 128 313s-49 232 -128 313c-79 -81 -128 -191 -128 -313s49 -232 128 -313zM128 704c0 -247 201 -448 448 -448c79 0 154 21 218 57c-95 103 -154 240 -154 391s59 288 154 391c-64 36 -139 57 -218 57
c-247 0 -448 -201 -448 -448zM1216 256c247 0 448 201 448 448s-201 448 -448 448c-79 0 -154 -21 -218 -57c95 -103 154 -240 154 -391s-59 -288 -154 -391c64 -36 139 -57 218 -57z" />
</svg>