<svg width="1536" height="1536" xmlns="http://www.w3.org/2000/svg">
    <path d="M1790 529c25 317-207 586-510 619v260h224c18 0 32 14 32 32v64c0 18-14 32-32 32h-224v224c0 18-14 32-32 32h-64c-18 0-32-14-32-32v-224H640v224c0 18-14 32-32 32h-64c-18 0-32-14-32-32v-224H288c-18 0-32-14-32-32v-64c0-18 14-32 32-32h224v-260C209 1115-23 846 2 529 24 254 245 29 519 3c140-14 271 23 377 94 106-71 237-108 377-94 274 26 495 251 517 526zM896 889c79-81 128-191 128-313s-49-232-128-313c-79 81-128 191-128 313s49 232 128 313zm-320 135c79 0 153-21 218-57-96-103-154-240-154-391s59-288 154-391c-65-36-139-57-218-57-247 0-448 201-448 448s201 448 448 448zm576 384v-260c-94-10-181-44-256-94-75 50-162 84-256 94v260h512zm64-384c247 0 448-201 448-448s-201-448-448-448c-79 0-153 21-218 57 95 103 154 240 154 391s-58 288-154 391c65 36 139 57 218 57z"/>
</svg>
