<svg width="1536" height="1536" xmlns="http://www.w3.org/2000/svg">
    <path d="M1664 32c0-18 14-32 32-32h288c35 0 64 29 64 64v288c0 18-14 32-32 32h-64c-18 0-32-14-32-32V218l-254 255c98 123 147 286 117 461-42 240-237 431-478 467-152 23-295-14-409-90-75 50-162 83-256 93v132h96c18 0 32 14 32 32v64c0 18-14 32-32 32h-96v96c0 18-14 32-32 32h-64c-18 0-32-14-32-32v-96h-96c-18 0-32-14-32-32v-64c0-18 14-32 32-32h96v-132C198 1369-41 1081 6 750c34-249 232-449 480-487 153-23 296 14 410 90 92-61 202-97 320-97 136 0 261 48 359 126l255-254h-134c-18 0-32-14-32-32V32zM896 1145c79-81 128-191 128-313s-49-232-128-313c-79 81-128 191-128 313s49 232 128 313zM128 832c0 247 201 448 448 448 79 0 154-21 218-57-95-103-154-240-154-391s59-288 154-391c-64-36-139-57-218-57-247 0-448 201-448 448zm1088 448c247 0 448-201 448-448s-201-448-448-448c-79 0-154 21-218 57 95 103 154 240 154 391s-59 288-154 391c64 36 139 57 218 57z"/>
</svg>
