<?xml version="1.0" standalone="no"?>
<svg width="1536px" height="1536px" version="1.1" xmlns="http://www.w3.org/2000/svg">
    <path transform="scale(1, -1) translate(0, -1536)" glyph-name="venus_double" unicode="&#xf226;" horiz-adv-x="1792" 

d="M1790 1007c25 -317 -207 -586 -510 -619v-260h224c18 0 32 -14 32 -32v-64c0 -18 -14 -32 -32 -32h-224v-224c0 -18 -14 -32 -32 -32h-64c-18 0 -32 14 -32 32v224h-512v-224c0 -18 -14 -32 -32 -32h-64c-18 0 -32 14 -32 32v224h-224c-18 0 -32 14 -32 32v64
c0 18 14 32 32 32h224v260c-303 33 -535 302 -510 619c22 275 243 500 517 526c140 14 271 -23 377 -94c106 71 237 108 377 94c274 -26 495 -251 517 -526zM896 647c79 81 128 191 128 313s-49 232 -128 313c-79 -81 -128 -191 -128 -313s49 -232 128 -313zM576 512
c79 0 153 21 218 57c-96 103 -154 240 -154 391s59 288 154 391c-65 36 -139 57 -218 57c-247 0 -448 -201 -448 -448s201 -448 448 -448zM1152 128v260c-94 10 -181 44 -256 94c-75 -50 -162 -84 -256 -94v-260h512zM1216 512c247 0 448 201 448 448s-201 448 -448 448
c-79 0 -153 -21 -218 -57c95 -103 154 -240 154 -391s-58 -288 -154 -391c65 -36 139 -57 218 -57z" />
</svg>