<svg width="1536" height="1536" xmlns="http://www.w3.org/2000/svg">
    <path d="M1050 1041c0-50-9-100-28-147-26 16-55 28-85 34 16 36 22 75 22 114 0 154-114 280-270 280-157 0-271-126-271-280 0-151 115-284 271-284 34 0 67 6 98 19 3-30 13-60 27-87-40-14-82-21-125-21-207 0-361 167-361 372s155 367 361 367 361-163 361-367zM872 686c2 24 2 48 2 71 0 185-36 486-235 562 14 2 28 3 42 3h10c148-94 219-238 219-411 0-77-13-153-38-225zm0 0c-5-97-60-247-142-302 56 95 106 197 142 302zm335-105c0-61-15-123-51-174-24 51-69 94-124 109-79 22-149 59-149 153 0 27 9 54 24 77 95-22 196-92 236-182-6 80-155 177-213 209 29 29 67 52 110 52 73 0 125-65 150-127 12-30 17-86 17-117zm329-165v960c0 159-129 288-288 288H288c-159 0-288-129-288-288V416c0-159 129-288 288-288h960c159 0 288 129 288 288z"/>
</svg>
