<?xml version="1.0" standalone="no"?>
<svg width="1536px" height="1536px" version="1.1" xmlns="http://www.w3.org/2000/svg">
    <path transform="scale(1, -1) translate(0, -1536)" glyph-name="viadeo_square" unicode="&#xf2aa;" 

d="M1050 495c0 50 -9 100 -28 147c-26 -16 -55 -28 -85 -34c16 -36 22 -75 22 -114c0 -154 -114 -280 -270 -280c-157 0 -271 126 -271 280c0 151 115 284 271 284c34 0 67 -6 98 -19c3 30 13 60 27 87c-40 14 -82 21 -125 21c-207 0 -361 -167 -361 -372s155 -367 361 -367
s361 163 361 367zM872 850c2 -24 2 -48 2 -71c0 -185 -36 -486 -235 -562c14 -2 28 -3 42 -3h10c148 94 219 238 219 411c0 77 -13 153 -38 225zM872 850c-5 97 -60 247 -142 302c56 -95 106 -197 142 -302zM1207 955c0 61 -15 123 -51 174c-24 -51 -69 -94 -124 -109
c-79 -22 -149 -59 -149 -153c0 -27 9 -54 24 -77c95 22 196 92 236 182c-6 -80 -155 -177 -213 -209c29 -29 67 -52 110 -52c73 0 125 65 150 127c12 30 17 86 17 117zM1536 1120v-960c0 -159 -129 -288 -288 -288h-960c-159 0 -288 129 -288 288v960c0 159 129 288 288 288
h960c159 0 288 -129 288 -288z" />
</svg>