<?xml version="1.0" standalone="no"?>
<svg width="1536px" height="1536px" version="1.1" xmlns="http://www.w3.org/2000/svg">
    <path transform="scale(1, -1) translate(0, -1536)" glyph-name="viadeo" unicode="&#xf2a9;" horiz-adv-x="1280" 

d="M1050 430c0 -143 -50 -269 -147 -374c-101 -110 -229 -161 -378 -161c-148 0 -277 50 -378 161c-97 105 -147 231 -147 374c0 297 224 540 525 540c62 0 124 -10 182 -31c-20 -39 -34 -82 -39 -126c-45 19 -94 28 -143 28c-227 0 -394 -194 -394 -414
c0 -224 166 -407 394 -407s393 183 393 407c0 57 -10 113 -32 166c44 9 86 26 123 49c28 -67 41 -140 41 -212zM846 619c0 -252 -102 -462 -318 -598l-14 -1c-21 0 -42 2 -62 5c289 110 342 549 342 817c0 34 0 69 -3 103c36 -105 55 -215 55 -326zM791 947v-2
c-52 153 -124 301 -206 440c126 -85 195 -291 206 -438zM1035 744c-62 0 -117 33 -160 75c102 56 231 143 290 247c7 14 19 40 21 56c-58 -130 -206 -232 -344 -264c-22 34 -35 72 -35 113c0 48 24 112 60 147c41 39 102 59 157 74c80 22 145 84 180 159
c52 -74 74 -164 74 -253c0 -45 -7 -127 -24 -170c-37 -90 -112 -184 -219 -184z" />
</svg>