<svg width="1536" height="1536" xmlns="http://www.w3.org/2000/svg">
    <path d="M1050 1106c0 143-50 269-147 374-101 110-229 161-378 161-148 0-277-50-378-161C50 1375 0 1249 0 1106c0-297 224-540 525-540 62 0 124 10 182 31-20 39-34 82-39 126-45-19-94-28-143-28-227 0-394 194-394 414 0 224 166 407 394 407s393-183 393-407c0-57-10-113-32-166 44-9 86-26 123-49 28 67 41 140 41 212zM846 917c0 252-102 462-318 598l-14 1c-21 0-42-2-62-5 289-110 342-549 342-817 0-34 0-69-3-103 36 105 55 215 55 326zm-55-328v2c-52-153-124-301-206-440 126 85 195 291 206 438zm244 203c-62 0-117-33-160-75 102-56 231-143 290-247 7-14 19-40 21-56-58 130-206 232-344 264-22-34-35-72-35-113 0-48 24-112 60-147 41-39 102-59 157-74 80-22 145-84 180-159 52 74 74 164 74 253 0 45-7 127-24 170-37 90-112 184-219 184z"/>
</svg>
