<?xml version="1.0" standalone="no"?>
<svg width="1536px" height="1536px" version="1.1" xmlns="http://www.w3.org/2000/svg">
    <path transform="scale(1, -1) translate(0, -1536)" glyph-name="video_camera" unicode="&#xf03d;" horiz-adv-x="1792" 

d="M1792 1184v-1088c0 -26 -16 -49 -39 -59c-8 -3 -17 -5 -25 -5c-17 0 -33 6 -45 19l-403 403v-166c0 -159 -129 -288 -288 -288h-704c-159 0 -288 129 -288 288v704c0 159 129 288 288 288h704c159 0 288 -129 288 -288v-165l403 402c12 13 28 19 45 19c8 0 17 -2 25 -5
c23 -10 39 -33 39 -59z" />
</svg>