<svg width="1536" height="1536" xmlns="http://www.w3.org/2000/svg">
    <path d="M1292 638c7-145-47-218-161-222-154-5-258 82-312 261 28-12 55-19 82-19 56 0 81 32 74 96-3 38-28 94-74 167-47 74-82 110-105 110-30 0-56-56-82-169-8-34-23-118-45-255-20-126-73-185-160-177-36 4-92 36-164 100-54 47-107 96-162 144l52 67c50-34 79-52 87-52 38 0 74 60 107 179 30 110 60 219 90 329 45 119 99 179 164 179 104 0 232-98 383-294 146-188 222-336 226-444zm244-222v960c0 159-129 288-288 288H288c-159 0-288-129-288-288V416c0-159 129-288 288-288h960c159 0 288 129 288 288z"/>
</svg>
