<?xml version="1.0" standalone="no"?>
<svg width="1536px" height="1536px" version="1.1" xmlns="http://www.w3.org/2000/svg">
    <path transform="scale(1, -1) translate(0, -1536)" glyph-name="vimeo_square" unicode="&#xf194;" 

d="M1292 898c7 145 -47 218 -161 222c-154 5 -258 -82 -312 -261c28 12 55 19 82 19c56 0 81 -32 74 -96c-3 -38 -28 -94 -74 -167c-47 -74 -82 -110 -105 -110c-30 0 -56 56 -82 169c-8 34 -23 118 -45 255c-20 126 -73 185 -160 177c-36 -4 -92 -36 -164 -100
c-54 -47 -107 -96 -162 -144l52 -67c50 34 79 52 87 52c38 0 74 -60 107 -179c30 -110 60 -219 90 -329c45 -119 99 -179 164 -179c104 0 232 98 383 294c146 188 222 336 226 444zM1536 1120v-960c0 -159 -129 -288 -288 -288h-960c-159 0 -288 129 -288 288v960
c0 159 129 288 288 288h960c159 0 288 -129 288 -288z" />
</svg>