<?xml version="1.0" standalone="no"?>
<svg width="1536px" height="1536px" version="1.1" xmlns="http://www.w3.org/2000/svg">
    <path transform="scale(1, -1) translate(0, -1536)" glyph-name="vimeo" unicode="&#xf27d;" horiz-adv-x="1792" 

d="M1709 1018c-7 -158 -118 -375 -332 -651c-222 -287 -408 -431 -562 -431c-95 0 -175 88 -240 263c-44 160 -88 321 -132 482c-48 175 -101 262 -157 262c-12 0 -54 -25 -127 -76l-77 98c80 71 159 143 238 212c106 94 187 141 241 146c127 12 204 -74 234 -259
c31 -200 54 -325 66 -373c37 -166 76 -249 120 -249c34 0 85 53 154 161c68 108 104 190 109 246c9 93 -27 139 -109 139c-39 0 -79 -9 -121 -26c80 262 233 389 459 382c167 -5 246 -114 236 -326z" />
</svg>