<?xml version="1.0" standalone="no"?>
<svg width="1536px" height="1536px" version="1.1" xmlns="http://www.w3.org/2000/svg">
    <path transform="scale(1, -1) translate(0, -1536)" glyph-name="vine" unicode="&#xf1ca;" 

d="M1497 709v-198c-70 -16 -140 -23 -198 -23c-140 -294 -391 -546 -475 -593c-53 -30 -103 -32 -162 3c-103 62 -493 382 -623 1388h283c71 -604 245 -914 436 -1146c106 106 208 247 287 406c-189 96 -304 307 -304 553c0 249 143 437 388 437c238 0 368 -148 368 -403
c0 -95 -20 -203 -58 -286c0 0 -176 -35 -241 78c13 43 31 117 31 184c0 119 -43 177 -108 177c-69 0 -117 -65 -117 -190c0 -255 162 -401 372 -401c37 0 79 4 121 14z" />
</svg>