<svg width="1536" height="1536" xmlns="http://www.w3.org/2000/svg">
    <path d="M1917 520c15 41-32 137-150 294-194 258-215 234-55 383 154 143 186 212 191 221 0 0 64 112-71 113l-256 4c-55 11-128-39-128-39-96-66-186-237-256-215 0 0-72 23-70 177 1 33-15 51-15 51s-18 19-53 22H939c-253 16-476-217-476-217S219 1062 5 559c-14-33 1-49 1-49s15-19 57-19l274-2c26 4 44 18 44 18s16 11 24 32c45 112 103 214 103 214 100 206 168 241 207 220 0 0 51-31 40-280-4-90-29-131-29-131-23-31-66-40-85-43-15-2 10-38 43-54 49-24 136-25 239-24 81 1 104 6 135 13 95 23 63 111 63 323 0 68-13 163 36 194 21 14 73 2 201-216 0 0 60-104 107-225 8-22 25-31 25-31s16-9 38-6l288-2c87-11 101 29 101 29z"/>
</svg>
