<?xml version="1.0" standalone="no"?>
<svg width="1536px" height="1536px" version="1.1" xmlns="http://www.w3.org/2000/svg">
    <path transform="scale(1, -1) translate(0, -1536)" glyph-name="vk" unicode="&#xf189;" horiz-adv-x="1920" 

d="M1917 1016c15 -41 -32 -137 -150 -294c-194 -258 -215 -234 -55 -383c154 -143 186 -212 191 -221c0 0 64 -112 -71 -113l-256 -4c-55 -11 -128 39 -128 39c-96 66 -186 237 -256 215c0 0 -72 -23 -70 -177c1 -33 -15 -51 -15 -51s-18 -19 -53 -22h-115v0
c-253 -16 -476 217 -476 217s-244 252 -458 755c-14 33 1 49 1 49s15 19 57 19l274 2c26 -4 44 -18 44 -18s16 -11 24 -32c45 -112 103 -214 103 -214c100 -206 168 -241 207 -220c0 0 51 31 40 280c-4 90 -29 131 -29 131c-23 31 -66 40 -85 43c-15 2 10 38 43 54
c49 24 136 25 239 24c81 -1 104 -6 135 -13c95 -23 63 -111 63 -323c0 -68 -13 -163 36 -194c21 -14 73 -2 201 216c0 0 60 104 107 225c8 22 25 31 25 31s16 9 38 6l288 2c87 11 101 -29 101 -29z" />
</svg>