<?xml version="1.0" standalone="no"?>
<svg width="1536px" height="1536px" version="1.1" xmlns="http://www.w3.org/2000/svg">
    <path transform="scale(1, -1) translate(0, -1536)" glyph-name="volume_control_phone" unicode="&#xf2a0;" horiz-adv-x="1408" 

d="M617 -153c0 24 -53 194 -64 234c-6 25 -8 66 -27 84c-13 12 -34 14 -51 14c-47 0 -94 -11 -141 -11c-14 0 -35 1 -47 11c-16 13 -24 58 -30 78c-24 83 -37 168 -37 255s13 172 37 255c6 20 14 65 30 78c12 10 33 11 47 11c47 0 94 -11 141 -11c17 0 38 2 51 14
c19 18 21 59 27 84c11 40 64 210 64 234c0 34 -90 84 -119 95c-15 6 -30 8 -45 8c-33 0 -66 -9 -98 -18c-164 -49 -203 -149 -268 -290c-70 -151 -87 -295 -87 -460s17 -309 87 -460c65 -141 104 -241 268 -290c32 -9 65 -18 98 -18c15 0 30 2 45 8c29 11 119 61 119 95z
M776 760c-17 0 -33 7 -45 19c-25 25 -26 66 0 91c24 24 37 56 37 90s-13 66 -37 91c-26 25 -25 65 0 90s65 25 90 0c48 -48 75 -113 75 -181s-27 -133 -75 -181c-13 -12 -29 -19 -45 -19zM957 579c-17 0 -33 6 -45 19c-25 25 -25 65 0 90c72 73 112 169 112 272
s-40 199 -112 272c-25 25 -25 65 0 90s65 25 90 0c97 -97 150 -225 150 -362s-53 -265 -150 -362c-12 -13 -29 -19 -45 -19zM1138 398c-17 0 -33 6 -45 19c-25 25 -25 65 0 90c120 121 187 282 187 453s-67 332 -187 453c-25 25 -25 65 0 90s65 25 90 0
c145 -145 225 -338 225 -543s-80 -398 -225 -543c-12 -13 -29 -19 -45 -19z" />
</svg>