<svg width="1536" height="1536" xmlns="http://www.w3.org/2000/svg">
    <path d="M617 1689c0-24-53-194-64-234-6-25-8-66-27-84-13-12-34-14-51-14-47 0-94 11-141 11-14 0-35-1-47-11-16-13-24-58-30-78-24-83-37-168-37-255s13-172 37-255c6-20 14-65 30-78 12-10 33-11 47-11 47 0 94 11 141 11 17 0 38-2 51-14 19-18 21-59 27-84 11-40 64-210 64-234 0-34-90-84-119-95-15-6-30-8-45-8-33 0-66 9-98 18-164 49-203 149-268 290C17 715 0 859 0 1024s17 309 87 460c65 141 104 241 268 290 32 9 65 18 98 18 15 0 30-2 45-8 29-11 119-61 119-95zm159-913c-17 0-33-7-45-19-25-25-26-66 0-91 24-24 37-56 37-90s-13-66-37-91c-26-25-25-65 0-90s65-25 90 0c48 48 75 113 75 181s-27 133-75 181c-13 12-29 19-45 19zm181 181c-17 0-33-6-45-19-25-25-25-65 0-90 72-73 112-169 112-272s-40-199-112-272c-25-25-25-65 0-90s65-25 90 0c97 97 150 225 150 362s-53 265-150 362c-12 13-29 19-45 19zm181 181c-17 0-33-6-45-19-25-25-25-65 0-90 120-121 187-282 187-453s-67-332-187-453c-25-25-25-65 0-90s65-25 90 0c145 145 225 338 225 543s-80 398-225 543c-12 13-29 19-45 19z"/>
</svg>
