<svg width="1536" height="1536" xmlns="http://www.w3.org/2000/svg">
    <path d="M768 352v1088c0 35-29 64-64 64-17 0-33-7-45-19l-333-333H64c-35 0-64-29-64-64V704c0-35 29-64 64-64h262l333-333c12-12 28-19 45-19 35 0 64 29 64 64zm384 544c0 100-61 197-155 235-8 4-17 5-25 5-35 0-64-28-64-64 0-76 116-55 116-176S908 796 908 720c0-36 29-64 64-64 8 0 17 1 25 5 94 37 155 135 155 235zm256 0c0 203-122 392-310 471-8 3-17 5-25 5-36 0-65-29-65-64 0-28 16-47 39-59 27-14 52-26 76-44 99-72 157-187 157-309s-58-237-157-309c-24-18-49-30-76-44-23-12-39-31-39-59 0-35 29-64 64-64 9 0 18 2 26 5 188 79 310 268 310 471zm256 0c0 307-183 585-465 706-8 3-17 5-26 5-35 0-64-29-64-64 0-29 15-45 39-59 14-8 30-13 45-21 28-15 56-32 82-51 164-121 261-312 261-516s-97-395-261-516c-26-19-54-36-82-51-15-8-31-13-45-21-24-14-39-30-39-59 0-35 29-64 64-64 9 0 18 2 26 5 282 121 465 399 465 706z"/>
</svg>
