<?xml version="1.0" standalone="no"?>
<svg width="1536px" height="1536px" version="1.1" xmlns="http://www.w3.org/2000/svg">
    <path transform="scale(1, -1) translate(0, -1536)" glyph-name="volume_down" unicode="&#xf027;" horiz-adv-x="1152" 

d="M768 1184v-1088c0 -35 -29 -64 -64 -64c-17 0 -33 7 -45 19l-333 333h-262c-35 0 -64 29 -64 64v384c0 35 29 64 64 64h262l333 333c12 12 28 19 45 19c35 0 64 -29 64 -64zM1152 640c0 -100 -61 -197 -155 -235c-8 -4 -17 -5 -25 -5c-35 0 -64 28 -64 64
c0 76 116 55 116 176s-116 100 -116 176c0 36 29 64 64 64c8 0 17 -1 25 -5c94 -37 155 -135 155 -235z" />
</svg>