<?xml version="1.0" standalone="no"?>
<svg width="1536px" height="1536px" version="1.1" xmlns="http://www.w3.org/2000/svg">
    <path transform="scale(1, -1) translate(0, -1536)" glyph-name="volume_up" unicode="&#xf028;" horiz-adv-x="1664" 

d="M768 1184v-1088c0 -35 -29 -64 -64 -64c-17 0 -33 7 -45 19l-333 333h-262c-35 0 -64 29 -64 64v384c0 35 29 64 64 64h262l333 333c12 12 28 19 45 19c35 0 64 -29 64 -64zM1152 640c0 -100 -61 -197 -155 -235c-8 -4 -17 -5 -25 -5c-35 0 -64 28 -64 64
c0 76 116 55 116 176s-116 100 -116 176c0 36 29 64 64 64c8 0 17 -1 25 -5c94 -37 155 -135 155 -235zM1408 640c0 -203 -122 -392 -310 -471c-8 -3 -17 -5 -25 -5c-36 0 -65 29 -65 64c0 28 16 47 39 59c27 14 52 26 76 44c99 72 157 187 157 309s-58 237 -157 309
c-24 18 -49 30 -76 44c-23 12 -39 31 -39 59c0 35 29 64 64 64c9 0 18 -2 26 -5c188 -79 310 -268 310 -471zM1664 640c0 -307 -183 -585 -465 -706c-8 -3 -17 -5 -26 -5c-35 0 -64 29 -64 64c0 29 15 45 39 59c14 8 30 13 45 21c28 15 56 32 82 51c164 121 261 312 261 516
s-97 395 -261 516c-26 19 -54 36 -82 51c-15 8 -31 13 -45 21c-24 14 -39 30 -39 59c0 35 29 64 64 64c9 0 18 -2 26 -5c282 -121 465 -399 465 -706z" />
</svg>