<svg xmlns="http://www.w3.org/2000/svg" viewBox="0 0 1536 1792" height="1792" width="1536">
    <g fill-rule="evenodd">
        <path d="M1466.618 1355.872c-33.087-.166-66.057-6.901-97.137-20.444-70.01-30.5-131.66-88.104-181.812-166.041 14.302-25.423 27.192-51.747 38.7-78.508 50.461-117.339 74.46-245.826 76.3-373.364-.267-2.53-.476-5.068-.632-7.616l-.139-6.544c-.114-50.007-7.727-100.69-24.934-147.874-19.822-54.364-51.419-108.773-101.55-129.99-9.11-3.85-18.69-5.465-28.228-5.24-63.06-117.86-65.065-230.806 0-338.354 1.159 0 2.362.004 3.521.013 76.763.846 152.813 24.536 217.892 65.91 177.204 112.661 265.554 332.21 267.501 547.766a194.13 194.13 0 0 1-.08 7.58h.995c-.26 227.807-55.042 458.823-170.396 652.706zm-392.91 357.584c-165.503 68.072-357.725 64.42-521.777-11.742-188.733-87.604-332.945-257.88-421.763-452.24-151.923-332.449-155.399-729.87-11.32-1067.415 108.204 43.287 204.42-25.656 204.42-25.656s-.223 106.081 102.5 159.284C320.37 562.62 322.91 855.99 428.53 1096.622c50.848 115.781 128.525 223.595 236.194 284.567 38.43 21.76 80.656 35.809 124.095 41.08.16.251.321.503.483.754 76.71 119.695 173.342 219.445 284.406 290.433z" fill-rule="nonzero"/>
        <path d="M1466.57 1355.952c-33.071-.173-66.024-6.907-97.089-20.443-70.022-30.506-131.68-88.123-181.836-166.079 14.312-25.436 27.21-51.775 38.725-78.551 15.214-35.379 28.022-71.765 38.54-108.836 24.376-85.89 348.03 23.117 298.656 164.622-25.474 73.004-57.727 143.296-96.997 209.287zm-392.939 357.536c-165.486 68.04-357.674 64.376-521.7-11.774-188.733-87.604 5.125-381.497 112.794-320.525 38.413 21.75 80.62 35.797 124.039 41.073l.538.842c76.693 119.668 173.299 219.4 284.33 290.384z" opacity=".3"/>
        <path d="M659.2 703.166c-.076-2.525-.107-5.05-.081-7.58 1.947-215.556 90.298-435.105 267.502-547.767 65.078-41.373 141.128-65.063 217.891-65.909 1.16-.009 2.362-.013 3.521-.013V420.25c-9.537-.225-19.118 1.39-28.227 5.24-50.132 21.217-81.728 75.626-101.55 129.99-17.207 47.185-24.823 97.867-24.935 147.874l-.138 6.544a173.132 173.132 0 0 1-.633 7.616c1.84 127.538 25.839 256.025 76.3 373.364 56.513 131.413 146.343 252.303 273.175 307.558 95.681 41.693 201.746 31.858 288.47-17.248 107.668-60.972 185.345-168.786 236.194-284.567 105.62-240.631 108.16-534.002 2.763-780.935 102.722-53.203 102.5-159.284 102.5-159.284s96.215 68.943 204.42 25.656c144.078 337.544 140.602 734.966-11.32 1067.415-88.818 194.36-233.03 364.636-421.764 452.24-168.01 78-365.567 79.948-533.71 6.689-151.098-65.855-273.99-184.503-362.408-322.466-128.053-199.811-188.693-443.067-188.965-682.771z" fill-rule="nonzero"/>
    </g>
</svg>
