<?xml version="1.0" standalone="no"?>
<svg width="1536px" height="1536px" version="1.1" xmlns="http://www.w3.org/2000/svg">
    <path transform="scale(1, -1) translate(0, -1536)" glyph-name="weibo" unicode="&#xf18a;" horiz-adv-x="1792" 

d="M675 252c28 46 13 99 -34 119c-45 19 -105 -1 -133 -45c-29 -45 -15 -98 30 -119c46 -21 108 -1 137 45zM769 373c10 18 4 38 -14 45c-18 6 -40 -2 -50 -19c-10 -18 -5 -37 13 -45c18 -7 41 1 51 19zM943 266c-60 -136 -234 -210 -382 -162c-143 46 -203 187 -141 314
c62 124 221 194 362 158c147 -38 221 -176 161 -310zM1255 426c-19 195 -275 329 -572 300c-297 -30 -521 -211 -502 -406s275 -329 572 -300c297 30 521 211 502 406zM1563 422c0 -225 -324 -508 -811 -508c-372 0 -752 180 -752 477c0 155 98 334 267 503
c226 226 489 328 588 229c44 -43 48 -119 20 -209c-14 -46 43 -20 43 -21c182 77 341 81 399 -2c31 -44 28 -106 0 -178c-13 -33 4 -38 29 -46c103 -32 217 -109 217 -245zM1489 1046c57 -63 73 -150 48 -226c-10 -31 -43 -48 -74 -38s-48 43 -38 74v0c12 38 4 80 -24 111
s-69 43 -107 35v0c-32 -7 -64 13 -70 45c-7 32 13 63 45 70c78 17 163 -7 220 -71zM1670 1209c118 -130 149 -308 99 -464v0c-12 -36 -50 -56 -86 -44s-56 50 -45 86v0c36 111 14 238 -70 330c-84 93 -207 128 -321 104c-37 -8 -74 16 -82 53s16 73 53 81v0
c161 34 334 -15 452 -146z" />
</svg>