<svg width="1536" height="1536" xmlns="http://www.w3.org/2000/svg">
    <path d="M675 1284c28-46 13-99-34-119-45-19-105 1-133 45-29 45-15 98 30 119 46 21 108 1 137-45zm94-121c10-18 4-38-14-45-18-6-40 2-50 19-10 18-5 37 13 45 18 7 41-1 51-19zm174 107c-60 136-234 210-382 162-143-46-203-187-141-314 62-124 221-194 362-158 147 38 221 176 161 310zm312-160c-19-195-275-329-572-300-297 30-521 211-502 406s275 329 572 300c297-30 521-211 502-406zm308 4c0 225-324 508-811 508-372 0-752-180-752-477 0-155 98-334 267-503 226-226 489-328 588-229 44 43 48 119 20 209-14 46 43 20 43 21 182-77 341-81 399 2 31 44 28 106 0 178-13 33 4 38 29 46 103 32 217 109 217 245zm-74-624c57 63 73 150 48 226-10 31-43 48-74 38s-48-43-38-74c12-38 4-80-24-111s-69-43-107-35c-32 7-64-13-70-45-7-32 13-63 45-70 78-17 163 7 220 71zm181-163c118 130 149 308 99 464-12 36-50 56-86 44s-56-50-45-86c36-111 14-238-70-330-84-93-207-128-321-104-37 8-74-16-82-53s16-73 53-81c161-34 334 15 452 146z"/>
</svg>
