<svg width="1536" height="1536" xmlns="http://www.w3.org/2000/svg">
    <path d="M580 461c0-55-36-91-91-91-54 0-109 36-109 91 0 54 55 90 109 90 55 0 91-36 91-90zm743 507c0-36-36-72-91-72-36 0-72 36-72 72 0 37 36 73 72 73 55 0 91-36 91-73zm-236-507c0-55-36-91-90-91-55 0-109 36-109 91 0 54 54 90 109 90 54 0 90-36 90-90zm635 507c0-36-37-72-91-72-36 0-72 36-72 72 0 37 36 73 72 73 54 0 91-36 91-73zm-266-397c-23-3-46-4-70-4-344 0-616 257-616 573 0 53 8 104 23 152-23 2-45 3-68 3-91 0-163-18-254-36l-253 127 72-218C109 1041 0 877 0 678 0 333 326 62 725 62c356 0 669 217 731 509zm592 561c0 163-108 308-254 417l55 181-199-109c-73 18-146 37-218 37-345 0-616-236-616-526s271-526 616-526c326 0 616 236 616 526z"/>
</svg>
