<?xml version="1.0" standalone="no"?>
<svg width="1536px" height="1536px" version="1.1" xmlns="http://www.w3.org/2000/svg">
    <path transform="scale(1, -1) translate(0, -1536)" glyph-name="weixin" unicode="&#xf1d7;" horiz-adv-x="2048" 

d="M580 1075c0 55 -36 91 -91 91c-54 0 -109 -36 -109 -91c0 -54 55 -90 109 -90c55 0 91 36 91 90zM1323 568c0 36 -36 72 -91 72c-36 0 -72 -36 -72 -72c0 -37 36 -73 72 -73c55 0 91 36 91 73zM1087 1075c0 55 -36 91 -90 91c-55 0 -109 -36 -109 -91
c0 -54 54 -90 109 -90c54 0 90 36 90 90zM1722 568c0 36 -37 72 -91 72c-36 0 -72 -36 -72 -72c0 -37 36 -73 72 -73c54 0 91 36 91 73zM1456 965c-23 3 -46 4 -70 4c-344 0 -616 -257 -616 -573c0 -53 8 -104 23 -152c-23 -2 -45 -3 -68 -3c-91 0 -163 18 -254 36
l-253 -127l72 218c-181 127 -290 291 -290 490c0 345 326 616 725 616c356 0 669 -217 731 -509zM2048 404c0 -163 -108 -308 -254 -417l55 -181l-199 109c-73 -18 -146 -37 -218 -37c-345 0 -616 236 -616 526s271 526 616 526c326 0 616 -236 616 -526z" />
</svg>