<?xml version="1.0" standalone="no"?>
<svg width="1536px" height="1536px" version="1.1" xmlns="http://www.w3.org/2000/svg">
    <path transform="scale(1, -1) translate(0, -1536)" glyph-name="whatsapp" unicode="&#xf232;" 

d="M985 562c17 0 180 -85 187 -97c2 -5 2 -11 2 -15c0 -25 -8 -53 -17 -76c-23 -56 -116 -92 -173 -92c-48 0 -147 42 -190 62c-143 65 -232 176 -318 303c-38 56 -72 125 -71 194v8c2 66 26 113 74 158c15 14 31 22 52 22c12 0 24 -3 37 -3c27 0 32 -8 42 -34
c7 -17 58 -153 58 -163c0 -38 -69 -81 -69 -104c0 -5 2 -10 5 -15c22 -47 64 -101 102 -137c46 -44 95 -73 151 -101c7 -4 14 -7 22 -7c30 0 80 97 106 97zM782 32c346 0 628 282 628 628s-282 628 -628 628s-628 -282 -628 -628c0 -132 42 -261 120 -368l-79 -233l242 77
c102 -67 223 -104 345 -104zM782 1414c416 0 754 -338 754 -754s-338 -754 -754 -754c-127 0 -253 32 -365 94l-417 -134l136 405c-71 117 -108 252 -108 389c0 416 338 754 754 754z" />
</svg>