<svg width="1536" height="1536" xmlns="http://www.w3.org/2000/svg">
    <path d="M985 974c17 0 180 85 187 97 2 5 2 11 2 15 0 25-8 53-17 76-23 56-116 92-173 92-48 0-147-42-190-62-143-65-232-176-318-303-38-56-72-125-71-194v-8c2-66 26-113 74-158 15-14 31-22 52-22 12 0 24 3 37 3 27 0 32 8 42 34 7 17 58 153 58 163 0 38-69 81-69 104 0 5 2 10 5 15 22 47 64 101 102 137 46 44 95 73 151 101 7 4 14 7 22 7 30 0 80-97 106-97zm-203 530c346 0 628-282 628-628s-282-628-628-628-628 282-628 628c0 132 42 261 120 368l-79 233 242-77c102 67 223 104 345 104zm0-1382c416 0 754 338 754 754s-338 754-754 754c-127 0-253-32-365-94L0 1670l136-405C65 1148 28 1013 28 876c0-416 338-754 754-754z"/>
</svg>
