<?xml version="1.0" standalone="no"?>
<svg width="1536px" height="1536px" version="1.1" xmlns="http://www.w3.org/2000/svg">
    <path transform="scale(1, -1) translate(0, -1536)" glyph-name="wheelchair" unicode="&#xf193;" horiz-adv-x="1664" 

d="M1023 349l102 -204c-77 -238 -299 -401 -549 -401c-317 0 -576 259 -576 576c0 242 152 458 379 541l17 -131c-163 -72 -268 -232 -268 -410c0 -247 201 -448 448 -448c257 0 465 220 447 477zM1571 249l58 -114l-256 -128c-9 -5 -19 -7 -29 -7c-24 0 -47 14 -57 35
l-239 477h-472c-32 0 -60 25 -64 57l-96 779c-1 10 3 32 6 42c19 69 83 114 154 114c88 0 160 -72 160 -160c0 -91 -80 -169 -172 -159l37 -289h423v-128h-407l16 -128h455c24 0 47 -14 57 -35l228 -455z" />
</svg>