<svg width="1536" height="1536" xmlns="http://www.w3.org/2000/svg">
    <path d="M1438 813c21 22 32 52 29 82l-44 551c-5 56-51 98-106 98-3 0-6 0-9-1-59-4-102-56-98-114l35-429-143 8c35 72 55 154 55 240 0 144-56 275-148 372l-137-137c56-62 91-145 91-235 0-194-157-351-350-351-91 0-173 35-236 92L240 851c77-73 175-123 284-141l264-300-149-87-181 161c-44 40-111 36-150-8s-35-111 8-150l239-213c34-31 84-36 124-12 487 283 488 283 488 283 26 15 41 41 48 68 10 39 3 83-26 117L984 801l371-20c31-2 61 9 83 32zm-198-457c-98 0-178-79-178-178 0-98 80-178 178-178 99 0 179 80 179 178 0 99-80 178-179 178zM613 1598c72 0 140-23 196-61l139 139c-92 73-209 116-335 116-301 0-545-244-545-544 0-127 43-243 116-336l139 139c-38 56-60 124-60 197 0 193 157 350 350 350z"/>
</svg>
