<?xml version="1.0" standalone="no"?>
<svg width="1536px" height="1536px" version="1.1" xmlns="http://www.w3.org/2000/svg">
    <path transform="scale(1, -1) translate(0, -1536)" glyph-name="wheelchair_alt" unicode="&#xf29b;" 

d="M1438 723c21 -22 32 -52 29 -82l-44 -551c-5 -56 -51 -98 -106 -98c-3 0 -6 0 -9 1c-59 4 -102 56 -98 114l35 429l-143 -8c35 -72 55 -154 55 -240c0 -144 -56 -275 -148 -372l-137 137c56 62 91 145 91 235c0 194 -157 351 -350 351c-91 0 -173 -35 -236 -92l-137 138
c77 73 175 123 284 141l264 300l-149 87l-181 -161c-44 -40 -111 -36 -150 8s-35 111 8 150l239 213c34 31 84 36 124 12c487 -283 488 -283 488 -283c26 -15 41 -41 48 -68c10 -39 3 -83 -26 -117l-205 -232l371 20c31 2 61 -9 83 -32zM1240 1180c-98 0 -178 79 -178 178
c0 98 80 178 178 178c99 0 179 -80 179 -178c0 -99 -80 -178 -179 -178zM613 -62c72 0 140 23 196 61l139 -139c-92 -73 -209 -116 -335 -116c-301 0 -545 244 -545 544c0 127 43 243 116 336l139 -139c-38 -56 -60 -124 -60 -197c0 -193 157 -350 350 -350z" />
</svg>