<?xml version="1.0" standalone="no"?>
<svg width="1536px" height="1536px" version="1.1" xmlns="http://www.w3.org/2000/svg">
    <path transform="scale(1, -1) translate(0, -1536)" glyph-name="wifi" unicode="&#xf1eb;" horiz-adv-x="2048" 

d="M1024 13c-26 0 -166 140 -166 167c0 49 128 76 166 76s166 -27 166 -76c0 -27 -140 -167 -166 -167zM1294 284c-14 0 -123 100 -270 100c-148 0 -255 -100 -270 -100c-24 0 -169 144 -169 168c0 9 4 17 10 23c107 106 281 165 429 165s322 -59 429 -165
c6 -6 10 -14 10 -23c0 -24 -145 -168 -169 -168zM1567 556c-8 0 -17 4 -23 8c-165 128 -304 204 -520 204c-302 0 -532 -212 -543 -212c-23 0 -167 144 -167 168c0 8 4 16 10 22c179 179 449 278 700 278s521 -99 700 -278c6 -6 10 -14 10 -22c0 -24 -144 -168 -167 -168z
M1838 827c-8 0 -16 4 -22 9c-231 203 -480 316 -792 316s-561 -113 -792 -316c-6 -5 -14 -9 -22 -9c-23 0 -168 144 -168 168c0 9 4 17 10 23c253 251 618 390 972 390s719 -139 972 -390c6 -6 10 -14 10 -23c0 -24 -145 -168 -168 -168z" />
</svg>