<svg width="1536" height="1536" xmlns="http://www.w3.org/2000/svg">
    <path d="M1024 1523c-26 0-166-140-166-167 0-49 128-76 166-76s166 27 166 76c0 27-140 167-166 167zm270-271c-14 0-123-100-270-100-148 0-255 100-270 100-24 0-169-144-169-168 0-9 4-17 10-23 107-106 281-165 429-165s322 59 429 165c6 6 10 14 10 23 0 24-145 168-169 168zm273-272c-8 0-17-4-23-8-165-128-304-204-520-204-302 0-532 212-543 212-23 0-167-144-167-168 0-8 4-16 10-22 179-179 449-278 700-278s521 99 700 278c6 6 10 14 10 22 0 24-144 168-167 168zm271-271c-8 0-16-4-22-9-231-203-480-316-792-316S463 497 232 700c-6 5-14 9-22 9-23 0-168-144-168-168 0-9 4-17 10-23 253-251 618-390 972-390s719 139 972 390c6 6 10 14 10 23 0 24-145 168-168 168z"/>
</svg>
