<svg width="1536" height="1536" xmlns="http://www.w3.org/2000/svg">
    <path d="M1494 1639l-295-695c-117 229-246 468-357 695-1 1-54 0-54-1-169-395-346-787-515-1183C232 359 95 203 1 204c0-11-1-36-1-51h583v50c-69 4-190 48-156 123 79 179 373 865 452 1039 54-107 208-393 271-514-50-102-211-482-262-576-35-64-130-70-201-71v-50l513 1v47c-70 2-137 28-106 94 68 144 110 245 173 377 20-39 125-250 173-363 32-74-14-103-139-106 1-13 0-37 1-49 160-1 400-1 443-2v49c-81 3-165 46-209 114l-213 442c23 58 228 514 249 564l441-1017c-31-83-131-101-170-102v-50l460 4 1 2-1 44c-101 3-162 57-201 145-90 208-372 864-559 1291h-49z"/>
</svg>
