<?xml version="1.0" standalone="no"?>
<svg width="1536px" height="1536px" version="1.1" xmlns="http://www.w3.org/2000/svg">
    <path transform="scale(1, -1) translate(0, -1536)" glyph-name="wikipedia_w" unicode="&#xf266;" horiz-adv-x="2304" 

d="M1494 -103l-295 695c-117 -229 -246 -468 -357 -695c-1 -1 -54 0 -54 1c-169 395 -346 787 -515 1183c-41 96 -178 252 -272 251c0 11 -1 36 -1 51h583v-50c-69 -4 -190 -48 -156 -123c79 -179 373 -865 452 -1039c54 107 208 393 271 514c-50 102 -211 482 -262 576
c-35 64 -130 70 -201 71v50l513 -1v-47c-70 -2 -137 -28 -106 -94c68 -144 110 -245 173 -377c20 39 125 250 173 363c32 74 -14 103 -139 106c1 13 0 37 1 49c160 1 400 1 443 2v-49c-81 -3 -165 -46 -209 -114l-213 -442c23 -58 228 -514 249 -564l441 1017
c-31 83 -131 101 -170 102v50l460 -4l1 -2l-1 -44c-101 -3 -162 -57 -201 -145c-90 -208 -372 -864 -559 -1291h-49z" />
</svg>