<?xml version="1.0" standalone="no"?>
<svg width="1536px" height="1536px" version="1.1" xmlns="http://www.w3.org/2000/svg">
    <path transform="scale(1, -1) translate(0, -1536)" glyph-name="window_close" unicode="&#xf2d3;" horiz-adv-x="1792" 

d="M1175 215l146 146c13 13 13 33 0 46l-233 233l233 233c13 13 13 33 0 46l-146 146c-13 13 -33 13 -46 0l-233 -233l-233 233c-13 13 -33 13 -46 0l-146 -146c-13 -13 -13 -33 0 -46l233 -233l-233 -233c-13 -13 -13 -33 0 -46l146 -146c13 -13 33 -13 46 0l233 233
l233 -233c13 -13 33 -13 46 0zM1792 1248v-1216c0 -88 -72 -160 -160 -160h-1472c-88 0 -160 72 -160 160v1216c0 88 72 160 160 160h1472c88 0 160 -72 160 -160z" />
</svg>