<?xml version="1.0" standalone="no"?>
<svg width="1536px" height="1536px" version="1.1" xmlns="http://www.w3.org/2000/svg">
    <path transform="scale(1, -1) translate(0, -1536)" glyph-name="window_restore" unicode="&#xf2d2;" horiz-adv-x="2048" 

d="M256 0h768v512h-768v-512zM1280 512h512v768h-768v-256h96c88 0 160 -72 160 -160v-352zM2048 1376v-960c0 -88 -72 -160 -160 -160h-608v-352c0 -88 -72 -160 -160 -160h-960c-88 0 -160 72 -160 160v960c0 88 72 160 160 160h608v352c0 88 72 160 160 160h960
c88 0 160 -72 160 -160z" />
</svg>