<?xml version="1.0" standalone="no"?>
<svg width="1536px" height="1536px" version="1.1" xmlns="http://www.w3.org/2000/svg">
    <path transform="scale(1, -1) translate(0, -1536)" glyph-name="window_close_o" unicode="&#xf2d4;" horiz-adv-x="1792" 

d="M1257 425l-146 -146c-13 -13 -33 -13 -46 0l-169 169l-169 -169c-13 -13 -33 -13 -46 0l-146 146c-13 13 -13 33 0 46l169 169l-169 169c-13 13 -13 33 0 46l146 146c13 13 33 13 46 0l169 -169l169 169c13 13 33 13 46 0l146 -146c13 -13 13 -33 0 -46l-169 -169
l169 -169c13 -13 13 -33 0 -46zM256 128h1280v1024h-1280v-1024zM1792 1248v-1216c0 -88 -72 -160 -160 -160h-1472c-88 0 -160 72 -160 160v1216c0 88 72 160 160 160h1472c88 0 160 -72 160 -160z" />
</svg>