<svg xmlns="http://www.w3.org/2000/svg" height="1792" width="1792">
    <path d="M1792 1078.535c0 305.173-246.611 552.435-551.785 553.085-123.632 0-244.009-41.643-340.961-119.076a552.752 552.752 0 0 1-343.565 119.727C250.516 1632.272 0 1384.36 0 1079.185V208.562h105.412v869.322c.65 247.913 202.364 448.325 450.277 447.675 95.652 0 188.7-31.233 265.482-87.843-87.193-99.556-135.345-227.742-135.995-359.832V366.679c1.952-116.473 98.255-208.87 214.728-206.92 113.22 1.953 204.968 93.701 206.92 206.92v711.205c.65 132.09-46.85 259.625-132.741 359.832 197.81 147.056 477.606 106.061 624.662-91.747 57.26-77.433 88.494-171.133 87.843-268.085V208.562H1792zm-790.588-711.856c0-57.91-46.85-105.412-105.412-105.412-57.91 0-105.412 46.85-105.412 105.412v711.205c0 105.412 37.74 207.57 105.412 288.255 68.322-80.685 105.412-182.843 105.412-288.255z"/>
</svg>
