<svg width="1536" height="1536" xmlns="http://www.w3.org/2000/svg">
    <path d="M127 896c0-111 24-217 67-313l367 1005c-257-125-434-388-434-692zm1288-39c0 66-27 142-59 249l-76 256-278-826s46-3 88-8c41-5 36-66-5-63-125 9-205 10-205 10s-75-1-202-10c-42-3-47 60-5 63 39 4 80 8 80 8l120 328-168 504-280-832s46-3 88-8c41-5 36-66-5-63-124 9-205 10-205 10-14 0-31-1-49-1 137-209 373-347 642-347 200 0 382 77 519 202h-10c-75 0-129 65-129 136 0 63 37 116 76 180 30 51 63 117 63 212zM909 963l237 647c1 4 3 8 5 11-80 28-165 44-255 44-75 0-148-11-217-32zm661-436c60 110 95 235 95 369 0 284-154 531-383 664l235-678c39-112 59-198 59-276 0-28-2-54-6-79zM896 0c494 0 896 402 896 896s-402 896-896 896S0 1390 0 896 402 0 896 0zm0 1751c471 0 855-384 855-855S1367 41 896 41 41 425 41 896s384 855 855 855z"/>
</svg>
