<?xml version="1.0" standalone="no"?>
<svg width="1536px" height="1536px" version="1.1" xmlns="http://www.w3.org/2000/svg">
    <path transform="scale(1, -1) translate(0, -1536)" glyph-name="wordpress" unicode="&#xf19a;" horiz-adv-x="1792" 

d="M127 640c0 111 24 217 67 313l367 -1005c-257 125 -434 388 -434 692zM1415 679c0 -66 -27 -142 -59 -249l-76 -256l-278 826s46 3 88 8c41 5 36 66 -5 63c-125 -9 -205 -10 -205 -10s-75 1 -202 10c-42 3 -47 -60 -5 -63c39 -4 80 -8 80 -8l120 -328l-168 -504l-280 832
s46 3 88 8c41 5 36 66 -5 63c-124 -9 -205 -10 -205 -10c-14 0 -31 1 -49 1c137 209 373 347 642 347c200 0 382 -77 519 -202h-10c-75 0 -129 -65 -129 -136c0 -63 37 -116 76 -180c30 -51 63 -117 63 -212zM909 573l237 -647c1 -4 3 -8 5 -11c-80 -28 -165 -44 -255 -44
c-75 0 -148 11 -217 32zM1570 1009c60 -110 95 -235 95 -369c0 -284 -154 -531 -383 -664l235 678c39 112 59 198 59 276c0 28 -2 54 -6 79zM896 1536c494 0 896 -402 896 -896s-402 -896 -896 -896s-896 402 -896 896s402 896 896 896zM896 -215c471 0 855 384 855 855
s-384 855 -855 855s-855 -384 -855 -855s384 -855 855 -855z" />
</svg>