<?xml version="1.0" standalone="no"?>
<svg width="1536px" height="1536px" version="1.1" xmlns="http://www.w3.org/2000/svg">
    <path transform="scale(1, -1) translate(0, -1536)" glyph-name="wpbeginner" unicode="&#xf297;" horiz-adv-x="1792" 

d="M384 704h160v224h-160v-224zM1221 372v92c-86 -30 -157 -37 -243 -38c-193 -1 -364 79 -480 169l1 -96c109 -99 276 -177 484 -176c87 0 169 18 238 49zM640 704h640v224h-640v-224zM1792 736c0 -127 -36 -247 -99 -352c56 -64 89 -143 89 -229
c0 -209 -198 -379 -443 -379c-166 0 -310 78 -386 193c-19 -1 -38 -1 -57 -1s-38 0 -57 1c-76 -115 -220 -193 -386 -193c-245 0 -443 170 -443 379c0 86 33 165 89 229c-63 105 -99 225 -99 352c0 424 401 768 896 768s896 -344 896 -768z" />
</svg>