<?xml version="1.0" standalone="no"?>
<svg width="1536px" height="1536px" version="1.1" xmlns="http://www.w3.org/2000/svg">
    <path transform="scale(1, -1) translate(0, -1536)" glyph-name="wpforms" unicode="&#xf298;" 

d="M515 625v-128h-252v128h252zM515 880v-127h-252v127h252zM1273 369v-128h-341v128v0h341zM1273 625v-128h-672v128h672zM1273 880v-127h-672v127h672zM1408 20v1240c0 11 -9 20 -20 20h-32v0l-378 -256l-210 171l-210 -171l-378 256h-32c-11 0 -20 -9 -20 -20v-1240
c0 -11 9 -20 20 -20h1240c11 0 20 9 20 20zM553 1130l185 150h-406zM983 1130l221 150h-406zM1536 1260v-1240c0 -82 -66 -148 -148 -148h-1240c-82 0 -148 66 -148 148v1240c0 82 66 148 148 148h1240c82 0 148 -66 148 -148z" />
</svg>