<?xml version="1.0" standalone="no"?>
<svg width="1536px" height="1536px" version="1.1" xmlns="http://www.w3.org/2000/svg">
    <path transform="scale(1, -1) translate(0, -1536)" glyph-name="wrench" unicode="&#xf0ad;" horiz-adv-x="1664" 

d="M384 64c0 35 -29 64 -64 64s-64 -29 -64 -64s29 -64 64 -64s64 29 64 64zM1028 484l-682 -682c-23 -23 -56 -37 -90 -37s-67 14 -91 37l-106 108c-24 23 -38 56 -38 90s14 67 38 91l681 681c52 -131 157 -236 288 -288zM1662 919c0 -33 -12 -74 -23 -106
c-63 -178 -234 -301 -423 -301c-247 0 -448 201 -448 448s201 448 448 448c73 0 168 -22 229 -63c10 -7 16 -16 16 -28c0 -11 -7 -22 -16 -28l-293 -169v-224l193 -107c33 19 265 165 285 165s32 -15 32 -35z" />
</svg>