<?xml version="1.0" standalone="no"?>
<svg width="1536px" height="1536px" version="1.1" xmlns="http://www.w3.org/2000/svg">
    <path transform="scale(1, -1) translate(0, -1536)" glyph-name="xing_square" unicode="&#xf169;" 

d="M685 771c0 0 0 1 -126 222c-10 16 -24 34 -52 34h-184c-12 0 -21 -4 -26 -11c-5 -8 -4 -19 1 -29l125 -216v-1l-196 -346c-6 -10 -5 -20 0 -28s13 -13 24 -13h185c27 0 41 19 50 36c192 339 199 352 199 352zM1309 1268c-5 8 -13 12 -24 12h-187c-27 0 -39 -17 -49 -35
c-398 -706 -411 -729 -411 -729s0 -1 262 -481c9 -16 23 -35 52 -35h184c11 0 20 4 25 12s5 18 -1 28l-260 476v1l409 723c5 10 5 20 0 28zM1536 1120v-960c0 -159 -129 -288 -288 -288h-960c-159 0 -288 129 -288 288v960c0 159 129 288 288 288h960
c159 0 288 -129 288 -288z" />
</svg>