<svg width="1536" height="1536" xmlns="http://www.w3.org/2000/svg">
    <path d="M685 765s0-1-126-222c-10-16-24-34-52-34H323c-12 0-21 4-26 11-5 8-4 19 1 29l125 216v1l-196 346c-6 10-5 20 0 28s13 13 24 13h185c27 0 41-19 50-36 192-339 199-352 199-352zm624-497c-5-8-13-12-24-12h-187c-27 0-39 17-49 35-398 706-411 729-411 729s0 1 262 481c9 16 23 35 52 35h184c11 0 20-4 25-12s5-18-1-28l-260-476v-1l409-723c5-10 5-20 0-28zm227 148v960c0 159-129 288-288 288H288c-159 0-288-129-288-288V416c0-159 129-288 288-288h960c159 0 288 129 288 288z"/>
</svg>
