<?xml version="1.0" standalone="no"?>
<svg width="1536px" height="1536px" version="1.1" xmlns="http://www.w3.org/2000/svg">
    <path transform="scale(1, -1) translate(0, -1536)" glyph-name="xing" unicode="&#xf168;" horiz-adv-x="1408" 

d="M597 869c0 0 -10 -17 -257 -456c-13 -22 -30 -46 -65 -46h-239c-14 0 -25 7 -31 17s-7 23 0 36l253 448c1 0 1 0 0 1l-161 279c-7 13 -8 27 -1 37c6 10 18 15 32 15h239c36 0 54 -24 66 -45c163 -285 164 -286 164 -286zM1403 1511c7 -10 7 -24 0 -37l-528 -934
c-1 0 -1 -1 0 -1l336 -615c7 -13 7 -27 1 -37c-7 -10 -18 -15 -32 -15h-239c-36 0 -55 24 -66 45c-339 621 -339 622 -339 622s17 30 531 942c13 23 28 45 64 45h241c14 0 25 -5 31 -15z" />
</svg>