<?xml version="1.0" standalone="no"?>
<svg width="1536px" height="1536px" version="1.1" xmlns="http://www.w3.org/2000/svg">
    <path transform="scale(1, -1) translate(0, -1536)" glyph-name="yahoo" unicode="&#xf19e;" 

d="M859 579l13 -707c-34 6 -69 11 -105 11c-35 0 -70 -5 -105 -11l13 707c-186 321 -361 648 -566 957c35 -9 71 -15 108 -15s75 7 111 15c140 -248 292 -489 439 -733c148 242 305 483 439 733c35 -9 71 -14 107 -14c38 0 77 5 114 14v0v0c-80 -110 -146 -230 -215 -347
c-119 -203 -236 -406 -353 -610z" />
</svg>