<?xml version="1.0" standalone="no"?>
<svg width="1536px" height="1536px" version="1.1" xmlns="http://www.w3.org/2000/svg">
    <path transform="scale(1, -1) translate(0, -1536)" glyph-name="yelp" unicode="&#xf1e9;" 

d="M773 217v-127c-1 -282 -1 -292 -6 -305c-8 -21 -26 -35 -51 -40c-72 -12 -297 71 -344 127c-10 11 -15 24 -17 36c-1 9 1 18 4 26c5 14 14 25 215 263c0 0 1 0 60 70c20 25 56 33 89 21c33 -13 51 -41 50 -71zM624 468c-2 -35 -22 -61 -52 -70l-120 -39
c-269 -86 -278 -88 -292 -88c-22 1 -42 14 -54 36c-8 16 -14 43 -17 75c-11 98 2 245 31 291c14 22 34 33 56 32c15 0 27 -6 317 -124c0 0 -1 -1 84 -34c30 -12 49 -43 47 -79zM1450 171c-10 -72 -159 -261 -227 -288c-23 -9 -46 -7 -63 7c-12 9 -24 27 -184 287l-47 77
c-18 28 -15 64 8 92c22 27 54 36 83 26c0 0 1 -1 119 -40c269 -88 278 -91 289 -100c18 -14 26 -35 22 -61zM778 803c5 -104 -39 -117 -54 -122c-14 -4 -58 -17 -114 71c-368 581 -378 598 -378 598c-5 21 1 44 19 62c55 57 354 141 432 121c25 -6 43 -22 49 -45
c4 -25 40 -564 46 -685zM1440 695c2 -25 -7 -46 -26 -59c-12 -8 -24 -12 -329 -86c-49 -11 -76 -18 -91 -23l1 2c-30 -8 -64 6 -83 36s-18 63 0 87c0 0 1 1 75 102c164 224 172 235 184 243c19 13 42 13 65 2c65 -31 196 -226 204 -301v-3z" />
</svg>