<svg width="1536" height="1536" xmlns="http://www.w3.org/2000/svg">
    <path d="M773 1319v127c-1 282-1 292-6 305-8 21-26 35-51 40-72 12-297-71-344-127-10-11-15-24-17-36-1-9 1-18 4-26 5-14 14-25 215-263 0 0 1 0 60-70 20-25 56-33 89-21 33 13 51 41 50 71zm-149-251c-2 35-22 61-52 70l-120 39c-269 86-278 88-292 88-22-1-42-14-54-36-8-16-14-43-17-75-11-98 2-245 31-291 14-22 34-33 56-32 15 0 27 6 317 124 0 0-1 1 84 34 30 12 49 43 47 79zm826 297c-10 72-159 261-227 288-23 9-46 7-63-7-12-9-24-27-184-287l-47-77c-18-28-15-64 8-92 22-27 54-36 83-26 0 0 1 1 119 40 269 88 278 91 289 100 18 14 26 35 22 61zM778 733c5 104-39 117-54 122-14 4-58 17-114-71-368-581-378-598-378-598-5-21 1-44 19-62C306 67 605-17 683 3c25 6 43 22 49 45 4 25 40 564 46 685zm662 108c2 25-7 46-26 59-12 8-24 12-329 86-49 11-76 18-91 23l1-2c-30 8-64-6-83-36s-18-63 0-87c0 0 1-1 75-102 164-224 172-235 184-243 19-13 42-13 65-2 65 31 196 226 204 301v3z"/>
</svg>
