<?xml version="1.0" standalone="no"?>
<svg width="1536px" height="1536px" version="1.1" xmlns="http://www.w3.org/2000/svg">
    <path transform="scale(1, -1) translate(0, -1536)" glyph-name="yoast" unicode="&#xf2b1;" horiz-adv-x="1664" 

d="M339 1318h691l-26 -72h-665c-147 0 -267 -121 -267 -268v-771c0 -126 90 -237 214 -263c32 -7 65 -5 98 -5v-72h-45c-187 0 -339 153 -339 340v771c0 187 152 340 339 340zM1190 1536h247l-482 -1294c-90 -240 -199 -490 -495 -498v195c111 18 182 79 220 182
c13 34 20 69 20 105s-7 72 -20 106l-285 733h228l187 -585zM1664 978v-1111h-795c16 24 33 47 45 73h678v1038c0 114 -72 216 -179 254l25 67c136 -46 226 -178 226 -321z" />
</svg>