<svg width="1536" height="1536" xmlns="http://www.w3.org/2000/svg">
    <path d="M971 1244v211c0 45-13 67-39 67-15 0-30-7-45-22v-301c15-15 30-22 45-22 26 0 39 23 39 67zm338 1v46h-90v-46c0-45 15-68 45-68s45 23 45 68zm-966-218h107v-94H138v94h105v569h100v-569zm288 569h89v-494h-89v378c-20 28-39 42-57 42-12 0-19-7-21-21-1-3-1-14-1-35v-364h-89v391c0 35 3 58 8 73 8 25 29 37 58 37 32 0 66-20 102-61v54zm429-148v-197c0-46-2-79-9-99-11-37-36-56-71-56-33 0-64 18-93 54V933h-89v663h89v-48c30 37 61 55 93 55 35 0 60-19 71-55 7-21 9-54 9-100zm338-10v-13h-91c0 36-1 56-2 61-5 24-18 36-40 36-31 0-46-23-46-69v-87h179v-103c0-53-9-91-27-116-26-34-61-51-106-51-46 0-81 17-107 51-19 25-28 63-28 116v173c0 53 10 92 29 116 26 34 61 51 108 51s84-18 108-53c11-16 19-34 21-54 2-9 2-29 2-58zM790 525V315c0-46-13-69-43-69-29 0-43 23-43 69v210c0 46 14 70 43 70 30 0 43-24 43-70zm719 751c0 115-1 238-26 350-19 79-83 137-160 145-184 21-370 21-555 21s-371 0-555-21c-77-8-142-66-160-145-26-112-26-235-26-350 0-116 1-238 26-350 19-79 83-137 161-146 183-20 369-20 554-20s371 0 555 20c77 9 142 67 160 146 26 112 26 234 26 350zM511 0h102L492 399v271H392V399c-9-49-29-119-61-212-22-62-44-125-65-187h106l71 263zm370 333v175c0 53-9 93-28 118-25 34-60 51-106 51-45 0-80-17-105-51-19-26-28-65-28-118V333c0-53 9-92 28-117 25-34 60-51 105-51 46 0 81 17 106 51 19 25 28 64 28 117zm335-162v499h-91v-55c-36 42-70 62-103 62-29 0-50-12-59-37-5-15-8-39-8-75V171h91v367c0 21 0 33 1 35 2 14 9 22 21 22 18 0 37-14 57-43V171h91z"/>
</svg>
