<?xml version="1.0" standalone="no"?>
<svg width="1536px" height="1536px" version="1.1" xmlns="http://www.w3.org/2000/svg">
    <path transform="scale(1, -1) translate(0, -1536)" glyph-name="youtube" unicode="&#xf167;" 

d="M971 292v-211c0 -45 -13 -67 -39 -67c-15 0 -30 7 -45 22v301c15 15 30 22 45 22c26 0 39 -23 39 -67zM1309 291v-46h-90v46c0 45 15 68 45 68s45 -23 45 -68zM343 509h107v94h-312v-94h105v-569h100v569zM631 -60h89v494h-89v-378c-20 -28 -39 -42 -57 -42
c-12 0 -19 7 -21 21c-1 3 -1 14 -1 35v364h-89v-391c0 -35 3 -58 8 -73c8 -25 29 -37 58 -37c32 0 66 20 102 61v-54zM1060 88v197c0 46 -2 79 -9 99c-11 37 -36 56 -71 56c-33 0 -64 -18 -93 -54v217h-89v-663h89v48c30 -37 61 -55 93 -55c35 0 60 19 71 55
c7 21 9 54 9 100zM1398 98v13h-91c0 -36 -1 -56 -2 -61c-5 -24 -18 -36 -40 -36c-31 0 -46 23 -46 69v87h179v103c0 53 -9 91 -27 116c-26 34 -61 51 -106 51c-46 0 -81 -17 -107 -51c-19 -25 -28 -63 -28 -116v-173c0 -53 10 -92 29 -116c26 -34 61 -51 108 -51
s84 18 108 53c11 16 19 34 21 54c2 9 2 29 2 58zM790 1011v210c0 46 -13 69 -43 69c-29 0 -43 -23 -43 -69v-210c0 -46 14 -70 43 -70c30 0 43 24 43 70zM1509 260c0 -115 -1 -238 -26 -350c-19 -79 -83 -137 -160 -145c-184 -21 -370 -21 -555 -21s-371 0 -555 21
c-77 8 -142 66 -160 145c-26 112 -26 235 -26 350v0c0 116 1 238 26 350c19 79 83 137 161 146c183 20 369 20 554 20s371 0 555 -20c77 -9 142 -67 160 -146c26 -112 26 -234 26 -350zM511 1536h102l-121 -399v-271h-100v271c-9 49 -29 119 -61 212c-22 62 -44 125 -65 187
h106l71 -263zM881 1203v-175c0 -53 -9 -93 -28 -118c-25 -34 -60 -51 -106 -51c-45 0 -80 17 -105 51c-19 26 -28 65 -28 118v175c0 53 9 92 28 117c25 34 60 51 105 51c46 0 81 -17 106 -51c19 -25 28 -64 28 -117zM1216 1365v-499h-91v55c-36 -42 -70 -62 -103 -62
c-29 0 -50 12 -59 37c-5 15 -8 39 -8 75v394h91v-367c0 -21 0 -33 1 -35c2 -14 9 -22 21 -22c18 0 37 14 57 43v381h91z" />
</svg>