<?xml version="1.0" standalone="no"?>
<svg width="1536px" height="1536px" version="1.1" xmlns="http://www.w3.org/2000/svg">
    <path transform="scale(1, -1) translate(0, -1536)" glyph-name="youtube_play" unicode="&#xf16a;" horiz-adv-x="1792" 

d="M711 408l484 250l-484 253v-503zM896 1270c377 0 627 -18 627 -18c35 -4 112 -4 180 -76c0 0 55 -54 71 -178c19 -145 18 -290 18 -290v-136s1 -145 -18 -290c-16 -123 -71 -178 -71 -178c-68 -71 -145 -71 -180 -75c0 0 -250 -19 -627 -19v0c-466 4 -609 18 -609 18
c-40 7 -130 5 -198 76c0 0 -55 55 -71 178c-19 145 -18 290 -18 290v136s-1 145 18 290c16 124 71 178 71 178c68 72 145 72 180 76c0 0 250 18 627 18v0z" />
</svg>