<?xml version="1.0" standalone="no"?>
<svg width="1536px" height="1536px" version="1.1" xmlns="http://www.w3.org/2000/svg">
    <path transform="scale(1, -1) translate(0, -1536)" glyph-name="youtube_square" unicode="&#xf166;" 

d="M919 233v157c0 33 -10 50 -29 50c-11 0 -22 -5 -33 -16v-224c11 -11 22 -16 33 -16c19 0 29 16 29 49zM1103 355h66v34c0 34 -11 51 -33 51s-33 -17 -33 -51v-34zM532 621v-70h-80v-423h-74v423h-78v70h232zM733 495v-367h-67v40c-26 -30 -51 -45 -76 -45
c-21 0 -36 9 -42 28c-4 11 -6 28 -6 54v290h66v-270c0 -15 0 -24 1 -26c1 -10 6 -15 15 -15c14 0 27 10 42 31v280h67zM985 384v-146c0 -33 -2 -58 -7 -73c-8 -28 -26 -42 -53 -42c-23 0 -46 14 -68 41v-36h-67v493h67v-161c21 26 44 40 68 40c27 0 45 -14 53 -42
c5 -15 7 -39 7 -74zM1236 255v-9c0 -22 -1 -36 -2 -43c-2 -15 -7 -28 -15 -40c-18 -27 -46 -40 -80 -40c-35 0 -62 13 -81 38c-14 18 -21 47 -21 86v129c0 39 6 67 20 86c19 25 46 38 80 38c33 0 60 -13 78 -38c14 -19 21 -47 21 -86v-76h-133v-65c0 -34 11 -51 34 -51
c16 0 26 9 30 26c0 4 1 19 1 45h68zM785 1079v-156c0 -34 -11 -51 -32 -51c-22 0 -32 17 -32 51v156c0 34 10 52 32 52c21 0 32 -18 32 -52zM1318 366v0c0 86 0 177 -19 260c-14 59 -62 102 -119 108c-136 15 -274 15 -412 15c-137 0 -275 0 -411 -15
c-58 -6 -106 -49 -119 -108c-19 -83 -20 -174 -20 -260v0c0 -85 0 -176 20 -260c13 -58 61 -101 118 -108c137 -15 275 -15 412 -15s275 0 412 15c57 7 105 50 118 108c20 84 20 175 20 260zM563 1017l90 296h-75l-51 -195l-53 195h-78c15 -46 32 -92 47 -138
c24 -70 39 -122 46 -158v-201h74v201zM852 936v130c0 39 -7 68 -21 87c-19 25 -45 38 -78 38c-34 0 -60 -13 -78 -38c-14 -19 -21 -48 -21 -87v-130c0 -39 7 -68 21 -87c18 -25 44 -38 78 -38c33 0 59 13 78 38c14 18 21 48 21 87zM1033 816h67v370h-67v-283
c-15 -21 -29 -31 -42 -31c-9 0 -15 5 -16 16c-1 2 -1 10 -1 26v272h-67v-293c0 -26 2 -43 6 -55c7 -18 22 -27 43 -27c25 0 50 15 77 45v-40zM1536 1120v-960c0 -159 -129 -288 -288 -288h-960c-159 0 -288 129 -288 288v960c0 159 129 288 288 288h960
c159 0 288 -129 288 -288z" />
</svg>