<svg width="1536" height="1536" xmlns="http://www.w3.org/2000/svg">
    <path d="M919 1303v-157c0-33-10-50-29-50-11 0-22 5-33 16v224c11 11 22 16 33 16 19 0 29-16 29-49zm184-122h66v-34c0-34-11-51-33-51s-33 17-33 51v34zM532 915v70h-80v423h-74V985h-78v-70h232zm201 126v367h-67v-40c-26 30-51 45-76 45-21 0-36-9-42-28-4-11-6-28-6-54v-290h66v270c0 15 0 24 1 26 1 10 6 15 15 15 14 0 27-10 42-31v-280h67zm252 111v146c0 33-2 58-7 73-8 28-26 42-53 42-23 0-46-14-68-41v36h-67V915h67v161c21-26 44-40 68-40 27 0 45 14 53 42 5 15 7 39 7 74zm251 129v9c0 22-1 36-2 43-2 15-7 28-15 40-18 27-46 40-80 40-35 0-62-13-81-38-14-18-21-47-21-86v-129c0-39 6-67 20-86 19-25 46-38 80-38 33 0 60 13 78 38 14 19 21 47 21 86v76h-133v65c0 34 11 51 34 51 16 0 26-9 30-26 0-4 1-19 1-45h68zM785 457v156c0 34-11 51-32 51-22 0-32-17-32-51V457c0-34 10-52 32-52 21 0 32 18 32 52zm533 713c0-86 0-177-19-260-14-59-62-102-119-108-136-15-274-15-412-15-137 0-275 0-411 15-58 6-106 49-119 108-19 83-20 174-20 260 0 85 0 176 20 260 13 58 61 101 118 108 137 15 275 15 412 15s275 0 412-15c57-7 105-50 118-108 20-84 20-175 20-260zM563 519l90-296h-75l-51 195-53-195h-78c15 46 32 92 47 138 24 70 39 122 46 158v201h74V519zm289 81V470c0-39-7-68-21-87-19-25-45-38-78-38-34 0-60 13-78 38-14 19-21 48-21 87v130c0 39 7 68 21 87 18 25 44 38 78 38 33 0 59-13 78-38 14-18 21-48 21-87zm181 120h67V350h-67v283c-15 21-29 31-42 31-9 0-15-5-16-16-1-2-1-10-1-26V350h-67v293c0 26 2 43 6 55 7 18 22 27 43 27 25 0 50-15 77-45v40zm503-304v960c0 159-129 288-288 288H288c-159 0-288-129-288-288V416c0-159 129-288 288-288h960c159 0 288 129 288 288z"/>
</svg>
